<?xml version="1.0" encoding="UTF-8" standalone="no"?>
<!DOCTYPE svg PUBLIC "-//W3C//DTD SVG 1.1//EN"
 "http://www.w3.org/Graphics/SVG/1.1/DTD/svg11.dtd">
<!-- Generated by graphviz version 2.43.0 (0)
 -->
<!-- Title: Menu_cub::show_menu Pages: 1 -->
<svg width="469pt" height="47pt"
 viewBox="0.00 0.00 469.00 47.00" xmlns="http://www.w3.org/2000/svg" xmlns:xlink="http://www.w3.org/1999/xlink">
<g id="graph0" class="graph" transform="scale(1 1) rotate(0) translate(4 43)">
<title>Menu_cub::show_menu</title>
<!-- Node1 -->
<g id="node1" class="node">
<title>Node1</title>
<g id="a_node1"><a xlink:title="Wyswietla menu.">
<polygon fill="#bfbfbf" stroke="black" points="330,-19.5 330,-38.5 461,-38.5 461,-19.5 330,-19.5"/>
<text text-anchor="middle" x="395.5" y="-26.5" font-family="Helvetica,sans-Serif" font-size="10.00">Menu_cub::show_menu</text>
</a>
</g>
</g>
<!-- Node2 -->
<g id="node2" class="node">
<title>Node2</title>
<g id="a_node2"><a xlink:href="class_menu__cub.html#ab8ed88bc956ac7bdfe7db0807085f7cd" target="_top" xlink:title="Inicjuje menu Argumenty:">
<polygon fill="none" stroke="black" points="0,-19.5 0,-38.5 121,-38.5 121,-19.5 0,-19.5"/>
<text text-anchor="middle" x="60.5" y="-26.5" font-family="Helvetica,sans-Serif" font-size="10.00">Menu_cub::init_menu</text>
</a>
</g>
</g>
<!-- Node1&#45;&gt;Node2 -->
<g id="edge1" class="edge">
<title>Node1&#45;&gt;Node2</title>
<path fill="none" stroke="midnightblue" d="M319.73,-29C259.77,-29 176.73,-29 121.17,-29"/>
<polygon fill="midnightblue" stroke="midnightblue" points="319.9,-32.5 329.9,-29 319.9,-25.5 319.9,-32.5"/>
</g>
<!-- Node3 -->
<g id="node3" class="node">
<title>Node3</title>
<g id="a_node3"><a xlink:href="class_menu__cub.html#a20ac792d84052e50bf3fb95b1745e4df" target="_top" xlink:title="Obsluguje wybor menu Argumenty:">
<polygon fill="none" stroke="black" points="157,-0.5 157,-19.5 294,-19.5 294,-0.5 157,-0.5"/>
<text text-anchor="middle" x="225.5" y="-7.5" font-family="Helvetica,sans-Serif" font-size="10.00">Menu_cub::switch_menu</text>
</a>
</g>
</g>
<!-- Node1&#45;&gt;Node3 -->
<g id="edge2" class="edge">
<title>Node1&#45;&gt;Node3</title>
<path fill="none" stroke="midnightblue" d="M319.35,-20.5C310.93,-19.55 302.38,-18.58 294.06,-17.64"/>
<polygon fill="midnightblue" stroke="midnightblue" points="319.22,-24.01 329.55,-21.65 320,-17.05 319.22,-24.01"/>
</g>
<!-- Node3&#45;&gt;Node2 -->
<g id="edge3" class="edge">
<title>Node3&#45;&gt;Node2</title>
<path fill="none" stroke="midnightblue" d="M146.75,-19.06C138.17,-20.06 129.52,-21.07 121.2,-22.04"/>
<polygon fill="midnightblue" stroke="midnightblue" points="147.26,-22.53 156.79,-17.89 146.45,-15.57 147.26,-22.53"/>
</g>
</g>
</svg>
