<?xml version="1.0" encoding="UTF-8" standalone="no"?>
<!DOCTYPE svg PUBLIC "-//W3C//DTD SVG 1.1//EN"
 "http://www.w3.org/Graphics/SVG/1.1/DTD/svg11.dtd">
<!-- Generated by graphviz version 2.43.0 (0)
 -->
<!-- Title: PzG::LaczeDoGNUPlota::ZmienTrybRys Pages: 1 -->
<svg width="635pt" height="176pt"
 viewBox="0.00 0.00 635.00 175.50" xmlns="http://www.w3.org/2000/svg" xmlns:xlink="http://www.w3.org/1999/xlink">
<g id="graph0" class="graph" transform="scale(1 1) rotate(0) translate(4 171.5)">
<title>PzG::LaczeDoGNUPlota::ZmienTrybRys</title>
<!-- Node1 -->
<g id="node1" class="node">
<title>Node1</title>
<g id="a_node1"><a xlink:title="Zmienia tryb rysowania.">
<polygon fill="#bfbfbf" stroke="black" points="497,-73.5 497,-103.5 627,-103.5 627,-73.5 497,-73.5"/>
<text text-anchor="start" x="505" y="-91.5" font-family="Helvetica,sans-Serif" font-size="10.00">PzG::LaczeDoGNUPlota</text>
<text text-anchor="middle" x="562" y="-80.5" font-family="Helvetica,sans-Serif" font-size="10.00">::ZmienTrybRys</text>
</a>
</g>
</g>
<!-- Node2 -->
<g id="node2" class="node">
<title>Node2</title>
<g id="a_node2"><a xlink:href="class_scene.html#a7f810c98763661a977986bd2d4813ee9" target="_top" xlink:title="Metoda inicjalizujaca lacze do gnuplota.">
<polygon fill="none" stroke="black" points="340.5,-148 340.5,-167 450.5,-167 450.5,-148 340.5,-148"/>
<text text-anchor="middle" x="395.5" y="-155" font-family="Helvetica,sans-Serif" font-size="10.00">Scene::init_gnuplot</text>
</a>
</g>
</g>
<!-- Node1&#45;&gt;Node2 -->
<g id="edge1" class="edge">
<title>Node1&#45;&gt;Node2</title>
<path fill="none" stroke="midnightblue" d="M524.96,-108.46C506.24,-118.33 482.79,-129.92 461,-138.5 452.09,-142.01 442.27,-145.22 433.04,-147.96"/>
<polygon fill="midnightblue" stroke="midnightblue" points="526.83,-111.43 534.01,-103.63 523.54,-105.25 526.83,-111.43"/>
</g>
<!-- Node3 -->
<g id="node3" class="node">
<title>Node3</title>
<g id="a_node3"><a xlink:href="class_menu__cub.html#aba69e42a4314be002349777667b378e8" target="_top" xlink:title="Wyswietla prostopadloscian w GNUplocie Argumenty:">
<polygon fill="none" stroke="black" points="340.5,-98.5 340.5,-128.5 450.5,-128.5 450.5,-98.5 340.5,-98.5"/>
<text text-anchor="start" x="348.5" y="-116.5" font-family="Helvetica,sans-Serif" font-size="10.00">Menu_cub::Print_to</text>
<text text-anchor="middle" x="395.5" y="-105.5" font-family="Helvetica,sans-Serif" font-size="10.00">_gnuplot</text>
</a>
</g>
</g>
<!-- Node1&#45;&gt;Node3 -->
<g id="edge2" class="edge">
<title>Node1&#45;&gt;Node3</title>
<path fill="none" stroke="midnightblue" d="M486.76,-99.78C474.56,-101.64 462.12,-103.53 450.54,-105.29"/>
<polygon fill="midnightblue" stroke="midnightblue" points="487.57,-103.2 496.93,-98.24 486.52,-96.28 487.57,-103.2"/>
</g>
<!-- Node6 -->
<g id="node6" class="node">
<title>Node6</title>
<g id="a_node6"><a xlink:href="class_menu__cub.html#abfc946e12b2f8de2cc06cec953ef6106" target="_top" xlink:title=" ">
<polygon fill="none" stroke="black" points="339,-49.5 339,-79.5 452,-79.5 452,-49.5 339,-49.5"/>
<text text-anchor="start" x="347" y="-67.5" font-family="Helvetica,sans-Serif" font-size="10.00">Menu_cub::Print_to</text>
<text text-anchor="middle" x="395.5" y="-56.5" font-family="Helvetica,sans-Serif" font-size="10.00">_gnuplot_animation</text>
</a>
</g>
</g>
<!-- Node1&#45;&gt;Node6 -->
<g id="edge5" class="edge">
<title>Node1&#45;&gt;Node6</title>
<path fill="none" stroke="midnightblue" d="M486.77,-77.67C475.12,-75.97 463.25,-74.24 452.11,-72.61"/>
<polygon fill="midnightblue" stroke="midnightblue" points="486.53,-81.17 496.93,-79.15 487.54,-74.25 486.53,-81.17"/>
</g>
<!-- Node7 -->
<g id="node7" class="node">
<title>Node7</title>
<g id="a_node7"><a xlink:href="class_drone.html#a577871807280aab8d9c0d4e45b435ec4" target="_top" xlink:title="Metoda rysujaca drona w gnuplocie. Przeznaczona do testow">
<polygon fill="none" stroke="black" points="330,-0.5 330,-30.5 461,-30.5 461,-0.5 330,-0.5"/>
<text text-anchor="start" x="338" y="-18.5" font-family="Helvetica,sans-Serif" font-size="10.00">Drone::Print_to_gnuplot</text>
<text text-anchor="middle" x="395.5" y="-7.5" font-family="Helvetica,sans-Serif" font-size="10.00">_drone</text>
</a>
</g>
</g>
<!-- Node1&#45;&gt;Node7 -->
<g id="edge7" class="edge">
<title>Node1&#45;&gt;Node7</title>
<path fill="none" stroke="midnightblue" d="M521.89,-68.86C503.55,-59.87 481.32,-49.3 461,-40.5 453.29,-37.16 444.97,-33.78 436.95,-30.62"/>
<polygon fill="midnightblue" stroke="midnightblue" points="520.57,-72.11 531.09,-73.39 523.66,-65.83 520.57,-72.11"/>
</g>
<!-- Node4 -->
<g id="node4" class="node">
<title>Node4</title>
<g id="a_node4"><a xlink:href="class_menu__cub.html#a20ac792d84052e50bf3fb95b1745e4df" target="_top" xlink:title="Obsluguje wybor menu Argumenty:">
<polygon fill="none" stroke="black" points="157,-79 157,-98 294,-98 294,-79 157,-79"/>
<text text-anchor="middle" x="225.5" y="-86" font-family="Helvetica,sans-Serif" font-size="10.00">Menu_cub::switch_menu</text>
</a>
</g>
</g>
<!-- Node3&#45;&gt;Node4 -->
<g id="edge3" class="edge">
<title>Node3&#45;&gt;Node4</title>
<path fill="none" stroke="midnightblue" d="M330.15,-103.92C317.13,-101.99 303.45,-99.95 290.44,-98.02"/>
<polygon fill="midnightblue" stroke="midnightblue" points="330.01,-107.44 340.42,-105.45 331.04,-100.52 330.01,-107.44"/>
</g>
<!-- Node5 -->
<g id="node5" class="node">
<title>Node5</title>
<g id="a_node5"><a xlink:href="class_menu__cub.html#ab8ed88bc956ac7bdfe7db0807085f7cd" target="_top" xlink:title="Inicjuje menu Argumenty:">
<polygon fill="none" stroke="black" points="0,-79 0,-98 121,-98 121,-79 0,-79"/>
<text text-anchor="middle" x="60.5" y="-86" font-family="Helvetica,sans-Serif" font-size="10.00">Menu_cub::init_menu</text>
</a>
</g>
</g>
<!-- Node4&#45;&gt;Node5 -->
<g id="edge4" class="edge">
<title>Node4&#45;&gt;Node5</title>
<path fill="none" stroke="midnightblue" d="M146.75,-88.5C138.17,-88.5 129.52,-88.5 121.2,-88.5"/>
<polygon fill="midnightblue" stroke="midnightblue" points="146.79,-92 156.79,-88.5 146.79,-85 146.79,-92"/>
</g>
<!-- Node6&#45;&gt;Node4 -->
<g id="edge6" class="edge">
<title>Node6&#45;&gt;Node4</title>
<path fill="none" stroke="midnightblue" d="M328.53,-73.92C316.94,-75.58 304.88,-77.3 293.28,-78.96"/>
<polygon fill="midnightblue" stroke="midnightblue" points="329.15,-77.37 338.56,-72.49 328.16,-70.44 329.15,-77.37"/>
</g>
</g>
</svg>
