<?xml version="1.0" encoding="UTF-8" standalone="no"?>
<!DOCTYPE svg PUBLIC "-//W3C//DTD SVG 1.1//EN"
 "http://www.w3.org/Graphics/SVG/1.1/DTD/svg11.dtd">
<!-- Generated by graphviz version 2.43.0 (0)
 -->
<!-- Title: Cuboid::translation Pages: 1 -->
<svg width="981pt" height="290pt"
 viewBox="0.00 0.00 981.00 289.52" xmlns="http://www.w3.org/2000/svg" xmlns:xlink="http://www.w3.org/1999/xlink">
<g id="graph0" class="graph" transform="scale(1 1) rotate(0) translate(4 285.52)">
<title>Cuboid::translation</title>
<!-- Node1 -->
<g id="node1" class="node">
<title>Node1</title>
<g id="a_node1"><a xlink:title="Metoda przesuwajaca prostopadloscian o zadany kat w 3D">
<polygon fill="#bfbfbf" stroke="black" points="864,-120.5 864,-139.5 973,-139.5 973,-120.5 864,-120.5"/>
<text text-anchor="middle" x="918.5" y="-127.5" font-family="Helvetica,sans-Serif" font-size="10.00">Cuboid::translation</text>
</a>
</g>
</g>
<!-- Node2 -->
<g id="node2" class="node">
<title>Node2</title>
<g id="a_node2"><a xlink:href="class_cuboid.html#a6c697c2d9b36a14c43c7328876d5a1f0" target="_top" xlink:title="Metoda obracajaca prostopadloscian o zadany kat w 3D wokol srodka figury">
<polygon fill="none" stroke="black" points="672,-101.5 672,-120.5 828,-120.5 828,-101.5 672,-101.5"/>
<text text-anchor="middle" x="750" y="-108.5" font-family="Helvetica,sans-Serif" font-size="10.00">Cuboid::rotation_around_cen</text>
</a>
</g>
</g>
<!-- Node1&#45;&gt;Node2 -->
<g id="edge1" class="edge">
<title>Node1&#45;&gt;Node2</title>
<path fill="none" stroke="midnightblue" d="M853.82,-122.73C845.42,-121.77 836.74,-120.78 828.14,-119.8"/>
<polygon fill="midnightblue" stroke="midnightblue" points="853.57,-126.23 863.9,-123.88 854.36,-119.27 853.57,-126.23"/>
</g>
<!-- Node10 -->
<g id="node10" class="node">
<title>Node10</title>
<g id="a_node10"><a xlink:href="class_drone.html#a9684cd7ce04b7e6191f3d6b3a745370b" target="_top" xlink:title="Przesuwa drona o zadany wektor w 3D">
<polygon fill="none" stroke="black" points="698,-151.5 698,-170.5 802,-170.5 802,-151.5 698,-151.5"/>
<text text-anchor="middle" x="750" y="-158.5" font-family="Helvetica,sans-Serif" font-size="10.00">Drone::translation</text>
</a>
</g>
</g>
<!-- Node1&#45;&gt;Node10 -->
<g id="edge12" class="edge">
<title>Node1&#45;&gt;Node10</title>
<path fill="none" stroke="midnightblue" d="M855.95,-141.46C838.25,-144.75 819.14,-148.31 802.14,-151.48"/>
<polygon fill="midnightblue" stroke="midnightblue" points="857,-144.83 866.19,-139.55 855.71,-137.94 857,-144.83"/>
</g>
<!-- Node3 -->
<g id="node3" class="node">
<title>Node3</title>
<g id="a_node3"><a xlink:href="class_drone.html#ad42bc54902df967b94717617aca1a974" target="_top" xlink:title="Metoda obracajaca dron o zadany kat w 3D wokol srodka figury">
<polygon fill="none" stroke="black" points="484,-76.5 484,-95.5 636,-95.5 636,-76.5 484,-76.5"/>
<text text-anchor="middle" x="560" y="-83.5" font-family="Helvetica,sans-Serif" font-size="10.00">Drone::rotation_around_cen</text>
</a>
</g>
</g>
<!-- Node2&#45;&gt;Node3 -->
<g id="edge2" class="edge">
<title>Node2&#45;&gt;Node3</title>
<path fill="none" stroke="midnightblue" d="M667.34,-100.14C655.82,-98.61 644.04,-97.04 632.72,-95.54"/>
<polygon fill="midnightblue" stroke="midnightblue" points="667.01,-103.63 677.39,-101.48 667.94,-96.69 667.01,-103.63"/>
</g>
<!-- Node4 -->
<g id="node4" class="node">
<title>Node4</title>
<g id="a_node4"><a xlink:href="class_drone.html#ab692baa4be5c43b72990ce1b01bdc805" target="_top" xlink:title="Konstruktor bezparametryczny klasy Drone. Powstaly dron jest skonstruowany z bezparametrycznych prost...">
<polygon fill="none" stroke="black" points="346.5,-0.5 346.5,-19.5 427.5,-19.5 427.5,-0.5 346.5,-0.5"/>
<text text-anchor="middle" x="387" y="-7.5" font-family="Helvetica,sans-Serif" font-size="10.00">Drone::Drone</text>
</a>
</g>
</g>
<!-- Node3&#45;&gt;Node4 -->
<g id="edge3" class="edge">
<title>Node3&#45;&gt;Node4</title>
<path fill="none" stroke="midnightblue" d="M530.27,-71.99C507.98,-61.25 476.23,-46.25 448,-34 436.58,-29.04 423.78,-23.87 412.95,-19.61"/>
<polygon fill="midnightblue" stroke="midnightblue" points="528.98,-75.25 539.51,-76.45 532.03,-68.95 528.98,-75.25"/>
</g>
<!-- Node5 -->
<g id="node5" class="node">
<title>Node5</title>
<g id="a_node5"><a xlink:href="class_drone.html#af03af60a9b92e4191a7e66b5c20b52bb" target="_top" xlink:title="Metoda zamieniajaca drona na tego z pliku sample.">
<polygon fill="none" stroke="black" points="326,-115 326,-145 448,-145 448,-115 326,-115"/>
<text text-anchor="start" x="334" y="-133" font-family="Helvetica,sans-Serif" font-size="10.00">Drone::Drone_change</text>
<text text-anchor="middle" x="387" y="-122" font-family="Helvetica,sans-Serif" font-size="10.00">_to_sample</text>
</a>
</g>
</g>
<!-- Node3&#45;&gt;Node5 -->
<g id="edge4" class="edge">
<title>Node3&#45;&gt;Node5</title>
<path fill="none" stroke="midnightblue" d="M511.99,-98.1C491.76,-103.3 467.91,-109.44 446.55,-114.93"/>
<polygon fill="midnightblue" stroke="midnightblue" points="513.08,-101.43 521.9,-95.55 511.34,-94.65 513.08,-101.43"/>
</g>
<!-- Node7 -->
<g id="node7" class="node">
<title>Node7</title>
<g id="a_node7"><a xlink:href="class_drone.html#af052f6bb793d1229b99b16b800b95b82" target="_top" xlink:title="Metoda animujaca obrot drona i wyrysowujaca calosc w gnuplocie.">
<polygon fill="none" stroke="black" points="156.5,-71 156.5,-101 281.5,-101 281.5,-71 156.5,-71"/>
<text text-anchor="start" x="164.5" y="-89" font-family="Helvetica,sans-Serif" font-size="10.00">Drone::Drone_rotation</text>
<text text-anchor="middle" x="219" y="-78" font-family="Helvetica,sans-Serif" font-size="10.00">_animation</text>
</a>
</g>
</g>
<!-- Node3&#45;&gt;Node7 -->
<g id="edge10" class="edge">
<title>Node3&#45;&gt;Node7</title>
<path fill="none" stroke="midnightblue" d="M484.45,-75.29C472.29,-73.92 459.81,-72.74 448,-72 393.88,-68.6 380.11,-68.44 326,-72 311.55,-72.95 296.07,-74.62 281.52,-76.48"/>
<polygon fill="midnightblue" stroke="midnightblue" points="484.22,-78.79 494.56,-76.48 485.04,-71.84 484.22,-78.79"/>
</g>
<!-- Node8 -->
<g id="node8" class="node">
<title>Node8</title>
<g id="a_node8"><a xlink:href="class_drone.html#ab7808296cec81143dbddd7516340a371" target="_top" xlink:title="Metoda robiaca &quot;oblot&quot; drona wokol punktu (z modyfikacji)">
<polygon fill="none" stroke="black" points="148,-120.5 148,-139.5 290,-139.5 290,-120.5 148,-120.5"/>
<text text-anchor="middle" x="219" y="-127.5" font-family="Helvetica,sans-Serif" font-size="10.00">Drone::Drone_roundabout</text>
</a>
</g>
</g>
<!-- Node3&#45;&gt;Node8 -->
<g id="edge11" class="edge">
<title>Node3&#45;&gt;Node8</title>
<path fill="none" stroke="midnightblue" d="M473.75,-89.87C429.49,-92.66 374.63,-97.33 326,-105 301.91,-108.8 275.18,-115.12 254.59,-120.45"/>
<polygon fill="midnightblue" stroke="midnightblue" points="474.13,-93.36 483.9,-89.25 473.7,-86.37 474.13,-93.36"/>
</g>
<!-- Node6 -->
<g id="node6" class="node">
<title>Node6</title>
<g id="a_node6"><a xlink:href="class_drone.html#ac4d24c27fb2c107d2e8bda0c2bf5cfa1" target="_top" xlink:title="Metoda obliczajaca i przeprowadzajaca caly ruch drona (obrot o kat i przelot z zadania 5....">
<polygon fill="none" stroke="black" points="0,-153 0,-183 112,-183 112,-153 0,-153"/>
<text text-anchor="start" x="8" y="-171" font-family="Helvetica,sans-Serif" font-size="10.00">Drone::Drone_basic</text>
<text text-anchor="middle" x="56" y="-160" font-family="Helvetica,sans-Serif" font-size="10.00">_motion</text>
</a>
</g>
</g>
<!-- Node5&#45;&gt;Node6 -->
<g id="edge5" class="edge">
<title>Node5&#45;&gt;Node6</title>
<path fill="none" stroke="midnightblue" d="M315.69,-144.87C307.06,-146.41 298.35,-147.84 290,-149 229.5,-157.43 159.61,-162.51 112.27,-165.27"/>
<polygon fill="midnightblue" stroke="midnightblue" points="316.55,-148.27 325.75,-143.01 315.28,-141.39 316.55,-148.27"/>
</g>
<!-- Node5&#45;&gt;Node7 -->
<g id="edge6" class="edge">
<title>Node5&#45;&gt;Node7</title>
<path fill="none" stroke="midnightblue" d="M319.62,-112.41C305.4,-108.64 290.5,-104.69 276.69,-101.03"/>
<polygon fill="midnightblue" stroke="midnightblue" points="318.77,-115.8 329.34,-114.98 320.57,-109.04 318.77,-115.8"/>
</g>
<!-- Node5&#45;&gt;Node8 -->
<g id="edge8" class="edge">
<title>Node5&#45;&gt;Node8</title>
<path fill="none" stroke="midnightblue" d="M315.5,-130C307.13,-130 298.58,-130 290.21,-130"/>
<polygon fill="midnightblue" stroke="midnightblue" points="315.6,-133.5 325.6,-130 315.6,-126.5 315.6,-133.5"/>
</g>
<!-- Node9 -->
<g id="node9" class="node">
<title>Node9</title>
<g id="a_node9"><a xlink:href="class_drone.html#a5fc9dd645ad3856b5d3c501c63c464e3" target="_top" xlink:title="Metoda animujaca translacje drona i wyrysowujaca calosc w gnuplocie.">
<polygon fill="none" stroke="black" points="149.5,-213 149.5,-243 288.5,-243 288.5,-213 149.5,-213"/>
<text text-anchor="start" x="157.5" y="-231" font-family="Helvetica,sans-Serif" font-size="10.00">Drone::Drone_translation</text>
<text text-anchor="middle" x="219" y="-220" font-family="Helvetica,sans-Serif" font-size="10.00">_animation</text>
</a>
</g>
</g>
<!-- Node5&#45;&gt;Node9 -->
<g id="edge9" class="edge">
<title>Node5&#45;&gt;Node9</title>
<path fill="none" stroke="midnightblue" d="M351.54,-150.35C319.98,-168.97 274.01,-196.12 245.6,-212.89"/>
<polygon fill="midnightblue" stroke="midnightblue" points="353.59,-153.2 360.43,-145.1 350.04,-147.17 353.59,-153.2"/>
</g>
<!-- Node7&#45;&gt;Node6 -->
<g id="edge7" class="edge">
<title>Node7&#45;&gt;Node6</title>
<path fill="none" stroke="midnightblue" d="M162.14,-104.7C157.3,-106.7 152.53,-108.8 148,-111 123,-123.11 96.28,-140.44 78.3,-152.8"/>
<polygon fill="midnightblue" stroke="midnightblue" points="163.46,-107.95 171.48,-101.02 160.89,-101.43 163.46,-107.95"/>
</g>
<!-- Node11 -->
<g id="node11" class="node">
<title>Node11</title>
<g id="a_node11"><a xlink:href="class_drone.html#a6662bd8203e8c9a0721c457b3612a7c1" target="_top" xlink:title="Metoda uzywana przy konstruowania drona przesuwa drona w ten sposob, ze Vector3D centre prostopadlosc...">
<polygon fill="none" stroke="black" points="508,-178 508,-208 612,-208 612,-178 508,-178"/>
<text text-anchor="start" x="516" y="-196" font-family="Helvetica,sans-Serif" font-size="10.00">Drone::translation</text>
<text text-anchor="middle" x="560" y="-185" font-family="Helvetica,sans-Serif" font-size="10.00">_to_pos</text>
</a>
</g>
</g>
<!-- Node10&#45;&gt;Node11 -->
<g id="edge13" class="edge">
<title>Node10&#45;&gt;Node11</title>
<path fill="none" stroke="midnightblue" d="M687.76,-171.42C663.37,-175.58 635.62,-180.3 612.31,-184.27"/>
<polygon fill="midnightblue" stroke="midnightblue" points="688.36,-174.87 697.63,-169.74 687.18,-167.97 688.36,-174.87"/>
</g>
<!-- Node11&#45;&gt;Node5 -->
<g id="edge15" class="edge">
<title>Node11&#45;&gt;Node5</title>
<path fill="none" stroke="midnightblue" d="M508.58,-174.43C483.2,-165.07 452.83,-153.89 428.92,-145.08"/>
<polygon fill="midnightblue" stroke="midnightblue" points="507.45,-177.74 518.04,-177.91 509.87,-171.17 507.45,-177.74"/>
</g>
<!-- Node11&#45;&gt;Node6 -->
<g id="edge14" class="edge">
<title>Node11&#45;&gt;Node6</title>
<path fill="none" stroke="midnightblue" d="M527.71,-213.58C506.26,-226.46 476.6,-241.91 448,-249 318.58,-281.1 272.19,-300.55 148,-252 112.56,-238.14 82.62,-203.29 67.52,-183.1"/>
<polygon fill="midnightblue" stroke="midnightblue" points="529.7,-216.47 536.38,-208.25 526.03,-210.51 529.7,-216.47"/>
</g>
<!-- Node11&#45;&gt;Node8 -->
<g id="edge16" class="edge">
<title>Node11&#45;&gt;Node8</title>
<path fill="none" stroke="midnightblue" d="M497.9,-183.75C450.8,-176.38 384.11,-165.43 326,-154 303.97,-149.67 279.52,-144.18 259.65,-139.54"/>
<polygon fill="midnightblue" stroke="midnightblue" points="497.52,-187.23 507.94,-185.31 498.6,-180.31 497.52,-187.23"/>
</g>
<!-- Node11&#45;&gt;Node9 -->
<g id="edge17" class="edge">
<title>Node11&#45;&gt;Node9</title>
<path fill="none" stroke="midnightblue" d="M515.27,-211.7C495.18,-219.31 470.79,-227.21 448,-231 394.99,-239.82 334.09,-238.44 288.57,-235.2"/>
<polygon fill="midnightblue" stroke="midnightblue" points="516.72,-214.89 524.77,-208 514.18,-208.37 516.72,-214.89"/>
</g>
<!-- Node12 -->
<g id="node12" class="node">
<title>Node12</title>
<g id="a_node12"><a xlink:href="class_scene.html#a22d8bf855d72be0064265c93562b6bb1" target="_top" xlink:title="Konstruktor paramereyczny klasy Scene.">
<polygon fill="none" stroke="black" points="346.5,-202.5 346.5,-221.5 427.5,-221.5 427.5,-202.5 346.5,-202.5"/>
<text text-anchor="middle" x="387" y="-209.5" font-family="Helvetica,sans-Serif" font-size="10.00">Scene::Scene</text>
</a>
</g>
</g>
<!-- Node11&#45;&gt;Node12 -->
<g id="edge18" class="edge">
<title>Node11&#45;&gt;Node12</title>
<path fill="none" stroke="midnightblue" d="M497.54,-199.83C474.24,-202.42 448.34,-205.3 427.58,-207.6"/>
<polygon fill="midnightblue" stroke="midnightblue" points="498.14,-203.28 507.69,-198.7 497.37,-196.33 498.14,-203.28"/>
</g>
</g>
</svg>
