<?xml version="1.0" encoding="UTF-8" standalone="no"?>
<!DOCTYPE svg PUBLIC "-//W3C//DTD SVG 1.1//EN"
 "http://www.w3.org/Graphics/SVG/1.1/DTD/svg11.dtd">
<!-- Generated by graphviz version 2.43.0 (0)
 -->
<!-- Title: Cuboid::translation_to_O Pages: 1 -->
<svg width="1009pt" height="231pt"
 viewBox="0.00 0.00 1009.00 230.50" xmlns="http://www.w3.org/2000/svg" xmlns:xlink="http://www.w3.org/1999/xlink">
<g id="graph0" class="graph" transform="scale(1 1) rotate(0) translate(4 226.5)">
<title>Cuboid::translation_to_O</title>
<!-- Node1 -->
<g id="node1" class="node">
<title>Node1</title>
<g id="a_node1"><a xlink:title="Metoda przesuwajaca prostopadloscian do (0,0,0)">
<polygon fill="#bfbfbf" stroke="black" points="864,-57.5 864,-76.5 1001,-76.5 1001,-57.5 864,-57.5"/>
<text text-anchor="middle" x="932.5" y="-64.5" font-family="Helvetica,sans-Serif" font-size="10.00">Cuboid::translation_to_O</text>
</a>
</g>
</g>
<!-- Node2 -->
<g id="node2" class="node">
<title>Node2</title>
<g id="a_node2"><a xlink:href="class_cuboid.html#a6c697c2d9b36a14c43c7328876d5a1f0" target="_top" xlink:title="Metoda obracajaca prostopadloscian o zadany kat w 3D wokol srodka figury">
<polygon fill="none" stroke="black" points="672,-76.5 672,-95.5 828,-95.5 828,-76.5 672,-76.5"/>
<text text-anchor="middle" x="750" y="-83.5" font-family="Helvetica,sans-Serif" font-size="10.00">Cuboid::rotation_around_cen</text>
</a>
</g>
</g>
<!-- Node1&#45;&gt;Node2 -->
<g id="edge1" class="edge">
<title>Node1&#45;&gt;Node2</title>
<path fill="none" stroke="midnightblue" d="M853.6,-75.2C845.18,-76.09 836.62,-76.99 828.21,-77.87"/>
<polygon fill="midnightblue" stroke="midnightblue" points="854.2,-78.66 863.77,-74.13 853.46,-71.7 854.2,-78.66"/>
</g>
<!-- Node10 -->
<g id="node10" class="node">
<title>Node10</title>
<g id="a_node10"><a xlink:href="class_cuboid.html#a7ea89af123502b41ef349f4aedb93b5e" target="_top" xlink:title="Metoda skalujaca o wektor scale bedacy czlonkiem klasy block">
<polygon fill="none" stroke="black" points="698,-38.5 698,-57.5 802,-57.5 802,-38.5 698,-38.5"/>
<text text-anchor="middle" x="750" y="-45.5" font-family="Helvetica,sans-Serif" font-size="10.00">Cuboid::scale_cub</text>
</a>
</g>
</g>
<!-- Node1&#45;&gt;Node10 -->
<g id="edge12" class="edge">
<title>Node1&#45;&gt;Node10</title>
<path fill="none" stroke="midnightblue" d="M853.62,-58.8C836.21,-56.97 818.18,-55.07 802.18,-53.39"/>
<polygon fill="midnightblue" stroke="midnightblue" points="853.46,-62.3 863.77,-59.87 854.2,-55.34 853.46,-62.3"/>
</g>
<!-- Node3 -->
<g id="node3" class="node">
<title>Node3</title>
<g id="a_node3"><a xlink:href="class_drone.html#ad42bc54902df967b94717617aca1a974" target="_top" xlink:title="Metoda obracajaca dron o zadany kat w 3D wokol srodka figury">
<polygon fill="none" stroke="black" points="484,-76.5 484,-95.5 636,-95.5 636,-76.5 484,-76.5"/>
<text text-anchor="middle" x="560" y="-83.5" font-family="Helvetica,sans-Serif" font-size="10.00">Drone::rotation_around_cen</text>
</a>
</g>
</g>
<!-- Node2&#45;&gt;Node3 -->
<g id="edge2" class="edge">
<title>Node2&#45;&gt;Node3</title>
<path fill="none" stroke="midnightblue" d="M661.91,-86C653.28,-86 644.56,-86 636.07,-86"/>
<polygon fill="midnightblue" stroke="midnightblue" points="661.99,-89.5 671.99,-86 661.99,-82.5 661.99,-89.5"/>
</g>
<!-- Node4 -->
<g id="node4" class="node">
<title>Node4</title>
<g id="a_node4"><a xlink:href="class_drone.html#ab692baa4be5c43b72990ce1b01bdc805" target="_top" xlink:title="Konstruktor bezparametryczny klasy Drone. Powstaly dron jest skonstruowany z bezparametrycznych prost...">
<polygon fill="none" stroke="black" points="346.5,-38.5 346.5,-57.5 427.5,-57.5 427.5,-38.5 346.5,-38.5"/>
<text text-anchor="middle" x="387" y="-45.5" font-family="Helvetica,sans-Serif" font-size="10.00">Drone::Drone</text>
</a>
</g>
</g>
<!-- Node3&#45;&gt;Node4 -->
<g id="edge3" class="edge">
<title>Node3&#45;&gt;Node4</title>
<path fill="none" stroke="midnightblue" d="M506.03,-74.23C480.72,-68.6 450.94,-61.99 427.62,-56.8"/>
<polygon fill="midnightblue" stroke="midnightblue" points="505.33,-77.66 515.85,-76.41 506.85,-70.82 505.33,-77.66"/>
</g>
<!-- Node5 -->
<g id="node5" class="node">
<title>Node5</title>
<g id="a_node5"><a xlink:href="class_drone.html#af03af60a9b92e4191a7e66b5c20b52bb" target="_top" xlink:title="Metoda zamieniajaca drona na tego z pliku sample.">
<polygon fill="none" stroke="black" points="326,-115 326,-145 448,-145 448,-115 326,-115"/>
<text text-anchor="start" x="334" y="-133" font-family="Helvetica,sans-Serif" font-size="10.00">Drone::Drone_change</text>
<text text-anchor="middle" x="387" y="-122" font-family="Helvetica,sans-Serif" font-size="10.00">_to_sample</text>
</a>
</g>
</g>
<!-- Node3&#45;&gt;Node5 -->
<g id="edge4" class="edge">
<title>Node3&#45;&gt;Node5</title>
<path fill="none" stroke="midnightblue" d="M511.99,-98.1C491.76,-103.3 467.91,-109.44 446.55,-114.93"/>
<polygon fill="midnightblue" stroke="midnightblue" points="513.08,-101.43 521.9,-95.55 511.34,-94.65 513.08,-101.43"/>
</g>
<!-- Node7 -->
<g id="node7" class="node">
<title>Node7</title>
<g id="a_node7"><a xlink:href="class_drone.html#af052f6bb793d1229b99b16b800b95b82" target="_top" xlink:title="Metoda animujaca obrot drona i wyrysowujaca calosc w gnuplocie.">
<polygon fill="none" stroke="black" points="156.5,-192 156.5,-222 281.5,-222 281.5,-192 156.5,-192"/>
<text text-anchor="start" x="164.5" y="-210" font-family="Helvetica,sans-Serif" font-size="10.00">Drone::Drone_rotation</text>
<text text-anchor="middle" x="219" y="-199" font-family="Helvetica,sans-Serif" font-size="10.00">_animation</text>
</a>
</g>
</g>
<!-- Node3&#45;&gt;Node7 -->
<g id="edge10" class="edge">
<title>Node3&#45;&gt;Node7</title>
<path fill="none" stroke="midnightblue" d="M538.04,-101.69C516.51,-117.12 481.48,-140.27 448,-154 393.85,-176.2 328.48,-190.19 281.64,-198.19"/>
<polygon fill="midnightblue" stroke="midnightblue" points="540.38,-104.32 546.4,-95.61 536.26,-98.66 540.38,-104.32"/>
</g>
<!-- Node8 -->
<g id="node8" class="node">
<title>Node8</title>
<g id="a_node8"><a xlink:href="class_drone.html#ab7808296cec81143dbddd7516340a371" target="_top" xlink:title="Metoda robiaca &quot;oblot&quot; drona wokol punktu (z modyfikacji)">
<polygon fill="none" stroke="black" points="148,-65.5 148,-84.5 290,-84.5 290,-65.5 148,-65.5"/>
<text text-anchor="middle" x="219" y="-72.5" font-family="Helvetica,sans-Serif" font-size="10.00">Drone::Drone_roundabout</text>
</a>
</g>
</g>
<!-- Node3&#45;&gt;Node8 -->
<g id="edge11" class="edge">
<title>Node3&#45;&gt;Node8</title>
<path fill="none" stroke="midnightblue" d="M473.74,-83.23C417.02,-81.39 343.42,-79 290.11,-77.27"/>
<polygon fill="midnightblue" stroke="midnightblue" points="473.66,-86.73 483.76,-83.56 473.88,-79.74 473.66,-86.73"/>
</g>
<!-- Node6 -->
<g id="node6" class="node">
<title>Node6</title>
<g id="a_node6"><a xlink:href="class_drone.html#ac4d24c27fb2c107d2e8bda0c2bf5cfa1" target="_top" xlink:title="Metoda obliczajaca i przeprowadzajaca caly ruch drona (obrot o kat i przelot z zadania 5....">
<polygon fill="none" stroke="black" points="0,-170 0,-200 112,-200 112,-170 0,-170"/>
<text text-anchor="start" x="8" y="-188" font-family="Helvetica,sans-Serif" font-size="10.00">Drone::Drone_basic</text>
<text text-anchor="middle" x="56" y="-177" font-family="Helvetica,sans-Serif" font-size="10.00">_motion</text>
</a>
</g>
</g>
<!-- Node5&#45;&gt;Node6 -->
<g id="edge5" class="edge">
<title>Node5&#45;&gt;Node6</title>
<path fill="none" stroke="midnightblue" d="M315.74,-141.75C254.86,-151.92 167.98,-166.45 112.04,-175.8"/>
<polygon fill="midnightblue" stroke="midnightblue" points="316.37,-145.19 325.66,-140.09 315.22,-138.28 316.37,-145.19"/>
</g>
<!-- Node5&#45;&gt;Node7 -->
<g id="edge6" class="edge">
<title>Node5&#45;&gt;Node7</title>
<path fill="none" stroke="midnightblue" d="M346.69,-149.8C329.4,-158.37 308.79,-168.38 290,-177 279.06,-182.02 267.06,-187.26 256.12,-191.93"/>
<polygon fill="midnightblue" stroke="midnightblue" points="348.52,-152.8 355.92,-145.21 345.41,-146.53 348.52,-152.8"/>
</g>
<!-- Node5&#45;&gt;Node8 -->
<g id="edge8" class="edge">
<title>Node5&#45;&gt;Node8</title>
<path fill="none" stroke="midnightblue" d="M339.06,-111.39C323.55,-105.52 306.13,-99.2 290,-94 279.57,-90.64 268.15,-87.37 257.61,-84.51"/>
<polygon fill="midnightblue" stroke="midnightblue" points="337.85,-114.68 348.44,-114.98 340.35,-108.14 337.85,-114.68"/>
</g>
<!-- Node9 -->
<g id="node9" class="node">
<title>Node9</title>
<g id="a_node9"><a xlink:href="class_drone.html#a5fc9dd645ad3856b5d3c501c63c464e3" target="_top" xlink:title="Metoda animujaca translacje drona i wyrysowujaca calosc w gnuplocie.">
<polygon fill="none" stroke="black" points="149.5,-104 149.5,-134 288.5,-134 288.5,-104 149.5,-104"/>
<text text-anchor="start" x="157.5" y="-122" font-family="Helvetica,sans-Serif" font-size="10.00">Drone::Drone_translation</text>
<text text-anchor="middle" x="219" y="-111" font-family="Helvetica,sans-Serif" font-size="10.00">_animation</text>
</a>
</g>
</g>
<!-- Node5&#45;&gt;Node9 -->
<g id="edge9" class="edge">
<title>Node5&#45;&gt;Node9</title>
<path fill="none" stroke="midnightblue" d="M315.58,-125.33C306.62,-124.74 297.45,-124.13 288.51,-123.54"/>
<polygon fill="midnightblue" stroke="midnightblue" points="315.39,-128.83 325.6,-126 315.85,-121.84 315.39,-128.83"/>
</g>
<!-- Node7&#45;&gt;Node6 -->
<g id="edge7" class="edge">
<title>Node7&#45;&gt;Node6</title>
<path fill="none" stroke="midnightblue" d="M146.22,-197.19C134.75,-195.62 123.04,-194.02 112.04,-192.52"/>
<polygon fill="midnightblue" stroke="midnightblue" points="145.83,-200.67 156.21,-198.56 146.78,-193.74 145.83,-200.67"/>
</g>
<!-- Node10&#45;&gt;Node4 -->
<g id="edge13" class="edge">
<title>Node10&#45;&gt;Node4</title>
<path fill="none" stroke="midnightblue" d="M687.52,-48C613.28,-48 490.58,-48 427.76,-48"/>
<polygon fill="midnightblue" stroke="midnightblue" points="687.66,-51.5 697.66,-48 687.66,-44.5 687.66,-51.5"/>
</g>
<!-- Node11 -->
<g id="node11" class="node">
<title>Node11</title>
<g id="a_node11"><a xlink:href="class_drone.html#a77142062fb8a8af87df42b5c2e7e44e0" target="_top" xlink:title="Metoda skalujaca wszystkie elementy drona przez skale kazdego elementu">
<polygon fill="none" stroke="black" points="511,-0.5 511,-19.5 609,-19.5 609,-0.5 511,-0.5"/>
<text text-anchor="middle" x="560" y="-7.5" font-family="Helvetica,sans-Serif" font-size="10.00">Drone::scale_dro</text>
</a>
</g>
</g>
<!-- Node10&#45;&gt;Node11 -->
<g id="edge14" class="edge">
<title>Node10&#45;&gt;Node11</title>
<path fill="none" stroke="midnightblue" d="M691.56,-36.39C664.83,-30.99 633.41,-24.64 608.1,-19.52"/>
<polygon fill="midnightblue" stroke="midnightblue" points="691.06,-39.86 701.56,-38.41 692.45,-33 691.06,-39.86"/>
</g>
<!-- Node12 -->
<g id="node12" class="node">
<title>Node12</title>
<g id="a_node12"><a xlink:href="class_scene.html#a22d8bf855d72be0064265c93562b6bb1" target="_top" xlink:title="Konstruktor paramereyczny klasy Scene.">
<polygon fill="none" stroke="black" points="346.5,-0.5 346.5,-19.5 427.5,-19.5 427.5,-0.5 346.5,-0.5"/>
<text text-anchor="middle" x="387" y="-7.5" font-family="Helvetica,sans-Serif" font-size="10.00">Scene::Scene</text>
</a>
</g>
</g>
<!-- Node11&#45;&gt;Node12 -->
<g id="edge15" class="edge">
<title>Node11&#45;&gt;Node12</title>
<path fill="none" stroke="midnightblue" d="M500.81,-10C476.71,-10 449.38,-10 427.66,-10"/>
<polygon fill="midnightblue" stroke="midnightblue" points="500.91,-13.5 510.91,-10 500.91,-6.5 500.91,-13.5"/>
</g>
</g>
</svg>
