<?xml version="1.0" encoding="UTF-8" standalone="no"?>
<!DOCTYPE svg PUBLIC "-//W3C//DTD SVG 1.1//EN"
 "http://www.w3.org/Graphics/SVG/1.1/DTD/svg11.dtd">
<!-- Generated by graphviz version 2.43.0 (0)
 -->
<!-- Title: Drone::Drone_rotation_animation Pages: 1 -->
<svg width="1018pt" height="744pt"
 viewBox="0.00 0.00 1018.00 743.50" xmlns="http://www.w3.org/2000/svg" xmlns:xlink="http://www.w3.org/1999/xlink">
<g id="graph0" class="graph" transform="scale(1 1) rotate(0) translate(4 739.5)">
<title>Drone::Drone_rotation_animation</title>
<!-- Node1 -->
<g id="node1" class="node">
<title>Node1</title>
<g id="a_node1"><a xlink:title="Metoda animujaca obrot drona i wyrysowujaca calosc w gnuplocie.">
<polygon fill="#bfbfbf" stroke="black" points="0,-317.5 0,-347.5 125,-347.5 125,-317.5 0,-317.5"/>
<text text-anchor="start" x="8" y="-335.5" font-family="Helvetica,sans-Serif" font-size="10.00">Drone::Drone_rotation</text>
<text text-anchor="middle" x="62.5" y="-324.5" font-family="Helvetica,sans-Serif" font-size="10.00">_animation</text>
</a>
</g>
</g>
<!-- Node2 -->
<g id="node2" class="node">
<title>Node2</title>
<g id="a_node2"><a xlink:href="class_drone.html#af03af60a9b92e4191a7e66b5c20b52bb" target="_top" xlink:title="Metoda zamieniajaca drona na tego z pliku sample.">
<polygon fill="none" stroke="black" points="165,-407.5 165,-437.5 287,-437.5 287,-407.5 165,-407.5"/>
<text text-anchor="start" x="173" y="-425.5" font-family="Helvetica,sans-Serif" font-size="10.00">Drone::Drone_change</text>
<text text-anchor="middle" x="226" y="-414.5" font-family="Helvetica,sans-Serif" font-size="10.00">_to_sample</text>
</a>
</g>
</g>
<!-- Node1&#45;&gt;Node2 -->
<g id="edge1" class="edge">
<title>Node1&#45;&gt;Node2</title>
<path fill="none" stroke="midnightblue" d="M90.53,-347.56C117.55,-362.62 159.25,-385.86 189.04,-402.46"/>
<polygon fill="midnightblue" stroke="midnightblue" points="187.44,-405.58 197.88,-407.39 190.85,-399.46 187.44,-405.58"/>
</g>
<!-- Node12 -->
<g id="node12" class="node">
<title>Node12</title>
<g id="a_node12"><a xlink:href="class_drone.html#ad42bc54902df967b94717617aca1a974" target="_top" xlink:title="Metoda obracajaca dron o zadany kat w 3D wokol srodka figury">
<polygon fill="none" stroke="black" points="339,-552 339,-571 491,-571 491,-552 339,-552"/>
<text text-anchor="middle" x="415" y="-559" font-family="Helvetica,sans-Serif" font-size="10.00">Drone::rotation_around_cen</text>
</a>
</g>
</g>
<!-- Node1&#45;&gt;Node12 -->
<g id="edge50" class="edge">
<title>Node1&#45;&gt;Node12</title>
<path fill="none" stroke="midnightblue" d="M73.78,-347.75C90.17,-371.27 124.17,-416.87 161,-447.5 226.36,-501.85 247.67,-511.97 327,-542.5 333.75,-545.1 340.93,-547.38 348.16,-549.37"/>
<polygon fill="midnightblue" stroke="midnightblue" points="347.47,-552.81 358.03,-551.92 349.22,-546.03 347.47,-552.81"/>
</g>
<!-- Node23 -->
<g id="node23" class="node">
<title>Node23</title>
<g id="a_node23"><a xlink:href="class_matrix.html#a4161a82fb401e474052c21b25a06a5ba" target="_top" xlink:title=" ">
<polygon fill="none" stroke="black" points="350,-313 350,-332 480,-332 480,-313 350,-313"/>
<text text-anchor="middle" x="415" y="-320" font-family="Helvetica,sans-Serif" font-size="10.00">Matrix::rotation_matrix</text>
</a>
</g>
</g>
<!-- Node1&#45;&gt;Node23 -->
<g id="edge51" class="edge">
<title>Node1&#45;&gt;Node23</title>
<path fill="none" stroke="midnightblue" d="M125.13,-333.96C137.03,-334.18 149.4,-334.38 161,-334.5 218.77,-335.09 233.29,-337.31 291,-334.5 306.73,-333.73 323.56,-332.42 339.56,-330.94"/>
<polygon fill="midnightblue" stroke="midnightblue" points="340.31,-334.38 349.93,-329.94 339.64,-327.41 340.31,-334.38"/>
</g>
<!-- Node30 -->
<g id="node30" class="node">
<title>Node30</title>
<g id="a_node30"><a xlink:href="class_drone.html#aae0029f50083a01fe75c7d504c2fe5b9" target="_top" xlink:title="Metoda zapisujaca parametry drona do plikow (do plikow final kazdego z elementow)">
<polygon fill="none" stroke="black" points="357.5,-218.5 357.5,-248.5 472.5,-248.5 472.5,-218.5 357.5,-218.5"/>
<text text-anchor="start" x="365.5" y="-236.5" font-family="Helvetica,sans-Serif" font-size="10.00">Drone::Print_to_files</text>
<text text-anchor="middle" x="415" y="-225.5" font-family="Helvetica,sans-Serif" font-size="10.00">_drone</text>
</a>
</g>
</g>
<!-- Node1&#45;&gt;Node30 -->
<g id="edge42" class="edge">
<title>Node1&#45;&gt;Node30</title>
<path fill="none" stroke="midnightblue" d="M90.06,-317.48C109.25,-307.19 136.08,-293.92 161,-285.5 222.63,-264.67 295.66,-250.75 347.38,-242.59"/>
<polygon fill="midnightblue" stroke="midnightblue" points="348.08,-246.03 357.43,-241.04 347.01,-239.11 348.08,-246.03"/>
</g>
<!-- Node36 -->
<g id="node36" class="node">
<title>Node36</title>
<g id="a_node36"><a xlink:href="class_drone.html#aedb04b80609b22ff4eb4a957bc149a48" target="_top" xlink:title="Metoda animujaca obrot rotorow i zapisujaca to w plikach. Metoda sluzy jako metoda pomocnicza,...">
<polygon fill="none" stroke="black" points="162.5,-295.5 162.5,-325.5 289.5,-325.5 289.5,-295.5 162.5,-295.5"/>
<text text-anchor="start" x="170.5" y="-313.5" font-family="Helvetica,sans-Serif" font-size="10.00">Drone::Rotors_rotation</text>
<text text-anchor="middle" x="226" y="-302.5" font-family="Helvetica,sans-Serif" font-size="10.00">_animation</text>
</a>
</g>
</g>
<!-- Node1&#45;&gt;Node36 -->
<g id="edge52" class="edge">
<title>Node1&#45;&gt;Node36</title>
<path fill="none" stroke="midnightblue" d="M125.02,-324.12C133.89,-322.91 143.09,-321.66 152.16,-320.42"/>
<polygon fill="midnightblue" stroke="midnightblue" points="152.88,-323.86 162.32,-319.04 151.93,-316.92 152.88,-323.86"/>
</g>
<!-- Node37 -->
<g id="node37" class="node">
<title>Node37</title>
<g id="a_node37"><a xlink:href="class_pz_g_1_1_lacze_do_g_n_u_plota.html#a065f5b8402737cc62b0ad4f66d028335" target="_top" xlink:title="Generuje polecenie rysowania i przesyła je do gnuplota.">
<polygon fill="none" stroke="black" points="161,-166.5 161,-196.5 291,-196.5 291,-166.5 161,-166.5"/>
<text text-anchor="start" x="169" y="-184.5" font-family="Helvetica,sans-Serif" font-size="10.00">PzG::LaczeDoGNUPlota</text>
<text text-anchor="middle" x="226" y="-173.5" font-family="Helvetica,sans-Serif" font-size="10.00">::Rysuj</text>
</a>
</g>
</g>
<!-- Node1&#45;&gt;Node37 -->
<g id="edge56" class="edge">
<title>Node1&#45;&gt;Node37</title>
<path fill="none" stroke="midnightblue" d="M76.71,-317.27C94.85,-296.69 128.89,-259.27 161,-230.5 171.8,-220.83 184.33,-210.96 195.44,-202.64"/>
<polygon fill="midnightblue" stroke="midnightblue" points="197.64,-205.36 203.6,-196.6 193.47,-199.73 197.64,-205.36"/>
</g>
<!-- Node3 -->
<g id="node3" class="node">
<title>Node3</title>
<g id="a_node3"><a xlink:href="class_drone.html#ada6f4e93f4a63cbe1d6fbebf329efe62" target="_top" xlink:title="Metoda wczytywania odpowiednich wierzcholkow z pliku wzorcowego zgodnie z zaproponowanym sposobem w z...">
<polygon fill="none" stroke="black" points="338.5,-351 338.5,-370 491.5,-370 491.5,-351 338.5,-351"/>
<text text-anchor="middle" x="415" y="-358" font-family="Helvetica,sans-Serif" font-size="10.00">Drone::Drone_From_Sample</text>
</a>
</g>
</g>
<!-- Node2&#45;&gt;Node3 -->
<g id="edge2" class="edge">
<title>Node2&#45;&gt;Node3</title>
<path fill="none" stroke="midnightblue" d="M272.27,-407.49C303.83,-397.03 345.49,-383.21 375.46,-373.28"/>
<polygon fill="midnightblue" stroke="midnightblue" points="376.76,-376.53 385.15,-370.07 374.56,-369.89 376.76,-376.53"/>
</g>
<!-- Node2&#45;&gt;Node12 -->
<g id="edge19" class="edge">
<title>Node2&#45;&gt;Node12</title>
<path fill="none" stroke="midnightblue" d="M244.04,-437.65C257.55,-450.08 276.5,-468.52 291,-486.5 309.57,-509.54 302.7,-525.62 327,-542.5 329.88,-544.5 332.93,-546.3 336.11,-547.91"/>
<polygon fill="midnightblue" stroke="midnightblue" points="334.76,-551.14 345.32,-551.98 337.59,-544.74 334.76,-551.14"/>
</g>
<!-- Node2&#45;&gt;Node23 -->
<g id="edge33" class="edge">
<title>Node2&#45;&gt;Node23</title>
<path fill="none" stroke="midnightblue" d="M244.94,-407.21C271.16,-384.99 317.84,-345.9 327,-341.5 332.05,-339.07 337.42,-336.95 342.91,-335.1"/>
<polygon fill="midnightblue" stroke="midnightblue" points="344.34,-338.32 352.88,-332.05 342.29,-331.63 344.34,-338.32"/>
</g>
<!-- Node24 -->
<g id="node24" class="node">
<title>Node24</title>
<g id="a_node24"><a xlink:href="class_drone.html#a55c483c4e4cf0ec91d5bda5448417f08" target="_top" xlink:title="Metoda ustawiajaca drone_pos">
<polygon fill="none" stroke="black" points="354,-458 354,-477 476,-477 476,-458 354,-458"/>
<text text-anchor="middle" x="415" y="-465" font-family="Helvetica,sans-Serif" font-size="10.00">Drone::set_drone_pos</text>
</a>
</g>
</g>
<!-- Node2&#45;&gt;Node24 -->
<g id="edge34" class="edge">
<title>Node2&#45;&gt;Node24</title>
<path fill="none" stroke="midnightblue" d="M287.2,-436.99C312.14,-442.99 340.72,-449.87 364.43,-455.57"/>
<polygon fill="midnightblue" stroke="midnightblue" points="363.72,-459 374.27,-457.94 365.36,-452.2 363.72,-459"/>
</g>
<!-- Node27 -->
<g id="node27" class="node">
<title>Node27</title>
<g id="a_node27"><a xlink:href="class_drone.html#a6662bd8203e8c9a0721c457b3612a7c1" target="_top" xlink:title="Metoda uzywana przy konstruowania drona przesuwa drona w ten sposob, ze Vector3D centre prostopadlosc...">
<polygon fill="none" stroke="black" points="363,-502.5 363,-532.5 467,-532.5 467,-502.5 363,-502.5"/>
<text text-anchor="start" x="371" y="-520.5" font-family="Helvetica,sans-Serif" font-size="10.00">Drone::translation</text>
<text text-anchor="middle" x="415" y="-509.5" font-family="Helvetica,sans-Serif" font-size="10.00">_to_pos</text>
</a>
</g>
</g>
<!-- Node2&#45;&gt;Node27 -->
<g id="edge37" class="edge">
<title>Node2&#45;&gt;Node27</title>
<path fill="none" stroke="midnightblue" d="M247.64,-437.69C267.31,-451.68 298.13,-472.35 327,-486.5 336.07,-490.95 345.95,-495.08 355.68,-498.79"/>
<polygon fill="midnightblue" stroke="midnightblue" points="354.74,-502.17 365.33,-502.35 357.16,-495.61 354.74,-502.17"/>
</g>
<!-- Node4 -->
<g id="node4" class="node">
<title>Node4</title>
<g id="a_node4"><a xlink:href="class_cuboid.html#a773f92fecdf9686b951cf5736c83f318" target="_top" xlink:title="Metoda wczytywania odpowiednich wierzcholkow z pliku wzorcowego zgodnie z zaproponowanym sposobem zad...">
<polygon fill="none" stroke="black" points="557,-300.5 557,-330.5 677,-330.5 677,-300.5 557,-300.5"/>
<text text-anchor="start" x="565" y="-318.5" font-family="Helvetica,sans-Serif" font-size="10.00">Cuboid::Cuboid_From</text>
<text text-anchor="middle" x="617" y="-307.5" font-family="Helvetica,sans-Serif" font-size="10.00">_Sample</text>
</a>
</g>
</g>
<!-- Node3&#45;&gt;Node4 -->
<g id="edge3" class="edge">
<title>Node3&#45;&gt;Node4</title>
<path fill="none" stroke="midnightblue" d="M460.28,-350.93C473.98,-347.94 489.12,-344.61 503,-341.5 517.2,-338.31 532.4,-334.85 546.89,-331.53"/>
<polygon fill="midnightblue" stroke="midnightblue" points="547.83,-334.9 556.8,-329.25 546.27,-328.08 547.83,-334.9"/>
</g>
<!-- Node9 -->
<g id="node9" class="node">
<title>Node9</title>
<g id="a_node9"><a xlink:href="class_drone.html#addf8532ee98ca800a64a78f3808fce98" target="_top" xlink:title="Metoda zwracajaca nazwy plikow do zapisu dla drona.">
<polygon fill="none" stroke="black" points="556.5,-262 556.5,-281 677.5,-281 677.5,-262 556.5,-262"/>
<text text-anchor="middle" x="617" y="-269" font-family="Helvetica,sans-Serif" font-size="10.00">Drone::get_filenames</text>
</a>
</g>
</g>
<!-- Node3&#45;&gt;Node9 -->
<g id="edge8" class="edge">
<title>Node3&#45;&gt;Node9</title>
<path fill="none" stroke="midnightblue" d="M484.06,-350.89C490.75,-348.43 497.2,-345.35 503,-341.5 526.12,-326.17 516.09,-306.14 539,-290.5 541.93,-288.5 545.05,-286.71 548.3,-285.1"/>
<polygon fill="midnightblue" stroke="midnightblue" points="549.9,-288.23 557.71,-281.07 547.14,-281.79 549.9,-288.23"/>
</g>
<!-- Node10 -->
<g id="node10" class="node">
<title>Node10</title>
<g id="a_node10"><a xlink:href="class_prism.html#a5e0a2234e9ebe3b51146c0ddc42e8b48" target="_top" xlink:title="Metoda wczytywania odpowiednich wierzcholkow z pliku wzorcowego zgodnie z zaproponowanym sposobem zad...">
<polygon fill="none" stroke="black" points="542,-350 542,-369 692,-369 692,-350 542,-350"/>
<text text-anchor="middle" x="617" y="-357" font-family="Helvetica,sans-Serif" font-size="10.00">Prism::Prism_From_Sample</text>
</a>
</g>
</g>
<!-- Node3&#45;&gt;Node10 -->
<g id="edge11" class="edge">
<title>Node3&#45;&gt;Node10</title>
<path fill="none" stroke="midnightblue" d="M491.61,-360.12C504.75,-360.06 518.48,-359.99 531.82,-359.92"/>
<polygon fill="midnightblue" stroke="midnightblue" points="531.96,-363.42 541.94,-359.87 531.92,-356.42 531.96,-363.42"/>
</g>
<!-- Node11 -->
<g id="node11" class="node">
<title>Node11</title>
<g id="a_node11"><a xlink:href="class_drone.html#add09c27034d4ff229cc22b58c443c0f4" target="_top" xlink:title="Metoda ustawiajaca nazwy plikow do zapisu dla drona.">
<polygon fill="none" stroke="black" points="551,-388 551,-407 683,-407 683,-388 551,-388"/>
<text text-anchor="middle" x="617" y="-395" font-family="Helvetica,sans-Serif" font-size="10.00">Drone::setup_filenames</text>
</a>
</g>
</g>
<!-- Node3&#45;&gt;Node11 -->
<g id="edge16" class="edge">
<title>Node3&#45;&gt;Node11</title>
<path fill="none" stroke="midnightblue" d="M467.5,-370.03C494,-374.93 526.48,-380.94 554.3,-386.09"/>
<polygon fill="midnightblue" stroke="midnightblue" points="553.85,-389.56 564.32,-387.94 555.13,-382.68 553.85,-389.56"/>
</g>
<!-- Node5 -->
<g id="node5" class="node">
<title>Node5</title>
<g id="a_node5"><a xlink:href="class_block.html#aeef4dd3716afaea42688a4f96456ce27" target="_top" xlink:title="Metoda zwracajaca nazwe pliku z finalna (robocza) bryla">
<polygon fill="none" stroke="black" points="738.5,-236 738.5,-255 863.5,-255 863.5,-236 738.5,-236"/>
<text text-anchor="middle" x="801" y="-243" font-family="Helvetica,sans-Serif" font-size="10.00">Block::get_final_name</text>
</a>
</g>
</g>
<!-- Node4&#45;&gt;Node5 -->
<g id="edge4" class="edge">
<title>Node4&#45;&gt;Node5</title>
<path fill="none" stroke="midnightblue" d="M671.89,-300.39C679.8,-297.49 687.73,-294.19 695,-290.5 712.6,-281.57 713.2,-273.03 731,-264.5 735.9,-262.15 741.14,-260.05 746.47,-258.18"/>
<polygon fill="midnightblue" stroke="midnightblue" points="747.64,-261.48 756.08,-255.06 745.48,-254.82 747.64,-261.48"/>
</g>
<!-- Node6 -->
<g id="node6" class="node">
<title>Node6</title>
<g id="a_node6"><a xlink:href="class_block.html#aed17e0cb13b8eea50fe735ba05204da9" target="_top" xlink:title="Metoda zwracajaca nazwe pliku z wzorcowa bryla">
<polygon fill="none" stroke="black" points="731,-274 731,-293 871,-293 871,-274 731,-274"/>
<text text-anchor="middle" x="801" y="-281" font-family="Helvetica,sans-Serif" font-size="10.00">Block::get_sample_name</text>
</a>
</g>
</g>
<!-- Node4&#45;&gt;Node6 -->
<g id="edge5" class="edge">
<title>Node4&#45;&gt;Node6</title>
<path fill="none" stroke="midnightblue" d="M677.09,-305.11C695.83,-301.82 716.64,-298.16 735.72,-294.8"/>
<polygon fill="midnightblue" stroke="midnightblue" points="736.58,-298.2 745.83,-293.03 735.37,-291.31 736.58,-298.2"/>
</g>
<!-- Node7 -->
<g id="node7" class="node">
<title>Node7</title>
<g id="a_node7"><a xlink:href="class_block.html#a640a910076d8b10533a9a80d740f8f03" target="_top" xlink:title="Metoda zapisujaca do klasy nazwe pliku z finalna (robocza) bryla">
<polygon fill="none" stroke="black" points="739,-312 739,-331 863,-331 863,-312 739,-312"/>
<text text-anchor="middle" x="801" y="-319" font-family="Helvetica,sans-Serif" font-size="10.00">Block::set_final_name</text>
</a>
</g>
</g>
<!-- Node4&#45;&gt;Node7 -->
<g id="edge6" class="edge">
<title>Node4&#45;&gt;Node7</title>
<path fill="none" stroke="midnightblue" d="M677.09,-317.45C693.42,-317.99 711.32,-318.58 728.29,-319.14"/>
<polygon fill="midnightblue" stroke="midnightblue" points="728.6,-322.65 738.71,-319.48 728.83,-315.65 728.6,-322.65"/>
</g>
<!-- Node8 -->
<g id="node8" class="node">
<title>Node8</title>
<g id="a_node8"><a xlink:href="class_block.html#acf20b290f1543e580ff1f2c6d98ff4c4" target="_top" xlink:title="Metoda zapisujaca do klasy nazwe pliku z wzorcowa bryla">
<polygon fill="none" stroke="black" points="731.5,-350 731.5,-369 870.5,-369 870.5,-350 731.5,-350"/>
<text text-anchor="middle" x="801" y="-357" font-family="Helvetica,sans-Serif" font-size="10.00">Block::set_sample_name</text>
</a>
</g>
</g>
<!-- Node4&#45;&gt;Node8 -->
<g id="edge7" class="edge">
<title>Node4&#45;&gt;Node8</title>
<path fill="none" stroke="midnightblue" d="M677.09,-329.79C700.87,-335.53 727.98,-342.09 750.67,-347.57"/>
<polygon fill="midnightblue" stroke="midnightblue" points="749.89,-350.99 760.43,-349.93 751.54,-344.18 749.89,-350.99"/>
</g>
<!-- Node9&#45;&gt;Node5 -->
<g id="edge9" class="edge">
<title>Node9&#45;&gt;Node5</title>
<path fill="none" stroke="midnightblue" d="M677.59,-262.99C693.73,-260.68 711.38,-258.16 728.11,-255.77"/>
<polygon fill="midnightblue" stroke="midnightblue" points="728.99,-259.18 738.4,-254.3 728,-252.25 728.99,-259.18"/>
</g>
<!-- Node9&#45;&gt;Node6 -->
<g id="edge10" class="edge">
<title>Node9&#45;&gt;Node6</title>
<path fill="none" stroke="midnightblue" d="M677.59,-275.43C691.27,-276.33 706.04,-277.3 720.41,-278.25"/>
<polygon fill="midnightblue" stroke="midnightblue" points="720.58,-281.77 730.79,-278.94 721.04,-274.79 720.58,-281.77"/>
</g>
<!-- Node10&#45;&gt;Node5 -->
<g id="edge12" class="edge">
<title>Node10&#45;&gt;Node5</title>
<path fill="none" stroke="midnightblue" d="M677.37,-349.85C683.73,-347.19 689.77,-343.8 695,-339.5 723.55,-316 702.63,-288.21 731,-264.5 733.04,-262.79 735.23,-261.24 737.52,-259.82"/>
<polygon fill="midnightblue" stroke="midnightblue" points="739.51,-262.73 746.78,-255.02 736.29,-256.52 739.51,-262.73"/>
</g>
<!-- Node10&#45;&gt;Node6 -->
<g id="edge13" class="edge">
<title>Node10&#45;&gt;Node6</title>
<path fill="none" stroke="midnightblue" d="M670.48,-349.99C678.99,-347.31 687.48,-343.87 695,-339.5 714.84,-327.97 711.25,-314.18 731,-302.5 734.67,-300.33 738.6,-298.4 742.64,-296.69"/>
<polygon fill="midnightblue" stroke="midnightblue" points="744.12,-299.87 752.24,-293.06 741.65,-293.32 744.12,-299.87"/>
</g>
<!-- Node10&#45;&gt;Node7 -->
<g id="edge14" class="edge">
<title>Node10&#45;&gt;Node7</title>
<path fill="none" stroke="midnightblue" d="M663.93,-349.91C688.38,-344.81 718.63,-338.49 744.4,-333.11"/>
<polygon fill="midnightblue" stroke="midnightblue" points="745.33,-336.49 754.4,-331.02 743.9,-329.64 745.33,-336.49"/>
</g>
<!-- Node10&#45;&gt;Node8 -->
<g id="edge15" class="edge">
<title>Node10&#45;&gt;Node8</title>
<path fill="none" stroke="midnightblue" d="M692.03,-359.5C701.67,-359.5 711.57,-359.5 721.29,-359.5"/>
<polygon fill="midnightblue" stroke="midnightblue" points="721.32,-363 731.32,-359.5 721.32,-356 721.32,-363"/>
</g>
<!-- Node11&#45;&gt;Node7 -->
<g id="edge17" class="edge">
<title>Node11&#45;&gt;Node7</title>
<path fill="none" stroke="midnightblue" d="M673.36,-387.93C680.9,-385.47 688.34,-382.38 695,-378.5 715.11,-366.8 711.05,-352.47 731,-340.5 734.6,-338.34 738.44,-336.42 742.41,-334.72"/>
<polygon fill="midnightblue" stroke="midnightblue" points="743.75,-337.95 751.83,-331.11 741.24,-331.42 743.75,-337.95"/>
</g>
<!-- Node11&#45;&gt;Node8 -->
<g id="edge18" class="edge">
<title>Node11&#45;&gt;Node8</title>
<path fill="none" stroke="midnightblue" d="M663.93,-387.91C688.38,-382.81 718.63,-376.49 744.4,-371.11"/>
<polygon fill="midnightblue" stroke="midnightblue" points="745.33,-374.49 754.4,-369.02 743.9,-367.64 745.33,-374.49"/>
</g>
<!-- Node13 -->
<g id="node13" class="node">
<title>Node13</title>
<g id="a_node13"><a xlink:href="class_prism.html#a22c5467db5d960bddbaf9a52f55c55cb" target="_top" xlink:title="Metoda obracajaca graniastoslup o zadany kat w 3D wokol srodka figury">
<polygon fill="none" stroke="black" points="542,-426 542,-445 692,-445 692,-426 542,-426"/>
<text text-anchor="middle" x="617" y="-433" font-family="Helvetica,sans-Serif" font-size="10.00">Prism::rotation_around_cen</text>
</a>
</g>
</g>
<!-- Node12&#45;&gt;Node13 -->
<g id="edge20" class="edge">
<title>Node12&#45;&gt;Node13</title>
<path fill="none" stroke="midnightblue" d="M487.56,-551.99C493.11,-549.47 498.36,-546.35 503,-542.5 534.57,-516.3 508.27,-484.68 539,-457.5 542.49,-454.41 546.39,-451.75 550.53,-449.47"/>
<polygon fill="midnightblue" stroke="midnightblue" points="552.36,-452.47 559.91,-445.04 549.37,-446.15 552.36,-452.47"/>
</g>
<!-- Node17 -->
<g id="node17" class="node">
<title>Node17</title>
<g id="a_node17"><a xlink:href="class_cuboid.html#a6c697c2d9b36a14c43c7328876d5a1f0" target="_top" xlink:title="Metoda obracajaca prostopadloscian o zadany kat w 3D wokol srodka figury">
<polygon fill="none" stroke="black" points="539,-587 539,-606 695,-606 695,-587 539,-587"/>
<text text-anchor="middle" x="617" y="-594" font-family="Helvetica,sans-Serif" font-size="10.00">Cuboid::rotation_around_cen</text>
</a>
</g>
</g>
<!-- Node12&#45;&gt;Node17 -->
<g id="edge25" class="edge">
<title>Node12&#45;&gt;Node17</title>
<path fill="none" stroke="midnightblue" d="M470.39,-571.02C495.52,-575.42 525.54,-580.67 551.77,-585.26"/>
<polygon fill="midnightblue" stroke="midnightblue" points="551.17,-588.71 561.62,-586.98 552.38,-581.81 551.17,-588.71"/>
</g>
<!-- Node20 -->
<g id="node20" class="node">
<title>Node20</title>
<g id="a_node20"><a xlink:href="class_drone.html#aea963b77f42c204504542a3d9190d762" target="_top" xlink:title="Metoda uzywana przy konstruowania drona Ustawia rotory w ten sposob, ze srodek ich dolnej podstawy je...">
<polygon fill="none" stroke="black" points="559.5,-666.5 559.5,-696.5 674.5,-696.5 674.5,-666.5 559.5,-666.5"/>
<text text-anchor="start" x="567.5" y="-684.5" font-family="Helvetica,sans-Serif" font-size="10.00">Drone::set_rotors_in</text>
<text text-anchor="middle" x="617" y="-673.5" font-family="Helvetica,sans-Serif" font-size="10.00">_place</text>
</a>
</g>
</g>
<!-- Node12&#45;&gt;Node20 -->
<g id="edge29" class="edge">
<title>Node12&#45;&gt;Node20</title>
<path fill="none" stroke="midnightblue" d="M432.03,-571.12C464.48,-590.59 538.57,-635.04 582.18,-661.21"/>
<polygon fill="midnightblue" stroke="midnightblue" points="580.62,-664.36 591,-666.5 584.23,-658.35 580.62,-664.36"/>
</g>
<!-- Node14 -->
<g id="node14" class="node">
<title>Node14</title>
<g id="a_node14"><a xlink:href="class_matrix.html#ad6df418144dfdc3236f990dc3fb0a50a" target="_top" xlink:title=" ">
<polygon fill="none" stroke="black" points="741.5,-464.5 741.5,-494.5 860.5,-494.5 860.5,-464.5 741.5,-464.5"/>
<text text-anchor="start" x="749.5" y="-482.5" font-family="Helvetica,sans-Serif" font-size="10.00">Matrix::apply_matrix</text>
<text text-anchor="middle" x="801" y="-471.5" font-family="Helvetica,sans-Serif" font-size="10.00">_to_rotation</text>
</a>
</g>
</g>
<!-- Node13&#45;&gt;Node14 -->
<g id="edge21" class="edge">
<title>Node13&#45;&gt;Node14</title>
<path fill="none" stroke="midnightblue" d="M657.49,-445.05C679.09,-450.27 706.46,-456.89 731.42,-462.92"/>
<polygon fill="midnightblue" stroke="midnightblue" points="730.68,-466.34 741.22,-465.29 732.32,-459.54 730.68,-466.34"/>
</g>
<!-- Node15 -->
<g id="node15" class="node">
<title>Node15</title>
<g id="a_node15"><a xlink:href="class_prism.html#ade146d341c0468030f8c1258b7fe1041" target="_top" xlink:title="Metoda przesuwajaca graniastoslup o zadany wektor w 3D">
<polygon fill="none" stroke="black" points="907,-489 907,-508 1010,-508 1010,-489 907,-489"/>
<text text-anchor="middle" x="958.5" y="-496" font-family="Helvetica,sans-Serif" font-size="10.00">Prism::translation</text>
</a>
</g>
</g>
<!-- Node13&#45;&gt;Node15 -->
<g id="edge22" class="edge">
<title>Node13&#45;&gt;Node15</title>
<path fill="none" stroke="midnightblue" d="M663.96,-425.99C684.39,-422.22 708.8,-418.35 731,-416.5 793.01,-411.32 813.2,-393.46 871,-416.5 903.17,-429.33 930.25,-460.43 945.14,-480.43"/>
<polygon fill="midnightblue" stroke="midnightblue" points="942.43,-482.65 951.1,-488.73 948.11,-478.57 942.43,-482.65"/>
</g>
<!-- Node16 -->
<g id="node16" class="node">
<title>Node16</title>
<g id="a_node16"><a xlink:href="class_prism.html#afed2c26932d5cb152fd620d2acbfbc3e" target="_top" xlink:title="Metoda przesuwajaca graniastoslup do srodka ukladu wspolrzednych (tak, ze srodek graniastoslupa pokry...">
<polygon fill="none" stroke="black" points="735.5,-426 735.5,-445 866.5,-445 866.5,-426 735.5,-426"/>
<text text-anchor="middle" x="801" y="-433" font-family="Helvetica,sans-Serif" font-size="10.00">Prism::translation_to_O</text>
</a>
</g>
</g>
<!-- Node13&#45;&gt;Node16 -->
<g id="edge23" class="edge">
<title>Node13&#45;&gt;Node16</title>
<path fill="none" stroke="midnightblue" d="M692.03,-435.5C703.03,-435.5 714.37,-435.5 725.38,-435.5"/>
<polygon fill="midnightblue" stroke="midnightblue" points="725.39,-439 735.39,-435.5 725.39,-432 725.39,-439"/>
</g>
<!-- Node16&#45;&gt;Node15 -->
<g id="edge24" class="edge">
<title>Node16&#45;&gt;Node15</title>
<path fill="none" stroke="midnightblue" d="M839.65,-445.09C849.94,-448.07 861.01,-451.6 871,-455.5 891.77,-463.6 914.29,-474.88 931.14,-483.85"/>
<polygon fill="midnightblue" stroke="midnightblue" points="929.89,-487.16 940.36,-488.83 933.22,-481 929.89,-487.16"/>
</g>
<!-- Node17&#45;&gt;Node14 -->
<g id="edge26" class="edge">
<title>Node17&#45;&gt;Node14</title>
<path fill="none" stroke="midnightblue" d="M674.94,-586.9C682.17,-584.03 689.09,-580.32 695,-575.5 722.42,-553.15 704.51,-527.95 731,-504.5 732.92,-502.8 734.96,-501.21 737.1,-499.73"/>
<polygon fill="midnightblue" stroke="midnightblue" points="738.98,-502.69 745.74,-494.53 735.37,-496.69 738.98,-502.69"/>
</g>
<!-- Node18 -->
<g id="node18" class="node">
<title>Node18</title>
<g id="a_node18"><a xlink:href="class_cuboid.html#a3f6b1b9ea7de433af5b0d462d29f4272" target="_top" xlink:title="Metoda przesuwajaca prostopadloscian o zadany kat w 3D">
<polygon fill="none" stroke="black" points="746.5,-590 746.5,-609 855.5,-609 855.5,-590 746.5,-590"/>
<text text-anchor="middle" x="801" y="-597" font-family="Helvetica,sans-Serif" font-size="10.00">Cuboid::translation</text>
</a>
</g>
</g>
<!-- Node17&#45;&gt;Node18 -->
<g id="edge27" class="edge">
<title>Node17&#45;&gt;Node18</title>
<path fill="none" stroke="midnightblue" d="M695.18,-597.77C708.79,-598 722.82,-598.23 736.02,-598.45"/>
<polygon fill="midnightblue" stroke="midnightblue" points="736.34,-601.95 746.4,-598.62 736.46,-594.95 736.34,-601.95"/>
</g>
<!-- Node19 -->
<g id="node19" class="node">
<title>Node19</title>
<g id="a_node19"><a xlink:href="class_cuboid.html#a42bdce7c214e759cb6ea94d4f547a5b9" target="_top" xlink:title="Metoda przesuwajaca prostopadloscian do (0,0,0)">
<polygon fill="none" stroke="black" points="732.5,-628 732.5,-647 869.5,-647 869.5,-628 732.5,-628"/>
<text text-anchor="middle" x="801" y="-635" font-family="Helvetica,sans-Serif" font-size="10.00">Cuboid::translation_to_O</text>
</a>
</g>
</g>
<!-- Node17&#45;&gt;Node19 -->
<g id="edge28" class="edge">
<title>Node17&#45;&gt;Node19</title>
<path fill="none" stroke="midnightblue" d="M660.21,-606.01C686.31,-611.89 720,-619.48 747.76,-625.73"/>
<polygon fill="midnightblue" stroke="midnightblue" points="747.18,-629.19 757.7,-627.97 748.72,-622.36 747.18,-629.19"/>
</g>
<!-- Node21 -->
<g id="node21" class="node">
<title>Node21</title>
<g id="a_node21"><a xlink:href="class_cuboid.html#a99d30564d6129e6905c5333e04df9606" target="_top" xlink:title="Metoda zwracajaca wierzcholki prostopadloscianu do Vector3D">
<polygon fill="none" stroke="black" points="753.5,-716 753.5,-735 848.5,-735 848.5,-716 753.5,-716"/>
<text text-anchor="middle" x="801" y="-723" font-family="Helvetica,sans-Serif" font-size="10.00">Cuboid::get_cub</text>
</a>
</g>
</g>
<!-- Node20&#45;&gt;Node21 -->
<g id="edge30" class="edge">
<title>Node20&#45;&gt;Node21</title>
<path fill="none" stroke="midnightblue" d="M674.59,-695.18C698.97,-701.07 727.21,-707.9 750.71,-713.58"/>
<polygon fill="midnightblue" stroke="midnightblue" points="749.93,-717 760.47,-715.94 751.57,-710.19 749.93,-717"/>
</g>
<!-- Node22 -->
<g id="node22" class="node">
<title>Node22</title>
<g id="a_node22"><a xlink:href="class_prism.html#a4e2b0b9c37d6a53af869522a4bf364ac" target="_top" xlink:title="Metoda przesuwajaca graniastoslup o zadany wektor w 3D w taki sposob, ze srodek jego dolnej podstawy ...">
<polygon fill="none" stroke="black" points="749.5,-666.5 749.5,-696.5 852.5,-696.5 852.5,-666.5 749.5,-666.5"/>
<text text-anchor="start" x="757.5" y="-684.5" font-family="Helvetica,sans-Serif" font-size="10.00">Prism::translation</text>
<text text-anchor="middle" x="801" y="-673.5" font-family="Helvetica,sans-Serif" font-size="10.00">_of_lower_cen</text>
</a>
</g>
</g>
<!-- Node20&#45;&gt;Node22 -->
<g id="edge31" class="edge">
<title>Node20&#45;&gt;Node22</title>
<path fill="none" stroke="midnightblue" d="M674.59,-681.5C695.12,-681.5 718.4,-681.5 739.28,-681.5"/>
<polygon fill="midnightblue" stroke="midnightblue" points="739.31,-685 749.31,-681.5 739.31,-678 739.31,-685"/>
</g>
<!-- Node22&#45;&gt;Node15 -->
<g id="edge32" class="edge">
<title>Node22&#45;&gt;Node15</title>
<path fill="none" stroke="midnightblue" d="M852.62,-668.07C859.23,-664.95 865.58,-661.14 871,-656.5 915.58,-618.28 941.3,-551.12 951.84,-518.04"/>
<polygon fill="midnightblue" stroke="midnightblue" points="955.27,-518.81 954.84,-508.22 948.57,-516.76 955.27,-518.81"/>
</g>
<!-- Node25 -->
<g id="node25" class="node">
<title>Node25</title>
<g id="a_node25"><a xlink:href="class_cuboid.html#a08fae08a1c8c70ada48ce3af46c82eee" target="_top" xlink:title="Metoda zwracajaca wysokosc prostopadloscianu">
<polygon fill="none" stroke="black" points="563,-467 563,-486 671,-486 671,-467 563,-467"/>
<text text-anchor="middle" x="617" y="-474" font-family="Helvetica,sans-Serif" font-size="10.00">Cuboid::get_height</text>
</a>
</g>
</g>
<!-- Node24&#45;&gt;Node25 -->
<g id="edge35" class="edge">
<title>Node24&#45;&gt;Node25</title>
<path fill="none" stroke="midnightblue" d="M476.01,-470.2C500.17,-471.29 528.06,-472.54 552.56,-473.65"/>
<polygon fill="midnightblue" stroke="midnightblue" points="552.68,-477.15 562.83,-474.11 553,-470.16 552.68,-477.15"/>
</g>
<!-- Node26 -->
<g id="node26" class="node">
<title>Node26</title>
<g id="a_node26"><a xlink:href="class_vector.html#a3ac695edc693437a61da9f1976fd4869" target="_top" xlink:title="Zwraca dlugosc wektora &#160;&#160;Argumenty: &#160;&#160;Brak &#160;&#160;Zwraca:">
<polygon fill="none" stroke="black" points="756.5,-514 756.5,-533 845.5,-533 845.5,-514 756.5,-514"/>
<text text-anchor="middle" x="801" y="-521" font-family="Helvetica,sans-Serif" font-size="10.00">Vector::get_len</text>
</a>
</g>
</g>
<!-- Node25&#45;&gt;Node26 -->
<g id="edge36" class="edge">
<title>Node25&#45;&gt;Node26</title>
<path fill="none" stroke="midnightblue" d="M654.83,-486.01C683.11,-493.31 722.35,-503.45 752.91,-511.34"/>
<polygon fill="midnightblue" stroke="midnightblue" points="752.35,-514.81 762.91,-513.92 754.11,-508.03 752.35,-514.81"/>
</g>
<!-- Node28 -->
<g id="node28" class="node">
<title>Node28</title>
<g id="a_node28"><a xlink:href="class_cuboid.html#aafa18740d9c98ca928395b9873a9c63d" target="_top" xlink:title="Metoda zwracajaca punkt centralny (czyli taki, ktorego odleglosci do kazdego wierzcholka sa rowne) pr...">
<polygon fill="none" stroke="black" points="558.5,-547 558.5,-566 675.5,-566 675.5,-547 558.5,-547"/>
<text text-anchor="middle" x="617" y="-554" font-family="Helvetica,sans-Serif" font-size="10.00">Cuboid::centre_point</text>
</a>
</g>
</g>
<!-- Node27&#45;&gt;Node28 -->
<g id="edge38" class="edge">
<title>Node27&#45;&gt;Node28</title>
<path fill="none" stroke="midnightblue" d="M467.25,-527.49C494.68,-532.84 528.6,-539.46 557.12,-545.02"/>
<polygon fill="midnightblue" stroke="midnightblue" points="556.47,-548.46 566.96,-546.94 557.81,-541.59 556.47,-548.46"/>
</g>
<!-- Node29 -->
<g id="node29" class="node">
<title>Node29</title>
<g id="a_node29"><a xlink:href="class_drone.html#a9684cd7ce04b7e6191f3d6b3a745370b" target="_top" xlink:title="Przesuwa drona o zadany wektor w 3D">
<polygon fill="none" stroke="black" points="565,-509 565,-528 669,-528 669,-509 565,-509"/>
<text text-anchor="middle" x="617" y="-516" font-family="Helvetica,sans-Serif" font-size="10.00">Drone::translation</text>
</a>
</g>
</g>
<!-- Node27&#45;&gt;Node29 -->
<g id="edge39" class="edge">
<title>Node27&#45;&gt;Node29</title>
<path fill="none" stroke="midnightblue" d="M467.25,-517.76C493.94,-517.89 526.78,-518.05 554.8,-518.19"/>
<polygon fill="midnightblue" stroke="midnightblue" points="554.87,-521.69 564.89,-518.24 554.91,-514.69 554.87,-521.69"/>
</g>
<!-- Node29&#45;&gt;Node15 -->
<g id="edge40" class="edge">
<title>Node29&#45;&gt;Node15</title>
<path fill="none" stroke="midnightblue" d="M653.57,-528.05C675.67,-533.49 704.77,-539.75 731,-542.5 792.88,-549 810.49,-557 871,-542.5 894.22,-536.93 918.25,-524.04 935.07,-513.64"/>
<polygon fill="midnightblue" stroke="midnightblue" points="937.07,-516.51 943.62,-508.18 933.31,-510.61 937.07,-516.51"/>
</g>
<!-- Node29&#45;&gt;Node18 -->
<g id="edge41" class="edge">
<title>Node29&#45;&gt;Node18</title>
<path fill="none" stroke="midnightblue" d="M669.31,-526.81C678.22,-529.45 687.15,-532.93 695,-537.5 715.11,-549.2 711.46,-562.88 731,-575.5 737.59,-579.76 745.03,-583.36 752.52,-586.37"/>
<polygon fill="midnightblue" stroke="midnightblue" points="751.37,-589.68 761.97,-589.88 753.81,-583.12 751.37,-589.68"/>
</g>
<!-- Node30&#45;&gt;Node5 -->
<g id="edge46" class="edge">
<title>Node30&#45;&gt;Node5</title>
<path fill="none" stroke="midnightblue" d="M472.66,-235.27C540.51,-237.39 654.23,-240.94 728.17,-243.26"/>
<polygon fill="midnightblue" stroke="midnightblue" points="728.23,-246.76 738.33,-243.57 728.45,-239.76 728.23,-246.76"/>
</g>
<!-- Node31 -->
<g id="node31" class="node">
<title>Node31</title>
<g id="a_node31"><a xlink:href="class_cuboid.html#abc62d20a2f1418af1c35e369da77f0fc" target="_top" xlink:title=" ">
<polygon fill="none" stroke="black" points="553,-186 553,-205 681,-205 681,-186 553,-186"/>
<text text-anchor="middle" x="617" y="-193" font-family="Helvetica,sans-Serif" font-size="10.00">Cuboid::Cuboid_To_File</text>
</a>
</g>
</g>
<!-- Node30&#45;&gt;Node31 -->
<g id="edge43" class="edge">
<title>Node30&#45;&gt;Node31</title>
<path fill="none" stroke="midnightblue" d="M472.51,-222.76C498.53,-217.82 529.42,-211.95 555.87,-206.93"/>
<polygon fill="midnightblue" stroke="midnightblue" points="556.59,-210.35 565.76,-205.04 555.29,-203.47 556.59,-210.35"/>
</g>
<!-- Node34 -->
<g id="node34" class="node">
<title>Node34</title>
<g id="a_node34"><a xlink:href="class_prism.html#a2de0dab6d117fc3c8dcbc3c384d0fccd" target="_top" xlink:title=" ">
<polygon fill="none" stroke="black" points="559,-148 559,-167 675,-167 675,-148 559,-148"/>
<text text-anchor="middle" x="617" y="-155" font-family="Helvetica,sans-Serif" font-size="10.00">Prism::Prism_To_File</text>
</a>
</g>
</g>
<!-- Node30&#45;&gt;Node34 -->
<g id="edge47" class="edge">
<title>Node30&#45;&gt;Node34</title>
<path fill="none" stroke="midnightblue" d="M461.55,-218.43C475.16,-213.34 489.93,-207.23 503,-200.5 520.1,-191.7 521.4,-184.25 539,-176.5 544.49,-174.08 550.34,-171.94 556.27,-170.04"/>
<polygon fill="midnightblue" stroke="midnightblue" points="557.68,-173.27 566.28,-167.08 555.69,-166.56 557.68,-173.27"/>
</g>
<!-- Node32 -->
<g id="node32" class="node">
<title>Node32</title>
<g id="a_node32"><a xlink:href="class_cuboid.html#a12a97376443b1a15ae8342c1c75b3e1e" target="_top" xlink:title="Metoda wypisania odpowiednich wierzcholkow do pliku zgodnie z zaproponowanym sposobem zadaniu dron">
<polygon fill="none" stroke="black" points="733.5,-186 733.5,-205 868.5,-205 868.5,-186 733.5,-186"/>
<text text-anchor="middle" x="801" y="-193" font-family="Helvetica,sans-Serif" font-size="10.00">Cuboid::print_cuboid_3D</text>
</a>
</g>
</g>
<!-- Node31&#45;&gt;Node32 -->
<g id="edge44" class="edge">
<title>Node31&#45;&gt;Node32</title>
<path fill="none" stroke="midnightblue" d="M681.14,-195.5C694.69,-195.5 709.15,-195.5 723.16,-195.5"/>
<polygon fill="midnightblue" stroke="midnightblue" points="723.25,-199 733.25,-195.5 723.25,-192 723.25,-199"/>
</g>
<!-- Node33 -->
<g id="node33" class="node">
<title>Node33</title>
<g id="a_node33"><a xlink:href="class_vector.html#ab2bb1182cee2389eda163fb7b767f36d" target="_top" xlink:title="Zwraca wektor do tablicy o rozmiarze SIZE &#160;&#160;Argumenty:">
<polygon fill="none" stroke="black" points="912.5,-167 912.5,-186 1004.5,-186 1004.5,-167 912.5,-167"/>
<text text-anchor="middle" x="958.5" y="-174" font-family="Helvetica,sans-Serif" font-size="10.00">Vector::get_vec</text>
</a>
</g>
</g>
<!-- Node32&#45;&gt;Node33 -->
<g id="edge45" class="edge">
<title>Node32&#45;&gt;Node33</title>
<path fill="none" stroke="midnightblue" d="M868.85,-187.33C879.95,-185.98 891.36,-184.58 902.14,-183.26"/>
<polygon fill="midnightblue" stroke="midnightblue" points="902.75,-186.72 912.25,-182.03 901.9,-179.77 902.75,-186.72"/>
</g>
<!-- Node35 -->
<g id="node35" class="node">
<title>Node35</title>
<g id="a_node35"><a xlink:href="class_prism.html#a764c6940e4fb65303981e8b877b28561" target="_top" xlink:title="Metoda wypisania odpowiednich wierzcholkow do pliku zgodnie z zaproponowanym sposobem zadaniu dron">
<polygon fill="none" stroke="black" points="738.5,-148 738.5,-167 863.5,-167 863.5,-148 738.5,-148"/>
<text text-anchor="middle" x="801" y="-155" font-family="Helvetica,sans-Serif" font-size="10.00">Prism::print_prism_3D</text>
</a>
</g>
</g>
<!-- Node34&#45;&gt;Node35 -->
<g id="edge48" class="edge">
<title>Node34&#45;&gt;Node35</title>
<path fill="none" stroke="midnightblue" d="M675.09,-157.5C691.91,-157.5 710.53,-157.5 728.15,-157.5"/>
<polygon fill="midnightblue" stroke="midnightblue" points="728.38,-161 738.38,-157.5 728.38,-154 728.38,-161"/>
</g>
<!-- Node35&#45;&gt;Node33 -->
<g id="edge49" class="edge">
<title>Node35&#45;&gt;Node33</title>
<path fill="none" stroke="midnightblue" d="M863.9,-165.06C876.48,-166.6 889.63,-168.21 901.96,-169.71"/>
<polygon fill="midnightblue" stroke="midnightblue" points="901.75,-173.21 912.1,-170.95 902.6,-166.27 901.75,-173.21"/>
</g>
<!-- Node36&#45;&gt;Node13 -->
<g id="edge54" class="edge">
<title>Node36&#45;&gt;Node13</title>
<path fill="none" stroke="midnightblue" d="M244.11,-325.64C263.04,-341.55 295.11,-366.1 327,-379.5 392.7,-407.1 472.56,-421.25 531.67,-428.41"/>
<polygon fill="midnightblue" stroke="midnightblue" points="531.38,-431.9 541.72,-429.58 532.19,-424.94 531.38,-431.9"/>
</g>
<!-- Node36&#45;&gt;Node23 -->
<g id="edge55" class="edge">
<title>Node36&#45;&gt;Node23</title>
<path fill="none" stroke="midnightblue" d="M289.53,-314.51C305.62,-315.55 323.09,-316.67 339.71,-317.73"/>
<polygon fill="midnightblue" stroke="midnightblue" points="339.73,-321.24 349.93,-318.39 340.18,-314.26 339.73,-321.24"/>
</g>
<!-- Node36&#45;&gt;Node30 -->
<g id="edge53" class="edge">
<title>Node36&#45;&gt;Node30</title>
<path fill="none" stroke="midnightblue" d="M263.5,-295.47C293.26,-283.21 335.49,-265.83 367.64,-252.59"/>
<polygon fill="midnightblue" stroke="midnightblue" points="369.36,-255.67 377.27,-248.62 366.69,-249.19 369.36,-255.67"/>
</g>
<!-- Node38 -->
<g id="node38" class="node">
<title>Node38</title>
<g id="a_node38"><a xlink:href="namespace_pz_g.html#aa010184f31b26bb561b42f22438b821e" target="_top" xlink:title="Funkcja pomocnicza, dopisuje do polecenia wpisy związane z rysowaniem z pliku.">
<polygon fill="none" stroke="black" points="332,-172 332,-191 498,-191 498,-172 332,-172"/>
<text text-anchor="middle" x="415" y="-179" font-family="Helvetica,sans-Serif" font-size="10.00">PzG::DopiszRysowanieZPlikow</text>
</a>
</g>
</g>
<!-- Node37&#45;&gt;Node38 -->
<g id="edge57" class="edge">
<title>Node37&#45;&gt;Node38</title>
<path fill="none" stroke="midnightblue" d="M291.09,-181.5C300.93,-181.5 311.24,-181.5 321.54,-181.5"/>
<polygon fill="midnightblue" stroke="midnightblue" points="321.82,-185 331.82,-181.5 321.82,-178 321.82,-185"/>
</g>
<!-- Node39 -->
<g id="node39" class="node">
<title>Node39</title>
<g id="a_node39"><a xlink:href="namespace_pz_g.html#a7227cb39c785b1c746b6bb5515c0b781" target="_top" xlink:title="Dodaje do listy rysowanych punktów, punkty o różnych rozmiarach.">
<polygon fill="none" stroke="black" points="327,-106.5 327,-136.5 503,-136.5 503,-106.5 327,-106.5"/>
<text text-anchor="start" x="335" y="-124.5" font-family="Helvetica,sans-Serif" font-size="10.00">PzG::DopiszRysowanieZRoznych</text>
<text text-anchor="middle" x="415" y="-113.5" font-family="Helvetica,sans-Serif" font-size="10.00">Punktow</text>
</a>
</g>
</g>
<!-- Node37&#45;&gt;Node39 -->
<g id="edge58" class="edge">
<title>Node37&#45;&gt;Node39</title>
<path fill="none" stroke="midnightblue" d="M274.19,-166.36C299.53,-158.23 330.95,-148.15 357.58,-139.6"/>
<polygon fill="midnightblue" stroke="midnightblue" points="358.7,-142.92 367.15,-136.53 356.56,-136.25 358.7,-142.92"/>
</g>
<!-- Node40 -->
<g id="node40" class="node">
<title>Node40</title>
<g id="a_node40"><a xlink:href="namespace_pz_g.html#a169c311f0e0b6ffadcd44e91e749f72d" target="_top" xlink:title="Wczytuje z pliku listę punktów.">
<polygon fill="none" stroke="black" points="544.5,-74.5 544.5,-104.5 689.5,-104.5 689.5,-74.5 544.5,-74.5"/>
<text text-anchor="start" x="552.5" y="-92.5" font-family="Helvetica,sans-Serif" font-size="10.00">PzG::WczytajListeRoznych</text>
<text text-anchor="middle" x="617" y="-81.5" font-family="Helvetica,sans-Serif" font-size="10.00">Punktow</text>
</a>
</g>
</g>
<!-- Node39&#45;&gt;Node40 -->
<g id="edge59" class="edge">
<title>Node39&#45;&gt;Node40</title>
<path fill="none" stroke="midnightblue" d="M503.14,-107.56C513.48,-105.9 524.01,-104.22 534.28,-102.58"/>
<polygon fill="midnightblue" stroke="midnightblue" points="535.11,-105.99 544.43,-100.95 534.01,-99.07 535.11,-105.99"/>
</g>
<!-- Node41 -->
<g id="node41" class="node">
<title>Node41</title>
<g id="a_node41"><a xlink:href="class_pz_g_1_1_atrybuty_rysowania.html#ab068535b4d2f755c394557d1da72a4eb" target="_top" xlink:title="Zmienia kolor rysowania.">
<polygon fill="none" stroke="black" points="732.5,-98.5 732.5,-128.5 869.5,-128.5 869.5,-98.5 732.5,-98.5"/>
<text text-anchor="start" x="740.5" y="-116.5" font-family="Helvetica,sans-Serif" font-size="10.00">PzG::AtrybutyRysowania</text>
<text text-anchor="middle" x="801" y="-105.5" font-family="Helvetica,sans-Serif" font-size="10.00">::ZmienKolor</text>
</a>
</g>
</g>
<!-- Node40&#45;&gt;Node41 -->
<g id="edge60" class="edge">
<title>Node40&#45;&gt;Node41</title>
<path fill="none" stroke="midnightblue" d="M689.67,-98.95C700.3,-100.35 711.3,-101.8 722.05,-103.22"/>
<polygon fill="midnightblue" stroke="midnightblue" points="721.88,-106.73 732.26,-104.57 722.8,-99.79 721.88,-106.73"/>
</g>
<!-- Node42 -->
<g id="node42" class="node">
<title>Node42</title>
<g id="a_node42"><a xlink:href="class_pz_g_1_1_atrybuty_rysowania.html#af4b140eb03bc10b6fd816fad63f8372e" target="_top" xlink:title="Zmienia rozmiar rysowania.">
<polygon fill="none" stroke="black" points="732.5,-49.5 732.5,-79.5 869.5,-79.5 869.5,-49.5 732.5,-49.5"/>
<text text-anchor="start" x="740.5" y="-67.5" font-family="Helvetica,sans-Serif" font-size="10.00">PzG::AtrybutyRysowania</text>
<text text-anchor="middle" x="801" y="-56.5" font-family="Helvetica,sans-Serif" font-size="10.00">::ZmienRozmiar</text>
</a>
</g>
</g>
<!-- Node40&#45;&gt;Node42 -->
<g id="edge61" class="edge">
<title>Node40&#45;&gt;Node42</title>
<path fill="none" stroke="midnightblue" d="M689.67,-79.66C700.3,-78.2 711.3,-76.68 722.05,-75.21"/>
<polygon fill="midnightblue" stroke="midnightblue" points="722.83,-78.63 732.26,-73.81 721.87,-71.7 722.83,-78.63"/>
</g>
<!-- Node43 -->
<g id="node43" class="node">
<title>Node43</title>
<g id="a_node43"><a xlink:href="class_pz_g_1_1_atrybuty_rysowania.html#a2ac97706124b14072715ecf3f07e82b4" target="_top" xlink:title="Zmienia styl rysowania.">
<polygon fill="none" stroke="black" points="732.5,-0.5 732.5,-30.5 869.5,-30.5 869.5,-0.5 732.5,-0.5"/>
<text text-anchor="start" x="740.5" y="-18.5" font-family="Helvetica,sans-Serif" font-size="10.00">PzG::AtrybutyRysowania</text>
<text text-anchor="middle" x="801" y="-7.5" font-family="Helvetica,sans-Serif" font-size="10.00">::ZmienStyl</text>
</a>
</g>
</g>
<!-- Node40&#45;&gt;Node43 -->
<g id="edge62" class="edge">
<title>Node40&#45;&gt;Node43</title>
<path fill="none" stroke="midnightblue" d="M650.34,-74.35C672.77,-64.04 703.46,-50.36 731,-39.5 735.67,-37.66 740.55,-35.81 745.46,-34"/>
<polygon fill="midnightblue" stroke="midnightblue" points="746.68,-37.28 754.89,-30.59 744.3,-30.7 746.68,-37.28"/>
</g>
</g>
</svg>
