<?xml version="1.0" encoding="UTF-8" standalone="no"?>
<!DOCTYPE svg PUBLIC "-//W3C//DTD SVG 1.1//EN"
 "http://www.w3.org/Graphics/SVG/1.1/DTD/svg11.dtd">
<!-- Generated by graphviz version 2.43.0 (0)
 -->
<!-- Title: Drone::Drone_change_to_sample Pages: 1 -->
<svg width="837pt" height="110pt"
 viewBox="0.00 0.00 837.00 110.00" xmlns="http://www.w3.org/2000/svg" xmlns:xlink="http://www.w3.org/1999/xlink">
<g id="graph0" class="graph" transform="scale(1 1) rotate(0) translate(4 106)">
<title>Drone::Drone_change_to_sample</title>
<!-- Node1 -->
<g id="node1" class="node">
<title>Node1</title>
<g id="a_node1"><a xlink:title="Metoda zamieniajaca drona na tego z pliku sample.">
<polygon fill="#bfbfbf" stroke="black" points="707,-49.5 707,-79.5 829,-79.5 829,-49.5 707,-49.5"/>
<text text-anchor="start" x="715" y="-67.5" font-family="Helvetica,sans-Serif" font-size="10.00">Drone::Drone_change</text>
<text text-anchor="middle" x="768" y="-56.5" font-family="Helvetica,sans-Serif" font-size="10.00">_to_sample</text>
</a>
</g>
</g>
<!-- Node2 -->
<g id="node2" class="node">
<title>Node2</title>
<g id="a_node2"><a xlink:href="class_drone.html#ac4d24c27fb2c107d2e8bda0c2bf5cfa1" target="_top" xlink:title="Metoda obliczajaca i przeprowadzajaca caly ruch drona (obrot o kat i przelot z zadania 5....">
<polygon fill="none" stroke="black" points="384,-71.5 384,-101.5 496,-101.5 496,-71.5 384,-71.5"/>
<text text-anchor="start" x="392" y="-89.5" font-family="Helvetica,sans-Serif" font-size="10.00">Drone::Drone_basic</text>
<text text-anchor="middle" x="440" y="-78.5" font-family="Helvetica,sans-Serif" font-size="10.00">_motion</text>
</a>
</g>
</g>
<!-- Node1&#45;&gt;Node2 -->
<g id="edge1" class="edge">
<title>Node1&#45;&gt;Node2</title>
<path fill="none" stroke="midnightblue" d="M709.28,-82.06C696.77,-85.16 683.54,-87.89 671,-89.5 611.58,-97.11 542.83,-94.77 496.08,-91.53"/>
<polygon fill="midnightblue" stroke="midnightblue" points="710.32,-85.41 719.13,-79.52 708.57,-78.63 710.32,-85.41"/>
</g>
<!-- Node6 -->
<g id="node6" class="node">
<title>Node6</title>
<g id="a_node6"><a xlink:href="class_drone.html#af052f6bb793d1229b99b16b800b95b82" target="_top" xlink:title="Metoda animujaca obrot drona i wyrysowujaca calosc w gnuplocie.">
<polygon fill="none" stroke="black" points="539,-49.5 539,-79.5 664,-79.5 664,-49.5 539,-49.5"/>
<text text-anchor="start" x="547" y="-67.5" font-family="Helvetica,sans-Serif" font-size="10.00">Drone::Drone_rotation</text>
<text text-anchor="middle" x="601.5" y="-56.5" font-family="Helvetica,sans-Serif" font-size="10.00">_animation</text>
</a>
</g>
</g>
<!-- Node1&#45;&gt;Node6 -->
<g id="edge5" class="edge">
<title>Node1&#45;&gt;Node6</title>
<path fill="none" stroke="midnightblue" d="M696.49,-64.5C685.74,-64.5 674.73,-64.5 664.19,-64.5"/>
<polygon fill="midnightblue" stroke="midnightblue" points="696.68,-68 706.68,-64.5 696.68,-61 696.68,-68"/>
</g>
<!-- Node7 -->
<g id="node7" class="node">
<title>Node7</title>
<g id="a_node7"><a xlink:href="class_drone.html#a5fc9dd645ad3856b5d3c501c63c464e3" target="_top" xlink:title="Metoda animujaca translacje drona i wyrysowujaca calosc w gnuplocie.">
<polygon fill="none" stroke="black" points="532,-0.5 532,-30.5 671,-30.5 671,-0.5 532,-0.5"/>
<text text-anchor="start" x="540" y="-18.5" font-family="Helvetica,sans-Serif" font-size="10.00">Drone::Drone_translation</text>
<text text-anchor="middle" x="601.5" y="-7.5" font-family="Helvetica,sans-Serif" font-size="10.00">_animation</text>
</a>
</g>
</g>
<!-- Node1&#45;&gt;Node7 -->
<g id="edge7" class="edge">
<title>Node1&#45;&gt;Node7</title>
<path fill="none" stroke="midnightblue" d="M706.68,-46.53C689.06,-41.28 669.98,-35.6 653.03,-30.55"/>
<polygon fill="midnightblue" stroke="midnightblue" points="705.72,-49.9 716.3,-49.4 707.72,-43.19 705.72,-49.9"/>
</g>
<!-- Node3 -->
<g id="node3" class="node">
<title>Node3</title>
<g id="a_node3"><a xlink:href="class_scene.html#a43e9e87ad4a473868c5b8e35ec966266" target="_top" xlink:title="Przelot aktywnego drona.">
<polygon fill="none" stroke="black" points="284,-77 284,-96 348,-96 348,-77 284,-77"/>
<text text-anchor="middle" x="316" y="-84" font-family="Helvetica,sans-Serif" font-size="10.00">Scene::fly</text>
</a>
</g>
</g>
<!-- Node2&#45;&gt;Node3 -->
<g id="edge2" class="edge">
<title>Node2&#45;&gt;Node3</title>
<path fill="none" stroke="midnightblue" d="M373.65,-86.5C364.75,-86.5 355.97,-86.5 348.08,-86.5"/>
<polygon fill="midnightblue" stroke="midnightblue" points="373.71,-90 383.71,-86.5 373.71,-83 373.71,-90"/>
</g>
<!-- Node4 -->
<g id="node4" class="node">
<title>Node4</title>
<g id="a_node4"><a xlink:href="class_menu.html#acd338552222b744cd030e17776cb5d9b" target="_top" xlink:title="Obsluguje wybor menu.">
<polygon fill="none" stroke="black" points="134,-77 134,-96 248,-96 248,-77 134,-77"/>
<text text-anchor="middle" x="191" y="-84" font-family="Helvetica,sans-Serif" font-size="10.00">Menu::switch_menu</text>
</a>
</g>
</g>
<!-- Node3&#45;&gt;Node4 -->
<g id="edge3" class="edge">
<title>Node3&#45;&gt;Node4</title>
<path fill="none" stroke="midnightblue" d="M273.93,-86.5C265.75,-86.5 257.01,-86.5 248.42,-86.5"/>
<polygon fill="midnightblue" stroke="midnightblue" points="273.96,-90 283.96,-86.5 273.96,-83 273.96,-90"/>
</g>
<!-- Node5 -->
<g id="node5" class="node">
<title>Node5</title>
<g id="a_node5"><a xlink:href="class_menu.html#af7e6a49bd56499facef9cc98561ea169" target="_top" xlink:title="Inicjuje i obsluguje menu.">
<polygon fill="none" stroke="black" points="0,-77 0,-96 98,-96 98,-77 0,-77"/>
<text text-anchor="middle" x="49" y="-84" font-family="Helvetica,sans-Serif" font-size="10.00">Menu::init_menu</text>
</a>
</g>
</g>
<!-- Node4&#45;&gt;Node5 -->
<g id="edge4" class="edge">
<title>Node4&#45;&gt;Node5</title>
<path fill="none" stroke="midnightblue" d="M123.75,-86.5C115.08,-86.5 106.33,-86.5 98.04,-86.5"/>
<polygon fill="midnightblue" stroke="midnightblue" points="123.86,-90 133.86,-86.5 123.86,-83 123.86,-90"/>
</g>
<!-- Node6&#45;&gt;Node2 -->
<g id="edge6" class="edge">
<title>Node6&#45;&gt;Node2</title>
<path fill="none" stroke="midnightblue" d="M528.87,-74.38C517.92,-75.89 506.77,-77.43 496.25,-78.88"/>
<polygon fill="midnightblue" stroke="midnightblue" points="529.41,-77.84 538.83,-73.01 528.45,-70.91 529.41,-77.84"/>
</g>
</g>
</svg>
