<?xml version="1.0" encoding="UTF-8" standalone="no"?>
<!DOCTYPE svg PUBLIC "-//W3C//DTD SVG 1.1//EN"
 "http://www.w3.org/Graphics/SVG/1.1/DTD/svg11.dtd">
<!-- Generated by graphviz version 2.43.0 (0)
 -->
<!-- Title: Menu_cub::print_side_len Pages: 1 -->
<svg width="453pt" height="66pt"
 viewBox="0.00 0.00 453.00 66.00" xmlns="http://www.w3.org/2000/svg" xmlns:xlink="http://www.w3.org/1999/xlink">
<g id="graph0" class="graph" transform="scale(1 1) rotate(0) translate(4 62)">
<title>Menu_cub::print_side_len</title>
<!-- Node1 -->
<g id="node1" class="node">
<title>Node1</title>
<g id="a_node1"><a xlink:title="Wyswietla informacje o bokach figury na standardowym wyjsciu Argumenty:">
<polygon fill="#bfbfbf" stroke="black" points="0,-19.5 0,-38.5 140,-38.5 140,-19.5 0,-19.5"/>
<text text-anchor="middle" x="70" y="-26.5" font-family="Helvetica,sans-Serif" font-size="10.00">Menu_cub::print_side_len</text>
</a>
</g>
</g>
<!-- Node2 -->
<g id="node2" class="node">
<title>Node2</title>
<g id="a_node2"><a xlink:href="class_cuboid.html#a63fdccd9593f1a7191395a103b7c6366" target="_top" xlink:title="Zapisuje do tablicy tab w kolejnosci: 1.dluzsze przeciwlegle boki 2.krotsze przeciwlegle boki 3....">
<polygon fill="none" stroke="black" points="176,-19.5 176,-38.5 291,-38.5 291,-19.5 176,-19.5"/>
<text text-anchor="middle" x="233.5" y="-26.5" font-family="Helvetica,sans-Serif" font-size="10.00">Cuboid::get_vec_len</text>
</a>
</g>
</g>
<!-- Node1&#45;&gt;Node2 -->
<g id="edge1" class="edge">
<title>Node1&#45;&gt;Node2</title>
<path fill="none" stroke="midnightblue" d="M140.43,-29C148.82,-29 157.37,-29 165.72,-29"/>
<polygon fill="midnightblue" stroke="midnightblue" points="165.77,-32.5 175.77,-29 165.77,-25.5 165.77,-32.5"/>
</g>
<!-- Node3 -->
<g id="node3" class="node">
<title>Node3</title>
<g id="a_node3"><a xlink:href="class_vector.html#a3ac695edc693437a61da9f1976fd4869" target="_top" xlink:title="Zwraca dlugosc wektora &#160;&#160;Argumenty: &#160;&#160;Brak &#160;&#160;Zwraca:">
<polygon fill="none" stroke="black" points="341.5,-38.5 341.5,-57.5 430.5,-57.5 430.5,-38.5 341.5,-38.5"/>
<text text-anchor="middle" x="386" y="-45.5" font-family="Helvetica,sans-Serif" font-size="10.00">Vector::get_len</text>
</a>
</g>
</g>
<!-- Node2&#45;&gt;Node3 -->
<g id="edge2" class="edge">
<title>Node2&#45;&gt;Node3</title>
<path fill="none" stroke="midnightblue" d="M291.4,-36.18C304.4,-37.82 318.19,-39.57 331.06,-41.19"/>
<polygon fill="midnightblue" stroke="midnightblue" points="330.8,-44.69 341.16,-42.47 331.68,-37.74 330.8,-44.69"/>
</g>
<!-- Node4 -->
<g id="node4" class="node">
<title>Node4</title>
<g id="a_node4"><a xlink:href="class_cuboid.html#a21fa2d6458f5b6c593e3e83b3455c246" target="_top" xlink:title="Zwraca do tablicy 3x2 wektory reprezentujace przeciwne boki prostopadloscianu">
<polygon fill="none" stroke="black" points="327,-0.5 327,-19.5 445,-19.5 445,-0.5 327,-0.5"/>
<text text-anchor="middle" x="386" y="-7.5" font-family="Helvetica,sans-Serif" font-size="10.00">Cuboid::get_vec_opp</text>
</a>
</g>
</g>
<!-- Node2&#45;&gt;Node4 -->
<g id="edge3" class="edge">
<title>Node2&#45;&gt;Node4</title>
<path fill="none" stroke="midnightblue" d="M291.4,-21.82C299.62,-20.78 308.16,-19.7 316.58,-18.64"/>
<polygon fill="midnightblue" stroke="midnightblue" points="317.29,-22.08 326.77,-17.35 316.41,-15.13 317.29,-22.08"/>
</g>
</g>
</svg>
