<?xml version="1.0" encoding="UTF-8" standalone="no"?>
<!DOCTYPE svg PUBLIC "-//W3C//DTD SVG 1.1//EN"
 "http://www.w3.org/Graphics/SVG/1.1/DTD/svg11.dtd">
<!-- Generated by graphviz version 2.43.0 (0)
 -->
<!-- Title: Drone::Print_to_gnuplot_drone Pages: 1 -->
<svg width="881pt" height="400pt"
 viewBox="0.00 0.00 881.00 399.50" xmlns="http://www.w3.org/2000/svg" xmlns:xlink="http://www.w3.org/1999/xlink">
<g id="graph0" class="graph" transform="scale(1 1) rotate(0) translate(4 395.5)">
<title>Drone::Print_to_gnuplot_drone</title>
<!-- Node1 -->
<g id="node1" class="node">
<title>Node1</title>
<g id="a_node1"><a xlink:title="Metoda rysujaca drona w gnuplocie. Przeznaczona do testow">
<polygon fill="#bfbfbf" stroke="black" points="0,-196.5 0,-226.5 131,-226.5 131,-196.5 0,-196.5"/>
<text text-anchor="start" x="8" y="-214.5" font-family="Helvetica,sans-Serif" font-size="10.00">Drone::Print_to_gnuplot</text>
<text text-anchor="middle" x="65.5" y="-203.5" font-family="Helvetica,sans-Serif" font-size="10.00">_drone</text>
</a>
</g>
</g>
<!-- Node2 -->
<g id="node2" class="node">
<title>Node2</title>
<g id="a_node2"><a xlink:href="class_cuboid.html#abc62d20a2f1418af1c35e369da77f0fc" target="_top" xlink:title=" ">
<polygon fill="none" stroke="black" points="173,-372 173,-391 301,-391 301,-372 173,-372"/>
<text text-anchor="middle" x="237" y="-379" font-family="Helvetica,sans-Serif" font-size="10.00">Cuboid::Cuboid_To_File</text>
</a>
</g>
</g>
<!-- Node1&#45;&gt;Node2 -->
<g id="edge1" class="edge">
<title>Node1&#45;&gt;Node2</title>
<path fill="none" stroke="midnightblue" d="M72.23,-226.54C84.64,-257.03 116.99,-326.33 167,-362.5 169.67,-364.43 172.52,-366.16 175.5,-367.72"/>
<polygon fill="midnightblue" stroke="midnightblue" points="174.16,-370.96 184.71,-371.89 177.04,-364.58 174.16,-370.96"/>
</g>
<!-- Node5 -->
<g id="node5" class="node">
<title>Node5</title>
<g id="a_node5"><a xlink:href="class_pz_g_1_1_lacze_do_g_n_u_plota.html#aa815ce8ec16e12fc246cf422e562869e" target="_top" xlink:title="Dodaje nazwę pliku.">
<polygon fill="none" stroke="black" points="172,-322.5 172,-352.5 302,-352.5 302,-322.5 172,-322.5"/>
<text text-anchor="start" x="180" y="-340.5" font-family="Helvetica,sans-Serif" font-size="10.00">PzG::LaczeDoGNUPlota</text>
<text text-anchor="middle" x="237" y="-329.5" font-family="Helvetica,sans-Serif" font-size="10.00">::DodajNazwePliku</text>
</a>
</g>
</g>
<!-- Node1&#45;&gt;Node5 -->
<g id="edge4" class="edge">
<title>Node1&#45;&gt;Node5</title>
<path fill="none" stroke="midnightblue" d="M77.89,-226.59C95.02,-248.35 129.46,-288.56 167,-312.5 170.14,-314.5 173.46,-316.37 176.88,-318.12"/>
<polygon fill="midnightblue" stroke="midnightblue" points="175.57,-321.37 186.11,-322.44 178.54,-315.03 175.57,-321.37"/>
</g>
<!-- Node7 -->
<g id="node7" class="node">
<title>Node7</title>
<g id="a_node7"><a xlink:href="class_block.html#aed17e0cb13b8eea50fe735ba05204da9" target="_top" xlink:title="Metoda zwracajaca nazwe pliku z wzorcowa bryla">
<polygon fill="none" stroke="black" points="167,-284 167,-303 307,-303 307,-284 167,-284"/>
<text text-anchor="middle" x="237" y="-291" font-family="Helvetica,sans-Serif" font-size="10.00">Block::get_sample_name</text>
</a>
</g>
</g>
<!-- Node1&#45;&gt;Node7 -->
<g id="edge6" class="edge">
<title>Node1&#45;&gt;Node7</title>
<path fill="none" stroke="midnightblue" d="M86.69,-226.64C106.31,-240.74 137.4,-261.48 167,-274.5 172.39,-276.87 178.15,-279.02 183.96,-280.94"/>
<polygon fill="midnightblue" stroke="midnightblue" points="183.14,-284.34 193.73,-283.96 185.21,-277.66 183.14,-284.34"/>
</g>
<!-- Node8 -->
<g id="node8" class="node">
<title>Node8</title>
<g id="a_node8"><a xlink:href="class_prism.html#a2de0dab6d117fc3c8dcbc3c384d0fccd" target="_top" xlink:title=" ">
<polygon fill="none" stroke="black" points="179,-246 179,-265 295,-265 295,-246 179,-246"/>
<text text-anchor="middle" x="237" y="-253" font-family="Helvetica,sans-Serif" font-size="10.00">Prism::Prism_To_File</text>
</a>
</g>
</g>
<!-- Node1&#45;&gt;Node8 -->
<g id="edge7" class="edge">
<title>Node1&#45;&gt;Node8</title>
<path fill="none" stroke="midnightblue" d="M124.36,-226.52C145.61,-232.04 169.37,-238.2 189.5,-243.43"/>
<polygon fill="midnightblue" stroke="midnightblue" points="188.8,-246.86 199.36,-245.99 190.56,-240.09 188.8,-246.86"/>
</g>
<!-- Node10 -->
<g id="node10" class="node">
<title>Node10</title>
<g id="a_node10"><a xlink:href="class_pz_g_1_1_lacze_do_g_n_u_plota.html#a065f5b8402737cc62b0ad4f66d028335" target="_top" xlink:title="Generuje polecenie rysowania i przesyła je do gnuplota.">
<polygon fill="none" stroke="black" points="172,-196.5 172,-226.5 302,-226.5 302,-196.5 172,-196.5"/>
<text text-anchor="start" x="180" y="-214.5" font-family="Helvetica,sans-Serif" font-size="10.00">PzG::LaczeDoGNUPlota</text>
<text text-anchor="middle" x="237" y="-203.5" font-family="Helvetica,sans-Serif" font-size="10.00">::Rysuj</text>
</a>
</g>
</g>
<!-- Node1&#45;&gt;Node10 -->
<g id="edge10" class="edge">
<title>Node1&#45;&gt;Node10</title>
<path fill="none" stroke="midnightblue" d="M131.06,-211.5C141.1,-211.5 151.53,-211.5 161.76,-211.5"/>
<polygon fill="midnightblue" stroke="midnightblue" points="161.9,-215 171.9,-211.5 161.9,-208 161.9,-215"/>
</g>
<!-- Node17 -->
<g id="node17" class="node">
<title>Node17</title>
<g id="a_node17"><a xlink:href="class_pz_g_1_1_lacze_do_g_n_u_plota.html#a9c91987dfc869d6fcea96205c581daef" target="_top" xlink:title="Ustawia zakres osi OX.">
<polygon fill="none" stroke="black" points="172,-147.5 172,-177.5 302,-177.5 302,-147.5 172,-147.5"/>
<text text-anchor="start" x="180" y="-165.5" font-family="Helvetica,sans-Serif" font-size="10.00">PzG::LaczeDoGNUPlota</text>
<text text-anchor="middle" x="237" y="-154.5" font-family="Helvetica,sans-Serif" font-size="10.00">::UstawZakresX</text>
</a>
</g>
</g>
<!-- Node1&#45;&gt;Node17 -->
<g id="edge17" class="edge">
<title>Node1&#45;&gt;Node17</title>
<path fill="none" stroke="midnightblue" d="M118.74,-196.4C136.3,-191.32 156.06,-185.61 174.28,-180.34"/>
<polygon fill="midnightblue" stroke="midnightblue" points="175.3,-183.69 183.93,-177.55 173.36,-176.97 175.3,-183.69"/>
</g>
<!-- Node18 -->
<g id="node18" class="node">
<title>Node18</title>
<g id="a_node18"><a xlink:href="class_pz_g_1_1_lacze_do_g_n_u_plota.html#a54c6e9cf9ab2eae479451fd953c2717c" target="_top" xlink:title="Ustawia zakres osi OY.">
<polygon fill="none" stroke="black" points="172,-98.5 172,-128.5 302,-128.5 302,-98.5 172,-98.5"/>
<text text-anchor="start" x="180" y="-116.5" font-family="Helvetica,sans-Serif" font-size="10.00">PzG::LaczeDoGNUPlota</text>
<text text-anchor="middle" x="237" y="-105.5" font-family="Helvetica,sans-Serif" font-size="10.00">::UstawZakresY</text>
</a>
</g>
</g>
<!-- Node1&#45;&gt;Node18 -->
<g id="edge18" class="edge">
<title>Node1&#45;&gt;Node18</title>
<path fill="none" stroke="midnightblue" d="M83.58,-196.41C102.76,-180.08 135.37,-154.16 167,-137.5 170.28,-135.77 173.71,-134.13 177.21,-132.57"/>
<polygon fill="midnightblue" stroke="midnightblue" points="178.73,-135.73 186.6,-128.64 176.02,-129.27 178.73,-135.73"/>
</g>
<!-- Node19 -->
<g id="node19" class="node">
<title>Node19</title>
<g id="a_node19"><a xlink:href="class_pz_g_1_1_lacze_do_g_n_u_plota.html#a1dbbb2b86fb13b8632e6bad9df2a82e3" target="_top" xlink:title="Ustawia zakres osi OZ.">
<polygon fill="none" stroke="black" points="172,-49.5 172,-79.5 302,-79.5 302,-49.5 172,-49.5"/>
<text text-anchor="start" x="180" y="-67.5" font-family="Helvetica,sans-Serif" font-size="10.00">PzG::LaczeDoGNUPlota</text>
<text text-anchor="middle" x="237" y="-56.5" font-family="Helvetica,sans-Serif" font-size="10.00">::UstawZakresZ</text>
</a>
</g>
</g>
<!-- Node1&#45;&gt;Node19 -->
<g id="edge19" class="edge">
<title>Node1&#45;&gt;Node19</title>
<path fill="none" stroke="midnightblue" d="M75.01,-196.36C90.23,-170.62 124.51,-118.21 167,-88.5 169.14,-87.01 171.38,-85.6 173.69,-84.27"/>
<polygon fill="midnightblue" stroke="midnightblue" points="175.6,-87.22 182.89,-79.54 172.4,-81 175.6,-87.22"/>
</g>
<!-- Node20 -->
<g id="node20" class="node">
<title>Node20</title>
<g id="a_node20"><a xlink:href="class_pz_g_1_1_lacze_do_g_n_u_plota.html#ae92c65357bf682478cc68f77885b61d8" target="_top" xlink:title="Zmienia tryb rysowania.">
<polygon fill="none" stroke="black" points="172,-0.5 172,-30.5 302,-30.5 302,-0.5 172,-0.5"/>
<text text-anchor="start" x="180" y="-18.5" font-family="Helvetica,sans-Serif" font-size="10.00">PzG::LaczeDoGNUPlota</text>
<text text-anchor="middle" x="237" y="-7.5" font-family="Helvetica,sans-Serif" font-size="10.00">::ZmienTrybRys</text>
</a>
</g>
</g>
<!-- Node1&#45;&gt;Node20 -->
<g id="edge20" class="edge">
<title>Node1&#45;&gt;Node20</title>
<path fill="none" stroke="midnightblue" d="M71.24,-196.47C82.45,-163.3 113.71,-83.33 167,-39.5 168.58,-38.2 170.23,-36.97 171.95,-35.8"/>
<polygon fill="midnightblue" stroke="midnightblue" points="174.1,-38.6 180.93,-30.5 170.54,-32.57 174.1,-38.6"/>
</g>
<!-- Node3 -->
<g id="node3" class="node">
<title>Node3</title>
<g id="a_node3"><a xlink:href="class_cuboid.html#a12a97376443b1a15ae8342c1c75b3e1e" target="_top" xlink:title="Metoda wypisania odpowiednich wierzcholkow do pliku zgodnie z zaproponowanym sposobem zadaniu dron">
<polygon fill="none" stroke="black" points="363.5,-369 363.5,-388 498.5,-388 498.5,-369 363.5,-369"/>
<text text-anchor="middle" x="431" y="-376" font-family="Helvetica,sans-Serif" font-size="10.00">Cuboid::print_cuboid_3D</text>
</a>
</g>
</g>
<!-- Node2&#45;&gt;Node3 -->
<g id="edge2" class="edge">
<title>Node2&#45;&gt;Node3</title>
<path fill="none" stroke="midnightblue" d="M301.13,-380.51C317.76,-380.25 335.89,-379.97 353.15,-379.7"/>
<polygon fill="midnightblue" stroke="midnightblue" points="353.25,-383.2 363.2,-379.54 353.14,-376.2 353.25,-383.2"/>
</g>
<!-- Node4 -->
<g id="node4" class="node">
<title>Node4</title>
<g id="a_node4"><a xlink:href="class_vector.html#ab2bb1182cee2389eda163fb7b767f36d" target="_top" xlink:title="Zwraca wektor do tablicy o rozmiarze SIZE &#160;&#160;Argumenty:">
<polygon fill="none" stroke="black" points="581.5,-327 581.5,-346 673.5,-346 673.5,-327 581.5,-327"/>
<text text-anchor="middle" x="627.5" y="-334" font-family="Helvetica,sans-Serif" font-size="10.00">Vector::get_vec</text>
</a>
</g>
</g>
<!-- Node3&#45;&gt;Node4 -->
<g id="edge3" class="edge">
<title>Node3&#45;&gt;Node4</title>
<path fill="none" stroke="midnightblue" d="M476.14,-368.97C504.63,-362.82 541.91,-354.77 572.22,-348.22"/>
<polygon fill="midnightblue" stroke="midnightblue" points="573.17,-351.6 582.2,-346.07 571.69,-344.76 573.17,-351.6"/>
</g>
<!-- Node6 -->
<g id="node6" class="node">
<title>Node6</title>
<g id="a_node6"><a xlink:href="namespace_pz_g.html#ae1aad0c681853d7e47da4cdfccefc102" target="_top" xlink:title="Funkcja pomocnicza, sprawdza czy plik o podanej nazwie jest na dysku.">
<polygon fill="none" stroke="black" points="383.5,-328 383.5,-347 478.5,-347 478.5,-328 383.5,-328"/>
<text text-anchor="middle" x="431" y="-335" font-family="Helvetica,sans-Serif" font-size="10.00">PzG::CzyJestPlik</text>
</a>
</g>
</g>
<!-- Node5&#45;&gt;Node6 -->
<g id="edge5" class="edge">
<title>Node5&#45;&gt;Node6</title>
<path fill="none" stroke="midnightblue" d="M302.2,-337.5C325.27,-337.5 351.1,-337.5 373.46,-337.5"/>
<polygon fill="midnightblue" stroke="midnightblue" points="373.47,-341 383.47,-337.5 373.47,-334 373.47,-341"/>
</g>
<!-- Node9 -->
<g id="node9" class="node">
<title>Node9</title>
<g id="a_node9"><a xlink:href="class_prism.html#a764c6940e4fb65303981e8b877b28561" target="_top" xlink:title="Metoda wypisania odpowiednich wierzcholkow do pliku zgodnie z zaproponowanym sposobem zadaniu dron">
<polygon fill="none" stroke="black" points="368.5,-266 368.5,-285 493.5,-285 493.5,-266 368.5,-266"/>
<text text-anchor="middle" x="431" y="-273" font-family="Helvetica,sans-Serif" font-size="10.00">Prism::print_prism_3D</text>
</a>
</g>
</g>
<!-- Node8&#45;&gt;Node9 -->
<g id="edge8" class="edge">
<title>Node8&#45;&gt;Node9</title>
<path fill="none" stroke="midnightblue" d="M295.09,-261.45C314.94,-263.51 337.47,-265.86 358.35,-268.04"/>
<polygon fill="midnightblue" stroke="midnightblue" points="358.14,-271.53 368.45,-269.09 358.86,-264.57 358.14,-271.53"/>
</g>
<!-- Node9&#45;&gt;Node4 -->
<g id="edge9" class="edge">
<title>Node9&#45;&gt;Node4</title>
<path fill="none" stroke="midnightblue" d="M462.39,-285.03C495.69,-295.48 549.27,-312.28 586.09,-323.83"/>
<polygon fill="midnightblue" stroke="midnightblue" points="585.41,-327.28 596,-326.94 587.51,-320.6 585.41,-327.28"/>
</g>
<!-- Node11 -->
<g id="node11" class="node">
<title>Node11</title>
<g id="a_node11"><a xlink:href="namespace_pz_g.html#aa010184f31b26bb561b42f22438b821e" target="_top" xlink:title="Funkcja pomocnicza, dopisuje do polecenia wpisy związane z rysowaniem z pliku.">
<polygon fill="none" stroke="black" points="348,-225 348,-244 514,-244 514,-225 348,-225"/>
<text text-anchor="middle" x="431" y="-232" font-family="Helvetica,sans-Serif" font-size="10.00">PzG::DopiszRysowanieZPlikow</text>
</a>
</g>
</g>
<!-- Node10&#45;&gt;Node11 -->
<g id="edge11" class="edge">
<title>Node10&#45;&gt;Node11</title>
<path fill="none" stroke="midnightblue" d="M302.2,-219.19C314.41,-220.65 327.4,-222.21 340.24,-223.75"/>
<polygon fill="midnightblue" stroke="midnightblue" points="340.15,-227.26 350.49,-224.98 340.98,-220.31 340.15,-227.26"/>
</g>
<!-- Node12 -->
<g id="node12" class="node">
<title>Node12</title>
<g id="a_node12"><a xlink:href="namespace_pz_g.html#a7227cb39c785b1c746b6bb5515c0b781" target="_top" xlink:title="Dodaje do listy rysowanych punktów, punkty o różnych rozmiarach.">
<polygon fill="none" stroke="black" points="343,-175.5 343,-205.5 519,-205.5 519,-175.5 343,-175.5"/>
<text text-anchor="start" x="351" y="-193.5" font-family="Helvetica,sans-Serif" font-size="10.00">PzG::DopiszRysowanieZRoznych</text>
<text text-anchor="middle" x="431" y="-182.5" font-family="Helvetica,sans-Serif" font-size="10.00">Punktow</text>
</a>
</g>
</g>
<!-- Node10&#45;&gt;Node12 -->
<g id="edge12" class="edge">
<title>Node10&#45;&gt;Node12</title>
<path fill="none" stroke="midnightblue" d="M302.2,-204.48C312.11,-203.39 322.54,-202.25 332.98,-201.11"/>
<polygon fill="midnightblue" stroke="midnightblue" points="333.42,-204.58 342.98,-200.02 332.65,-197.63 333.42,-204.58"/>
</g>
<!-- Node13 -->
<g id="node13" class="node">
<title>Node13</title>
<g id="a_node13"><a xlink:href="namespace_pz_g.html#a169c311f0e0b6ffadcd44e91e749f72d" target="_top" xlink:title="Wczytuje z pliku listę punktów.">
<polygon fill="none" stroke="black" points="555,-175.5 555,-205.5 700,-205.5 700,-175.5 555,-175.5"/>
<text text-anchor="start" x="563" y="-193.5" font-family="Helvetica,sans-Serif" font-size="10.00">PzG::WczytajListeRoznych</text>
<text text-anchor="middle" x="627.5" y="-182.5" font-family="Helvetica,sans-Serif" font-size="10.00">Punktow</text>
</a>
</g>
</g>
<!-- Node12&#45;&gt;Node13 -->
<g id="edge13" class="edge">
<title>Node12&#45;&gt;Node13</title>
<path fill="none" stroke="midnightblue" d="M519.01,-190.5C527.5,-190.5 536.09,-190.5 544.52,-190.5"/>
<polygon fill="midnightblue" stroke="midnightblue" points="544.71,-194 554.71,-190.5 544.71,-187 544.71,-194"/>
</g>
<!-- Node14 -->
<g id="node14" class="node">
<title>Node14</title>
<g id="a_node14"><a xlink:href="class_pz_g_1_1_atrybuty_rysowania.html#ab068535b4d2f755c394557d1da72a4eb" target="_top" xlink:title="Zmienia kolor rysowania.">
<polygon fill="none" stroke="black" points="736,-224.5 736,-254.5 873,-254.5 873,-224.5 736,-224.5"/>
<text text-anchor="start" x="744" y="-242.5" font-family="Helvetica,sans-Serif" font-size="10.00">PzG::AtrybutyRysowania</text>
<text text-anchor="middle" x="804.5" y="-231.5" font-family="Helvetica,sans-Serif" font-size="10.00">::ZmienKolor</text>
</a>
</g>
</g>
<!-- Node13&#45;&gt;Node14 -->
<g id="edge14" class="edge">
<title>Node13&#45;&gt;Node14</title>
<path fill="none" stroke="midnightblue" d="M682.43,-205.6C700.65,-210.7 721.15,-216.44 740.04,-221.73"/>
<polygon fill="midnightblue" stroke="midnightblue" points="739.17,-225.12 749.74,-224.45 741.06,-218.38 739.17,-225.12"/>
</g>
<!-- Node15 -->
<g id="node15" class="node">
<title>Node15</title>
<g id="a_node15"><a xlink:href="class_pz_g_1_1_atrybuty_rysowania.html#af4b140eb03bc10b6fd816fad63f8372e" target="_top" xlink:title="Zmienia rozmiar rysowania.">
<polygon fill="none" stroke="black" points="736,-175.5 736,-205.5 873,-205.5 873,-175.5 736,-175.5"/>
<text text-anchor="start" x="744" y="-193.5" font-family="Helvetica,sans-Serif" font-size="10.00">PzG::AtrybutyRysowania</text>
<text text-anchor="middle" x="804.5" y="-182.5" font-family="Helvetica,sans-Serif" font-size="10.00">::ZmienRozmiar</text>
</a>
</g>
</g>
<!-- Node13&#45;&gt;Node15 -->
<g id="edge15" class="edge">
<title>Node13&#45;&gt;Node15</title>
<path fill="none" stroke="midnightblue" d="M700.18,-190.5C708.57,-190.5 717.16,-190.5 725.63,-190.5"/>
<polygon fill="midnightblue" stroke="midnightblue" points="725.87,-194 735.87,-190.5 725.87,-187 725.87,-194"/>
</g>
<!-- Node16 -->
<g id="node16" class="node">
<title>Node16</title>
<g id="a_node16"><a xlink:href="class_pz_g_1_1_atrybuty_rysowania.html#a2ac97706124b14072715ecf3f07e82b4" target="_top" xlink:title="Zmienia styl rysowania.">
<polygon fill="none" stroke="black" points="736,-126.5 736,-156.5 873,-156.5 873,-126.5 736,-126.5"/>
<text text-anchor="start" x="744" y="-144.5" font-family="Helvetica,sans-Serif" font-size="10.00">PzG::AtrybutyRysowania</text>
<text text-anchor="middle" x="804.5" y="-133.5" font-family="Helvetica,sans-Serif" font-size="10.00">::ZmienStyl</text>
</a>
</g>
</g>
<!-- Node13&#45;&gt;Node16 -->
<g id="edge16" class="edge">
<title>Node13&#45;&gt;Node16</title>
<path fill="none" stroke="midnightblue" d="M682.43,-175.4C700.65,-170.3 721.15,-164.56 740.04,-159.27"/>
<polygon fill="midnightblue" stroke="midnightblue" points="741.06,-162.62 749.74,-156.55 739.17,-155.88 741.06,-162.62"/>
</g>
</g>
</svg>
