<?xml version="1.0" encoding="UTF-8" standalone="no"?>
<!DOCTYPE svg PUBLIC "-//W3C//DTD SVG 1.1//EN"
 "http://www.w3.org/Graphics/SVG/1.1/DTD/svg11.dtd">
<!-- Generated by graphviz version 2.43.0 (0)
 -->
<!-- Title: Menu::init_menu Pages: 1 -->
<svg width="988pt" height="649pt"
 viewBox="0.00 0.00 988.00 648.50" xmlns="http://www.w3.org/2000/svg" xmlns:xlink="http://www.w3.org/1999/xlink">
<g id="graph0" class="graph" transform="scale(1 1) rotate(0) translate(4 644.5)">
<title>Menu::init_menu</title>
<!-- Node1 -->
<g id="node1" class="node">
<title>Node1</title>
<g id="a_node1"><a xlink:title="Inicjuje i obsluguje menu.">
<polygon fill="#bfbfbf" stroke="black" points="0,-316.5 0,-335.5 98,-335.5 98,-316.5 0,-316.5"/>
<text text-anchor="middle" x="49" y="-323.5" font-family="Helvetica,sans-Serif" font-size="10.00">Menu::init_menu</text>
</a>
</g>
</g>
<!-- Node2 -->
<g id="node2" class="node">
<title>Node2</title>
<g id="a_node2"><a xlink:href="class_scene.html#a1b2c4320032cf6319a6840ac865774db" target="_top" xlink:title="Metoda sprawdzajaca poprawnosc inicjacji sceny.">
<polygon fill="none" stroke="black" points="134,-435.5 134,-454.5 248,-454.5 248,-435.5 134,-435.5"/>
<text text-anchor="middle" x="191" y="-442.5" font-family="Helvetica,sans-Serif" font-size="10.00">Scene::check_scene</text>
</a>
</g>
</g>
<!-- Node1&#45;&gt;Node2 -->
<g id="edge1" class="edge">
<title>Node1&#45;&gt;Node2</title>
<path fill="none" stroke="midnightblue" d="M56.3,-335.62C68.99,-354.32 99.38,-395.98 134,-421 139.34,-424.86 145.41,-428.27 151.52,-431.21"/>
<polygon fill="midnightblue" stroke="midnightblue" points="150.52,-434.59 161.08,-435.45 153.35,-428.19 150.52,-434.59"/>
</g>
<!-- Node3 -->
<g id="node3" class="node">
<title>Node3</title>
<g id="a_node3"><a xlink:href="class_scene.html#ae4468d0e93e36895e970d61abd760fba" target="_top" xlink:title="Metoda inicjalizujaca lacze do gnuplota.">
<polygon fill="none" stroke="black" points="136,-359.5 136,-378.5 246,-378.5 246,-359.5 136,-359.5"/>
<text text-anchor="middle" x="191" y="-366.5" font-family="Helvetica,sans-Serif" font-size="10.00">Scene::init_gnuplot</text>
</a>
</g>
</g>
<!-- Node1&#45;&gt;Node3 -->
<g id="edge2" class="edge">
<title>Node1&#45;&gt;Node3</title>
<path fill="none" stroke="midnightblue" d="M81.07,-335.54C101.19,-341.72 127.6,-349.83 149.38,-356.52"/>
<polygon fill="midnightblue" stroke="midnightblue" points="148.43,-359.89 159.02,-359.48 150.48,-353.2 148.43,-359.89"/>
</g>
<!-- Node8 -->
<g id="node8" class="node">
<title>Node8</title>
<g id="a_node8"><a xlink:href="class_pz_g_1_1_lacze_do_g_n_u_plota.html#a065f5b8402737cc62b0ad4f66d028335" target="_top" xlink:title="Generuje polecenie rysowania i przesyła je do gnuplota.">
<polygon fill="none" stroke="black" points="284,-589 284,-619 414,-619 414,-589 284,-589"/>
<text text-anchor="start" x="292" y="-607" font-family="Helvetica,sans-Serif" font-size="10.00">PzG::LaczeDoGNUPlota</text>
<text text-anchor="middle" x="349" y="-596" font-family="Helvetica,sans-Serif" font-size="10.00">::Rysuj</text>
</a>
</g>
</g>
<!-- Node1&#45;&gt;Node8 -->
<g id="edge31" class="edge">
<title>Node1&#45;&gt;Node8</title>
<path fill="none" stroke="midnightblue" d="M60.67,-335.62C75.94,-348.97 105.36,-373.14 134,-388 181.4,-412.61 212.01,-386.54 248,-426 295.36,-477.94 237.61,-527.19 284,-580 284.86,-580.98 285.76,-581.92 286.7,-582.82"/>
<polygon fill="midnightblue" stroke="midnightblue" points="284.56,-585.58 294.59,-589 288.88,-580.07 284.56,-585.58"/>
</g>
<!-- Node27 -->
<g id="node27" class="node">
<title>Node27</title>
<g id="a_node27"><a xlink:href="class_scene.html#a22b1902bbd3a21c3fc62251c123a8407" target="_top" xlink:title="Wypisuje polozenie aktywnego drona.">
<polygon fill="none" stroke="black" points="294,-0.5 294,-19.5 404,-19.5 404,-0.5 294,-0.5"/>
<text text-anchor="middle" x="349" y="-7.5" font-family="Helvetica,sans-Serif" font-size="10.00">Scene::print_active</text>
</a>
</g>
</g>
<!-- Node1&#45;&gt;Node27 -->
<g id="edge29" class="edge">
<title>Node1&#45;&gt;Node27</title>
<path fill="none" stroke="midnightblue" d="M51.17,-316.33C55.67,-282.93 74.71,-170.92 134,-105 174.73,-59.71 241.1,-34.9 289.14,-22.1"/>
<polygon fill="midnightblue" stroke="midnightblue" points="290.27,-25.42 299.09,-19.55 288.54,-18.64 290.27,-25.42"/>
</g>
<!-- Node29 -->
<g id="node29" class="node">
<title>Node29</title>
<g id="a_node29"><a xlink:href="class_menu.html#ad19260a43743fc13dbb67e71c97f3ccd" target="_top" xlink:title="Wyswietla menu.">
<polygon fill="none" stroke="black" points="295,-190.5 295,-209.5 403,-209.5 403,-190.5 295,-190.5"/>
<text text-anchor="middle" x="349" y="-197.5" font-family="Helvetica,sans-Serif" font-size="10.00">Menu::show_menu</text>
</a>
</g>
</g>
<!-- Node1&#45;&gt;Node29 -->
<g id="edge32" class="edge">
<title>Node1&#45;&gt;Node29</title>
<path fill="none" stroke="midnightblue" d="M68.43,-316.49C107.45,-296.6 201.6,-249.9 284,-219 289.98,-216.76 296.36,-214.6 302.67,-212.59"/>
<polygon fill="midnightblue" stroke="midnightblue" points="303.96,-215.86 312.5,-209.58 301.91,-209.17 303.96,-215.86"/>
</g>
<!-- Node30 -->
<g id="node30" class="node">
<title>Node30</title>
<g id="a_node30"><a xlink:href="class_menu.html#acd338552222b744cd030e17776cb5d9b" target="_top" xlink:title="Obsluguje wybor menu.">
<polygon fill="none" stroke="black" points="134,-114.5 134,-133.5 248,-133.5 248,-114.5 134,-114.5"/>
<text text-anchor="middle" x="191" y="-121.5" font-family="Helvetica,sans-Serif" font-size="10.00">Menu::switch_menu</text>
</a>
</g>
</g>
<!-- Node1&#45;&gt;Node30 -->
<g id="edge33" class="edge">
<title>Node1&#45;&gt;Node30</title>
<path fill="none" stroke="midnightblue" d="M56.75,-316.26C78.79,-284.46 148.85,-183.38 177.55,-141.96"/>
<polygon fill="midnightblue" stroke="midnightblue" points="180.5,-143.86 183.32,-133.65 174.74,-139.87 180.5,-143.86"/>
</g>
<!-- Node4 -->
<g id="node4" class="node">
<title>Node4</title>
<g id="a_node4"><a xlink:href="class_scene.html#af0103ddde1032f0abe26cefcfbdb0cac" target="_top" xlink:title="Metoda dodajaca do lacza plik z plaszczyzna.">
<polygon fill="none" stroke="black" points="297.5,-228.5 297.5,-247.5 400.5,-247.5 400.5,-228.5 297.5,-228.5"/>
<text text-anchor="middle" x="349" y="-235.5" font-family="Helvetica,sans-Serif" font-size="10.00">Scene::Add_Plane</text>
</a>
</g>
</g>
<!-- Node3&#45;&gt;Node4 -->
<g id="edge3" class="edge">
<title>Node3&#45;&gt;Node4</title>
<path fill="none" stroke="midnightblue" d="M197.9,-359.29C210.95,-338.59 244.23,-289.78 284,-262 289.95,-257.84 296.72,-254.3 303.56,-251.32"/>
<polygon fill="midnightblue" stroke="midnightblue" points="304.89,-254.56 312.88,-247.59 302.3,-248.06 304.89,-254.56"/>
</g>
<!-- Node5 -->
<g id="node5" class="node">
<title>Node5</title>
<g id="a_node5"><a xlink:href="class_pz_g_1_1_lacze_do_g_n_u_plota.html#aa815ce8ec16e12fc246cf422e562869e" target="_top" xlink:title="Dodaje nazwę pliku.">
<polygon fill="none" stroke="black" points="473,-261 473,-291 603,-291 603,-261 473,-261"/>
<text text-anchor="start" x="481" y="-279" font-family="Helvetica,sans-Serif" font-size="10.00">PzG::LaczeDoGNUPlota</text>
<text text-anchor="middle" x="538" y="-268" font-family="Helvetica,sans-Serif" font-size="10.00">::DodajNazwePliku</text>
</a>
</g>
</g>
<!-- Node3&#45;&gt;Node5 -->
<g id="edge6" class="edge">
<title>Node3&#45;&gt;Node5</title>
<path fill="none" stroke="midnightblue" d="M200.47,-359.25C215.43,-342.82 248.33,-310.03 284,-296 341.08,-273.54 410.9,-269.6 462.72,-270.67"/>
<polygon fill="midnightblue" stroke="midnightblue" points="462.75,-274.17 472.84,-270.95 462.94,-267.17 462.75,-274.17"/>
</g>
<!-- Node7 -->
<g id="node7" class="node">
<title>Node7</title>
<g id="a_node7"><a xlink:href="class_scene.html#aee5720329cbe2b9c45d607f5e972d91a" target="_top" xlink:title="Metoda tworzy plaszczyzne z podanych zakresow i zwraca nazwe pliku do zapisu.">
<polygon fill="none" stroke="black" points="294,-501.5 294,-520.5 404,-520.5 404,-501.5 294,-501.5"/>
<text text-anchor="middle" x="349" y="-508.5" font-family="Helvetica,sans-Serif" font-size="10.00">Scene::Make_Plane</text>
</a>
</g>
</g>
<!-- Node3&#45;&gt;Node7 -->
<g id="edge7" class="edge">
<title>Node3&#45;&gt;Node7</title>
<path fill="none" stroke="midnightblue" d="M226.48,-378.58C234.35,-382.09 242.11,-386.77 248,-393 280.16,-427.02 249.91,-459.91 284,-492 285.68,-493.58 287.49,-495.03 289.39,-496.36"/>
<polygon fill="midnightblue" stroke="midnightblue" points="287.83,-499.51 298.25,-501.46 291.32,-493.44 287.83,-499.51"/>
</g>
<!-- Node3&#45;&gt;Node8 -->
<g id="edge8" class="edge">
<title>Node3&#45;&gt;Node8</title>
<path fill="none" stroke="midnightblue" d="M228.64,-378.62C235.97,-382.08 242.96,-386.74 248,-393 301.09,-458.92 229.4,-515.33 284,-580 284.73,-580.86 285.49,-581.69 286.28,-582.49"/>
<polygon fill="midnightblue" stroke="midnightblue" points="284.18,-585.3 294.14,-588.93 288.62,-579.88 284.18,-585.3"/>
</g>
<!-- Node15 -->
<g id="node15" class="node">
<title>Node15</title>
<g id="a_node15"><a xlink:href="class_drone.html#a63898ba4cc161710cf08f7b578f3d90f" target="_top" xlink:title="Metoda ustawiajaca nazwy plikow w laczy do gnuplota (nazwy final!)">
<polygon fill="none" stroke="black" points="289,-452 289,-482 409,-482 409,-452 289,-452"/>
<text text-anchor="start" x="297" y="-470" font-family="Helvetica,sans-Serif" font-size="10.00">Drone::set_filenames</text>
<text text-anchor="middle" x="349" y="-459" font-family="Helvetica,sans-Serif" font-size="10.00">_gnuplot</text>
</a>
</g>
</g>
<!-- Node3&#45;&gt;Node15 -->
<g id="edge15" class="edge">
<title>Node3&#45;&gt;Node15</title>
<path fill="none" stroke="midnightblue" d="M222.44,-378.55C231.24,-382.21 240.49,-386.98 248,-393 269.36,-410.13 262.25,-426.37 284,-443 285.8,-444.38 287.69,-445.68 289.64,-446.92"/>
<polygon fill="midnightblue" stroke="midnightblue" points="288.1,-450.07 298.54,-451.9 291.53,-443.96 288.1,-450.07"/>
</g>
<!-- Node23 -->
<g id="node23" class="node">
<title>Node23</title>
<g id="a_node23"><a xlink:href="class_pz_g_1_1_lacze_do_g_n_u_plota.html#a9c91987dfc869d6fcea96205c581daef" target="_top" xlink:title="Ustawia zakres osi OX.">
<polygon fill="none" stroke="black" points="284,-403 284,-433 414,-433 414,-403 284,-403"/>
<text text-anchor="start" x="292" y="-421" font-family="Helvetica,sans-Serif" font-size="10.00">PzG::LaczeDoGNUPlota</text>
<text text-anchor="middle" x="349" y="-410" font-family="Helvetica,sans-Serif" font-size="10.00">::UstawZakresX</text>
</a>
</g>
</g>
<!-- Node3&#45;&gt;Node23 -->
<g id="edge25" class="edge">
<title>Node3&#45;&gt;Node23</title>
<path fill="none" stroke="midnightblue" d="M222.45,-378.56C241.77,-384.63 267.38,-392.68 290.43,-399.92"/>
<polygon fill="midnightblue" stroke="midnightblue" points="289.54,-403.31 300.13,-402.96 291.64,-396.63 289.54,-403.31"/>
</g>
<!-- Node24 -->
<g id="node24" class="node">
<title>Node24</title>
<g id="a_node24"><a xlink:href="class_pz_g_1_1_lacze_do_g_n_u_plota.html#a54c6e9cf9ab2eae479451fd953c2717c" target="_top" xlink:title="Ustawia zakres osi OY.">
<polygon fill="none" stroke="black" points="284,-354 284,-384 414,-384 414,-354 284,-354"/>
<text text-anchor="start" x="292" y="-372" font-family="Helvetica,sans-Serif" font-size="10.00">PzG::LaczeDoGNUPlota</text>
<text text-anchor="middle" x="349" y="-361" font-family="Helvetica,sans-Serif" font-size="10.00">::UstawZakresY</text>
</a>
</g>
</g>
<!-- Node3&#45;&gt;Node24 -->
<g id="edge26" class="edge">
<title>Node3&#45;&gt;Node24</title>
<path fill="none" stroke="midnightblue" d="M246.12,-369C255.04,-369 264.42,-369 273.73,-369"/>
<polygon fill="midnightblue" stroke="midnightblue" points="273.78,-372.5 283.78,-369 273.78,-365.5 273.78,-372.5"/>
</g>
<!-- Node25 -->
<g id="node25" class="node">
<title>Node25</title>
<g id="a_node25"><a xlink:href="class_pz_g_1_1_lacze_do_g_n_u_plota.html#a1dbbb2b86fb13b8632e6bad9df2a82e3" target="_top" xlink:title="Ustawia zakres osi OZ.">
<polygon fill="none" stroke="black" points="284,-305 284,-335 414,-335 414,-305 284,-305"/>
<text text-anchor="start" x="292" y="-323" font-family="Helvetica,sans-Serif" font-size="10.00">PzG::LaczeDoGNUPlota</text>
<text text-anchor="middle" x="349" y="-312" font-family="Helvetica,sans-Serif" font-size="10.00">::UstawZakresZ</text>
</a>
</g>
</g>
<!-- Node3&#45;&gt;Node25 -->
<g id="edge27" class="edge">
<title>Node3&#45;&gt;Node25</title>
<path fill="none" stroke="midnightblue" d="M222.45,-359.44C241.77,-353.37 267.38,-345.32 290.43,-338.08"/>
<polygon fill="midnightblue" stroke="midnightblue" points="291.64,-341.37 300.13,-335.04 289.54,-334.69 291.64,-341.37"/>
</g>
<!-- Node26 -->
<g id="node26" class="node">
<title>Node26</title>
<g id="a_node26"><a xlink:href="class_pz_g_1_1_lacze_do_g_n_u_plota.html#ae92c65357bf682478cc68f77885b61d8" target="_top" xlink:title="Zmienia tryb rysowania.">
<polygon fill="none" stroke="black" points="284,-540 284,-570 414,-570 414,-540 284,-540"/>
<text text-anchor="start" x="292" y="-558" font-family="Helvetica,sans-Serif" font-size="10.00">PzG::LaczeDoGNUPlota</text>
<text text-anchor="middle" x="349" y="-547" font-family="Helvetica,sans-Serif" font-size="10.00">::ZmienTrybRys</text>
</a>
</g>
</g>
<!-- Node3&#45;&gt;Node26 -->
<g id="edge28" class="edge">
<title>Node3&#45;&gt;Node26</title>
<path fill="none" stroke="midnightblue" d="M227.76,-378.61C235.31,-382.08 242.61,-386.75 248,-393 289.11,-440.68 242.13,-482.99 284,-530 285.17,-531.32 286.42,-532.56 287.74,-533.75"/>
<polygon fill="midnightblue" stroke="midnightblue" points="285.79,-536.66 295.9,-539.83 289.97,-531.05 285.79,-536.66"/>
</g>
<!-- Node4&#45;&gt;Node5 -->
<g id="edge4" class="edge">
<title>Node4&#45;&gt;Node5</title>
<path fill="none" stroke="midnightblue" d="M397.19,-247.59C417.08,-251.63 440.71,-256.43 462.83,-260.93"/>
<polygon fill="midnightblue" stroke="midnightblue" points="462.38,-264.41 472.87,-262.97 463.77,-257.55 462.38,-264.41"/>
</g>
<!-- Node6 -->
<g id="node6" class="node">
<title>Node6</title>
<g id="a_node6"><a xlink:href="namespace_pz_g.html#ae1aad0c681853d7e47da4cdfccefc102" target="_top" xlink:title="Funkcja pomocnicza, sprawdza czy plik o podanej nazwie jest na dysku.">
<polygon fill="none" stroke="black" points="687,-266.5 687,-285.5 782,-285.5 782,-266.5 687,-266.5"/>
<text text-anchor="middle" x="734.5" y="-273.5" font-family="Helvetica,sans-Serif" font-size="10.00">PzG::CzyJestPlik</text>
</a>
</g>
</g>
<!-- Node5&#45;&gt;Node6 -->
<g id="edge5" class="edge">
<title>Node5&#45;&gt;Node6</title>
<path fill="none" stroke="midnightblue" d="M603.23,-276C626.93,-276 653.6,-276 676.6,-276"/>
<polygon fill="midnightblue" stroke="midnightblue" points="676.89,-279.5 686.89,-276 676.89,-272.5 676.89,-279.5"/>
</g>
<!-- Node9 -->
<g id="node9" class="node">
<title>Node9</title>
<g id="a_node9"><a xlink:href="namespace_pz_g.html#aa010184f31b26bb561b42f22438b821e" target="_top" xlink:title="Funkcja pomocnicza, dopisuje do polecenia wpisy związane z rysowaniem z pliku.">
<polygon fill="none" stroke="black" points="455,-610.5 455,-629.5 621,-629.5 621,-610.5 455,-610.5"/>
<text text-anchor="middle" x="538" y="-617.5" font-family="Helvetica,sans-Serif" font-size="10.00">PzG::DopiszRysowanieZPlikow</text>
</a>
</g>
</g>
<!-- Node8&#45;&gt;Node9 -->
<g id="edge9" class="edge">
<title>Node8&#45;&gt;Node9</title>
<path fill="none" stroke="midnightblue" d="M414.09,-609.48C423.93,-610.33 434.24,-611.21 444.54,-612.09"/>
<polygon fill="midnightblue" stroke="midnightblue" points="444.55,-615.6 454.82,-612.97 445.15,-608.63 444.55,-615.6"/>
</g>
<!-- Node10 -->
<g id="node10" class="node">
<title>Node10</title>
<g id="a_node10"><a xlink:href="namespace_pz_g.html#a7227cb39c785b1c746b6bb5515c0b781" target="_top" xlink:title="Dodaje do listy rysowanych punktów, punkty o różnych rozmiarach.">
<polygon fill="none" stroke="black" points="450,-561 450,-591 626,-591 626,-561 450,-561"/>
<text text-anchor="start" x="458" y="-579" font-family="Helvetica,sans-Serif" font-size="10.00">PzG::DopiszRysowanieZRoznych</text>
<text text-anchor="middle" x="538" y="-568" font-family="Helvetica,sans-Serif" font-size="10.00">Punktow</text>
</a>
</g>
</g>
<!-- Node8&#45;&gt;Node10 -->
<g id="edge10" class="edge">
<title>Node8&#45;&gt;Node10</title>
<path fill="none" stroke="midnightblue" d="M414.09,-594.4C422.47,-593.15 431.19,-591.84 439.95,-590.53"/>
<polygon fill="midnightblue" stroke="midnightblue" points="440.48,-593.99 449.85,-589.05 439.44,-587.07 440.48,-593.99"/>
</g>
<!-- Node11 -->
<g id="node11" class="node">
<title>Node11</title>
<g id="a_node11"><a xlink:href="namespace_pz_g.html#a169c311f0e0b6ffadcd44e91e749f72d" target="_top" xlink:title="Wczytuje z pliku listę punktów.">
<polygon fill="none" stroke="black" points="662,-561 662,-591 807,-591 807,-561 662,-561"/>
<text text-anchor="start" x="670" y="-579" font-family="Helvetica,sans-Serif" font-size="10.00">PzG::WczytajListeRoznych</text>
<text text-anchor="middle" x="734.5" y="-568" font-family="Helvetica,sans-Serif" font-size="10.00">Punktow</text>
</a>
</g>
</g>
<!-- Node10&#45;&gt;Node11 -->
<g id="edge11" class="edge">
<title>Node10&#45;&gt;Node11</title>
<path fill="none" stroke="midnightblue" d="M626.01,-576C634.5,-576 643.09,-576 651.52,-576"/>
<polygon fill="midnightblue" stroke="midnightblue" points="651.71,-579.5 661.71,-576 651.71,-572.5 651.71,-579.5"/>
</g>
<!-- Node12 -->
<g id="node12" class="node">
<title>Node12</title>
<g id="a_node12"><a xlink:href="class_pz_g_1_1_atrybuty_rysowania.html#ab068535b4d2f755c394557d1da72a4eb" target="_top" xlink:title="Zmienia kolor rysowania.">
<polygon fill="none" stroke="black" points="843,-561 843,-591 980,-591 980,-561 843,-561"/>
<text text-anchor="start" x="851" y="-579" font-family="Helvetica,sans-Serif" font-size="10.00">PzG::AtrybutyRysowania</text>
<text text-anchor="middle" x="911.5" y="-568" font-family="Helvetica,sans-Serif" font-size="10.00">::ZmienKolor</text>
</a>
</g>
</g>
<!-- Node11&#45;&gt;Node12 -->
<g id="edge12" class="edge">
<title>Node11&#45;&gt;Node12</title>
<path fill="none" stroke="midnightblue" d="M807.18,-576C815.57,-576 824.16,-576 832.63,-576"/>
<polygon fill="midnightblue" stroke="midnightblue" points="832.87,-579.5 842.87,-576 832.87,-572.5 832.87,-579.5"/>
</g>
<!-- Node13 -->
<g id="node13" class="node">
<title>Node13</title>
<g id="a_node13"><a xlink:href="class_pz_g_1_1_atrybuty_rysowania.html#af4b140eb03bc10b6fd816fad63f8372e" target="_top" xlink:title="Zmienia rozmiar rysowania.">
<polygon fill="none" stroke="black" points="843,-512 843,-542 980,-542 980,-512 843,-512"/>
<text text-anchor="start" x="851" y="-530" font-family="Helvetica,sans-Serif" font-size="10.00">PzG::AtrybutyRysowania</text>
<text text-anchor="middle" x="911.5" y="-519" font-family="Helvetica,sans-Serif" font-size="10.00">::ZmienRozmiar</text>
</a>
</g>
</g>
<!-- Node11&#45;&gt;Node13 -->
<g id="edge13" class="edge">
<title>Node11&#45;&gt;Node13</title>
<path fill="none" stroke="midnightblue" d="M789.43,-560.9C807.65,-555.8 828.15,-550.06 847.04,-544.77"/>
<polygon fill="midnightblue" stroke="midnightblue" points="848.06,-548.12 856.74,-542.05 846.17,-541.38 848.06,-548.12"/>
</g>
<!-- Node14 -->
<g id="node14" class="node">
<title>Node14</title>
<g id="a_node14"><a xlink:href="class_pz_g_1_1_atrybuty_rysowania.html#a2ac97706124b14072715ecf3f07e82b4" target="_top" xlink:title="Zmienia styl rysowania.">
<polygon fill="none" stroke="black" points="843,-610 843,-640 980,-640 980,-610 843,-610"/>
<text text-anchor="start" x="851" y="-628" font-family="Helvetica,sans-Serif" font-size="10.00">PzG::AtrybutyRysowania</text>
<text text-anchor="middle" x="911.5" y="-617" font-family="Helvetica,sans-Serif" font-size="10.00">::ZmienStyl</text>
</a>
</g>
</g>
<!-- Node11&#45;&gt;Node14 -->
<g id="edge14" class="edge">
<title>Node11&#45;&gt;Node14</title>
<path fill="none" stroke="midnightblue" d="M789.43,-591.1C807.65,-596.2 828.15,-601.94 847.04,-607.23"/>
<polygon fill="midnightblue" stroke="midnightblue" points="846.17,-610.62 856.74,-609.95 848.06,-603.88 846.17,-610.62"/>
</g>
<!-- Node15&#45;&gt;Node5 -->
<g id="edge19" class="edge">
<title>Node15&#45;&gt;Node5</title>
<path fill="none" stroke="midnightblue" d="M399.43,-451.86C404.58,-449.31 409.55,-446.37 414,-443 435.55,-426.69 433.98,-415.76 450,-394 474.19,-361.14 502.2,-323.16 519.76,-299.36"/>
<polygon fill="midnightblue" stroke="midnightblue" points="522.61,-301.39 525.73,-291.27 516.98,-297.24 522.61,-301.39"/>
</g>
<!-- Node16 -->
<g id="node16" class="node">
<title>Node16</title>
<g id="a_node16"><a xlink:href="class_cuboid.html#abc62d20a2f1418af1c35e369da77f0fc" target="_top" xlink:title=" ">
<polygon fill="none" stroke="black" points="474,-517.5 474,-536.5 602,-536.5 602,-517.5 474,-517.5"/>
<text text-anchor="middle" x="538" y="-524.5" font-family="Helvetica,sans-Serif" font-size="10.00">Cuboid::Cuboid_To_File</text>
</a>
</g>
</g>
<!-- Node15&#45;&gt;Node16 -->
<g id="edge16" class="edge">
<title>Node15&#45;&gt;Node16</title>
<path fill="none" stroke="midnightblue" d="M389.38,-482.05C397.54,-485.27 406.07,-488.69 414,-492 430.16,-498.74 433.36,-502.55 450,-508 458.03,-510.63 466.59,-513 475.09,-515.11"/>
<polygon fill="midnightblue" stroke="midnightblue" points="474.47,-518.56 485.01,-517.46 476.09,-511.75 474.47,-518.56"/>
</g>
<!-- Node19 -->
<g id="node19" class="node">
<title>Node19</title>
<g id="a_node19"><a xlink:href="class_block.html#aeef4dd3716afaea42688a4f96456ce27" target="_top" xlink:title="Metoda zwracajaca nazwe pliku z finalna (robocza) bryla">
<polygon fill="none" stroke="black" points="475.5,-479.5 475.5,-498.5 600.5,-498.5 600.5,-479.5 475.5,-479.5"/>
<text text-anchor="middle" x="538" y="-486.5" font-family="Helvetica,sans-Serif" font-size="10.00">Block::get_final_name</text>
</a>
</g>
</g>
<!-- Node15&#45;&gt;Node19 -->
<g id="edge20" class="edge">
<title>Node15&#45;&gt;Node19</title>
<path fill="none" stroke="midnightblue" d="M409.17,-473.96C426.95,-476.05 446.66,-478.37 465.18,-480.55"/>
<polygon fill="midnightblue" stroke="midnightblue" points="464.98,-484.05 475.32,-481.74 465.79,-477.1 464.98,-484.05"/>
</g>
<!-- Node20 -->
<g id="node20" class="node">
<title>Node20</title>
<g id="a_node20"><a xlink:href="class_block.html#aed17e0cb13b8eea50fe735ba05204da9" target="_top" xlink:title="Metoda zwracajaca nazwe pliku z wzorcowa bryla">
<polygon fill="none" stroke="black" points="468,-441.5 468,-460.5 608,-460.5 608,-441.5 468,-441.5"/>
<text text-anchor="middle" x="538" y="-448.5" font-family="Helvetica,sans-Serif" font-size="10.00">Block::get_sample_name</text>
</a>
</g>
</g>
<!-- Node15&#45;&gt;Node20 -->
<g id="edge21" class="edge">
<title>Node15&#45;&gt;Node20</title>
<path fill="none" stroke="midnightblue" d="M409.17,-461.94C424.59,-460.62 441.45,-459.18 457.73,-457.78"/>
<polygon fill="midnightblue" stroke="midnightblue" points="458.1,-461.26 467.77,-456.92 457.5,-454.29 458.1,-461.26"/>
</g>
<!-- Node21 -->
<g id="node21" class="node">
<title>Node21</title>
<g id="a_node21"><a xlink:href="class_prism.html#a2de0dab6d117fc3c8dcbc3c384d0fccd" target="_top" xlink:title=" ">
<polygon fill="none" stroke="black" points="480,-403.5 480,-422.5 596,-422.5 596,-403.5 480,-403.5"/>
<text text-anchor="middle" x="538" y="-410.5" font-family="Helvetica,sans-Serif" font-size="10.00">Prism::Prism_To_File</text>
</a>
</g>
</g>
<!-- Node15&#45;&gt;Node21 -->
<g id="edge22" class="edge">
<title>Node15&#45;&gt;Node21</title>
<path fill="none" stroke="midnightblue" d="M389.55,-451.91C407.79,-445.28 429.82,-437.71 450,-432 459.16,-429.41 468.95,-426.96 478.54,-424.74"/>
<polygon fill="midnightblue" stroke="midnightblue" points="479.44,-428.13 488.42,-422.52 477.9,-421.3 479.44,-428.13"/>
</g>
<!-- Node17 -->
<g id="node17" class="node">
<title>Node17</title>
<g id="a_node17"><a xlink:href="class_cuboid.html#a12a97376443b1a15ae8342c1c75b3e1e" target="_top" xlink:title="Metoda wypisania odpowiednich wierzcholkow do pliku zgodnie z zaproponowanym sposobem zadaniu dron">
<polygon fill="none" stroke="black" points="667,-495.5 667,-514.5 802,-514.5 802,-495.5 667,-495.5"/>
<text text-anchor="middle" x="734.5" y="-502.5" font-family="Helvetica,sans-Serif" font-size="10.00">Cuboid::print_cuboid_3D</text>
</a>
</g>
</g>
<!-- Node16&#45;&gt;Node17 -->
<g id="edge17" class="edge">
<title>Node16&#45;&gt;Node17</title>
<path fill="none" stroke="midnightblue" d="M602.15,-519.86C619.65,-517.88 638.84,-515.71 657.01,-513.65"/>
<polygon fill="midnightblue" stroke="midnightblue" points="657.44,-517.13 666.99,-512.52 656.66,-510.17 657.44,-517.13"/>
</g>
<!-- Node18 -->
<g id="node18" class="node">
<title>Node18</title>
<g id="a_node18"><a xlink:href="class_vector.html#ab2bb1182cee2389eda163fb7b767f36d" target="_top" xlink:title="Zwraca wektor do tablicy o rozmiarze SIZE &#160;&#160;Argumenty:">
<polygon fill="none" stroke="black" points="865.5,-438.5 865.5,-457.5 957.5,-457.5 957.5,-438.5 865.5,-438.5"/>
<text text-anchor="middle" x="911.5" y="-445.5" font-family="Helvetica,sans-Serif" font-size="10.00">Vector::get_vec</text>
</a>
</g>
</g>
<!-- Node17&#45;&gt;Node18 -->
<g id="edge18" class="edge">
<title>Node17&#45;&gt;Node18</title>
<path fill="none" stroke="midnightblue" d="M764.79,-495.46C794.07,-485.92 839.25,-471.21 871.54,-460.69"/>
<polygon fill="midnightblue" stroke="midnightblue" points="872.69,-464 881.11,-457.57 870.52,-457.34 872.69,-464"/>
</g>
<!-- Node22 -->
<g id="node22" class="node">
<title>Node22</title>
<g id="a_node22"><a xlink:href="class_prism.html#a764c6940e4fb65303981e8b877b28561" target="_top" xlink:title="Metoda wypisania odpowiednich wierzcholkow do pliku zgodnie z zaproponowanym sposobem zadaniu dron">
<polygon fill="none" stroke="black" points="672,-420.5 672,-439.5 797,-439.5 797,-420.5 672,-420.5"/>
<text text-anchor="middle" x="734.5" y="-427.5" font-family="Helvetica,sans-Serif" font-size="10.00">Prism::print_prism_3D</text>
</a>
</g>
</g>
<!-- Node21&#45;&gt;Node22 -->
<g id="edge23" class="edge">
<title>Node21&#45;&gt;Node22</title>
<path fill="none" stroke="midnightblue" d="M596.04,-417.99C616.56,-419.78 639.97,-421.83 661.59,-423.71"/>
<polygon fill="midnightblue" stroke="midnightblue" points="661.44,-427.21 671.7,-424.6 662.04,-420.24 661.44,-427.21"/>
</g>
<!-- Node22&#45;&gt;Node18 -->
<g id="edge24" class="edge">
<title>Node22&#45;&gt;Node18</title>
<path fill="none" stroke="midnightblue" d="M797.2,-436.35C816.13,-438.29 836.83,-440.42 855.3,-442.32"/>
<polygon fill="midnightblue" stroke="midnightblue" points="855,-445.81 865.3,-443.35 855.71,-438.85 855,-445.81"/>
</g>
<!-- Node28 -->
<g id="node28" class="node">
<title>Node28</title>
<g id="a_node28"><a xlink:href="class_drone.html#a79011bebcf8fad3734f9710fa7c16df4" target="_top" xlink:title="Metoda wypisuje na standardowym wyjsciu pozycje drona (bez wysokosci)">
<polygon fill="none" stroke="black" points="473,-76.5 473,-95.5 603,-95.5 603,-76.5 473,-76.5"/>
<text text-anchor="middle" x="538" y="-83.5" font-family="Helvetica,sans-Serif" font-size="10.00">Drone::print_drone_pos</text>
</a>
</g>
</g>
<!-- Node27&#45;&gt;Node28 -->
<g id="edge30" class="edge">
<title>Node27&#45;&gt;Node28</title>
<path fill="none" stroke="midnightblue" d="M385.52,-19.55C394.87,-22.33 404.89,-25.56 414,-29 447.62,-41.71 484.91,-59.54 509.52,-71.86"/>
<polygon fill="midnightblue" stroke="midnightblue" points="508.1,-75.07 518.61,-76.45 511.26,-68.82 508.1,-75.07"/>
</g>
<!-- Node30&#45;&gt;Node27 -->
<g id="edge37" class="edge">
<title>Node30&#45;&gt;Node27</title>
<path fill="none" stroke="midnightblue" d="M200.92,-114.25C222.02,-91.24 274.04,-35.04 284,-29 287.57,-26.84 291.4,-24.91 295.35,-23.19"/>
<polygon fill="midnightblue" stroke="midnightblue" points="296.66,-26.43 304.7,-19.54 294.12,-19.91 296.66,-26.43"/>
</g>
<!-- Node30&#45;&gt;Node29 -->
<g id="edge40" class="edge">
<title>Node30&#45;&gt;Node29</title>
<path fill="none" stroke="midnightblue" d="M205.09,-133.68C222.39,-146.1 254.17,-167.62 284,-181 289.09,-183.28 294.53,-185.38 300,-187.28"/>
<polygon fill="midnightblue" stroke="midnightblue" points="299.24,-190.71 309.83,-190.48 301.41,-184.05 299.24,-190.71"/>
</g>
<!-- Node31 -->
<g id="node31" class="node">
<title>Node31</title>
<g id="a_node31"><a xlink:href="class_scene.html#a87ef7448b3e6e883460ba41ef590f24f" target="_top" xlink:title="Metoda pozwalajaca na wybor aktywnego drona.">
<polygon fill="none" stroke="black" points="289.5,-38.5 289.5,-57.5 408.5,-57.5 408.5,-38.5 289.5,-38.5"/>
<text text-anchor="middle" x="349" y="-45.5" font-family="Helvetica,sans-Serif" font-size="10.00">Scene::choose_drone</text>
</a>
</g>
</g>
<!-- Node30&#45;&gt;Node31 -->
<g id="edge34" class="edge">
<title>Node30&#45;&gt;Node31</title>
<path fill="none" stroke="midnightblue" d="M205.09,-114.32C222.39,-101.9 254.17,-80.38 284,-67 289.09,-64.72 294.53,-62.62 300,-60.72"/>
<polygon fill="midnightblue" stroke="midnightblue" points="301.41,-63.95 309.83,-57.52 299.24,-57.29 301.41,-63.95"/>
</g>
<!-- Node32 -->
<g id="node32" class="node">
<title>Node32</title>
<g id="a_node32"><a xlink:href="class_scene.html#a5fb0b9741a75dec929b5ea5d6ac917a1" target="_top" xlink:title="Przelot aktywnego drona.">
<polygon fill="none" stroke="black" points="317,-114.5 317,-133.5 381,-133.5 381,-114.5 317,-114.5"/>
<text text-anchor="middle" x="349" y="-121.5" font-family="Helvetica,sans-Serif" font-size="10.00">Scene::fly</text>
</a>
</g>
</g>
<!-- Node30&#45;&gt;Node32 -->
<g id="edge35" class="edge">
<title>Node30&#45;&gt;Node32</title>
<path fill="none" stroke="midnightblue" d="M248.32,-124C267.58,-124 288.76,-124 306.62,-124"/>
<polygon fill="midnightblue" stroke="midnightblue" points="306.71,-127.5 316.71,-124 306.71,-120.5 306.71,-127.5"/>
</g>
<!-- Node33 -->
<g id="node33" class="node">
<title>Node33</title>
<g id="a_node33"><a xlink:href="class_scene.html#a2a51a641e755111d4a0574ba721dddc3" target="_top" xlink:title="Przelot aktywnego drona.">
<polygon fill="none" stroke="black" points="286.5,-76.5 286.5,-95.5 411.5,-95.5 411.5,-76.5 286.5,-76.5"/>
<text text-anchor="middle" x="349" y="-83.5" font-family="Helvetica,sans-Serif" font-size="10.00">Scene::fly_roundabout</text>
</a>
</g>
</g>
<!-- Node30&#45;&gt;Node33 -->
<g id="edge36" class="edge">
<title>Node30&#45;&gt;Node33</title>
<path fill="none" stroke="midnightblue" d="M231.37,-114.41C251.95,-109.4 277.34,-103.21 299.17,-97.89"/>
<polygon fill="midnightblue" stroke="midnightblue" points="300.03,-101.29 308.92,-95.52 298.37,-94.49 300.03,-101.29"/>
</g>
<!-- Node34 -->
<g id="node34" class="node">
<title>Node34</title>
<g id="a_node34"><a xlink:href="class_scene.html#a9bb896991e516390c4464cdc92352d00" target="_top" xlink:title="Wypisuje polozenia dronow.">
<polygon fill="none" stroke="black" points="287,-152.5 287,-171.5 411,-171.5 411,-152.5 287,-152.5"/>
<text text-anchor="middle" x="349" y="-159.5" font-family="Helvetica,sans-Serif" font-size="10.00">Scene::print_positions</text>
</a>
</g>
</g>
<!-- Node30&#45;&gt;Node34 -->
<g id="edge38" class="edge">
<title>Node30&#45;&gt;Node34</title>
<path fill="none" stroke="midnightblue" d="M231.37,-133.59C251.95,-138.6 277.34,-144.79 299.17,-150.11"/>
<polygon fill="midnightblue" stroke="midnightblue" points="298.37,-153.51 308.92,-152.48 300.03,-146.71 298.37,-153.51"/>
</g>
<!-- Node34&#45;&gt;Node28 -->
<g id="edge39" class="edge">
<title>Node34&#45;&gt;Node28</title>
<path fill="none" stroke="midnightblue" d="M385.52,-152.45C394.87,-149.67 404.89,-146.44 414,-143 447.62,-130.29 484.91,-112.46 509.52,-100.14"/>
<polygon fill="midnightblue" stroke="midnightblue" points="511.26,-103.18 518.61,-95.55 508.1,-96.93 511.26,-103.18"/>
</g>
</g>
</svg>
