<?xml version="1.0" encoding="UTF-8" standalone="no"?>
<!DOCTYPE svg PUBLIC "-//W3C//DTD SVG 1.1//EN"
 "http://www.w3.org/Graphics/SVG/1.1/DTD/svg11.dtd">
<!-- Generated by graphviz version 2.43.0 (0)
 -->
<!-- Title: Menu_cub::PrismToFile Pages: 1 -->
<svg width="615pt" height="88pt"
 viewBox="0.00 0.00 615.00 88.00" xmlns="http://www.w3.org/2000/svg" xmlns:xlink="http://www.w3.org/1999/xlink">
<g id="graph0" class="graph" transform="scale(1 1) rotate(0) translate(4 84)">
<title>Menu_cub::PrismToFile</title>
<!-- Node1 -->
<g id="node1" class="node">
<title>Node1</title>
<g id="a_node1"><a xlink:title=" ">
<polygon fill="#bfbfbf" stroke="black" points="479,-30 479,-49 607,-49 607,-30 479,-30"/>
<text text-anchor="middle" x="543" y="-37" font-family="Helvetica,sans-Serif" font-size="10.00">Menu_cub::PrismToFile</text>
</a>
</g>
</g>
<!-- Node2 -->
<g id="node2" class="node">
<title>Node2</title>
<g id="a_node2"><a xlink:href="class_menu__cub.html#abfd8cfa3d88c1dd41b9af7b18b26e81b" target="_top" xlink:title="Wyswietla graniastoslup w GNUplocie Argumenty:">
<polygon fill="none" stroke="black" points="331.5,-49.5 331.5,-79.5 441.5,-79.5 441.5,-49.5 331.5,-49.5"/>
<text text-anchor="start" x="339.5" y="-67.5" font-family="Helvetica,sans-Serif" font-size="10.00">Menu_cub::Print_to</text>
<text text-anchor="middle" x="386.5" y="-56.5" font-family="Helvetica,sans-Serif" font-size="10.00">_gnuplot</text>
</a>
</g>
</g>
<!-- Node1&#45;&gt;Node2 -->
<g id="edge1" class="edge">
<title>Node1&#45;&gt;Node2</title>
<path fill="none" stroke="midnightblue" d="M473.12,-50.65C462.56,-52.35 451.8,-54.1 441.62,-55.74"/>
<polygon fill="midnightblue" stroke="midnightblue" points="473.84,-54.08 483.15,-49.02 472.72,-47.17 473.84,-54.08"/>
</g>
<!-- Node3 -->
<g id="node3" class="node">
<title>Node3</title>
<g id="a_node3"><a xlink:href="class_menu__cub.html#abfc946e12b2f8de2cc06cec953ef6106" target="_top" xlink:title=" ">
<polygon fill="none" stroke="black" points="330,-0.5 330,-30.5 443,-30.5 443,-0.5 330,-0.5"/>
<text text-anchor="start" x="338" y="-18.5" font-family="Helvetica,sans-Serif" font-size="10.00">Menu_cub::Print_to</text>
<text text-anchor="middle" x="386.5" y="-7.5" font-family="Helvetica,sans-Serif" font-size="10.00">_gnuplot_animation</text>
</a>
</g>
</g>
<!-- Node1&#45;&gt;Node3 -->
<g id="edge2" class="edge">
<title>Node1&#45;&gt;Node3</title>
<path fill="none" stroke="midnightblue" d="M470.61,-28.41C461.44,-26.99 452.16,-25.54 443.29,-24.17"/>
<polygon fill="midnightblue" stroke="midnightblue" points="470.07,-31.87 480.49,-29.95 471.15,-24.95 470.07,-31.87"/>
</g>
<!-- Node4 -->
<g id="node4" class="node">
<title>Node4</title>
<g id="a_node4"><a xlink:href="class_menu__cub.html#a20ac792d84052e50bf3fb95b1745e4df" target="_top" xlink:title="Obsluguje wybor menu Argumenty:">
<polygon fill="none" stroke="black" points="157,-6 157,-25 294,-25 294,-6 157,-6"/>
<text text-anchor="middle" x="225.5" y="-13" font-family="Helvetica,sans-Serif" font-size="10.00">Menu_cub::switch_menu</text>
</a>
</g>
</g>
<!-- Node3&#45;&gt;Node4 -->
<g id="edge3" class="edge">
<title>Node3&#45;&gt;Node4</title>
<path fill="none" stroke="midnightblue" d="M319.71,-15.5C311.26,-15.5 302.59,-15.5 294.11,-15.5"/>
<polygon fill="midnightblue" stroke="midnightblue" points="319.89,-19 329.89,-15.5 319.89,-12 319.89,-19"/>
</g>
<!-- Node5 -->
<g id="node5" class="node">
<title>Node5</title>
<g id="a_node5"><a xlink:href="class_menu__cub.html#ab8ed88bc956ac7bdfe7db0807085f7cd" target="_top" xlink:title="Inicjuje menu Argumenty:">
<polygon fill="none" stroke="black" points="0,-6 0,-25 121,-25 121,-6 0,-6"/>
<text text-anchor="middle" x="60.5" y="-13" font-family="Helvetica,sans-Serif" font-size="10.00">Menu_cub::init_menu</text>
</a>
</g>
</g>
<!-- Node4&#45;&gt;Node5 -->
<g id="edge4" class="edge">
<title>Node4&#45;&gt;Node5</title>
<path fill="none" stroke="midnightblue" d="M146.75,-15.5C138.17,-15.5 129.52,-15.5 121.2,-15.5"/>
<polygon fill="midnightblue" stroke="midnightblue" points="146.79,-19 156.79,-15.5 146.79,-12 146.79,-19"/>
</g>
</g>
</svg>
