<?xml version="1.0" encoding="UTF-8" standalone="no"?>
<!DOCTYPE svg PUBLIC "-//W3C//DTD SVG 1.1//EN"
 "http://www.w3.org/Graphics/SVG/1.1/DTD/svg11.dtd">
<!-- Generated by graphviz version 2.43.0 (0)
 -->
<!-- Title: PzG::LaczeDoGNUPlota::Rysuj Pages: 1 -->
<svg width="922pt" height="278pt"
 viewBox="0.00 0.00 922.00 278.22" xmlns="http://www.w3.org/2000/svg" xmlns:xlink="http://www.w3.org/1999/xlink">
<g id="graph0" class="graph" transform="scale(1 1) rotate(0) translate(4 274.22)">
<title>PzG::LaczeDoGNUPlota::Rysuj</title>
<!-- Node1 -->
<g id="node1" class="node">
<title>Node1</title>
<g id="a_node1"><a xlink:title="Generuje polecenie rysowania i przesyła je do gnuplota.">
<polygon fill="#bfbfbf" stroke="black" points="784,-120.5 784,-150.5 914,-150.5 914,-120.5 784,-120.5"/>
<text text-anchor="start" x="792" y="-138.5" font-family="Helvetica,sans-Serif" font-size="10.00">PzG::LaczeDoGNUPlota</text>
<text text-anchor="middle" x="849" y="-127.5" font-family="Helvetica,sans-Serif" font-size="10.00">::Rysuj</text>
</a>
</g>
</g>
<!-- Node2 -->
<g id="node2" class="node">
<title>Node2</title>
<g id="a_node2"><a xlink:href="class_drone.html#ac4d24c27fb2c107d2e8bda0c2bf5cfa1" target="_top" xlink:title="Metoda obliczajaca i przeprowadzajaca caly ruch drona (obrot o kat i przelot z zadania 5....">
<polygon fill="none" stroke="black" points="443.5,-158.5 443.5,-188.5 555.5,-188.5 555.5,-158.5 443.5,-158.5"/>
<text text-anchor="start" x="451.5" y="-176.5" font-family="Helvetica,sans-Serif" font-size="10.00">Drone::Drone_basic</text>
<text text-anchor="middle" x="499.5" y="-165.5" font-family="Helvetica,sans-Serif" font-size="10.00">_motion</text>
</a>
</g>
</g>
<!-- Node1&#45;&gt;Node2 -->
<g id="edge1" class="edge">
<title>Node1&#45;&gt;Node2</title>
<path fill="none" stroke="midnightblue" d="M773.77,-150.55C765.11,-152.03 756.37,-153.39 748,-154.5 682.21,-163.25 606.01,-168.35 555.73,-171.02"/>
<polygon fill="midnightblue" stroke="midnightblue" points="774.64,-153.95 783.89,-148.77 773.43,-147.06 774.64,-153.95"/>
</g>
<!-- Node5 -->
<g id="node5" class="node">
<title>Node5</title>
<g id="a_node5"><a xlink:href="class_menu.html#af7e6a49bd56499facef9cc98561ea169" target="_top" xlink:title="Inicjuje i obsluguje menu.">
<polygon fill="none" stroke="black" points="0,-164 0,-183 98,-183 98,-164 0,-164"/>
<text text-anchor="middle" x="49" y="-171" font-family="Helvetica,sans-Serif" font-size="10.00">Menu::init_menu</text>
</a>
</g>
</g>
<!-- Node1&#45;&gt;Node5 -->
<g id="edge13" class="edge">
<title>Node1&#45;&gt;Node5</title>
<path fill="none" stroke="midnightblue" d="M833.61,-159.26C816.67,-184.82 785.97,-224.26 748,-242.5 648.56,-290.28 610.82,-261.5 500.5,-261.5 500.5,-261.5 500.5,-261.5 338,-261.5 231.61,-261.5 112.37,-205.89 67.95,-183.09"/>
<polygon fill="midnightblue" stroke="midnightblue" points="836.76,-160.84 839.22,-150.53 830.87,-157.05 836.76,-160.84"/>
</g>
<!-- Node6 -->
<g id="node6" class="node">
<title>Node6</title>
<g id="a_node6"><a xlink:href="class_drone.html#a9d09f6cd9ed8d60dfd1979b31101f400" target="_top" xlink:title="Metoda zapisujaca sciezke do pliku oraz do lacza.">
<polygon fill="none" stroke="black" points="605,-126 605,-145 748,-145 748,-126 605,-126"/>
<text text-anchor="middle" x="676.5" y="-133" font-family="Helvetica,sans-Serif" font-size="10.00">Drone::Drone_path_to_file</text>
</a>
</g>
</g>
<!-- Node1&#45;&gt;Node6 -->
<g id="edge5" class="edge">
<title>Node1&#45;&gt;Node6</title>
<path fill="none" stroke="midnightblue" d="M773.37,-135.5C764.95,-135.5 756.4,-135.5 748.04,-135.5"/>
<polygon fill="midnightblue" stroke="midnightblue" points="773.54,-139 783.54,-135.5 773.54,-132 773.54,-139"/>
</g>
<!-- Node7 -->
<g id="node7" class="node">
<title>Node7</title>
<g id="a_node7"><a xlink:href="class_drone.html#a5fc9dd645ad3856b5d3c501c63c464e3" target="_top" xlink:title="Metoda animujaca translacje drona i wyrysowujaca calosc w gnuplocie.">
<polygon fill="none" stroke="black" points="430,-99.5 430,-129.5 569,-129.5 569,-99.5 430,-99.5"/>
<text text-anchor="start" x="438" y="-117.5" font-family="Helvetica,sans-Serif" font-size="10.00">Drone::Drone_translation</text>
<text text-anchor="middle" x="499.5" y="-106.5" font-family="Helvetica,sans-Serif" font-size="10.00">_animation</text>
</a>
</g>
</g>
<!-- Node1&#45;&gt;Node7 -->
<g id="edge10" class="edge">
<title>Node1&#45;&gt;Node7</title>
<path fill="none" stroke="midnightblue" d="M773.84,-119.88C765.16,-118.51 756.41,-117.33 748,-116.5 687.81,-110.59 618.99,-110.57 569.22,-111.76"/>
<polygon fill="midnightblue" stroke="midnightblue" points="773.52,-123.37 783.96,-121.57 774.68,-116.47 773.52,-123.37"/>
</g>
<!-- Node8 -->
<g id="node8" class="node">
<title>Node8</title>
<g id="a_node8"><a xlink:href="class_drone.html#af052f6bb793d1229b99b16b800b95b82" target="_top" xlink:title="Metoda animujaca obrot drona i wyrysowujaca calosc w gnuplocie.">
<polygon fill="none" stroke="black" points="614,-202.5 614,-232.5 739,-232.5 739,-202.5 614,-202.5"/>
<text text-anchor="start" x="622" y="-220.5" font-family="Helvetica,sans-Serif" font-size="10.00">Drone::Drone_rotation</text>
<text text-anchor="middle" x="676.5" y="-209.5" font-family="Helvetica,sans-Serif" font-size="10.00">_animation</text>
</a>
</g>
</g>
<!-- Node1&#45;&gt;Node8 -->
<g id="edge8" class="edge">
<title>Node1&#45;&gt;Node8</title>
<path fill="none" stroke="midnightblue" d="M811.45,-155.37C792.66,-165.36 769.29,-177.45 748,-187.5 737.17,-192.61 725.25,-197.83 714.33,-202.46"/>
<polygon fill="midnightblue" stroke="midnightblue" points="813.1,-158.45 820.27,-150.65 809.8,-152.28 813.1,-158.45"/>
</g>
<!-- Node9 -->
<g id="node9" class="node">
<title>Node9</title>
<g id="a_node9"><a xlink:href="class_scene.html#a7f810c98763661a977986bd2d4813ee9" target="_top" xlink:title="Metoda inicjalizujaca lacze do gnuplota.">
<polygon fill="none" stroke="black" points="284,-69 284,-88 394,-88 394,-69 284,-69"/>
<text text-anchor="middle" x="339" y="-76" font-family="Helvetica,sans-Serif" font-size="10.00">Scene::init_gnuplot</text>
</a>
</g>
</g>
<!-- Node1&#45;&gt;Node9 -->
<g id="edge11" class="edge">
<title>Node1&#45;&gt;Node9</title>
<path fill="none" stroke="midnightblue" d="M790.9,-117.68C776.97,-113.84 762.04,-110.15 748,-107.5 622.92,-83.88 472.97,-79.12 394.3,-78.39"/>
<polygon fill="midnightblue" stroke="midnightblue" points="790.26,-121.14 800.84,-120.49 792.16,-114.4 790.26,-121.14"/>
</g>
<!-- Node10 -->
<g id="node10" class="node">
<title>Node10</title>
<g id="a_node10"><a xlink:href="class_drone.html#a577871807280aab8d9c0d4e45b435ec4" target="_top" xlink:title="Metoda rysujaca drona w gnuplocie. Przeznaczona do testow">
<polygon fill="none" stroke="black" points="611,-0.5 611,-30.5 742,-30.5 742,-0.5 611,-0.5"/>
<text text-anchor="start" x="619" y="-18.5" font-family="Helvetica,sans-Serif" font-size="10.00">Drone::Print_to_gnuplot</text>
<text text-anchor="middle" x="676.5" y="-7.5" font-family="Helvetica,sans-Serif" font-size="10.00">_drone</text>
</a>
</g>
</g>
<!-- Node1&#45;&gt;Node10 -->
<g id="edge14" class="edge">
<title>Node1&#45;&gt;Node10</title>
<path fill="none" stroke="midnightblue" d="M827.32,-113.08C808.2,-93.33 778.25,-64.79 748,-45.5 739.14,-39.85 729.03,-34.83 719.3,-30.59"/>
<polygon fill="midnightblue" stroke="midnightblue" points="824.91,-115.62 834.34,-120.44 829.97,-110.79 824.91,-115.62"/>
</g>
<!-- Node3 -->
<g id="node3" class="node">
<title>Node3</title>
<g id="a_node3"><a xlink:href="class_scene.html#a43e9e87ad4a473868c5b8e35ec966266" target="_top" xlink:title="Przelot aktywnego drona.">
<polygon fill="none" stroke="black" points="307,-164 307,-183 371,-183 371,-164 307,-164"/>
<text text-anchor="middle" x="339" y="-171" font-family="Helvetica,sans-Serif" font-size="10.00">Scene::fly</text>
</a>
</g>
</g>
<!-- Node2&#45;&gt;Node3 -->
<g id="edge2" class="edge">
<title>Node2&#45;&gt;Node3</title>
<path fill="none" stroke="midnightblue" d="M433.02,-173.5C411.61,-173.5 388.82,-173.5 371.15,-173.5"/>
<polygon fill="midnightblue" stroke="midnightblue" points="433.06,-177 443.06,-173.5 433.06,-170 433.06,-177"/>
</g>
<!-- Node4 -->
<g id="node4" class="node">
<title>Node4</title>
<g id="a_node4"><a xlink:href="class_menu.html#acd338552222b744cd030e17776cb5d9b" target="_top" xlink:title="Obsluguje wybor menu.">
<polygon fill="none" stroke="black" points="134,-164 134,-183 248,-183 248,-164 134,-164"/>
<text text-anchor="middle" x="191" y="-171" font-family="Helvetica,sans-Serif" font-size="10.00">Menu::switch_menu</text>
</a>
</g>
</g>
<!-- Node3&#45;&gt;Node4 -->
<g id="edge3" class="edge">
<title>Node3&#45;&gt;Node4</title>
<path fill="none" stroke="midnightblue" d="M296.62,-173.5C281.52,-173.5 264.18,-173.5 248.01,-173.5"/>
<polygon fill="midnightblue" stroke="midnightblue" points="296.68,-177 306.68,-173.5 296.68,-170 296.68,-177"/>
</g>
<!-- Node4&#45;&gt;Node5 -->
<g id="edge4" class="edge">
<title>Node4&#45;&gt;Node5</title>
<path fill="none" stroke="midnightblue" d="M123.75,-173.5C115.08,-173.5 106.33,-173.5 98.04,-173.5"/>
<polygon fill="midnightblue" stroke="midnightblue" points="123.86,-177 133.86,-173.5 123.86,-170 123.86,-177"/>
</g>
<!-- Node6&#45;&gt;Node2 -->
<g id="edge6" class="edge">
<title>Node6&#45;&gt;Node2</title>
<path fill="none" stroke="midnightblue" d="M621.35,-147.26C600.47,-151.79 576.6,-156.98 555.62,-161.53"/>
<polygon fill="midnightblue" stroke="midnightblue" points="622.31,-150.63 631.34,-145.09 620.83,-143.79 622.31,-150.63"/>
</g>
<!-- Node6&#45;&gt;Node7 -->
<g id="edge7" class="edge">
<title>Node6&#45;&gt;Node7</title>
<path fill="none" stroke="midnightblue" d="M594.82,-125.82C586.25,-124.79 577.58,-123.75 569.17,-122.74"/>
<polygon fill="midnightblue" stroke="midnightblue" points="594.48,-129.3 604.83,-127.02 595.31,-122.35 594.48,-129.3"/>
</g>
<!-- Node8&#45;&gt;Node2 -->
<g id="edge9" class="edge">
<title>Node8&#45;&gt;Node2</title>
<path fill="none" stroke="midnightblue" d="M606.02,-200.03C589.25,-195.81 571.56,-191.37 555.55,-187.34"/>
<polygon fill="midnightblue" stroke="midnightblue" points="605.21,-203.44 615.76,-202.48 606.92,-196.65 605.21,-203.44"/>
</g>
<!-- Node9&#45;&gt;Node5 -->
<g id="edge12" class="edge">
<title>Node9&#45;&gt;Node5</title>
<path fill="none" stroke="midnightblue" d="M299.45,-91.22C240.96,-110.51 131.08,-146.75 78.91,-163.96"/>
<polygon fill="midnightblue" stroke="midnightblue" points="300.67,-94.5 309.07,-88.04 298.47,-87.85 300.67,-94.5"/>
</g>
</g>
</svg>
