<?xml version="1.0" encoding="UTF-8" standalone="no"?>
<!DOCTYPE svg PUBLIC "-//W3C//DTD SVG 1.1//EN"
 "http://www.w3.org/Graphics/SVG/1.1/DTD/svg11.dtd">
<!-- Generated by graphviz version 2.43.0 (0)
 -->
<!-- Title: Menu_cub::switch_menu Pages: 1 -->
<svg width="1089pt" height="758pt"
 viewBox="0.00 0.00 1089.00 758.00" xmlns="http://www.w3.org/2000/svg" xmlns:xlink="http://www.w3.org/1999/xlink">
<g id="graph0" class="graph" transform="scale(1 1) rotate(0) translate(4 754)">
<title>Menu_cub::switch_menu</title>
<!-- Node1 -->
<g id="node1" class="node">
<title>Node1</title>
<g id="a_node1"><a xlink:title="Obsluguje wybor menu Argumenty:">
<polygon fill="#bfbfbf" stroke="black" points="0,-202.5 0,-221.5 137,-221.5 137,-202.5 0,-202.5"/>
<text text-anchor="middle" x="68.5" y="-209.5" font-family="Helvetica,sans-Serif" font-size="10.00">Menu_cub::switch_menu</text>
</a>
</g>
</g>
<!-- Node2 -->
<g id="node2" class="node">
<title>Node2</title>
<g id="a_node2"><a xlink:href="class_menu__cub.html#a70948401b7953953e9827b2614d2ae5a" target="_top" xlink:title="Sprawdza i wyswietla wszelkie asercje odnosnie prostopadloscianu Argumenty:">
<polygon fill="none" stroke="black" points="200,-654.5 200,-673.5 302,-673.5 302,-654.5 200,-654.5"/>
<text text-anchor="middle" x="251" y="-661.5" font-family="Helvetica,sans-Serif" font-size="10.00">Menu_cub::assert</text>
</a>
</g>
</g>
<!-- Node1&#45;&gt;Node2 -->
<g id="edge1" class="edge">
<title>Node1&#45;&gt;Node2</title>
<path fill="none" stroke="midnightblue" d="M70.05,-221.76C73.06,-267.62 90.45,-464.95 173,-597 186.36,-618.37 208.64,-636.67 225.8,-648.72"/>
<polygon fill="midnightblue" stroke="midnightblue" points="224,-651.73 234.24,-654.44 227.92,-645.93 224,-651.73"/>
</g>
<!-- Node9 -->
<g id="node9" class="node">
<title>Node9</title>
<g id="a_node9"><a xlink:href="class_menu__cub.html#a6ef2bf80f2e43bf3c14876392ae04b50" target="_top" xlink:title="Wyswietla informacje o bokach figury na standardowym wyjsciu Argumenty:">
<polygon fill="none" stroke="black" points="370,-616.5 370,-635.5 510,-635.5 510,-616.5 370,-616.5"/>
<text text-anchor="middle" x="440" y="-623.5" font-family="Helvetica,sans-Serif" font-size="10.00">Menu_cub::print_side_len</text>
</a>
</g>
</g>
<!-- Node1&#45;&gt;Node9 -->
<g id="edge16" class="edge">
<title>Node1&#45;&gt;Node9</title>
<path fill="none" stroke="midnightblue" d="M69.92,-221.76C72.24,-263.48 86.72,-428.84 173,-520 224.2,-574.1 306.59,-601.18 366.12,-614.34"/>
<polygon fill="midnightblue" stroke="midnightblue" points="365.7,-617.83 376.21,-616.49 367.15,-610.98 365.7,-617.83"/>
</g>
<!-- Node12 -->
<g id="node12" class="node">
<title>Node12</title>
<g id="a_node12"><a xlink:href="class_cuboid.html#aafa18740d9c98ca928395b9873a9c63d" target="_top" xlink:title="Metoda zwracajaca punkt centralny (czyli taki, ktorego odleglosci do kazdego wierzcholka sa rowne) pr...">
<polygon fill="none" stroke="black" points="192.5,-491.5 192.5,-510.5 309.5,-510.5 309.5,-491.5 192.5,-491.5"/>
<text text-anchor="middle" x="251" y="-498.5" font-family="Helvetica,sans-Serif" font-size="10.00">Cuboid::centre_point</text>
</a>
</g>
</g>
<!-- Node1&#45;&gt;Node12 -->
<g id="edge15" class="edge">
<title>Node1&#45;&gt;Node12</title>
<path fill="none" stroke="midnightblue" d="M70.11,-221.64C73.13,-260.7 89.84,-408.57 173,-482 176.05,-484.69 179.42,-487.01 182.99,-489.02"/>
<polygon fill="midnightblue" stroke="midnightblue" points="181.7,-492.28 192.24,-493.37 184.69,-485.95 181.7,-492.28"/>
</g>
<!-- Node13 -->
<g id="node13" class="node">
<title>Node13</title>
<g id="a_node13"><a xlink:href="class_menu__cub.html#aba69e42a4314be002349777667b378e8" target="_top" xlink:title="Wyswietla prostopadloscian w GNUplocie Argumenty:">
<polygon fill="none" stroke="black" points="196,-442 196,-472 306,-472 306,-442 196,-442"/>
<text text-anchor="start" x="204" y="-460" font-family="Helvetica,sans-Serif" font-size="10.00">Menu_cub::Print_to</text>
<text text-anchor="middle" x="251" y="-449" font-family="Helvetica,sans-Serif" font-size="10.00">_gnuplot</text>
</a>
</g>
</g>
<!-- Node1&#45;&gt;Node13 -->
<g id="edge17" class="edge">
<title>Node1&#45;&gt;Node13</title>
<path fill="none" stroke="midnightblue" d="M76.58,-221.6C102.7,-257.06 194.2,-381.26 232.71,-433.53"/>
<polygon fill="midnightblue" stroke="midnightblue" points="230.09,-435.88 238.84,-441.85 235.73,-431.73 230.09,-435.88"/>
</g>
<!-- Node27 -->
<g id="node27" class="node">
<title>Node27</title>
<g id="a_node27"><a xlink:href="class_menu__cub.html#abfc946e12b2f8de2cc06cec953ef6106" target="_top" xlink:title=" ">
<polygon fill="none" stroke="black" points="194.5,-311 194.5,-341 307.5,-341 307.5,-311 194.5,-311"/>
<text text-anchor="start" x="202.5" y="-329" font-family="Helvetica,sans-Serif" font-size="10.00">Menu_cub::Print_to</text>
<text text-anchor="middle" x="251" y="-318" font-family="Helvetica,sans-Serif" font-size="10.00">_gnuplot_animation</text>
</a>
</g>
</g>
<!-- Node1&#45;&gt;Node27 -->
<g id="edge32" class="edge">
<title>Node1&#45;&gt;Node27</title>
<path fill="none" stroke="midnightblue" d="M84.58,-221.52C113.6,-239.85 177.83,-280.42 217.17,-305.27"/>
<polygon fill="midnightblue" stroke="midnightblue" points="215.8,-308.54 226.12,-310.92 219.53,-302.62 215.8,-308.54"/>
</g>
<!-- Node35 -->
<g id="node35" class="node">
<title>Node35</title>
<g id="a_node35"><a xlink:href="class_matrix.html#ab23876f609c4c12fefff30870f0b5ab2" target="_top" xlink:title="ZADANIE DO MODYFIKACJI Tworzy macierz 4x4 zdolna do jednoczesnego obrotu i przesuniecia wektora &#160;&#160;Zde...">
<polygon fill="none" stroke="black" points="197.5,-39 197.5,-69 304.5,-69 304.5,-39 197.5,-39"/>
<text text-anchor="start" x="205.5" y="-57" font-family="Helvetica,sans-Serif" font-size="10.00">Matrix::rotate_and</text>
<text text-anchor="middle" x="251" y="-46" font-family="Helvetica,sans-Serif" font-size="10.00">_translate</text>
</a>
</g>
</g>
<!-- Node1&#45;&gt;Node35 -->
<g id="edge47" class="edge">
<title>Node1&#45;&gt;Node35</title>
<path fill="none" stroke="midnightblue" d="M74.95,-202.21C88.53,-178.66 126.16,-118.23 173,-84 178.45,-80.02 184.49,-76.49 190.73,-73.38"/>
<polygon fill="midnightblue" stroke="midnightblue" points="192.35,-76.48 199.96,-69.11 189.42,-70.13 192.35,-76.48"/>
</g>
<!-- Node36 -->
<g id="node36" class="node">
<title>Node36</title>
<g id="a_node36"><a xlink:href="class_cuboid.html#a23eefb4a7b07b31bcf4db7271b83b917" target="_top" xlink:title="Metoda obracajaca prostopadloscian o zadany kat w 3D">
<polygon fill="none" stroke="black" points="203.5,-164.5 203.5,-183.5 298.5,-183.5 298.5,-164.5 203.5,-164.5"/>
<text text-anchor="middle" x="251" y="-171.5" font-family="Helvetica,sans-Serif" font-size="10.00">Cuboid::rotation</text>
</a>
</g>
</g>
<!-- Node1&#45;&gt;Node36 -->
<g id="edge48" class="edge">
<title>Node1&#45;&gt;Node36</title>
<path fill="none" stroke="midnightblue" d="M115.05,-202.41C139.3,-197.31 169.3,-190.99 194.86,-185.61"/>
<polygon fill="midnightblue" stroke="midnightblue" points="195.72,-189.01 204.78,-183.52 194.27,-182.16 195.72,-189.01"/>
</g>
<!-- Node37 -->
<g id="node37" class="node">
<title>Node37</title>
<g id="a_node37"><a xlink:href="class_cuboid.html#a6c697c2d9b36a14c43c7328876d5a1f0" target="_top" xlink:title="Metoda obracajaca prostopadloscian o zadany kat w 3D wokol srodka figury">
<polygon fill="none" stroke="black" points="173,-126.5 173,-145.5 329,-145.5 329,-126.5 173,-126.5"/>
<text text-anchor="middle" x="251" y="-133.5" font-family="Helvetica,sans-Serif" font-size="10.00">Cuboid::rotation_around_cen</text>
</a>
</g>
</g>
<!-- Node1&#45;&gt;Node37 -->
<g id="edge50" class="edge">
<title>Node1&#45;&gt;Node37</title>
<path fill="none" stroke="midnightblue" d="M83.99,-202.42C103.48,-189.91 139.57,-168.07 173,-155 179.38,-152.51 186.18,-150.27 193,-148.27"/>
<polygon fill="midnightblue" stroke="midnightblue" points="194.26,-151.56 202.97,-145.53 192.4,-144.81 194.26,-151.56"/>
</g>
<!-- Node38 -->
<g id="node38" class="node">
<title>Node38</title>
<g id="a_node38"><a xlink:href="class_cuboid.html#a3f6b1b9ea7de433af5b0d462d29f4272" target="_top" xlink:title="Metoda przesuwajaca prostopadloscian o zadany kat w 3D">
<polygon fill="none" stroke="black" points="385.5,-50.5 385.5,-69.5 494.5,-69.5 494.5,-50.5 385.5,-50.5"/>
<text text-anchor="middle" x="440" y="-57.5" font-family="Helvetica,sans-Serif" font-size="10.00">Cuboid::translation</text>
</a>
</g>
</g>
<!-- Node1&#45;&gt;Node38 -->
<g id="edge57" class="edge">
<title>Node1&#45;&gt;Node38</title>
<path fill="none" stroke="midnightblue" d="M76.89,-202.41C92.42,-182.97 130.53,-138.94 173,-117 191.03,-107.68 304.8,-85.17 377.6,-71.39"/>
<polygon fill="midnightblue" stroke="midnightblue" points="378.4,-74.8 387.58,-69.51 377.11,-67.92 378.4,-74.8"/>
</g>
<!-- Node40 -->
<g id="node40" class="node">
<title>Node40</title>
<g id="a_node40"><a xlink:href="class_menu__cub.html#a4c3d76e074f3bff4bb445bcb01f453a9" target="_top" xlink:title="Wyswietla menu.">
<polygon fill="none" stroke="black" points="185.5,-0.5 185.5,-19.5 316.5,-19.5 316.5,-0.5 185.5,-0.5"/>
<text text-anchor="middle" x="251" y="-7.5" font-family="Helvetica,sans-Serif" font-size="10.00">Menu_cub::show_menu</text>
</a>
</g>
</g>
<!-- Node1&#45;&gt;Node40 -->
<g id="edge54" class="edge">
<title>Node1&#45;&gt;Node40</title>
<path fill="none" stroke="midnightblue" d="M72.04,-202.22C80.54,-171.47 111.06,-75.99 173,-29 175.37,-27.21 177.88,-25.58 180.5,-24.1"/>
<polygon fill="midnightblue" stroke="midnightblue" points="182.26,-27.14 189.75,-19.65 179.22,-20.83 182.26,-27.14"/>
</g>
<!-- Node41 -->
<g id="node41" class="node">
<title>Node41</title>
<g id="a_node41"><a xlink:href="class_menu__cub.html#a4b2743c86836844d8e8bee49d3ea6bcf" target="_top" xlink:title="Obsluguje skladanie rotacji obrotu.">
<polygon fill="none" stroke="black" points="177.5,-202.5 177.5,-221.5 324.5,-221.5 324.5,-202.5 177.5,-202.5"/>
<text text-anchor="middle" x="251" y="-209.5" font-family="Helvetica,sans-Serif" font-size="10.00">Menu_cub::switch_rotation</text>
</a>
</g>
</g>
<!-- Node1&#45;&gt;Node41 -->
<g id="edge55" class="edge">
<title>Node1&#45;&gt;Node41</title>
<path fill="none" stroke="midnightblue" d="M137.23,-212C147.05,-212 157.26,-212 167.34,-212"/>
<polygon fill="midnightblue" stroke="midnightblue" points="167.37,-215.5 177.36,-212 167.36,-208.5 167.37,-215.5"/>
</g>
<!-- Node3 -->
<g id="node3" class="node">
<title>Node3</title>
<g id="a_node3"><a xlink:href="class_cuboid.html#a058d488f3125238bd8b8dcbb671ede9e" target="_top" xlink:title="Sprawdza czy prostopadloscian jest poprawnie zbudowany">
<polygon fill="none" stroke="black" points="386.5,-692.5 386.5,-711.5 493.5,-711.5 493.5,-692.5 386.5,-692.5"/>
<text text-anchor="middle" x="440" y="-699.5" font-family="Helvetica,sans-Serif" font-size="10.00">Cuboid::check_cub</text>
</a>
</g>
</g>
<!-- Node2&#45;&gt;Node3 -->
<g id="edge2" class="edge">
<title>Node2&#45;&gt;Node3</title>
<path fill="none" stroke="midnightblue" d="M299.19,-673.59C324.42,-678.72 355.67,-685.07 382.23,-690.46"/>
<polygon fill="midnightblue" stroke="midnightblue" points="381.65,-693.92 392.15,-692.48 383.05,-687.06 381.65,-693.92"/>
</g>
<!-- Node6 -->
<g id="node6" class="node">
<title>Node6</title>
<g id="a_node6"><a xlink:href="class_cuboid.html#a5840b78caaeac16fd1a262026819501d" target="_top" xlink:title="Sprawdza czy wektory tworzace przeciwne boki prostopadloscianu sa rowne">
<polygon fill="none" stroke="black" points="573.5,-730.5 573.5,-749.5 704.5,-749.5 704.5,-730.5 573.5,-730.5"/>
<text text-anchor="middle" x="639" y="-737.5" font-family="Helvetica,sans-Serif" font-size="10.00">Cuboid::check_vec_opp</text>
</a>
</g>
</g>
<!-- Node2&#45;&gt;Node6 -->
<g id="edge9" class="edge">
<title>Node2&#45;&gt;Node6</title>
<path fill="none" stroke="midnightblue" d="M266.23,-673.54C286.94,-686.86 327.08,-710.57 365,-721 430.34,-738.97 507.61,-742.81 563.23,-742.69"/>
<polygon fill="midnightblue" stroke="midnightblue" points="563.39,-746.19 573.36,-742.63 563.34,-739.19 563.39,-746.19"/>
</g>
<!-- Node7 -->
<g id="node7" class="node">
<title>Node7</title>
<g id="a_node7"><a xlink:href="class_cuboid.html#a5941a7b9eb991137a908b38dc24dc9b3" target="_top" xlink:title="Sprawdza czy wektory tworzace niektore konkretne boki prostokata (glownie te przy wierzcholkach) sa p...">
<polygon fill="none" stroke="black" points="572,-654.5 572,-673.5 706,-673.5 706,-654.5 572,-654.5"/>
<text text-anchor="middle" x="639" y="-661.5" font-family="Helvetica,sans-Serif" font-size="10.00">Cuboid::check_vec_perp</text>
</a>
</g>
</g>
<!-- Node2&#45;&gt;Node7 -->
<g id="edge10" class="edge">
<title>Node2&#45;&gt;Node7</title>
<path fill="none" stroke="midnightblue" d="M302.07,-664C368.05,-664 484.75,-664 561.74,-664"/>
<polygon fill="midnightblue" stroke="midnightblue" points="561.87,-667.5 571.87,-664 561.87,-660.5 561.87,-667.5"/>
</g>
<!-- Node2&#45;&gt;Node9 -->
<g id="edge11" class="edge">
<title>Node2&#45;&gt;Node9</title>
<path fill="none" stroke="midnightblue" d="M299.19,-654.41C324.42,-649.28 355.67,-642.93 382.23,-637.54"/>
<polygon fill="midnightblue" stroke="midnightblue" points="383.05,-640.94 392.15,-635.52 381.65,-634.08 383.05,-640.94"/>
</g>
<!-- Node4 -->
<g id="node4" class="node">
<title>Node4</title>
<g id="a_node4"><a xlink:href="class_cuboid.html#a41233dfb606942e160e3080a23547674" target="_top" xlink:title="Sprawdza czy dlugosci wektory tworzace przeciwne boki prostopadloscianu maja poprawne wartosci (nie s...">
<polygon fill="none" stroke="black" points="575,-692.5 575,-711.5 703,-711.5 703,-692.5 575,-692.5"/>
<text text-anchor="middle" x="639" y="-699.5" font-family="Helvetica,sans-Serif" font-size="10.00">Cuboid::check_vec_len</text>
</a>
</g>
</g>
<!-- Node3&#45;&gt;Node4 -->
<g id="edge3" class="edge">
<title>Node3&#45;&gt;Node4</title>
<path fill="none" stroke="midnightblue" d="M493.53,-702C515.28,-702 540.87,-702 564.43,-702"/>
<polygon fill="midnightblue" stroke="midnightblue" points="564.74,-705.5 574.74,-702 564.74,-698.5 564.74,-705.5"/>
</g>
<!-- Node3&#45;&gt;Node6 -->
<g id="edge5" class="edge">
<title>Node3&#45;&gt;Node6</title>
<path fill="none" stroke="midnightblue" d="M490.46,-711.54C517.15,-716.69 550.3,-723.08 578.42,-728.51"/>
<polygon fill="midnightblue" stroke="midnightblue" points="578.04,-732 588.52,-730.46 579.37,-725.13 578.04,-732"/>
</g>
<!-- Node3&#45;&gt;Node7 -->
<g id="edge7" class="edge">
<title>Node3&#45;&gt;Node7</title>
<path fill="none" stroke="midnightblue" d="M490.46,-692.46C517.15,-687.31 550.3,-680.92 578.42,-675.49"/>
<polygon fill="midnightblue" stroke="midnightblue" points="579.37,-678.87 588.52,-673.54 578.04,-672 579.37,-678.87"/>
</g>
<!-- Node5 -->
<g id="node5" class="node">
<title>Node5</title>
<g id="a_node5"><a xlink:href="class_cuboid.html#a21fa2d6458f5b6c593e3e83b3455c246" target="_top" xlink:title="Zwraca do tablicy 3x2 wektory reprezentujace przeciwne boki prostopadloscianu">
<polygon fill="none" stroke="black" points="776.5,-692.5 776.5,-711.5 894.5,-711.5 894.5,-692.5 776.5,-692.5"/>
<text text-anchor="middle" x="835.5" y="-699.5" font-family="Helvetica,sans-Serif" font-size="10.00">Cuboid::get_vec_opp</text>
</a>
</g>
</g>
<!-- Node4&#45;&gt;Node5 -->
<g id="edge4" class="edge">
<title>Node4&#45;&gt;Node5</title>
<path fill="none" stroke="midnightblue" d="M703.15,-702C723.27,-702 745.61,-702 766.08,-702"/>
<polygon fill="midnightblue" stroke="midnightblue" points="766.28,-705.5 776.28,-702 766.28,-698.5 766.28,-705.5"/>
</g>
<!-- Node6&#45;&gt;Node5 -->
<g id="edge6" class="edge">
<title>Node6&#45;&gt;Node5</title>
<path fill="none" stroke="midnightblue" d="M688.83,-730.46C715.19,-725.31 747.92,-718.92 775.67,-713.49"/>
<polygon fill="midnightblue" stroke="midnightblue" points="776.51,-716.9 785.65,-711.54 775.16,-710.03 776.51,-716.9"/>
</g>
<!-- Node8 -->
<g id="node8" class="node">
<title>Node8</title>
<g id="a_node8"><a xlink:href="class_cuboid.html#a3bdc11fd360d0c7d8491f4b42b53bf10" target="_top" xlink:title="Zwraca do tablicy 2x3 wektory reprezentujace boki przy wierzcholkach [0][1] (do vecs[0]) i [1][3] (do...">
<polygon fill="none" stroke="black" points="774.5,-654.5 774.5,-673.5 896.5,-673.5 896.5,-654.5 774.5,-654.5"/>
<text text-anchor="middle" x="835.5" y="-661.5" font-family="Helvetica,sans-Serif" font-size="10.00">Cuboid::get_vec_perp</text>
</a>
</g>
</g>
<!-- Node7&#45;&gt;Node8 -->
<g id="edge8" class="edge">
<title>Node7&#45;&gt;Node8</title>
<path fill="none" stroke="midnightblue" d="M706.12,-664C724.88,-664 745.38,-664 764.37,-664"/>
<polygon fill="midnightblue" stroke="midnightblue" points="764.44,-667.5 774.44,-664 764.44,-660.5 764.44,-667.5"/>
</g>
<!-- Node10 -->
<g id="node10" class="node">
<title>Node10</title>
<g id="a_node10"><a xlink:href="class_cuboid.html#a63fdccd9593f1a7191395a103b7c6366" target="_top" xlink:title="Zapisuje do tablicy tab w kolejnosci: 1.dluzsze przeciwlegle boki 2.krotsze przeciwlegle boki 3....">
<polygon fill="none" stroke="black" points="581.5,-616.5 581.5,-635.5 696.5,-635.5 696.5,-616.5 581.5,-616.5"/>
<text text-anchor="middle" x="639" y="-623.5" font-family="Helvetica,sans-Serif" font-size="10.00">Cuboid::get_vec_len</text>
</a>
</g>
</g>
<!-- Node9&#45;&gt;Node10 -->
<g id="edge12" class="edge">
<title>Node9&#45;&gt;Node10</title>
<path fill="none" stroke="midnightblue" d="M510.18,-626C530,-626 551.57,-626 571.25,-626"/>
<polygon fill="midnightblue" stroke="midnightblue" points="571.35,-629.5 581.35,-626 571.35,-622.5 571.35,-629.5"/>
</g>
<!-- Node10&#45;&gt;Node5 -->
<g id="edge14" class="edge">
<title>Node10&#45;&gt;Node5</title>
<path fill="none" stroke="midnightblue" d="M696.57,-633.21C707.11,-635.96 717.71,-639.76 727,-645 747.26,-656.43 743,-671.12 763,-683 766.66,-685.18 770.58,-687.11 774.62,-688.82"/>
<polygon fill="midnightblue" stroke="midnightblue" points="773.62,-692.19 784.22,-692.44 776.09,-685.64 773.62,-692.19"/>
</g>
<!-- Node11 -->
<g id="node11" class="node">
<title>Node11</title>
<g id="a_node11"><a xlink:href="class_vector.html#a3ac695edc693437a61da9f1976fd4869" target="_top" xlink:title="Zwraca dlugosc wektora &#160;&#160;Argumenty: &#160;&#160;Brak &#160;&#160;Zwraca:">
<polygon fill="none" stroke="black" points="791,-616.5 791,-635.5 880,-635.5 880,-616.5 791,-616.5"/>
<text text-anchor="middle" x="835.5" y="-623.5" font-family="Helvetica,sans-Serif" font-size="10.00">Vector::get_len</text>
</a>
</g>
</g>
<!-- Node10&#45;&gt;Node11 -->
<g id="edge13" class="edge">
<title>Node10&#45;&gt;Node11</title>
<path fill="none" stroke="midnightblue" d="M696.52,-626C723.06,-626 754.53,-626 780.71,-626"/>
<polygon fill="midnightblue" stroke="midnightblue" points="780.84,-629.5 790.84,-626 780.84,-622.5 780.84,-629.5"/>
</g>
<!-- Node14 -->
<g id="node14" class="node">
<title>Node14</title>
<g id="a_node14"><a xlink:href="class_menu__cub.html#ada6a6762e5cc6f20628ecb5bd57944c7" target="_top" xlink:title=" ">
<polygon fill="none" stroke="black" points="373,-540.5 373,-559.5 507,-559.5 507,-540.5 373,-540.5"/>
<text text-anchor="middle" x="440" y="-547.5" font-family="Helvetica,sans-Serif" font-size="10.00">Menu_cub::CuboidToFile</text>
</a>
</g>
</g>
<!-- Node13&#45;&gt;Node14 -->
<g id="edge18" class="edge">
<title>Node13&#45;&gt;Node14</title>
<path fill="none" stroke="midnightblue" d="M306.27,-469.84C314.3,-473.07 322.16,-477.06 329,-482 350.91,-497.82 342.61,-515.87 365,-531 367.95,-532.99 371.09,-534.77 374.35,-536.37"/>
<polygon fill="midnightblue" stroke="midnightblue" points="373.23,-539.7 383.81,-540.39 375.97,-533.26 373.23,-539.7"/>
</g>
<!-- Node15 -->
<g id="node15" class="node">
<title>Node15</title>
<g id="a_node15"><a xlink:href="class_cuboid.html#a12a97376443b1a15ae8342c1c75b3e1e" target="_top" xlink:title="Metoda wypisania odpowiednich wierzcholkow do pliku zgodnie z zaproponowanym sposobem zadaniu dron">
<polygon fill="none" stroke="black" points="571.5,-540.5 571.5,-559.5 706.5,-559.5 706.5,-540.5 571.5,-540.5"/>
<text text-anchor="middle" x="639" y="-547.5" font-family="Helvetica,sans-Serif" font-size="10.00">Cuboid::print_cuboid_3D</text>
</a>
</g>
</g>
<!-- Node13&#45;&gt;Node15 -->
<g id="edge23" class="edge">
<title>Node13&#45;&gt;Node15</title>
<path fill="none" stroke="midnightblue" d="M306.22,-467.95C314.53,-471.42 322.5,-475.99 329,-482 359.73,-510.41 330.21,-545.75 365,-569 439.74,-618.96 553.14,-584.68 607.22,-563.4"/>
<polygon fill="midnightblue" stroke="midnightblue" points="608.65,-566.6 616.61,-559.6 606.02,-560.11 608.65,-566.6"/>
</g>
<!-- Node17 -->
<g id="node17" class="node">
<title>Node17</title>
<g id="a_node17"><a xlink:href="class_pz_g_1_1_lacze_do_g_n_u_plota.html#aa815ce8ec16e12fc246cf422e562869e" target="_top" xlink:title="Dodaje nazwę pliku.">
<polygon fill="none" stroke="black" points="375,-442 375,-472 505,-472 505,-442 375,-442"/>
<text text-anchor="start" x="383" y="-460" font-family="Helvetica,sans-Serif" font-size="10.00">PzG::LaczeDoGNUPlota</text>
<text text-anchor="middle" x="440" y="-449" font-family="Helvetica,sans-Serif" font-size="10.00">::DodajNazwePliku</text>
</a>
</g>
</g>
<!-- Node13&#45;&gt;Node17 -->
<g id="edge21" class="edge">
<title>Node13&#45;&gt;Node17</title>
<path fill="none" stroke="midnightblue" d="M306.09,-457C324.37,-457 345.11,-457 364.68,-457"/>
<polygon fill="midnightblue" stroke="midnightblue" points="364.78,-460.5 374.78,-457 364.78,-453.5 364.78,-460.5"/>
</g>
<!-- Node19 -->
<g id="node19" class="node">
<title>Node19</title>
<g id="a_node19"><a xlink:href="class_pz_g_1_1_lacze_do_g_n_u_plota.html#a065f5b8402737cc62b0ad4f66d028335" target="_top" xlink:title="Generuje polecenie rysowania i przesyła je do gnuplota.">
<polygon fill="none" stroke="black" points="375,-393 375,-423 505,-423 505,-393 375,-393"/>
<text text-anchor="start" x="383" y="-411" font-family="Helvetica,sans-Serif" font-size="10.00">PzG::LaczeDoGNUPlota</text>
<text text-anchor="middle" x="440" y="-400" font-family="Helvetica,sans-Serif" font-size="10.00">::Rysuj</text>
</a>
</g>
</g>
<!-- Node13&#45;&gt;Node19 -->
<g id="edge24" class="edge">
<title>Node13&#45;&gt;Node19</title>
<path fill="none" stroke="midnightblue" d="M306.09,-442.83C326.57,-437.46 350.15,-431.28 371.7,-425.63"/>
<polygon fill="midnightblue" stroke="midnightblue" points="372.66,-429 381.45,-423.08 370.89,-422.23 372.66,-429"/>
</g>
<!-- Node26 -->
<g id="node26" class="node">
<title>Node26</title>
<g id="a_node26"><a xlink:href="class_pz_g_1_1_lacze_do_g_n_u_plota.html#ae92c65357bf682478cc68f77885b61d8" target="_top" xlink:title="Zmienia tryb rysowania.">
<polygon fill="none" stroke="black" points="375,-491 375,-521 505,-521 505,-491 375,-491"/>
<text text-anchor="start" x="383" y="-509" font-family="Helvetica,sans-Serif" font-size="10.00">PzG::LaczeDoGNUPlota</text>
<text text-anchor="middle" x="440" y="-498" font-family="Helvetica,sans-Serif" font-size="10.00">::ZmienTrybRys</text>
</a>
</g>
</g>
<!-- Node13&#45;&gt;Node26 -->
<g id="edge31" class="edge">
<title>Node13&#45;&gt;Node26</title>
<path fill="none" stroke="midnightblue" d="M306.09,-471.17C326.57,-476.54 350.15,-482.72 371.7,-488.37"/>
<polygon fill="midnightblue" stroke="midnightblue" points="370.89,-491.77 381.45,-490.92 372.66,-485 370.89,-491.77"/>
</g>
<!-- Node14&#45;&gt;Node15 -->
<g id="edge19" class="edge">
<title>Node14&#45;&gt;Node15</title>
<path fill="none" stroke="midnightblue" d="M507.15,-550C524.43,-550 543.21,-550 561.01,-550"/>
<polygon fill="midnightblue" stroke="midnightblue" points="561.36,-553.5 571.36,-550 561.36,-546.5 561.36,-553.5"/>
</g>
<!-- Node16 -->
<g id="node16" class="node">
<title>Node16</title>
<g id="a_node16"><a xlink:href="class_vector.html#ab2bb1182cee2389eda163fb7b767f36d" target="_top" xlink:title="Zwraca wektor do tablicy o rozmiarze SIZE &#160;&#160;Argumenty:">
<polygon fill="none" stroke="black" points="789.5,-494.5 789.5,-513.5 881.5,-513.5 881.5,-494.5 789.5,-494.5"/>
<text text-anchor="middle" x="835.5" y="-501.5" font-family="Helvetica,sans-Serif" font-size="10.00">Vector::get_vec</text>
</a>
</g>
</g>
<!-- Node15&#45;&gt;Node16 -->
<g id="edge20" class="edge">
<title>Node15&#45;&gt;Node16</title>
<path fill="none" stroke="midnightblue" d="M680.3,-540.47C710.42,-533.35 751.8,-523.56 784.11,-515.92"/>
<polygon fill="midnightblue" stroke="midnightblue" points="785.33,-519.23 794.25,-513.52 783.71,-512.41 785.33,-519.23"/>
</g>
<!-- Node18 -->
<g id="node18" class="node">
<title>Node18</title>
<g id="a_node18"><a xlink:href="namespace_pz_g.html#ae1aad0c681853d7e47da4cdfccefc102" target="_top" xlink:title="Funkcja pomocnicza, sprawdza czy plik o podanej nazwie jest na dysku.">
<polygon fill="none" stroke="black" points="591.5,-463.5 591.5,-482.5 686.5,-482.5 686.5,-463.5 591.5,-463.5"/>
<text text-anchor="middle" x="639" y="-470.5" font-family="Helvetica,sans-Serif" font-size="10.00">PzG::CzyJestPlik</text>
</a>
</g>
</g>
<!-- Node17&#45;&gt;Node18 -->
<g id="edge22" class="edge">
<title>Node17&#45;&gt;Node18</title>
<path fill="none" stroke="midnightblue" d="M505.23,-462.22C529.68,-464.2 557.36,-466.45 581.08,-468.38"/>
<polygon fill="midnightblue" stroke="midnightblue" points="581.08,-471.89 591.33,-469.21 581.65,-464.91 581.08,-471.89"/>
</g>
<!-- Node20 -->
<g id="node20" class="node">
<title>Node20</title>
<g id="a_node20"><a xlink:href="namespace_pz_g.html#aa010184f31b26bb561b42f22438b821e" target="_top" xlink:title="Funkcja pomocnicza, dopisuje do polecenia wpisy związane z rysowaniem z pliku.">
<polygon fill="none" stroke="black" points="556,-375.5 556,-394.5 722,-394.5 722,-375.5 556,-375.5"/>
<text text-anchor="middle" x="639" y="-382.5" font-family="Helvetica,sans-Serif" font-size="10.00">PzG::DopiszRysowanieZPlikow</text>
</a>
</g>
</g>
<!-- Node19&#45;&gt;Node20 -->
<g id="edge25" class="edge">
<title>Node19&#45;&gt;Node20</title>
<path fill="none" stroke="midnightblue" d="M505.23,-400.5C518.42,-398.96 532.55,-397.31 546.49,-395.68"/>
<polygon fill="midnightblue" stroke="midnightblue" points="547.07,-399.14 556.59,-394.5 546.26,-392.19 547.07,-399.14"/>
</g>
<!-- Node21 -->
<g id="node21" class="node">
<title>Node21</title>
<g id="a_node21"><a xlink:href="namespace_pz_g.html#a7227cb39c785b1c746b6bb5515c0b781" target="_top" xlink:title="Dodaje do listy rysowanych punktów, punkty o różnych rozmiarach.">
<polygon fill="none" stroke="black" points="551,-414 551,-444 727,-444 727,-414 551,-414"/>
<text text-anchor="start" x="559" y="-432" font-family="Helvetica,sans-Serif" font-size="10.00">PzG::DopiszRysowanieZRoznych</text>
<text text-anchor="middle" x="639" y="-421" font-family="Helvetica,sans-Serif" font-size="10.00">Punktow</text>
</a>
</g>
</g>
<!-- Node19&#45;&gt;Node21 -->
<g id="edge26" class="edge">
<title>Node19&#45;&gt;Node21</title>
<path fill="none" stroke="midnightblue" d="M505.23,-414.85C516.64,-416.06 528.74,-417.35 540.82,-418.64"/>
<polygon fill="midnightblue" stroke="midnightblue" points="540.63,-422.14 550.94,-419.72 541.37,-415.18 540.63,-422.14"/>
</g>
<!-- Node22 -->
<g id="node22" class="node">
<title>Node22</title>
<g id="a_node22"><a xlink:href="namespace_pz_g.html#a169c311f0e0b6ffadcd44e91e749f72d" target="_top" xlink:title="Wczytuje z pliku listę punktów.">
<polygon fill="none" stroke="black" points="763,-414 763,-444 908,-444 908,-414 763,-414"/>
<text text-anchor="start" x="771" y="-432" font-family="Helvetica,sans-Serif" font-size="10.00">PzG::WczytajListeRoznych</text>
<text text-anchor="middle" x="835.5" y="-421" font-family="Helvetica,sans-Serif" font-size="10.00">Punktow</text>
</a>
</g>
</g>
<!-- Node21&#45;&gt;Node22 -->
<g id="edge27" class="edge">
<title>Node21&#45;&gt;Node22</title>
<path fill="none" stroke="midnightblue" d="M727.01,-429C735.5,-429 744.09,-429 752.52,-429"/>
<polygon fill="midnightblue" stroke="midnightblue" points="752.71,-432.5 762.71,-429 752.71,-425.5 752.71,-432.5"/>
</g>
<!-- Node23 -->
<g id="node23" class="node">
<title>Node23</title>
<g id="a_node23"><a xlink:href="class_pz_g_1_1_atrybuty_rysowania.html#ab068535b4d2f755c394557d1da72a4eb" target="_top" xlink:title="Zmienia kolor rysowania.">
<polygon fill="none" stroke="black" points="944,-463 944,-493 1081,-493 1081,-463 944,-463"/>
<text text-anchor="start" x="952" y="-481" font-family="Helvetica,sans-Serif" font-size="10.00">PzG::AtrybutyRysowania</text>
<text text-anchor="middle" x="1012.5" y="-470" font-family="Helvetica,sans-Serif" font-size="10.00">::ZmienKolor</text>
</a>
</g>
</g>
<!-- Node22&#45;&gt;Node23 -->
<g id="edge28" class="edge">
<title>Node22&#45;&gt;Node23</title>
<path fill="none" stroke="midnightblue" d="M890.43,-444.1C908.65,-449.2 929.15,-454.94 948.04,-460.23"/>
<polygon fill="midnightblue" stroke="midnightblue" points="947.17,-463.62 957.74,-462.95 949.06,-456.88 947.17,-463.62"/>
</g>
<!-- Node24 -->
<g id="node24" class="node">
<title>Node24</title>
<g id="a_node24"><a xlink:href="class_pz_g_1_1_atrybuty_rysowania.html#af4b140eb03bc10b6fd816fad63f8372e" target="_top" xlink:title="Zmienia rozmiar rysowania.">
<polygon fill="none" stroke="black" points="944,-414 944,-444 1081,-444 1081,-414 944,-414"/>
<text text-anchor="start" x="952" y="-432" font-family="Helvetica,sans-Serif" font-size="10.00">PzG::AtrybutyRysowania</text>
<text text-anchor="middle" x="1012.5" y="-421" font-family="Helvetica,sans-Serif" font-size="10.00">::ZmienRozmiar</text>
</a>
</g>
</g>
<!-- Node22&#45;&gt;Node24 -->
<g id="edge29" class="edge">
<title>Node22&#45;&gt;Node24</title>
<path fill="none" stroke="midnightblue" d="M908.18,-429C916.57,-429 925.16,-429 933.63,-429"/>
<polygon fill="midnightblue" stroke="midnightblue" points="933.87,-432.5 943.87,-429 933.87,-425.5 933.87,-432.5"/>
</g>
<!-- Node25 -->
<g id="node25" class="node">
<title>Node25</title>
<g id="a_node25"><a xlink:href="class_pz_g_1_1_atrybuty_rysowania.html#a2ac97706124b14072715ecf3f07e82b4" target="_top" xlink:title="Zmienia styl rysowania.">
<polygon fill="none" stroke="black" points="944,-365 944,-395 1081,-395 1081,-365 944,-365"/>
<text text-anchor="start" x="952" y="-383" font-family="Helvetica,sans-Serif" font-size="10.00">PzG::AtrybutyRysowania</text>
<text text-anchor="middle" x="1012.5" y="-372" font-family="Helvetica,sans-Serif" font-size="10.00">::ZmienStyl</text>
</a>
</g>
</g>
<!-- Node22&#45;&gt;Node25 -->
<g id="edge30" class="edge">
<title>Node22&#45;&gt;Node25</title>
<path fill="none" stroke="midnightblue" d="M890.43,-413.9C908.65,-408.8 929.15,-403.06 948.04,-397.77"/>
<polygon fill="midnightblue" stroke="midnightblue" points="949.06,-401.12 957.74,-395.05 947.17,-394.38 949.06,-401.12"/>
</g>
<!-- Node27&#45;&gt;Node17 -->
<g id="edge33" class="edge">
<title>Node27&#45;&gt;Node17</title>
<path fill="none" stroke="midnightblue" d="M264.27,-341.36C283.44,-364.4 322.72,-407.89 365,-433 367.85,-434.69 370.82,-436.28 373.88,-437.76"/>
<polygon fill="midnightblue" stroke="midnightblue" points="372.7,-441.07 383.26,-441.93 375.54,-434.67 372.7,-441.07"/>
</g>
<!-- Node27&#45;&gt;Node19 -->
<g id="edge44" class="edge">
<title>Node27&#45;&gt;Node19</title>
<path fill="none" stroke="midnightblue" d="M279.35,-341.17C301.92,-353.35 335,-370.44 365,-383 370.37,-385.25 376.02,-387.44 381.7,-389.54"/>
<polygon fill="midnightblue" stroke="midnightblue" points="380.66,-392.89 391.26,-392.98 383.03,-386.3 380.66,-392.89"/>
</g>
<!-- Node27&#45;&gt;Node26 -->
<g id="edge46" class="edge">
<title>Node27&#45;&gt;Node26</title>
<path fill="none" stroke="midnightblue" d="M262.84,-341.1C290.8,-380 363.25,-480.73 365,-482 367.05,-483.49 369.21,-484.9 371.43,-486.22"/>
<polygon fill="midnightblue" stroke="midnightblue" points="369.84,-489.33 380.32,-490.9 373.1,-483.14 369.84,-489.33"/>
</g>
<!-- Node28 -->
<g id="node28" class="node">
<title>Node28</title>
<g id="a_node28"><a xlink:href="class_prism.html#a764c6940e4fb65303981e8b877b28561" target="_top" xlink:title="Metoda wypisania odpowiednich wierzcholkow do pliku zgodnie z zaproponowanym sposobem zadaniu dron">
<polygon fill="none" stroke="black" points="576.5,-337.5 576.5,-356.5 701.5,-356.5 701.5,-337.5 576.5,-337.5"/>
<text text-anchor="middle" x="639" y="-344.5" font-family="Helvetica,sans-Serif" font-size="10.00">Prism::print_prism_3D</text>
</a>
</g>
</g>
<!-- Node27&#45;&gt;Node28 -->
<g id="edge34" class="edge">
<title>Node27&#45;&gt;Node28</title>
<path fill="none" stroke="midnightblue" d="M307.72,-329.03C375.81,-332.74 491.18,-339.01 565.96,-343.08"/>
<polygon fill="midnightblue" stroke="midnightblue" points="566.06,-346.59 576.23,-343.64 566.44,-339.6 566.06,-346.59"/>
</g>
<!-- Node29 -->
<g id="node29" class="node">
<title>Node29</title>
<g id="a_node29"><a xlink:href="class_menu__cub.html#a68b8aabf8a980c77409fb40b7ee68eb0" target="_top" xlink:title=" ">
<polygon fill="none" stroke="black" points="376,-354.5 376,-373.5 504,-373.5 504,-354.5 376,-354.5"/>
<text text-anchor="middle" x="440" y="-361.5" font-family="Helvetica,sans-Serif" font-size="10.00">Menu_cub::PrismToFile</text>
</a>
</g>
</g>
<!-- Node27&#45;&gt;Node29 -->
<g id="edge36" class="edge">
<title>Node27&#45;&gt;Node29</title>
<path fill="none" stroke="midnightblue" d="M307.6,-337.3C331.15,-342.08 358.56,-347.65 382.24,-352.47"/>
<polygon fill="midnightblue" stroke="midnightblue" points="381.64,-355.91 392.13,-354.48 383.03,-349.06 381.64,-355.91"/>
</g>
<!-- Node30 -->
<g id="node30" class="node">
<title>Node30</title>
<g id="a_node30"><a xlink:href="class_prism.html#a22c5467db5d960bddbaf9a52f55c55cb" target="_top" xlink:title="Metoda obracajaca graniastoslup o zadany kat w 3D wokol srodka figury">
<polygon fill="none" stroke="black" points="365,-240.5 365,-259.5 515,-259.5 515,-240.5 365,-240.5"/>
<text text-anchor="middle" x="440" y="-247.5" font-family="Helvetica,sans-Serif" font-size="10.00">Prism::rotation_around_cen</text>
</a>
</g>
</g>
<!-- Node27&#45;&gt;Node30 -->
<g id="edge38" class="edge">
<title>Node27&#45;&gt;Node30</title>
<path fill="none" stroke="midnightblue" d="M282.27,-310.89C304.79,-299.94 336.44,-285.16 365,-274 375.2,-270.01 386.36,-266.15 396.86,-262.72"/>
<polygon fill="midnightblue" stroke="midnightblue" points="398.2,-265.97 406.66,-259.58 396.06,-259.3 398.2,-265.97"/>
</g>
<!-- Node32 -->
<g id="node32" class="node">
<title>Node32</title>
<g id="a_node32"><a xlink:href="class_prism.html#ade146d341c0468030f8c1258b7fe1041" target="_top" xlink:title="Metoda przesuwajaca graniastoslup o zadany wektor w 3D">
<polygon fill="none" stroke="black" points="784,-240.5 784,-259.5 887,-259.5 887,-240.5 784,-240.5"/>
<text text-anchor="middle" x="835.5" y="-247.5" font-family="Helvetica,sans-Serif" font-size="10.00">Prism::translation</text>
</a>
</g>
</g>
<!-- Node27&#45;&gt;Node32 -->
<g id="edge45" class="edge">
<title>Node27&#45;&gt;Node32</title>
<path fill="none" stroke="midnightblue" d="M307.71,-320.33C396.58,-311.05 575.83,-291.41 727,-269 742.3,-266.73 758.77,-263.98 774.11,-261.28"/>
<polygon fill="midnightblue" stroke="midnightblue" points="774.78,-264.72 784.01,-259.52 773.55,-257.83 774.78,-264.72"/>
</g>
<!-- Node34 -->
<g id="node34" class="node">
<title>Node34</title>
<g id="a_node34"><a xlink:href="class_matrix.html#a4161a82fb401e474052c21b25a06a5ba" target="_top" xlink:title=" ">
<polygon fill="none" stroke="black" points="375,-202.5 375,-221.5 505,-221.5 505,-202.5 375,-202.5"/>
<text text-anchor="middle" x="440" y="-209.5" font-family="Helvetica,sans-Serif" font-size="10.00">Matrix::rotation_matrix</text>
</a>
</g>
</g>
<!-- Node27&#45;&gt;Node34 -->
<g id="edge43" class="edge">
<title>Node27&#45;&gt;Node34</title>
<path fill="none" stroke="midnightblue" d="M265.78,-310.73C285.65,-289.65 324.43,-251.87 365,-231 369.53,-228.67 374.36,-226.61 379.31,-224.8"/>
<polygon fill="midnightblue" stroke="midnightblue" points="380.53,-228.08 388.91,-221.6 378.32,-221.44 380.53,-228.08"/>
</g>
<!-- Node28&#45;&gt;Node16 -->
<g id="edge35" class="edge">
<title>Node28&#45;&gt;Node16</title>
<path fill="none" stroke="midnightblue" d="M701.52,-352.57C710.77,-355.54 719.66,-359.83 727,-366 759.35,-393.18 736.61,-420.99 763,-454 774.56,-468.46 791.38,-480.51 805.8,-489.16"/>
<polygon fill="midnightblue" stroke="midnightblue" points="804.44,-492.41 814.86,-494.34 807.91,-486.33 804.44,-492.41"/>
</g>
<!-- Node29&#45;&gt;Node28 -->
<g id="edge37" class="edge">
<title>Node29&#45;&gt;Node28</title>
<path fill="none" stroke="midnightblue" d="M504.14,-358.55C523.88,-356.85 545.8,-354.96 566.09,-353.21"/>
<polygon fill="midnightblue" stroke="midnightblue" points="566.56,-356.68 576.22,-352.33 565.96,-349.7 566.56,-356.68"/>
</g>
<!-- Node31 -->
<g id="node31" class="node">
<title>Node31</title>
<g id="a_node31"><a xlink:href="class_matrix.html#ad6df418144dfdc3236f990dc3fb0a50a" target="_top" xlink:title=" ">
<polygon fill="none" stroke="black" points="579.5,-153 579.5,-183 698.5,-183 698.5,-153 579.5,-153"/>
<text text-anchor="start" x="587.5" y="-171" font-family="Helvetica,sans-Serif" font-size="10.00">Matrix::apply_matrix</text>
<text text-anchor="middle" x="639" y="-160" font-family="Helvetica,sans-Serif" font-size="10.00">_to_rotation</text>
</a>
</g>
</g>
<!-- Node30&#45;&gt;Node31 -->
<g id="edge39" class="edge">
<title>Node30&#45;&gt;Node31</title>
<path fill="none" stroke="midnightblue" d="M492.02,-240.43C499.96,-237.95 507.89,-234.86 515,-231 534.08,-220.66 532.35,-209.1 551,-198 558.03,-193.82 565.72,-190.11 573.54,-186.85"/>
<polygon fill="midnightblue" stroke="midnightblue" points="575.06,-190.01 583.09,-183.1 572.51,-183.49 575.06,-190.01"/>
</g>
<!-- Node30&#45;&gt;Node32 -->
<g id="edge40" class="edge">
<title>Node30&#45;&gt;Node32</title>
<path fill="none" stroke="midnightblue" d="M485.73,-240.49C505.62,-236.72 529.37,-232.85 551,-231 628.94,-224.32 649.08,-224.17 727,-231 744.68,-232.55 763.8,-235.51 780.95,-238.64"/>
<polygon fill="midnightblue" stroke="midnightblue" points="780.32,-242.08 790.8,-240.49 781.62,-235.2 780.32,-242.08"/>
</g>
<!-- Node33 -->
<g id="node33" class="node">
<title>Node33</title>
<g id="a_node33"><a xlink:href="class_prism.html#afed2c26932d5cb152fd620d2acbfbc3e" target="_top" xlink:title="Metoda przesuwajaca graniastoslup do srodka ukladu wspolrzednych (tak, ze srodek graniastoslupa pokry...">
<polygon fill="none" stroke="black" points="573.5,-240.5 573.5,-259.5 704.5,-259.5 704.5,-240.5 573.5,-240.5"/>
<text text-anchor="middle" x="639" y="-247.5" font-family="Helvetica,sans-Serif" font-size="10.00">Prism::translation_to_O</text>
</a>
</g>
</g>
<!-- Node30&#45;&gt;Node33 -->
<g id="edge41" class="edge">
<title>Node30&#45;&gt;Node33</title>
<path fill="none" stroke="midnightblue" d="M515.2,-250C530.85,-250 547.39,-250 563.07,-250"/>
<polygon fill="midnightblue" stroke="midnightblue" points="563.24,-253.5 573.24,-250 563.24,-246.5 563.24,-253.5"/>
</g>
<!-- Node33&#45;&gt;Node32 -->
<g id="edge42" class="edge">
<title>Node33&#45;&gt;Node32</title>
<path fill="none" stroke="midnightblue" d="M704.77,-250C726.99,-250 751.78,-250 773.68,-250"/>
<polygon fill="midnightblue" stroke="midnightblue" points="773.85,-253.5 783.85,-250 773.85,-246.5 773.85,-253.5"/>
</g>
<!-- Node36&#45;&gt;Node31 -->
<g id="edge49" class="edge">
<title>Node36&#45;&gt;Node31</title>
<path fill="none" stroke="midnightblue" d="M298.56,-173.28C365.92,-172.23 491,-170.28 569.07,-169.07"/>
<polygon fill="midnightblue" stroke="midnightblue" points="569.35,-172.57 579.29,-168.91 569.24,-165.57 569.35,-172.57"/>
</g>
<!-- Node37&#45;&gt;Node31 -->
<g id="edge51" class="edge">
<title>Node37&#45;&gt;Node31</title>
<path fill="none" stroke="midnightblue" d="M329.19,-142.4C399.29,-148.21 501.74,-156.7 569.13,-162.29"/>
<polygon fill="midnightblue" stroke="midnightblue" points="568.97,-165.79 579.22,-163.13 569.55,-158.81 568.97,-165.79"/>
</g>
<!-- Node37&#45;&gt;Node38 -->
<g id="edge52" class="edge">
<title>Node37&#45;&gt;Node38</title>
<path fill="none" stroke="midnightblue" d="M294.16,-126.5C305.88,-122.9 318.32,-118.14 329,-112 347.81,-101.18 345.92,-89.34 365,-79 369.22,-76.71 373.73,-74.69 378.36,-72.91"/>
<polygon fill="midnightblue" stroke="midnightblue" points="379.68,-76.15 387.98,-69.57 377.39,-69.54 379.68,-76.15"/>
</g>
<!-- Node39 -->
<g id="node39" class="node">
<title>Node39</title>
<g id="a_node39"><a xlink:href="class_cuboid.html#a42bdce7c214e759cb6ea94d4f547a5b9" target="_top" xlink:title="Metoda przesuwajaca prostopadloscian do (0,0,0)">
<polygon fill="none" stroke="black" points="371.5,-88.5 371.5,-107.5 508.5,-107.5 508.5,-88.5 371.5,-88.5"/>
<text text-anchor="middle" x="440" y="-95.5" font-family="Helvetica,sans-Serif" font-size="10.00">Cuboid::translation_to_O</text>
</a>
</g>
</g>
<!-- Node37&#45;&gt;Node39 -->
<g id="edge53" class="edge">
<title>Node37&#45;&gt;Node39</title>
<path fill="none" stroke="midnightblue" d="M299.19,-126.41C324.42,-121.28 355.67,-114.93 382.23,-109.54"/>
<polygon fill="midnightblue" stroke="midnightblue" points="383.05,-112.94 392.15,-107.52 381.65,-106.08 383.05,-112.94"/>
</g>
<!-- Node41&#45;&gt;Node34 -->
<g id="edge56" class="edge">
<title>Node41&#45;&gt;Node34</title>
<path fill="none" stroke="midnightblue" d="M324.57,-212C337.61,-212 351.22,-212 364.33,-212"/>
<polygon fill="midnightblue" stroke="midnightblue" points="364.7,-215.5 374.7,-212 364.7,-208.5 364.7,-215.5"/>
</g>
</g>
</svg>
