<?xml version="1.0" encoding="UTF-8" standalone="no"?>
<!DOCTYPE svg PUBLIC "-//W3C//DTD SVG 1.1//EN"
 "http://www.w3.org/Graphics/SVG/1.1/DTD/svg11.dtd">
<!-- Generated by graphviz version 2.43.0 (0)
 -->
<!-- Title: Menu_cub::Print_to_gnuplot Pages: 1 -->
<svg width="854pt" height="252pt"
 viewBox="0.00 0.00 854.00 251.50" xmlns="http://www.w3.org/2000/svg" xmlns:xlink="http://www.w3.org/1999/xlink">
<g id="graph0" class="graph" transform="scale(1 1) rotate(0) translate(4 247.5)">
<title>Menu_cub::Print_to_gnuplot</title>
<!-- Node1 -->
<g id="node1" class="node">
<title>Node1</title>
<g id="a_node1"><a xlink:title="Wyswietla prostopadloscian w GNUplocie Argumenty:">
<polygon fill="#bfbfbf" stroke="black" points="0,-136.5 0,-166.5 110,-166.5 110,-136.5 0,-136.5"/>
<text text-anchor="start" x="8" y="-154.5" font-family="Helvetica,sans-Serif" font-size="10.00">Menu_cub::Print_to</text>
<text text-anchor="middle" x="55" y="-143.5" font-family="Helvetica,sans-Serif" font-size="10.00">_gnuplot</text>
</a>
</g>
</g>
<!-- Node2 -->
<g id="node2" class="node">
<title>Node2</title>
<g id="a_node2"><a xlink:href="class_menu__cub.html#ada6a6762e5cc6f20628ecb5bd57944c7" target="_top" xlink:title=" ">
<polygon fill="none" stroke="black" points="146,-224 146,-243 280,-243 280,-224 146,-224"/>
<text text-anchor="middle" x="213" y="-231" font-family="Helvetica,sans-Serif" font-size="10.00">Menu_cub::CuboidToFile</text>
</a>
</g>
</g>
<!-- Node1&#45;&gt;Node2 -->
<g id="edge1" class="edge">
<title>Node1&#45;&gt;Node2</title>
<path fill="none" stroke="midnightblue" d="M76.67,-166.72C94.42,-179.32 121.02,-197.11 146,-209.5 154.09,-213.52 163.03,-217.22 171.65,-220.45"/>
<polygon fill="midnightblue" stroke="midnightblue" points="170.58,-223.79 181.18,-223.9 172.96,-217.21 170.58,-223.79"/>
</g>
<!-- Node3 -->
<g id="node3" class="node">
<title>Node3</title>
<g id="a_node3"><a xlink:href="class_cuboid.html#a12a97376443b1a15ae8342c1c75b3e1e" target="_top" xlink:title="Metoda wypisania odpowiednich wierzcholkow do pliku zgodnie z zaproponowanym sposobem zadaniu dron">
<polygon fill="none" stroke="black" points="336.5,-205 336.5,-224 471.5,-224 471.5,-205 336.5,-205"/>
<text text-anchor="middle" x="404" y="-212" font-family="Helvetica,sans-Serif" font-size="10.00">Cuboid::print_cuboid_3D</text>
</a>
</g>
</g>
<!-- Node1&#45;&gt;Node3 -->
<g id="edge6" class="edge">
<title>Node1&#45;&gt;Node3</title>
<path fill="none" stroke="midnightblue" d="M106.18,-166.63C119.08,-170.19 132.99,-173.74 146,-176.5 206.08,-189.24 274.96,-199.17 326.28,-205.69"/>
<polygon fill="midnightblue" stroke="midnightblue" points="325.94,-209.17 336.3,-206.94 326.82,-202.23 325.94,-209.17"/>
</g>
<!-- Node5 -->
<g id="node5" class="node">
<title>Node5</title>
<g id="a_node5"><a xlink:href="class_pz_g_1_1_lacze_do_g_n_u_plota.html#aa815ce8ec16e12fc246cf422e562869e" target="_top" xlink:title="Dodaje nazwę pliku.">
<polygon fill="none" stroke="black" points="148,-136.5 148,-166.5 278,-166.5 278,-136.5 148,-136.5"/>
<text text-anchor="start" x="156" y="-154.5" font-family="Helvetica,sans-Serif" font-size="10.00">PzG::LaczeDoGNUPlota</text>
<text text-anchor="middle" x="213" y="-143.5" font-family="Helvetica,sans-Serif" font-size="10.00">::DodajNazwePliku</text>
</a>
</g>
</g>
<!-- Node1&#45;&gt;Node5 -->
<g id="edge4" class="edge">
<title>Node1&#45;&gt;Node5</title>
<path fill="none" stroke="midnightblue" d="M110.12,-151.5C119.04,-151.5 128.42,-151.5 137.73,-151.5"/>
<polygon fill="midnightblue" stroke="midnightblue" points="137.78,-155 147.78,-151.5 137.78,-148 137.78,-155"/>
</g>
<!-- Node7 -->
<g id="node7" class="node">
<title>Node7</title>
<g id="a_node7"><a xlink:href="class_pz_g_1_1_lacze_do_g_n_u_plota.html#a065f5b8402737cc62b0ad4f66d028335" target="_top" xlink:title="Generuje polecenie rysowania i przesyła je do gnuplota.">
<polygon fill="none" stroke="black" points="148,-87.5 148,-117.5 278,-117.5 278,-87.5 148,-87.5"/>
<text text-anchor="start" x="156" y="-105.5" font-family="Helvetica,sans-Serif" font-size="10.00">PzG::LaczeDoGNUPlota</text>
<text text-anchor="middle" x="213" y="-94.5" font-family="Helvetica,sans-Serif" font-size="10.00">::Rysuj</text>
</a>
</g>
</g>
<!-- Node1&#45;&gt;Node7 -->
<g id="edge7" class="edge">
<title>Node1&#45;&gt;Node7</title>
<path fill="none" stroke="midnightblue" d="M104.08,-136.4C120.02,-131.39 137.92,-125.77 154.5,-120.56"/>
<polygon fill="midnightblue" stroke="midnightblue" points="155.59,-123.89 164.08,-117.55 153.49,-117.21 155.59,-123.89"/>
</g>
<!-- Node14 -->
<g id="node14" class="node">
<title>Node14</title>
<g id="a_node14"><a xlink:href="class_pz_g_1_1_lacze_do_g_n_u_plota.html#ae92c65357bf682478cc68f77885b61d8" target="_top" xlink:title="Zmienia tryb rysowania.">
<polygon fill="none" stroke="black" points="148,-38.5 148,-68.5 278,-68.5 278,-38.5 148,-38.5"/>
<text text-anchor="start" x="156" y="-56.5" font-family="Helvetica,sans-Serif" font-size="10.00">PzG::LaczeDoGNUPlota</text>
<text text-anchor="middle" x="213" y="-45.5" font-family="Helvetica,sans-Serif" font-size="10.00">::ZmienTrybRys</text>
</a>
</g>
</g>
<!-- Node1&#45;&gt;Node14 -->
<g id="edge14" class="edge">
<title>Node1&#45;&gt;Node14</title>
<path fill="none" stroke="midnightblue" d="M71.43,-136.36C88.5,-120.28 117.4,-94.95 146,-78.5 149.59,-76.44 153.37,-74.49 157.25,-72.65"/>
<polygon fill="midnightblue" stroke="midnightblue" points="158.67,-75.85 166.38,-68.58 155.83,-69.45 158.67,-75.85"/>
</g>
<!-- Node2&#45;&gt;Node3 -->
<g id="edge2" class="edge">
<title>Node2&#45;&gt;Node3</title>
<path fill="none" stroke="midnightblue" d="M280.1,-226.85C295.04,-225.35 311.01,-223.75 326.34,-222.21"/>
<polygon fill="midnightblue" stroke="midnightblue" points="326.7,-225.69 336.3,-221.21 326,-218.72 326.7,-225.69"/>
</g>
<!-- Node4 -->
<g id="node4" class="node">
<title>Node4</title>
<g id="a_node4"><a xlink:href="class_vector.html#ab2bb1182cee2389eda163fb7b767f36d" target="_top" xlink:title="Zwraca wektor do tablicy o rozmiarze SIZE &#160;&#160;Argumenty:">
<polygon fill="none" stroke="black" points="554.5,-205 554.5,-224 646.5,-224 646.5,-205 554.5,-205"/>
<text text-anchor="middle" x="600.5" y="-212" font-family="Helvetica,sans-Serif" font-size="10.00">Vector::get_vec</text>
</a>
</g>
</g>
<!-- Node3&#45;&gt;Node4 -->
<g id="edge3" class="edge">
<title>Node3&#45;&gt;Node4</title>
<path fill="none" stroke="midnightblue" d="M471.66,-214.5C495.31,-214.5 521.65,-214.5 544.24,-214.5"/>
<polygon fill="midnightblue" stroke="midnightblue" points="544.34,-218 554.34,-214.5 544.34,-211 544.34,-218"/>
</g>
<!-- Node6 -->
<g id="node6" class="node">
<title>Node6</title>
<g id="a_node6"><a xlink:href="namespace_pz_g.html#ae1aad0c681853d7e47da4cdfccefc102" target="_top" xlink:title="Funkcja pomocnicza, sprawdza czy plik o podanej nazwie jest na dysku.">
<polygon fill="none" stroke="black" points="356.5,-142 356.5,-161 451.5,-161 451.5,-142 356.5,-142"/>
<text text-anchor="middle" x="404" y="-149" font-family="Helvetica,sans-Serif" font-size="10.00">PzG::CzyJestPlik</text>
</a>
</g>
</g>
<!-- Node5&#45;&gt;Node6 -->
<g id="edge5" class="edge">
<title>Node5&#45;&gt;Node6</title>
<path fill="none" stroke="midnightblue" d="M278.25,-151.5C300.23,-151.5 324.65,-151.5 346.02,-151.5"/>
<polygon fill="midnightblue" stroke="midnightblue" points="346.24,-155 356.24,-151.5 346.24,-148 346.24,-155"/>
</g>
<!-- Node8 -->
<g id="node8" class="node">
<title>Node8</title>
<g id="a_node8"><a xlink:href="namespace_pz_g.html#aa010184f31b26bb561b42f22438b821e" target="_top" xlink:title="Funkcja pomocnicza, dopisuje do polecenia wpisy związane z rysowaniem z pliku.">
<polygon fill="none" stroke="black" points="321,-99 321,-118 487,-118 487,-99 321,-99"/>
<text text-anchor="middle" x="404" y="-106" font-family="Helvetica,sans-Serif" font-size="10.00">PzG::DopiszRysowanieZPlikow</text>
</a>
</g>
</g>
<!-- Node7&#45;&gt;Node8 -->
<g id="edge8" class="edge">
<title>Node7&#45;&gt;Node8</title>
<path fill="none" stroke="midnightblue" d="M278.25,-104.54C288.74,-104.87 299.78,-105.22 310.78,-105.57"/>
<polygon fill="midnightblue" stroke="midnightblue" points="310.75,-109.07 320.86,-105.89 310.97,-102.08 310.75,-109.07"/>
</g>
<!-- Node9 -->
<g id="node9" class="node">
<title>Node9</title>
<g id="a_node9"><a xlink:href="namespace_pz_g.html#a7227cb39c785b1c746b6bb5515c0b781" target="_top" xlink:title="Dodaje do listy rysowanych punktów, punkty o różnych rozmiarach.">
<polygon fill="none" stroke="black" points="316,-49.5 316,-79.5 492,-79.5 492,-49.5 316,-49.5"/>
<text text-anchor="start" x="324" y="-67.5" font-family="Helvetica,sans-Serif" font-size="10.00">PzG::DopiszRysowanieZRoznych</text>
<text text-anchor="middle" x="404" y="-56.5" font-family="Helvetica,sans-Serif" font-size="10.00">Punktow</text>
</a>
</g>
</g>
<!-- Node7&#45;&gt;Node9 -->
<g id="edge9" class="edge">
<title>Node7&#45;&gt;Node9</title>
<path fill="none" stroke="midnightblue" d="M278.25,-89.58C291.04,-87.01 304.66,-84.27 318.02,-81.59"/>
<polygon fill="midnightblue" stroke="midnightblue" points="319.06,-84.95 328.17,-79.54 317.68,-78.08 319.06,-84.95"/>
</g>
<!-- Node10 -->
<g id="node10" class="node">
<title>Node10</title>
<g id="a_node10"><a xlink:href="namespace_pz_g.html#a169c311f0e0b6ffadcd44e91e749f72d" target="_top" xlink:title="Wczytuje z pliku listę punktów.">
<polygon fill="none" stroke="black" points="528,-49.5 528,-79.5 673,-79.5 673,-49.5 528,-49.5"/>
<text text-anchor="start" x="536" y="-67.5" font-family="Helvetica,sans-Serif" font-size="10.00">PzG::WczytajListeRoznych</text>
<text text-anchor="middle" x="600.5" y="-56.5" font-family="Helvetica,sans-Serif" font-size="10.00">Punktow</text>
</a>
</g>
</g>
<!-- Node9&#45;&gt;Node10 -->
<g id="edge10" class="edge">
<title>Node9&#45;&gt;Node10</title>
<path fill="none" stroke="midnightblue" d="M492.01,-64.5C500.5,-64.5 509.09,-64.5 517.52,-64.5"/>
<polygon fill="midnightblue" stroke="midnightblue" points="517.71,-68 527.71,-64.5 517.71,-61 517.71,-68"/>
</g>
<!-- Node11 -->
<g id="node11" class="node">
<title>Node11</title>
<g id="a_node11"><a xlink:href="class_pz_g_1_1_atrybuty_rysowania.html#ab068535b4d2f755c394557d1da72a4eb" target="_top" xlink:title="Zmienia kolor rysowania.">
<polygon fill="none" stroke="black" points="709,-98.5 709,-128.5 846,-128.5 846,-98.5 709,-98.5"/>
<text text-anchor="start" x="717" y="-116.5" font-family="Helvetica,sans-Serif" font-size="10.00">PzG::AtrybutyRysowania</text>
<text text-anchor="middle" x="777.5" y="-105.5" font-family="Helvetica,sans-Serif" font-size="10.00">::ZmienKolor</text>
</a>
</g>
</g>
<!-- Node10&#45;&gt;Node11 -->
<g id="edge11" class="edge">
<title>Node10&#45;&gt;Node11</title>
<path fill="none" stroke="midnightblue" d="M655.43,-79.6C673.65,-84.7 694.15,-90.44 713.04,-95.73"/>
<polygon fill="midnightblue" stroke="midnightblue" points="712.17,-99.12 722.74,-98.45 714.06,-92.38 712.17,-99.12"/>
</g>
<!-- Node12 -->
<g id="node12" class="node">
<title>Node12</title>
<g id="a_node12"><a xlink:href="class_pz_g_1_1_atrybuty_rysowania.html#af4b140eb03bc10b6fd816fad63f8372e" target="_top" xlink:title="Zmienia rozmiar rysowania.">
<polygon fill="none" stroke="black" points="709,-49.5 709,-79.5 846,-79.5 846,-49.5 709,-49.5"/>
<text text-anchor="start" x="717" y="-67.5" font-family="Helvetica,sans-Serif" font-size="10.00">PzG::AtrybutyRysowania</text>
<text text-anchor="middle" x="777.5" y="-56.5" font-family="Helvetica,sans-Serif" font-size="10.00">::ZmienRozmiar</text>
</a>
</g>
</g>
<!-- Node10&#45;&gt;Node12 -->
<g id="edge12" class="edge">
<title>Node10&#45;&gt;Node12</title>
<path fill="none" stroke="midnightblue" d="M673.18,-64.5C681.57,-64.5 690.16,-64.5 698.63,-64.5"/>
<polygon fill="midnightblue" stroke="midnightblue" points="698.87,-68 708.87,-64.5 698.87,-61 698.87,-68"/>
</g>
<!-- Node13 -->
<g id="node13" class="node">
<title>Node13</title>
<g id="a_node13"><a xlink:href="class_pz_g_1_1_atrybuty_rysowania.html#a2ac97706124b14072715ecf3f07e82b4" target="_top" xlink:title="Zmienia styl rysowania.">
<polygon fill="none" stroke="black" points="709,-0.5 709,-30.5 846,-30.5 846,-0.5 709,-0.5"/>
<text text-anchor="start" x="717" y="-18.5" font-family="Helvetica,sans-Serif" font-size="10.00">PzG::AtrybutyRysowania</text>
<text text-anchor="middle" x="777.5" y="-7.5" font-family="Helvetica,sans-Serif" font-size="10.00">::ZmienStyl</text>
</a>
</g>
</g>
<!-- Node10&#45;&gt;Node13 -->
<g id="edge13" class="edge">
<title>Node10&#45;&gt;Node13</title>
<path fill="none" stroke="midnightblue" d="M655.43,-49.4C673.65,-44.3 694.15,-38.56 713.04,-33.27"/>
<polygon fill="midnightblue" stroke="midnightblue" points="714.06,-36.62 722.74,-30.55 712.17,-29.88 714.06,-36.62"/>
</g>
</g>
</svg>
