<?xml version="1.0" encoding="UTF-8" standalone="no"?>
<!DOCTYPE svg PUBLIC "-//W3C//DTD SVG 1.1//EN"
 "http://www.w3.org/Graphics/SVG/1.1/DTD/svg11.dtd">
<!-- Generated by graphviz version 2.43.0 (0)
 -->
<!-- Title: Drone::Drone Pages: 1 -->
<svg width="781pt" height="280pt"
 viewBox="0.00 0.00 781.00 279.50" xmlns="http://www.w3.org/2000/svg" xmlns:xlink="http://www.w3.org/1999/xlink">
<g id="graph0" class="graph" transform="scale(1 1) rotate(0) translate(4 275.5)">
<title>Drone::Drone</title>
<!-- Node1 -->
<g id="node1" class="node">
<title>Node1</title>
<g id="a_node1"><a xlink:title="Konstruktor bezparametryczny klasy Drone. Powstaly dron jest skonstruowany z bezparametrycznych prost...">
<polygon fill="#bfbfbf" stroke="black" points="0,-132 0,-151 81,-151 81,-132 0,-132"/>
<text text-anchor="middle" x="40.5" y="-139" font-family="Helvetica,sans-Serif" font-size="10.00">Drone::Drone</text>
</a>
</g>
</g>
<!-- Node2 -->
<g id="node2" class="node">
<title>Node2</title>
<g id="a_node2"><a xlink:href="class_drone.html#ad42bc54902df967b94717617aca1a974" target="_top" xlink:title="Metoda obracajaca dron o zadany kat w 3D wokol srodka figury">
<polygon fill="none" stroke="black" points="117,-113 117,-132 269,-132 269,-113 117,-113"/>
<text text-anchor="middle" x="193" y="-120" font-family="Helvetica,sans-Serif" font-size="10.00">Drone::rotation_around_cen</text>
</a>
</g>
</g>
<!-- Node1&#45;&gt;Node2 -->
<g id="edge1" class="edge">
<title>Node1&#45;&gt;Node2</title>
<path fill="none" stroke="midnightblue" d="M81.04,-136.51C89.08,-135.49 97.82,-134.39 106.76,-133.26"/>
<polygon fill="midnightblue" stroke="midnightblue" points="107.42,-136.71 116.9,-131.98 106.54,-129.76 107.42,-136.71"/>
</g>
<!-- Node10 -->
<g id="node10" class="node">
<title>Node10</title>
<g id="a_node10"><a xlink:href="class_drone.html#aea963b77f42c204504542a3d9190d762" target="_top" xlink:title="Metoda uzywana przy konstruowania drona Ustawia rotory w ten sposob, ze srodek ich dolnej podstawy je...">
<polygon fill="none" stroke="black" points="325.5,-41.5 325.5,-71.5 440.5,-71.5 440.5,-41.5 325.5,-41.5"/>
<text text-anchor="start" x="333.5" y="-59.5" font-family="Helvetica,sans-Serif" font-size="10.00">Drone::set_rotors_in</text>
<text text-anchor="middle" x="383" y="-48.5" font-family="Helvetica,sans-Serif" font-size="10.00">_place</text>
</a>
</g>
</g>
<!-- Node1&#45;&gt;Node10 -->
<g id="edge22" class="edge">
<title>Node1&#45;&gt;Node10</title>
<path fill="none" stroke="midnightblue" d="M57.12,-131.94C71.99,-123.25 95.28,-110.72 117,-103.5 182.5,-81.73 260.65,-69.43 315.04,-62.93"/>
<polygon fill="midnightblue" stroke="midnightblue" points="315.72,-66.37 325.25,-61.74 314.91,-59.42 315.72,-66.37"/>
</g>
<!-- Node13 -->
<g id="node13" class="node">
<title>Node13</title>
<g id="a_node13"><a xlink:href="class_matrix.html#a4161a82fb401e474052c21b25a06a5ba" target="_top" xlink:title=" ">
<polygon fill="none" stroke="black" points="128,-151 128,-170 258,-170 258,-151 128,-151"/>
<text text-anchor="middle" x="193" y="-158" font-family="Helvetica,sans-Serif" font-size="10.00">Matrix::rotation_matrix</text>
</a>
</g>
</g>
<!-- Node1&#45;&gt;Node13 -->
<g id="edge15" class="edge">
<title>Node1&#45;&gt;Node13</title>
<path fill="none" stroke="midnightblue" d="M81.04,-146.49C92.38,-147.92 105.13,-149.53 117.83,-151.14"/>
<polygon fill="midnightblue" stroke="midnightblue" points="117.63,-154.64 127.99,-152.42 118.5,-147.69 117.63,-154.64"/>
</g>
<!-- Node14 -->
<g id="node14" class="node">
<title>Node14</title>
<g id="a_node14"><a xlink:href="class_cuboid.html#a7ea89af123502b41ef349f4aedb93b5e" target="_top" xlink:title="Metoda skalujaca o wektor scale bedacy czlonkiem klasy block">
<polygon fill="none" stroke="black" points="141,-189 141,-208 245,-208 245,-189 141,-189"/>
<text text-anchor="middle" x="193" y="-196" font-family="Helvetica,sans-Serif" font-size="10.00">Cuboid::scale_cub</text>
</a>
</g>
</g>
<!-- Node1&#45;&gt;Node14 -->
<g id="edge16" class="edge">
<title>Node1&#45;&gt;Node14</title>
<path fill="none" stroke="midnightblue" d="M57.82,-151.03C72.81,-159.45 95.83,-171.6 117,-179.5 123.51,-181.93 130.45,-184.15 137.39,-186.16"/>
<polygon fill="midnightblue" stroke="midnightblue" points="136.92,-189.66 147.49,-188.93 138.77,-182.91 136.92,-189.66"/>
</g>
<!-- Node16 -->
<g id="node16" class="node">
<title>Node16</title>
<g id="a_node16"><a xlink:href="class_prism.html#a07f15c416c9f9c54390bb8737b441a35" target="_top" xlink:title="Metoda skalujaca o wektor scale bedacy czlonkiem klasy block">
<polygon fill="none" stroke="black" points="146,-227 146,-246 240,-246 240,-227 146,-227"/>
<text text-anchor="middle" x="193" y="-234" font-family="Helvetica,sans-Serif" font-size="10.00">Prism::scale_pri</text>
</a>
</g>
</g>
<!-- Node1&#45;&gt;Node16 -->
<g id="edge19" class="edge">
<title>Node1&#45;&gt;Node16</title>
<path fill="none" stroke="midnightblue" d="M48.22,-151.07C60.15,-167.31 86.63,-200.17 117,-217.5 122.88,-220.85 129.35,-223.62 135.95,-225.91"/>
<polygon fill="midnightblue" stroke="midnightblue" points="135.07,-229.3 145.66,-228.92 137.15,-222.62 135.07,-229.3"/>
</g>
<!-- Node17 -->
<g id="node17" class="node">
<title>Node17</title>
<g id="a_node17"><a xlink:href="class_block.html#adb6acd13e2ab79cf7e4733ca2d6ae166" target="_top" xlink:title="Metoda zapisujaca do klasy wektor reprezentujacy skale">
<polygon fill="none" stroke="black" points="145.5,-37 145.5,-56 240.5,-56 240.5,-37 145.5,-37"/>
<text text-anchor="middle" x="193" y="-44" font-family="Helvetica,sans-Serif" font-size="10.00">Block::set_scale</text>
</a>
</g>
</g>
<!-- Node1&#45;&gt;Node17 -->
<g id="edge23" class="edge">
<title>Node1&#45;&gt;Node17</title>
<path fill="none" stroke="midnightblue" d="M49.29,-131.8C61.95,-116.63 88.47,-87.3 117,-70.5 124.53,-66.06 132.98,-62.35 141.42,-59.27"/>
<polygon fill="midnightblue" stroke="midnightblue" points="142.54,-62.58 150.89,-56.05 140.29,-55.95 142.54,-62.58"/>
</g>
<!-- Node3 -->
<g id="node3" class="node">
<title>Node3</title>
<g id="a_node3"><a xlink:href="class_prism.html#a22c5467db5d960bddbaf9a52f55c55cb" target="_top" xlink:title="Metoda obracajaca graniastoslup o zadany kat w 3D wokol srodka figury">
<polygon fill="none" stroke="black" points="308,-171 308,-190 458,-190 458,-171 308,-171"/>
<text text-anchor="middle" x="383" y="-178" font-family="Helvetica,sans-Serif" font-size="10.00">Prism::rotation_around_cen</text>
</a>
</g>
</g>
<!-- Node2&#45;&gt;Node3 -->
<g id="edge2" class="edge">
<title>Node2&#45;&gt;Node3</title>
<path fill="none" stroke="midnightblue" d="M236.81,-132.01C247.43,-134.73 258.72,-137.94 269,-141.5 285.55,-147.23 288.58,-151.43 305,-157.5 315.11,-161.24 326.14,-164.82 336.61,-167.99"/>
<polygon fill="midnightblue" stroke="midnightblue" points="335.84,-171.42 346.42,-170.9 337.83,-164.7 335.84,-171.42"/>
</g>
<!-- Node7 -->
<g id="node7" class="node">
<title>Node7</title>
<g id="a_node7"><a xlink:href="class_cuboid.html#a6c697c2d9b36a14c43c7328876d5a1f0" target="_top" xlink:title="Metoda obracajaca prostopadloscian o zadany kat w 3D wokol srodka figury">
<polygon fill="none" stroke="black" points="305,-129 305,-148 461,-148 461,-129 305,-129"/>
<text text-anchor="middle" x="383" y="-136" font-family="Helvetica,sans-Serif" font-size="10.00">Cuboid::rotation_around_cen</text>
</a>
</g>
</g>
<!-- Node2&#45;&gt;Node7 -->
<g id="edge7" class="edge">
<title>Node2&#45;&gt;Node7</title>
<path fill="none" stroke="midnightblue" d="M269.11,-128.89C277.57,-129.61 286.23,-130.35 294.82,-131.08"/>
<polygon fill="midnightblue" stroke="midnightblue" points="294.59,-134.57 304.85,-131.93 295.19,-127.6 294.59,-134.57"/>
</g>
<!-- Node2&#45;&gt;Node10 -->
<g id="edge11" class="edge">
<title>Node2&#45;&gt;Node10</title>
<path fill="none" stroke="midnightblue" d="M225.12,-112.89C238.65,-108.63 254.66,-103.46 269,-98.5 290.25,-91.16 313.56,-82.58 333.47,-75.1"/>
<polygon fill="midnightblue" stroke="midnightblue" points="334.82,-78.33 342.94,-71.52 332.35,-71.78 334.82,-78.33"/>
</g>
<!-- Node4 -->
<g id="node4" class="node">
<title>Node4</title>
<g id="a_node4"><a xlink:href="class_matrix.html#ad6df418144dfdc3236f990dc3fb0a50a" target="_top" xlink:title=" ">
<polygon fill="none" stroke="black" points="506,-164.5 506,-194.5 625,-194.5 625,-164.5 506,-164.5"/>
<text text-anchor="start" x="514" y="-182.5" font-family="Helvetica,sans-Serif" font-size="10.00">Matrix::apply_matrix</text>
<text text-anchor="middle" x="565.5" y="-171.5" font-family="Helvetica,sans-Serif" font-size="10.00">_to_rotation</text>
</a>
</g>
</g>
<!-- Node3&#45;&gt;Node4 -->
<g id="edge3" class="edge">
<title>Node3&#45;&gt;Node4</title>
<path fill="none" stroke="midnightblue" d="M458.2,-180.09C470.58,-180.02 483.38,-179.95 495.62,-179.88"/>
<polygon fill="midnightblue" stroke="midnightblue" points="495.77,-183.38 505.75,-179.83 495.73,-176.38 495.77,-183.38"/>
</g>
<!-- Node5 -->
<g id="node5" class="node">
<title>Node5</title>
<g id="a_node5"><a xlink:href="class_prism.html#ade146d341c0468030f8c1258b7fe1041" target="_top" xlink:title="Metoda przesuwajaca graniastoslup o zadany wektor w 3D">
<polygon fill="none" stroke="black" points="670,-214 670,-233 773,-233 773,-214 670,-214"/>
<text text-anchor="middle" x="721.5" y="-221" font-family="Helvetica,sans-Serif" font-size="10.00">Prism::translation</text>
</a>
</g>
</g>
<!-- Node3&#45;&gt;Node5 -->
<g id="edge4" class="edge">
<title>Node3&#45;&gt;Node5</title>
<path fill="none" stroke="midnightblue" d="M425.13,-190.02C446.47,-194.67 473.03,-200 497,-203.5 551.72,-211.49 614.47,-216.77 659.52,-219.89"/>
<polygon fill="midnightblue" stroke="midnightblue" points="659.5,-223.39 669.72,-220.58 659.97,-216.41 659.5,-223.39"/>
</g>
<!-- Node6 -->
<g id="node6" class="node">
<title>Node6</title>
<g id="a_node6"><a xlink:href="class_prism.html#afed2c26932d5cb152fd620d2acbfbc3e" target="_top" xlink:title="Metoda przesuwajaca graniastoslup do srodka ukladu wspolrzednych (tak, ze srodek graniastoslupa pokry...">
<polygon fill="none" stroke="black" points="500,-252 500,-271 631,-271 631,-252 500,-252"/>
<text text-anchor="middle" x="565.5" y="-259" font-family="Helvetica,sans-Serif" font-size="10.00">Prism::translation_to_O</text>
</a>
</g>
</g>
<!-- Node3&#45;&gt;Node6 -->
<g id="edge5" class="edge">
<title>Node3&#45;&gt;Node6</title>
<path fill="none" stroke="midnightblue" d="M431.51,-190.11C441.63,-193.22 451.98,-197.28 461,-202.5 480.31,-213.68 478.05,-225.71 497,-237.5 503.76,-241.7 511.35,-245.3 518.95,-248.34"/>
<polygon fill="midnightblue" stroke="midnightblue" points="517.91,-251.69 528.5,-251.89 520.35,-245.13 517.91,-251.69"/>
</g>
<!-- Node6&#45;&gt;Node5 -->
<g id="edge6" class="edge">
<title>Node6&#45;&gt;Node5</title>
<path fill="none" stroke="midnightblue" d="M605.36,-251.91C625.59,-246.92 650.52,-240.77 672,-235.47"/>
<polygon fill="midnightblue" stroke="midnightblue" points="673.05,-238.81 681.92,-233.02 671.37,-232.02 673.05,-238.81"/>
</g>
<!-- Node7&#45;&gt;Node4 -->
<g id="edge8" class="edge">
<title>Node7&#45;&gt;Node4</title>
<path fill="none" stroke="midnightblue" d="M425.86,-148.01C446.64,-152.73 472.27,-158.55 495.83,-163.9"/>
<polygon fill="midnightblue" stroke="midnightblue" points="495.25,-167.36 505.77,-166.16 496.8,-160.53 495.25,-167.36"/>
</g>
<!-- Node8 -->
<g id="node8" class="node">
<title>Node8</title>
<g id="a_node8"><a xlink:href="class_cuboid.html#a3f6b1b9ea7de433af5b0d462d29f4272" target="_top" xlink:title="Metoda przesuwajaca prostopadloscian o zadany kat w 3D">
<polygon fill="none" stroke="black" points="511,-126 511,-145 620,-145 620,-126 511,-126"/>
<text text-anchor="middle" x="565.5" y="-133" font-family="Helvetica,sans-Serif" font-size="10.00">Cuboid::translation</text>
</a>
</g>
</g>
<!-- Node7&#45;&gt;Node8 -->
<g id="edge9" class="edge">
<title>Node7&#45;&gt;Node8</title>
<path fill="none" stroke="midnightblue" d="M461.07,-137.22C474.3,-137 487.92,-136.77 500.75,-136.56"/>
<polygon fill="midnightblue" stroke="midnightblue" points="500.91,-140.06 510.85,-136.39 500.8,-133.06 500.91,-140.06"/>
</g>
<!-- Node9 -->
<g id="node9" class="node">
<title>Node9</title>
<g id="a_node9"><a xlink:href="class_cuboid.html#a42bdce7c214e759cb6ea94d4f547a5b9" target="_top" xlink:title="Metoda przesuwajaca prostopadloscian do (0,0,0)">
<polygon fill="none" stroke="black" points="497,-88 497,-107 634,-107 634,-88 497,-88"/>
<text text-anchor="middle" x="565.5" y="-95" font-family="Helvetica,sans-Serif" font-size="10.00">Cuboid::translation_to_O</text>
</a>
</g>
</g>
<!-- Node7&#45;&gt;Node9 -->
<g id="edge10" class="edge">
<title>Node7&#45;&gt;Node9</title>
<path fill="none" stroke="midnightblue" d="M425.86,-128.99C451.74,-123.11 485.16,-115.52 512.7,-109.27"/>
<polygon fill="midnightblue" stroke="midnightblue" points="513.57,-112.66 522.55,-107.03 512.02,-105.83 513.57,-112.66"/>
</g>
<!-- Node11 -->
<g id="node11" class="node">
<title>Node11</title>
<g id="a_node11"><a xlink:href="class_cuboid.html#a99d30564d6129e6905c5333e04df9606" target="_top" xlink:title="Metoda zwracajaca wierzcholki prostopadloscianu do Vector3D">
<polygon fill="none" stroke="black" points="518,-50 518,-69 613,-69 613,-50 518,-50"/>
<text text-anchor="middle" x="565.5" y="-57" font-family="Helvetica,sans-Serif" font-size="10.00">Cuboid::get_cub</text>
</a>
</g>
</g>
<!-- Node10&#45;&gt;Node11 -->
<g id="edge12" class="edge">
<title>Node10&#45;&gt;Node11</title>
<path fill="none" stroke="midnightblue" d="M440.62,-57.44C461.94,-57.8 486.19,-58.2 507.54,-58.55"/>
<polygon fill="midnightblue" stroke="midnightblue" points="507.71,-62.06 517.77,-58.72 507.83,-55.06 507.71,-62.06"/>
</g>
<!-- Node12 -->
<g id="node12" class="node">
<title>Node12</title>
<g id="a_node12"><a xlink:href="class_prism.html#a4e2b0b9c37d6a53af869522a4bf364ac" target="_top" xlink:title="Metoda przesuwajaca graniastoslup o zadany wektor w 3D w taki sposob, ze srodek jego dolnej podstawy ...">
<polygon fill="none" stroke="black" points="514,-0.5 514,-30.5 617,-30.5 617,-0.5 514,-0.5"/>
<text text-anchor="start" x="522" y="-18.5" font-family="Helvetica,sans-Serif" font-size="10.00">Prism::translation</text>
<text text-anchor="middle" x="565.5" y="-7.5" font-family="Helvetica,sans-Serif" font-size="10.00">_of_lower_cen</text>
</a>
</g>
</g>
<!-- Node10&#45;&gt;Node12 -->
<g id="edge13" class="edge">
<title>Node10&#45;&gt;Node12</title>
<path fill="none" stroke="midnightblue" d="M440.62,-43.64C460.78,-39.06 483.57,-33.88 504.05,-29.23"/>
<polygon fill="midnightblue" stroke="midnightblue" points="504.92,-32.62 513.89,-27 503.37,-25.8 504.92,-32.62"/>
</g>
<!-- Node12&#45;&gt;Node5 -->
<g id="edge14" class="edge">
<title>Node12&#45;&gt;Node5</title>
<path fill="none" stroke="midnightblue" d="M617.31,-29.29C623.36,-32.33 629.12,-36.02 634,-40.5 683.77,-86.12 707.55,-166.34 716.33,-203.53"/>
<polygon fill="midnightblue" stroke="midnightblue" points="712.98,-204.61 718.58,-213.6 719.81,-203.08 712.98,-204.61"/>
</g>
<!-- Node14&#45;&gt;Node9 -->
<g id="edge18" class="edge">
<title>Node14&#45;&gt;Node9</title>
<path fill="none" stroke="midnightblue" d="M245.25,-191.25C253.71,-188.5 261.99,-184.71 269,-179.5 293.96,-160.95 278.61,-135.95 305,-119.5 361.71,-84.15 439.43,-82.28 495.01,-87.02"/>
<polygon fill="midnightblue" stroke="midnightblue" points="494.83,-90.52 505.12,-87.98 495.49,-83.55 494.83,-90.52"/>
</g>
<!-- Node15 -->
<g id="node15" class="node">
<title>Node15</title>
<g id="a_node15"><a xlink:href="class_vector.html#a473f2e99d69d18d7b81479464e3b9ded" target="_top" xlink:title="Skaluje wektor o inny wektors &#160;&#160;Argumenty:">
<polygon fill="none" stroke="black" points="332.5,-212 332.5,-231 433.5,-231 433.5,-212 332.5,-212"/>
<text text-anchor="middle" x="383" y="-219" font-family="Helvetica,sans-Serif" font-size="10.00">Vector::scale_vec</text>
</a>
</g>
</g>
<!-- Node14&#45;&gt;Node15 -->
<g id="edge17" class="edge">
<title>Node14&#45;&gt;Node15</title>
<path fill="none" stroke="midnightblue" d="M245.37,-204.78C269.16,-207.7 297.58,-211.17 322.32,-214.2"/>
<polygon fill="midnightblue" stroke="midnightblue" points="321.96,-217.68 332.31,-215.42 322.81,-210.73 321.96,-217.68"/>
</g>
<!-- Node16&#45;&gt;Node6 -->
<g id="edge21" class="edge">
<title>Node16&#45;&gt;Node6</title>
<path fill="none" stroke="midnightblue" d="M240.17,-239.62C302.7,-243.83 415.05,-251.42 489.7,-256.45"/>
<polygon fill="midnightblue" stroke="midnightblue" points="489.76,-259.96 499.97,-257.15 490.23,-252.98 489.76,-259.96"/>
</g>
<!-- Node16&#45;&gt;Node15 -->
<g id="edge20" class="edge">
<title>Node16&#45;&gt;Node15</title>
<path fill="none" stroke="midnightblue" d="M240.47,-232.79C265.14,-230.82 295.74,-228.38 322.17,-226.27"/>
<polygon fill="midnightblue" stroke="midnightblue" points="322.76,-229.74 332.45,-225.45 322.2,-222.76 322.76,-229.74"/>
</g>
</g>
</svg>
