<?xml version="1.0" encoding="UTF-8" standalone="no"?>
<!DOCTYPE svg PUBLIC "-//W3C//DTD SVG 1.1//EN"
 "http://www.w3.org/Graphics/SVG/1.1/DTD/svg11.dtd">
<!-- Generated by graphviz version 2.43.0 (0)
 -->
<!-- Title: Cuboid::print_cuboid_weird Pages: 1 -->
<!--zoomable 53 -->
<svg id="main" version="1.1" xmlns="http://www.w3.org/2000/svg" xmlns:xlink="http://www.w3.org/1999/xlink" xml:space="preserve" onload="init(evt)">
<style type="text/css"><![CDATA[
.edge:hover path { stroke: red; }
.edge:hover polygon { stroke: red; fill: red; }
]]></style>
<script type="text/javascript"><![CDATA[
var edges = document.getElementsByTagName('g');
if (edges && edges.length) {
  for (var i=0;i<edges.length;i++) {
    if (edges[i].id.substr(0,4)=='edge') {
      edges[i].setAttribute('class','edge');
    }
  }
}
]]></script>
        <defs>
                <circle id="rim" cx="0" cy="0" r="7"/>
                <circle id="rim2" cx="0" cy="0" r="3.5"/>
                <g id="zoomPlus">
                        <use xlink:href="#rim" fill="#404040">
                                <set attributeName="fill" to="#808080" begin="zoomplus.mouseover" end="zoomplus.mouseout"/>
                        </use>
                        <path d="M-4,0h8M0,-4v8" fill="none" stroke="white" stroke-width="1.5" pointer-events="none"/>
                </g>
                <g id="zoomMin">
                        <use xlink:href="#rim" fill="#404040">
                                <set attributeName="fill" to="#808080" begin="zoomminus.mouseover" end="zoomminus.mouseout"/>
                        </use>
                        <path d="M-4,0h8" fill="none" stroke="white" stroke-width="1.5" pointer-events="none"/>
                </g>
                <g id="dirArrow">
                        <path fill="none" stroke="white" stroke-width="1.5" d="M0,-3.0v7 M-2.5,-0.5L0,-3.0L2.5,-0.5"/>
                </g>
               <g id="resetDef">
                       <use xlink:href="#rim2" fill="#404040">
                               <set attributeName="fill" to="#808080" begin="reset.mouseover" end="reset.mouseout"/>
                       </use>
               </g>
        </defs>

<script type="text/javascript">
var viewWidth = 770;
var viewHeight = 53;
var sectionId = 'dynsection-17';
</script>
<script xlink:href="svgpan.js"/>
<svg id="graph" class="graph">
<g id="viewport">
<title>Cuboid::print_cuboid_weird</title>
<!-- Node1 -->
<g id="node1" class="node">
<title>Node1</title>
<g id="a_node1"><a xlink:title="Metoda wypisania odpowiednich wierzcholkow do pliku zgodnie z (dziwnym) sposobem jaki zaproponowano w...">
<polygon fill="#bfbfbf" stroke="black" points="646,-0.5 646,-30.5 762,-30.5 762,-0.5 646,-0.5"/>
<text text-anchor="start" x="654" y="-18.5" font-family="Helvetica,sans-Serif" font-size="10.00">Cuboid::print_cuboid</text>
<text text-anchor="middle" x="704" y="-7.5" font-family="Helvetica,sans-Serif" font-size="10.00">_weird</text>
</a>
</g>
</g>
<!-- Node2 -->
<g id="node2" class="node">
<title>Node2</title>
<g id="a_node2"><a xlink:href="class_menu__cub.html#ada6a6762e5cc6f20628ecb5bd57944c7" target="_top" xlink:title=" ">
<polygon fill="none" stroke="black" points="476,-25 476,-44 610,-44 610,-25 476,-25"/>
<text text-anchor="middle" x="543" y="-32" font-family="Helvetica,sans-Serif" font-size="10.00">Menu_cub::CuboidToFile</text>
</a>
</g>
</g>
<!-- Node1&#45;&gt;Node2 -->
<g id="edge1" class="edge">
<title>Node1&#45;&gt;Node2</title>
<path fill="none" stroke="midnightblue" d="M635.5,-23.57C627.14,-24.57 618.59,-25.59 610.24,-26.59"/>
<polygon fill="midnightblue" stroke="midnightblue" points="636.08,-27.02 645.6,-22.36 635.25,-20.07 636.08,-27.02"/>
</g>
<!-- Node3 -->
<g id="node3" class="node">
<title>Node3</title>
<g id="a_node3"><a xlink:href="class_menu__cub.html#aba69e42a4314be002349777667b378e8" target="_top" xlink:title="Wyswietla prostopadloscian w GNUplocie Argumenty:">
<polygon fill="none" stroke="black" points="330,-0.5 330,-30.5 440,-30.5 440,-0.5 330,-0.5"/>
<text text-anchor="start" x="338" y="-18.5" font-family="Helvetica,sans-Serif" font-size="10.00">Menu_cub::Print_to</text>
<text text-anchor="middle" x="385" y="-7.5" font-family="Helvetica,sans-Serif" font-size="10.00">_gnuplot</text>
</a>
</g>
</g>
<!-- Node1&#45;&gt;Node3 -->
<g id="edge5" class="edge">
<title>Node1&#45;&gt;Node3</title>
<path fill="none" stroke="midnightblue" d="M635.75,-15.5C577.49,-15.5 494.28,-15.5 440.2,-15.5"/>
<polygon fill="midnightblue" stroke="midnightblue" points="635.96,-19 645.96,-15.5 635.96,-12 635.96,-19"/>
</g>
<!-- Node2&#45;&gt;Node3 -->
<g id="edge2" class="edge">
<title>Node2&#45;&gt;Node3</title>
<path fill="none" stroke="midnightblue" d="M465.83,-25.22C457.27,-24.18 448.68,-23.13 440.47,-22.13"/>
<polygon fill="midnightblue" stroke="midnightblue" points="465.49,-28.71 475.84,-26.44 466.34,-21.76 465.49,-28.71"/>
</g>
<!-- Node4 -->
<g id="node4" class="node">
<title>Node4</title>
<g id="a_node4"><a xlink:href="class_menu__cub.html#a20ac792d84052e50bf3fb95b1745e4df" target="_top" xlink:title="Obsluguje wybor menu Argumenty:">
<polygon fill="none" stroke="black" points="157,-6 157,-25 294,-25 294,-6 157,-6"/>
<text text-anchor="middle" x="225.5" y="-13" font-family="Helvetica,sans-Serif" font-size="10.00">Menu_cub::switch_menu</text>
</a>
</g>
</g>
<!-- Node3&#45;&gt;Node4 -->
<g id="edge3" class="edge">
<title>Node3&#45;&gt;Node4</title>
<path fill="none" stroke="midnightblue" d="M319.68,-15.5C311.26,-15.5 302.62,-15.5 294.16,-15.5"/>
<polygon fill="midnightblue" stroke="midnightblue" points="319.8,-19 329.8,-15.5 319.8,-12 319.8,-19"/>
</g>
<!-- Node5 -->
<g id="node5" class="node">
<title>Node5</title>
<g id="a_node5"><a xlink:href="class_menu__cub.html#ab8ed88bc956ac7bdfe7db0807085f7cd" target="_top" xlink:title="Inicjuje menu Argumenty:">
<polygon fill="none" stroke="black" points="0,-6 0,-25 121,-25 121,-6 0,-6"/>
<text text-anchor="middle" x="60.5" y="-13" font-family="Helvetica,sans-Serif" font-size="10.00">Menu_cub::init_menu</text>
</a>
</g>
</g>
<!-- Node4&#45;&gt;Node5 -->
<g id="edge4" class="edge">
<title>Node4&#45;&gt;Node5</title>
<path fill="none" stroke="midnightblue" d="M146.75,-15.5C138.17,-15.5 129.52,-15.5 121.2,-15.5"/>
<polygon fill="midnightblue" stroke="midnightblue" points="146.79,-19 156.79,-15.5 146.79,-12 146.79,-19"/>
</g>
</g>
</svg>
        <g id="navigator" transform="translate(0 0)" fill="#404254">
                <rect fill="#f2f5e9" fill-opacity="0.5" stroke="#606060" stroke-width=".5" x="0" y="0" width="60" height="60"/>
                <use id="zoomplus" xlink:href="#zoomPlus" x="17" y="9" onmousedown="handleZoom(evt,'in')"/>
                <use id="zoomminus" xlink:href="#zoomMin" x="42" y="9" onmousedown="handleZoom(evt,'out')"/>
                <use id="reset" xlink:href="#resetDef" x="30" y="36" onmousedown="handleReset()"/>
                <g id="arrowUp" xlink:href="#dirArrow" transform="translate(30 24)" onmousedown="handlePan(0,-1)">
                  <use xlink:href="#rim" fill="#404040">
                        <set attributeName="fill" to="#808080" begin="arrowUp.mouseover" end="arrowUp.mouseout"/>
                  </use>
                  <path fill="none" stroke="white" stroke-width="1.5" d="M0,-3.0v7 M-2.5,-0.5L0,-3.0L2.5,-0.5"/>
                </g>
                <g id="arrowRight" xlink:href="#dirArrow" transform="rotate(90) translate(36 -43)" onmousedown="handlePan(1,0)">
                  <use xlink:href="#rim" fill="#404040">
                        <set attributeName="fill" to="#808080" begin="arrowRight.mouseover" end="arrowRight.mouseout"/>
                  </use>
                  <path fill="none" stroke="white" stroke-width="1.5" d="M0,-3.0v7 M-2.5,-0.5L0,-3.0L2.5,-0.5"/>
                </g>
                <g id="arrowDown" xlink:href="#dirArrow" transform="rotate(180) translate(-30 -48)" onmousedown="handlePan(0,1)">
                  <use xlink:href="#rim" fill="#404040">
                        <set attributeName="fill" to="#808080" begin="arrowDown.mouseover" end="arrowDown.mouseout"/>
                  </use>
                  <path fill="none" stroke="white" stroke-width="1.5" d="M0,-3.0v7 M-2.5,-0.5L0,-3.0L2.5,-0.5"/>
                </g>
                <g id="arrowLeft" xlink:href="#dirArrow" transform="rotate(270) translate(-36 17)" onmousedown="handlePan(-1,0)">
                  <use xlink:href="#rim" fill="#404040">
                        <set attributeName="fill" to="#808080" begin="arrowLeft.mouseover" end="arrowLeft.mouseout"/>
                  </use>
                  <path fill="none" stroke="white" stroke-width="1.5" d="M0,-3.0v7 M-2.5,-0.5L0,-3.0L2.5,-0.5"/>
                </g>
        </g>
        <svg viewBox="0 0 15 15" width="100%" height="30px" preserveAspectRatio="xMaxYMin meet">
         <g id="arrow_out" transform="scale(0.3 0.3)">
          <a xlink:href="class_cuboid_aef44df3b2af7f29c7faa620ff88cda7a_icgraph_org.svg" target="_base">
           <rect id="button" ry="5" rx="5" y="6" x="6" height="38" width="38"
                fill="#f2f5e9" fill-opacity="0.5" stroke="#606060" stroke-width="1.0"/>
           <path id="arrow"
             d="M 11.500037,31.436501 C 11.940474,20.09759 22.043105,11.32322 32.158766,21.979434 L 37.068811,17.246167 C 37.068811,17.246167 37.088388,32 37.088388,32 L 22.160133,31.978069 C 22.160133,31.978069 26.997745,27.140456 26.997745,27.140456 C 18.528582,18.264221 13.291696,25.230495 11.500037,31.436501 z"
             style="fill:#404040;"/>
          </a>
         </g>
        </svg>
</svg>
