<?xml version="1.0" encoding="UTF-8" standalone="no"?>
<!DOCTYPE svg PUBLIC "-//W3C//DTD SVG 1.1//EN"
 "http://www.w3.org/Graphics/SVG/1.1/DTD/svg11.dtd">
<!-- Generated by graphviz version 2.43.0 (0)
 -->
<!-- Title: Drone Pages: 1 -->
<!--zoomable 2088 -->
<svg id="main" version="1.1" xmlns="http://www.w3.org/2000/svg" xmlns:xlink="http://www.w3.org/1999/xlink" xml:space="preserve" onload="init(evt)">
<style type="text/css"><![CDATA[
.edge:hover path { stroke: red; }
.edge:hover polygon { stroke: red; fill: red; }
]]></style>
<script type="text/javascript"><![CDATA[
var edges = document.getElementsByTagName('g');
if (edges && edges.length) {
  for (var i=0;i<edges.length;i++) {
    if (edges[i].id.substr(0,4)=='edge') {
      edges[i].setAttribute('class','edge');
    }
  }
}
]]></script>
        <defs>
                <circle id="rim" cx="0" cy="0" r="7"/>
                <circle id="rim2" cx="0" cy="0" r="3.5"/>
                <g id="zoomPlus">
                        <use xlink:href="#rim" fill="#404040">
                                <set attributeName="fill" to="#808080" begin="zoomplus.mouseover" end="zoomplus.mouseout"/>
                        </use>
                        <path d="M-4,0h8M0,-4v8" fill="none" stroke="white" stroke-width="1.5" pointer-events="none"/>
                </g>
                <g id="zoomMin">
                        <use xlink:href="#rim" fill="#404040">
                                <set attributeName="fill" to="#808080" begin="zoomminus.mouseover" end="zoomminus.mouseout"/>
                        </use>
                        <path d="M-4,0h8" fill="none" stroke="white" stroke-width="1.5" pointer-events="none"/>
                </g>
                <g id="dirArrow">
                        <path fill="none" stroke="white" stroke-width="1.5" d="M0,-3.0v7 M-2.5,-0.5L0,-3.0L2.5,-0.5"/>
                </g>
               <g id="resetDef">
                       <use xlink:href="#rim2" fill="#404040">
                               <set attributeName="fill" to="#808080" begin="reset.mouseover" end="reset.mouseout"/>
                       </use>
               </g>
        </defs>

<script type="text/javascript">
var viewWidth = 557;
var viewHeight = 2088;
var sectionId = 'dynsection-0';
</script>
<script xlink:href="svgpan.js"/>
<svg id="graph" class="graph">
<g id="viewport">
<title>Drone</title>
<!-- Node1 -->
<g id="node1" class="node">
<title>Node1</title>
<g id="a_node1"><a xlink:title="Opisuje drona o prostopadlosciennym korpusie i 4 rotorach.">
<polygon fill="#bfbfbf" stroke="black" points="126.41,-0.5 126.41,-376.5 311.41,-376.5 311.41,-0.5 126.41,-0.5"/>
<text text-anchor="middle" x="218.91" y="-364.5" font-family="Helvetica,sans-Serif" font-size="10.00">Drone</text>
<polyline fill="none" stroke="black" points="126.41,-357.5 311.41,-357.5 "/>
<text text-anchor="middle" x="218.91" y="-345.5" font-family="Helvetica,sans-Serif" font-size="10.00"> </text>
<polyline fill="none" stroke="black" points="126.41,-338.5 311.41,-338.5 "/>
<text text-anchor="start" x="134.41" y="-326.5" font-family="Helvetica,sans-Serif" font-size="10.00">+ Drone()</text>
<text text-anchor="start" x="134.41" y="-315.5" font-family="Helvetica,sans-Serif" font-size="10.00">+ set_rotors_in_place()</text>
<text text-anchor="start" x="134.41" y="-304.5" font-family="Helvetica,sans-Serif" font-size="10.00">+ translation()</text>
<text text-anchor="start" x="134.41" y="-293.5" font-family="Helvetica,sans-Serif" font-size="10.00">+ translation_to_pos()</text>
<text text-anchor="start" x="134.41" y="-282.5" font-family="Helvetica,sans-Serif" font-size="10.00">+ rotation_around_cen()</text>
<text text-anchor="start" x="134.41" y="-271.5" font-family="Helvetica,sans-Serif" font-size="10.00">+ scale_dro()</text>
<text text-anchor="start" x="134.41" y="-260.5" font-family="Helvetica,sans-Serif" font-size="10.00">+ operator==()</text>
<text text-anchor="start" x="134.41" y="-249.5" font-family="Helvetica,sans-Serif" font-size="10.00">+ set_drone_pos()</text>
<text text-anchor="start" x="134.41" y="-238.5" font-family="Helvetica,sans-Serif" font-size="10.00">+ print_drone_pos()</text>
<text text-anchor="start" x="134.41" y="-227.5" font-family="Helvetica,sans-Serif" font-size="10.00">+ set_scale_all()</text>
<text text-anchor="start" x="134.41" y="-216.5" font-family="Helvetica,sans-Serif" font-size="10.00">+ get_dro()</text>
<text text-anchor="start" x="134.41" y="-205.5" font-family="Helvetica,sans-Serif" font-size="10.00">+ check_dro()</text>
<text text-anchor="start" x="134.41" y="-194.5" font-family="Helvetica,sans-Serif" font-size="10.00">+ get_orien()</text>
<text text-anchor="start" x="134.41" y="-183.5" font-family="Helvetica,sans-Serif" font-size="10.00">+ check_orien()</text>
<text text-anchor="start" x="134.41" y="-172.5" font-family="Helvetica,sans-Serif" font-size="10.00">+ setup_filenames()</text>
<text text-anchor="start" x="134.41" y="-161.5" font-family="Helvetica,sans-Serif" font-size="10.00">+ set_filenames_gnuplot()</text>
<text text-anchor="start" x="134.41" y="-150.5" font-family="Helvetica,sans-Serif" font-size="10.00">+ get_filenames()</text>
<text text-anchor="start" x="134.41" y="-139.5" font-family="Helvetica,sans-Serif" font-size="10.00">+ Print_to_gnuplot_drone()</text>
<text text-anchor="start" x="134.41" y="-128.5" font-family="Helvetica,sans-Serif" font-size="10.00">+ Print_to_files_drone()</text>
<text text-anchor="start" x="134.41" y="-117.5" font-family="Helvetica,sans-Serif" font-size="10.00">+ Rotors_rotation_animation()</text>
<text text-anchor="start" x="134.41" y="-106.5" font-family="Helvetica,sans-Serif" font-size="10.00">+ Drone_rotation_animation()</text>
<text text-anchor="start" x="134.41" y="-95.5" font-family="Helvetica,sans-Serif" font-size="10.00">+ Drone_make_path()</text>
<text text-anchor="start" x="134.41" y="-84.5" font-family="Helvetica,sans-Serif" font-size="10.00">+ Drone_path_to_file()</text>
<text text-anchor="start" x="134.41" y="-73.5" font-family="Helvetica,sans-Serif" font-size="10.00">+ Drone_path_clear()</text>
<text text-anchor="start" x="134.41" y="-62.5" font-family="Helvetica,sans-Serif" font-size="10.00">+ Drone_translation_animation()</text>
<text text-anchor="start" x="134.41" y="-51.5" font-family="Helvetica,sans-Serif" font-size="10.00">+ Drone_change_to_sample()</text>
<text text-anchor="start" x="134.41" y="-40.5" font-family="Helvetica,sans-Serif" font-size="10.00">+ Drone_From_Sample()</text>
<text text-anchor="start" x="134.41" y="-29.5" font-family="Helvetica,sans-Serif" font-size="10.00">+ Drone_basic_motion()</text>
<text text-anchor="start" x="134.41" y="-18.5" font-family="Helvetica,sans-Serif" font-size="10.00">+ Drone_roundabout()</text>
<text text-anchor="start" x="134.41" y="-7.5" font-family="Helvetica,sans-Serif" font-size="10.00">+ Drone_make_path_roundabout()</text>
</a>
</g>
</g>
<!-- Node2 -->
<g id="node2" class="node">
<title>Node2</title>
<g id="a_node2"><a xlink:title=" ">
<polygon fill="none" stroke="#bfbfbf" points="63.91,-1471 63.91,-1528 113.91,-1528 113.91,-1471 63.91,-1471"/>
<text text-anchor="middle" x="88.91" y="-1516" font-family="Helvetica,sans-Serif" font-size="10.00">double</text>
<polyline fill="none" stroke="#bfbfbf" points="63.91,-1509 113.91,-1509 "/>
<text text-anchor="middle" x="88.91" y="-1497" font-family="Helvetica,sans-Serif" font-size="10.00"> </text>
<polyline fill="none" stroke="#bfbfbf" points="63.91,-1490 113.91,-1490 "/>
<text text-anchor="middle" x="88.91" y="-1478" font-family="Helvetica,sans-Serif" font-size="10.00"> </text>
</a>
</g>
</g>
<!-- Node2&#45;&gt;Node1 -->
<g id="edge1" class="edge">
<title>Node2&#45;&gt;Node1</title>
<path fill="none" stroke="#404040" d="M75.55,-1470.85C50.93,-1417.29 0.91,-1295.12 0.91,-1186.5 0.91,-1186.5 0.91,-1186.5 0.91,-606 0.91,-524.35 -6.83,-498.8 25.91,-424 47.73,-374.14 83.34,-326.36 118.06,-287.09"/>
<polygon fill="none" stroke="#404040" points="118.37,-286.75 119.4,-279.61 126.39,-277.82 125.36,-284.95 118.37,-286.75"/>
<text text-anchor="middle" x="34.41" y="-918.5" font-family="Helvetica,sans-Serif" font-size="10.00"> &#45;drone_angle</text>
</g>
<!-- Node3 -->
<g id="node3" class="node">
<title>Node3</title>
<g id="a_node3"><a xlink:href="class_vector.html" target="_top" xlink:title=" ">
<polygon fill="none" stroke="black" points="197.41,-1052.5 197.41,-1318.5 312.41,-1318.5 312.41,-1052.5 197.41,-1052.5"/>
<text text-anchor="middle" x="254.91" y="-1306.5" font-family="Helvetica,sans-Serif" font-size="10.00">Vector&lt; double, 3 &gt;</text>
<polyline fill="none" stroke="black" points="197.41,-1299.5 312.41,-1299.5 "/>
<text text-anchor="middle" x="254.91" y="-1287.5" font-family="Helvetica,sans-Serif" font-size="10.00"> </text>
<polyline fill="none" stroke="black" points="197.41,-1280.5 312.41,-1280.5 "/>
<text text-anchor="start" x="205.41" y="-1268.5" font-family="Helvetica,sans-Serif" font-size="10.00">+ Vector()</text>
<text text-anchor="start" x="205.41" y="-1257.5" font-family="Helvetica,sans-Serif" font-size="10.00">+ Vector()</text>
<text text-anchor="start" x="205.41" y="-1246.5" font-family="Helvetica,sans-Serif" font-size="10.00">+ operator+()</text>
<text text-anchor="start" x="205.41" y="-1235.5" font-family="Helvetica,sans-Serif" font-size="10.00">+ operator&#45;()</text>
<text text-anchor="start" x="205.41" y="-1224.5" font-family="Helvetica,sans-Serif" font-size="10.00">+ operator*()</text>
<text text-anchor="start" x="205.41" y="-1213.5" font-family="Helvetica,sans-Serif" font-size="10.00">+ operator/()</text>
<text text-anchor="start" x="205.41" y="-1202.5" font-family="Helvetica,sans-Serif" font-size="10.00">+ operator==()</text>
<text text-anchor="start" x="205.41" y="-1191.5" font-family="Helvetica,sans-Serif" font-size="10.00">+ scale_vec()</text>
<text text-anchor="start" x="205.41" y="-1180.5" font-family="Helvetica,sans-Serif" font-size="10.00">+ rotate()</text>
<text text-anchor="start" x="205.41" y="-1169.5" font-family="Helvetica,sans-Serif" font-size="10.00">+ rotate()</text>
<text text-anchor="start" x="205.41" y="-1158.5" font-family="Helvetica,sans-Serif" font-size="10.00">+ rotate()</text>
<text text-anchor="start" x="205.41" y="-1147.5" font-family="Helvetica,sans-Serif" font-size="10.00">+ modulus2()</text>
<text text-anchor="start" x="205.41" y="-1136.5" font-family="Helvetica,sans-Serif" font-size="10.00">+ get_vec()</text>
<text text-anchor="start" x="205.41" y="-1125.5" font-family="Helvetica,sans-Serif" font-size="10.00">+ get_len()</text>
<text text-anchor="start" x="205.41" y="-1114.5" font-family="Helvetica,sans-Serif" font-size="10.00">+ get_slope_angle()</text>
<text text-anchor="start" x="205.41" y="-1103.5" font-family="Helvetica,sans-Serif" font-size="10.00">+ get_slope_angle()</text>
<text text-anchor="start" x="205.41" y="-1092.5" font-family="Helvetica,sans-Serif" font-size="10.00">+ get_slope_angle()</text>
<text text-anchor="start" x="205.41" y="-1081.5" font-family="Helvetica,sans-Serif" font-size="10.00">+ operator[]()</text>
<text text-anchor="start" x="205.41" y="-1070.5" font-family="Helvetica,sans-Serif" font-size="10.00">+ operator[]()</text>
<text text-anchor="start" x="205.41" y="-1059.5" font-family="Helvetica,sans-Serif" font-size="10.00">+ scalar_prod()</text>
</a>
</g>
</g>
<!-- Node2&#45;&gt;Node3 -->
<g id="edge7" class="edge">
<title>Node2&#45;&gt;Node3</title>
<path fill="none" stroke="#404040" d="M103.64,-1470.81C123.37,-1433.74 159.59,-1365.65 191.65,-1305.4"/>
<polygon fill="none" stroke="#404040" points="191.74,-1305.23 191.03,-1298.06 197.38,-1294.64 198.09,-1301.81 191.74,-1305.23"/>
<text text-anchor="middle" x="185.41" y="-1340" font-family="Helvetica,sans-Serif" font-size="10.00"> &#45;size</text>
</g>
<!-- Node3&#45;&gt;Node1 -->
<g id="edge2" class="edge">
<title>Node3&#45;&gt;Node1</title>
<path fill="none" stroke="#404040" d="M312.45,-1075.01C323.95,-1049.06 334.7,-1021.05 341.91,-994 407.23,-749.09 429.07,-668.14 360.91,-424 351.4,-389.92 335.43,-355.86 317.57,-324.67"/>
<polygon fill="none" stroke="#404040" points="317.51,-324.57 311.02,-321.41 311.44,-314.21 317.93,-317.37 317.51,-324.57"/>
<text text-anchor="middle" x="422.41" y="-822" font-family="Helvetica,sans-Serif" font-size="10.00"> &#45;drone_orient</text>
<text text-anchor="middle" x="422.41" y="-811" font-family="Helvetica,sans-Serif" font-size="10.00">&#45;drone_pos</text>
</g>
<!-- Node10 -->
<g id="node10" class="node">
<title>Node10</title>
<g id="a_node10"><a xlink:href="class_cuboid.html" target="_top" xlink:title="Opisuje prostopadloscian w przestrzeni trojwymiarowej.">
<polygon fill="none" stroke="black" points="211.41,-424.5 211.41,-789.5 352.41,-789.5 352.41,-424.5 211.41,-424.5"/>
<text text-anchor="middle" x="281.91" y="-777.5" font-family="Helvetica,sans-Serif" font-size="10.00">Cuboid</text>
<polyline fill="none" stroke="black" points="211.41,-770.5 352.41,-770.5 "/>
<text text-anchor="middle" x="281.91" y="-758.5" font-family="Helvetica,sans-Serif" font-size="10.00"> </text>
<polyline fill="none" stroke="black" points="211.41,-751.5 352.41,-751.5 "/>
<text text-anchor="start" x="219.41" y="-739.5" font-family="Helvetica,sans-Serif" font-size="10.00">+ Cuboid()</text>
<text text-anchor="start" x="219.41" y="-728.5" font-family="Helvetica,sans-Serif" font-size="10.00">+ Cuboid()</text>
<text text-anchor="start" x="219.41" y="-717.5" font-family="Helvetica,sans-Serif" font-size="10.00">+ Cuboid()</text>
<text text-anchor="start" x="219.41" y="-706.5" font-family="Helvetica,sans-Serif" font-size="10.00">+ Cuboid()</text>
<text text-anchor="start" x="219.41" y="-695.5" font-family="Helvetica,sans-Serif" font-size="10.00">+ Cuboid()</text>
<text text-anchor="start" x="219.41" y="-684.5" font-family="Helvetica,sans-Serif" font-size="10.00">+ check_cub()</text>
<text text-anchor="start" x="219.41" y="-673.5" font-family="Helvetica,sans-Serif" font-size="10.00">+ get_vec_opp()</text>
<text text-anchor="start" x="219.41" y="-662.5" font-family="Helvetica,sans-Serif" font-size="10.00">+ check_vec_opp()</text>
<text text-anchor="start" x="219.41" y="-651.5" font-family="Helvetica,sans-Serif" font-size="10.00">+ check_vec_len()</text>
<text text-anchor="start" x="219.41" y="-640.5" font-family="Helvetica,sans-Serif" font-size="10.00">+ get_vec_len()</text>
<text text-anchor="start" x="219.41" y="-629.5" font-family="Helvetica,sans-Serif" font-size="10.00">+ get_vec_perp()</text>
<text text-anchor="start" x="219.41" y="-618.5" font-family="Helvetica,sans-Serif" font-size="10.00">+ check_vec_perp()</text>
<text text-anchor="start" x="219.41" y="-607.5" font-family="Helvetica,sans-Serif" font-size="10.00">+ get_cub()</text>
<text text-anchor="start" x="219.41" y="-596.5" font-family="Helvetica,sans-Serif" font-size="10.00">+ get_cub()</text>
<text text-anchor="start" x="219.41" y="-585.5" font-family="Helvetica,sans-Serif" font-size="10.00">+ get_height()</text>
<text text-anchor="start" x="219.41" y="-574.5" font-family="Helvetica,sans-Serif" font-size="10.00">+ operator==()</text>
<text text-anchor="start" x="219.41" y="-563.5" font-family="Helvetica,sans-Serif" font-size="10.00">+ translation()</text>
<text text-anchor="start" x="219.41" y="-552.5" font-family="Helvetica,sans-Serif" font-size="10.00">+ translation_to_O()</text>
<text text-anchor="start" x="219.41" y="-541.5" font-family="Helvetica,sans-Serif" font-size="10.00">+ rotation()</text>
<text text-anchor="start" x="219.41" y="-530.5" font-family="Helvetica,sans-Serif" font-size="10.00">+ rotation_around_cen()</text>
<text text-anchor="start" x="219.41" y="-519.5" font-family="Helvetica,sans-Serif" font-size="10.00">+ centre_point()</text>
<text text-anchor="start" x="219.41" y="-508.5" font-family="Helvetica,sans-Serif" font-size="10.00">+ special_points()</text>
<text text-anchor="start" x="219.41" y="-497.5" font-family="Helvetica,sans-Serif" font-size="10.00">+ print_cuboid()</text>
<text text-anchor="start" x="219.41" y="-486.5" font-family="Helvetica,sans-Serif" font-size="10.00">+ print_cuboid_weird()</text>
<text text-anchor="start" x="219.41" y="-475.5" font-family="Helvetica,sans-Serif" font-size="10.00">+ print_cuboid_3D()</text>
<text text-anchor="start" x="219.41" y="-464.5" font-family="Helvetica,sans-Serif" font-size="10.00">+ Cuboid_From_Sample()</text>
<text text-anchor="start" x="219.41" y="-453.5" font-family="Helvetica,sans-Serif" font-size="10.00">+ Cuboid_To_File()</text>
<text text-anchor="start" x="219.41" y="-442.5" font-family="Helvetica,sans-Serif" font-size="10.00">+ scale_cub()</text>
<text text-anchor="start" x="219.41" y="-431.5" font-family="Helvetica,sans-Serif" font-size="10.00">+ scale_cub()</text>
</a>
</g>
</g>
<!-- Node3&#45;&gt;Node10 -->
<g id="edge17" class="edge">
<title>Node3&#45;&gt;Node10</title>
<path fill="none" stroke="#404040" d="M285.55,-1052.32C289.02,-1032.86 291.99,-1012.98 293.91,-994 300.22,-931.78 300.33,-863.65 297.93,-802.18"/>
<polygon fill="none" stroke="#404040" points="297.92,-801.97 293.68,-796.14 297.42,-789.98 301.67,-795.81 297.92,-801.97"/>
<text text-anchor="middle" x="318.91" y="-929.5" font-family="Helvetica,sans-Serif" font-size="10.00"> &#45;centre</text>
<text text-anchor="middle" x="318.91" y="-918.5" font-family="Helvetica,sans-Serif" font-size="10.00">&#45;tops</text>
<text text-anchor="middle" x="318.91" y="-907.5" font-family="Helvetica,sans-Serif" font-size="10.00">&#45;cuts</text>
</g>
<!-- Node11 -->
<g id="node11" class="node">
<title>Node11</title>
<g id="a_node11"><a xlink:href="class_block.html" target="_top" xlink:title="Opisuje figure geometryczna w przestrzeni trojwymiarowej.">
<polygon fill="none" stroke="black" points="160.41,-848.5 160.41,-993.5 285.41,-993.5 285.41,-848.5 160.41,-848.5"/>
<text text-anchor="middle" x="222.91" y="-981.5" font-family="Helvetica,sans-Serif" font-size="10.00">Block</text>
<polyline fill="none" stroke="black" points="160.41,-974.5 285.41,-974.5 "/>
<text text-anchor="middle" x="222.91" y="-962.5" font-family="Helvetica,sans-Serif" font-size="10.00"> </text>
<polyline fill="none" stroke="black" points="160.41,-955.5 285.41,-955.5 "/>
<text text-anchor="start" x="168.41" y="-943.5" font-family="Helvetica,sans-Serif" font-size="10.00">+ Block()</text>
<text text-anchor="start" x="168.41" y="-932.5" font-family="Helvetica,sans-Serif" font-size="10.00">+ Block()</text>
<text text-anchor="start" x="168.41" y="-921.5" font-family="Helvetica,sans-Serif" font-size="10.00">+ set_sample_name()</text>
<text text-anchor="start" x="168.41" y="-910.5" font-family="Helvetica,sans-Serif" font-size="10.00">+ set_final_name()</text>
<text text-anchor="start" x="168.41" y="-899.5" font-family="Helvetica,sans-Serif" font-size="10.00">+ set_scale()</text>
<text text-anchor="start" x="168.41" y="-888.5" font-family="Helvetica,sans-Serif" font-size="10.00">+ set_scale()</text>
<text text-anchor="start" x="168.41" y="-877.5" font-family="Helvetica,sans-Serif" font-size="10.00">+ get_sample_name()</text>
<text text-anchor="start" x="168.41" y="-866.5" font-family="Helvetica,sans-Serif" font-size="10.00">+ get_final_name()</text>
<text text-anchor="start" x="168.41" y="-855.5" font-family="Helvetica,sans-Serif" font-size="10.00">+ get_scale()</text>
</a>
</g>
</g>
<!-- Node3&#45;&gt;Node11 -->
<g id="edge15" class="edge">
<title>Node3&#45;&gt;Node11</title>
<path fill="none" stroke="#404040" d="M238.82,-1052.48C236.88,-1036.62 234.95,-1020.78 233.14,-1005.87"/>
<polygon fill="none" stroke="#404040" points="233.09,-1005.51 228.4,-1000.04 231.64,-993.6 236.34,-999.07 233.09,-1005.51"/>
<text text-anchor="middle" x="255.41" y="-1020.5" font-family="Helvetica,sans-Serif" font-size="10.00"> #scale</text>
</g>
<!-- Node13 -->
<g id="node13" class="node">
<title>Node13</title>
<g id="a_node13"><a xlink:href="class_prism.html" target="_top" xlink:title="Opisuje graniastoslup o dwunastu wierzcholkach w przestrzeni trojwymiarowej.">
<polygon fill="none" stroke="black" points="34.91,-441 34.91,-773 192.91,-773 192.91,-441 34.91,-441"/>
<text text-anchor="middle" x="113.91" y="-761" font-family="Helvetica,sans-Serif" font-size="10.00">Prism</text>
<polyline fill="none" stroke="black" points="34.91,-754 192.91,-754 "/>
<text text-anchor="middle" x="113.91" y="-742" font-family="Helvetica,sans-Serif" font-size="10.00"> </text>
<polyline fill="none" stroke="black" points="34.91,-735 192.91,-735 "/>
<text text-anchor="start" x="42.91" y="-723" font-family="Helvetica,sans-Serif" font-size="10.00">+ Prism()</text>
<text text-anchor="start" x="42.91" y="-712" font-family="Helvetica,sans-Serif" font-size="10.00">+ Prism()</text>
<text text-anchor="start" x="42.91" y="-701" font-family="Helvetica,sans-Serif" font-size="10.00">+ Prism()</text>
<text text-anchor="start" x="42.91" y="-690" font-family="Helvetica,sans-Serif" font-size="10.00">+ Prism()</text>
<text text-anchor="start" x="42.91" y="-679" font-family="Helvetica,sans-Serif" font-size="10.00">+ Prism()</text>
<text text-anchor="start" x="42.91" y="-668" font-family="Helvetica,sans-Serif" font-size="10.00">+ get_pri()</text>
<text text-anchor="start" x="42.91" y="-657" font-family="Helvetica,sans-Serif" font-size="10.00">+ get_pri()</text>
<text text-anchor="start" x="42.91" y="-646" font-family="Helvetica,sans-Serif" font-size="10.00">+ check_pri()</text>
<text text-anchor="start" x="42.91" y="-635" font-family="Helvetica,sans-Serif" font-size="10.00">+ get_vec_ver()</text>
<text text-anchor="start" x="42.91" y="-624" font-family="Helvetica,sans-Serif" font-size="10.00">+ check_vec_ver()</text>
<text text-anchor="start" x="42.91" y="-613" font-family="Helvetica,sans-Serif" font-size="10.00">+ get_vec_pairs()</text>
<text text-anchor="start" x="42.91" y="-602" font-family="Helvetica,sans-Serif" font-size="10.00">+ check_vec_pairs()</text>
<text text-anchor="start" x="42.91" y="-591" font-family="Helvetica,sans-Serif" font-size="10.00">+ check_vec_perp()</text>
<text text-anchor="start" x="42.91" y="-580" font-family="Helvetica,sans-Serif" font-size="10.00">+ check_vec_basis()</text>
<text text-anchor="start" x="42.91" y="-569" font-family="Helvetica,sans-Serif" font-size="10.00">+ operator==()</text>
<text text-anchor="start" x="42.91" y="-558" font-family="Helvetica,sans-Serif" font-size="10.00">+ translation()</text>
<text text-anchor="start" x="42.91" y="-547" font-family="Helvetica,sans-Serif" font-size="10.00">+ translation_of_lower_cen()</text>
<text text-anchor="start" x="42.91" y="-536" font-family="Helvetica,sans-Serif" font-size="10.00">+ translation_to_O()</text>
<text text-anchor="start" x="42.91" y="-525" font-family="Helvetica,sans-Serif" font-size="10.00">+ rotation_around_cen()</text>
<text text-anchor="start" x="42.91" y="-514" font-family="Helvetica,sans-Serif" font-size="10.00">+ centre_point()</text>
<text text-anchor="start" x="42.91" y="-503" font-family="Helvetica,sans-Serif" font-size="10.00">+ special_points()</text>
<text text-anchor="start" x="42.91" y="-492" font-family="Helvetica,sans-Serif" font-size="10.00">+ print_prism_3D()</text>
<text text-anchor="start" x="42.91" y="-481" font-family="Helvetica,sans-Serif" font-size="10.00">+ Prism_From_Sample()</text>
<text text-anchor="start" x="42.91" y="-470" font-family="Helvetica,sans-Serif" font-size="10.00">+ Prism_To_File()</text>
<text text-anchor="start" x="42.91" y="-459" font-family="Helvetica,sans-Serif" font-size="10.00">+ scale_pri()</text>
<text text-anchor="start" x="42.91" y="-448" font-family="Helvetica,sans-Serif" font-size="10.00">+ scale_pri()</text>
</a>
</g>
</g>
<!-- Node3&#45;&gt;Node13 -->
<g id="edge20" class="edge">
<title>Node3&#45;&gt;Node13</title>
<path fill="none" stroke="#404040" d="M197.26,-1068.21C192.45,-1062.42 187.34,-1056.96 181.91,-1052 167.22,-1038.57 156.3,-1046.62 140.91,-1034 124.13,-1020.24 119.44,-1014.7 112.91,-994 92.1,-927.96 88.24,-852.36 91.06,-785.66"/>
<polygon fill="none" stroke="#404040" points="91.07,-785.3 87.37,-779.12 91.66,-773.32 95.36,-779.5 91.07,-785.3"/>
<text text-anchor="middle" x="131.91" y="-929.5" font-family="Helvetica,sans-Serif" font-size="10.00"> &#45;centre</text>
<text text-anchor="middle" x="131.91" y="-918.5" font-family="Helvetica,sans-Serif" font-size="10.00">&#45;tops</text>
<text text-anchor="middle" x="131.91" y="-907.5" font-family="Helvetica,sans-Serif" font-size="10.00">&#45;cuts</text>
</g>
<!-- Node4 -->
<g id="node4" class="node">
<title>Node4</title>
<g id="a_node4"><a xlink:href="class_count.html" target="_top" xlink:title=" ">
<polygon fill="none" stroke="black" points="113.91,-1680.5 113.91,-1803.5 247.91,-1803.5 247.91,-1680.5 113.91,-1680.5"/>
<text text-anchor="start" x="121.91" y="-1791.5" font-family="Helvetica,sans-Serif" font-size="10.00">Count&lt; Vector&lt; double,</text>
<text text-anchor="middle" x="180.91" y="-1780.5" font-family="Helvetica,sans-Serif" font-size="10.00"> SIZE &gt; &gt;</text>
<polyline fill="none" stroke="black" points="113.91,-1773.5 247.91,-1773.5 "/>
<text text-anchor="middle" x="180.91" y="-1761.5" font-family="Helvetica,sans-Serif" font-size="10.00"> </text>
<polyline fill="none" stroke="black" points="113.91,-1754.5 247.91,-1754.5 "/>
<text text-anchor="start" x="121.91" y="-1742.5" font-family="Helvetica,sans-Serif" font-size="10.00">+ Count()</text>
<text text-anchor="start" x="121.91" y="-1731.5" font-family="Helvetica,sans-Serif" font-size="10.00">+ Count()</text>
<text text-anchor="start" x="121.91" y="-1720.5" font-family="Helvetica,sans-Serif" font-size="10.00">+ ~Count()</text>
<text text-anchor="start" x="121.91" y="-1709.5" font-family="Helvetica,sans-Serif" font-size="10.00">+ get_count()</text>
<text text-anchor="start" x="121.91" y="-1698.5" font-family="Helvetica,sans-Serif" font-size="10.00">+ print_count()</text>
<text text-anchor="start" x="121.91" y="-1687.5" font-family="Helvetica,sans-Serif" font-size="10.00">+ zero_count()</text>
</a>
</g>
</g>
<!-- Node4&#45;&gt;Node3 -->
<g id="edge3" class="edge">
<title>Node4&#45;&gt;Node3</title>
<path fill="none" stroke="midnightblue" d="M190.33,-1670.42C202.12,-1582.06 222.56,-1428.93 237.29,-1318.56"/>
<polygon fill="none" stroke="midnightblue" points="186.86,-1669.96 189.01,-1680.34 193.8,-1670.89 186.86,-1669.96"/>
</g>
<!-- Node5 -->
<g id="node5" class="node">
<title>Node5</title>
<g id="a_node5"><a xlink:title=" ">
<polygon fill="none" stroke="#bfbfbf" points="290.41,-2022.5 290.41,-2079.5 349.41,-2079.5 349.41,-2022.5 290.41,-2022.5"/>
<text text-anchor="middle" x="319.91" y="-2067.5" font-family="Helvetica,sans-Serif" font-size="10.00">static int</text>
<polyline fill="none" stroke="#bfbfbf" points="290.41,-2060.5 349.41,-2060.5 "/>
<text text-anchor="middle" x="319.91" y="-2048.5" font-family="Helvetica,sans-Serif" font-size="10.00"> </text>
<polyline fill="none" stroke="#bfbfbf" points="290.41,-2041.5 349.41,-2041.5 "/>
<text text-anchor="middle" x="319.91" y="-2029.5" font-family="Helvetica,sans-Serif" font-size="10.00"> </text>
</a>
</g>
</g>
<!-- Node5&#45;&gt;Node4 -->
<g id="edge4" class="edge">
<title>Node5&#45;&gt;Node4</title>
<path fill="none" stroke="#404040" d="M290.36,-2041.37C256.82,-2029.81 203.69,-2005.77 179.91,-1964 154.55,-1919.47 155.93,-1861.24 163.04,-1815.74"/>
<polygon fill="none" stroke="#404040" points="163.05,-1815.69 160.12,-1809.1 165.07,-1803.86 168.01,-1810.45 163.05,-1815.69"/>
<text text-anchor="middle" x="222.91" y="-1910.5" font-family="Helvetica,sans-Serif" font-size="10.00"> #objects_alive</text>
<text text-anchor="middle" x="222.91" y="-1899.5" font-family="Helvetica,sans-Serif" font-size="10.00">#objects_created</text>
</g>
<!-- Node6 -->
<g id="node6" class="node">
<title>Node6</title>
<g id="a_node6"><a xlink:href="class_count.html" target="_top" xlink:title="Pozwala na liczenie instancji stworzonych obiektow.">
<polygon fill="none" stroke="black" points="274.91,-1851.5 274.91,-1963.5 364.91,-1963.5 364.91,-1851.5 274.91,-1851.5"/>
<text text-anchor="middle" x="319.91" y="-1951.5" font-family="Helvetica,sans-Serif" font-size="10.00">Count&lt; T &gt;</text>
<polyline fill="none" stroke="black" points="274.91,-1944.5 364.91,-1944.5 "/>
<text text-anchor="middle" x="319.91" y="-1932.5" font-family="Helvetica,sans-Serif" font-size="10.00"> </text>
<polyline fill="none" stroke="black" points="274.91,-1925.5 364.91,-1925.5 "/>
<text text-anchor="start" x="282.91" y="-1913.5" font-family="Helvetica,sans-Serif" font-size="10.00">+ Count()</text>
<text text-anchor="start" x="282.91" y="-1902.5" font-family="Helvetica,sans-Serif" font-size="10.00">+ Count()</text>
<text text-anchor="start" x="282.91" y="-1891.5" font-family="Helvetica,sans-Serif" font-size="10.00">+ ~Count()</text>
<text text-anchor="start" x="282.91" y="-1880.5" font-family="Helvetica,sans-Serif" font-size="10.00">+ get_count()</text>
<text text-anchor="start" x="282.91" y="-1869.5" font-family="Helvetica,sans-Serif" font-size="10.00">+ print_count()</text>
<text text-anchor="start" x="282.91" y="-1858.5" font-family="Helvetica,sans-Serif" font-size="10.00">+ zero_count()</text>
</a>
</g>
</g>
<!-- Node5&#45;&gt;Node6 -->
<g id="edge6" class="edge">
<title>Node5&#45;&gt;Node6</title>
<path fill="none" stroke="#404040" d="M319.91,-2022.38C319.91,-2009.05 319.91,-1992.42 319.91,-1976.01"/>
<polygon fill="none" stroke="#404040" points="319.91,-1975.57 315.91,-1969.57 319.91,-1963.57 323.91,-1969.57 319.91,-1975.57"/>
<text text-anchor="middle" x="362.91" y="-1996" font-family="Helvetica,sans-Serif" font-size="10.00"> #objects_alive</text>
<text text-anchor="middle" x="362.91" y="-1985" font-family="Helvetica,sans-Serif" font-size="10.00">#objects_created</text>
</g>
<!-- Node8 -->
<g id="node8" class="node">
<title>Node8</title>
<g id="a_node8"><a xlink:href="class_count.html" target="_top" xlink:title=" ">
<polygon fill="none" stroke="black" points="282.41,-1680.5 282.41,-1803.5 405.41,-1803.5 405.41,-1680.5 282.41,-1680.5"/>
<text text-anchor="start" x="290.41" y="-1791.5" font-family="Helvetica,sans-Serif" font-size="10.00">Count&lt; Vector&lt; type,</text>
<text text-anchor="middle" x="343.91" y="-1780.5" font-family="Helvetica,sans-Serif" font-size="10.00"> SIZE &gt; &gt;</text>
<polyline fill="none" stroke="black" points="282.41,-1773.5 405.41,-1773.5 "/>
<text text-anchor="middle" x="343.91" y="-1761.5" font-family="Helvetica,sans-Serif" font-size="10.00"> </text>
<polyline fill="none" stroke="black" points="282.41,-1754.5 405.41,-1754.5 "/>
<text text-anchor="start" x="290.41" y="-1742.5" font-family="Helvetica,sans-Serif" font-size="10.00">+ Count()</text>
<text text-anchor="start" x="290.41" y="-1731.5" font-family="Helvetica,sans-Serif" font-size="10.00">+ Count()</text>
<text text-anchor="start" x="290.41" y="-1720.5" font-family="Helvetica,sans-Serif" font-size="10.00">+ ~Count()</text>
<text text-anchor="start" x="290.41" y="-1709.5" font-family="Helvetica,sans-Serif" font-size="10.00">+ get_count()</text>
<text text-anchor="start" x="290.41" y="-1698.5" font-family="Helvetica,sans-Serif" font-size="10.00">+ print_count()</text>
<text text-anchor="start" x="290.41" y="-1687.5" font-family="Helvetica,sans-Serif" font-size="10.00">+ zero_count()</text>
</a>
</g>
</g>
<!-- Node5&#45;&gt;Node8 -->
<g id="edge10" class="edge">
<title>Node5&#45;&gt;Node8</title>
<path fill="none" stroke="#404040" d="M349.65,-2041.45C369.3,-2034.37 394.22,-2022.45 409.91,-2004 461.63,-1943.18 452.54,-1911.87 464.91,-1833 465.67,-1828.17 467.72,-1826 464.91,-1822 453.08,-1805.17 439.41,-1813.03 416.49,-1803.65"/>
<polygon fill="none" stroke="#404040" points="416.41,-1803.6 409.25,-1804.48 405.69,-1798.21 412.84,-1797.34 416.41,-1803.6"/>
<text text-anchor="middle" x="505.91" y="-1910.5" font-family="Helvetica,sans-Serif" font-size="10.00"> #objects_alive</text>
<text text-anchor="middle" x="505.91" y="-1899.5" font-family="Helvetica,sans-Serif" font-size="10.00">#objects_created</text>
</g>
<!-- Node6&#45;&gt;Node4 -->
<g id="edge5" class="edge">
<title>Node6&#45;&gt;Node4</title>
<path fill="none" stroke="orange" d="M266.1,-1867.33C256.93,-1861.46 247.32,-1855.78 237.91,-1851 216.86,-1840.3 202.23,-1851.78 187.91,-1833 181.45,-1824.53 177.93,-1814.2 176.24,-1803.61"/>
<polygon fill="orange" stroke="orange" points="264.46,-1870.44 274.75,-1873 268.3,-1864.59 264.46,-1870.44"/>
<text text-anchor="middle" x="257.91" y="-1825" font-family="Helvetica,sans-Serif" font-size="10.00"> &lt; Vector&lt; double, SIZE &gt; &gt;</text>
</g>
<!-- Node6&#45;&gt;Node8 -->
<g id="edge11" class="edge">
<title>Node6&#45;&gt;Node8</title>
<path fill="none" stroke="orange" d="M329.53,-1840.94C331.34,-1828.62 333.23,-1815.79 335.01,-1803.63"/>
<polygon fill="orange" stroke="orange" points="326.03,-1840.74 328.04,-1851.15 332.95,-1841.76 326.03,-1840.74"/>
<text text-anchor="middle" x="396.41" y="-1825" font-family="Helvetica,sans-Serif" font-size="10.00"> &lt; Vector&lt; type, SIZE &gt; &gt;</text>
</g>
<!-- Node7 -->
<g id="node7" class="node">
<title>Node7</title>
<g id="a_node7"><a xlink:href="class_vector.html" target="_top" xlink:title="Opisuje wektor o SIZE&#45;wierszach.">
<polygon fill="none" stroke="black" points="284.41,-1366.5 284.41,-1632.5 403.41,-1632.5 403.41,-1366.5 284.41,-1366.5"/>
<text text-anchor="middle" x="343.91" y="-1620.5" font-family="Helvetica,sans-Serif" font-size="10.00">Vector&lt; type, SIZE &gt;</text>
<polyline fill="none" stroke="black" points="284.41,-1613.5 403.41,-1613.5 "/>
<text text-anchor="middle" x="343.91" y="-1601.5" font-family="Helvetica,sans-Serif" font-size="10.00"> </text>
<polyline fill="none" stroke="black" points="284.41,-1594.5 403.41,-1594.5 "/>
<text text-anchor="start" x="292.41" y="-1582.5" font-family="Helvetica,sans-Serif" font-size="10.00">+ Vector()</text>
<text text-anchor="start" x="292.41" y="-1571.5" font-family="Helvetica,sans-Serif" font-size="10.00">+ Vector()</text>
<text text-anchor="start" x="292.41" y="-1560.5" font-family="Helvetica,sans-Serif" font-size="10.00">+ operator+()</text>
<text text-anchor="start" x="292.41" y="-1549.5" font-family="Helvetica,sans-Serif" font-size="10.00">+ operator&#45;()</text>
<text text-anchor="start" x="292.41" y="-1538.5" font-family="Helvetica,sans-Serif" font-size="10.00">+ operator*()</text>
<text text-anchor="start" x="292.41" y="-1527.5" font-family="Helvetica,sans-Serif" font-size="10.00">+ operator/()</text>
<text text-anchor="start" x="292.41" y="-1516.5" font-family="Helvetica,sans-Serif" font-size="10.00">+ operator==()</text>
<text text-anchor="start" x="292.41" y="-1505.5" font-family="Helvetica,sans-Serif" font-size="10.00">+ scale_vec()</text>
<text text-anchor="start" x="292.41" y="-1494.5" font-family="Helvetica,sans-Serif" font-size="10.00">+ rotate()</text>
<text text-anchor="start" x="292.41" y="-1483.5" font-family="Helvetica,sans-Serif" font-size="10.00">+ modulus2()</text>
<text text-anchor="start" x="292.41" y="-1472.5" font-family="Helvetica,sans-Serif" font-size="10.00">+ get_vec()</text>
<text text-anchor="start" x="292.41" y="-1461.5" font-family="Helvetica,sans-Serif" font-size="10.00">+ get_len()</text>
<text text-anchor="start" x="292.41" y="-1450.5" font-family="Helvetica,sans-Serif" font-size="10.00">+ get_slope_angle()</text>
<text text-anchor="start" x="292.41" y="-1439.5" font-family="Helvetica,sans-Serif" font-size="10.00">+ operator[]()</text>
<text text-anchor="start" x="292.41" y="-1428.5" font-family="Helvetica,sans-Serif" font-size="10.00">+ operator[]()</text>
<text text-anchor="start" x="292.41" y="-1417.5" font-family="Helvetica,sans-Serif" font-size="10.00">+ scalar_prod()</text>
<text text-anchor="start" x="292.41" y="-1406.5" font-family="Helvetica,sans-Serif" font-size="10.00">+ rotate()</text>
<text text-anchor="start" x="292.41" y="-1395.5" font-family="Helvetica,sans-Serif" font-size="10.00">+ get_slope_angle()</text>
<text text-anchor="start" x="292.41" y="-1384.5" font-family="Helvetica,sans-Serif" font-size="10.00">+ rotate()</text>
<text text-anchor="start" x="292.41" y="-1373.5" font-family="Helvetica,sans-Serif" font-size="10.00">+ get_slope_angle()</text>
</a>
</g>
</g>
<!-- Node7&#45;&gt;Node3 -->
<g id="edge8" class="edge">
<title>Node7&#45;&gt;Node3</title>
<path fill="none" stroke="orange" d="M303.41,-1356.53C299.8,-1343.88 296.16,-1331.09 292.57,-1318.52"/>
<polygon fill="orange" stroke="orange" points="300.06,-1357.53 306.17,-1366.18 306.79,-1355.61 300.06,-1357.53"/>
<text text-anchor="middle" x="335.41" y="-1340" font-family="Helvetica,sans-Serif" font-size="10.00"> &lt; double, 3 &gt;</text>
</g>
<!-- Node8&#45;&gt;Node7 -->
<g id="edge9" class="edge">
<title>Node8&#45;&gt;Node7</title>
<path fill="none" stroke="midnightblue" d="M343.91,-1670.05C343.91,-1658.14 343.91,-1645.44 343.91,-1632.56"/>
<polygon fill="none" stroke="midnightblue" points="340.41,-1670.31 343.91,-1680.31 347.41,-1670.31 340.41,-1670.31"/>
</g>
<!-- Node9 -->
<g id="node9" class="node">
<title>Node9</title>
<g id="a_node9"><a xlink:title=" ">
<polygon fill="none" stroke="#bfbfbf" points="423.91,-1713.5 423.91,-1770.5 461.91,-1770.5 461.91,-1713.5 423.91,-1713.5"/>
<text text-anchor="middle" x="442.91" y="-1758.5" font-family="Helvetica,sans-Serif" font-size="10.00">type</text>
<polyline fill="none" stroke="#bfbfbf" points="423.91,-1751.5 461.91,-1751.5 "/>
<text text-anchor="middle" x="442.91" y="-1739.5" font-family="Helvetica,sans-Serif" font-size="10.00"> </text>
<polyline fill="none" stroke="#bfbfbf" points="423.91,-1732.5 461.91,-1732.5 "/>
<text text-anchor="middle" x="442.91" y="-1720.5" font-family="Helvetica,sans-Serif" font-size="10.00"> </text>
</a>
</g>
</g>
<!-- Node9&#45;&gt;Node7 -->
<g id="edge12" class="edge">
<title>Node9&#45;&gt;Node7</title>
<path fill="none" stroke="#404040" d="M431.55,-1713.41C424.18,-1695.49 413.93,-1670.6 403.04,-1644.14"/>
<polygon fill="none" stroke="#404040" points="402.91,-1643.82 396.92,-1639.79 398.34,-1632.72 404.32,-1636.75 402.91,-1643.82"/>
<text text-anchor="middle" x="422.41" y="-1654" font-family="Helvetica,sans-Serif" font-size="10.00"> &#45;size</text>
</g>
<!-- Node10&#45;&gt;Node1 -->
<g id="edge13" class="edge">
<title>Node10&#45;&gt;Node1</title>
<path fill="none" stroke="#404040" d="M254.42,-424.23C252.63,-412.4 250.82,-400.45 249.02,-388.55"/>
<polygon fill="none" stroke="#404040" points="249.02,-388.53 244.16,-383.19 247.22,-376.66 252.07,-382 249.02,-388.53"/>
<text text-anchor="middle" x="266.41" y="-398" font-family="Helvetica,sans-Serif" font-size="10.00"> &#45;body</text>
</g>
<!-- Node11&#45;&gt;Node10 -->
<g id="edge14" class="edge">
<title>Node11&#45;&gt;Node10</title>
<path fill="none" stroke="midnightblue" d="M238.32,-838.52C241.22,-823.17 244.36,-806.57 247.58,-789.54"/>
<polygon fill="none" stroke="midnightblue" points="234.87,-837.94 236.45,-848.42 241.74,-839.25 234.87,-837.94"/>
</g>
<!-- Node11&#45;&gt;Node13 -->
<g id="edge19" class="edge">
<title>Node11&#45;&gt;Node13</title>
<path fill="none" stroke="midnightblue" d="M194.59,-838.94C187.49,-818.62 179.61,-796.07 171.64,-773.25"/>
<polygon fill="none" stroke="midnightblue" points="191.3,-840.13 197.9,-848.42 197.91,-837.83 191.3,-840.13"/>
</g>
<!-- Node12 -->
<g id="node12" class="node">
<title>Node12</title>
<g id="a_node12"><a xlink:title=" ">
<polygon fill="none" stroke="#bfbfbf" points="128.91,-1157 128.91,-1214 172.91,-1214 172.91,-1157 128.91,-1157"/>
<text text-anchor="middle" x="150.91" y="-1202" font-family="Helvetica,sans-Serif" font-size="10.00">string</text>
<polyline fill="none" stroke="#bfbfbf" points="128.91,-1195 172.91,-1195 "/>
<text text-anchor="middle" x="150.91" y="-1183" font-family="Helvetica,sans-Serif" font-size="10.00"> </text>
<polyline fill="none" stroke="#bfbfbf" points="128.91,-1176 172.91,-1176 "/>
<text text-anchor="middle" x="150.91" y="-1164" font-family="Helvetica,sans-Serif" font-size="10.00"> </text>
</a>
</g>
</g>
<!-- Node12&#45;&gt;Node11 -->
<g id="edge16" class="edge">
<title>Node12&#45;&gt;Node11</title>
<path fill="none" stroke="#404040" d="M145.15,-1156.96C139.1,-1122.09 132.65,-1060.69 149.91,-1012 151.24,-1008.26 152.8,-1004.55 154.54,-1000.91"/>
<polygon fill="none" stroke="#404040" points="154.63,-1000.74 153.93,-993.57 160.29,-990.16 160.98,-997.34 154.63,-1000.74"/>
<text text-anchor="middle" x="190.41" y="-1026" font-family="Helvetica,sans-Serif" font-size="10.00"> #sample_name</text>
<text text-anchor="middle" x="190.41" y="-1015" font-family="Helvetica,sans-Serif" font-size="10.00">#final_name</text>
</g>
<!-- Node13&#45;&gt;Node1 -->
<g id="edge18" class="edge">
<title>Node13&#45;&gt;Node1</title>
<path fill="none" stroke="#404040" d="M155.56,-440.79C159.88,-423.64 164.31,-406.08 168.72,-388.61"/>
<polygon fill="none" stroke="#404040" points="168.75,-388.47 166.34,-381.68 171.68,-376.84 174.1,-383.63 168.75,-388.47"/>
<text text-anchor="middle" x="184.91" y="-398" font-family="Helvetica,sans-Serif" font-size="10.00"> &#45;rotors</text>
</g>
</g>
</svg>
        <g id="navigator" transform="translate(0 0)" fill="#404254">
                <rect fill="#f2f5e9" fill-opacity="0.5" stroke="#606060" stroke-width=".5" x="0" y="0" width="60" height="60"/>
                <use id="zoomplus" xlink:href="#zoomPlus" x="17" y="9" onmousedown="handleZoom(evt,'in')"/>
                <use id="zoomminus" xlink:href="#zoomMin" x="42" y="9" onmousedown="handleZoom(evt,'out')"/>
                <use id="reset" xlink:href="#resetDef" x="30" y="36" onmousedown="handleReset()"/>
                <g id="arrowUp" xlink:href="#dirArrow" transform="translate(30 24)" onmousedown="handlePan(0,-1)">
                  <use xlink:href="#rim" fill="#404040">
                        <set attributeName="fill" to="#808080" begin="arrowUp.mouseover" end="arrowUp.mouseout"/>
                  </use>
                  <path fill="none" stroke="white" stroke-width="1.5" d="M0,-3.0v7 M-2.5,-0.5L0,-3.0L2.5,-0.5"/>
                </g>
                <g id="arrowRight" xlink:href="#dirArrow" transform="rotate(90) translate(36 -43)" onmousedown="handlePan(1,0)">
                  <use xlink:href="#rim" fill="#404040">
                        <set attributeName="fill" to="#808080" begin="arrowRight.mouseover" end="arrowRight.mouseout"/>
                  </use>
                  <path fill="none" stroke="white" stroke-width="1.5" d="M0,-3.0v7 M-2.5,-0.5L0,-3.0L2.5,-0.5"/>
                </g>
                <g id="arrowDown" xlink:href="#dirArrow" transform="rotate(180) translate(-30 -48)" onmousedown="handlePan(0,1)">
                  <use xlink:href="#rim" fill="#404040">
                        <set attributeName="fill" to="#808080" begin="arrowDown.mouseover" end="arrowDown.mouseout"/>
                  </use>
                  <path fill="none" stroke="white" stroke-width="1.5" d="M0,-3.0v7 M-2.5,-0.5L0,-3.0L2.5,-0.5"/>
                </g>
                <g id="arrowLeft" xlink:href="#dirArrow" transform="rotate(270) translate(-36 17)" onmousedown="handlePan(-1,0)">
                  <use xlink:href="#rim" fill="#404040">
                        <set attributeName="fill" to="#808080" begin="arrowLeft.mouseover" end="arrowLeft.mouseout"/>
                  </use>
                  <path fill="none" stroke="white" stroke-width="1.5" d="M0,-3.0v7 M-2.5,-0.5L0,-3.0L2.5,-0.5"/>
                </g>
        </g>
        <svg viewBox="0 0 15 15" width="100%" height="30px" preserveAspectRatio="xMaxYMin meet">
         <g id="arrow_out" transform="scale(0.3 0.3)">
          <a xlink:href="class_drone__coll__graph_org.svg" target="_base">
           <rect id="button" ry="5" rx="5" y="6" x="6" height="38" width="38"
                fill="#f2f5e9" fill-opacity="0.5" stroke="#606060" stroke-width="1.0"/>
           <path id="arrow"
             d="M 11.500037,31.436501 C 11.940474,20.09759 22.043105,11.32322 32.158766,21.979434 L 37.068811,17.246167 C 37.068811,17.246167 37.088388,32 37.088388,32 L 22.160133,31.978069 C 22.160133,31.978069 26.997745,27.140456 26.997745,27.140456 C 18.528582,18.264221 13.291696,25.230495 11.500037,31.436501 z"
             style="fill:#404040;"/>
          </a>
         </g>
        </svg>
</svg>
