<?xml version="1.0" encoding="UTF-8" standalone="no"?>
<!DOCTYPE svg PUBLIC "-//W3C//DTD SVG 1.1//EN"
 "http://www.w3.org/Graphics/SVG/1.1/DTD/svg11.dtd">
<!-- Generated by graphviz version 2.43.0 (0)
 -->
<!-- Title: Prism::translation Pages: 1 -->
<!--zoomable 322 -->
<svg id="main" version="1.1" xmlns="http://www.w3.org/2000/svg" xmlns:xlink="http://www.w3.org/1999/xlink" xml:space="preserve" onload="init(evt)">
<style type="text/css"><![CDATA[
.edge:hover path { stroke: red; }
.edge:hover polygon { stroke: red; fill: red; }
]]></style>
<script type="text/javascript"><![CDATA[
var edges = document.getElementsByTagName('g');
if (edges && edges.length) {
  for (var i=0;i<edges.length;i++) {
    if (edges[i].id.substr(0,4)=='edge') {
      edges[i].setAttribute('class','edge');
    }
  }
}
]]></script>
        <defs>
                <circle id="rim" cx="0" cy="0" r="7"/>
                <circle id="rim2" cx="0" cy="0" r="3.5"/>
                <g id="zoomPlus">
                        <use xlink:href="#rim" fill="#404040">
                                <set attributeName="fill" to="#808080" begin="zoomplus.mouseover" end="zoomplus.mouseout"/>
                        </use>
                        <path d="M-4,0h8M0,-4v8" fill="none" stroke="white" stroke-width="1.5" pointer-events="none"/>
                </g>
                <g id="zoomMin">
                        <use xlink:href="#rim" fill="#404040">
                                <set attributeName="fill" to="#808080" begin="zoomminus.mouseover" end="zoomminus.mouseout"/>
                        </use>
                        <path d="M-4,0h8" fill="none" stroke="white" stroke-width="1.5" pointer-events="none"/>
                </g>
                <g id="dirArrow">
                        <path fill="none" stroke="white" stroke-width="1.5" d="M0,-3.0v7 M-2.5,-0.5L0,-3.0L2.5,-0.5"/>
                </g>
               <g id="resetDef">
                       <use xlink:href="#rim2" fill="#404040">
                               <set attributeName="fill" to="#808080" begin="reset.mouseover" end="reset.mouseout"/>
                       </use>
               </g>
        </defs>

<script type="text/javascript">
var viewWidth = 1141;
var viewHeight = 322;
var sectionId = 'dynsection-36';
</script>
<script xlink:href="svgpan.js"/>
<svg id="graph" class="graph">
<g id="viewport">
<title>Prism::translation</title>
<!-- Node1 -->
<g id="node1" class="node">
<title>Node1</title>
<g id="a_node1"><a xlink:title="Metoda przesuwajaca graniastoslup o zadany wektor w 3D">
<polygon fill="#bfbfbf" stroke="black" points="1030,-159.65 1030,-178.65 1133,-178.65 1133,-159.65 1030,-159.65"/>
<text text-anchor="middle" x="1081.5" y="-166.65" font-family="Helvetica,sans-Serif" font-size="10.00">Prism::translation</text>
</a>
</g>
</g>
<!-- Node2 -->
<g id="node2" class="node">
<title>Node2</title>
<g id="a_node2"><a xlink:href="class_prism.html#a22c5467db5d960bddbaf9a52f55c55cb" target="_top" xlink:title="Metoda obracajaca graniastoslup o zadany kat w 3D wokol srodka figury">
<polygon fill="none" stroke="black" points="677,-140.65 677,-159.65 827,-159.65 827,-140.65 677,-140.65"/>
<text text-anchor="middle" x="752" y="-147.65" font-family="Helvetica,sans-Serif" font-size="10.00">Prism::rotation_around_cen</text>
</a>
</g>
</g>
<!-- Node1&#45;&gt;Node2 -->
<g id="edge1" class="edge">
<title>Node1&#45;&gt;Node2</title>
<path fill="none" stroke="midnightblue" d="M1019.49,-165.62C965.04,-162.46 885.17,-157.82 827.07,-154.45"/>
<polygon fill="midnightblue" stroke="midnightblue" points="1019.5,-169.12 1029.69,-166.21 1019.91,-162.13 1019.5,-169.12"/>
</g>
<!-- Node11 -->
<g id="node11" class="node">
<title>Node11</title>
<g id="a_node11"><a xlink:href="class_drone.html#a9684cd7ce04b7e6191f3d6b3a745370b" target="_top" xlink:title="Przesuwa drona o zadany wektor w 3D">
<polygon fill="none" stroke="black" points="876.5,-91.65 876.5,-110.65 980.5,-110.65 980.5,-91.65 876.5,-91.65"/>
<text text-anchor="middle" x="928.5" y="-98.65" font-family="Helvetica,sans-Serif" font-size="10.00">Drone::translation</text>
</a>
</g>
</g>
<!-- Node1&#45;&gt;Node11 -->
<g id="edge17" class="edge">
<title>Node1&#45;&gt;Node11</title>
<path fill="none" stroke="midnightblue" d="M1049.78,-155.32C1020.28,-142.04 976.51,-122.33 950.71,-110.7"/>
<polygon fill="midnightblue" stroke="midnightblue" points="1048.63,-158.64 1059.19,-159.56 1051.5,-152.26 1048.63,-158.64"/>
</g>
<!-- Node14 -->
<g id="node14" class="node">
<title>Node14</title>
<g id="a_node14"><a xlink:href="class_prism.html#a4e2b0b9c37d6a53af869522a4bf364ac" target="_top" xlink:title="Metoda przesuwajaca graniastoslup o zadany wektor w 3D w taki sposob, ze srodek jego dolnej podstawy ...">
<polygon fill="none" stroke="black" points="877,-217.15 877,-247.15 980,-247.15 980,-217.15 877,-217.15"/>
<text text-anchor="start" x="885" y="-235.15" font-family="Helvetica,sans-Serif" font-size="10.00">Prism::translation</text>
<text text-anchor="middle" x="928.5" y="-224.15" font-family="Helvetica,sans-Serif" font-size="10.00">_of_lower_cen</text>
</a>
</g>
</g>
<!-- Node1&#45;&gt;Node14 -->
<g id="edge24" class="edge">
<title>Node1&#45;&gt;Node14</title>
<path fill="none" stroke="midnightblue" d="M1050.1,-182.9C1033.58,-190.27 1012.75,-199.4 994,-207.15 986.01,-210.46 977.41,-213.88 969.18,-217.09"/>
<polygon fill="midnightblue" stroke="midnightblue" points="1051.59,-186.07 1059.28,-178.79 1048.73,-179.68 1051.59,-186.07"/>
</g>
<!-- Node16 -->
<g id="node16" class="node">
<title>Node16</title>
<g id="a_node16"><a xlink:href="class_prism.html#afed2c26932d5cb152fd620d2acbfbc3e" target="_top" xlink:title="Metoda przesuwajaca graniastoslup do srodka ukladu wspolrzednych (tak, ze srodek graniastoslupa pokry...">
<polygon fill="none" stroke="black" points="863,-178.65 863,-197.65 994,-197.65 994,-178.65 863,-178.65"/>
<text text-anchor="middle" x="928.5" y="-185.65" font-family="Helvetica,sans-Serif" font-size="10.00">Prism::translation_to_O</text>
</a>
</g>
</g>
<!-- Node1&#45;&gt;Node16 -->
<g id="edge29" class="edge">
<title>Node1&#45;&gt;Node16</title>
<path fill="none" stroke="midnightblue" d="M1019.66,-176.81C1011.21,-177.87 1002.52,-178.97 994.01,-180.04"/>
<polygon fill="midnightblue" stroke="midnightblue" points="1020.31,-180.26 1029.8,-175.53 1019.44,-173.31 1020.31,-180.26"/>
</g>
<!-- Node3 -->
<g id="node3" class="node">
<title>Node3</title>
<g id="a_node3"><a xlink:href="class_drone.html#ad42bc54902df967b94717617aca1a974" target="_top" xlink:title="Metoda obracajaca dron o zadany kat w 3D wokol srodka figury">
<polygon fill="none" stroke="black" points="489,-199.65 489,-218.65 641,-218.65 641,-199.65 489,-199.65"/>
<text text-anchor="middle" x="565" y="-206.65" font-family="Helvetica,sans-Serif" font-size="10.00">Drone::rotation_around_cen</text>
</a>
</g>
</g>
<!-- Node2&#45;&gt;Node3 -->
<g id="edge2" class="edge">
<title>Node2&#45;&gt;Node3</title>
<path fill="none" stroke="midnightblue" d="M695.71,-162.54C689.32,-164.51 682.96,-166.71 677,-169.15 659.87,-176.19 658.15,-183.14 641,-190.15 631.92,-193.87 621.93,-197 612.27,-199.6"/>
<polygon fill="midnightblue" stroke="midnightblue" points="697.1,-165.79 705.74,-159.66 695.16,-159.06 697.1,-165.79"/>
</g>
<!-- Node10 -->
<g id="node10" class="node">
<title>Node10</title>
<g id="a_node10"><a xlink:href="class_drone.html#aedb04b80609b22ff4eb4a957bc149a48" target="_top" xlink:title="Metoda animujaca obrot rotorow i zapisujaca to w plikach. Metoda sluzy jako metoda pomocnicza,...">
<polygon fill="none" stroke="black" points="326,-82.15 326,-112.15 453,-112.15 453,-82.15 326,-82.15"/>
<text text-anchor="start" x="334" y="-100.15" font-family="Helvetica,sans-Serif" font-size="10.00">Drone::Rotors_rotation</text>
<text text-anchor="middle" x="389.5" y="-89.15" font-family="Helvetica,sans-Serif" font-size="10.00">_animation</text>
</a>
</g>
</g>
<!-- Node2&#45;&gt;Node10 -->
<g id="edge12" class="edge">
<title>Node2&#45;&gt;Node10</title>
<path fill="none" stroke="midnightblue" d="M676.21,-139.16C610.2,-129.45 515.08,-115.47 453.04,-106.35"/>
<polygon fill="midnightblue" stroke="midnightblue" points="675.73,-142.63 686.13,-140.62 676.75,-135.7 675.73,-142.63"/>
</g>
<!-- Node4 -->
<g id="node4" class="node">
<title>Node4</title>
<g id="a_node4"><a xlink:href="class_drone.html#ab692baa4be5c43b72990ce1b01bdc805" target="_top" xlink:title="Konstruktor bezparametryczny klasy Drone. Powstaly dron jest skonstruowany z bezparametrycznych prost...">
<polygon fill="none" stroke="black" points="349,-294.65 349,-313.65 430,-313.65 430,-294.65 349,-294.65"/>
<text text-anchor="middle" x="389.5" y="-301.65" font-family="Helvetica,sans-Serif" font-size="10.00">Drone::Drone</text>
</a>
</g>
</g>
<!-- Node3&#45;&gt;Node4 -->
<g id="edge3" class="edge">
<title>Node3&#45;&gt;Node4</title>
<path fill="none" stroke="midnightblue" d="M509.27,-222.3C502.12,-225.25 495.15,-228.83 489,-233.15 467.48,-248.3 474.08,-264.4 453,-280.15 444.81,-286.28 434.86,-291.03 425.34,-294.62"/>
<polygon fill="midnightblue" stroke="midnightblue" points="510.92,-225.42 519.08,-218.66 508.48,-218.86 510.92,-225.42"/>
</g>
<!-- Node5 -->
<g id="node5" class="node">
<title>Node5</title>
<g id="a_node5"><a xlink:href="class_drone.html#af03af60a9b92e4191a7e66b5c20b52bb" target="_top" xlink:title="Metoda zamieniajaca drona na tego z pliku sample.">
<polygon fill="none" stroke="black" points="328.5,-131.15 328.5,-161.15 450.5,-161.15 450.5,-131.15 328.5,-131.15"/>
<text text-anchor="start" x="336.5" y="-149.15" font-family="Helvetica,sans-Serif" font-size="10.00">Drone::Drone_change</text>
<text text-anchor="middle" x="389.5" y="-138.15" font-family="Helvetica,sans-Serif" font-size="10.00">_to_sample</text>
</a>
</g>
</g>
<!-- Node3&#45;&gt;Node5 -->
<g id="edge4" class="edge">
<title>Node3&#45;&gt;Node5</title>
<path fill="none" stroke="midnightblue" d="M509.07,-196.85C502.23,-194.85 495.4,-192.61 489,-190.15 472.11,-183.67 469.42,-178.75 453,-171.15 445.68,-167.77 437.77,-164.39 430.11,-161.27"/>
<polygon fill="midnightblue" stroke="midnightblue" points="508.47,-200.32 519.04,-199.61 510.34,-193.57 508.47,-200.32"/>
</g>
<!-- Node7 -->
<g id="node7" class="node">
<title>Node7</title>
<g id="a_node7"><a xlink:href="class_drone.html#af052f6bb793d1229b99b16b800b95b82" target="_top" xlink:title="Metoda animujaca obrot drona i wyrysowujaca calosc w gnuplocie.">
<polygon fill="none" stroke="black" points="156.5,-132.15 156.5,-162.15 281.5,-162.15 281.5,-132.15 156.5,-132.15"/>
<text text-anchor="start" x="164.5" y="-150.15" font-family="Helvetica,sans-Serif" font-size="10.00">Drone::Drone_rotation</text>
<text text-anchor="middle" x="219" y="-139.15" font-family="Helvetica,sans-Serif" font-size="10.00">_animation</text>
</a>
</g>
</g>
<!-- Node3&#45;&gt;Node7 -->
<g id="edge10" class="edge">
<title>Node3&#45;&gt;Node7</title>
<path fill="none" stroke="midnightblue" d="M525.66,-221.84C499.47,-230.25 467.07,-240.11 453,-242.15 397.14,-250.28 378.72,-262.32 326,-242.15 283.99,-226.09 248.14,-184.85 230.92,-162.35"/>
<polygon fill="midnightblue" stroke="midnightblue" points="526.9,-225.11 535.34,-218.7 524.75,-218.45 526.9,-225.11"/>
</g>
<!-- Node8 -->
<g id="node8" class="node">
<title>Node8</title>
<g id="a_node8"><a xlink:href="class_drone.html#ab7808296cec81143dbddd7516340a371" target="_top" xlink:title="Metoda robiaca &quot;oblot&quot; drona wokol punktu (z modyfikacji)">
<polygon fill="none" stroke="black" points="148,-93.65 148,-112.65 290,-112.65 290,-93.65 148,-93.65"/>
<text text-anchor="middle" x="219" y="-100.65" font-family="Helvetica,sans-Serif" font-size="10.00">Drone::Drone_roundabout</text>
</a>
</g>
</g>
<!-- Node3&#45;&gt;Node8 -->
<g id="edge11" class="edge">
<title>Node3&#45;&gt;Node8</title>
<path fill="none" stroke="midnightblue" d="M524.79,-221.45C474.25,-234.75 385.78,-249.11 326,-209.15 291.21,-185.9 321.41,-149.8 290,-122.15 285.65,-118.33 280.61,-115.26 275.25,-112.81"/>
<polygon fill="midnightblue" stroke="midnightblue" points="525.96,-224.76 534.68,-218.73 524.11,-218.01 525.96,-224.76"/>
</g>
<!-- Node6 -->
<g id="node6" class="node">
<title>Node6</title>
<g id="a_node6"><a xlink:href="class_drone.html#ac4d24c27fb2c107d2e8bda0c2bf5cfa1" target="_top" xlink:title="Metoda obliczajaca i przeprowadzajaca caly ruch drona (obrot o kat i przelot z zadania 5....">
<polygon fill="none" stroke="black" points="0,-66.15 0,-96.15 112,-96.15 112,-66.15 0,-66.15"/>
<text text-anchor="start" x="8" y="-84.15" font-family="Helvetica,sans-Serif" font-size="10.00">Drone::Drone_basic</text>
<text text-anchor="middle" x="56" y="-73.15" font-family="Helvetica,sans-Serif" font-size="10.00">_motion</text>
</a>
</g>
</g>
<!-- Node5&#45;&gt;Node6 -->
<g id="edge5" class="edge">
<title>Node5&#45;&gt;Node6</title>
<path fill="none" stroke="midnightblue" d="M340.22,-164.33C290.22,-180.19 210.79,-196.96 148,-171.15 111.01,-155.95 81.05,-117.63 66.52,-96.22"/>
<polygon fill="midnightblue" stroke="midnightblue" points="341.4,-167.63 349.81,-161.18 339.22,-160.97 341.4,-167.63"/>
</g>
<!-- Node5&#45;&gt;Node7 -->
<g id="edge6" class="edge">
<title>Node5&#45;&gt;Node7</title>
<path fill="none" stroke="midnightblue" d="M318.09,-146.57C305.99,-146.64 293.49,-146.72 281.64,-146.79"/>
<polygon fill="midnightblue" stroke="midnightblue" points="318.16,-150.07 328.14,-146.51 318.12,-143.07 318.16,-150.07"/>
</g>
<!-- Node5&#45;&gt;Node8 -->
<g id="edge8" class="edge">
<title>Node5&#45;&gt;Node8</title>
<path fill="none" stroke="midnightblue" d="M319.86,-128.64C298.48,-123.18 275.7,-117.37 257.31,-112.68"/>
<polygon fill="midnightblue" stroke="midnightblue" points="319.01,-132.03 329.57,-131.12 320.74,-125.25 319.01,-132.03"/>
</g>
<!-- Node9 -->
<g id="node9" class="node">
<title>Node9</title>
<g id="a_node9"><a xlink:href="class_drone.html#a5fc9dd645ad3856b5d3c501c63c464e3" target="_top" xlink:title="Metoda animujaca translacje drona i wyrysowujaca calosc w gnuplocie.">
<polygon fill="none" stroke="black" points="149.5,-44.15 149.5,-74.15 288.5,-74.15 288.5,-44.15 149.5,-44.15"/>
<text text-anchor="start" x="157.5" y="-62.15" font-family="Helvetica,sans-Serif" font-size="10.00">Drone::Drone_translation</text>
<text text-anchor="middle" x="219" y="-51.15" font-family="Helvetica,sans-Serif" font-size="10.00">_animation</text>
</a>
</g>
</g>
<!-- Node5&#45;&gt;Node9 -->
<g id="edge9" class="edge">
<title>Node5&#45;&gt;Node9</title>
<path fill="none" stroke="midnightblue" d="M334.99,-126.56C331.88,-124.87 328.85,-123.06 326,-121.15 306.93,-108.39 309.3,-96.56 290,-84.15 284.14,-80.39 277.63,-77.1 271.02,-74.25"/>
<polygon fill="midnightblue" stroke="midnightblue" points="333.44,-129.7 343.95,-131.04 336.57,-123.43 333.44,-129.7"/>
</g>
<!-- Node7&#45;&gt;Node6 -->
<g id="edge7" class="edge">
<title>Node7&#45;&gt;Node6</title>
<path fill="none" stroke="midnightblue" d="M164.65,-128.6C159,-126.49 153.37,-124.32 148,-122.15 128.07,-114.12 106.1,-104.25 88.74,-96.21"/>
<polygon fill="midnightblue" stroke="midnightblue" points="163.51,-131.92 174.11,-132.09 165.93,-125.35 163.51,-131.92"/>
</g>
<!-- Node10&#45;&gt;Node6 -->
<g id="edge13" class="edge">
<title>Node10&#45;&gt;Node6</title>
<path fill="none" stroke="midnightblue" d="M363.75,-75.61C344.94,-60.74 317.66,-42.24 290,-34.15 229.43,-16.44 209.33,-19.25 148,-34.15 122.77,-40.28 96.72,-54.71 78.99,-65.97"/>
<polygon fill="midnightblue" stroke="midnightblue" points="361.55,-78.34 371.52,-81.93 365.97,-72.9 361.55,-78.34"/>
</g>
<!-- Node10&#45;&gt;Node7 -->
<g id="edge14" class="edge">
<title>Node10&#45;&gt;Node7</title>
<path fill="none" stroke="midnightblue" d="M328.29,-115.02C309.47,-120.6 288.91,-126.71 270.81,-132.08"/>
<polygon fill="midnightblue" stroke="midnightblue" points="329.35,-118.36 337.94,-112.16 327.36,-111.65 329.35,-118.36"/>
</g>
<!-- Node10&#45;&gt;Node8 -->
<g id="edge15" class="edge">
<title>Node10&#45;&gt;Node8</title>
<path fill="none" stroke="midnightblue" d="M315.57,-99.75C307.14,-100.05 298.56,-100.36 290.16,-100.66"/>
<polygon fill="midnightblue" stroke="midnightblue" points="315.89,-103.24 325.76,-99.39 315.64,-96.25 315.89,-103.24"/>
</g>
<!-- Node10&#45;&gt;Node9 -->
<g id="edge16" class="edge">
<title>Node10&#45;&gt;Node9</title>
<path fill="none" stroke="midnightblue" d="M315.8,-80.76C306.15,-78.58 296.29,-76.36 286.75,-74.21"/>
<polygon fill="midnightblue" stroke="midnightblue" points="315.23,-84.22 325.76,-83 316.77,-77.39 315.23,-84.22"/>
</g>
<!-- Node12 -->
<g id="node12" class="node">
<title>Node12</title>
<g id="a_node12"><a xlink:href="class_drone.html#a6662bd8203e8c9a0721c457b3612a7c1" target="_top" xlink:title="Metoda uzywana przy konstruowania drona przesuwa drona w ten sposob, ze Vector3D centre prostopadlosc...">
<polygon fill="none" stroke="black" points="513,-38.15 513,-68.15 617,-68.15 617,-38.15 513,-38.15"/>
<text text-anchor="start" x="521" y="-56.15" font-family="Helvetica,sans-Serif" font-size="10.00">Drone::translation</text>
<text text-anchor="middle" x="565" y="-45.15" font-family="Helvetica,sans-Serif" font-size="10.00">_to_pos</text>
</a>
</g>
</g>
<!-- Node11&#45;&gt;Node12 -->
<g id="edge18" class="edge">
<title>Node11&#45;&gt;Node12</title>
<path fill="none" stroke="midnightblue" d="M866.46,-93.05C796.37,-83.74 682.65,-68.64 617.06,-59.93"/>
<polygon fill="midnightblue" stroke="midnightblue" points="866.1,-96.53 876.47,-94.38 867.02,-89.59 866.1,-96.53"/>
</g>
<!-- Node12&#45;&gt;Node5 -->
<g id="edge20" class="edge">
<title>Node12&#45;&gt;Node5</title>
<path fill="none" stroke="midnightblue" d="M533.17,-74C511.33,-88.27 481.05,-107.08 453,-121.15 446,-124.67 438.39,-128.05 430.95,-131.14"/>
<polygon fill="midnightblue" stroke="midnightblue" points="535.26,-76.81 541.69,-68.38 531.41,-70.96 535.26,-76.81"/>
</g>
<!-- Node12&#45;&gt;Node6 -->
<g id="edge19" class="edge">
<title>Node12&#45;&gt;Node6</title>
<path fill="none" stroke="midnightblue" d="M507.79,-35.19C426.45,-12.12 272.06,20.6 148,-18.15 118.1,-27.49 89.39,-50.48 72.47,-65.95"/>
<polygon fill="midnightblue" stroke="midnightblue" points="507.24,-38.67 517.82,-38.09 509.19,-31.95 507.24,-38.67"/>
</g>
<!-- Node12&#45;&gt;Node8 -->
<g id="edge21" class="edge">
<title>Node12&#45;&gt;Node8</title>
<path fill="none" stroke="midnightblue" d="M502.97,-54.39C454.6,-56.24 385.49,-60.83 326,-72.15 309.56,-75.28 306.04,-78.41 290,-83.15 278.24,-86.63 265.35,-90.34 253.86,-93.61"/>
<polygon fill="midnightblue" stroke="midnightblue" points="503.1,-57.89 512.97,-54.04 502.85,-50.89 503.1,-57.89"/>
</g>
<!-- Node12&#45;&gt;Node9 -->
<g id="edge22" class="edge">
<title>Node12&#45;&gt;Node9</title>
<path fill="none" stroke="midnightblue" d="M502.4,-43.99C486.35,-41.99 469.06,-40.16 453,-39.15 396.67,-35.62 382.2,-33.9 326,-39.15 313.88,-40.29 301.08,-42.14 288.73,-44.26"/>
<polygon fill="midnightblue" stroke="midnightblue" points="502.37,-47.51 512.73,-45.33 503.26,-40.57 502.37,-47.51"/>
</g>
<!-- Node13 -->
<g id="node13" class="node">
<title>Node13</title>
<g id="a_node13"><a xlink:href="class_scene.html#a22d8bf855d72be0064265c93562b6bb1" target="_top" xlink:title="Konstruktor paramereyczny klasy Scene.">
<polygon fill="none" stroke="black" points="349,-180.65 349,-199.65 430,-199.65 430,-180.65 349,-180.65"/>
<text text-anchor="middle" x="389.5" y="-187.65" font-family="Helvetica,sans-Serif" font-size="10.00">Scene::Scene</text>
</a>
</g>
</g>
<!-- Node12&#45;&gt;Node13 -->
<g id="edge23" class="edge">
<title>Node12&#45;&gt;Node13</title>
<path fill="none" stroke="midnightblue" d="M547.48,-76.68C527.82,-103.02 492.63,-145.27 453,-170.15 446.05,-174.52 438.07,-178.01 430.18,-180.77"/>
<polygon fill="midnightblue" stroke="midnightblue" points="550.45,-78.54 553.53,-68.4 544.8,-74.4 550.45,-78.54"/>
</g>
<!-- Node15 -->
<g id="node15" class="node">
<title>Node15</title>
<g id="a_node15"><a xlink:href="class_drone.html#aea963b77f42c204504542a3d9190d762" target="_top" xlink:title="Metoda uzywana przy konstruowania drona Ustawia rotory w ten sposob, ze srodek ich dolnej podstawy je...">
<polygon fill="none" stroke="black" points="694.5,-252.15 694.5,-282.15 809.5,-282.15 809.5,-252.15 694.5,-252.15"/>
<text text-anchor="start" x="702.5" y="-270.15" font-family="Helvetica,sans-Serif" font-size="10.00">Drone::set_rotors_in</text>
<text text-anchor="middle" x="752" y="-259.15" font-family="Helvetica,sans-Serif" font-size="10.00">_place</text>
</a>
</g>
</g>
<!-- Node14&#45;&gt;Node15 -->
<g id="edge25" class="edge">
<title>Node14&#45;&gt;Node15</title>
<path fill="none" stroke="midnightblue" d="M866.73,-244.34C848.15,-248.07 827.8,-252.15 809.51,-255.82"/>
<polygon fill="midnightblue" stroke="midnightblue" points="867.44,-247.77 876.56,-242.37 866.07,-240.91 867.44,-247.77"/>
</g>
<!-- Node15&#45;&gt;Node3 -->
<g id="edge27" class="edge">
<title>Node15&#45;&gt;Node3</title>
<path fill="none" stroke="midnightblue" d="M693.17,-249.02C661.17,-238.99 622.69,-226.93 596.5,-218.72"/>
<polygon fill="midnightblue" stroke="midnightblue" points="692.29,-252.42 702.88,-252.07 694.38,-245.74 692.29,-252.42"/>
</g>
<!-- Node15&#45;&gt;Node4 -->
<g id="edge26" class="edge">
<title>Node15&#45;&gt;Node4</title>
<path fill="none" stroke="midnightblue" d="M699.45,-285.19C681.22,-290.75 660.42,-296.19 641,-299.15 567.26,-310.42 479.89,-308.83 430.26,-306.56"/>
<polygon fill="midnightblue" stroke="midnightblue" points="700.52,-288.52 709.01,-282.19 698.42,-281.84 700.52,-288.52"/>
</g>
<!-- Node15&#45;&gt;Node13 -->
<g id="edge28" class="edge">
<title>Node15&#45;&gt;Node13</title>
<path fill="none" stroke="midnightblue" d="M684.27,-261.32C630.83,-255.67 554.27,-245.38 489,-228.15 461.35,-220.86 430.82,-208.34 411.19,-199.68"/>
<polygon fill="midnightblue" stroke="midnightblue" points="684,-264.81 694.31,-262.36 684.72,-257.85 684,-264.81"/>
</g>
<!-- Node16&#45;&gt;Node2 -->
<g id="edge30" class="edge">
<title>Node16&#45;&gt;Node2</title>
<path fill="none" stroke="midnightblue" d="M873.53,-176.4C848.86,-171.03 820.01,-164.75 796.72,-159.67"/>
<polygon fill="midnightblue" stroke="midnightblue" points="872.95,-179.86 883.47,-178.57 874.44,-173.02 872.95,-179.86"/>
</g>
<!-- Node17 -->
<g id="node17" class="node">
<title>Node17</title>
<g id="a_node17"><a xlink:href="class_prism.html#a07f15c416c9f9c54390bb8737b441a35" target="_top" xlink:title="Metoda skalujaca o wektor scale bedacy czlonkiem klasy block">
<polygon fill="none" stroke="black" points="705,-178.65 705,-197.65 799,-197.65 799,-178.65 705,-178.65"/>
<text text-anchor="middle" x="752" y="-185.65" font-family="Helvetica,sans-Serif" font-size="10.00">Prism::scale_pri</text>
</a>
</g>
</g>
<!-- Node16&#45;&gt;Node17 -->
<g id="edge31" class="edge">
<title>Node16&#45;&gt;Node17</title>
<path fill="none" stroke="midnightblue" d="M852.3,-188.15C834.26,-188.15 815.51,-188.15 799.24,-188.15"/>
<polygon fill="midnightblue" stroke="midnightblue" points="852.52,-191.65 862.52,-188.15 852.52,-184.65 852.52,-191.65"/>
</g>
<!-- Node17&#45;&gt;Node4 -->
<g id="edge32" class="edge">
<title>Node17&#45;&gt;Node4</title>
<path fill="none" stroke="midnightblue" d="M716.4,-201.28C694.82,-209.33 666.41,-219.69 641,-228.15 563.82,-253.87 472.1,-280.78 423.91,-294.64"/>
<polygon fill="midnightblue" stroke="midnightblue" points="717.66,-204.55 725.8,-197.76 715.2,-197.99 717.66,-204.55"/>
</g>
<!-- Node18 -->
<g id="node18" class="node">
<title>Node18</title>
<g id="a_node18"><a xlink:href="class_drone.html#a77142062fb8a8af87df42b5c2e7e44e0" target="_top" xlink:title="Metoda skalujaca wszystkie elementy drona przez skale kazdego elementu">
<polygon fill="none" stroke="black" points="516,-161.65 516,-180.65 614,-180.65 614,-161.65 516,-161.65"/>
<text text-anchor="middle" x="565" y="-168.65" font-family="Helvetica,sans-Serif" font-size="10.00">Drone::scale_dro</text>
</a>
</g>
</g>
<!-- Node17&#45;&gt;Node18 -->
<g id="edge33" class="edge">
<title>Node17&#45;&gt;Node18</title>
<path fill="none" stroke="midnightblue" d="M694.8,-182.99C669.07,-180.63 638.88,-177.85 614.2,-175.58"/>
<polygon fill="midnightblue" stroke="midnightblue" points="694.52,-186.48 704.79,-183.91 695.16,-179.51 694.52,-186.48"/>
</g>
<!-- Node18&#45;&gt;Node13 -->
<g id="edge34" class="edge">
<title>Node18&#45;&gt;Node13</title>
<path fill="none" stroke="midnightblue" d="M505.62,-177.55C480.78,-180.27 452.44,-183.37 430.1,-185.82"/>
<polygon fill="midnightblue" stroke="midnightblue" points="506.11,-181.02 515.67,-176.45 505.35,-174.06 506.11,-181.02"/>
</g>
</g>
</svg>
        <g id="navigator" transform="translate(0 0)" fill="#404254">
                <rect fill="#f2f5e9" fill-opacity="0.5" stroke="#606060" stroke-width=".5" x="0" y="0" width="60" height="60"/>
                <use id="zoomplus" xlink:href="#zoomPlus" x="17" y="9" onmousedown="handleZoom(evt,'in')"/>
                <use id="zoomminus" xlink:href="#zoomMin" x="42" y="9" onmousedown="handleZoom(evt,'out')"/>
                <use id="reset" xlink:href="#resetDef" x="30" y="36" onmousedown="handleReset()"/>
                <g id="arrowUp" xlink:href="#dirArrow" transform="translate(30 24)" onmousedown="handlePan(0,-1)">
                  <use xlink:href="#rim" fill="#404040">
                        <set attributeName="fill" to="#808080" begin="arrowUp.mouseover" end="arrowUp.mouseout"/>
                  </use>
                  <path fill="none" stroke="white" stroke-width="1.5" d="M0,-3.0v7 M-2.5,-0.5L0,-3.0L2.5,-0.5"/>
                </g>
                <g id="arrowRight" xlink:href="#dirArrow" transform="rotate(90) translate(36 -43)" onmousedown="handlePan(1,0)">
                  <use xlink:href="#rim" fill="#404040">
                        <set attributeName="fill" to="#808080" begin="arrowRight.mouseover" end="arrowRight.mouseout"/>
                  </use>
                  <path fill="none" stroke="white" stroke-width="1.5" d="M0,-3.0v7 M-2.5,-0.5L0,-3.0L2.5,-0.5"/>
                </g>
                <g id="arrowDown" xlink:href="#dirArrow" transform="rotate(180) translate(-30 -48)" onmousedown="handlePan(0,1)">
                  <use xlink:href="#rim" fill="#404040">
                        <set attributeName="fill" to="#808080" begin="arrowDown.mouseover" end="arrowDown.mouseout"/>
                  </use>
                  <path fill="none" stroke="white" stroke-width="1.5" d="M0,-3.0v7 M-2.5,-0.5L0,-3.0L2.5,-0.5"/>
                </g>
                <g id="arrowLeft" xlink:href="#dirArrow" transform="rotate(270) translate(-36 17)" onmousedown="handlePan(-1,0)">
                  <use xlink:href="#rim" fill="#404040">
                        <set attributeName="fill" to="#808080" begin="arrowLeft.mouseover" end="arrowLeft.mouseout"/>
                  </use>
                  <path fill="none" stroke="white" stroke-width="1.5" d="M0,-3.0v7 M-2.5,-0.5L0,-3.0L2.5,-0.5"/>
                </g>
        </g>
        <svg viewBox="0 0 15 15" width="100%" height="30px" preserveAspectRatio="xMaxYMin meet">
         <g id="arrow_out" transform="scale(0.3 0.3)">
          <a xlink:href="class_prism_ade146d341c0468030f8c1258b7fe1041_icgraph_org.svg" target="_base">
           <rect id="button" ry="5" rx="5" y="6" x="6" height="38" width="38"
                fill="#f2f5e9" fill-opacity="0.5" stroke="#606060" stroke-width="1.0"/>
           <path id="arrow"
             d="M 11.500037,31.436501 C 11.940474,20.09759 22.043105,11.32322 32.158766,21.979434 L 37.068811,17.246167 C 37.068811,17.246167 37.088388,32 37.088388,32 L 22.160133,31.978069 C 22.160133,31.978069 26.997745,27.140456 26.997745,27.140456 C 18.528582,18.264221 13.291696,25.230495 11.500037,31.436501 z"
             style="fill:#404040;"/>
          </a>
         </g>
        </svg>
</svg>
