<?xml version="1.0" encoding="UTF-8" standalone="no"?>
<!DOCTYPE svg PUBLIC "-//W3C//DTD SVG 1.1//EN"
 "http://www.w3.org/Graphics/SVG/1.1/DTD/svg11.dtd">
<!-- Generated by graphviz version 2.43.0 (0)
 -->
<!-- Title: Menu::switch_menu Pages: 1 -->
<svg width="449pt" height="218pt"
 viewBox="0.00 0.00 449.00 218.00" xmlns="http://www.w3.org/2000/svg" xmlns:xlink="http://www.w3.org/1999/xlink">
<g id="graph0" class="graph" transform="scale(1 1) rotate(0) translate(4 214)">
<title>Menu::switch_menu</title>
<!-- Node1 -->
<g id="node1" class="node">
<title>Node1</title>
<g id="a_node1"><a xlink:title="Obsluguje wybor menu.">
<polygon fill="#bfbfbf" stroke="black" points="0,-95.5 0,-114.5 114,-114.5 114,-95.5 0,-95.5"/>
<text text-anchor="middle" x="57" y="-102.5" font-family="Helvetica,sans-Serif" font-size="10.00">Menu::switch_menu</text>
</a>
</g>
</g>
<!-- Node2 -->
<g id="node2" class="node">
<title>Node2</title>
<g id="a_node2"><a xlink:href="class_scene.html#a87ef7448b3e6e883460ba41ef590f24f" target="_top" xlink:title="Metoda pozwalajaca na wybor aktywnego drona.">
<polygon fill="none" stroke="black" points="153,-190.5 153,-209.5 272,-209.5 272,-190.5 153,-190.5"/>
<text text-anchor="middle" x="212.5" y="-197.5" font-family="Helvetica,sans-Serif" font-size="10.00">Scene::choose_drone</text>
</a>
</g>
</g>
<!-- Node1&#45;&gt;Node2 -->
<g id="edge1" class="edge">
<title>Node1&#45;&gt;Node2</title>
<path fill="none" stroke="midnightblue" d="M67.02,-114.58C82.53,-130.53 115.91,-162.6 150,-181 154.04,-183.18 158.36,-185.15 162.77,-186.92"/>
<polygon fill="midnightblue" stroke="midnightblue" points="161.91,-190.33 172.51,-190.48 164.32,-183.76 161.91,-190.33"/>
</g>
<!-- Node3 -->
<g id="node3" class="node">
<title>Node3</title>
<g id="a_node3"><a xlink:href="class_scene.html#a5fb0b9741a75dec929b5ea5d6ac917a1" target="_top" xlink:title="Przelot aktywnego drona.">
<polygon fill="none" stroke="black" points="180.5,-152.5 180.5,-171.5 244.5,-171.5 244.5,-152.5 180.5,-152.5"/>
<text text-anchor="middle" x="212.5" y="-159.5" font-family="Helvetica,sans-Serif" font-size="10.00">Scene::fly</text>
</a>
</g>
</g>
<!-- Node1&#45;&gt;Node3 -->
<g id="edge2" class="edge">
<title>Node1&#45;&gt;Node3</title>
<path fill="none" stroke="midnightblue" d="M79.71,-114.63C98.22,-122.68 125.61,-134.22 150,-143 156.57,-145.37 163.6,-147.71 170.46,-149.9"/>
<polygon fill="midnightblue" stroke="midnightblue" points="169.76,-153.34 180.34,-152.98 171.84,-146.66 169.76,-153.34"/>
</g>
<!-- Node4 -->
<g id="node4" class="node">
<title>Node4</title>
<g id="a_node4"><a xlink:href="class_scene.html#a2a51a641e755111d4a0574ba721dddc3" target="_top" xlink:title="Przelot aktywnego drona.">
<polygon fill="none" stroke="black" points="150,-114.5 150,-133.5 275,-133.5 275,-114.5 150,-114.5"/>
<text text-anchor="middle" x="212.5" y="-121.5" font-family="Helvetica,sans-Serif" font-size="10.00">Scene::fly_roundabout</text>
</a>
</g>
</g>
<!-- Node1&#45;&gt;Node4 -->
<g id="edge3" class="edge">
<title>Node1&#45;&gt;Node4</title>
<path fill="none" stroke="midnightblue" d="M114.29,-111.97C122.59,-112.99 131.24,-114.06 139.8,-115.12"/>
<polygon fill="midnightblue" stroke="midnightblue" points="139.43,-118.61 149.79,-116.36 140.29,-111.66 139.43,-118.61"/>
</g>
<!-- Node5 -->
<g id="node5" class="node">
<title>Node5</title>
<g id="a_node5"><a xlink:href="class_scene.html#a22b1902bbd3a21c3fc62251c123a8407" target="_top" xlink:title="Wypisuje polozenie aktywnego drona.">
<polygon fill="none" stroke="black" points="157.5,-76.5 157.5,-95.5 267.5,-95.5 267.5,-76.5 157.5,-76.5"/>
<text text-anchor="middle" x="212.5" y="-83.5" font-family="Helvetica,sans-Serif" font-size="10.00">Scene::print_active</text>
</a>
</g>
</g>
<!-- Node1&#45;&gt;Node5 -->
<g id="edge4" class="edge">
<title>Node1&#45;&gt;Node5</title>
<path fill="none" stroke="midnightblue" d="M114.29,-98.03C125.03,-96.7 136.35,-95.3 147.32,-93.94"/>
<polygon fill="midnightblue" stroke="midnightblue" points="147.77,-97.41 157.27,-92.71 146.91,-90.47 147.77,-97.41"/>
</g>
<!-- Node7 -->
<g id="node7" class="node">
<title>Node7</title>
<g id="a_node7"><a xlink:href="class_scene.html#a9bb896991e516390c4464cdc92352d00" target="_top" xlink:title="Wypisuje polozenia dronow.">
<polygon fill="none" stroke="black" points="150.5,-38.5 150.5,-57.5 274.5,-57.5 274.5,-38.5 150.5,-38.5"/>
<text text-anchor="middle" x="212.5" y="-45.5" font-family="Helvetica,sans-Serif" font-size="10.00">Scene::print_positions</text>
</a>
</g>
</g>
<!-- Node1&#45;&gt;Node7 -->
<g id="edge6" class="edge">
<title>Node1&#45;&gt;Node7</title>
<path fill="none" stroke="midnightblue" d="M79.71,-95.37C98.22,-87.32 125.61,-75.78 150,-67 156.07,-64.81 162.53,-62.65 168.9,-60.6"/>
<polygon fill="midnightblue" stroke="midnightblue" points="170.27,-63.84 178.76,-57.5 168.17,-57.16 170.27,-63.84"/>
</g>
<!-- Node8 -->
<g id="node8" class="node">
<title>Node8</title>
<g id="a_node8"><a xlink:href="class_menu.html#ad19260a43743fc13dbb67e71c97f3ccd" target="_top" xlink:title="Wyswietla menu.">
<polygon fill="none" stroke="black" points="158.5,-0.5 158.5,-19.5 266.5,-19.5 266.5,-0.5 158.5,-0.5"/>
<text text-anchor="middle" x="212.5" y="-7.5" font-family="Helvetica,sans-Serif" font-size="10.00">Menu::show_menu</text>
</a>
</g>
</g>
<!-- Node1&#45;&gt;Node8 -->
<g id="edge8" class="edge">
<title>Node1&#45;&gt;Node8</title>
<path fill="none" stroke="midnightblue" d="M67.02,-95.42C82.53,-79.47 115.91,-47.4 150,-29 154.04,-26.82 158.36,-24.85 162.77,-23.08"/>
<polygon fill="midnightblue" stroke="midnightblue" points="164.32,-26.24 172.51,-19.52 161.91,-19.67 164.32,-26.24"/>
</g>
<!-- Node6 -->
<g id="node6" class="node">
<title>Node6</title>
<g id="a_node6"><a xlink:href="class_drone.html#a79011bebcf8fad3734f9710fa7c16df4" target="_top" xlink:title="Metoda wypisuje na standardowym wyjsciu pozycje drona (bez wysokosci)">
<polygon fill="none" stroke="black" points="311,-57.5 311,-76.5 441,-76.5 441,-57.5 311,-57.5"/>
<text text-anchor="middle" x="376" y="-64.5" font-family="Helvetica,sans-Serif" font-size="10.00">Drone::print_drone_pos</text>
</a>
</g>
</g>
<!-- Node5&#45;&gt;Node6 -->
<g id="edge5" class="edge">
<title>Node5&#45;&gt;Node6</title>
<path fill="none" stroke="midnightblue" d="M267.73,-79.62C278.32,-78.37 289.6,-77.05 300.71,-75.74"/>
<polygon fill="midnightblue" stroke="midnightblue" points="301.33,-79.19 310.85,-74.55 300.51,-72.24 301.33,-79.19"/>
</g>
<!-- Node7&#45;&gt;Node6 -->
<g id="edge7" class="edge">
<title>Node7&#45;&gt;Node6</title>
<path fill="none" stroke="midnightblue" d="M274.56,-55.18C283.1,-56.19 291.95,-57.23 300.7,-58.26"/>
<polygon fill="midnightblue" stroke="midnightblue" points="300.56,-61.77 310.9,-59.46 301.37,-54.81 300.56,-61.77"/>
</g>
</g>
</svg>
