<?xml version="1.0" encoding="UTF-8" standalone="no"?>
<!DOCTYPE svg PUBLIC "-//W3C//DTD SVG 1.1//EN"
 "http://www.w3.org/Graphics/SVG/1.1/DTD/svg11.dtd">
<!-- Generated by graphviz version 2.43.0 (0)
 -->
<!-- Title: Drone::Drone_change_to_sample Pages: 1 -->
<svg width="826pt" height="508pt"
 viewBox="0.00 0.00 826.00 508.00" xmlns="http://www.w3.org/2000/svg" xmlns:xlink="http://www.w3.org/1999/xlink">
<g id="graph0" class="graph" transform="scale(1 1) rotate(0) translate(4 504)">
<title>Drone::Drone_change_to_sample</title>
<!-- Node1 -->
<g id="node1" class="node">
<title>Node1</title>
<g id="a_node1"><a xlink:title="Metoda zamieniajaca drona na tego z pliku sample.">
<polygon fill="#bfbfbf" stroke="black" points="0,-111 0,-141 122,-141 122,-111 0,-111"/>
<text text-anchor="start" x="8" y="-129" font-family="Helvetica,sans-Serif" font-size="10.00">Drone::Drone_change</text>
<text text-anchor="middle" x="61" y="-118" font-family="Helvetica,sans-Serif" font-size="10.00">_to_sample</text>
</a>
</g>
</g>
<!-- Node2 -->
<g id="node2" class="node">
<title>Node2</title>
<g id="a_node2"><a xlink:href="class_drone.html#ada6f4e93f4a63cbe1d6fbebf329efe62" target="_top" xlink:title="Metoda wczytywania odpowiednich wierzcholkow z pliku wzorcowego zgodnie z zaproponowanym sposobem w z...">
<polygon fill="none" stroke="black" points="158,-398.5 158,-417.5 311,-417.5 311,-398.5 158,-398.5"/>
<text text-anchor="middle" x="234.5" y="-405.5" font-family="Helvetica,sans-Serif" font-size="10.00">Drone::Drone_From_Sample</text>
</a>
</g>
</g>
<!-- Node1&#45;&gt;Node2 -->
<g id="edge1" class="edge">
<title>Node1&#45;&gt;Node2</title>
<path fill="none" stroke="midnightblue" d="M71.22,-141.16C100.37,-189.1 190.49,-337.28 222.27,-389.53"/>
<polygon fill="midnightblue" stroke="midnightblue" points="219.47,-391.66 227.65,-398.38 225.45,-388.02 219.47,-391.66"/>
</g>
<!-- Node11 -->
<g id="node11" class="node">
<title>Node11</title>
<g id="a_node11"><a xlink:href="class_drone.html#ad42bc54902df967b94717617aca1a974" target="_top" xlink:title="Metoda obracajaca dron o zadany kat w 3D wokol srodka figury">
<polygon fill="none" stroke="black" points="158.5,-180.5 158.5,-199.5 310.5,-199.5 310.5,-180.5 158.5,-180.5"/>
<text text-anchor="middle" x="234.5" y="-187.5" font-family="Helvetica,sans-Serif" font-size="10.00">Drone::rotation_around_cen</text>
</a>
</g>
</g>
<!-- Node1&#45;&gt;Node11 -->
<g id="edge18" class="edge">
<title>Node1&#45;&gt;Node11</title>
<path fill="none" stroke="midnightblue" d="M102.21,-141.01C131.43,-151.91 170.6,-166.53 198.53,-176.95"/>
<polygon fill="midnightblue" stroke="midnightblue" points="197.32,-180.23 207.91,-180.45 199.76,-173.67 197.32,-180.23"/>
</g>
<!-- Node22 -->
<g id="node22" class="node">
<title>Node22</title>
<g id="a_node22"><a xlink:href="class_matrix.html#a4161a82fb401e474052c21b25a06a5ba" target="_top" xlink:title=" ">
<polygon fill="none" stroke="black" points="169.5,-72.5 169.5,-91.5 299.5,-91.5 299.5,-72.5 169.5,-72.5"/>
<text text-anchor="middle" x="234.5" y="-79.5" font-family="Helvetica,sans-Serif" font-size="10.00">Matrix::rotation_matrix</text>
</a>
</g>
</g>
<!-- Node1&#45;&gt;Node22 -->
<g id="edge32" class="edge">
<title>Node1&#45;&gt;Node22</title>
<path fill="none" stroke="midnightblue" d="M120.54,-110.98C142.14,-105.44 166.31,-99.24 186.73,-94"/>
<polygon fill="midnightblue" stroke="midnightblue" points="187.61,-97.39 196.42,-91.51 185.87,-90.61 187.61,-97.39"/>
</g>
<!-- Node23 -->
<g id="node23" class="node">
<title>Node23</title>
<g id="a_node23"><a xlink:href="class_drone.html#a55c483c4e4cf0ec91d5bda5448417f08" target="_top" xlink:title="Metoda ustawiajaca drone_pos">
<polygon fill="none" stroke="black" points="173.5,-34.5 173.5,-53.5 295.5,-53.5 295.5,-34.5 173.5,-34.5"/>
<text text-anchor="middle" x="234.5" y="-41.5" font-family="Helvetica,sans-Serif" font-size="10.00">Drone::set_drone_pos</text>
</a>
</g>
</g>
<!-- Node1&#45;&gt;Node23 -->
<g id="edge33" class="edge">
<title>Node1&#45;&gt;Node23</title>
<path fill="none" stroke="midnightblue" d="M80.75,-110.94C99.35,-96.69 129.16,-75.66 158,-63 163.47,-60.6 169.3,-58.46 175.21,-56.56"/>
<polygon fill="midnightblue" stroke="midnightblue" points="176.58,-59.81 185.17,-53.6 174.58,-53.1 176.58,-59.81"/>
</g>
<!-- Node26 -->
<g id="node26" class="node">
<title>Node26</title>
<g id="a_node26"><a xlink:href="class_drone.html#a6662bd8203e8c9a0721c457b3612a7c1" target="_top" xlink:title="Metoda uzywana przy konstruowania drona przesuwa drona w ten sposob, ze Vector3D centre prostopadlosc...">
<polygon fill="none" stroke="black" points="182.5,-111 182.5,-141 286.5,-141 286.5,-111 182.5,-111"/>
<text text-anchor="start" x="190.5" y="-129" font-family="Helvetica,sans-Serif" font-size="10.00">Drone::translation</text>
<text text-anchor="middle" x="234.5" y="-118" font-family="Helvetica,sans-Serif" font-size="10.00">_to_pos</text>
</a>
</g>
</g>
<!-- Node1&#45;&gt;Node26 -->
<g id="edge36" class="edge">
<title>Node1&#45;&gt;Node26</title>
<path fill="none" stroke="midnightblue" d="M122.46,-126C138.52,-126 155.88,-126 172,-126"/>
<polygon fill="midnightblue" stroke="midnightblue" points="172.38,-129.5 182.38,-126 172.38,-122.5 172.38,-129.5"/>
</g>
<!-- Node3 -->
<g id="node3" class="node">
<title>Node3</title>
<g id="a_node3"><a xlink:href="class_cuboid.html#a773f92fecdf9686b951cf5736c83f318" target="_top" xlink:title="Metoda wczytywania odpowiednich wierzcholkow z pliku wzorcowego zgodnie z zaproponowanym sposobem zad...">
<polygon fill="none" stroke="black" points="365,-393 365,-423 485,-423 485,-393 365,-393"/>
<text text-anchor="start" x="373" y="-411" font-family="Helvetica,sans-Serif" font-size="10.00">Cuboid::Cuboid_From</text>
<text text-anchor="middle" x="425" y="-400" font-family="Helvetica,sans-Serif" font-size="10.00">_Sample</text>
</a>
</g>
</g>
<!-- Node2&#45;&gt;Node3 -->
<g id="edge2" class="edge">
<title>Node2&#45;&gt;Node3</title>
<path fill="none" stroke="midnightblue" d="M311.08,-408C325.51,-408 340.54,-408 354.75,-408"/>
<polygon fill="midnightblue" stroke="midnightblue" points="354.94,-411.5 364.94,-408 354.94,-404.5 354.94,-411.5"/>
</g>
<!-- Node8 -->
<g id="node8" class="node">
<title>Node8</title>
<g id="a_node8"><a xlink:href="class_drone.html#addf8532ee98ca800a64a78f3808fce98" target="_top" xlink:title="Metoda zwracajaca nazwy plikow do zapisu dla drona.">
<polygon fill="none" stroke="black" points="364.5,-354.5 364.5,-373.5 485.5,-373.5 485.5,-354.5 364.5,-354.5"/>
<text text-anchor="middle" x="425" y="-361.5" font-family="Helvetica,sans-Serif" font-size="10.00">Drone::get_filenames</text>
</a>
</g>
</g>
<!-- Node2&#45;&gt;Node8 -->
<g id="edge7" class="edge">
<title>Node2&#45;&gt;Node8</title>
<path fill="none" stroke="midnightblue" d="M276.4,-398.45C304.81,-391.82 342.86,-382.94 373.21,-375.86"/>
<polygon fill="midnightblue" stroke="midnightblue" points="374.24,-379.21 383.18,-373.53 372.64,-372.39 374.24,-379.21"/>
</g>
<!-- Node9 -->
<g id="node9" class="node">
<title>Node9</title>
<g id="a_node9"><a xlink:href="class_prism.html#a5e0a2234e9ebe3b51146c0ddc42e8b48" target="_top" xlink:title="Metoda wczytywania odpowiednich wierzcholkow z pliku wzorcowego zgodnie z zaproponowanym sposobem zad...">
<polygon fill="none" stroke="black" points="350,-442.5 350,-461.5 500,-461.5 500,-442.5 350,-442.5"/>
<text text-anchor="middle" x="425" y="-449.5" font-family="Helvetica,sans-Serif" font-size="10.00">Prism::Prism_From_Sample</text>
</a>
</g>
</g>
<!-- Node2&#45;&gt;Node9 -->
<g id="edge10" class="edge">
<title>Node2&#45;&gt;Node9</title>
<path fill="none" stroke="midnightblue" d="M276.4,-417.55C304.81,-424.18 342.86,-433.06 373.21,-440.14"/>
<polygon fill="midnightblue" stroke="midnightblue" points="372.64,-443.61 383.18,-442.47 374.24,-436.79 372.64,-443.61"/>
</g>
<!-- Node10 -->
<g id="node10" class="node">
<title>Node10</title>
<g id="a_node10"><a xlink:href="class_drone.html#add09c27034d4ff229cc22b58c443c0f4" target="_top" xlink:title="Metoda ustawiajaca nazwy plikow do zapisu dla drona.">
<polygon fill="none" stroke="black" points="359,-480.5 359,-499.5 491,-499.5 491,-480.5 359,-480.5"/>
<text text-anchor="middle" x="425" y="-487.5" font-family="Helvetica,sans-Serif" font-size="10.00">Drone::setup_filenames</text>
</a>
</g>
</g>
<!-- Node2&#45;&gt;Node10 -->
<g id="edge15" class="edge">
<title>Node2&#45;&gt;Node10</title>
<path fill="none" stroke="midnightblue" d="M249.66,-417.68C270.24,-431.36 310.01,-456.31 347,-471 353.28,-473.49 359.97,-475.73 366.7,-477.71"/>
<polygon fill="midnightblue" stroke="midnightblue" points="365.96,-481.14 376.53,-480.44 367.83,-474.39 365.96,-481.14"/>
</g>
<!-- Node4 -->
<g id="node4" class="node">
<title>Node4</title>
<g id="a_node4"><a xlink:href="class_block.html#aeef4dd3716afaea42688a4f96456ce27" target="_top" xlink:title="Metoda zwracajaca nazwe pliku z finalna (robocza) bryla">
<polygon fill="none" stroke="black" points="546.5,-366.5 546.5,-385.5 671.5,-385.5 671.5,-366.5 546.5,-366.5"/>
<text text-anchor="middle" x="609" y="-373.5" font-family="Helvetica,sans-Serif" font-size="10.00">Block::get_final_name</text>
</a>
</g>
</g>
<!-- Node3&#45;&gt;Node4 -->
<g id="edge3" class="edge">
<title>Node3&#45;&gt;Node4</title>
<path fill="none" stroke="midnightblue" d="M485.09,-397.61C503.83,-394.32 524.64,-390.66 543.72,-387.3"/>
<polygon fill="midnightblue" stroke="midnightblue" points="544.58,-390.7 553.83,-385.53 543.37,-383.81 544.58,-390.7"/>
</g>
<!-- Node5 -->
<g id="node5" class="node">
<title>Node5</title>
<g id="a_node5"><a xlink:href="class_block.html#aed17e0cb13b8eea50fe735ba05204da9" target="_top" xlink:title="Metoda zwracajaca nazwe pliku z wzorcowa bryla">
<polygon fill="none" stroke="black" points="539,-404.5 539,-423.5 679,-423.5 679,-404.5 539,-404.5"/>
<text text-anchor="middle" x="609" y="-411.5" font-family="Helvetica,sans-Serif" font-size="10.00">Block::get_sample_name</text>
</a>
</g>
</g>
<!-- Node3&#45;&gt;Node5 -->
<g id="edge4" class="edge">
<title>Node3&#45;&gt;Node5</title>
<path fill="none" stroke="midnightblue" d="M485.09,-409.95C499.01,-410.41 514.06,-410.9 528.7,-411.39"/>
<polygon fill="midnightblue" stroke="midnightblue" points="528.65,-414.89 538.76,-411.72 528.88,-407.89 528.65,-414.89"/>
</g>
<!-- Node6 -->
<g id="node6" class="node">
<title>Node6</title>
<g id="a_node6"><a xlink:href="class_block.html#a640a910076d8b10533a9a80d740f8f03" target="_top" xlink:title="Metoda zapisujaca do klasy nazwe pliku z finalna (robocza) bryla">
<polygon fill="none" stroke="black" points="547,-442.5 547,-461.5 671,-461.5 671,-442.5 547,-442.5"/>
<text text-anchor="middle" x="609" y="-449.5" font-family="Helvetica,sans-Serif" font-size="10.00">Block::set_final_name</text>
</a>
</g>
</g>
<!-- Node3&#45;&gt;Node6 -->
<g id="edge5" class="edge">
<title>Node3&#45;&gt;Node6</title>
<path fill="none" stroke="midnightblue" d="M485.09,-422.29C508.87,-428.03 535.98,-434.59 558.67,-440.07"/>
<polygon fill="midnightblue" stroke="midnightblue" points="557.89,-443.49 568.43,-442.43 559.54,-436.68 557.89,-443.49"/>
</g>
<!-- Node7 -->
<g id="node7" class="node">
<title>Node7</title>
<g id="a_node7"><a xlink:href="class_block.html#acf20b290f1543e580ff1f2c6d98ff4c4" target="_top" xlink:title="Metoda zapisujaca do klasy nazwe pliku z wzorcowa bryla">
<polygon fill="none" stroke="black" points="539.5,-480.5 539.5,-499.5 678.5,-499.5 678.5,-480.5 539.5,-480.5"/>
<text text-anchor="middle" x="609" y="-487.5" font-family="Helvetica,sans-Serif" font-size="10.00">Block::set_sample_name</text>
</a>
</g>
</g>
<!-- Node3&#45;&gt;Node7 -->
<g id="edge6" class="edge">
<title>Node3&#45;&gt;Node7</title>
<path fill="none" stroke="midnightblue" d="M483.39,-423.06C490.24,-425.88 496.94,-429.17 503,-433 522.67,-445.42 519.05,-459.03 539,-471 542.6,-473.16 546.44,-475.08 550.41,-476.78"/>
<polygon fill="midnightblue" stroke="midnightblue" points="549.24,-480.08 559.83,-480.39 551.75,-473.55 549.24,-480.08"/>
</g>
<!-- Node8&#45;&gt;Node4 -->
<g id="edge8" class="edge">
<title>Node8&#45;&gt;Node4</title>
<path fill="none" stroke="midnightblue" d="M485.59,-367.93C501.73,-368.99 519.38,-370.16 536.11,-371.26"/>
<polygon fill="midnightblue" stroke="midnightblue" points="536.19,-374.77 546.4,-371.94 536.65,-367.79 536.19,-374.77"/>
</g>
<!-- Node8&#45;&gt;Node5 -->
<g id="edge9" class="edge">
<title>Node8&#45;&gt;Node5</title>
<path fill="none" stroke="midnightblue" d="M464.08,-373.55C476.51,-376.76 490.37,-380.43 503,-384 519.1,-388.55 522.93,-390.33 539,-395 546.63,-397.22 554.76,-399.51 562.66,-401.71"/>
<polygon fill="midnightblue" stroke="midnightblue" points="561.92,-405.14 572.49,-404.43 563.78,-398.39 561.92,-405.14"/>
</g>
<!-- Node9&#45;&gt;Node4 -->
<g id="edge11" class="edge">
<title>Node9&#45;&gt;Node4</title>
<path fill="none" stroke="midnightblue" d="M481.36,-442.43C488.9,-439.97 496.34,-436.88 503,-433 523.11,-421.3 519.05,-406.97 539,-395 542.6,-392.84 546.44,-390.92 550.41,-389.22"/>
<polygon fill="midnightblue" stroke="midnightblue" points="551.75,-392.45 559.83,-385.61 549.24,-385.92 551.75,-392.45"/>
</g>
<!-- Node9&#45;&gt;Node5 -->
<g id="edge12" class="edge">
<title>Node9&#45;&gt;Node5</title>
<path fill="none" stroke="midnightblue" d="M471.93,-442.41C496.38,-437.31 526.63,-430.99 552.4,-425.61"/>
<polygon fill="midnightblue" stroke="midnightblue" points="553.33,-428.99 562.4,-423.52 551.9,-422.14 553.33,-428.99"/>
</g>
<!-- Node9&#45;&gt;Node6 -->
<g id="edge13" class="edge">
<title>Node9&#45;&gt;Node6</title>
<path fill="none" stroke="midnightblue" d="M500.03,-452C512.17,-452 524.74,-452 536.82,-452"/>
<polygon fill="midnightblue" stroke="midnightblue" points="536.83,-455.5 546.83,-452 536.83,-448.5 536.83,-455.5"/>
</g>
<!-- Node9&#45;&gt;Node7 -->
<g id="edge14" class="edge">
<title>Node9&#45;&gt;Node7</title>
<path fill="none" stroke="midnightblue" d="M471.93,-461.59C496.38,-466.69 526.63,-473.01 552.4,-478.39"/>
<polygon fill="midnightblue" stroke="midnightblue" points="551.9,-481.86 562.4,-480.48 553.33,-475.01 551.9,-481.86"/>
</g>
<!-- Node10&#45;&gt;Node6 -->
<g id="edge16" class="edge">
<title>Node10&#45;&gt;Node6</title>
<path fill="none" stroke="midnightblue" d="M471.93,-480.41C496.38,-475.31 526.63,-468.99 552.4,-463.61"/>
<polygon fill="midnightblue" stroke="midnightblue" points="553.33,-466.99 562.4,-461.52 551.9,-460.14 553.33,-466.99"/>
</g>
<!-- Node10&#45;&gt;Node7 -->
<g id="edge17" class="edge">
<title>Node10&#45;&gt;Node7</title>
<path fill="none" stroke="midnightblue" d="M491.19,-490C503.51,-490 516.51,-490 529.19,-490"/>
<polygon fill="midnightblue" stroke="midnightblue" points="529.27,-493.5 539.27,-490 529.27,-486.5 529.27,-493.5"/>
</g>
<!-- Node12 -->
<g id="node12" class="node">
<title>Node12</title>
<g id="a_node12"><a xlink:href="class_prism.html#a22c5467db5d960bddbaf9a52f55c55cb" target="_top" xlink:title="Metoda obracajaca graniastoslup o zadany kat w 3D wokol srodka figury">
<polygon fill="none" stroke="black" points="350,-199.5 350,-218.5 500,-218.5 500,-199.5 350,-199.5"/>
<text text-anchor="middle" x="425" y="-206.5" font-family="Helvetica,sans-Serif" font-size="10.00">Prism::rotation_around_cen</text>
</a>
</g>
</g>
<!-- Node11&#45;&gt;Node12 -->
<g id="edge19" class="edge">
<title>Node11&#45;&gt;Node12</title>
<path fill="none" stroke="midnightblue" d="M310.54,-197.56C320.14,-198.53 330.02,-199.53 339.76,-200.51"/>
<polygon fill="midnightblue" stroke="midnightblue" points="339.53,-204 349.83,-201.52 340.23,-197.04 339.53,-204"/>
</g>
<!-- Node16 -->
<g id="node16" class="node">
<title>Node16</title>
<g id="a_node16"><a xlink:href="class_cuboid.html#a6c697c2d9b36a14c43c7328876d5a1f0" target="_top" xlink:title="Metoda obracajaca prostopadloscian o zadany kat w 3D wokol srodka figury">
<polygon fill="none" stroke="black" points="347,-157.5 347,-176.5 503,-176.5 503,-157.5 347,-157.5"/>
<text text-anchor="middle" x="425" y="-164.5" font-family="Helvetica,sans-Serif" font-size="10.00">Cuboid::rotation_around_cen</text>
</a>
</g>
</g>
<!-- Node11&#45;&gt;Node16 -->
<g id="edge24" class="edge">
<title>Node11&#45;&gt;Node16</title>
<path fill="none" stroke="midnightblue" d="M310.54,-180.84C319.1,-179.8 327.88,-178.73 336.59,-177.67"/>
<polygon fill="midnightblue" stroke="midnightblue" points="337.25,-181.11 346.75,-176.43 336.4,-174.16 337.25,-181.11"/>
</g>
<!-- Node19 -->
<g id="node19" class="node">
<title>Node19</title>
<g id="a_node19"><a xlink:href="class_drone.html#aea963b77f42c204504542a3d9190d762" target="_top" xlink:title="Metoda uzywana przy konstruowania drona Ustawia rotory w ten sposob, ze srodek ich dolnej podstawy je...">
<polygon fill="none" stroke="black" points="367.5,-279 367.5,-309 482.5,-309 482.5,-279 367.5,-279"/>
<text text-anchor="start" x="375.5" y="-297" font-family="Helvetica,sans-Serif" font-size="10.00">Drone::set_rotors_in</text>
<text text-anchor="middle" x="425" y="-286" font-family="Helvetica,sans-Serif" font-size="10.00">_place</text>
</a>
</g>
</g>
<!-- Node11&#45;&gt;Node19 -->
<g id="edge28" class="edge">
<title>Node11&#45;&gt;Node19</title>
<path fill="none" stroke="midnightblue" d="M252.9,-199.6C283.42,-216.44 347.22,-251.64 387.71,-273.98"/>
<polygon fill="midnightblue" stroke="midnightblue" points="386.27,-277.18 396.72,-278.95 389.65,-271.05 386.27,-277.18"/>
</g>
<!-- Node13 -->
<g id="node13" class="node">
<title>Node13</title>
<g id="a_node13"><a xlink:href="class_matrix.html#ad6df418144dfdc3236f990dc3fb0a50a" target="_top" xlink:title=" ">
<polygon fill="none" stroke="black" points="549.5,-153 549.5,-183 668.5,-183 668.5,-153 549.5,-153"/>
<text text-anchor="start" x="557.5" y="-171" font-family="Helvetica,sans-Serif" font-size="10.00">Matrix::apply_matrix</text>
<text text-anchor="middle" x="609" y="-160" font-family="Helvetica,sans-Serif" font-size="10.00">_to_rotation</text>
</a>
</g>
</g>
<!-- Node12&#45;&gt;Node13 -->
<g id="edge20" class="edge">
<title>Node12&#45;&gt;Node13</title>
<path fill="none" stroke="midnightblue" d="M468.21,-199.49C489.44,-194.71 515.7,-188.79 539.7,-183.39"/>
<polygon fill="midnightblue" stroke="midnightblue" points="540.49,-186.8 549.47,-181.18 538.95,-179.97 540.49,-186.8"/>
</g>
<!-- Node14 -->
<g id="node14" class="node">
<title>Node14</title>
<g id="a_node14"><a xlink:href="class_prism.html#ade146d341c0468030f8c1258b7fe1041" target="_top" xlink:title="Metoda przesuwajaca graniastoslup o zadany wektor w 3D">
<polygon fill="none" stroke="black" points="715,-221.5 715,-240.5 818,-240.5 818,-221.5 715,-221.5"/>
<text text-anchor="middle" x="766.5" y="-228.5" font-family="Helvetica,sans-Serif" font-size="10.00">Prism::translation</text>
</a>
</g>
</g>
<!-- Node12&#45;&gt;Node14 -->
<g id="edge21" class="edge">
<title>Node12&#45;&gt;Node14</title>
<path fill="none" stroke="midnightblue" d="M500.09,-213.8C561.47,-217.78 647.63,-223.36 704.94,-227.08"/>
<polygon fill="midnightblue" stroke="midnightblue" points="704.73,-230.57 714.94,-227.72 705.19,-223.58 704.73,-230.57"/>
</g>
<!-- Node15 -->
<g id="node15" class="node">
<title>Node15</title>
<g id="a_node15"><a xlink:href="class_prism.html#afed2c26932d5cb152fd620d2acbfbc3e" target="_top" xlink:title="Metoda przesuwajaca graniastoslup do srodka ukladu wspolrzednych (tak, ze srodek graniastoslupa pokry...">
<polygon fill="none" stroke="black" points="543.5,-240.5 543.5,-259.5 674.5,-259.5 674.5,-240.5 543.5,-240.5"/>
<text text-anchor="middle" x="609" y="-247.5" font-family="Helvetica,sans-Serif" font-size="10.00">Prism::translation_to_O</text>
</a>
</g>
</g>
<!-- Node12&#45;&gt;Node15 -->
<g id="edge22" class="edge">
<title>Node12&#45;&gt;Node15</title>
<path fill="none" stroke="midnightblue" d="M468.21,-218.51C494.31,-224.39 528,-231.98 555.76,-238.23"/>
<polygon fill="midnightblue" stroke="midnightblue" points="555.18,-241.69 565.7,-240.47 556.72,-234.86 555.18,-241.69"/>
</g>
<!-- Node15&#45;&gt;Node14 -->
<g id="edge23" class="edge">
<title>Node15&#45;&gt;Node14</title>
<path fill="none" stroke="midnightblue" d="M674.6,-242.11C684.5,-240.9 694.71,-239.65 704.53,-238.45"/>
<polygon fill="midnightblue" stroke="midnightblue" points="705.11,-241.91 714.61,-237.22 704.26,-234.96 705.11,-241.91"/>
</g>
<!-- Node16&#45;&gt;Node13 -->
<g id="edge25" class="edge">
<title>Node16&#45;&gt;Node13</title>
<path fill="none" stroke="midnightblue" d="M503.18,-167.42C515.17,-167.49 527.49,-167.56 539.28,-167.62"/>
<polygon fill="midnightblue" stroke="midnightblue" points="539.46,-171.12 549.47,-167.68 539.49,-164.12 539.46,-171.12"/>
</g>
<!-- Node17 -->
<g id="node17" class="node">
<title>Node17</title>
<g id="a_node17"><a xlink:href="class_cuboid.html#a3f6b1b9ea7de433af5b0d462d29f4272" target="_top" xlink:title="Metoda przesuwajaca prostopadloscian o zadany kat w 3D">
<polygon fill="none" stroke="black" points="554.5,-76.5 554.5,-95.5 663.5,-95.5 663.5,-76.5 554.5,-76.5"/>
<text text-anchor="middle" x="609" y="-83.5" font-family="Helvetica,sans-Serif" font-size="10.00">Cuboid::translation</text>
</a>
</g>
</g>
<!-- Node16&#45;&gt;Node17 -->
<g id="edge26" class="edge">
<title>Node16&#45;&gt;Node17</title>
<path fill="none" stroke="midnightblue" d="M474.99,-157.46C484.7,-154.36 494.51,-150.3 503,-145 523.29,-132.33 518.65,-117.57 539,-105 542.41,-102.89 546.06,-101.02 549.83,-99.34"/>
<polygon fill="midnightblue" stroke="midnightblue" points="551.35,-102.5 559.39,-95.59 548.8,-95.99 551.35,-102.5"/>
</g>
<!-- Node18 -->
<g id="node18" class="node">
<title>Node18</title>
<g id="a_node18"><a xlink:href="class_cuboid.html#a42bdce7c214e759cb6ea94d4f547a5b9" target="_top" xlink:title="Metoda przesuwajaca prostopadloscian do (0,0,0)">
<polygon fill="none" stroke="black" points="540.5,-114.5 540.5,-133.5 677.5,-133.5 677.5,-114.5 540.5,-114.5"/>
<text text-anchor="middle" x="609" y="-121.5" font-family="Helvetica,sans-Serif" font-size="10.00">Cuboid::translation_to_O</text>
</a>
</g>
</g>
<!-- Node16&#45;&gt;Node18 -->
<g id="edge27" class="edge">
<title>Node16&#45;&gt;Node18</title>
<path fill="none" stroke="midnightblue" d="M466.39,-157.46C493.37,-151.08 529.05,-142.65 557.85,-135.85"/>
<polygon fill="midnightblue" stroke="midnightblue" points="558.79,-139.22 567.72,-133.52 557.18,-132.41 558.79,-139.22"/>
</g>
<!-- Node20 -->
<g id="node20" class="node">
<title>Node20</title>
<g id="a_node20"><a xlink:href="class_cuboid.html#a99d30564d6129e6905c5333e04df9606" target="_top" xlink:title="Metoda zwracajaca wierzcholki prostopadloscianu do Vector3D">
<polygon fill="none" stroke="black" points="561.5,-328.5 561.5,-347.5 656.5,-347.5 656.5,-328.5 561.5,-328.5"/>
<text text-anchor="middle" x="609" y="-335.5" font-family="Helvetica,sans-Serif" font-size="10.00">Cuboid::get_cub</text>
</a>
</g>
</g>
<!-- Node19&#45;&gt;Node20 -->
<g id="edge29" class="edge">
<title>Node19&#45;&gt;Node20</title>
<path fill="none" stroke="midnightblue" d="M482.59,-307.68C506.97,-313.57 535.21,-320.4 558.71,-326.08"/>
<polygon fill="midnightblue" stroke="midnightblue" points="557.93,-329.5 568.47,-328.44 559.57,-322.69 557.93,-329.5"/>
</g>
<!-- Node21 -->
<g id="node21" class="node">
<title>Node21</title>
<g id="a_node21"><a xlink:href="class_prism.html#a4e2b0b9c37d6a53af869522a4bf364ac" target="_top" xlink:title="Metoda przesuwajaca graniastoslup o zadany wektor w 3D w taki sposob, ze srodek jego dolnej podstawy ...">
<polygon fill="none" stroke="black" points="557.5,-279 557.5,-309 660.5,-309 660.5,-279 557.5,-279"/>
<text text-anchor="start" x="565.5" y="-297" font-family="Helvetica,sans-Serif" font-size="10.00">Prism::translation</text>
<text text-anchor="middle" x="609" y="-286" font-family="Helvetica,sans-Serif" font-size="10.00">_of_lower_cen</text>
</a>
</g>
</g>
<!-- Node19&#45;&gt;Node21 -->
<g id="edge30" class="edge">
<title>Node19&#45;&gt;Node21</title>
<path fill="none" stroke="midnightblue" d="M482.59,-294C503.12,-294 526.4,-294 547.28,-294"/>
<polygon fill="midnightblue" stroke="midnightblue" points="547.31,-297.5 557.31,-294 547.31,-290.5 547.31,-297.5"/>
</g>
<!-- Node21&#45;&gt;Node14 -->
<g id="edge31" class="edge">
<title>Node21&#45;&gt;Node14</title>
<path fill="none" stroke="midnightblue" d="M652.86,-278.97C661.55,-275.78 670.6,-272.36 679,-269 697.97,-261.41 718.95,-252.21 735.51,-244.76"/>
<polygon fill="midnightblue" stroke="midnightblue" points="737.02,-247.92 744.69,-240.61 734.14,-241.54 737.02,-247.92"/>
</g>
<!-- Node24 -->
<g id="node24" class="node">
<title>Node24</title>
<g id="a_node24"><a xlink:href="class_cuboid.html#a08fae08a1c8c70ada48ce3af46c82eee" target="_top" xlink:title="Metoda zwracajaca wysokosc prostopadloscianu">
<polygon fill="none" stroke="black" points="371,-19.5 371,-38.5 479,-38.5 479,-19.5 371,-19.5"/>
<text text-anchor="middle" x="425" y="-26.5" font-family="Helvetica,sans-Serif" font-size="10.00">Cuboid::get_height</text>
</a>
</g>
</g>
<!-- Node23&#45;&gt;Node24 -->
<g id="edge34" class="edge">
<title>Node23&#45;&gt;Node24</title>
<path fill="none" stroke="midnightblue" d="M295.66,-39.21C316.4,-37.56 339.69,-35.71 360.67,-34.04"/>
<polygon fill="midnightblue" stroke="midnightblue" points="361.08,-37.52 370.77,-33.24 360.52,-30.54 361.08,-37.52"/>
</g>
<!-- Node25 -->
<g id="node25" class="node">
<title>Node25</title>
<g id="a_node25"><a xlink:href="class_vector.html#a3ac695edc693437a61da9f1976fd4869" target="_top" xlink:title="Zwraca dlugosc wektora &#160;&#160;Argumenty: &#160;&#160;Brak &#160;&#160;Zwraca:">
<polygon fill="none" stroke="black" points="564.5,-0.5 564.5,-19.5 653.5,-19.5 653.5,-0.5 564.5,-0.5"/>
<text text-anchor="middle" x="609" y="-7.5" font-family="Helvetica,sans-Serif" font-size="10.00">Vector::get_len</text>
</a>
</g>
</g>
<!-- Node24&#45;&gt;Node25 -->
<g id="edge35" class="edge">
<title>Node24&#45;&gt;Node25</title>
<path fill="none" stroke="midnightblue" d="M479.13,-23.45C502.71,-20.99 530.42,-18.1 554.09,-15.63"/>
<polygon fill="midnightblue" stroke="midnightblue" points="554.72,-19.08 564.31,-14.56 554,-12.12 554.72,-19.08"/>
</g>
<!-- Node27 -->
<g id="node27" class="node">
<title>Node27</title>
<g id="a_node27"><a xlink:href="class_cuboid.html#aafa18740d9c98ca928395b9873a9c63d" target="_top" xlink:title="Metoda zwracajaca punkt centralny (czyli taki, ktorego odleglosci do kazdego wierzcholka sa rowne) pr...">
<polygon fill="none" stroke="black" points="366.5,-116.5 366.5,-135.5 483.5,-135.5 483.5,-116.5 366.5,-116.5"/>
<text text-anchor="middle" x="425" y="-123.5" font-family="Helvetica,sans-Serif" font-size="10.00">Cuboid::centre_point</text>
</a>
</g>
</g>
<!-- Node26&#45;&gt;Node27 -->
<g id="edge37" class="edge">
<title>Node26&#45;&gt;Node27</title>
<path fill="none" stroke="midnightblue" d="M286.51,-126C307.98,-126 333.26,-126 356.26,-126"/>
<polygon fill="midnightblue" stroke="midnightblue" points="356.29,-129.5 366.29,-126 356.29,-122.5 356.29,-129.5"/>
</g>
<!-- Node28 -->
<g id="node28" class="node">
<title>Node28</title>
<g id="a_node28"><a xlink:href="class_drone.html#a9684cd7ce04b7e6191f3d6b3a745370b" target="_top" xlink:title="Przesuwa drona o zadany wektor w 3D">
<polygon fill="none" stroke="black" points="373,-76.5 373,-95.5 477,-95.5 477,-76.5 373,-76.5"/>
<text text-anchor="middle" x="425" y="-83.5" font-family="Helvetica,sans-Serif" font-size="10.00">Drone::translation</text>
</a>
</g>
</g>
<!-- Node26&#45;&gt;Node28 -->
<g id="edge38" class="edge">
<title>Node26&#45;&gt;Node28</title>
<path fill="none" stroke="midnightblue" d="M286.51,-115.18C312.02,-109.76 342.92,-103.21 368.96,-97.68"/>
<polygon fill="midnightblue" stroke="midnightblue" points="370,-101.04 379.05,-95.54 368.54,-94.19 370,-101.04"/>
</g>
<!-- Node28&#45;&gt;Node14 -->
<g id="edge39" class="edge">
<title>Node28&#45;&gt;Node14</title>
<path fill="none" stroke="midnightblue" d="M447.93,-76.44C494.37,-57.77 604.51,-22.07 679,-67 731.96,-98.94 754.15,-175.31 761.92,-211.43"/>
<polygon fill="midnightblue" stroke="midnightblue" points="758.49,-212.14 763.89,-221.25 765.36,-210.76 758.49,-212.14"/>
</g>
<!-- Node28&#45;&gt;Node17 -->
<g id="edge40" class="edge">
<title>Node28&#45;&gt;Node17</title>
<path fill="none" stroke="midnightblue" d="M477.18,-86C497.97,-86 522.2,-86 544.13,-86"/>
<polygon fill="midnightblue" stroke="midnightblue" points="544.35,-89.5 554.35,-86 544.35,-82.5 544.35,-89.5"/>
</g>
</g>
</svg>
