<?xml version="1.0" encoding="UTF-8" standalone="no"?>
<!DOCTYPE svg PUBLIC "-//W3C//DTD SVG 1.1//EN"
 "http://www.w3.org/Graphics/SVG/1.1/DTD/svg11.dtd">
<!-- Generated by graphviz version 2.43.0 (0)
 -->
<!-- Title: PzG::LaczeDoGNUPlota::Rysuj Pages: 1 -->
<svg width="495pt" height="305pt"
 viewBox="0.00 0.00 495.00 305.12" xmlns="http://www.w3.org/2000/svg" xmlns:xlink="http://www.w3.org/1999/xlink">
<g id="graph0" class="graph" transform="scale(1 1) rotate(0) translate(4 301.12)">
<title>PzG::LaczeDoGNUPlota::Rysuj</title>
<!-- Node1 -->
<g id="node1" class="node">
<title>Node1</title>
<g id="a_node1"><a xlink:title="Generuje polecenie rysowania i przesyła je do gnuplota.">
<polygon fill="#bfbfbf" stroke="black" points="357,-139.5 357,-169.5 487,-169.5 487,-139.5 357,-139.5"/>
<text text-anchor="start" x="365" y="-157.5" font-family="Helvetica,sans-Serif" font-size="10.00">PzG::LaczeDoGNUPlota</text>
<text text-anchor="middle" x="422" y="-146.5" font-family="Helvetica,sans-Serif" font-size="10.00">::Rysuj</text>
</a>
</g>
</g>
<!-- Node2 -->
<g id="node2" class="node">
<title>Node2</title>
<g id="a_node2"><a xlink:href="class_drone.html#ac4d24c27fb2c107d2e8bda0c2bf5cfa1" target="_top" xlink:title="Metoda obliczajaca i przeprowadzajaca caly ruch drona (obrot o kat i przelot z zadania 5....">
<polygon fill="none" stroke="black" points="15,-240.5 15,-270.5 127,-270.5 127,-240.5 15,-240.5"/>
<text text-anchor="start" x="23" y="-258.5" font-family="Helvetica,sans-Serif" font-size="10.00">Drone::Drone_basic</text>
<text text-anchor="middle" x="71" y="-247.5" font-family="Helvetica,sans-Serif" font-size="10.00">_motion</text>
</a>
</g>
</g>
<!-- Node1&#45;&gt;Node2 -->
<g id="edge1" class="edge">
<title>Node1&#45;&gt;Node2</title>
<path fill="none" stroke="midnightblue" d="M410.07,-178.89C394.97,-209.19 364.57,-259.46 321,-280.5 251.56,-314.04 158.71,-289.05 108.29,-270.57"/>
<polygon fill="midnightblue" stroke="midnightblue" points="413.25,-180.34 414.43,-169.81 406.94,-177.31 413.25,-180.34"/>
</g>
<!-- Node3 -->
<g id="node3" class="node">
<title>Node3</title>
<g id="a_node3"><a xlink:href="class_drone.html#a9d09f6cd9ed8d60dfd1979b31101f400" target="_top" xlink:title="Metoda zapisujaca sciezke do pliku oraz do lacza.">
<polygon fill="none" stroke="black" points="178,-202 178,-221 321,-221 321,-202 178,-202"/>
<text text-anchor="middle" x="249.5" y="-209" font-family="Helvetica,sans-Serif" font-size="10.00">Drone::Drone_path_to_file</text>
</a>
</g>
</g>
<!-- Node1&#45;&gt;Node3 -->
<g id="edge2" class="edge">
<title>Node1&#45;&gt;Node3</title>
<path fill="none" stroke="midnightblue" d="M366.15,-172.84C337.16,-182.53 302.77,-194.02 279.07,-201.95"/>
<polygon fill="midnightblue" stroke="midnightblue" points="367.38,-176.12 375.76,-169.63 365.16,-169.48 367.38,-176.12"/>
</g>
<!-- Node4 -->
<g id="node4" class="node">
<title>Node4</title>
<g id="a_node4"><a xlink:href="class_drone.html#ab7808296cec81143dbddd7516340a371" target="_top" xlink:title="Metoda robiaca &quot;oblot&quot; drona wokol punktu (z modyfikacji)">
<polygon fill="none" stroke="black" points="0,-186 0,-205 142,-205 142,-186 0,-186"/>
<text text-anchor="middle" x="71" y="-193" font-family="Helvetica,sans-Serif" font-size="10.00">Drone::Drone_roundabout</text>
</a>
</g>
</g>
<!-- Node1&#45;&gt;Node4 -->
<g id="edge8" class="edge">
<title>Node1&#45;&gt;Node4</title>
<path fill="none" stroke="midnightblue" d="M346.75,-163.22C286.29,-170.33 201.54,-180.28 142.2,-187.25"/>
<polygon fill="midnightblue" stroke="midnightblue" points="347.46,-166.66 356.99,-162.02 346.65,-159.71 347.46,-166.66"/>
</g>
<!-- Node5 -->
<g id="node5" class="node">
<title>Node5</title>
<g id="a_node5"><a xlink:href="class_drone.html#a5fc9dd645ad3856b5d3c501c63c464e3" target="_top" xlink:title="Metoda animujaca translacje drona i wyrysowujaca calosc w gnuplocie.">
<polygon fill="none" stroke="black" points="1.5,-128.5 1.5,-158.5 140.5,-158.5 140.5,-128.5 1.5,-128.5"/>
<text text-anchor="start" x="9.5" y="-146.5" font-family="Helvetica,sans-Serif" font-size="10.00">Drone::Drone_translation</text>
<text text-anchor="middle" x="71" y="-135.5" font-family="Helvetica,sans-Serif" font-size="10.00">_animation</text>
</a>
</g>
</g>
<!-- Node1&#45;&gt;Node5 -->
<g id="edge9" class="edge">
<title>Node1&#45;&gt;Node5</title>
<path fill="none" stroke="midnightblue" d="M346.66,-152.16C285.69,-150.24 200.06,-147.54 140.68,-145.66"/>
<polygon fill="midnightblue" stroke="midnightblue" points="346.88,-155.67 356.99,-152.48 347.1,-148.67 346.88,-155.67"/>
</g>
<!-- Node6 -->
<g id="node6" class="node">
<title>Node6</title>
<g id="a_node6"><a xlink:href="class_drone.html#af052f6bb793d1229b99b16b800b95b82" target="_top" xlink:title="Metoda animujaca obrot drona i wyrysowujaca calosc w gnuplocie.">
<polygon fill="none" stroke="black" points="187,-240.5 187,-270.5 312,-270.5 312,-240.5 187,-240.5"/>
<text text-anchor="start" x="195" y="-258.5" font-family="Helvetica,sans-Serif" font-size="10.00">Drone::Drone_rotation</text>
<text text-anchor="middle" x="249.5" y="-247.5" font-family="Helvetica,sans-Serif" font-size="10.00">_animation</text>
</a>
</g>
</g>
<!-- Node1&#45;&gt;Node6 -->
<g id="edge6" class="edge">
<title>Node1&#45;&gt;Node6</title>
<path fill="none" stroke="midnightblue" d="M396.69,-176.41C377.3,-193.01 348.87,-215.45 321,-230.5 314.14,-234.2 306.63,-237.54 299.14,-240.49"/>
<polygon fill="midnightblue" stroke="midnightblue" points="399.17,-178.9 404.42,-169.7 394.58,-173.61 399.17,-178.9"/>
</g>
<!-- Node7 -->
<g id="node7" class="node">
<title>Node7</title>
<g id="a_node7"><a xlink:href="class_scene.html#ae4468d0e93e36895e970d61abd760fba" target="_top" xlink:title="Metoda inicjalizujaca lacze do gnuplota.">
<polygon fill="none" stroke="black" points="194.5,-50 194.5,-69 304.5,-69 304.5,-50 194.5,-50"/>
<text text-anchor="middle" x="249.5" y="-57" font-family="Helvetica,sans-Serif" font-size="10.00">Scene::init_gnuplot</text>
</a>
</g>
</g>
<!-- Node1&#45;&gt;Node7 -->
<g id="edge10" class="edge">
<title>Node1&#45;&gt;Node7</title>
<path fill="none" stroke="midnightblue" d="M395.18,-132.99C375.74,-117.6 347.92,-97.27 321,-83.5 309.72,-77.73 296.74,-72.86 285.02,-69.05"/>
<polygon fill="midnightblue" stroke="midnightblue" points="393.24,-135.92 403.23,-139.45 397.63,-130.46 393.24,-135.92"/>
</g>
<!-- Node8 -->
<g id="node8" class="node">
<title>Node8</title>
<g id="a_node8"><a xlink:href="class_menu.html#af7e6a49bd56499facef9cc98561ea169" target="_top" xlink:title="Inicjuje i obsluguje menu.">
<polygon fill="none" stroke="black" points="22,-74 22,-93 120,-93 120,-74 22,-74"/>
<text text-anchor="middle" x="71" y="-81" font-family="Helvetica,sans-Serif" font-size="10.00">Menu::init_menu</text>
</a>
</g>
</g>
<!-- Node1&#45;&gt;Node8 -->
<g id="edge12" class="edge">
<title>Node1&#45;&gt;Node8</title>
<path fill="none" stroke="midnightblue" d="M347.05,-139.46C278.1,-125.43 177.35,-104.93 118.85,-93.03"/>
<polygon fill="midnightblue" stroke="midnightblue" points="346.49,-142.91 356.99,-141.48 347.89,-136.05 346.49,-142.91"/>
</g>
<!-- Node9 -->
<g id="node9" class="node">
<title>Node9</title>
<g id="a_node9"><a xlink:href="class_drone.html#a577871807280aab8d9c0d4e45b435ec4" target="_top" xlink:title="Metoda rysujaca drona w gnuplocie. Przeznaczona do testow">
<polygon fill="none" stroke="black" points="184,-0.5 184,-30.5 315,-30.5 315,-0.5 184,-0.5"/>
<text text-anchor="start" x="192" y="-18.5" font-family="Helvetica,sans-Serif" font-size="10.00">Drone::Print_to_gnuplot</text>
<text text-anchor="middle" x="249.5" y="-7.5" font-family="Helvetica,sans-Serif" font-size="10.00">_drone</text>
</a>
</g>
</g>
<!-- Node1&#45;&gt;Node9 -->
<g id="edge13" class="edge">
<title>Node1&#45;&gt;Node9</title>
<path fill="none" stroke="midnightblue" d="M405.86,-130.99C388.29,-105.43 357.06,-64.95 321,-40.5 315.41,-36.71 309.18,-33.43 302.81,-30.61"/>
<polygon fill="midnightblue" stroke="midnightblue" points="403.01,-133.02 411.49,-139.36 408.82,-129.11 403.01,-133.02"/>
</g>
<!-- Node3&#45;&gt;Node2 -->
<g id="edge3" class="edge">
<title>Node3&#45;&gt;Node2</title>
<path fill="none" stroke="midnightblue" d="M200.48,-223.47C177.87,-229.11 150.77,-235.86 127.31,-241.71"/>
<polygon fill="midnightblue" stroke="midnightblue" points="201.35,-226.86 210.2,-221.05 199.65,-220.07 201.35,-226.86"/>
</g>
<!-- Node3&#45;&gt;Node4 -->
<g id="edge4" class="edge">
<title>Node3&#45;&gt;Node4</title>
<path fill="none" stroke="midnightblue" d="M167.93,-204.2C159.31,-203.42 150.6,-202.63 142.12,-201.86"/>
<polygon fill="midnightblue" stroke="midnightblue" points="167.71,-207.69 177.98,-205.11 168.34,-200.72 167.71,-207.69"/>
</g>
<!-- Node3&#45;&gt;Node5 -->
<g id="edge5" class="edge">
<title>Node3&#45;&gt;Node5</title>
<path fill="none" stroke="midnightblue" d="M214.1,-198.25C184.53,-186.86 141.92,-170.44 111.08,-158.56"/>
<polygon fill="midnightblue" stroke="midnightblue" points="213,-201.57 223.59,-201.9 215.51,-195.04 213,-201.57"/>
</g>
<!-- Node6&#45;&gt;Node2 -->
<g id="edge7" class="edge">
<title>Node6&#45;&gt;Node2</title>
<path fill="none" stroke="midnightblue" d="M176.63,-255.5C160.14,-255.5 142.87,-255.5 127.21,-255.5"/>
<polygon fill="midnightblue" stroke="midnightblue" points="176.77,-259 186.77,-255.5 176.77,-252 176.77,-259"/>
</g>
<!-- Node7&#45;&gt;Node8 -->
<g id="edge11" class="edge">
<title>Node7&#45;&gt;Node8</title>
<path fill="none" stroke="midnightblue" d="M183.94,-68.28C162.89,-71.14 139.88,-74.27 120.23,-76.94"/>
<polygon fill="midnightblue" stroke="midnightblue" points="184.67,-71.71 194.1,-66.9 183.72,-64.78 184.67,-71.71"/>
</g>
</g>
</svg>
