<?xml version="1.0" encoding="UTF-8" standalone="no"?>
<!DOCTYPE svg PUBLIC "-//W3C//DTD SVG 1.1//EN"
 "http://www.w3.org/Graphics/SVG/1.1/DTD/svg11.dtd">
<!-- Generated by graphviz version 2.43.0 (0)
 -->
<!-- Title: Scene::init_gnuplot Pages: 1 -->
<svg width="850pt" height="416pt"
 viewBox="0.00 0.00 850.00 416.00" xmlns="http://www.w3.org/2000/svg" xmlns:xlink="http://www.w3.org/1999/xlink">
<g id="graph0" class="graph" transform="scale(1 1) rotate(0) translate(4 412)">
<title>Scene::init_gnuplot</title>
<!-- Node1 -->
<g id="node1" class="node">
<title>Node1</title>
<g id="a_node1"><a xlink:title="Metoda inicjalizujaca lacze do gnuplota.">
<polygon fill="#bfbfbf" stroke="black" points="0,-153 0,-172 110,-172 110,-153 0,-153"/>
<text text-anchor="middle" x="55" y="-160" font-family="Helvetica,sans-Serif" font-size="10.00">Scene::init_gnuplot</text>
</a>
</g>
</g>
<!-- Node2 -->
<g id="node2" class="node">
<title>Node2</title>
<g id="a_node2"><a xlink:href="class_scene.html#af0103ddde1032f0abe26cefcfbdb0cac" target="_top" xlink:title="Metoda dodajaca do lacza plik z plaszczyzna.">
<polygon fill="none" stroke="black" points="159.5,-246 159.5,-265 262.5,-265 262.5,-246 159.5,-246"/>
<text text-anchor="middle" x="211" y="-253" font-family="Helvetica,sans-Serif" font-size="10.00">Scene::Add_Plane</text>
</a>
</g>
</g>
<!-- Node1&#45;&gt;Node2 -->
<g id="edge1" class="edge">
<title>Node1&#45;&gt;Node2</title>
<path fill="none" stroke="midnightblue" d="M65.61,-172.42C81.15,-187.95 113.38,-218.01 146,-235.5 150.87,-238.11 156.14,-240.44 161.49,-242.51"/>
<polygon fill="midnightblue" stroke="midnightblue" points="160.54,-245.89 171.14,-245.94 162.89,-239.29 160.54,-245.89"/>
</g>
<!-- Node5 -->
<g id="node5" class="node">
<title>Node5</title>
<g id="a_node5"><a xlink:href="class_pz_g_1_1_lacze_do_g_n_u_plota.html#a065f5b8402737cc62b0ad4f66d028335" target="_top" xlink:title="Generuje polecenie rysowania i przesyła je do gnuplota.">
<polygon fill="none" stroke="black" points="146,-284.5 146,-314.5 276,-314.5 276,-284.5 146,-284.5"/>
<text text-anchor="start" x="154" y="-302.5" font-family="Helvetica,sans-Serif" font-size="10.00">PzG::LaczeDoGNUPlota</text>
<text text-anchor="middle" x="211" y="-291.5" font-family="Helvetica,sans-Serif" font-size="10.00">::Rysuj</text>
</a>
</g>
</g>
<!-- Node1&#45;&gt;Node5 -->
<g id="edge4" class="edge">
<title>Node1&#45;&gt;Node5</title>
<path fill="none" stroke="midnightblue" d="M61.45,-172.32C73.8,-193.74 105.98,-245.13 146,-274.5 148.52,-276.35 151.18,-278.08 153.95,-279.69"/>
<polygon fill="midnightblue" stroke="midnightblue" points="152.56,-282.92 163.04,-284.49 155.83,-276.73 152.56,-282.92"/>
</g>
<!-- Node12 -->
<g id="node12" class="node">
<title>Node12</title>
<g id="a_node12"><a xlink:href="class_drone.html#a63898ba4cc161710cf08f7b578f3d90f" target="_top" xlink:title="Metoda ustawiajaca nazwy plikow w laczy do gnuplota (nazwy final!)">
<polygon fill="none" stroke="black" points="151,-196.5 151,-226.5 271,-226.5 271,-196.5 151,-196.5"/>
<text text-anchor="start" x="159" y="-214.5" font-family="Helvetica,sans-Serif" font-size="10.00">Drone::set_filenames</text>
<text text-anchor="middle" x="211" y="-203.5" font-family="Helvetica,sans-Serif" font-size="10.00">_gnuplot</text>
</a>
</g>
</g>
<!-- Node1&#45;&gt;Node12 -->
<g id="edge11" class="edge">
<title>Node1&#45;&gt;Node12</title>
<path fill="none" stroke="midnightblue" d="M86.06,-172.06C105.13,-178.13 130.41,-186.18 153.17,-193.42"/>
<polygon fill="midnightblue" stroke="midnightblue" points="152.15,-196.77 162.74,-196.46 154.27,-190.1 152.15,-196.77"/>
</g>
<!-- Node20 -->
<g id="node20" class="node">
<title>Node20</title>
<g id="a_node20"><a xlink:href="class_pz_g_1_1_lacze_do_g_n_u_plota.html#a9c91987dfc869d6fcea96205c581daef" target="_top" xlink:title="Ustawia zakres osi OX.">
<polygon fill="none" stroke="black" points="146,-147.5 146,-177.5 276,-177.5 276,-147.5 146,-147.5"/>
<text text-anchor="start" x="154" y="-165.5" font-family="Helvetica,sans-Serif" font-size="10.00">PzG::LaczeDoGNUPlota</text>
<text text-anchor="middle" x="211" y="-154.5" font-family="Helvetica,sans-Serif" font-size="10.00">::UstawZakresX</text>
</a>
</g>
</g>
<!-- Node1&#45;&gt;Node20 -->
<g id="edge21" class="edge">
<title>Node1&#45;&gt;Node20</title>
<path fill="none" stroke="midnightblue" d="M110.29,-162.5C118.57,-162.5 127.24,-162.5 135.85,-162.5"/>
<polygon fill="midnightblue" stroke="midnightblue" points="135.92,-166 145.92,-162.5 135.92,-159 135.92,-166"/>
</g>
<!-- Node21 -->
<g id="node21" class="node">
<title>Node21</title>
<g id="a_node21"><a xlink:href="class_pz_g_1_1_lacze_do_g_n_u_plota.html#a54c6e9cf9ab2eae479451fd953c2717c" target="_top" xlink:title="Ustawia zakres osi OY.">
<polygon fill="none" stroke="black" points="146,-98.5 146,-128.5 276,-128.5 276,-98.5 146,-98.5"/>
<text text-anchor="start" x="154" y="-116.5" font-family="Helvetica,sans-Serif" font-size="10.00">PzG::LaczeDoGNUPlota</text>
<text text-anchor="middle" x="211" y="-105.5" font-family="Helvetica,sans-Serif" font-size="10.00">::UstawZakresY</text>
</a>
</g>
</g>
<!-- Node1&#45;&gt;Node21 -->
<g id="edge22" class="edge">
<title>Node1&#45;&gt;Node21</title>
<path fill="none" stroke="midnightblue" d="M86.06,-152.94C105.13,-146.87 130.41,-138.82 153.17,-131.58"/>
<polygon fill="midnightblue" stroke="midnightblue" points="154.27,-134.9 162.74,-128.54 152.15,-128.23 154.27,-134.9"/>
</g>
<!-- Node22 -->
<g id="node22" class="node">
<title>Node22</title>
<g id="a_node22"><a xlink:href="class_pz_g_1_1_lacze_do_g_n_u_plota.html#a1dbbb2b86fb13b8632e6bad9df2a82e3" target="_top" xlink:title="Ustawia zakres osi OZ.">
<polygon fill="none" stroke="black" points="146,-49.5 146,-79.5 276,-79.5 276,-49.5 146,-49.5"/>
<text text-anchor="start" x="154" y="-67.5" font-family="Helvetica,sans-Serif" font-size="10.00">PzG::LaczeDoGNUPlota</text>
<text text-anchor="middle" x="211" y="-56.5" font-family="Helvetica,sans-Serif" font-size="10.00">::UstawZakresZ</text>
</a>
</g>
</g>
<!-- Node1&#45;&gt;Node22 -->
<g id="edge23" class="edge">
<title>Node1&#45;&gt;Node22</title>
<path fill="none" stroke="midnightblue" d="M65.7,-152.65C81.37,-137.19 113.76,-107.11 146,-88.5 148.83,-86.87 151.78,-85.31 154.81,-83.83"/>
<polygon fill="midnightblue" stroke="midnightblue" points="156.4,-86.95 164.05,-79.62 153.5,-80.58 156.4,-86.95"/>
</g>
<!-- Node23 -->
<g id="node23" class="node">
<title>Node23</title>
<g id="a_node23"><a xlink:href="class_pz_g_1_1_lacze_do_g_n_u_plota.html#ae92c65357bf682478cc68f77885b61d8" target="_top" xlink:title="Zmienia tryb rysowania.">
<polygon fill="none" stroke="black" points="146,-0.5 146,-30.5 276,-30.5 276,-0.5 146,-0.5"/>
<text text-anchor="start" x="154" y="-18.5" font-family="Helvetica,sans-Serif" font-size="10.00">PzG::LaczeDoGNUPlota</text>
<text text-anchor="middle" x="211" y="-7.5" font-family="Helvetica,sans-Serif" font-size="10.00">::ZmienTrybRys</text>
</a>
</g>
</g>
<!-- Node1&#45;&gt;Node23 -->
<g id="edge24" class="edge">
<title>Node1&#45;&gt;Node23</title>
<path fill="none" stroke="midnightblue" d="M60.64,-152.7C72,-129.71 103.42,-71.8 146,-39.5 147.81,-38.13 149.7,-36.83 151.65,-35.6"/>
<polygon fill="midnightblue" stroke="midnightblue" points="153.54,-38.56 160.56,-30.63 150.13,-32.45 153.54,-38.56"/>
</g>
<!-- Node3 -->
<g id="node3" class="node">
<title>Node3</title>
<g id="a_node3"><a xlink:href="class_pz_g_1_1_lacze_do_g_n_u_plota.html#aa815ce8ec16e12fc246cf422e562869e" target="_top" xlink:title="Dodaje nazwę pliku.">
<polygon fill="none" stroke="black" points="335,-240.5 335,-270.5 465,-270.5 465,-240.5 335,-240.5"/>
<text text-anchor="start" x="343" y="-258.5" font-family="Helvetica,sans-Serif" font-size="10.00">PzG::LaczeDoGNUPlota</text>
<text text-anchor="middle" x="400" y="-247.5" font-family="Helvetica,sans-Serif" font-size="10.00">::DodajNazwePliku</text>
</a>
</g>
</g>
<!-- Node2&#45;&gt;Node3 -->
<g id="edge2" class="edge">
<title>Node2&#45;&gt;Node3</title>
<path fill="none" stroke="midnightblue" d="M262.6,-255.5C281.75,-255.5 303.97,-255.5 324.84,-255.5"/>
<polygon fill="midnightblue" stroke="midnightblue" points="324.95,-259 334.95,-255.5 324.95,-252 324.95,-259"/>
</g>
<!-- Node4 -->
<g id="node4" class="node">
<title>Node4</title>
<g id="a_node4"><a xlink:href="namespace_pz_g.html#ae1aad0c681853d7e47da4cdfccefc102" target="_top" xlink:title="Funkcja pomocnicza, sprawdza czy plik o podanej nazwie jest na dysku.">
<polygon fill="none" stroke="black" points="549,-246 549,-265 644,-265 644,-246 549,-246"/>
<text text-anchor="middle" x="596.5" y="-253" font-family="Helvetica,sans-Serif" font-size="10.00">PzG::CzyJestPlik</text>
</a>
</g>
</g>
<!-- Node3&#45;&gt;Node4 -->
<g id="edge3" class="edge">
<title>Node3&#45;&gt;Node4</title>
<path fill="none" stroke="midnightblue" d="M465.23,-255.5C488.93,-255.5 515.6,-255.5 538.6,-255.5"/>
<polygon fill="midnightblue" stroke="midnightblue" points="538.89,-259 548.89,-255.5 538.89,-252 538.89,-259"/>
</g>
<!-- Node6 -->
<g id="node6" class="node">
<title>Node6</title>
<g id="a_node6"><a xlink:href="namespace_pz_g.html#aa010184f31b26bb561b42f22438b821e" target="_top" xlink:title="Funkcja pomocnicza, dopisuje do polecenia wpisy związane z rysowaniem z pliku.">
<polygon fill="none" stroke="black" points="317,-290 317,-309 483,-309 483,-290 317,-290"/>
<text text-anchor="middle" x="400" y="-297" font-family="Helvetica,sans-Serif" font-size="10.00">PzG::DopiszRysowanieZPlikow</text>
</a>
</g>
</g>
<!-- Node5&#45;&gt;Node6 -->
<g id="edge5" class="edge">
<title>Node5&#45;&gt;Node6</title>
<path fill="none" stroke="midnightblue" d="M276.09,-299.5C285.93,-299.5 296.24,-299.5 306.54,-299.5"/>
<polygon fill="midnightblue" stroke="midnightblue" points="306.82,-303 316.82,-299.5 306.82,-296 306.82,-303"/>
</g>
<!-- Node7 -->
<g id="node7" class="node">
<title>Node7</title>
<g id="a_node7"><a xlink:href="namespace_pz_g.html#a7227cb39c785b1c746b6bb5515c0b781" target="_top" xlink:title="Dodaje do listy rysowanych punktów, punkty o różnych rozmiarach.">
<polygon fill="none" stroke="black" points="312,-328.5 312,-358.5 488,-358.5 488,-328.5 312,-328.5"/>
<text text-anchor="start" x="320" y="-346.5" font-family="Helvetica,sans-Serif" font-size="10.00">PzG::DopiszRysowanieZRoznych</text>
<text text-anchor="middle" x="400" y="-335.5" font-family="Helvetica,sans-Serif" font-size="10.00">Punktow</text>
</a>
</g>
</g>
<!-- Node5&#45;&gt;Node7 -->
<g id="edge6" class="edge">
<title>Node5&#45;&gt;Node7</title>
<path fill="none" stroke="midnightblue" d="M275.83,-314.52C291.69,-318.25 308.82,-322.28 325.12,-326.12"/>
<polygon fill="midnightblue" stroke="midnightblue" points="324.6,-329.59 335.14,-328.47 326.21,-322.78 324.6,-329.59"/>
</g>
<!-- Node8 -->
<g id="node8" class="node">
<title>Node8</title>
<g id="a_node8"><a xlink:href="namespace_pz_g.html#a169c311f0e0b6ffadcd44e91e749f72d" target="_top" xlink:title="Wczytuje z pliku listę punktów.">
<polygon fill="none" stroke="black" points="524,-328.5 524,-358.5 669,-358.5 669,-328.5 524,-328.5"/>
<text text-anchor="start" x="532" y="-346.5" font-family="Helvetica,sans-Serif" font-size="10.00">PzG::WczytajListeRoznych</text>
<text text-anchor="middle" x="596.5" y="-335.5" font-family="Helvetica,sans-Serif" font-size="10.00">Punktow</text>
</a>
</g>
</g>
<!-- Node7&#45;&gt;Node8 -->
<g id="edge7" class="edge">
<title>Node7&#45;&gt;Node8</title>
<path fill="none" stroke="midnightblue" d="M488.01,-343.5C496.5,-343.5 505.09,-343.5 513.52,-343.5"/>
<polygon fill="midnightblue" stroke="midnightblue" points="513.71,-347 523.71,-343.5 513.71,-340 513.71,-347"/>
</g>
<!-- Node9 -->
<g id="node9" class="node">
<title>Node9</title>
<g id="a_node9"><a xlink:href="class_pz_g_1_1_atrybuty_rysowania.html#ab068535b4d2f755c394557d1da72a4eb" target="_top" xlink:title="Zmienia kolor rysowania.">
<polygon fill="none" stroke="black" points="705,-328.5 705,-358.5 842,-358.5 842,-328.5 705,-328.5"/>
<text text-anchor="start" x="713" y="-346.5" font-family="Helvetica,sans-Serif" font-size="10.00">PzG::AtrybutyRysowania</text>
<text text-anchor="middle" x="773.5" y="-335.5" font-family="Helvetica,sans-Serif" font-size="10.00">::ZmienKolor</text>
</a>
</g>
</g>
<!-- Node8&#45;&gt;Node9 -->
<g id="edge8" class="edge">
<title>Node8&#45;&gt;Node9</title>
<path fill="none" stroke="midnightblue" d="M669.18,-343.5C677.57,-343.5 686.16,-343.5 694.63,-343.5"/>
<polygon fill="midnightblue" stroke="midnightblue" points="694.87,-347 704.87,-343.5 694.87,-340 694.87,-347"/>
</g>
<!-- Node10 -->
<g id="node10" class="node">
<title>Node10</title>
<g id="a_node10"><a xlink:href="class_pz_g_1_1_atrybuty_rysowania.html#af4b140eb03bc10b6fd816fad63f8372e" target="_top" xlink:title="Zmienia rozmiar rysowania.">
<polygon fill="none" stroke="black" points="705,-279.5 705,-309.5 842,-309.5 842,-279.5 705,-279.5"/>
<text text-anchor="start" x="713" y="-297.5" font-family="Helvetica,sans-Serif" font-size="10.00">PzG::AtrybutyRysowania</text>
<text text-anchor="middle" x="773.5" y="-286.5" font-family="Helvetica,sans-Serif" font-size="10.00">::ZmienRozmiar</text>
</a>
</g>
</g>
<!-- Node8&#45;&gt;Node10 -->
<g id="edge9" class="edge">
<title>Node8&#45;&gt;Node10</title>
<path fill="none" stroke="midnightblue" d="M651.43,-328.4C669.65,-323.3 690.15,-317.56 709.04,-312.27"/>
<polygon fill="midnightblue" stroke="midnightblue" points="710.06,-315.62 718.74,-309.55 708.17,-308.88 710.06,-315.62"/>
</g>
<!-- Node11 -->
<g id="node11" class="node">
<title>Node11</title>
<g id="a_node11"><a xlink:href="class_pz_g_1_1_atrybuty_rysowania.html#a2ac97706124b14072715ecf3f07e82b4" target="_top" xlink:title="Zmienia styl rysowania.">
<polygon fill="none" stroke="black" points="705,-377.5 705,-407.5 842,-407.5 842,-377.5 705,-377.5"/>
<text text-anchor="start" x="713" y="-395.5" font-family="Helvetica,sans-Serif" font-size="10.00">PzG::AtrybutyRysowania</text>
<text text-anchor="middle" x="773.5" y="-384.5" font-family="Helvetica,sans-Serif" font-size="10.00">::ZmienStyl</text>
</a>
</g>
</g>
<!-- Node8&#45;&gt;Node11 -->
<g id="edge10" class="edge">
<title>Node8&#45;&gt;Node11</title>
<path fill="none" stroke="midnightblue" d="M651.43,-358.6C669.65,-363.7 690.15,-369.44 709.04,-374.73"/>
<polygon fill="midnightblue" stroke="midnightblue" points="708.17,-378.12 718.74,-377.45 710.06,-371.38 708.17,-378.12"/>
</g>
<!-- Node12&#45;&gt;Node3 -->
<g id="edge15" class="edge">
<title>Node12&#45;&gt;Node3</title>
<path fill="none" stroke="midnightblue" d="M271.17,-225.42C288.32,-229.46 307.27,-233.92 325.2,-238.13"/>
<polygon fill="midnightblue" stroke="midnightblue" points="324.5,-241.57 335.04,-240.45 326.11,-234.75 324.5,-241.57"/>
</g>
<!-- Node13 -->
<g id="node13" class="node">
<title>Node13</title>
<g id="a_node13"><a xlink:href="class_cuboid.html#abc62d20a2f1418af1c35e369da77f0fc" target="_top" xlink:title=" ">
<polygon fill="none" stroke="black" points="336,-88 336,-107 464,-107 464,-88 336,-88"/>
<text text-anchor="middle" x="400" y="-95" font-family="Helvetica,sans-Serif" font-size="10.00">Cuboid::Cuboid_To_File</text>
</a>
</g>
</g>
<!-- Node12&#45;&gt;Node13 -->
<g id="edge12" class="edge">
<title>Node12&#45;&gt;Node13</title>
<path fill="none" stroke="midnightblue" d="M261.67,-196.4C266.84,-193.61 271.75,-190.34 276,-186.5 301.97,-163.06 284.26,-137.82 312,-116.5 316.37,-113.14 321.2,-110.35 326.29,-108.04"/>
<polygon fill="midnightblue" stroke="midnightblue" points="327.65,-111.26 335.68,-104.36 325.1,-104.75 327.65,-111.26"/>
</g>
<!-- Node16 -->
<g id="node16" class="node">
<title>Node16</title>
<g id="a_node16"><a xlink:href="class_block.html#aeef4dd3716afaea42688a4f96456ce27" target="_top" xlink:title="Metoda zwracajaca nazwe pliku z finalna (robocza) bryla">
<polygon fill="none" stroke="black" points="337.5,-202 337.5,-221 462.5,-221 462.5,-202 337.5,-202"/>
<text text-anchor="middle" x="400" y="-209" font-family="Helvetica,sans-Serif" font-size="10.00">Block::get_final_name</text>
</a>
</g>
</g>
<!-- Node12&#45;&gt;Node16 -->
<g id="edge16" class="edge">
<title>Node12&#45;&gt;Node16</title>
<path fill="none" stroke="midnightblue" d="M271.17,-211.5C288.95,-211.5 308.66,-211.5 327.18,-211.5"/>
<polygon fill="midnightblue" stroke="midnightblue" points="327.32,-215 337.32,-211.5 327.32,-208 327.32,-215"/>
</g>
<!-- Node17 -->
<g id="node17" class="node">
<title>Node17</title>
<g id="a_node17"><a xlink:href="class_block.html#aed17e0cb13b8eea50fe735ba05204da9" target="_top" xlink:title="Metoda zwracajaca nazwe pliku z wzorcowa bryla">
<polygon fill="none" stroke="black" points="330,-164 330,-183 470,-183 470,-164 330,-164"/>
<text text-anchor="middle" x="400" y="-171" font-family="Helvetica,sans-Serif" font-size="10.00">Block::get_sample_name</text>
</a>
</g>
</g>
<!-- Node12&#45;&gt;Node17 -->
<g id="edge17" class="edge">
<title>Node12&#45;&gt;Node17</title>
<path fill="none" stroke="midnightblue" d="M271.17,-199.48C293.81,-194.88 319.57,-189.64 342,-185.08"/>
<polygon fill="midnightblue" stroke="midnightblue" points="342.95,-188.46 352.05,-183.04 341.56,-181.6 342.95,-188.46"/>
</g>
<!-- Node18 -->
<g id="node18" class="node">
<title>Node18</title>
<g id="a_node18"><a xlink:href="class_prism.html#a2de0dab6d117fc3c8dcbc3c384d0fccd" target="_top" xlink:title=" ">
<polygon fill="none" stroke="black" points="342,-126 342,-145 458,-145 458,-126 342,-126"/>
<text text-anchor="middle" x="400" y="-133" font-family="Helvetica,sans-Serif" font-size="10.00">Prism::Prism_To_File</text>
</a>
</g>
</g>
<!-- Node12&#45;&gt;Node18 -->
<g id="edge18" class="edge">
<title>Node12&#45;&gt;Node18</title>
<path fill="none" stroke="midnightblue" d="M256.71,-196.4C263.36,-193.49 270,-190.18 276,-186.5 294.26,-175.32 292.92,-164.21 312,-154.5 318.35,-151.27 325.23,-148.59 332.24,-146.36"/>
<polygon fill="midnightblue" stroke="midnightblue" points="333.21,-149.72 341.85,-143.59 331.28,-142.99 333.21,-149.72"/>
</g>
<!-- Node14 -->
<g id="node14" class="node">
<title>Node14</title>
<g id="a_node14"><a xlink:href="class_cuboid.html#a12a97376443b1a15ae8342c1c75b3e1e" target="_top" xlink:title="Metoda wypisania odpowiednich wierzcholkow do pliku zgodnie z zaproponowanym sposobem zadaniu dron">
<polygon fill="none" stroke="black" points="529,-88 529,-107 664,-107 664,-88 529,-88"/>
<text text-anchor="middle" x="596.5" y="-95" font-family="Helvetica,sans-Serif" font-size="10.00">Cuboid::print_cuboid_3D</text>
</a>
</g>
</g>
<!-- Node13&#45;&gt;Node14 -->
<g id="edge13" class="edge">
<title>Node13&#45;&gt;Node14</title>
<path fill="none" stroke="midnightblue" d="M464.15,-97.5C481.57,-97.5 500.66,-97.5 518.76,-97.5"/>
<polygon fill="midnightblue" stroke="midnightblue" points="518.99,-101 528.99,-97.5 518.99,-94 518.99,-101"/>
</g>
<!-- Node15 -->
<g id="node15" class="node">
<title>Node15</title>
<g id="a_node15"><a xlink:href="class_vector.html#ab2bb1182cee2389eda163fb7b767f36d" target="_top" xlink:title="Zwraca wektor do tablicy o rozmiarze SIZE &#160;&#160;Argumenty:">
<polygon fill="none" stroke="black" points="727.5,-107 727.5,-126 819.5,-126 819.5,-107 727.5,-107"/>
<text text-anchor="middle" x="773.5" y="-114" font-family="Helvetica,sans-Serif" font-size="10.00">Vector::get_vec</text>
</a>
</g>
</g>
<!-- Node14&#45;&gt;Node15 -->
<g id="edge14" class="edge">
<title>Node14&#45;&gt;Node15</title>
<path fill="none" stroke="midnightblue" d="M664.16,-104.74C681.68,-106.64 700.38,-108.67 717.23,-110.5"/>
<polygon fill="midnightblue" stroke="midnightblue" points="717.13,-114.01 727.45,-111.61 717.89,-107.05 717.13,-114.01"/>
</g>
<!-- Node19 -->
<g id="node19" class="node">
<title>Node19</title>
<g id="a_node19"><a xlink:href="class_prism.html#a764c6940e4fb65303981e8b877b28561" target="_top" xlink:title="Metoda wypisania odpowiednich wierzcholkow do pliku zgodnie z zaproponowanym sposobem zadaniu dron">
<polygon fill="none" stroke="black" points="534,-126 534,-145 659,-145 659,-126 534,-126"/>
<text text-anchor="middle" x="596.5" y="-133" font-family="Helvetica,sans-Serif" font-size="10.00">Prism::print_prism_3D</text>
</a>
</g>
</g>
<!-- Node18&#45;&gt;Node19 -->
<g id="edge19" class="edge">
<title>Node18&#45;&gt;Node19</title>
<path fill="none" stroke="midnightblue" d="M458.04,-135.5C478.56,-135.5 501.97,-135.5 523.59,-135.5"/>
<polygon fill="midnightblue" stroke="midnightblue" points="523.7,-139 533.7,-135.5 523.7,-132 523.7,-139"/>
</g>
<!-- Node19&#45;&gt;Node15 -->
<g id="edge20" class="edge">
<title>Node19&#45;&gt;Node15</title>
<path fill="none" stroke="midnightblue" d="M659.2,-128.8C678.13,-126.75 698.83,-124.5 717.3,-122.49"/>
<polygon fill="midnightblue" stroke="midnightblue" points="717.74,-125.97 727.3,-121.41 716.98,-119.01 717.74,-125.97"/>
</g>
</g>
</svg>
