<?xml version="1.0" encoding="UTF-8" standalone="no"?>
<!DOCTYPE svg PUBLIC "-//W3C//DTD SVG 1.1//EN"
 "http://www.w3.org/Graphics/SVG/1.1/DTD/svg11.dtd">
<!-- Generated by graphviz version 2.43.0 (0)
 -->
<!-- Title: Cuboid::check_vec_perp Pages: 1 -->
<svg width="753pt" height="66pt"
 viewBox="0.00 0.00 753.00 66.00" xmlns="http://www.w3.org/2000/svg" xmlns:xlink="http://www.w3.org/1999/xlink">
<g id="graph0" class="graph" transform="scale(1 1) rotate(0) translate(4 62)">
<title>Cuboid::check_vec_perp</title>
<!-- Node1 -->
<g id="node1" class="node">
<title>Node1</title>
<g id="a_node1"><a xlink:title="Sprawdza czy wektory tworzace niektore konkretne boki prostokata (glownie te przy wierzcholkach) sa p...">
<polygon fill="#bfbfbf" stroke="black" points="611,-19.5 611,-38.5 745,-38.5 745,-19.5 611,-19.5"/>
<text text-anchor="middle" x="678" y="-26.5" font-family="Helvetica,sans-Serif" font-size="10.00">Cuboid::check_vec_perp</text>
</a>
</g>
</g>
<!-- Node2 -->
<g id="node2" class="node">
<title>Node2</title>
<g id="a_node2"><a xlink:href="class_menu__cub.html#a70948401b7953953e9827b2614d2ae5a" target="_top" xlink:title="Sprawdza i wyswietla wszelkie asercje odnosnie prostopadloscianu Argumenty:">
<polygon fill="none" stroke="black" points="330,-38.5 330,-57.5 432,-57.5 432,-38.5 330,-38.5"/>
<text text-anchor="middle" x="381" y="-45.5" font-family="Helvetica,sans-Serif" font-size="10.00">Menu_cub::assert</text>
</a>
</g>
</g>
<!-- Node1&#45;&gt;Node2 -->
<g id="edge1" class="edge">
<title>Node1&#45;&gt;Node2</title>
<path fill="none" stroke="midnightblue" d="M600.76,-33.91C547.77,-37.32 478.62,-41.78 432.38,-44.75"/>
<polygon fill="midnightblue" stroke="midnightblue" points="601.04,-37.4 610.8,-33.26 600.59,-30.41 601.04,-37.4"/>
</g>
<!-- Node5 -->
<g id="node5" class="node">
<title>Node5</title>
<g id="a_node5"><a xlink:href="class_cuboid.html#a058d488f3125238bd8b8dcbb671ede9e" target="_top" xlink:title="Sprawdza czy prostopadloscian jest poprawnie zbudowany">
<polygon fill="none" stroke="black" points="468,-0.5 468,-19.5 575,-19.5 575,-0.5 468,-0.5"/>
<text text-anchor="middle" x="521.5" y="-7.5" font-family="Helvetica,sans-Serif" font-size="10.00">Cuboid::check_cub</text>
</a>
</g>
</g>
<!-- Node1&#45;&gt;Node5 -->
<g id="edge5" class="edge">
<title>Node1&#45;&gt;Node5</title>
<path fill="none" stroke="midnightblue" d="M600.59,-19.6C592.05,-18.55 583.5,-17.5 575.35,-16.5"/>
<polygon fill="midnightblue" stroke="midnightblue" points="600.23,-23.09 610.58,-20.83 601.08,-16.14 600.23,-23.09"/>
</g>
<!-- Node3 -->
<g id="node3" class="node">
<title>Node3</title>
<g id="a_node3"><a xlink:href="class_menu__cub.html#ab8ed88bc956ac7bdfe7db0807085f7cd" target="_top" xlink:title="Inicjuje menu Argumenty:">
<polygon fill="none" stroke="black" points="0,-38.5 0,-57.5 121,-57.5 121,-38.5 0,-38.5"/>
<text text-anchor="middle" x="60.5" y="-45.5" font-family="Helvetica,sans-Serif" font-size="10.00">Menu_cub::init_menu</text>
</a>
</g>
</g>
<!-- Node2&#45;&gt;Node3 -->
<g id="edge2" class="edge">
<title>Node2&#45;&gt;Node3</title>
<path fill="none" stroke="midnightblue" d="M319.59,-48C262.63,-48 177.77,-48 121.08,-48"/>
<polygon fill="midnightblue" stroke="midnightblue" points="319.88,-51.5 329.88,-48 319.88,-44.5 319.88,-51.5"/>
</g>
<!-- Node4 -->
<g id="node4" class="node">
<title>Node4</title>
<g id="a_node4"><a xlink:href="class_menu__cub.html#a20ac792d84052e50bf3fb95b1745e4df" target="_top" xlink:title="Obsluguje wybor menu Argumenty:">
<polygon fill="none" stroke="black" points="157,-19.5 157,-38.5 294,-38.5 294,-19.5 157,-19.5"/>
<text text-anchor="middle" x="225.5" y="-26.5" font-family="Helvetica,sans-Serif" font-size="10.00">Menu_cub::switch_menu</text>
</a>
</g>
</g>
<!-- Node2&#45;&gt;Node4 -->
<g id="edge3" class="edge">
<title>Node2&#45;&gt;Node4</title>
<path fill="none" stroke="midnightblue" d="M319.69,-40.53C311.31,-39.5 302.67,-38.43 294.17,-37.38"/>
<polygon fill="midnightblue" stroke="midnightblue" points="319.38,-44.02 329.74,-41.78 320.24,-37.08 319.38,-44.02"/>
</g>
<!-- Node4&#45;&gt;Node3 -->
<g id="edge4" class="edge">
<title>Node4&#45;&gt;Node3</title>
<path fill="none" stroke="midnightblue" d="M146.75,-38.06C138.17,-39.06 129.52,-40.07 121.2,-41.04"/>
<polygon fill="midnightblue" stroke="midnightblue" points="147.26,-41.53 156.79,-36.89 146.45,-34.57 147.26,-41.53"/>
</g>
<!-- Node5&#45;&gt;Node2 -->
<g id="edge6" class="edge">
<title>Node5&#45;&gt;Node2</title>
<path fill="none" stroke="midnightblue" d="M475.87,-22.25C456.78,-27.48 434.82,-33.51 416.94,-38.41"/>
<polygon fill="midnightblue" stroke="midnightblue" points="476.83,-25.61 485.55,-19.59 474.98,-18.86 476.83,-25.61"/>
</g>
<!-- Node6 -->
<g id="node6" class="node">
<title>Node6</title>
<g id="a_node6"><a xlink:href="class_drone.html#a40e3c3f032ef691392293efd12a5014b" target="_top" xlink:title="Metoda sprawdzajaca budowe drona">
<polygon fill="none" stroke="black" points="330.5,-0.5 330.5,-19.5 431.5,-19.5 431.5,-0.5 330.5,-0.5"/>
<text text-anchor="middle" x="381" y="-7.5" font-family="Helvetica,sans-Serif" font-size="10.00">Drone::check_dro</text>
</a>
</g>
</g>
<!-- Node5&#45;&gt;Node6 -->
<g id="edge7" class="edge">
<title>Node5&#45;&gt;Node6</title>
<path fill="none" stroke="midnightblue" d="M457.68,-10C449.03,-10 440.25,-10 431.87,-10"/>
<polygon fill="midnightblue" stroke="midnightblue" points="457.74,-13.5 467.74,-10 457.74,-6.5 457.74,-13.5"/>
</g>
</g>
</svg>
