<?xml version="1.0" encoding="UTF-8" standalone="no"?>
<!DOCTYPE svg PUBLIC "-//W3C//DTD SVG 1.1//EN"
 "http://www.w3.org/Graphics/SVG/1.1/DTD/svg11.dtd">
<!-- Generated by graphviz version 2.43.0 (0)
 -->
<!-- Title: Drone::check_dro Pages: 1 -->
<svg width="583pt" height="142pt"
 viewBox="0.00 0.00 583.00 142.00" xmlns="http://www.w3.org/2000/svg" xmlns:xlink="http://www.w3.org/1999/xlink">
<g id="graph0" class="graph" transform="scale(1 1) rotate(0) translate(4 138)">
<title>Drone::check_dro</title>
<!-- Node1 -->
<g id="node1" class="node">
<title>Node1</title>
<g id="a_node1"><a xlink:title="Metoda sprawdzajaca budowe drona">
<polygon fill="#bfbfbf" stroke="black" points="0,-38.5 0,-57.5 101,-57.5 101,-38.5 0,-38.5"/>
<text text-anchor="middle" x="50.5" y="-45.5" font-family="Helvetica,sans-Serif" font-size="10.00">Drone::check_dro</text>
</a>
</g>
</g>
<!-- Node2 -->
<g id="node2" class="node">
<title>Node2</title>
<g id="a_node2"><a xlink:href="class_cuboid.html#a058d488f3125238bd8b8dcbb671ede9e" target="_top" xlink:title="Sprawdza czy prostopadloscian jest poprawnie zbudowany">
<polygon fill="none" stroke="black" points="138.5,-66.5 138.5,-85.5 245.5,-85.5 245.5,-66.5 138.5,-66.5"/>
<text text-anchor="middle" x="192" y="-73.5" font-family="Helvetica,sans-Serif" font-size="10.00">Cuboid::check_cub</text>
</a>
</g>
</g>
<!-- Node1&#45;&gt;Node2 -->
<g id="edge1" class="edge">
<title>Node1&#45;&gt;Node2</title>
<path fill="none" stroke="midnightblue" d="M99.12,-57.56C110.23,-59.79 122.17,-62.19 133.66,-64.49"/>
<polygon fill="midnightblue" stroke="midnightblue" points="133.1,-67.95 143.6,-66.49 134.48,-61.09 133.1,-67.95"/>
</g>
<!-- Node8 -->
<g id="node8" class="node">
<title>Node8</title>
<g id="a_node8"><a xlink:href="class_drone.html#af5242f58fd5a72f0031f3767983ecaba" target="_top" xlink:title="Metoda sprawdzajaca orientacje drona &#160;&#160;Vector3D dron_orien musi byc jednostkowy, oraz miec skladowa z...">
<polygon fill="none" stroke="black" points="137,-19.5 137,-38.5 247,-38.5 247,-19.5 137,-19.5"/>
<text text-anchor="middle" x="192" y="-26.5" font-family="Helvetica,sans-Serif" font-size="10.00">Drone::check_orien</text>
</a>
</g>
</g>
<!-- Node1&#45;&gt;Node8 -->
<g id="edge8" class="edge">
<title>Node1&#45;&gt;Node8</title>
<path fill="none" stroke="midnightblue" d="M101.08,-41.25C109.41,-40.11 118.16,-38.92 126.79,-37.75"/>
<polygon fill="midnightblue" stroke="midnightblue" points="127.41,-41.19 136.85,-36.38 126.47,-34.26 127.41,-41.19"/>
</g>
<!-- Node3 -->
<g id="node3" class="node">
<title>Node3</title>
<g id="a_node3"><a xlink:href="class_cuboid.html#a41233dfb606942e160e3080a23547674" target="_top" xlink:title="Sprawdza czy dlugosci wektory tworzace przeciwne boki prostopadloscianu maja poprawne wartosci (nie s...">
<polygon fill="none" stroke="black" points="286,-114.5 286,-133.5 414,-133.5 414,-114.5 286,-114.5"/>
<text text-anchor="middle" x="350" y="-121.5" font-family="Helvetica,sans-Serif" font-size="10.00">Cuboid::check_vec_len</text>
</a>
</g>
</g>
<!-- Node2&#45;&gt;Node3 -->
<g id="edge2" class="edge">
<title>Node2&#45;&gt;Node3</title>
<path fill="none" stroke="midnightblue" d="M221.71,-85.5C239.35,-91.28 262.43,-98.73 283,-105 290.22,-107.2 297.9,-109.47 305.37,-111.65"/>
<polygon fill="midnightblue" stroke="midnightblue" points="304.45,-115.03 315.02,-114.44 306.39,-108.3 304.45,-115.03"/>
</g>
<!-- Node5 -->
<g id="node5" class="node">
<title>Node5</title>
<g id="a_node5"><a xlink:href="class_cuboid.html#a5840b78caaeac16fd1a262026819501d" target="_top" xlink:title="Sprawdza czy wektory tworzace przeciwne boki prostopadloscianu sa rowne">
<polygon fill="none" stroke="black" points="284.5,-76.5 284.5,-95.5 415.5,-95.5 415.5,-76.5 284.5,-76.5"/>
<text text-anchor="middle" x="350" y="-83.5" font-family="Helvetica,sans-Serif" font-size="10.00">Cuboid::check_vec_opp</text>
</a>
</g>
</g>
<!-- Node2&#45;&gt;Node5 -->
<g id="edge4" class="edge">
<title>Node2&#45;&gt;Node5</title>
<path fill="none" stroke="midnightblue" d="M245.81,-79.39C255,-79.97 264.71,-80.6 274.34,-81.21"/>
<polygon fill="midnightblue" stroke="midnightblue" points="274.13,-84.71 284.34,-81.86 274.58,-77.72 274.13,-84.71"/>
</g>
<!-- Node6 -->
<g id="node6" class="node">
<title>Node6</title>
<g id="a_node6"><a xlink:href="class_cuboid.html#a5941a7b9eb991137a908b38dc24dc9b3" target="_top" xlink:title="Sprawdza czy wektory tworzace niektore konkretne boki prostokata (glownie te przy wierzcholkach) sa p...">
<polygon fill="none" stroke="black" points="283,-38.5 283,-57.5 417,-57.5 417,-38.5 283,-38.5"/>
<text text-anchor="middle" x="350" y="-45.5" font-family="Helvetica,sans-Serif" font-size="10.00">Cuboid::check_vec_perp</text>
</a>
</g>
</g>
<!-- Node2&#45;&gt;Node6 -->
<g id="edge6" class="edge">
<title>Node2&#45;&gt;Node6</title>
<path fill="none" stroke="midnightblue" d="M245.81,-66.52C258.7,-64.21 272.62,-61.71 285.94,-59.32"/>
<polygon fill="midnightblue" stroke="midnightblue" points="286.75,-62.73 295.97,-57.52 285.51,-55.84 286.75,-62.73"/>
</g>
<!-- Node4 -->
<g id="node4" class="node">
<title>Node4</title>
<g id="a_node4"><a xlink:href="class_cuboid.html#a21fa2d6458f5b6c593e3e83b3455c246" target="_top" xlink:title="Zwraca do tablicy 3x2 wektory reprezentujace przeciwne boki prostopadloscianu">
<polygon fill="none" stroke="black" points="455,-95.5 455,-114.5 573,-114.5 573,-95.5 455,-95.5"/>
<text text-anchor="middle" x="514" y="-102.5" font-family="Helvetica,sans-Serif" font-size="10.00">Cuboid::get_vec_opp</text>
</a>
</g>
</g>
<!-- Node3&#45;&gt;Node4 -->
<g id="edge3" class="edge">
<title>Node3&#45;&gt;Node4</title>
<path fill="none" stroke="midnightblue" d="M414.1,-116.6C424.16,-115.42 434.61,-114.19 444.78,-113"/>
<polygon fill="midnightblue" stroke="midnightblue" points="445.31,-116.46 454.84,-111.82 444.5,-109.51 445.31,-116.46"/>
</g>
<!-- Node5&#45;&gt;Node4 -->
<g id="edge5" class="edge">
<title>Node5&#45;&gt;Node4</title>
<path fill="none" stroke="midnightblue" d="M415.96,-93.62C425.4,-94.73 435.14,-95.87 444.64,-96.98"/>
<polygon fill="midnightblue" stroke="midnightblue" points="444.49,-100.49 454.83,-98.18 445.31,-93.54 444.49,-100.49"/>
</g>
<!-- Node7 -->
<g id="node7" class="node">
<title>Node7</title>
<g id="a_node7"><a xlink:href="class_cuboid.html#a3bdc11fd360d0c7d8491f4b42b53bf10" target="_top" xlink:title="Zwraca do tablicy 2x3 wektory reprezentujace boki przy wierzcholkach [0][1] (do vecs[0]) i [1][3] (do...">
<polygon fill="none" stroke="black" points="453,-38.5 453,-57.5 575,-57.5 575,-38.5 453,-38.5"/>
<text text-anchor="middle" x="514" y="-45.5" font-family="Helvetica,sans-Serif" font-size="10.00">Cuboid::get_vec_perp</text>
</a>
</g>
</g>
<!-- Node6&#45;&gt;Node7 -->
<g id="edge7" class="edge">
<title>Node6&#45;&gt;Node7</title>
<path fill="none" stroke="midnightblue" d="M417.36,-48C425.75,-48 434.35,-48 442.79,-48"/>
<polygon fill="midnightblue" stroke="midnightblue" points="442.99,-51.5 452.99,-48 442.99,-44.5 442.99,-51.5"/>
</g>
<!-- Node9 -->
<g id="node9" class="node">
<title>Node9</title>
<g id="a_node9"><a xlink:href="class_vector.html#a3ac695edc693437a61da9f1976fd4869" target="_top" xlink:title="Zwraca dlugosc wektora &#160;&#160;Argumenty: &#160;&#160;Brak &#160;&#160;Zwraca:">
<polygon fill="none" stroke="black" points="305.5,-0.5 305.5,-19.5 394.5,-19.5 394.5,-0.5 305.5,-0.5"/>
<text text-anchor="middle" x="350" y="-7.5" font-family="Helvetica,sans-Serif" font-size="10.00">Vector::get_len</text>
</a>
</g>
</g>
<!-- Node8&#45;&gt;Node9 -->
<g id="edge9" class="edge">
<title>Node8&#45;&gt;Node9</title>
<path fill="none" stroke="midnightblue" d="M247.12,-22.41C262.72,-20.51 279.72,-18.44 295.29,-16.54"/>
<polygon fill="midnightblue" stroke="midnightblue" points="295.78,-20.01 305.28,-15.32 294.93,-13.06 295.78,-20.01"/>
</g>
</g>
</svg>
