<?xml version="1.0" encoding="UTF-8" standalone="no"?>
<!DOCTYPE svg PUBLIC "-//W3C//DTD SVG 1.1//EN"
 "http://www.w3.org/Graphics/SVG/1.1/DTD/svg11.dtd">
<!-- Generated by graphviz version 2.43.0 (0)
 -->
<!-- Title: Menu_cub::init_menu Pages: 1 -->
<!--zoomable 708 -->
<svg id="main" version="1.1" xmlns="http://www.w3.org/2000/svg" xmlns:xlink="http://www.w3.org/1999/xlink" xml:space="preserve" onload="init(evt)">
<style type="text/css"><![CDATA[
.edge:hover path { stroke: red; }
.edge:hover polygon { stroke: red; fill: red; }
]]></style>
<script type="text/javascript"><![CDATA[
var edges = document.getElementsByTagName('g');
if (edges && edges.length) {
  for (var i=0;i<edges.length;i++) {
    if (edges[i].id.substr(0,4)=='edge') {
      edges[i].setAttribute('class','edge');
    }
  }
}
]]></script>
        <defs>
                <circle id="rim" cx="0" cy="0" r="7"/>
                <circle id="rim2" cx="0" cy="0" r="3.5"/>
                <g id="zoomPlus">
                        <use xlink:href="#rim" fill="#404040">
                                <set attributeName="fill" to="#808080" begin="zoomplus.mouseover" end="zoomplus.mouseout"/>
                        </use>
                        <path d="M-4,0h8M0,-4v8" fill="none" stroke="white" stroke-width="1.5" pointer-events="none"/>
                </g>
                <g id="zoomMin">
                        <use xlink:href="#rim" fill="#404040">
                                <set attributeName="fill" to="#808080" begin="zoomminus.mouseover" end="zoomminus.mouseout"/>
                        </use>
                        <path d="M-4,0h8" fill="none" stroke="white" stroke-width="1.5" pointer-events="none"/>
                </g>
                <g id="dirArrow">
                        <path fill="none" stroke="white" stroke-width="1.5" d="M0,-3.0v7 M-2.5,-0.5L0,-3.0L2.5,-0.5"/>
                </g>
               <g id="resetDef">
                       <use xlink:href="#rim2" fill="#404040">
                               <set attributeName="fill" to="#808080" begin="reset.mouseover" end="reset.mouseout"/>
                       </use>
               </g>
        </defs>

<script type="text/javascript">
var viewWidth = 1246;
var viewHeight = 708;
var sectionId = 'dynsection-5';
</script>
<script xlink:href="svgpan.js"/>
<svg id="graph" class="graph">
<g id="viewport">
<title>Menu_cub::init_menu</title>
<!-- Node1 -->
<g id="node1" class="node">
<title>Node1</title>
<g id="a_node1"><a xlink:title="Inicjuje menu Argumenty:">
<polygon fill="#bfbfbf" stroke="black" points="0,-502.5 0,-521.5 121,-521.5 121,-502.5 0,-502.5"/>
<text text-anchor="middle" x="60.5" y="-509.5" font-family="Helvetica,sans-Serif" font-size="10.00">Menu_cub::init_menu</text>
</a>
</g>
</g>
<!-- Node2 -->
<g id="node2" class="node">
<title>Node2</title>
<g id="a_node2"><a xlink:href="class_menu__cub.html#a70948401b7953953e9827b2614d2ae5a" target="_top" xlink:title="Sprawdza i wyswietla wszelkie asercje odnosnie prostopadloscianu Argumenty:">
<polygon fill="none" stroke="black" points="357,-585.5 357,-604.5 459,-604.5 459,-585.5 357,-585.5"/>
<text text-anchor="middle" x="408" y="-592.5" font-family="Helvetica,sans-Serif" font-size="10.00">Menu_cub::assert</text>
</a>
</g>
</g>
<!-- Node1&#45;&gt;Node2 -->
<g id="edge1" class="edge">
<title>Node1&#45;&gt;Node2</title>
<path fill="none" stroke="midnightblue" d="M101.13,-521.52C164.49,-536.74 288.44,-566.52 357.52,-583.11"/>
<polygon fill="midnightblue" stroke="midnightblue" points="356.76,-586.53 367.3,-585.46 358.39,-579.72 356.76,-586.53"/>
</g>
<!-- Node12 -->
<g id="node12" class="node">
<title>Node12</title>
<g id="a_node12"><a xlink:href="class_menu__cub.html#a4c3d76e074f3bff4bb445bcb01f453a9" target="_top" xlink:title="Wyswietla menu.">
<polygon fill="none" stroke="black" points="342.5,-502.5 342.5,-521.5 473.5,-521.5 473.5,-502.5 342.5,-502.5"/>
<text text-anchor="middle" x="408" y="-509.5" font-family="Helvetica,sans-Serif" font-size="10.00">Menu_cub::show_menu</text>
</a>
</g>
</g>
<!-- Node1&#45;&gt;Node12 -->
<g id="edge15" class="edge">
<title>Node1&#45;&gt;Node12</title>
<path fill="none" stroke="midnightblue" d="M121.29,-512C179.74,-512 268.92,-512 332.08,-512"/>
<polygon fill="midnightblue" stroke="midnightblue" points="332.37,-515.5 342.37,-512 332.37,-508.5 332.37,-515.5"/>
</g>
<!-- Node13 -->
<g id="node13" class="node">
<title>Node13</title>
<g id="a_node13"><a xlink:href="class_menu__cub.html#a20ac792d84052e50bf3fb95b1745e4df" target="_top" xlink:title="Obsluguje wybor menu Argumenty:">
<polygon fill="none" stroke="black" points="157,-358.5 157,-377.5 294,-377.5 294,-358.5 157,-358.5"/>
<text text-anchor="middle" x="225.5" y="-365.5" font-family="Helvetica,sans-Serif" font-size="10.00">Menu_cub::switch_menu</text>
</a>
</g>
</g>
<!-- Node1&#45;&gt;Node13 -->
<g id="edge16" class="edge">
<title>Node1&#45;&gt;Node13</title>
<path fill="none" stroke="midnightblue" d="M72.45,-502.33C99.82,-478.14 171.5,-414.83 205.75,-384.57"/>
<polygon fill="midnightblue" stroke="midnightblue" points="208.42,-386.87 213.6,-377.63 203.79,-381.63 208.42,-386.87"/>
</g>
<!-- Node3 -->
<g id="node3" class="node">
<title>Node3</title>
<g id="a_node3"><a xlink:href="class_cuboid.html#a058d488f3125238bd8b8dcbb671ede9e" target="_top" xlink:title="Sprawdza czy prostopadloscian jest poprawnie zbudowany">
<polygon fill="none" stroke="black" points="543.5,-680.5 543.5,-699.5 650.5,-699.5 650.5,-680.5 543.5,-680.5"/>
<text text-anchor="middle" x="597" y="-687.5" font-family="Helvetica,sans-Serif" font-size="10.00">Cuboid::check_cub</text>
</a>
</g>
</g>
<!-- Node2&#45;&gt;Node3 -->
<g id="edge2" class="edge">
<title>Node2&#45;&gt;Node3</title>
<path fill="none" stroke="midnightblue" d="M421.96,-604.65C442.35,-619.48 483.59,-648.04 522,-666 531.18,-670.29 541.33,-674.13 551.09,-677.41"/>
<polygon fill="midnightblue" stroke="midnightblue" points="550.09,-680.76 560.68,-680.5 552.24,-674.1 550.09,-680.76"/>
</g>
<!-- Node6 -->
<g id="node6" class="node">
<title>Node6</title>
<g id="a_node6"><a xlink:href="class_cuboid.html#a5840b78caaeac16fd1a262026819501d" target="_top" xlink:title="Sprawdza czy wektory tworzace przeciwne boki prostopadloscianu sa rowne">
<polygon fill="none" stroke="black" points="730.5,-642.5 730.5,-661.5 861.5,-661.5 861.5,-642.5 730.5,-642.5"/>
<text text-anchor="middle" x="796" y="-649.5" font-family="Helvetica,sans-Serif" font-size="10.00">Cuboid::check_vec_opp</text>
</a>
</g>
</g>
<!-- Node2&#45;&gt;Node6 -->
<g id="edge9" class="edge">
<title>Node2&#45;&gt;Node6</title>
<path fill="none" stroke="midnightblue" d="M451.78,-604.52C472.86,-609 498.69,-614.18 522,-618 588.78,-628.94 665.26,-638.18 720.25,-644.26"/>
<polygon fill="midnightblue" stroke="midnightblue" points="719.94,-647.75 730.26,-645.36 720.7,-640.79 719.94,-647.75"/>
</g>
<!-- Node7 -->
<g id="node7" class="node">
<title>Node7</title>
<g id="a_node7"><a xlink:href="class_cuboid.html#a5941a7b9eb991137a908b38dc24dc9b3" target="_top" xlink:title="Sprawdza czy wektory tworzace niektore konkretne boki prostokata (glownie te przy wierzcholkach) sa p...">
<polygon fill="none" stroke="black" points="729,-604.5 729,-623.5 863,-623.5 863,-604.5 729,-604.5"/>
<text text-anchor="middle" x="796" y="-611.5" font-family="Helvetica,sans-Serif" font-size="10.00">Cuboid::check_vec_perp</text>
</a>
</g>
</g>
<!-- Node2&#45;&gt;Node7 -->
<g id="edge10" class="edge">
<title>Node2&#45;&gt;Node7</title>
<path fill="none" stroke="midnightblue" d="M459.07,-597.46C525.05,-600.71 641.75,-606.46 718.74,-610.25"/>
<polygon fill="midnightblue" stroke="midnightblue" points="718.71,-613.75 728.87,-610.74 719.05,-606.76 718.71,-613.75"/>
</g>
<!-- Node9 -->
<g id="node9" class="node">
<title>Node9</title>
<g id="a_node9"><a xlink:href="class_menu__cub.html#a6ef2bf80f2e43bf3c14876392ae04b50" target="_top" xlink:title="Wyswietla informacje o bokach figury na standardowym wyjsciu Argumenty:">
<polygon fill="none" stroke="black" points="527,-566.5 527,-585.5 667,-585.5 667,-566.5 527,-566.5"/>
<text text-anchor="middle" x="597" y="-573.5" font-family="Helvetica,sans-Serif" font-size="10.00">Menu_cub::print_side_len</text>
</a>
</g>
</g>
<!-- Node2&#45;&gt;Node9 -->
<g id="edge11" class="edge">
<title>Node2&#45;&gt;Node9</title>
<path fill="none" stroke="midnightblue" d="M459.11,-589.91C476.8,-588.11 497.15,-586.04 516.66,-584.06"/>
<polygon fill="midnightblue" stroke="midnightblue" points="517.17,-587.53 526.77,-583.03 516.46,-580.56 517.17,-587.53"/>
</g>
<!-- Node4 -->
<g id="node4" class="node">
<title>Node4</title>
<g id="a_node4"><a xlink:href="class_cuboid.html#a41233dfb606942e160e3080a23547674" target="_top" xlink:title="Sprawdza czy dlugosci wektory tworzace przeciwne boki prostopadloscianu maja poprawne wartosci (nie s...">
<polygon fill="none" stroke="black" points="732,-680.5 732,-699.5 860,-699.5 860,-680.5 732,-680.5"/>
<text text-anchor="middle" x="796" y="-687.5" font-family="Helvetica,sans-Serif" font-size="10.00">Cuboid::check_vec_len</text>
</a>
</g>
</g>
<!-- Node3&#45;&gt;Node4 -->
<g id="edge3" class="edge">
<title>Node3&#45;&gt;Node4</title>
<path fill="none" stroke="midnightblue" d="M650.53,-690C672.28,-690 697.87,-690 721.43,-690"/>
<polygon fill="midnightblue" stroke="midnightblue" points="721.74,-693.5 731.74,-690 721.74,-686.5 721.74,-693.5"/>
</g>
<!-- Node3&#45;&gt;Node6 -->
<g id="edge5" class="edge">
<title>Node3&#45;&gt;Node6</title>
<path fill="none" stroke="midnightblue" d="M647.46,-680.46C674.15,-675.31 707.3,-668.92 735.42,-663.49"/>
<polygon fill="midnightblue" stroke="midnightblue" points="736.37,-666.87 745.52,-661.54 735.04,-660 736.37,-666.87"/>
</g>
<!-- Node3&#45;&gt;Node7 -->
<g id="edge7" class="edge">
<title>Node3&#45;&gt;Node7</title>
<path fill="none" stroke="midnightblue" d="M613.44,-680.33C634.19,-667.73 672.6,-645.78 708,-633 715.26,-630.38 723,-628.06 730.75,-626.02"/>
<polygon fill="midnightblue" stroke="midnightblue" points="731.68,-629.39 740.54,-623.59 729.99,-622.6 731.68,-629.39"/>
</g>
<!-- Node5 -->
<g id="node5" class="node">
<title>Node5</title>
<g id="a_node5"><a xlink:href="class_cuboid.html#a21fa2d6458f5b6c593e3e83b3455c246" target="_top" xlink:title="Zwraca do tablicy 3x2 wektory reprezentujace przeciwne boki prostopadloscianu">
<polygon fill="none" stroke="black" points="933.5,-642.5 933.5,-661.5 1051.5,-661.5 1051.5,-642.5 933.5,-642.5"/>
<text text-anchor="middle" x="992.5" y="-649.5" font-family="Helvetica,sans-Serif" font-size="10.00">Cuboid::get_vec_opp</text>
</a>
</g>
</g>
<!-- Node4&#45;&gt;Node5 -->
<g id="edge4" class="edge">
<title>Node4&#45;&gt;Node5</title>
<path fill="none" stroke="midnightblue" d="M845.83,-680.46C872.19,-675.31 904.92,-668.92 932.67,-663.49"/>
<polygon fill="midnightblue" stroke="midnightblue" points="933.51,-666.9 942.65,-661.54 932.16,-660.03 933.51,-666.9"/>
</g>
<!-- Node6&#45;&gt;Node5 -->
<g id="edge6" class="edge">
<title>Node6&#45;&gt;Node5</title>
<path fill="none" stroke="midnightblue" d="M861.77,-652C881.43,-652 903.1,-652 923.01,-652"/>
<polygon fill="midnightblue" stroke="midnightblue" points="923.24,-655.5 933.24,-652 923.24,-648.5 923.24,-655.5"/>
</g>
<!-- Node8 -->
<g id="node8" class="node">
<title>Node8</title>
<g id="a_node8"><a xlink:href="class_cuboid.html#a3bdc11fd360d0c7d8491f4b42b53bf10" target="_top" xlink:title="Zwraca do tablicy 2x3 wektory reprezentujace boki przy wierzcholkach [0][1] (do vecs[0]) i [1][3] (do...">
<polygon fill="none" stroke="black" points="931.5,-604.5 931.5,-623.5 1053.5,-623.5 1053.5,-604.5 931.5,-604.5"/>
<text text-anchor="middle" x="992.5" y="-611.5" font-family="Helvetica,sans-Serif" font-size="10.00">Cuboid::get_vec_perp</text>
</a>
</g>
</g>
<!-- Node7&#45;&gt;Node8 -->
<g id="edge8" class="edge">
<title>Node7&#45;&gt;Node8</title>
<path fill="none" stroke="midnightblue" d="M863.12,-614C881.88,-614 902.38,-614 921.37,-614"/>
<polygon fill="midnightblue" stroke="midnightblue" points="921.44,-617.5 931.44,-614 921.44,-610.5 921.44,-617.5"/>
</g>
<!-- Node10 -->
<g id="node10" class="node">
<title>Node10</title>
<g id="a_node10"><a xlink:href="class_cuboid.html#a63fdccd9593f1a7191395a103b7c6366" target="_top" xlink:title="Zapisuje do tablicy tab w kolejnosci: 1.dluzsze przeciwlegle boki 2.krotsze przeciwlegle boki 3....">
<polygon fill="none" stroke="black" points="738.5,-566.5 738.5,-585.5 853.5,-585.5 853.5,-566.5 738.5,-566.5"/>
<text text-anchor="middle" x="796" y="-573.5" font-family="Helvetica,sans-Serif" font-size="10.00">Cuboid::get_vec_len</text>
</a>
</g>
</g>
<!-- Node9&#45;&gt;Node10 -->
<g id="edge12" class="edge">
<title>Node9&#45;&gt;Node10</title>
<path fill="none" stroke="midnightblue" d="M667.18,-576C687,-576 708.57,-576 728.25,-576"/>
<polygon fill="midnightblue" stroke="midnightblue" points="728.35,-579.5 738.35,-576 728.35,-572.5 728.35,-579.5"/>
</g>
<!-- Node10&#45;&gt;Node5 -->
<g id="edge14" class="edge">
<title>Node10&#45;&gt;Node5</title>
<path fill="none" stroke="midnightblue" d="M853.57,-583.21C864.11,-585.96 874.71,-589.76 884,-595 904.26,-606.43 900,-621.12 920,-633 923.66,-635.18 927.58,-637.11 931.62,-638.82"/>
<polygon fill="midnightblue" stroke="midnightblue" points="930.62,-642.19 941.22,-642.44 933.09,-635.64 930.62,-642.19"/>
</g>
<!-- Node11 -->
<g id="node11" class="node">
<title>Node11</title>
<g id="a_node11"><a xlink:href="class_vector.html#a3ac695edc693437a61da9f1976fd4869" target="_top" xlink:title="Zwraca dlugosc wektora &#160;&#160;Argumenty: &#160;&#160;Brak &#160;&#160;Zwraca:">
<polygon fill="none" stroke="black" points="948,-566.5 948,-585.5 1037,-585.5 1037,-566.5 948,-566.5"/>
<text text-anchor="middle" x="992.5" y="-573.5" font-family="Helvetica,sans-Serif" font-size="10.00">Vector::get_len</text>
</a>
</g>
</g>
<!-- Node10&#45;&gt;Node11 -->
<g id="edge13" class="edge">
<title>Node10&#45;&gt;Node11</title>
<path fill="none" stroke="midnightblue" d="M853.52,-576C880.06,-576 911.53,-576 937.71,-576"/>
<polygon fill="midnightblue" stroke="midnightblue" points="937.84,-579.5 947.84,-576 937.84,-572.5 937.84,-579.5"/>
</g>
<!-- Node13&#45;&gt;Node2 -->
<g id="edge17" class="edge">
<title>Node13&#45;&gt;Node2</title>
<path fill="none" stroke="midnightblue" d="M231.19,-377.52C244.4,-403.76 283.94,-478.65 330,-531 346.37,-549.61 368.4,-567.34 384.69,-579.41"/>
<polygon fill="midnightblue" stroke="midnightblue" points="382.94,-582.45 393.09,-585.49 387.05,-576.79 382.94,-582.45"/>
</g>
<!-- Node13&#45;&gt;Node9 -->
<g id="edge19" class="edge">
<title>Node13&#45;&gt;Node9</title>
<path fill="none" stroke="midnightblue" d="M235.13,-377.77C251.68,-395.88 289.8,-434.63 330,-455 393.66,-487.25 429.13,-449.89 486,-493 512.01,-512.72 496.12,-537.12 522,-557 524.45,-558.88 527.06,-560.57 529.79,-562.1"/>
<polygon fill="midnightblue" stroke="midnightblue" points="528.3,-565.27 538.83,-566.43 531.32,-558.96 528.3,-565.27"/>
</g>
<!-- Node13&#45;&gt;Node12 -->
<g id="edge57" class="edge">
<title>Node13&#45;&gt;Node12</title>
<path fill="none" stroke="midnightblue" d="M232.17,-377.7C245.96,-400.42 283.53,-457.52 330,-488 336.74,-492.42 344.35,-496.07 352.09,-499.07"/>
<polygon fill="midnightblue" stroke="midnightblue" points="350.95,-502.38 361.54,-502.41 353.28,-495.78 350.95,-502.38"/>
</g>
<!-- Node14 -->
<g id="node14" class="node">
<title>Node14</title>
<g id="a_node14"><a xlink:href="class_cuboid.html#aafa18740d9c98ca928395b9873a9c63d" target="_top" xlink:title="Metoda zwracajaca punkt centralny (czyli taki, ktorego odleglosci do kazdego wierzcholka sa rowne) pr...">
<polygon fill="none" stroke="black" points="349.5,-426.5 349.5,-445.5 466.5,-445.5 466.5,-426.5 349.5,-426.5"/>
<text text-anchor="middle" x="408" y="-433.5" font-family="Helvetica,sans-Serif" font-size="10.00">Cuboid::centre_point</text>
</a>
</g>
</g>
<!-- Node13&#45;&gt;Node14 -->
<g id="edge18" class="edge">
<title>Node13&#45;&gt;Node14</title>
<path fill="none" stroke="midnightblue" d="M244.41,-377.51C264.72,-388.02 299.05,-404.91 330,-416 337.94,-418.85 346.48,-421.47 354.88,-423.82"/>
<polygon fill="midnightblue" stroke="midnightblue" points="354.06,-427.23 364.62,-426.45 355.88,-420.47 354.06,-427.23"/>
</g>
<!-- Node15 -->
<g id="node15" class="node">
<title>Node15</title>
<g id="a_node15"><a xlink:href="class_menu__cub.html#aba69e42a4314be002349777667b378e8" target="_top" xlink:title="Wyswietla prostopadloscian w GNUplocie Argumenty:">
<polygon fill="none" stroke="black" points="353,-377 353,-407 463,-407 463,-377 353,-377"/>
<text text-anchor="start" x="361" y="-395" font-family="Helvetica,sans-Serif" font-size="10.00">Menu_cub::Print_to</text>
<text text-anchor="middle" x="408" y="-384" font-family="Helvetica,sans-Serif" font-size="10.00">_gnuplot</text>
</a>
</g>
</g>
<!-- Node13&#45;&gt;Node15 -->
<g id="edge20" class="edge">
<title>Node13&#45;&gt;Node15</title>
<path fill="none" stroke="midnightblue" d="M294.23,-377C310.14,-379.12 327.06,-381.37 342.82,-383.47"/>
<polygon fill="midnightblue" stroke="midnightblue" points="342.61,-386.97 352.99,-384.82 343.54,-380.03 342.61,-386.97"/>
</g>
<!-- Node29 -->
<g id="node29" class="node">
<title>Node29</title>
<g id="a_node29"><a xlink:href="class_menu__cub.html#abfc946e12b2f8de2cc06cec953ef6106" target="_top" xlink:title=" ">
<polygon fill="none" stroke="black" points="351.5,-314 351.5,-344 464.5,-344 464.5,-314 351.5,-314"/>
<text text-anchor="start" x="359.5" y="-332" font-family="Helvetica,sans-Serif" font-size="10.00">Menu_cub::Print_to</text>
<text text-anchor="middle" x="408" y="-321" font-family="Helvetica,sans-Serif" font-size="10.00">_gnuplot_animation</text>
</a>
</g>
</g>
<!-- Node13&#45;&gt;Node29 -->
<g id="edge35" class="edge">
<title>Node13&#45;&gt;Node29</title>
<path fill="none" stroke="midnightblue" d="M270.66,-358.46C291.93,-353.86 317.88,-348.25 341.41,-343.17"/>
<polygon fill="midnightblue" stroke="midnightblue" points="342.29,-346.56 351.33,-341.03 340.81,-339.72 342.29,-346.56"/>
</g>
<!-- Node37 -->
<g id="node37" class="node">
<title>Node37</title>
<g id="a_node37"><a xlink:href="class_matrix.html#ab23876f609c4c12fefff30870f0b5ab2" target="_top" xlink:title="ZADANIE DO MODYFIKACJI Tworzy macierz 4x4 zdolna do jednoczesnego obrotu i przesuniecia wektora &#160;&#160;Zde...">
<polygon fill="none" stroke="black" points="354.5,-265 354.5,-295 461.5,-295 461.5,-265 354.5,-265"/>
<text text-anchor="start" x="362.5" y="-283" font-family="Helvetica,sans-Serif" font-size="10.00">Matrix::rotate_and</text>
<text text-anchor="middle" x="408" y="-272" font-family="Helvetica,sans-Serif" font-size="10.00">_translate</text>
</a>
</g>
</g>
<!-- Node13&#45;&gt;Node37 -->
<g id="edge50" class="edge">
<title>Node13&#45;&gt;Node37</title>
<path fill="none" stroke="midnightblue" d="M239.62,-358.37C258.7,-344.73 295.59,-319.7 330,-304 334.66,-301.88 339.56,-299.87 344.53,-297.99"/>
<polygon fill="midnightblue" stroke="midnightblue" points="345.92,-301.21 354.15,-294.53 343.55,-294.62 345.92,-301.21"/>
</g>
<!-- Node38 -->
<g id="node38" class="node">
<title>Node38</title>
<g id="a_node38"><a xlink:href="class_cuboid.html#a23eefb4a7b07b31bcf4db7271b83b917" target="_top" xlink:title="Metoda obracajaca prostopadloscian o zadany kat w 3D">
<polygon fill="none" stroke="black" points="360.5,-136.5 360.5,-155.5 455.5,-155.5 455.5,-136.5 360.5,-136.5"/>
<text text-anchor="middle" x="408" y="-143.5" font-family="Helvetica,sans-Serif" font-size="10.00">Cuboid::rotation</text>
</a>
</g>
</g>
<!-- Node13&#45;&gt;Node38 -->
<g id="edge51" class="edge">
<title>Node13&#45;&gt;Node38</title>
<path fill="none" stroke="midnightblue" d="M229.93,-358.2C240.57,-328.97 275.62,-241.17 330,-188 342.06,-176.21 358.09,-166.76 372.41,-159.83"/>
<polygon fill="midnightblue" stroke="midnightblue" points="373.89,-163.01 381.51,-155.65 370.96,-156.65 373.89,-163.01"/>
</g>
<!-- Node39 -->
<g id="node39" class="node">
<title>Node39</title>
<g id="a_node39"><a xlink:href="class_cuboid.html#a6c697c2d9b36a14c43c7328876d5a1f0" target="_top" xlink:title="Metoda obracajaca prostopadloscian o zadany kat w 3D wokol srodka figury">
<polygon fill="none" stroke="black" points="330,-67.5 330,-86.5 486,-86.5 486,-67.5 330,-67.5"/>
<text text-anchor="middle" x="408" y="-74.5" font-family="Helvetica,sans-Serif" font-size="10.00">Cuboid::rotation_around_cen</text>
</a>
</g>
</g>
<!-- Node13&#45;&gt;Node39 -->
<g id="edge53" class="edge">
<title>Node13&#45;&gt;Node39</title>
<path fill="none" stroke="midnightblue" d="M228.54,-358.19C236.23,-323.19 266.32,-202.56 330,-127 342.59,-112.06 360.77,-99.97 376.31,-91.42"/>
<polygon fill="midnightblue" stroke="midnightblue" points="378.34,-94.3 385.57,-86.56 375.09,-88.11 378.34,-94.3"/>
</g>
<!-- Node40 -->
<g id="node40" class="node">
<title>Node40</title>
<g id="a_node40"><a xlink:href="class_cuboid.html#a3f6b1b9ea7de433af5b0d462d29f4272" target="_top" xlink:title="Metoda przesuwajaca prostopadloscian o zadany kat w 3D">
<polygon fill="none" stroke="black" points="542.5,-0.5 542.5,-19.5 651.5,-19.5 651.5,-0.5 542.5,-0.5"/>
<text text-anchor="middle" x="597" y="-7.5" font-family="Helvetica,sans-Serif" font-size="10.00">Cuboid::translation</text>
</a>
</g>
</g>
<!-- Node13&#45;&gt;Node40 -->
<g id="edge60" class="edge">
<title>Node13&#45;&gt;Node40</title>
<path fill="none" stroke="midnightblue" d="M226.45,-358.29C226.77,-315.36 234.12,-141 330,-58 385.67,-9.8 473.04,-2.66 532.33,-4.35"/>
<polygon fill="midnightblue" stroke="midnightblue" points="532.2,-7.84 542.32,-4.72 532.46,-0.85 532.2,-7.84"/>
</g>
<!-- Node42 -->
<g id="node42" class="node">
<title>Node42</title>
<g id="a_node42"><a xlink:href="class_menu__cub.html#a4b2743c86836844d8e8bee49d3ea6bcf" target="_top" xlink:title="Obsluguje skladanie rotacji obrotu.">
<polygon fill="none" stroke="black" points="334.5,-197.5 334.5,-216.5 481.5,-216.5 481.5,-197.5 334.5,-197.5"/>
<text text-anchor="middle" x="408" y="-204.5" font-family="Helvetica,sans-Serif" font-size="10.00">Menu_cub::switch_rotation</text>
</a>
</g>
</g>
<!-- Node13&#45;&gt;Node42 -->
<g id="edge58" class="edge">
<title>Node13&#45;&gt;Node42</title>
<path fill="none" stroke="midnightblue" d="M233.79,-358.41C249.73,-337.85 289.49,-288.67 330,-255 345.35,-242.24 364.37,-230.36 379.66,-221.6"/>
<polygon fill="midnightblue" stroke="midnightblue" points="381.62,-224.52 388.64,-216.58 378.2,-218.41 381.62,-224.52"/>
</g>
<!-- Node16 -->
<g id="node16" class="node">
<title>Node16</title>
<g id="a_node16"><a xlink:href="class_menu__cub.html#ada6a6762e5cc6f20628ecb5bd57944c7" target="_top" xlink:title=" ">
<polygon fill="none" stroke="black" points="530,-528.5 530,-547.5 664,-547.5 664,-528.5 530,-528.5"/>
<text text-anchor="middle" x="597" y="-535.5" font-family="Helvetica,sans-Serif" font-size="10.00">Menu_cub::CuboidToFile</text>
</a>
</g>
</g>
<!-- Node15&#45;&gt;Node16 -->
<g id="edge21" class="edge">
<title>Node15&#45;&gt;Node16</title>
<path fill="none" stroke="midnightblue" d="M463.02,-402.58C471.45,-406.1 479.51,-410.77 486,-417 519.18,-448.84 488.81,-482.17 522,-514 526.25,-518.07 531.19,-521.45 536.47,-524.26"/>
<polygon fill="midnightblue" stroke="midnightblue" points="535.07,-527.47 545.61,-528.47 537.99,-521.11 535.07,-527.47"/>
</g>
<!-- Node17 -->
<g id="node17" class="node">
<title>Node17</title>
<g id="a_node17"><a xlink:href="class_cuboid.html#a12a97376443b1a15ae8342c1c75b3e1e" target="_top" xlink:title="Metoda wypisania odpowiednich wierzcholkow do pliku zgodnie z zaproponowanym sposobem zadaniu dron">
<polygon fill="none" stroke="black" points="728.5,-490.5 728.5,-509.5 863.5,-509.5 863.5,-490.5 728.5,-490.5"/>
<text text-anchor="middle" x="796" y="-497.5" font-family="Helvetica,sans-Serif" font-size="10.00">Cuboid::print_cuboid_3D</text>
</a>
</g>
</g>
<!-- Node15&#45;&gt;Node17 -->
<g id="edge26" class="edge">
<title>Node15&#45;&gt;Node17</title>
<path fill="none" stroke="midnightblue" d="M463.02,-403.8C471.27,-407.17 479.26,-411.48 486,-417 511.25,-437.68 494.42,-463.56 522,-481 586.68,-521.91 678.05,-518.86 736.91,-510.97"/>
<polygon fill="midnightblue" stroke="midnightblue" points="737.75,-514.39 747.15,-509.51 736.76,-507.46 737.75,-514.39"/>
</g>
<!-- Node19 -->
<g id="node19" class="node">
<title>Node19</title>
<g id="a_node19"><a xlink:href="class_pz_g_1_1_lacze_do_g_n_u_plota.html#aa815ce8ec16e12fc246cf422e562869e" target="_top" xlink:title="Dodaje nazwę pliku.">
<polygon fill="none" stroke="black" points="532,-441 532,-471 662,-471 662,-441 532,-441"/>
<text text-anchor="start" x="540" y="-459" font-family="Helvetica,sans-Serif" font-size="10.00">PzG::LaczeDoGNUPlota</text>
<text text-anchor="middle" x="597" y="-448" font-family="Helvetica,sans-Serif" font-size="10.00">::DodajNazwePliku</text>
</a>
</g>
</g>
<!-- Node15&#45;&gt;Node19 -->
<g id="edge24" class="edge">
<title>Node15&#45;&gt;Node19</title>
<path fill="none" stroke="midnightblue" d="M456.79,-407.05C466.49,-410.23 476.6,-413.65 486,-417 502.17,-422.76 505.86,-425.14 522,-431 528.02,-433.19 534.34,-435.42 540.65,-437.6"/>
<polygon fill="midnightblue" stroke="midnightblue" points="539.9,-441.05 550.49,-440.99 542.17,-434.43 539.9,-441.05"/>
</g>
<!-- Node21 -->
<g id="node21" class="node">
<title>Node21</title>
<g id="a_node21"><a xlink:href="class_pz_g_1_1_lacze_do_g_n_u_plota.html#a065f5b8402737cc62b0ad4f66d028335" target="_top" xlink:title="Generuje polecenie rysowania i przesyła je do gnuplota.">
<polygon fill="none" stroke="black" points="532,-392 532,-422 662,-422 662,-392 532,-392"/>
<text text-anchor="start" x="540" y="-410" font-family="Helvetica,sans-Serif" font-size="10.00">PzG::LaczeDoGNUPlota</text>
<text text-anchor="middle" x="597" y="-399" font-family="Helvetica,sans-Serif" font-size="10.00">::Rysuj</text>
</a>
</g>
</g>
<!-- Node15&#45;&gt;Node21 -->
<g id="edge27" class="edge">
<title>Node15&#45;&gt;Node21</title>
<path fill="none" stroke="midnightblue" d="M463.09,-396.34C481.37,-397.8 502.11,-399.47 521.68,-401.04"/>
<polygon fill="midnightblue" stroke="midnightblue" points="521.53,-404.54 531.78,-401.85 522.09,-397.56 521.53,-404.54"/>
</g>
<!-- Node28 -->
<g id="node28" class="node">
<title>Node28</title>
<g id="a_node28"><a xlink:href="class_pz_g_1_1_lacze_do_g_n_u_plota.html#ae92c65357bf682478cc68f77885b61d8" target="_top" xlink:title="Zmienia tryb rysowania.">
<polygon fill="none" stroke="black" points="532,-343 532,-373 662,-373 662,-343 532,-343"/>
<text text-anchor="start" x="540" y="-361" font-family="Helvetica,sans-Serif" font-size="10.00">PzG::LaczeDoGNUPlota</text>
<text text-anchor="middle" x="597" y="-350" font-family="Helvetica,sans-Serif" font-size="10.00">::ZmienTrybRys</text>
</a>
</g>
</g>
<!-- Node15&#45;&gt;Node28 -->
<g id="edge34" class="edge">
<title>Node15&#45;&gt;Node28</title>
<path fill="none" stroke="midnightblue" d="M463.09,-382.17C481.37,-378.84 502.11,-375.07 521.68,-371.51"/>
<polygon fill="midnightblue" stroke="midnightblue" points="522.57,-374.91 531.78,-369.68 521.32,-368.02 522.57,-374.91"/>
</g>
<!-- Node16&#45;&gt;Node17 -->
<g id="edge22" class="edge">
<title>Node16&#45;&gt;Node17</title>
<path fill="none" stroke="midnightblue" d="M647.46,-528.46C674.15,-523.31 707.3,-516.92 735.42,-511.49"/>
<polygon fill="midnightblue" stroke="midnightblue" points="736.37,-514.87 745.52,-509.54 735.04,-508 736.37,-514.87"/>
</g>
<!-- Node18 -->
<g id="node18" class="node">
<title>Node18</title>
<g id="a_node18"><a xlink:href="class_vector.html#ab2bb1182cee2389eda163fb7b767f36d" target="_top" xlink:title="Zwraca wektor do tablicy o rozmiarze SIZE &#160;&#160;Argumenty:">
<polygon fill="none" stroke="black" points="946.5,-447.5 946.5,-466.5 1038.5,-466.5 1038.5,-447.5 946.5,-447.5"/>
<text text-anchor="middle" x="992.5" y="-454.5" font-family="Helvetica,sans-Serif" font-size="10.00">Vector::get_vec</text>
</a>
</g>
</g>
<!-- Node17&#45;&gt;Node18 -->
<g id="edge23" class="edge">
<title>Node17&#45;&gt;Node18</title>
<path fill="none" stroke="midnightblue" d="M840.17,-490.46C869.12,-484.05 907.46,-475.58 938.31,-468.76"/>
<polygon fill="midnightblue" stroke="midnightblue" points="939.45,-472.09 948.45,-466.52 937.94,-465.26 939.45,-472.09"/>
</g>
<!-- Node20 -->
<g id="node20" class="node">
<title>Node20</title>
<g id="a_node20"><a xlink:href="namespace_pz_g.html#ae1aad0c681853d7e47da4cdfccefc102" target="_top" xlink:title="Funkcja pomocnicza, sprawdza czy plik o podanej nazwie jest na dysku.">
<polygon fill="none" stroke="black" points="748.5,-446.5 748.5,-465.5 843.5,-465.5 843.5,-446.5 748.5,-446.5"/>
<text text-anchor="middle" x="796" y="-453.5" font-family="Helvetica,sans-Serif" font-size="10.00">PzG::CzyJestPlik</text>
</a>
</g>
</g>
<!-- Node19&#45;&gt;Node20 -->
<g id="edge25" class="edge">
<title>Node19&#45;&gt;Node20</title>
<path fill="none" stroke="midnightblue" d="M662.23,-456C686.68,-456 714.36,-456 738.08,-456"/>
<polygon fill="midnightblue" stroke="midnightblue" points="738.33,-459.5 748.33,-456 738.33,-452.5 738.33,-459.5"/>
</g>
<!-- Node22 -->
<g id="node22" class="node">
<title>Node22</title>
<g id="a_node22"><a xlink:href="namespace_pz_g.html#aa010184f31b26bb561b42f22438b821e" target="_top" xlink:title="Funkcja pomocnicza, dopisuje do polecenia wpisy związane z rysowaniem z pliku.">
<polygon fill="none" stroke="black" points="713,-403.5 713,-422.5 879,-422.5 879,-403.5 713,-403.5"/>
<text text-anchor="middle" x="796" y="-410.5" font-family="Helvetica,sans-Serif" font-size="10.00">PzG::DopiszRysowanieZPlikow</text>
</a>
</g>
</g>
<!-- Node21&#45;&gt;Node22 -->
<g id="edge28" class="edge">
<title>Node21&#45;&gt;Node22</title>
<path fill="none" stroke="midnightblue" d="M662.23,-408.96C675.12,-409.35 688.89,-409.77 702.52,-410.18"/>
<polygon fill="midnightblue" stroke="midnightblue" points="702.79,-413.69 712.89,-410.5 703,-406.7 702.79,-413.69"/>
</g>
<!-- Node23 -->
<g id="node23" class="node">
<title>Node23</title>
<g id="a_node23"><a xlink:href="namespace_pz_g.html#a7227cb39c785b1c746b6bb5515c0b781" target="_top" xlink:title="Dodaje do listy rysowanych punktów, punkty o różnych rozmiarach.">
<polygon fill="none" stroke="black" points="708,-354 708,-384 884,-384 884,-354 708,-354"/>
<text text-anchor="start" x="716" y="-372" font-family="Helvetica,sans-Serif" font-size="10.00">PzG::DopiszRysowanieZRoznych</text>
<text text-anchor="middle" x="796" y="-361" font-family="Helvetica,sans-Serif" font-size="10.00">Punktow</text>
</a>
</g>
</g>
<!-- Node21&#45;&gt;Node23 -->
<g id="edge29" class="edge">
<title>Node21&#45;&gt;Node23</title>
<path fill="none" stroke="midnightblue" d="M662.23,-394.61C676.6,-391.84 692.08,-388.85 707.22,-385.93"/>
<polygon fill="midnightblue" stroke="midnightblue" points="707.95,-389.36 717.1,-384.03 706.62,-382.48 707.95,-389.36"/>
</g>
<!-- Node24 -->
<g id="node24" class="node">
<title>Node24</title>
<g id="a_node24"><a xlink:href="namespace_pz_g.html#a169c311f0e0b6ffadcd44e91e749f72d" target="_top" xlink:title="Wczytuje z pliku listę punktów.">
<polygon fill="none" stroke="black" points="920,-354 920,-384 1065,-384 1065,-354 920,-354"/>
<text text-anchor="start" x="928" y="-372" font-family="Helvetica,sans-Serif" font-size="10.00">PzG::WczytajListeRoznych</text>
<text text-anchor="middle" x="992.5" y="-361" font-family="Helvetica,sans-Serif" font-size="10.00">Punktow</text>
</a>
</g>
</g>
<!-- Node23&#45;&gt;Node24 -->
<g id="edge30" class="edge">
<title>Node23&#45;&gt;Node24</title>
<path fill="none" stroke="midnightblue" d="M884.01,-369C892.5,-369 901.09,-369 909.52,-369"/>
<polygon fill="midnightblue" stroke="midnightblue" points="909.71,-372.5 919.71,-369 909.71,-365.5 909.71,-372.5"/>
</g>
<!-- Node25 -->
<g id="node25" class="node">
<title>Node25</title>
<g id="a_node25"><a xlink:href="class_pz_g_1_1_atrybuty_rysowania.html#ab068535b4d2f755c394557d1da72a4eb" target="_top" xlink:title="Zmienia kolor rysowania.">
<polygon fill="none" stroke="black" points="1101,-403 1101,-433 1238,-433 1238,-403 1101,-403"/>
<text text-anchor="start" x="1109" y="-421" font-family="Helvetica,sans-Serif" font-size="10.00">PzG::AtrybutyRysowania</text>
<text text-anchor="middle" x="1169.5" y="-410" font-family="Helvetica,sans-Serif" font-size="10.00">::ZmienKolor</text>
</a>
</g>
</g>
<!-- Node24&#45;&gt;Node25 -->
<g id="edge31" class="edge">
<title>Node24&#45;&gt;Node25</title>
<path fill="none" stroke="midnightblue" d="M1047.43,-384.1C1065.65,-389.2 1086.15,-394.94 1105.04,-400.23"/>
<polygon fill="midnightblue" stroke="midnightblue" points="1104.17,-403.62 1114.74,-402.95 1106.06,-396.88 1104.17,-403.62"/>
</g>
<!-- Node26 -->
<g id="node26" class="node">
<title>Node26</title>
<g id="a_node26"><a xlink:href="class_pz_g_1_1_atrybuty_rysowania.html#af4b140eb03bc10b6fd816fad63f8372e" target="_top" xlink:title="Zmienia rozmiar rysowania.">
<polygon fill="none" stroke="black" points="1101,-354 1101,-384 1238,-384 1238,-354 1101,-354"/>
<text text-anchor="start" x="1109" y="-372" font-family="Helvetica,sans-Serif" font-size="10.00">PzG::AtrybutyRysowania</text>
<text text-anchor="middle" x="1169.5" y="-361" font-family="Helvetica,sans-Serif" font-size="10.00">::ZmienRozmiar</text>
</a>
</g>
</g>
<!-- Node24&#45;&gt;Node26 -->
<g id="edge32" class="edge">
<title>Node24&#45;&gt;Node26</title>
<path fill="none" stroke="midnightblue" d="M1065.18,-369C1073.57,-369 1082.16,-369 1090.63,-369"/>
<polygon fill="midnightblue" stroke="midnightblue" points="1090.87,-372.5 1100.87,-369 1090.87,-365.5 1090.87,-372.5"/>
</g>
<!-- Node27 -->
<g id="node27" class="node">
<title>Node27</title>
<g id="a_node27"><a xlink:href="class_pz_g_1_1_atrybuty_rysowania.html#a2ac97706124b14072715ecf3f07e82b4" target="_top" xlink:title="Zmienia styl rysowania.">
<polygon fill="none" stroke="black" points="1101,-305 1101,-335 1238,-335 1238,-305 1101,-305"/>
<text text-anchor="start" x="1109" y="-323" font-family="Helvetica,sans-Serif" font-size="10.00">PzG::AtrybutyRysowania</text>
<text text-anchor="middle" x="1169.5" y="-312" font-family="Helvetica,sans-Serif" font-size="10.00">::ZmienStyl</text>
</a>
</g>
</g>
<!-- Node24&#45;&gt;Node27 -->
<g id="edge33" class="edge">
<title>Node24&#45;&gt;Node27</title>
<path fill="none" stroke="midnightblue" d="M1047.43,-353.9C1065.65,-348.8 1086.15,-343.06 1105.04,-337.77"/>
<polygon fill="midnightblue" stroke="midnightblue" points="1106.06,-341.12 1114.74,-335.05 1104.17,-334.38 1106.06,-341.12"/>
</g>
<!-- Node29&#45;&gt;Node19 -->
<g id="edge36" class="edge">
<title>Node29&#45;&gt;Node19</title>
<path fill="none" stroke="midnightblue" d="M450.66,-344C463.02,-349.84 475.94,-357.46 486,-367 509.69,-389.45 496.87,-410.17 522,-431 524.06,-432.7 526.23,-434.29 528.5,-435.78"/>
<polygon fill="midnightblue" stroke="midnightblue" points="527.21,-439.07 537.63,-440.98 530.68,-432.99 527.21,-439.07"/>
</g>
<!-- Node29&#45;&gt;Node21 -->
<g id="edge47" class="edge">
<title>Node29&#45;&gt;Node21</title>
<path fill="none" stroke="midnightblue" d="M438.81,-344.11C461.36,-355.26 493.25,-370.44 522,-382 527.48,-384.2 533.24,-386.38 539.02,-388.48"/>
<polygon fill="midnightblue" stroke="midnightblue" points="538.14,-391.88 548.73,-391.92 540.48,-385.28 538.14,-391.88"/>
</g>
<!-- Node29&#45;&gt;Node28 -->
<g id="edge49" class="edge">
<title>Node29&#45;&gt;Node28</title>
<path fill="none" stroke="midnightblue" d="M464.6,-337.62C482.49,-340.4 502.6,-343.52 521.61,-346.46"/>
<polygon fill="midnightblue" stroke="midnightblue" points="521.32,-349.96 531.74,-348.03 522.39,-343.04 521.32,-349.96"/>
</g>
<!-- Node30 -->
<g id="node30" class="node">
<title>Node30</title>
<g id="a_node30"><a xlink:href="class_prism.html#a764c6940e4fb65303981e8b877b28561" target="_top" xlink:title="Metoda wypisania odpowiednich wierzcholkow do pliku zgodnie z zaproponowanym sposobem zadaniu dron">
<polygon fill="none" stroke="black" points="733.5,-304.5 733.5,-323.5 858.5,-323.5 858.5,-304.5 733.5,-304.5"/>
<text text-anchor="middle" x="796" y="-311.5" font-family="Helvetica,sans-Serif" font-size="10.00">Prism::print_prism_3D</text>
</a>
</g>
</g>
<!-- Node29&#45;&gt;Node30 -->
<g id="edge37" class="edge">
<title>Node29&#45;&gt;Node30</title>
<path fill="none" stroke="midnightblue" d="M464.72,-326.83C532.81,-324.19 648.18,-319.71 722.96,-316.8"/>
<polygon fill="midnightblue" stroke="midnightblue" points="723.38,-320.29 733.23,-316.4 723.11,-313.29 723.38,-320.29"/>
</g>
<!-- Node31 -->
<g id="node31" class="node">
<title>Node31</title>
<g id="a_node31"><a xlink:href="class_menu__cub.html#a68b8aabf8a980c77409fb40b7ee68eb0" target="_top" xlink:title=" ">
<polygon fill="none" stroke="black" points="533,-266.5 533,-285.5 661,-285.5 661,-266.5 533,-266.5"/>
<text text-anchor="middle" x="597" y="-273.5" font-family="Helvetica,sans-Serif" font-size="10.00">Menu_cub::PrismToFile</text>
</a>
</g>
</g>
<!-- Node29&#45;&gt;Node31 -->
<g id="edge39" class="edge">
<title>Node29&#45;&gt;Node31</title>
<path fill="none" stroke="midnightblue" d="M462.09,-313.95C490.62,-305.87 525.37,-296.02 552.32,-288.38"/>
<polygon fill="midnightblue" stroke="midnightblue" points="553.57,-291.66 562.24,-285.57 551.66,-284.93 553.57,-291.66"/>
</g>
<!-- Node32 -->
<g id="node32" class="node">
<title>Node32</title>
<g id="a_node32"><a xlink:href="class_prism.html#a22c5467db5d960bddbaf9a52f55c55cb" target="_top" xlink:title="Metoda obracajaca graniastoslup o zadany kat w 3D wokol srodka figury">
<polygon fill="none" stroke="black" points="522,-228.5 522,-247.5 672,-247.5 672,-228.5 522,-228.5"/>
<text text-anchor="middle" x="597" y="-235.5" font-family="Helvetica,sans-Serif" font-size="10.00">Prism::rotation_around_cen</text>
</a>
</g>
</g>
<!-- Node29&#45;&gt;Node32 -->
<g id="edge41" class="edge">
<title>Node29&#45;&gt;Node32</title>
<path fill="none" stroke="midnightblue" d="M464.79,-315.39C472.27,-312.3 479.57,-308.54 486,-304 507.48,-288.81 500.05,-271.51 522,-257 525.12,-254.94 528.44,-253.1 531.89,-251.47"/>
<polygon fill="midnightblue" stroke="midnightblue" points="533.37,-254.64 541.26,-247.58 530.69,-248.18 533.37,-254.64"/>
</g>
<!-- Node34 -->
<g id="node34" class="node">
<title>Node34</title>
<g id="a_node34"><a xlink:href="class_prism.html#ade146d341c0468030f8c1258b7fe1041" target="_top" xlink:title="Metoda przesuwajaca graniastoslup o zadany wektor w 3D">
<polygon fill="none" stroke="black" points="941,-228.5 941,-247.5 1044,-247.5 1044,-228.5 941,-228.5"/>
<text text-anchor="middle" x="992.5" y="-235.5" font-family="Helvetica,sans-Serif" font-size="10.00">Prism::translation</text>
</a>
</g>
</g>
<!-- Node29&#45;&gt;Node34 -->
<g id="edge48" class="edge">
<title>Node29&#45;&gt;Node34</title>
<path fill="none" stroke="midnightblue" d="M464.76,-317.33C472.5,-313.95 479.89,-309.6 486,-304 516.24,-276.27 487.8,-241.66 522,-219 589.06,-174.57 803.86,-211.97 884,-219 901.68,-220.55 920.8,-223.51 937.95,-226.64"/>
<polygon fill="midnightblue" stroke="midnightblue" points="937.32,-230.08 947.8,-228.49 938.62,-223.2 937.32,-230.08"/>
</g>
<!-- Node36 -->
<g id="node36" class="node">
<title>Node36</title>
<g id="a_node36"><a xlink:href="class_matrix.html#a4161a82fb401e474052c21b25a06a5ba" target="_top" xlink:title=" ">
<polygon fill="none" stroke="black" points="532,-152.5 532,-171.5 662,-171.5 662,-152.5 532,-152.5"/>
<text text-anchor="middle" x="597" y="-159.5" font-family="Helvetica,sans-Serif" font-size="10.00">Matrix::rotation_matrix</text>
</a>
</g>
</g>
<!-- Node29&#45;&gt;Node36 -->
<g id="edge46" class="edge">
<title>Node29&#45;&gt;Node36</title>
<path fill="none" stroke="midnightblue" d="M464.51,-318.23C472.48,-314.74 479.99,-310.12 486,-304 524.42,-264.88 483.57,-225.11 522,-186 525.9,-182.03 530.47,-178.71 535.39,-175.94"/>
<polygon fill="midnightblue" stroke="midnightblue" points="537.06,-179.02 544.54,-171.53 534.02,-172.72 537.06,-179.02"/>
</g>
<!-- Node30&#45;&gt;Node18 -->
<g id="edge38" class="edge">
<title>Node30&#45;&gt;Node18</title>
<path fill="none" stroke="midnightblue" d="M841.1,-323.57C855.69,-328.15 871.39,-334.72 884,-344 905.76,-360.02 901.84,-372.99 920,-393 936.01,-410.63 956.43,-428.53 971.35,-440.89"/>
<polygon fill="midnightblue" stroke="midnightblue" points="969.46,-443.87 979.42,-447.49 973.89,-438.45 969.46,-443.87"/>
</g>
<!-- Node31&#45;&gt;Node30 -->
<g id="edge40" class="edge">
<title>Node31&#45;&gt;Node30</title>
<path fill="none" stroke="midnightblue" d="M647.46,-285.54C674.15,-290.69 707.3,-297.08 735.42,-302.51"/>
<polygon fill="midnightblue" stroke="midnightblue" points="735.04,-306 745.52,-304.46 736.37,-299.13 735.04,-306"/>
</g>
<!-- Node33 -->
<g id="node33" class="node">
<title>Node33</title>
<g id="a_node33"><a xlink:href="class_matrix.html#ad6df418144dfdc3236f990dc3fb0a50a" target="_top" xlink:title=" ">
<polygon fill="none" stroke="black" points="736.5,-109 736.5,-139 855.5,-139 855.5,-109 736.5,-109"/>
<text text-anchor="start" x="744.5" y="-127" font-family="Helvetica,sans-Serif" font-size="10.00">Matrix::apply_matrix</text>
<text text-anchor="middle" x="796" y="-116" font-family="Helvetica,sans-Serif" font-size="10.00">_to_rotation</text>
</a>
</g>
</g>
<!-- Node32&#45;&gt;Node33 -->
<g id="edge42" class="edge">
<title>Node32&#45;&gt;Node33</title>
<path fill="none" stroke="midnightblue" d="M614.46,-228.48C646.4,-209.99 717.42,-168.89 760.25,-144.11"/>
<polygon fill="midnightblue" stroke="midnightblue" points="762.03,-147.12 768.94,-139.08 758.53,-141.06 762.03,-147.12"/>
</g>
<!-- Node32&#45;&gt;Node34 -->
<g id="edge43" class="edge">
<title>Node32&#45;&gt;Node34</title>
<path fill="none" stroke="midnightblue" d="M642.73,-247.51C662.62,-251.28 686.37,-255.15 708,-257 785.94,-263.68 806.08,-263.83 884,-257 901.68,-255.45 920.8,-252.49 937.95,-249.36"/>
<polygon fill="midnightblue" stroke="midnightblue" points="938.62,-252.8 947.8,-247.51 937.32,-245.92 938.62,-252.8"/>
</g>
<!-- Node35 -->
<g id="node35" class="node">
<title>Node35</title>
<g id="a_node35"><a xlink:href="class_prism.html#afed2c26932d5cb152fd620d2acbfbc3e" target="_top" xlink:title="Metoda przesuwajaca graniastoslup do srodka ukladu wspolrzednych (tak, ze srodek graniastoslupa pokry...">
<polygon fill="none" stroke="black" points="730.5,-228.5 730.5,-247.5 861.5,-247.5 861.5,-228.5 730.5,-228.5"/>
<text text-anchor="middle" x="796" y="-235.5" font-family="Helvetica,sans-Serif" font-size="10.00">Prism::translation_to_O</text>
</a>
</g>
</g>
<!-- Node32&#45;&gt;Node35 -->
<g id="edge44" class="edge">
<title>Node32&#45;&gt;Node35</title>
<path fill="none" stroke="midnightblue" d="M672.2,-238C687.85,-238 704.39,-238 720.07,-238"/>
<polygon fill="midnightblue" stroke="midnightblue" points="720.24,-241.5 730.24,-238 720.24,-234.5 720.24,-241.5"/>
</g>
<!-- Node35&#45;&gt;Node34 -->
<g id="edge45" class="edge">
<title>Node35&#45;&gt;Node34</title>
<path fill="none" stroke="midnightblue" d="M861.77,-238C883.99,-238 908.78,-238 930.68,-238"/>
<polygon fill="midnightblue" stroke="midnightblue" points="930.85,-241.5 940.85,-238 930.85,-234.5 930.85,-241.5"/>
</g>
<!-- Node38&#45;&gt;Node33 -->
<g id="edge52" class="edge">
<title>Node38&#45;&gt;Node33</title>
<path fill="none" stroke="midnightblue" d="M455.56,-143.35C522.92,-139.51 648,-132.38 726.07,-127.93"/>
<polygon fill="midnightblue" stroke="midnightblue" points="726.51,-131.41 736.29,-127.35 726.11,-124.42 726.51,-131.41"/>
</g>
<!-- Node39&#45;&gt;Node33 -->
<g id="edge54" class="edge">
<title>Node39&#45;&gt;Node33</title>
<path fill="none" stroke="midnightblue" d="M486.19,-86.4C556.29,-94.93 658.74,-107.41 726.13,-115.61"/>
<polygon fill="midnightblue" stroke="midnightblue" points="725.87,-119.11 736.22,-116.84 726.72,-112.16 725.87,-119.11"/>
</g>
<!-- Node39&#45;&gt;Node40 -->
<g id="edge55" class="edge">
<title>Node39&#45;&gt;Node40</title>
<path fill="none" stroke="midnightblue" d="M429.06,-67.39C451.38,-56.96 488.69,-40.28 522,-29 529.16,-26.57 536.81,-24.29 544.36,-22.2"/>
<polygon fill="midnightblue" stroke="midnightblue" points="545.44,-25.53 554.19,-19.57 543.63,-18.77 545.44,-25.53"/>
</g>
<!-- Node41 -->
<g id="node41" class="node">
<title>Node41</title>
<g id="a_node41"><a xlink:href="class_cuboid.html#a42bdce7c214e759cb6ea94d4f547a5b9" target="_top" xlink:title="Metoda przesuwajaca prostopadloscian do (0,0,0)">
<polygon fill="none" stroke="black" points="528.5,-38.5 528.5,-57.5 665.5,-57.5 665.5,-38.5 528.5,-38.5"/>
<text text-anchor="middle" x="597" y="-45.5" font-family="Helvetica,sans-Serif" font-size="10.00">Cuboid::translation_to_O</text>
</a>
</g>
</g>
<!-- Node39&#45;&gt;Node41 -->
<g id="edge56" class="edge">
<title>Node39&#45;&gt;Node41</title>
<path fill="none" stroke="midnightblue" d="M470.49,-67.46C487.66,-64.8 506.48,-61.88 524.19,-59.14"/>
<polygon fill="midnightblue" stroke="midnightblue" points="525.13,-62.53 534.47,-57.54 524.05,-55.62 525.13,-62.53"/>
</g>
<!-- Node42&#45;&gt;Node36 -->
<g id="edge59" class="edge">
<title>Node42&#45;&gt;Node36</title>
<path fill="none" stroke="midnightblue" d="M448.66,-197.46C477.17,-190.6 515.81,-181.3 546.37,-173.94"/>
<polygon fill="midnightblue" stroke="midnightblue" points="547.5,-177.27 556.4,-171.53 545.86,-170.47 547.5,-177.27"/>
</g>
</g>
</svg>
        <g id="navigator" transform="translate(0 0)" fill="#404254">
                <rect fill="#f2f5e9" fill-opacity="0.5" stroke="#606060" stroke-width=".5" x="0" y="0" width="60" height="60"/>
                <use id="zoomplus" xlink:href="#zoomPlus" x="17" y="9" onmousedown="handleZoom(evt,'in')"/>
                <use id="zoomminus" xlink:href="#zoomMin" x="42" y="9" onmousedown="handleZoom(evt,'out')"/>
                <use id="reset" xlink:href="#resetDef" x="30" y="36" onmousedown="handleReset()"/>
                <g id="arrowUp" xlink:href="#dirArrow" transform="translate(30 24)" onmousedown="handlePan(0,-1)">
                  <use xlink:href="#rim" fill="#404040">
                        <set attributeName="fill" to="#808080" begin="arrowUp.mouseover" end="arrowUp.mouseout"/>
                  </use>
                  <path fill="none" stroke="white" stroke-width="1.5" d="M0,-3.0v7 M-2.5,-0.5L0,-3.0L2.5,-0.5"/>
                </g>
                <g id="arrowRight" xlink:href="#dirArrow" transform="rotate(90) translate(36 -43)" onmousedown="handlePan(1,0)">
                  <use xlink:href="#rim" fill="#404040">
                        <set attributeName="fill" to="#808080" begin="arrowRight.mouseover" end="arrowRight.mouseout"/>
                  </use>
                  <path fill="none" stroke="white" stroke-width="1.5" d="M0,-3.0v7 M-2.5,-0.5L0,-3.0L2.5,-0.5"/>
                </g>
                <g id="arrowDown" xlink:href="#dirArrow" transform="rotate(180) translate(-30 -48)" onmousedown="handlePan(0,1)">
                  <use xlink:href="#rim" fill="#404040">
                        <set attributeName="fill" to="#808080" begin="arrowDown.mouseover" end="arrowDown.mouseout"/>
                  </use>
                  <path fill="none" stroke="white" stroke-width="1.5" d="M0,-3.0v7 M-2.5,-0.5L0,-3.0L2.5,-0.5"/>
                </g>
                <g id="arrowLeft" xlink:href="#dirArrow" transform="rotate(270) translate(-36 17)" onmousedown="handlePan(-1,0)">
                  <use xlink:href="#rim" fill="#404040">
                        <set attributeName="fill" to="#808080" begin="arrowLeft.mouseover" end="arrowLeft.mouseout"/>
                  </use>
                  <path fill="none" stroke="white" stroke-width="1.5" d="M0,-3.0v7 M-2.5,-0.5L0,-3.0L2.5,-0.5"/>
                </g>
        </g>
        <svg viewBox="0 0 15 15" width="100%" height="30px" preserveAspectRatio="xMaxYMin meet">
         <g id="arrow_out" transform="scale(0.3 0.3)">
          <a xlink:href="class_menu__cub_ab8ed88bc956ac7bdfe7db0807085f7cd_cgraph_org.svg" target="_base">
           <rect id="button" ry="5" rx="5" y="6" x="6" height="38" width="38"
                fill="#f2f5e9" fill-opacity="0.5" stroke="#606060" stroke-width="1.0"/>
           <path id="arrow"
             d="M 11.500037,31.436501 C 11.940474,20.09759 22.043105,11.32322 32.158766,21.979434 L 37.068811,17.246167 C 37.068811,17.246167 37.088388,32 37.088388,32 L 22.160133,31.978069 C 22.160133,31.978069 26.997745,27.140456 26.997745,27.140456 C 18.528582,18.264221 13.291696,25.230495 11.500037,31.436501 z"
             style="fill:#404040;"/>
          </a>
         </g>
        </svg>
</svg>
