<?xml version="1.0" encoding="UTF-8" standalone="no"?>
<!DOCTYPE svg PUBLIC "-//W3C//DTD SVG 1.1//EN"
 "http://www.w3.org/Graphics/SVG/1.1/DTD/svg11.dtd">
<!-- Generated by graphviz version 2.43.0 (0)
 -->
<!-- Title: Block::set_scale Pages: 1 -->
<svg width="371pt" height="66pt"
 viewBox="0.00 0.00 371.00 66.00" xmlns="http://www.w3.org/2000/svg" xmlns:xlink="http://www.w3.org/1999/xlink">
<g id="graph0" class="graph" transform="scale(1 1) rotate(0) translate(4 62)">
<title>Block::set_scale</title>
<!-- Node1 -->
<g id="node1" class="node">
<title>Node1</title>
<g id="a_node1"><a xlink:title="Metoda zapisujaca do klasy wektor reprezentujacy skale">
<polygon fill="#bfbfbf" stroke="black" points="268,-19.5 268,-38.5 363,-38.5 363,-19.5 268,-19.5"/>
<text text-anchor="middle" x="315.5" y="-26.5" font-family="Helvetica,sans-Serif" font-size="10.00">Block::set_scale</text>
</a>
</g>
</g>
<!-- Node2 -->
<g id="node2" class="node">
<title>Node2</title>
<g id="a_node2"><a xlink:href="class_drone.html#ab692baa4be5c43b72990ce1b01bdc805" target="_top" xlink:title="Konstruktor bezparametryczny klasy Drone. Powstaly dron jest skonstruowany z bezparametrycznych prost...">
<polygon fill="none" stroke="black" points="134,-38.5 134,-57.5 215,-57.5 215,-38.5 134,-38.5"/>
<text text-anchor="middle" x="174.5" y="-45.5" font-family="Helvetica,sans-Serif" font-size="10.00">Drone::Drone</text>
</a>
</g>
</g>
<!-- Node1&#45;&gt;Node2 -->
<g id="edge1" class="edge">
<title>Node1&#45;&gt;Node2</title>
<path fill="none" stroke="midnightblue" d="M257.65,-36.77C243.44,-38.71 228.5,-40.76 215.31,-42.56"/>
<polygon fill="midnightblue" stroke="midnightblue" points="258.39,-40.2 267.83,-35.38 257.45,-33.27 258.39,-40.2"/>
</g>
<!-- Node3 -->
<g id="node3" class="node">
<title>Node3</title>
<g id="a_node3"><a xlink:href="class_drone.html#a77fbd50ce9e1711d3b435c73859babcb" target="_top" xlink:title="Metoda ustawiajaca skale wszystkich elementow drona">
<polygon fill="none" stroke="black" points="117,-0.5 117,-19.5 232,-19.5 232,-0.5 117,-0.5"/>
<text text-anchor="middle" x="174.5" y="-7.5" font-family="Helvetica,sans-Serif" font-size="10.00">Drone::set_scale_all</text>
</a>
</g>
</g>
<!-- Node1&#45;&gt;Node3 -->
<g id="edge2" class="edge">
<title>Node1&#45;&gt;Node3</title>
<path fill="none" stroke="midnightblue" d="M257.78,-21.25C249.42,-20.1 240.8,-18.93 232.43,-17.78"/>
<polygon fill="midnightblue" stroke="midnightblue" points="257.45,-24.73 267.83,-22.62 258.39,-17.8 257.45,-24.73"/>
</g>
<!-- Node4 -->
<g id="node4" class="node">
<title>Node4</title>
<g id="a_node4"><a xlink:href="class_scene.html#a22d8bf855d72be0064265c93562b6bb1" target="_top" xlink:title="Konstruktor paramereyczny klasy Scene.">
<polygon fill="none" stroke="black" points="0,-0.5 0,-19.5 81,-19.5 81,-0.5 0,-0.5"/>
<text text-anchor="middle" x="40.5" y="-7.5" font-family="Helvetica,sans-Serif" font-size="10.00">Scene::Scene</text>
</a>
</g>
</g>
<!-- Node3&#45;&gt;Node4 -->
<g id="edge3" class="edge">
<title>Node3&#45;&gt;Node4</title>
<path fill="none" stroke="midnightblue" d="M106.55,-10C97.84,-10 89.14,-10 81.08,-10"/>
<polygon fill="midnightblue" stroke="midnightblue" points="106.75,-13.5 116.75,-10 106.75,-6.5 106.75,-13.5"/>
</g>
</g>
</svg>
