<?xml version="1.0" encoding="UTF-8" standalone="no"?>
<!DOCTYPE svg PUBLIC "-//W3C//DTD SVG 1.1//EN"
 "http://www.w3.org/Graphics/SVG/1.1/DTD/svg11.dtd">
<!-- Generated by graphviz version 2.43.0 (0)
 -->
<!-- Title: Scene Pages: 1 -->
<svg width="582pt" height="2314pt"
 viewBox="0.00 0.00 582.00 2314.00" xmlns="http://www.w3.org/2000/svg" xmlns:xlink="http://www.w3.org/1999/xlink">
<g id="graph0" class="graph" transform="scale(1 1) rotate(0) translate(4 2310)">
<title>Scene</title>
<!-- Node1 -->
<g id="node1" class="node">
<title>Node1</title>
<g id="a_node1"><a xlink:title="Opisuje scene w 3D w ktorej poruszaja sie drony.">
<polygon fill="#bfbfbf" stroke="black" points="459,-0.5 459,-178.5 567,-178.5 567,-0.5 459,-0.5"/>
<text text-anchor="middle" x="513" y="-166.5" font-family="Helvetica,sans-Serif" font-size="10.00">Scene</text>
<polyline fill="none" stroke="black" points="459,-159.5 567,-159.5 "/>
<text text-anchor="middle" x="513" y="-147.5" font-family="Helvetica,sans-Serif" font-size="10.00"> </text>
<polyline fill="none" stroke="black" points="459,-140.5 567,-140.5 "/>
<text text-anchor="start" x="467" y="-128.5" font-family="Helvetica,sans-Serif" font-size="10.00">+ Scene()</text>
<text text-anchor="start" x="467" y="-117.5" font-family="Helvetica,sans-Serif" font-size="10.00">+ check_scene()</text>
<text text-anchor="start" x="467" y="-106.5" font-family="Helvetica,sans-Serif" font-size="10.00">+ operator==()</text>
<text text-anchor="start" x="467" y="-95.5" font-family="Helvetica,sans-Serif" font-size="10.00">+ choose_drone()</text>
<text text-anchor="start" x="467" y="-84.5" font-family="Helvetica,sans-Serif" font-size="10.00">+ init_gnuplot()</text>
<text text-anchor="start" x="467" y="-73.5" font-family="Helvetica,sans-Serif" font-size="10.00">+ Make_Plane()</text>
<text text-anchor="start" x="467" y="-62.5" font-family="Helvetica,sans-Serif" font-size="10.00">+ Add_Plane()</text>
<text text-anchor="start" x="467" y="-51.5" font-family="Helvetica,sans-Serif" font-size="10.00">+ get_active()</text>
<text text-anchor="start" x="467" y="-40.5" font-family="Helvetica,sans-Serif" font-size="10.00">+ print_active()</text>
<text text-anchor="start" x="467" y="-29.5" font-family="Helvetica,sans-Serif" font-size="10.00">+ print_positions()</text>
<text text-anchor="start" x="467" y="-18.5" font-family="Helvetica,sans-Serif" font-size="10.00">+ fly()</text>
<text text-anchor="start" x="467" y="-7.5" font-family="Helvetica,sans-Serif" font-size="10.00">+ fly_roundabout()</text>
</a>
</g>
</g>
<!-- Node2 -->
<g id="node2" class="node">
<title>Node2</title>
<g id="a_node2"><a xlink:href="class_drone.html" target="_top" xlink:title="Opisuje drona o prostopadlosciennym korpusie i 4 rotorach.">
<polygon fill="none" stroke="black" points="109.5,-226.5 109.5,-602.5 294.5,-602.5 294.5,-226.5 109.5,-226.5"/>
<text text-anchor="middle" x="202" y="-590.5" font-family="Helvetica,sans-Serif" font-size="10.00">Drone</text>
<polyline fill="none" stroke="black" points="109.5,-583.5 294.5,-583.5 "/>
<text text-anchor="middle" x="202" y="-571.5" font-family="Helvetica,sans-Serif" font-size="10.00"> </text>
<polyline fill="none" stroke="black" points="109.5,-564.5 294.5,-564.5 "/>
<text text-anchor="start" x="117.5" y="-552.5" font-family="Helvetica,sans-Serif" font-size="10.00">+ Drone()</text>
<text text-anchor="start" x="117.5" y="-541.5" font-family="Helvetica,sans-Serif" font-size="10.00">+ set_rotors_in_place()</text>
<text text-anchor="start" x="117.5" y="-530.5" font-family="Helvetica,sans-Serif" font-size="10.00">+ translation()</text>
<text text-anchor="start" x="117.5" y="-519.5" font-family="Helvetica,sans-Serif" font-size="10.00">+ translation_to_pos()</text>
<text text-anchor="start" x="117.5" y="-508.5" font-family="Helvetica,sans-Serif" font-size="10.00">+ rotation_around_cen()</text>
<text text-anchor="start" x="117.5" y="-497.5" font-family="Helvetica,sans-Serif" font-size="10.00">+ scale_dro()</text>
<text text-anchor="start" x="117.5" y="-486.5" font-family="Helvetica,sans-Serif" font-size="10.00">+ operator==()</text>
<text text-anchor="start" x="117.5" y="-475.5" font-family="Helvetica,sans-Serif" font-size="10.00">+ set_drone_pos()</text>
<text text-anchor="start" x="117.5" y="-464.5" font-family="Helvetica,sans-Serif" font-size="10.00">+ print_drone_pos()</text>
<text text-anchor="start" x="117.5" y="-453.5" font-family="Helvetica,sans-Serif" font-size="10.00">+ set_scale_all()</text>
<text text-anchor="start" x="117.5" y="-442.5" font-family="Helvetica,sans-Serif" font-size="10.00">+ get_dro()</text>
<text text-anchor="start" x="117.5" y="-431.5" font-family="Helvetica,sans-Serif" font-size="10.00">+ check_dro()</text>
<text text-anchor="start" x="117.5" y="-420.5" font-family="Helvetica,sans-Serif" font-size="10.00">+ get_orien()</text>
<text text-anchor="start" x="117.5" y="-409.5" font-family="Helvetica,sans-Serif" font-size="10.00">+ check_orien()</text>
<text text-anchor="start" x="117.5" y="-398.5" font-family="Helvetica,sans-Serif" font-size="10.00">+ setup_filenames()</text>
<text text-anchor="start" x="117.5" y="-387.5" font-family="Helvetica,sans-Serif" font-size="10.00">+ set_filenames_gnuplot()</text>
<text text-anchor="start" x="117.5" y="-376.5" font-family="Helvetica,sans-Serif" font-size="10.00">+ get_filenames()</text>
<text text-anchor="start" x="117.5" y="-365.5" font-family="Helvetica,sans-Serif" font-size="10.00">+ Print_to_gnuplot_drone()</text>
<text text-anchor="start" x="117.5" y="-354.5" font-family="Helvetica,sans-Serif" font-size="10.00">+ Print_to_files_drone()</text>
<text text-anchor="start" x="117.5" y="-343.5" font-family="Helvetica,sans-Serif" font-size="10.00">+ Rotors_rotation_animation()</text>
<text text-anchor="start" x="117.5" y="-332.5" font-family="Helvetica,sans-Serif" font-size="10.00">+ Drone_rotation_animation()</text>
<text text-anchor="start" x="117.5" y="-321.5" font-family="Helvetica,sans-Serif" font-size="10.00">+ Drone_make_path()</text>
<text text-anchor="start" x="117.5" y="-310.5" font-family="Helvetica,sans-Serif" font-size="10.00">+ Drone_path_to_file()</text>
<text text-anchor="start" x="117.5" y="-299.5" font-family="Helvetica,sans-Serif" font-size="10.00">+ Drone_path_clear()</text>
<text text-anchor="start" x="117.5" y="-288.5" font-family="Helvetica,sans-Serif" font-size="10.00">+ Drone_translation_animation()</text>
<text text-anchor="start" x="117.5" y="-277.5" font-family="Helvetica,sans-Serif" font-size="10.00">+ Drone_change_to_sample()</text>
<text text-anchor="start" x="117.5" y="-266.5" font-family="Helvetica,sans-Serif" font-size="10.00">+ Drone_From_Sample()</text>
<text text-anchor="start" x="117.5" y="-255.5" font-family="Helvetica,sans-Serif" font-size="10.00">+ Drone_basic_motion()</text>
<text text-anchor="start" x="117.5" y="-244.5" font-family="Helvetica,sans-Serif" font-size="10.00">+ Drone_roundabout()</text>
<text text-anchor="start" x="117.5" y="-233.5" font-family="Helvetica,sans-Serif" font-size="10.00">+ Drone_make_path_roundabout()</text>
</a>
</g>
</g>
<!-- Node2&#45;&gt;Node1 -->
<g id="edge1" class="edge">
<title>Node2&#45;&gt;Node1</title>
<path fill="none" stroke="#404040" d="M294.89,-317.03C345.17,-264.81 405.93,-201.71 450.53,-155.38"/>
<polygon fill="none" stroke="#404040" points="450.63,-155.28 451.91,-148.18 458.95,-146.64 457.67,-153.73 450.63,-155.28"/>
<text text-anchor="middle" x="418" y="-200" font-family="Helvetica,sans-Serif" font-size="10.00"> &#45;flies</text>
</g>
<!-- Node3 -->
<g id="node3" class="node">
<title>Node3</title>
<g id="a_node3"><a xlink:title=" ">
<polygon fill="none" stroke="#bfbfbf" points="49,-1697 49,-1754 99,-1754 99,-1697 49,-1697"/>
<text text-anchor="middle" x="74" y="-1742" font-family="Helvetica,sans-Serif" font-size="10.00">double</text>
<polyline fill="none" stroke="#bfbfbf" points="49,-1735 99,-1735 "/>
<text text-anchor="middle" x="74" y="-1723" font-family="Helvetica,sans-Serif" font-size="10.00"> </text>
<polyline fill="none" stroke="#bfbfbf" points="49,-1716 99,-1716 "/>
<text text-anchor="middle" x="74" y="-1704" font-family="Helvetica,sans-Serif" font-size="10.00"> </text>
</a>
</g>
</g>
<!-- Node3&#45;&gt;Node2 -->
<g id="edge2" class="edge">
<title>Node3&#45;&gt;Node2</title>
<path fill="none" stroke="#404040" d="M62.76,-1696.63C42.06,-1642.71 0,-1519.94 0,-1412.5 0,-1412.5 0,-1412.5 0,-832 0,-728.17 51.45,-623.06 102.42,-544.4"/>
<polygon fill="none" stroke="#404040" points="102.69,-544 102.64,-536.79 109.28,-533.97 109.32,-541.18 102.69,-544"/>
<text text-anchor="middle" x="33.5" y="-1144.5" font-family="Helvetica,sans-Serif" font-size="10.00"> &#45;drone_angle</text>
</g>
<!-- Node4 -->
<g id="node4" class="node">
<title>Node4</title>
<g id="a_node4"><a xlink:href="class_vector.html" target="_top" xlink:title=" ">
<polygon fill="none" stroke="black" points="108.5,-1278.5 108.5,-1544.5 223.5,-1544.5 223.5,-1278.5 108.5,-1278.5"/>
<text text-anchor="middle" x="166" y="-1532.5" font-family="Helvetica,sans-Serif" font-size="10.00">Vector&lt; double, 3 &gt;</text>
<polyline fill="none" stroke="black" points="108.5,-1525.5 223.5,-1525.5 "/>
<text text-anchor="middle" x="166" y="-1513.5" font-family="Helvetica,sans-Serif" font-size="10.00"> </text>
<polyline fill="none" stroke="black" points="108.5,-1506.5 223.5,-1506.5 "/>
<text text-anchor="start" x="116.5" y="-1494.5" font-family="Helvetica,sans-Serif" font-size="10.00">+ Vector()</text>
<text text-anchor="start" x="116.5" y="-1483.5" font-family="Helvetica,sans-Serif" font-size="10.00">+ Vector()</text>
<text text-anchor="start" x="116.5" y="-1472.5" font-family="Helvetica,sans-Serif" font-size="10.00">+ operator+()</text>
<text text-anchor="start" x="116.5" y="-1461.5" font-family="Helvetica,sans-Serif" font-size="10.00">+ operator&#45;()</text>
<text text-anchor="start" x="116.5" y="-1450.5" font-family="Helvetica,sans-Serif" font-size="10.00">+ operator*()</text>
<text text-anchor="start" x="116.5" y="-1439.5" font-family="Helvetica,sans-Serif" font-size="10.00">+ operator/()</text>
<text text-anchor="start" x="116.5" y="-1428.5" font-family="Helvetica,sans-Serif" font-size="10.00">+ operator==()</text>
<text text-anchor="start" x="116.5" y="-1417.5" font-family="Helvetica,sans-Serif" font-size="10.00">+ scale_vec()</text>
<text text-anchor="start" x="116.5" y="-1406.5" font-family="Helvetica,sans-Serif" font-size="10.00">+ rotate()</text>
<text text-anchor="start" x="116.5" y="-1395.5" font-family="Helvetica,sans-Serif" font-size="10.00">+ rotate()</text>
<text text-anchor="start" x="116.5" y="-1384.5" font-family="Helvetica,sans-Serif" font-size="10.00">+ rotate()</text>
<text text-anchor="start" x="116.5" y="-1373.5" font-family="Helvetica,sans-Serif" font-size="10.00">+ modulus2()</text>
<text text-anchor="start" x="116.5" y="-1362.5" font-family="Helvetica,sans-Serif" font-size="10.00">+ get_vec()</text>
<text text-anchor="start" x="116.5" y="-1351.5" font-family="Helvetica,sans-Serif" font-size="10.00">+ get_len()</text>
<text text-anchor="start" x="116.5" y="-1340.5" font-family="Helvetica,sans-Serif" font-size="10.00">+ get_slope_angle()</text>
<text text-anchor="start" x="116.5" y="-1329.5" font-family="Helvetica,sans-Serif" font-size="10.00">+ get_slope_angle()</text>
<text text-anchor="start" x="116.5" y="-1318.5" font-family="Helvetica,sans-Serif" font-size="10.00">+ get_slope_angle()</text>
<text text-anchor="start" x="116.5" y="-1307.5" font-family="Helvetica,sans-Serif" font-size="10.00">+ operator[]()</text>
<text text-anchor="start" x="116.5" y="-1296.5" font-family="Helvetica,sans-Serif" font-size="10.00">+ operator[]()</text>
<text text-anchor="start" x="116.5" y="-1285.5" font-family="Helvetica,sans-Serif" font-size="10.00">+ scalar_prod()</text>
</a>
</g>
</g>
<!-- Node3&#45;&gt;Node4 -->
<g id="edge8" class="edge">
<title>Node3&#45;&gt;Node4</title>
<path fill="none" stroke="#404040" d="M75.51,-1696.84C77.84,-1664.27 83.55,-1608.79 97,-1563 99.15,-1555.67 101.6,-1548.25 104.26,-1540.82"/>
<polygon fill="none" stroke="#404040" points="104.26,-1540.81 102.61,-1533.79 108.45,-1529.56 110.1,-1536.58 104.26,-1540.81"/>
<text text-anchor="middle" x="110.5" y="-1566" font-family="Helvetica,sans-Serif" font-size="10.00"> &#45;size</text>
</g>
<!-- Node4&#45;&gt;Node2 -->
<g id="edge3" class="edge">
<title>Node4&#45;&gt;Node2</title>
<path fill="none" stroke="#404040" d="M136.38,-1278.34C106.88,-1125.62 71.62,-867.41 114,-650 116.28,-638.32 119.07,-626.45 122.25,-614.57"/>
<polygon fill="none" stroke="#404040" points="122.34,-614.26 120.09,-607.41 125.55,-602.7 127.8,-609.55 122.34,-614.26"/>
<text text-anchor="middle" x="138.5" y="-1048" font-family="Helvetica,sans-Serif" font-size="10.00"> &#45;drone_orient</text>
<text text-anchor="middle" x="138.5" y="-1037" font-family="Helvetica,sans-Serif" font-size="10.00">&#45;drone_pos</text>
</g>
<!-- Node11 -->
<g id="node11" class="node">
<title>Node11</title>
<g id="a_node11"><a xlink:href="class_cuboid.html" target="_top" xlink:title="Opisuje prostopadloscian w przestrzeni trojwymiarowej.">
<polygon fill="none" stroke="black" points="299.5,-650.5 299.5,-1015.5 440.5,-1015.5 440.5,-650.5 299.5,-650.5"/>
<text text-anchor="middle" x="370" y="-1003.5" font-family="Helvetica,sans-Serif" font-size="10.00">Cuboid</text>
<polyline fill="none" stroke="black" points="299.5,-996.5 440.5,-996.5 "/>
<text text-anchor="middle" x="370" y="-984.5" font-family="Helvetica,sans-Serif" font-size="10.00"> </text>
<polyline fill="none" stroke="black" points="299.5,-977.5 440.5,-977.5 "/>
<text text-anchor="start" x="307.5" y="-965.5" font-family="Helvetica,sans-Serif" font-size="10.00">+ Cuboid()</text>
<text text-anchor="start" x="307.5" y="-954.5" font-family="Helvetica,sans-Serif" font-size="10.00">+ Cuboid()</text>
<text text-anchor="start" x="307.5" y="-943.5" font-family="Helvetica,sans-Serif" font-size="10.00">+ Cuboid()</text>
<text text-anchor="start" x="307.5" y="-932.5" font-family="Helvetica,sans-Serif" font-size="10.00">+ Cuboid()</text>
<text text-anchor="start" x="307.5" y="-921.5" font-family="Helvetica,sans-Serif" font-size="10.00">+ Cuboid()</text>
<text text-anchor="start" x="307.5" y="-910.5" font-family="Helvetica,sans-Serif" font-size="10.00">+ check_cub()</text>
<text text-anchor="start" x="307.5" y="-899.5" font-family="Helvetica,sans-Serif" font-size="10.00">+ get_vec_opp()</text>
<text text-anchor="start" x="307.5" y="-888.5" font-family="Helvetica,sans-Serif" font-size="10.00">+ check_vec_opp()</text>
<text text-anchor="start" x="307.5" y="-877.5" font-family="Helvetica,sans-Serif" font-size="10.00">+ check_vec_len()</text>
<text text-anchor="start" x="307.5" y="-866.5" font-family="Helvetica,sans-Serif" font-size="10.00">+ get_vec_len()</text>
<text text-anchor="start" x="307.5" y="-855.5" font-family="Helvetica,sans-Serif" font-size="10.00">+ get_vec_perp()</text>
<text text-anchor="start" x="307.5" y="-844.5" font-family="Helvetica,sans-Serif" font-size="10.00">+ check_vec_perp()</text>
<text text-anchor="start" x="307.5" y="-833.5" font-family="Helvetica,sans-Serif" font-size="10.00">+ get_cub()</text>
<text text-anchor="start" x="307.5" y="-822.5" font-family="Helvetica,sans-Serif" font-size="10.00">+ get_cub()</text>
<text text-anchor="start" x="307.5" y="-811.5" font-family="Helvetica,sans-Serif" font-size="10.00">+ get_height()</text>
<text text-anchor="start" x="307.5" y="-800.5" font-family="Helvetica,sans-Serif" font-size="10.00">+ operator==()</text>
<text text-anchor="start" x="307.5" y="-789.5" font-family="Helvetica,sans-Serif" font-size="10.00">+ translation()</text>
<text text-anchor="start" x="307.5" y="-778.5" font-family="Helvetica,sans-Serif" font-size="10.00">+ translation_to_O()</text>
<text text-anchor="start" x="307.5" y="-767.5" font-family="Helvetica,sans-Serif" font-size="10.00">+ rotation()</text>
<text text-anchor="start" x="307.5" y="-756.5" font-family="Helvetica,sans-Serif" font-size="10.00">+ rotation_around_cen()</text>
<text text-anchor="start" x="307.5" y="-745.5" font-family="Helvetica,sans-Serif" font-size="10.00">+ centre_point()</text>
<text text-anchor="start" x="307.5" y="-734.5" font-family="Helvetica,sans-Serif" font-size="10.00">+ special_points()</text>
<text text-anchor="start" x="307.5" y="-723.5" font-family="Helvetica,sans-Serif" font-size="10.00">+ print_cuboid()</text>
<text text-anchor="start" x="307.5" y="-712.5" font-family="Helvetica,sans-Serif" font-size="10.00">+ print_cuboid_weird()</text>
<text text-anchor="start" x="307.5" y="-701.5" font-family="Helvetica,sans-Serif" font-size="10.00">+ print_cuboid_3D()</text>
<text text-anchor="start" x="307.5" y="-690.5" font-family="Helvetica,sans-Serif" font-size="10.00">+ Cuboid_From_Sample()</text>
<text text-anchor="start" x="307.5" y="-679.5" font-family="Helvetica,sans-Serif" font-size="10.00">+ Cuboid_To_File()</text>
<text text-anchor="start" x="307.5" y="-668.5" font-family="Helvetica,sans-Serif" font-size="10.00">+ scale_cub()</text>
<text text-anchor="start" x="307.5" y="-657.5" font-family="Helvetica,sans-Serif" font-size="10.00">+ scale_cub()</text>
</a>
</g>
</g>
<!-- Node4&#45;&gt;Node11 -->
<g id="edge18" class="edge">
<title>Node4&#45;&gt;Node11</title>
<path fill="none" stroke="#404040" d="M223.74,-1371.59C268.84,-1337.53 328.34,-1283.61 356,-1220 381.75,-1160.78 390.11,-1091.5 390.52,-1028.1"/>
<polygon fill="none" stroke="#404040" points="390.52,-1027.92 386.51,-1021.93 390.5,-1015.92 394.51,-1021.92 390.52,-1027.92"/>
<text text-anchor="middle" x="408" y="-1155.5" font-family="Helvetica,sans-Serif" font-size="10.00"> &#45;centre</text>
<text text-anchor="middle" x="408" y="-1144.5" font-family="Helvetica,sans-Serif" font-size="10.00">&#45;tops</text>
<text text-anchor="middle" x="408" y="-1133.5" font-family="Helvetica,sans-Serif" font-size="10.00">&#45;cuts</text>
</g>
<!-- Node12 -->
<g id="node12" class="node">
<title>Node12</title>
<g id="a_node12"><a xlink:href="class_block.html" target="_top" xlink:title="Opisuje figure geometryczna w przestrzeni trojwymiarowej.">
<polygon fill="none" stroke="black" points="222.5,-1074.5 222.5,-1219.5 347.5,-1219.5 347.5,-1074.5 222.5,-1074.5"/>
<text text-anchor="middle" x="285" y="-1207.5" font-family="Helvetica,sans-Serif" font-size="10.00">Block</text>
<polyline fill="none" stroke="black" points="222.5,-1200.5 347.5,-1200.5 "/>
<text text-anchor="middle" x="285" y="-1188.5" font-family="Helvetica,sans-Serif" font-size="10.00"> </text>
<polyline fill="none" stroke="black" points="222.5,-1181.5 347.5,-1181.5 "/>
<text text-anchor="start" x="230.5" y="-1169.5" font-family="Helvetica,sans-Serif" font-size="10.00">+ Block()</text>
<text text-anchor="start" x="230.5" y="-1158.5" font-family="Helvetica,sans-Serif" font-size="10.00">+ Block()</text>
<text text-anchor="start" x="230.5" y="-1147.5" font-family="Helvetica,sans-Serif" font-size="10.00">+ set_sample_name()</text>
<text text-anchor="start" x="230.5" y="-1136.5" font-family="Helvetica,sans-Serif" font-size="10.00">+ set_final_name()</text>
<text text-anchor="start" x="230.5" y="-1125.5" font-family="Helvetica,sans-Serif" font-size="10.00">+ set_scale()</text>
<text text-anchor="start" x="230.5" y="-1114.5" font-family="Helvetica,sans-Serif" font-size="10.00">+ set_scale()</text>
<text text-anchor="start" x="230.5" y="-1103.5" font-family="Helvetica,sans-Serif" font-size="10.00">+ get_sample_name()</text>
<text text-anchor="start" x="230.5" y="-1092.5" font-family="Helvetica,sans-Serif" font-size="10.00">+ get_final_name()</text>
<text text-anchor="start" x="230.5" y="-1081.5" font-family="Helvetica,sans-Serif" font-size="10.00">+ get_scale()</text>
</a>
</g>
</g>
<!-- Node4&#45;&gt;Node12 -->
<g id="edge16" class="edge">
<title>Node4&#45;&gt;Node12</title>
<path fill="none" stroke="#404040" d="M223.58,-1283.48C231.68,-1265.62 239.83,-1247.65 247.42,-1230.9"/>
<polygon fill="none" stroke="#404040" points="247.62,-1230.45 246.46,-1223.33 252.58,-1219.52 253.74,-1226.63 247.62,-1230.45"/>
<text text-anchor="middle" x="262.5" y="-1246.5" font-family="Helvetica,sans-Serif" font-size="10.00"> #scale</text>
</g>
<!-- Node14 -->
<g id="node14" class="node">
<title>Node14</title>
<g id="a_node14"><a xlink:href="class_prism.html" target="_top" xlink:title="Opisuje graniastoslup o dwunastu wierzcholkach w przestrzeni trojwymiarowej.">
<polygon fill="none" stroke="black" points="123,-667 123,-999 281,-999 281,-667 123,-667"/>
<text text-anchor="middle" x="202" y="-987" font-family="Helvetica,sans-Serif" font-size="10.00">Prism</text>
<polyline fill="none" stroke="black" points="123,-980 281,-980 "/>
<text text-anchor="middle" x="202" y="-968" font-family="Helvetica,sans-Serif" font-size="10.00"> </text>
<polyline fill="none" stroke="black" points="123,-961 281,-961 "/>
<text text-anchor="start" x="131" y="-949" font-family="Helvetica,sans-Serif" font-size="10.00">+ Prism()</text>
<text text-anchor="start" x="131" y="-938" font-family="Helvetica,sans-Serif" font-size="10.00">+ Prism()</text>
<text text-anchor="start" x="131" y="-927" font-family="Helvetica,sans-Serif" font-size="10.00">+ Prism()</text>
<text text-anchor="start" x="131" y="-916" font-family="Helvetica,sans-Serif" font-size="10.00">+ Prism()</text>
<text text-anchor="start" x="131" y="-905" font-family="Helvetica,sans-Serif" font-size="10.00">+ Prism()</text>
<text text-anchor="start" x="131" y="-894" font-family="Helvetica,sans-Serif" font-size="10.00">+ get_pri()</text>
<text text-anchor="start" x="131" y="-883" font-family="Helvetica,sans-Serif" font-size="10.00">+ get_pri()</text>
<text text-anchor="start" x="131" y="-872" font-family="Helvetica,sans-Serif" font-size="10.00">+ check_pri()</text>
<text text-anchor="start" x="131" y="-861" font-family="Helvetica,sans-Serif" font-size="10.00">+ get_vec_ver()</text>
<text text-anchor="start" x="131" y="-850" font-family="Helvetica,sans-Serif" font-size="10.00">+ check_vec_ver()</text>
<text text-anchor="start" x="131" y="-839" font-family="Helvetica,sans-Serif" font-size="10.00">+ get_vec_pairs()</text>
<text text-anchor="start" x="131" y="-828" font-family="Helvetica,sans-Serif" font-size="10.00">+ check_vec_pairs()</text>
<text text-anchor="start" x="131" y="-817" font-family="Helvetica,sans-Serif" font-size="10.00">+ check_vec_perp()</text>
<text text-anchor="start" x="131" y="-806" font-family="Helvetica,sans-Serif" font-size="10.00">+ check_vec_basis()</text>
<text text-anchor="start" x="131" y="-795" font-family="Helvetica,sans-Serif" font-size="10.00">+ operator==()</text>
<text text-anchor="start" x="131" y="-784" font-family="Helvetica,sans-Serif" font-size="10.00">+ translation()</text>
<text text-anchor="start" x="131" y="-773" font-family="Helvetica,sans-Serif" font-size="10.00">+ translation_of_lower_cen()</text>
<text text-anchor="start" x="131" y="-762" font-family="Helvetica,sans-Serif" font-size="10.00">+ translation_to_O()</text>
<text text-anchor="start" x="131" y="-751" font-family="Helvetica,sans-Serif" font-size="10.00">+ rotation_around_cen()</text>
<text text-anchor="start" x="131" y="-740" font-family="Helvetica,sans-Serif" font-size="10.00">+ centre_point()</text>
<text text-anchor="start" x="131" y="-729" font-family="Helvetica,sans-Serif" font-size="10.00">+ special_points()</text>
<text text-anchor="start" x="131" y="-718" font-family="Helvetica,sans-Serif" font-size="10.00">+ print_prism_3D()</text>
<text text-anchor="start" x="131" y="-707" font-family="Helvetica,sans-Serif" font-size="10.00">+ Prism_From_Sample()</text>
<text text-anchor="start" x="131" y="-696" font-family="Helvetica,sans-Serif" font-size="10.00">+ Prism_To_File()</text>
<text text-anchor="start" x="131" y="-685" font-family="Helvetica,sans-Serif" font-size="10.00">+ scale_pri()</text>
<text text-anchor="start" x="131" y="-674" font-family="Helvetica,sans-Serif" font-size="10.00">+ scale_pri()</text>
</a>
</g>
</g>
<!-- Node4&#45;&gt;Node14 -->
<g id="edge21" class="edge">
<title>Node4&#45;&gt;Node14</title>
<path fill="none" stroke="#404040" d="M166.94,-1278.13C168.04,-1216.08 170.33,-1141.19 175,-1074 176.42,-1053.62 178.27,-1032.31 180.35,-1011.16"/>
<polygon fill="none" stroke="#404040" points="180.36,-1011.03 176.98,-1004.66 181.56,-999.09 184.94,-1005.45 180.36,-1011.03"/>
<text text-anchor="middle" x="194" y="-1155.5" font-family="Helvetica,sans-Serif" font-size="10.00"> &#45;centre</text>
<text text-anchor="middle" x="194" y="-1144.5" font-family="Helvetica,sans-Serif" font-size="10.00">&#45;tops</text>
<text text-anchor="middle" x="194" y="-1133.5" font-family="Helvetica,sans-Serif" font-size="10.00">&#45;cuts</text>
</g>
<!-- Node5 -->
<g id="node5" class="node">
<title>Node5</title>
<g id="a_node5"><a xlink:href="class_count.html" target="_top" xlink:title=" ">
<polygon fill="none" stroke="black" points="41,-1906.5 41,-2029.5 175,-2029.5 175,-1906.5 41,-1906.5"/>
<text text-anchor="start" x="49" y="-2017.5" font-family="Helvetica,sans-Serif" font-size="10.00">Count&lt; Vector&lt; double,</text>
<text text-anchor="middle" x="108" y="-2006.5" font-family="Helvetica,sans-Serif" font-size="10.00"> SIZE &gt; &gt;</text>
<polyline fill="none" stroke="black" points="41,-1999.5 175,-1999.5 "/>
<text text-anchor="middle" x="108" y="-1987.5" font-family="Helvetica,sans-Serif" font-size="10.00"> </text>
<polyline fill="none" stroke="black" points="41,-1980.5 175,-1980.5 "/>
<text text-anchor="start" x="49" y="-1968.5" font-family="Helvetica,sans-Serif" font-size="10.00">+ Count()</text>
<text text-anchor="start" x="49" y="-1957.5" font-family="Helvetica,sans-Serif" font-size="10.00">+ Count()</text>
<text text-anchor="start" x="49" y="-1946.5" font-family="Helvetica,sans-Serif" font-size="10.00">+ ~Count()</text>
<text text-anchor="start" x="49" y="-1935.5" font-family="Helvetica,sans-Serif" font-size="10.00">+ get_count()</text>
<text text-anchor="start" x="49" y="-1924.5" font-family="Helvetica,sans-Serif" font-size="10.00">+ print_count()</text>
<text text-anchor="start" x="49" y="-1913.5" font-family="Helvetica,sans-Serif" font-size="10.00">+ zero_count()</text>
</a>
</g>
</g>
<!-- Node5&#45;&gt;Node4 -->
<g id="edge4" class="edge">
<title>Node5&#45;&gt;Node4</title>
<path fill="none" stroke="midnightblue" d="M115.41,-1896.15C124.66,-1807.75 140.65,-1654.82 152.19,-1544.56"/>
<polygon fill="none" stroke="midnightblue" points="111.9,-1896.03 114.35,-1906.34 118.87,-1896.76 111.9,-1896.03"/>
</g>
<!-- Node6 -->
<g id="node6" class="node">
<title>Node6</title>
<g id="a_node6"><a xlink:title=" ">
<polygon fill="none" stroke="#bfbfbf" points="217.5,-2248.5 217.5,-2305.5 276.5,-2305.5 276.5,-2248.5 217.5,-2248.5"/>
<text text-anchor="middle" x="247" y="-2293.5" font-family="Helvetica,sans-Serif" font-size="10.00">static int</text>
<polyline fill="none" stroke="#bfbfbf" points="217.5,-2286.5 276.5,-2286.5 "/>
<text text-anchor="middle" x="247" y="-2274.5" font-family="Helvetica,sans-Serif" font-size="10.00"> </text>
<polyline fill="none" stroke="#bfbfbf" points="217.5,-2267.5 276.5,-2267.5 "/>
<text text-anchor="middle" x="247" y="-2255.5" font-family="Helvetica,sans-Serif" font-size="10.00"> </text>
</a>
</g>
</g>
<!-- Node6&#45;&gt;Node5 -->
<g id="edge5" class="edge">
<title>Node6&#45;&gt;Node5</title>
<path fill="none" stroke="#404040" d="M217.45,-2267.37C183.91,-2255.81 130.78,-2231.77 107,-2190 81.64,-2145.47 83.02,-2087.24 90.13,-2041.74"/>
<polygon fill="none" stroke="#404040" points="90.14,-2041.69 87.21,-2035.1 92.16,-2029.86 95.09,-2036.45 90.14,-2041.69"/>
<text text-anchor="middle" x="150" y="-2136.5" font-family="Helvetica,sans-Serif" font-size="10.00"> #objects_alive</text>
<text text-anchor="middle" x="150" y="-2125.5" font-family="Helvetica,sans-Serif" font-size="10.00">#objects_created</text>
</g>
<!-- Node7 -->
<g id="node7" class="node">
<title>Node7</title>
<g id="a_node7"><a xlink:href="class_count.html" target="_top" xlink:title="Pozwala na liczenie instancji stworzonych obiektow.">
<polygon fill="none" stroke="black" points="202,-2077.5 202,-2189.5 292,-2189.5 292,-2077.5 202,-2077.5"/>
<text text-anchor="middle" x="247" y="-2177.5" font-family="Helvetica,sans-Serif" font-size="10.00">Count&lt; T &gt;</text>
<polyline fill="none" stroke="black" points="202,-2170.5 292,-2170.5 "/>
<text text-anchor="middle" x="247" y="-2158.5" font-family="Helvetica,sans-Serif" font-size="10.00"> </text>
<polyline fill="none" stroke="black" points="202,-2151.5 292,-2151.5 "/>
<text text-anchor="start" x="210" y="-2139.5" font-family="Helvetica,sans-Serif" font-size="10.00">+ Count()</text>
<text text-anchor="start" x="210" y="-2128.5" font-family="Helvetica,sans-Serif" font-size="10.00">+ Count()</text>
<text text-anchor="start" x="210" y="-2117.5" font-family="Helvetica,sans-Serif" font-size="10.00">+ ~Count()</text>
<text text-anchor="start" x="210" y="-2106.5" font-family="Helvetica,sans-Serif" font-size="10.00">+ get_count()</text>
<text text-anchor="start" x="210" y="-2095.5" font-family="Helvetica,sans-Serif" font-size="10.00">+ print_count()</text>
<text text-anchor="start" x="210" y="-2084.5" font-family="Helvetica,sans-Serif" font-size="10.00">+ zero_count()</text>
</a>
</g>
</g>
<!-- Node6&#45;&gt;Node7 -->
<g id="edge7" class="edge">
<title>Node6&#45;&gt;Node7</title>
<path fill="none" stroke="#404040" d="M247,-2248.38C247,-2235.05 247,-2218.42 247,-2202.01"/>
<polygon fill="none" stroke="#404040" points="247,-2201.57 243,-2195.57 247,-2189.57 251,-2195.57 247,-2201.57"/>
<text text-anchor="middle" x="290" y="-2222" font-family="Helvetica,sans-Serif" font-size="10.00"> #objects_alive</text>
<text text-anchor="middle" x="290" y="-2211" font-family="Helvetica,sans-Serif" font-size="10.00">#objects_created</text>
</g>
<!-- Node9 -->
<g id="node9" class="node">
<title>Node9</title>
<g id="a_node9"><a xlink:href="class_count.html" target="_top" xlink:title=" ">
<polygon fill="none" stroke="black" points="209.5,-1906.5 209.5,-2029.5 332.5,-2029.5 332.5,-1906.5 209.5,-1906.5"/>
<text text-anchor="start" x="217.5" y="-2017.5" font-family="Helvetica,sans-Serif" font-size="10.00">Count&lt; Vector&lt; type,</text>
<text text-anchor="middle" x="271" y="-2006.5" font-family="Helvetica,sans-Serif" font-size="10.00"> SIZE &gt; &gt;</text>
<polyline fill="none" stroke="black" points="209.5,-1999.5 332.5,-1999.5 "/>
<text text-anchor="middle" x="271" y="-1987.5" font-family="Helvetica,sans-Serif" font-size="10.00"> </text>
<polyline fill="none" stroke="black" points="209.5,-1980.5 332.5,-1980.5 "/>
<text text-anchor="start" x="217.5" y="-1968.5" font-family="Helvetica,sans-Serif" font-size="10.00">+ Count()</text>
<text text-anchor="start" x="217.5" y="-1957.5" font-family="Helvetica,sans-Serif" font-size="10.00">+ Count()</text>
<text text-anchor="start" x="217.5" y="-1946.5" font-family="Helvetica,sans-Serif" font-size="10.00">+ ~Count()</text>
<text text-anchor="start" x="217.5" y="-1935.5" font-family="Helvetica,sans-Serif" font-size="10.00">+ get_count()</text>
<text text-anchor="start" x="217.5" y="-1924.5" font-family="Helvetica,sans-Serif" font-size="10.00">+ print_count()</text>
<text text-anchor="start" x="217.5" y="-1913.5" font-family="Helvetica,sans-Serif" font-size="10.00">+ zero_count()</text>
</a>
</g>
</g>
<!-- Node6&#45;&gt;Node9 -->
<g id="edge11" class="edge">
<title>Node6&#45;&gt;Node9</title>
<path fill="none" stroke="#404040" d="M276.74,-2267.45C296.38,-2260.37 321.31,-2248.45 337,-2230 388.72,-2169.18 379.63,-2137.87 392,-2059 392.76,-2054.17 394.81,-2052 392,-2048 380.17,-2031.17 366.49,-2039.03 343.58,-2029.65"/>
<polygon fill="none" stroke="#404040" points="343.5,-2029.6 336.34,-2030.48 332.77,-2024.21 339.93,-2023.34 343.5,-2029.6"/>
<text text-anchor="middle" x="433" y="-2136.5" font-family="Helvetica,sans-Serif" font-size="10.00"> #objects_alive</text>
<text text-anchor="middle" x="433" y="-2125.5" font-family="Helvetica,sans-Serif" font-size="10.00">#objects_created</text>
</g>
<!-- Node7&#45;&gt;Node5 -->
<g id="edge6" class="edge">
<title>Node7&#45;&gt;Node5</title>
<path fill="none" stroke="orange" d="M193.19,-2093.33C184.02,-2087.46 174.41,-2081.78 165,-2077 143.95,-2066.3 129.32,-2077.78 115,-2059 108.54,-2050.53 105.02,-2040.2 103.33,-2029.61"/>
<polygon fill="orange" stroke="orange" points="191.55,-2096.44 201.83,-2099 195.39,-2090.59 191.55,-2096.44"/>
<text text-anchor="middle" x="185" y="-2051" font-family="Helvetica,sans-Serif" font-size="10.00"> &lt; Vector&lt; double, SIZE &gt; &gt;</text>
</g>
<!-- Node7&#45;&gt;Node9 -->
<g id="edge12" class="edge">
<title>Node7&#45;&gt;Node9</title>
<path fill="none" stroke="orange" d="M256.62,-2066.94C258.43,-2054.62 260.32,-2041.79 262.1,-2029.63"/>
<polygon fill="orange" stroke="orange" points="253.11,-2066.74 255.13,-2077.15 260.04,-2067.76 253.11,-2066.74"/>
<text text-anchor="middle" x="323.5" y="-2051" font-family="Helvetica,sans-Serif" font-size="10.00"> &lt; Vector&lt; type, SIZE &gt; &gt;</text>
</g>
<!-- Node8 -->
<g id="node8" class="node">
<title>Node8</title>
<g id="a_node8"><a xlink:href="class_vector.html" target="_top" xlink:title="Opisuje wektor o SIZE&#45;wierszach.">
<polygon fill="none" stroke="black" points="211.5,-1592.5 211.5,-1858.5 330.5,-1858.5 330.5,-1592.5 211.5,-1592.5"/>
<text text-anchor="middle" x="271" y="-1846.5" font-family="Helvetica,sans-Serif" font-size="10.00">Vector&lt; type, SIZE &gt;</text>
<polyline fill="none" stroke="black" points="211.5,-1839.5 330.5,-1839.5 "/>
<text text-anchor="middle" x="271" y="-1827.5" font-family="Helvetica,sans-Serif" font-size="10.00"> </text>
<polyline fill="none" stroke="black" points="211.5,-1820.5 330.5,-1820.5 "/>
<text text-anchor="start" x="219.5" y="-1808.5" font-family="Helvetica,sans-Serif" font-size="10.00">+ Vector()</text>
<text text-anchor="start" x="219.5" y="-1797.5" font-family="Helvetica,sans-Serif" font-size="10.00">+ Vector()</text>
<text text-anchor="start" x="219.5" y="-1786.5" font-family="Helvetica,sans-Serif" font-size="10.00">+ operator+()</text>
<text text-anchor="start" x="219.5" y="-1775.5" font-family="Helvetica,sans-Serif" font-size="10.00">+ operator&#45;()</text>
<text text-anchor="start" x="219.5" y="-1764.5" font-family="Helvetica,sans-Serif" font-size="10.00">+ operator*()</text>
<text text-anchor="start" x="219.5" y="-1753.5" font-family="Helvetica,sans-Serif" font-size="10.00">+ operator/()</text>
<text text-anchor="start" x="219.5" y="-1742.5" font-family="Helvetica,sans-Serif" font-size="10.00">+ operator==()</text>
<text text-anchor="start" x="219.5" y="-1731.5" font-family="Helvetica,sans-Serif" font-size="10.00">+ scale_vec()</text>
<text text-anchor="start" x="219.5" y="-1720.5" font-family="Helvetica,sans-Serif" font-size="10.00">+ rotate()</text>
<text text-anchor="start" x="219.5" y="-1709.5" font-family="Helvetica,sans-Serif" font-size="10.00">+ modulus2()</text>
<text text-anchor="start" x="219.5" y="-1698.5" font-family="Helvetica,sans-Serif" font-size="10.00">+ get_vec()</text>
<text text-anchor="start" x="219.5" y="-1687.5" font-family="Helvetica,sans-Serif" font-size="10.00">+ get_len()</text>
<text text-anchor="start" x="219.5" y="-1676.5" font-family="Helvetica,sans-Serif" font-size="10.00">+ get_slope_angle()</text>
<text text-anchor="start" x="219.5" y="-1665.5" font-family="Helvetica,sans-Serif" font-size="10.00">+ operator[]()</text>
<text text-anchor="start" x="219.5" y="-1654.5" font-family="Helvetica,sans-Serif" font-size="10.00">+ operator[]()</text>
<text text-anchor="start" x="219.5" y="-1643.5" font-family="Helvetica,sans-Serif" font-size="10.00">+ scalar_prod()</text>
<text text-anchor="start" x="219.5" y="-1632.5" font-family="Helvetica,sans-Serif" font-size="10.00">+ rotate()</text>
<text text-anchor="start" x="219.5" y="-1621.5" font-family="Helvetica,sans-Serif" font-size="10.00">+ get_slope_angle()</text>
<text text-anchor="start" x="219.5" y="-1610.5" font-family="Helvetica,sans-Serif" font-size="10.00">+ rotate()</text>
<text text-anchor="start" x="219.5" y="-1599.5" font-family="Helvetica,sans-Serif" font-size="10.00">+ get_slope_angle()</text>
</a>
</g>
</g>
<!-- Node8&#45;&gt;Node4 -->
<g id="edge9" class="edge">
<title>Node8&#45;&gt;Node4</title>
<path fill="none" stroke="orange" d="M223.22,-1582.53C218.96,-1569.88 214.66,-1557.09 210.43,-1544.52"/>
<polygon fill="orange" stroke="orange" points="219.96,-1583.82 226.47,-1592.18 226.6,-1581.59 219.96,-1583.82"/>
<text text-anchor="middle" x="254.5" y="-1566" font-family="Helvetica,sans-Serif" font-size="10.00"> &lt; double, 3 &gt;</text>
</g>
<!-- Node9&#45;&gt;Node8 -->
<g id="edge10" class="edge">
<title>Node9&#45;&gt;Node8</title>
<path fill="none" stroke="midnightblue" d="M271,-1896.05C271,-1884.14 271,-1871.44 271,-1858.56"/>
<polygon fill="none" stroke="midnightblue" points="267.5,-1896.31 271,-1906.31 274.5,-1896.31 267.5,-1896.31"/>
</g>
<!-- Node10 -->
<g id="node10" class="node">
<title>Node10</title>
<g id="a_node10"><a xlink:title=" ">
<polygon fill="none" stroke="#bfbfbf" points="351,-1939.5 351,-1996.5 389,-1996.5 389,-1939.5 351,-1939.5"/>
<text text-anchor="middle" x="370" y="-1984.5" font-family="Helvetica,sans-Serif" font-size="10.00">type</text>
<polyline fill="none" stroke="#bfbfbf" points="351,-1977.5 389,-1977.5 "/>
<text text-anchor="middle" x="370" y="-1965.5" font-family="Helvetica,sans-Serif" font-size="10.00"> </text>
<polyline fill="none" stroke="#bfbfbf" points="351,-1958.5 389,-1958.5 "/>
<text text-anchor="middle" x="370" y="-1946.5" font-family="Helvetica,sans-Serif" font-size="10.00"> </text>
</a>
</g>
</g>
<!-- Node10&#45;&gt;Node8 -->
<g id="edge13" class="edge">
<title>Node10&#45;&gt;Node8</title>
<path fill="none" stroke="#404040" d="M358.64,-1939.41C351.27,-1921.49 341.02,-1896.6 330.13,-1870.14"/>
<polygon fill="none" stroke="#404040" points="330,-1869.82 324.01,-1865.79 325.43,-1858.72 331.41,-1862.75 330,-1869.82"/>
<text text-anchor="middle" x="349.5" y="-1880" font-family="Helvetica,sans-Serif" font-size="10.00"> &#45;size</text>
</g>
<!-- Node11&#45;&gt;Node2 -->
<g id="edge14" class="edge">
<title>Node11&#45;&gt;Node2</title>
<path fill="none" stroke="#404040" d="M299.48,-657.18C293.74,-642.95 287.92,-628.51 282.12,-614.13"/>
<polygon fill="none" stroke="#404040" points="281.96,-613.74 276.01,-609.67 277.47,-602.61 283.43,-606.68 281.96,-613.74"/>
<text text-anchor="middle" x="301.5" y="-624" font-family="Helvetica,sans-Serif" font-size="10.00"> &#45;body</text>
</g>
<!-- Node12&#45;&gt;Node11 -->
<g id="edge15" class="edge">
<title>Node12&#45;&gt;Node11</title>
<path fill="none" stroke="midnightblue" d="M307.2,-1064.52C311.38,-1049.17 315.9,-1032.57 320.54,-1015.54"/>
<polygon fill="none" stroke="midnightblue" points="303.75,-1063.85 304.5,-1074.42 310.51,-1065.69 303.75,-1063.85"/>
</g>
<!-- Node12&#45;&gt;Node14 -->
<g id="edge20" class="edge">
<title>Node12&#45;&gt;Node14</title>
<path fill="none" stroke="midnightblue" d="M263.36,-1064.66C257.98,-1044.41 252,-1021.96 245.96,-999.25"/>
<polygon fill="none" stroke="midnightblue" points="260,-1065.66 265.96,-1074.42 266.77,-1063.86 260,-1065.66"/>
</g>
<!-- Node13 -->
<g id="node13" class="node">
<title>Node13</title>
<g id="a_node13"><a xlink:title=" ">
<polygon fill="none" stroke="#bfbfbf" points="443,-1383 443,-1440 487,-1440 487,-1383 443,-1383"/>
<text text-anchor="middle" x="465" y="-1428" font-family="Helvetica,sans-Serif" font-size="10.00">string</text>
<polyline fill="none" stroke="#bfbfbf" points="443,-1421 487,-1421 "/>
<text text-anchor="middle" x="465" y="-1409" font-family="Helvetica,sans-Serif" font-size="10.00"> </text>
<polyline fill="none" stroke="#bfbfbf" points="443,-1402 487,-1402 "/>
<text text-anchor="middle" x="465" y="-1390" font-family="Helvetica,sans-Serif" font-size="10.00"> </text>
</a>
</g>
</g>
<!-- Node13&#45;&gt;Node1 -->
<g id="edge23" class="edge">
<title>Node13&#45;&gt;Node1</title>
<path fill="none" stroke="#404040" d="M473.47,-1382.83C487.25,-1335.3 513,-1234.87 513,-1148 513,-1148 513,-1148 513,-413.5 513,-338.82 513,-254.44 513,-190.65"/>
<polygon fill="none" stroke="#404040" points="513,-190.58 509,-184.58 513,-178.58 517,-184.58 513,-190.58"/>
<text text-anchor="middle" x="543.5" y="-830.5" font-family="Helvetica,sans-Serif" font-size="10.00"> &#45;land_name</text>
</g>
<!-- Node13&#45;&gt;Node12 -->
<g id="edge17" class="edge">
<title>Node13&#45;&gt;Node12</title>
<path fill="none" stroke="#404040" d="M446.08,-1382.9C421.32,-1346.79 376.85,-1281.95 340.9,-1229.52"/>
<polygon fill="none" stroke="#404040" points="340.85,-1229.45 334.16,-1226.76 334.06,-1219.55 340.76,-1222.24 340.85,-1229.45"/>
<text text-anchor="middle" x="399.5" y="-1252" font-family="Helvetica,sans-Serif" font-size="10.00"> #sample_name</text>
<text text-anchor="middle" x="399.5" y="-1241" font-family="Helvetica,sans-Serif" font-size="10.00">#final_name</text>
</g>
<!-- Node14&#45;&gt;Node2 -->
<g id="edge19" class="edge">
<title>Node14&#45;&gt;Node2</title>
<path fill="none" stroke="#404040" d="M202,-666.79C202,-649.72 202,-632.25 202,-614.86"/>
<polygon fill="none" stroke="#404040" points="202,-614.84 198,-608.84 202,-602.84 206,-608.84 202,-614.84"/>
<text text-anchor="middle" x="220" y="-624" font-family="Helvetica,sans-Serif" font-size="10.00"> &#45;rotors</text>
</g>
<!-- Node15 -->
<g id="node15" class="node">
<title>Node15</title>
<g id="a_node15"><a xlink:title=" ">
<polygon fill="none" stroke="#bfbfbf" points="541.5,-386 541.5,-443 570.5,-443 570.5,-386 541.5,-386"/>
<text text-anchor="middle" x="556" y="-431" font-family="Helvetica,sans-Serif" font-size="10.00">int</text>
<polyline fill="none" stroke="#bfbfbf" points="541.5,-424 570.5,-424 "/>
<text text-anchor="middle" x="556" y="-412" font-family="Helvetica,sans-Serif" font-size="10.00"> </text>
<polyline fill="none" stroke="#bfbfbf" points="541.5,-405 570.5,-405 "/>
<text text-anchor="middle" x="556" y="-393" font-family="Helvetica,sans-Serif" font-size="10.00"> </text>
</a>
</g>
</g>
<!-- Node15&#45;&gt;Node1 -->
<g id="edge22" class="edge">
<title>Node15&#45;&gt;Node1</title>
<path fill="none" stroke="#404040" d="M552.33,-385.96C546.63,-343.15 535.36,-258.49 526.34,-190.73"/>
<polygon fill="none" stroke="#404040" points="526.33,-190.62 521.57,-185.2 524.75,-178.72 529.5,-184.14 526.33,-190.62"/>
<text text-anchor="middle" x="546.5" y="-200" font-family="Helvetica,sans-Serif" font-size="10.00"> &#45;active</text>
</g>
</g>
</svg>
