<?xml version="1.0" encoding="UTF-8" standalone="no"?>
<!DOCTYPE svg PUBLIC "-//W3C//DTD SVG 1.1//EN"
 "http://www.w3.org/Graphics/SVG/1.1/DTD/svg11.dtd">
<!-- Generated by graphviz version 2.43.0 (0)
 -->
<!-- Title: Menu_cub::print_side_len Pages: 1 -->
<svg width="616pt" height="66pt"
 viewBox="0.00 0.00 616.00 66.00" xmlns="http://www.w3.org/2000/svg" xmlns:xlink="http://www.w3.org/1999/xlink">
<g id="graph0" class="graph" transform="scale(1 1) rotate(0) translate(4 62)">
<title>Menu_cub::print_side_len</title>
<!-- Node1 -->
<g id="node1" class="node">
<title>Node1</title>
<g id="a_node1"><a xlink:title="Wyswietla informacje o bokach figury na standardowym wyjsciu Argumenty:">
<polygon fill="#bfbfbf" stroke="black" points="468,-19.5 468,-38.5 608,-38.5 608,-19.5 468,-19.5"/>
<text text-anchor="middle" x="538" y="-26.5" font-family="Helvetica,sans-Serif" font-size="10.00">Menu_cub::print_side_len</text>
</a>
</g>
</g>
<!-- Node2 -->
<g id="node2" class="node">
<title>Node2</title>
<g id="a_node2"><a xlink:href="class_menu__cub.html#a70948401b7953953e9827b2614d2ae5a" target="_top" xlink:title="Sprawdza i wyswietla wszelkie asercje odnosnie prostopadloscianu Argumenty:">
<polygon fill="none" stroke="black" points="330,-38.5 330,-57.5 432,-57.5 432,-38.5 330,-38.5"/>
<text text-anchor="middle" x="381" y="-45.5" font-family="Helvetica,sans-Serif" font-size="10.00">Menu_cub::assert</text>
</a>
</g>
</g>
<!-- Node1&#45;&gt;Node2 -->
<g id="edge1" class="edge">
<title>Node1&#45;&gt;Node2</title>
<path fill="none" stroke="midnightblue" d="M457.56,-38.74C448.94,-39.79 440.36,-40.85 432.24,-41.84"/>
<polygon fill="midnightblue" stroke="midnightblue" points="458.16,-42.19 467.66,-37.5 457.31,-35.24 458.16,-42.19"/>
</g>
<!-- Node4 -->
<g id="node4" class="node">
<title>Node4</title>
<g id="a_node4"><a xlink:href="class_menu__cub.html#a20ac792d84052e50bf3fb95b1745e4df" target="_top" xlink:title="Obsluguje wybor menu Argumenty:">
<polygon fill="none" stroke="black" points="157,-0.5 157,-19.5 294,-19.5 294,-0.5 157,-0.5"/>
<text text-anchor="middle" x="225.5" y="-7.5" font-family="Helvetica,sans-Serif" font-size="10.00">Menu_cub::switch_menu</text>
</a>
</g>
</g>
<!-- Node1&#45;&gt;Node4 -->
<g id="edge5" class="edge">
<title>Node1&#45;&gt;Node4</title>
<path fill="none" stroke="midnightblue" d="M457.48,-24.13C406.97,-21.04 342.31,-17.09 294.25,-14.15"/>
<polygon fill="midnightblue" stroke="midnightblue" points="457.51,-27.64 467.7,-24.76 457.94,-20.66 457.51,-27.64"/>
</g>
<!-- Node3 -->
<g id="node3" class="node">
<title>Node3</title>
<g id="a_node3"><a xlink:href="class_menu__cub.html#ab8ed88bc956ac7bdfe7db0807085f7cd" target="_top" xlink:title="Inicjuje menu Argumenty:">
<polygon fill="none" stroke="black" points="0,-19.5 0,-38.5 121,-38.5 121,-19.5 0,-19.5"/>
<text text-anchor="middle" x="60.5" y="-26.5" font-family="Helvetica,sans-Serif" font-size="10.00">Menu_cub::init_menu</text>
</a>
</g>
</g>
<!-- Node2&#45;&gt;Node3 -->
<g id="edge2" class="edge">
<title>Node2&#45;&gt;Node3</title>
<path fill="none" stroke="midnightblue" d="M319.59,-44.4C262.63,-41 177.77,-35.94 121.08,-32.55"/>
<polygon fill="midnightblue" stroke="midnightblue" points="319.69,-47.91 329.88,-45.01 320.11,-40.92 319.69,-47.91"/>
</g>
<!-- Node2&#45;&gt;Node4 -->
<g id="edge3" class="edge">
<title>Node2&#45;&gt;Node4</title>
<path fill="none" stroke="midnightblue" d="M331.36,-35.96C309.92,-30.65 285.08,-24.5 264.96,-19.52"/>
<polygon fill="midnightblue" stroke="midnightblue" points="330.72,-39.41 341.27,-38.41 332.4,-32.61 330.72,-39.41"/>
</g>
<!-- Node4&#45;&gt;Node3 -->
<g id="edge4" class="edge">
<title>Node4&#45;&gt;Node3</title>
<path fill="none" stroke="midnightblue" d="M146.75,-19.06C138.17,-20.06 129.52,-21.07 121.2,-22.04"/>
<polygon fill="midnightblue" stroke="midnightblue" points="147.26,-22.53 156.79,-17.89 146.45,-15.57 147.26,-22.53"/>
</g>
</g>
</svg>
