<?xml version="1.0" encoding="UTF-8" standalone="no"?>
<!DOCTYPE svg PUBLIC "-//W3C//DTD SVG 1.1//EN"
 "http://www.w3.org/Graphics/SVG/1.1/DTD/svg11.dtd">
<!-- Generated by graphviz version 2.43.0 (0)
 -->
<!-- Title: Scene::Scene Pages: 1 -->
<svg width="516pt" height="66pt"
 viewBox="0.00 0.00 516.00 66.00" xmlns="http://www.w3.org/2000/svg" xmlns:xlink="http://www.w3.org/1999/xlink">
<g id="graph0" class="graph" transform="scale(1 1) rotate(0) translate(4 62)">
<title>Scene::Scene</title>
<!-- Node1 -->
<g id="node1" class="node">
<title>Node1</title>
<g id="a_node1"><a xlink:title="Konstruktor paramereyczny klasy Scene.">
<polygon fill="#bfbfbf" stroke="black" points="0,-19.5 0,-38.5 81,-38.5 81,-19.5 0,-19.5"/>
<text text-anchor="middle" x="40.5" y="-26.5" font-family="Helvetica,sans-Serif" font-size="10.00">Scene::Scene</text>
</a>
</g>
</g>
<!-- Node2 -->
<g id="node2" class="node">
<title>Node2</title>
<g id="a_node2"><a xlink:href="class_drone.html#a55c483c4e4cf0ec91d5bda5448417f08" target="_top" xlink:title="Metoda ustawiajaca drone_pos">
<polygon fill="none" stroke="black" points="117,-38.5 117,-57.5 239,-57.5 239,-38.5 117,-38.5"/>
<text text-anchor="middle" x="178" y="-45.5" font-family="Helvetica,sans-Serif" font-size="10.00">Drone::set_drone_pos</text>
</a>
</g>
</g>
<!-- Node1&#45;&gt;Node2 -->
<g id="edge1" class="edge">
<title>Node1&#45;&gt;Node2</title>
<path fill="none" stroke="midnightblue" d="M81.06,-34.55C89.23,-35.69 98.07,-36.93 106.96,-38.18"/>
<polygon fill="midnightblue" stroke="midnightblue" points="106.6,-41.66 116.99,-39.59 107.57,-34.73 106.6,-41.66"/>
</g>
<!-- Node5 -->
<g id="node5" class="node">
<title>Node5</title>
<g id="a_node5"><a xlink:href="class_drone.html#a4eeb63d39ed3e215649cbcb5f7fcf359" target="_top" xlink:title="Metoda ustawiajaca skale wszystkich elementow drona">
<polygon fill="none" stroke="black" points="120.5,-0.5 120.5,-19.5 235.5,-19.5 235.5,-0.5 120.5,-0.5"/>
<text text-anchor="middle" x="178" y="-7.5" font-family="Helvetica,sans-Serif" font-size="10.00">Drone::set_scale_all</text>
</a>
</g>
</g>
<!-- Node1&#45;&gt;Node5 -->
<g id="edge4" class="edge">
<title>Node1&#45;&gt;Node5</title>
<path fill="none" stroke="midnightblue" d="M81.06,-23.45C90.25,-22.16 100.3,-20.76 110.31,-19.35"/>
<polygon fill="midnightblue" stroke="midnightblue" points="110.86,-22.81 120.28,-17.95 109.89,-15.88 110.86,-22.81"/>
</g>
<!-- Node3 -->
<g id="node3" class="node">
<title>Node3</title>
<g id="a_node3"><a xlink:href="class_cuboid.html#a08fae08a1c8c70ada48ce3af46c82eee" target="_top" xlink:title="Metoda zwracajaca wysokosc prostopadloscianu">
<polygon fill="none" stroke="black" points="275,-38.5 275,-57.5 383,-57.5 383,-38.5 275,-38.5"/>
<text text-anchor="middle" x="329" y="-45.5" font-family="Helvetica,sans-Serif" font-size="10.00">Cuboid::get_height</text>
</a>
</g>
</g>
<!-- Node2&#45;&gt;Node3 -->
<g id="edge2" class="edge">
<title>Node2&#45;&gt;Node3</title>
<path fill="none" stroke="midnightblue" d="M239.17,-48C247.56,-48 256.19,-48 264.63,-48"/>
<polygon fill="midnightblue" stroke="midnightblue" points="264.8,-51.5 274.8,-48 264.8,-44.5 264.8,-51.5"/>
</g>
<!-- Node4 -->
<g id="node4" class="node">
<title>Node4</title>
<g id="a_node4"><a xlink:href="class_vector.html#a3ac695edc693437a61da9f1976fd4869" target="_top" xlink:title="Zwraca dlugosc wektora &#160;&#160;Argumenty: &#160;&#160;Brak &#160;&#160;Zwraca:">
<polygon fill="none" stroke="black" points="419,-38.5 419,-57.5 508,-57.5 508,-38.5 419,-38.5"/>
<text text-anchor="middle" x="463.5" y="-45.5" font-family="Helvetica,sans-Serif" font-size="10.00">Vector::get_len</text>
</a>
</g>
</g>
<!-- Node3&#45;&gt;Node4 -->
<g id="edge3" class="edge">
<title>Node3&#45;&gt;Node4</title>
<path fill="none" stroke="midnightblue" d="M383.13,-48C391.52,-48 400.21,-48 408.62,-48"/>
<polygon fill="midnightblue" stroke="midnightblue" points="408.71,-51.5 418.71,-48 408.71,-44.5 408.71,-51.5"/>
</g>
<!-- Node6 -->
<g id="node6" class="node">
<title>Node6</title>
<g id="a_node6"><a xlink:href="class_block.html#adb6acd13e2ab79cf7e4733ca2d6ae166" target="_top" xlink:title="Metoda zapisujaca do klasy wektor reprezentujacy skale">
<polygon fill="none" stroke="black" points="281.5,-0.5 281.5,-19.5 376.5,-19.5 376.5,-0.5 281.5,-0.5"/>
<text text-anchor="middle" x="329" y="-7.5" font-family="Helvetica,sans-Serif" font-size="10.00">Block::set_scale</text>
</a>
</g>
</g>
<!-- Node5&#45;&gt;Node6 -->
<g id="edge5" class="edge">
<title>Node5&#45;&gt;Node6</title>
<path fill="none" stroke="midnightblue" d="M235.76,-10C247.22,-10 259.27,-10 270.75,-10"/>
<polygon fill="midnightblue" stroke="midnightblue" points="271.09,-13.5 281.09,-10 271.09,-6.5 271.09,-13.5"/>
</g>
</g>
</svg>
