<?xml version="1.0" encoding="UTF-8" standalone="no"?>
<!DOCTYPE svg PUBLIC "-//W3C//DTD SVG 1.1//EN"
 "http://www.w3.org/Graphics/SVG/1.1/DTD/svg11.dtd">
<!-- Generated by graphviz version 2.43.0 (0)
 -->
<!-- Title: Cuboid::centre_point Pages: 1 -->
<svg width="771pt" height="225pt"
 viewBox="0.00 0.00 771.00 225.07" xmlns="http://www.w3.org/2000/svg" xmlns:xlink="http://www.w3.org/1999/xlink">
<g id="graph0" class="graph" transform="scale(1 1) rotate(0) translate(4 221.07)">
<title>Cuboid::centre_point</title>
<!-- Node1 -->
<g id="node1" class="node">
<title>Node1</title>
<g id="a_node1"><a xlink:title="Metoda zwracajaca punkt centralny (czyli taki, ktorego odleglosci do kazdego wierzcholka sa rowne) pr...">
<polygon fill="#bfbfbf" stroke="black" points="646,-121.57 646,-140.57 763,-140.57 763,-121.57 646,-121.57"/>
<text text-anchor="middle" x="704.5" y="-128.57" font-family="Helvetica,sans-Serif" font-size="10.00">Cuboid::centre_point</text>
</a>
</g>
</g>
<!-- Node2 -->
<g id="node2" class="node">
<title>Node2</title>
<g id="a_node2"><a xlink:href="class_cuboid.html#a66a27613db3b2af0b1c5fefc3e20ebf5" target="_top" xlink:title="Metoda zwracajaca punkty specjalne prostopadloscianu : cuts (czyli te ktore sa przecieciami przekatny...">
<polygon fill="none" stroke="black" points="484,-170.57 484,-189.57 610,-189.57 610,-170.57 484,-170.57"/>
<text text-anchor="middle" x="547" y="-177.57" font-family="Helvetica,sans-Serif" font-size="10.00">Cuboid::special_points</text>
</a>
</g>
</g>
<!-- Node1&#45;&gt;Node2 -->
<g id="edge1" class="edge">
<title>Node1&#45;&gt;Node2</title>
<path fill="none" stroke="midnightblue" d="M663.39,-143.71C636.83,-152.08 602.55,-162.88 578.27,-170.53"/>
<polygon fill="midnightblue" stroke="midnightblue" points="664.66,-146.98 673.15,-140.63 662.56,-140.3 664.66,-146.98"/>
</g>
<!-- Node4 -->
<g id="node4" class="node">
<title>Node4</title>
<g id="a_node4"><a xlink:href="class_drone.html#a6662bd8203e8c9a0721c457b3612a7c1" target="_top" xlink:title="Metoda uzywana przy konstruowania drona przesuwa drona w ten sposob, ze Vector3D centre prostopadlosc...">
<polygon fill="none" stroke="black" points="495,-94.07 495,-124.07 599,-124.07 599,-94.07 495,-94.07"/>
<text text-anchor="start" x="503" y="-112.07" font-family="Helvetica,sans-Serif" font-size="10.00">Drone::translation</text>
<text text-anchor="middle" x="547" y="-101.07" font-family="Helvetica,sans-Serif" font-size="10.00">_to_pos</text>
</a>
</g>
</g>
<!-- Node1&#45;&gt;Node4 -->
<g id="edge3" class="edge">
<title>Node1&#45;&gt;Node4</title>
<path fill="none" stroke="midnightblue" d="M635.44,-121.44C623.22,-119.71 610.68,-117.94 599.04,-116.29"/>
<polygon fill="midnightblue" stroke="midnightblue" points="635.21,-124.94 645.6,-122.88 636.19,-118.01 635.21,-124.94"/>
</g>
<!-- Node3 -->
<g id="node3" class="node">
<title>Node3</title>
<g id="a_node3"><a xlink:href="class_cuboid.html#a1abf60e93d024b7a01ee5b1a48f1f08a" target="_top" xlink:title="Konstruktor bezparametryczny klasy Cuboid. Powstaly prostopadloscian ma dwa prostokaty &quot;tworzace&quot;: p1...">
<polygon fill="none" stroke="black" points="342,-197.57 342,-216.57 432,-216.57 432,-197.57 342,-197.57"/>
<text text-anchor="middle" x="387" y="-204.57" font-family="Helvetica,sans-Serif" font-size="10.00">Cuboid::Cuboid</text>
</a>
</g>
</g>
<!-- Node2&#45;&gt;Node3 -->
<g id="edge2" class="edge">
<title>Node2&#45;&gt;Node3</title>
<path fill="none" stroke="midnightblue" d="M480.29,-191.3C464.03,-194.08 446.99,-196.99 432.05,-199.54"/>
<polygon fill="midnightblue" stroke="midnightblue" points="481.03,-194.72 490.3,-189.59 479.85,-187.82 481.03,-194.72"/>
</g>
<!-- Node5 -->
<g id="node5" class="node">
<title>Node5</title>
<g id="a_node5"><a xlink:href="class_drone.html#ac4d24c27fb2c107d2e8bda0c2bf5cfa1" target="_top" xlink:title="Metoda obliczajaca i przeprowadzajaca caly ruch drona (obrot o kat i przelot z zadania 5....">
<polygon fill="none" stroke="black" points="0,-66.07 0,-96.07 112,-96.07 112,-66.07 0,-66.07"/>
<text text-anchor="start" x="8" y="-84.07" font-family="Helvetica,sans-Serif" font-size="10.00">Drone::Drone_basic</text>
<text text-anchor="middle" x="56" y="-73.07" font-family="Helvetica,sans-Serif" font-size="10.00">_motion</text>
</a>
</g>
</g>
<!-- Node4&#45;&gt;Node5 -->
<g id="edge4" class="edge">
<title>Node4&#45;&gt;Node5</title>
<path fill="none" stroke="midnightblue" d="M522.49,-87.22C503.8,-71.24 476.19,-50.59 448,-40.07 322.9,6.62 276.33,12.8 148,-24.07 119.69,-32.2 91.66,-52.01 74.35,-65.98"/>
<polygon fill="midnightblue" stroke="midnightblue" points="520.35,-90 530.18,-93.96 524.97,-84.73 520.35,-90"/>
</g>
<!-- Node6 -->
<g id="node6" class="node">
<title>Node6</title>
<g id="a_node6"><a xlink:href="class_drone.html#af03af60a9b92e4191a7e66b5c20b52bb" target="_top" xlink:title="Metoda zamieniajaca drona na tego z pliku sample.">
<polygon fill="none" stroke="black" points="326,-72.07 326,-102.07 448,-102.07 448,-72.07 326,-72.07"/>
<text text-anchor="start" x="334" y="-90.07" font-family="Helvetica,sans-Serif" font-size="10.00">Drone::Drone_change</text>
<text text-anchor="middle" x="387" y="-79.07" font-family="Helvetica,sans-Serif" font-size="10.00">_to_sample</text>
</a>
</g>
</g>
<!-- Node4&#45;&gt;Node6 -->
<g id="edge5" class="edge">
<title>Node4&#45;&gt;Node6</title>
<path fill="none" stroke="midnightblue" d="M484.76,-100.54C472.72,-98.87 460.11,-97.11 448.11,-95.44"/>
<polygon fill="midnightblue" stroke="midnightblue" points="484.31,-104.01 494.7,-101.93 485.28,-97.08 484.31,-104.01"/>
</g>
<!-- Node8 -->
<g id="node8" class="node">
<title>Node8</title>
<g id="a_node8"><a xlink:href="class_drone.html#ab7808296cec81143dbddd7516340a371" target="_top" xlink:title="Metoda robiaca &quot;oblot&quot; drona wokol punktu (z modyfikacji)">
<polygon fill="none" stroke="black" points="148,-33.57 148,-52.57 290,-52.57 290,-33.57 148,-33.57"/>
<text text-anchor="middle" x="219" y="-40.57" font-family="Helvetica,sans-Serif" font-size="10.00">Drone::Drone_roundabout</text>
</a>
</g>
</g>
<!-- Node4&#45;&gt;Node8 -->
<g id="edge11" class="edge">
<title>Node4&#45;&gt;Node8</title>
<path fill="none" stroke="midnightblue" d="M511.52,-89.23C493.24,-79.67 470.05,-69.01 448,-63.07 396.3,-49.14 335.86,-44.33 290.2,-42.9"/>
<polygon fill="midnightblue" stroke="midnightblue" points="509.87,-92.32 520.34,-93.96 513.18,-86.15 509.87,-92.32"/>
</g>
<!-- Node9 -->
<g id="node9" class="node">
<title>Node9</title>
<g id="a_node9"><a xlink:href="class_drone.html#a5fc9dd645ad3856b5d3c501c63c464e3" target="_top" xlink:title="Metoda animujaca translacje drona i wyrysowujaca calosc w gnuplocie.">
<polygon fill="none" stroke="black" points="149.5,-159.07 149.5,-189.07 288.5,-189.07 288.5,-159.07 149.5,-159.07"/>
<text text-anchor="start" x="157.5" y="-177.07" font-family="Helvetica,sans-Serif" font-size="10.00">Drone::Drone_translation</text>
<text text-anchor="middle" x="219" y="-166.07" font-family="Helvetica,sans-Serif" font-size="10.00">_animation</text>
</a>
</g>
</g>
<!-- Node4&#45;&gt;Node9 -->
<g id="edge12" class="edge">
<title>Node4&#45;&gt;Node9</title>
<path fill="none" stroke="midnightblue" d="M506.96,-128.48C489.35,-136.43 468.05,-144.94 448,-150.07 395.46,-163.51 334.26,-169.45 288.51,-172.05"/>
<polygon fill="midnightblue" stroke="midnightblue" points="508.72,-131.53 516.33,-124.16 505.78,-125.17 508.72,-131.53"/>
</g>
<!-- Node10 -->
<g id="node10" class="node">
<title>Node10</title>
<g id="a_node10"><a xlink:href="class_scene.html#a22d8bf855d72be0064265c93562b6bb1" target="_top" xlink:title="Konstruktor paramereyczny klasy Scene.">
<polygon fill="none" stroke="black" points="346.5,-121.57 346.5,-140.57 427.5,-140.57 427.5,-121.57 346.5,-121.57"/>
<text text-anchor="middle" x="387" y="-128.57" font-family="Helvetica,sans-Serif" font-size="10.00">Scene::Scene</text>
</a>
</g>
</g>
<!-- Node4&#45;&gt;Node10 -->
<g id="edge13" class="edge">
<title>Node4&#45;&gt;Node10</title>
<path fill="none" stroke="midnightblue" d="M484.54,-117.63C465.38,-120.29 444.77,-123.16 427.53,-125.56"/>
<polygon fill="midnightblue" stroke="midnightblue" points="485.28,-121.06 494.7,-116.21 484.31,-114.12 485.28,-121.06"/>
</g>
<!-- Node6&#45;&gt;Node5 -->
<g id="edge6" class="edge">
<title>Node6&#45;&gt;Node5</title>
<path fill="none" stroke="midnightblue" d="M315.36,-85.78C254.5,-84.67 167.87,-83.09 112.04,-82.07"/>
<polygon fill="midnightblue" stroke="midnightblue" points="315.59,-89.28 325.66,-85.97 315.72,-82.29 315.59,-89.28"/>
</g>
<!-- Node7 -->
<g id="node7" class="node">
<title>Node7</title>
<g id="a_node7"><a xlink:href="class_drone.html#af052f6bb793d1229b99b16b800b95b82" target="_top" xlink:title="Metoda animujaca obrot drona i wyrysowujaca calosc w gnuplocie.">
<polygon fill="none" stroke="black" points="156.5,-110.07 156.5,-140.07 281.5,-140.07 281.5,-110.07 156.5,-110.07"/>
<text text-anchor="start" x="164.5" y="-128.07" font-family="Helvetica,sans-Serif" font-size="10.00">Drone::Drone_rotation</text>
<text text-anchor="middle" x="219" y="-117.07" font-family="Helvetica,sans-Serif" font-size="10.00">_animation</text>
</a>
</g>
</g>
<!-- Node6&#45;&gt;Node7 -->
<g id="edge7" class="edge">
<title>Node6&#45;&gt;Node7</title>
<path fill="none" stroke="midnightblue" d="M315.77,-103.15C304.46,-105.73 292.83,-108.4 281.75,-110.93"/>
<polygon fill="midnightblue" stroke="midnightblue" points="316.63,-106.54 325.6,-100.89 315.07,-99.71 316.63,-106.54"/>
</g>
<!-- Node6&#45;&gt;Node8 -->
<g id="edge9" class="edge">
<title>Node6&#45;&gt;Node8</title>
<path fill="none" stroke="midnightblue" d="M319.53,-69.45C297.89,-63.71 274.69,-57.56 256.14,-52.65"/>
<polygon fill="midnightblue" stroke="midnightblue" points="318.77,-72.87 329.34,-72.05 320.57,-66.1 318.77,-72.87"/>
</g>
<!-- Node6&#45;&gt;Node9 -->
<g id="edge10" class="edge">
<title>Node6&#45;&gt;Node9</title>
<path fill="none" stroke="midnightblue" d="M334.49,-106.8C331.55,-108.45 328.69,-110.21 326,-112.07 306.85,-125.27 309.57,-137.49 290,-150.07 284.7,-153.47 278.87,-156.45 272.9,-159.05"/>
<polygon fill="midnightblue" stroke="midnightblue" points="336.24,-109.83 343.51,-102.13 333.02,-103.62 336.24,-109.83"/>
</g>
<!-- Node7&#45;&gt;Node5 -->
<g id="edge8" class="edge">
<title>Node7&#45;&gt;Node5</title>
<path fill="none" stroke="midnightblue" d="M153.22,-107.37C139.55,-103.63 125.25,-99.72 111.98,-96.09"/>
<polygon fill="midnightblue" stroke="midnightblue" points="152.47,-110.79 163.04,-110.05 154.32,-104.04 152.47,-110.79"/>
</g>
</g>
</svg>
