<?xml version="1.0" encoding="UTF-8" standalone="no"?>
<!DOCTYPE svg PUBLIC "-//W3C//DTD SVG 1.1//EN"
 "http://www.w3.org/Graphics/SVG/1.1/DTD/svg11.dtd">
<!-- Generated by graphviz version 2.43.0 (0)
 -->
<!-- Title: Menu_cub Pages: 1 -->
<svg width="339pt" height="931pt"
 viewBox="0.00 0.00 339.00 931.00" xmlns="http://www.w3.org/2000/svg" xmlns:xlink="http://www.w3.org/1999/xlink">
<g id="graph0" class="graph" transform="scale(1 1) rotate(0) translate(4 927)">
<title>Menu_cub</title>
<!-- Node1 -->
<g id="node1" class="node">
<title>Node1</title>
<g id="a_node1"><a xlink:title="Opisuje menu dla obrotow 3D.">
<polygon fill="#bfbfbf" stroke="black" points="0,-0.5 0,-189.5 170,-189.5 170,-0.5 0,-0.5"/>
<text text-anchor="middle" x="85" y="-177.5" font-family="Helvetica,sans-Serif" font-size="10.00">Menu_cub</text>
<polyline fill="none" stroke="black" points="0,-170.5 170,-170.5 "/>
<text text-anchor="middle" x="85" y="-158.5" font-family="Helvetica,sans-Serif" font-size="10.00"> </text>
<polyline fill="none" stroke="black" points="0,-151.5 170,-151.5 "/>
<text text-anchor="start" x="8" y="-139.5" font-family="Helvetica,sans-Serif" font-size="10.00">+ Menu_cub()</text>
<text text-anchor="start" x="8" y="-128.5" font-family="Helvetica,sans-Serif" font-size="10.00">+ init_menu()</text>
<text text-anchor="start" x="8" y="-117.5" font-family="Helvetica,sans-Serif" font-size="10.00">+ assert()</text>
<text text-anchor="start" x="8" y="-106.5" font-family="Helvetica,sans-Serif" font-size="10.00">+ switch_menu()</text>
<text text-anchor="start" x="8" y="-95.5" font-family="Helvetica,sans-Serif" font-size="10.00">+ switch_rotation()</text>
<text text-anchor="start" x="8" y="-84.5" font-family="Helvetica,sans-Serif" font-size="10.00">+ print_side_len()</text>
<text text-anchor="start" x="8" y="-73.5" font-family="Helvetica,sans-Serif" font-size="10.00">+ show_menu()</text>
<text text-anchor="start" x="8" y="-62.5" font-family="Helvetica,sans-Serif" font-size="10.00">+ CuboidToFile()</text>
<text text-anchor="start" x="8" y="-51.5" font-family="Helvetica,sans-Serif" font-size="10.00">+ Print_to_gnuplot()</text>
<text text-anchor="start" x="8" y="-40.5" font-family="Helvetica,sans-Serif" font-size="10.00">+ Print_to_gnuplot()</text>
<text text-anchor="start" x="8" y="-29.5" font-family="Helvetica,sans-Serif" font-size="10.00">+ Print_to_gnuplot()</text>
<text text-anchor="start" x="8" y="-18.5" font-family="Helvetica,sans-Serif" font-size="10.00">+ Print_to_gnuplot_animation()</text>
<text text-anchor="start" x="8" y="-7.5" font-family="Helvetica,sans-Serif" font-size="10.00">+ PrismToFile()</text>
</a>
</g>
</g>
<!-- Node2 -->
<g id="node2" class="node">
<title>Node2</title>
<g id="a_node2"><a xlink:title=" ">
<polygon fill="none" stroke="#bfbfbf" points="39,-342 39,-399 77,-399 77,-342 39,-342"/>
<text text-anchor="middle" x="58" y="-387" font-family="Helvetica,sans-Serif" font-size="10.00">bool</text>
<polyline fill="none" stroke="#bfbfbf" points="39,-380 77,-380 "/>
<text text-anchor="middle" x="58" y="-368" font-family="Helvetica,sans-Serif" font-size="10.00"> </text>
<polyline fill="none" stroke="#bfbfbf" points="39,-361 77,-361 "/>
<text text-anchor="middle" x="58" y="-349" font-family="Helvetica,sans-Serif" font-size="10.00"> </text>
</a>
</g>
</g>
<!-- Node2&#45;&gt;Node1 -->
<g id="edge1" class="edge">
<title>Node2&#45;&gt;Node1</title>
<path fill="none" stroke="#404040" d="M60.74,-341.77C63.98,-308.96 69.56,-252.38 74.56,-201.77"/>
<polygon fill="none" stroke="#404040" points="74.57,-201.67 71.18,-195.31 75.75,-189.73 79.14,-196.09 74.57,-201.67"/>
<text text-anchor="middle" x="89.5" y="-211" font-family="Helvetica,sans-Serif" font-size="10.00"> &#45;open</text>
</g>
<!-- Node3 -->
<g id="node3" class="node">
<title>Node3</title>
<g id="a_node3"><a xlink:href="class_matrix.html" target="_top" xlink:title=" ">
<polygon fill="none" stroke="black" points="95,-237.5 95,-503.5 253,-503.5 253,-237.5 95,-237.5"/>
<text text-anchor="middle" x="174" y="-491.5" font-family="Helvetica,sans-Serif" font-size="10.00">Matrix&lt; double, 3 &gt;</text>
<polyline fill="none" stroke="black" points="95,-484.5 253,-484.5 "/>
<text text-anchor="middle" x="174" y="-472.5" font-family="Helvetica,sans-Serif" font-size="10.00"> </text>
<polyline fill="none" stroke="black" points="95,-465.5 253,-465.5 "/>
<text text-anchor="start" x="103" y="-453.5" font-family="Helvetica,sans-Serif" font-size="10.00">+ Matrix()</text>
<text text-anchor="start" x="103" y="-442.5" font-family="Helvetica,sans-Serif" font-size="10.00">+ Matrix()</text>
<text text-anchor="start" x="103" y="-431.5" font-family="Helvetica,sans-Serif" font-size="10.00">+ ~Matrix()</text>
<text text-anchor="start" x="103" y="-420.5" font-family="Helvetica,sans-Serif" font-size="10.00">+ operator*()</text>
<text text-anchor="start" x="103" y="-409.5" font-family="Helvetica,sans-Serif" font-size="10.00">+ operator*()</text>
<text text-anchor="start" x="103" y="-398.5" font-family="Helvetica,sans-Serif" font-size="10.00">+ operator+()</text>
<text text-anchor="start" x="103" y="-387.5" font-family="Helvetica,sans-Serif" font-size="10.00">+ operator&#45;()</text>
<text text-anchor="start" x="103" y="-376.5" font-family="Helvetica,sans-Serif" font-size="10.00">+ operator==()</text>
<text text-anchor="start" x="103" y="-365.5" font-family="Helvetica,sans-Serif" font-size="10.00">+ operator()()</text>
<text text-anchor="start" x="103" y="-354.5" font-family="Helvetica,sans-Serif" font-size="10.00">+ operator()()</text>
<text text-anchor="start" x="103" y="-343.5" font-family="Helvetica,sans-Serif" font-size="10.00">+ gauss()</text>
<text text-anchor="start" x="103" y="-332.5" font-family="Helvetica,sans-Serif" font-size="10.00">+ determinant()</text>
<text text-anchor="start" x="103" y="-321.5" font-family="Helvetica,sans-Serif" font-size="10.00">+ rotation_matrix()</text>
<text text-anchor="start" x="103" y="-310.5" font-family="Helvetica,sans-Serif" font-size="10.00">+ rotation_matrix()</text>
<text text-anchor="start" x="103" y="-299.5" font-family="Helvetica,sans-Serif" font-size="10.00">+ rotation_matrix()</text>
<text text-anchor="start" x="103" y="-288.5" font-family="Helvetica,sans-Serif" font-size="10.00">+ rotation_matrix()</text>
<text text-anchor="start" x="103" y="-277.5" font-family="Helvetica,sans-Serif" font-size="10.00">+ apply_matrix_to_rotation()</text>
<text text-anchor="start" x="103" y="-266.5" font-family="Helvetica,sans-Serif" font-size="10.00">+ rotate_and_translate()</text>
<text text-anchor="start" x="103" y="-255.5" font-family="Helvetica,sans-Serif" font-size="10.00">+ rotate_and_translate()</text>
<text text-anchor="start" x="103" y="-244.5" font-family="Helvetica,sans-Serif" font-size="10.00">+ rotate_and_translate()</text>
</a>
</g>
</g>
<!-- Node3&#45;&gt;Node1 -->
<g id="edge2" class="edge">
<title>Node3&#45;&gt;Node1</title>
<path fill="none" stroke="#404040" d="M130.93,-237.16C127.01,-225.09 123.07,-212.98 119.23,-201.19"/>
<polygon fill="none" stroke="#404040" points="119.15,-200.95 113.49,-196.48 115.44,-189.54 121.1,-194 119.15,-200.95"/>
<text text-anchor="middle" x="148" y="-211" font-family="Helvetica,sans-Serif" font-size="10.00"> &#45;rot_mat</text>
</g>
<!-- Node4 -->
<g id="node4" class="node">
<title>Node4</title>
<g id="a_node4"><a xlink:title=" ">
<polygon fill="none" stroke="#bfbfbf" points="105,-656 105,-713 155,-713 155,-656 105,-656"/>
<text text-anchor="middle" x="130" y="-701" font-family="Helvetica,sans-Serif" font-size="10.00">double</text>
<polyline fill="none" stroke="#bfbfbf" points="105,-694 155,-694 "/>
<text text-anchor="middle" x="130" y="-682" font-family="Helvetica,sans-Serif" font-size="10.00"> </text>
<polyline fill="none" stroke="#bfbfbf" points="105,-675 155,-675 "/>
<text text-anchor="middle" x="130" y="-663" font-family="Helvetica,sans-Serif" font-size="10.00"> </text>
</a>
</g>
</g>
<!-- Node4&#45;&gt;Node3 -->
<g id="edge3" class="edge">
<title>Node4&#45;&gt;Node3</title>
<path fill="none" stroke="#404040" d="M133.9,-655.81C138.41,-623.85 146.17,-568.84 153.67,-515.67"/>
<polygon fill="none" stroke="#404040" points="153.69,-515.53 150.56,-509.03 155.36,-503.65 158.49,-510.15 153.69,-515.53"/>
<text text-anchor="middle" x="169" y="-525" font-family="Helvetica,sans-Serif" font-size="10.00"> &#45;value</text>
</g>
<!-- Node5 -->
<g id="node5" class="node">
<title>Node5</title>
<g id="a_node5"><a xlink:href="class_matrix.html" target="_top" xlink:title="Opisuje macierz SIZExSIZE.">
<polygon fill="none" stroke="black" points="173,-551.5 173,-817.5 331,-817.5 331,-551.5 173,-551.5"/>
<text text-anchor="middle" x="252" y="-805.5" font-family="Helvetica,sans-Serif" font-size="10.00">Matrix&lt; type, SIZE &gt;</text>
<polyline fill="none" stroke="black" points="173,-798.5 331,-798.5 "/>
<text text-anchor="middle" x="252" y="-786.5" font-family="Helvetica,sans-Serif" font-size="10.00"> </text>
<polyline fill="none" stroke="black" points="173,-779.5 331,-779.5 "/>
<text text-anchor="start" x="181" y="-767.5" font-family="Helvetica,sans-Serif" font-size="10.00">+ Matrix()</text>
<text text-anchor="start" x="181" y="-756.5" font-family="Helvetica,sans-Serif" font-size="10.00">+ Matrix()</text>
<text text-anchor="start" x="181" y="-745.5" font-family="Helvetica,sans-Serif" font-size="10.00">+ ~Matrix()</text>
<text text-anchor="start" x="181" y="-734.5" font-family="Helvetica,sans-Serif" font-size="10.00">+ operator*()</text>
<text text-anchor="start" x="181" y="-723.5" font-family="Helvetica,sans-Serif" font-size="10.00">+ operator+()</text>
<text text-anchor="start" x="181" y="-712.5" font-family="Helvetica,sans-Serif" font-size="10.00">+ operator&#45;()</text>
<text text-anchor="start" x="181" y="-701.5" font-family="Helvetica,sans-Serif" font-size="10.00">+ operator==()</text>
<text text-anchor="start" x="181" y="-690.5" font-family="Helvetica,sans-Serif" font-size="10.00">+ operator()()</text>
<text text-anchor="start" x="181" y="-679.5" font-family="Helvetica,sans-Serif" font-size="10.00">+ operator()()</text>
<text text-anchor="start" x="181" y="-668.5" font-family="Helvetica,sans-Serif" font-size="10.00">+ gauss()</text>
<text text-anchor="start" x="181" y="-657.5" font-family="Helvetica,sans-Serif" font-size="10.00">+ determinant()</text>
<text text-anchor="start" x="181" y="-646.5" font-family="Helvetica,sans-Serif" font-size="10.00">+ operator*()</text>
<text text-anchor="start" x="181" y="-635.5" font-family="Helvetica,sans-Serif" font-size="10.00">+ rotation_matrix()</text>
<text text-anchor="start" x="181" y="-624.5" font-family="Helvetica,sans-Serif" font-size="10.00">+ rotation_matrix()</text>
<text text-anchor="start" x="181" y="-613.5" font-family="Helvetica,sans-Serif" font-size="10.00">+ apply_matrix_to_rotation()</text>
<text text-anchor="start" x="181" y="-602.5" font-family="Helvetica,sans-Serif" font-size="10.00">+ rotate_and_translate()</text>
<text text-anchor="start" x="181" y="-591.5" font-family="Helvetica,sans-Serif" font-size="10.00">+ rotation_matrix()</text>
<text text-anchor="start" x="181" y="-580.5" font-family="Helvetica,sans-Serif" font-size="10.00">+ rotate_and_translate()</text>
<text text-anchor="start" x="181" y="-569.5" font-family="Helvetica,sans-Serif" font-size="10.00">+ rotation_matrix()</text>
<text text-anchor="start" x="181" y="-558.5" font-family="Helvetica,sans-Serif" font-size="10.00">+ rotate_and_translate()</text>
</a>
</g>
</g>
<!-- Node5&#45;&gt;Node3 -->
<g id="edge4" class="edge">
<title>Node5&#45;&gt;Node3</title>
<path fill="none" stroke="orange" d="M216.42,-541.16C213.28,-528.62 210.12,-515.97 207.01,-503.52"/>
<polygon fill="orange" stroke="orange" points="213.1,-542.33 218.92,-551.18 219.89,-540.63 213.1,-542.33"/>
<text text-anchor="middle" x="248.5" y="-525" font-family="Helvetica,sans-Serif" font-size="10.00"> &lt; double, 3 &gt;</text>
</g>
<!-- Node6 -->
<g id="node6" class="node">
<title>Node6</title>
<g id="a_node6"><a xlink:title=" ">
<polygon fill="none" stroke="#bfbfbf" points="233,-865.5 233,-922.5 271,-922.5 271,-865.5 233,-865.5"/>
<text text-anchor="middle" x="252" y="-910.5" font-family="Helvetica,sans-Serif" font-size="10.00">type</text>
<polyline fill="none" stroke="#bfbfbf" points="233,-903.5 271,-903.5 "/>
<text text-anchor="middle" x="252" y="-891.5" font-family="Helvetica,sans-Serif" font-size="10.00"> </text>
<polyline fill="none" stroke="#bfbfbf" points="233,-884.5 271,-884.5 "/>
<text text-anchor="middle" x="252" y="-872.5" font-family="Helvetica,sans-Serif" font-size="10.00"> </text>
</a>
</g>
</g>
<!-- Node6&#45;&gt;Node5 -->
<g id="edge5" class="edge">
<title>Node6&#45;&gt;Node5</title>
<path fill="none" stroke="#404040" d="M252,-865.45C252,-855.4 252,-843.23 252,-830.02"/>
<polygon fill="none" stroke="#404040" points="252,-829.61 248,-823.61 252,-817.61 256,-823.61 252,-829.61"/>
<text text-anchor="middle" x="269" y="-839" font-family="Helvetica,sans-Serif" font-size="10.00"> &#45;value</text>
</g>
</g>
</svg>
