<?xml version="1.0" encoding="UTF-8" standalone="no"?>
<!DOCTYPE svg PUBLIC "-//W3C//DTD SVG 1.1//EN"
 "http://www.w3.org/Graphics/SVG/1.1/DTD/svg11.dtd">
<!-- Generated by graphviz version 2.43.0 (0)
 -->
<!-- Title: Menu_cub::Print_to_gnuplot Pages: 1 -->
<svg width="850pt" height="236pt"
 viewBox="0.00 0.00 850.00 236.00" xmlns="http://www.w3.org/2000/svg" xmlns:xlink="http://www.w3.org/1999/xlink">
<g id="graph0" class="graph" transform="scale(1 1) rotate(0) translate(4 232)">
<title>Menu_cub::Print_to_gnuplot</title>
<!-- Node1 -->
<g id="node1" class="node">
<title>Node1</title>
<g id="a_node1"><a xlink:title="Wyswietla graniastoslup w GNUplocie Argumenty:">
<polygon fill="#bfbfbf" stroke="black" points="0,-115.5 0,-145.5 110,-145.5 110,-115.5 0,-115.5"/>
<text text-anchor="start" x="8" y="-133.5" font-family="Helvetica,sans-Serif" font-size="10.00">Menu_cub::Print_to</text>
<text text-anchor="middle" x="55" y="-122.5" font-family="Helvetica,sans-Serif" font-size="10.00">_gnuplot</text>
</a>
</g>
</g>
<!-- Node2 -->
<g id="node2" class="node">
<title>Node2</title>
<g id="a_node2"><a xlink:href="class_pz_g_1_1_lacze_do_g_n_u_plota.html#aa815ce8ec16e12fc246cf422e562869e" target="_top" xlink:title="Dodaje nazwę pliku.">
<polygon fill="none" stroke="black" points="146,-197.5 146,-227.5 276,-227.5 276,-197.5 146,-197.5"/>
<text text-anchor="start" x="154" y="-215.5" font-family="Helvetica,sans-Serif" font-size="10.00">PzG::LaczeDoGNUPlota</text>
<text text-anchor="middle" x="211" y="-204.5" font-family="Helvetica,sans-Serif" font-size="10.00">::DodajNazwePliku</text>
</a>
</g>
</g>
<!-- Node1&#45;&gt;Node2 -->
<g id="edge1" class="edge">
<title>Node1&#45;&gt;Node2</title>
<path fill="none" stroke="midnightblue" d="M80.9,-145.65C98.79,-156.35 123.6,-170.81 146,-182.5 152.73,-186.01 159.95,-189.58 167.02,-192.97"/>
<polygon fill="midnightblue" stroke="midnightblue" points="165.98,-196.35 176.52,-197.46 168.97,-190.02 165.98,-196.35"/>
</g>
<!-- Node4 -->
<g id="node4" class="node">
<title>Node4</title>
<g id="a_node4"><a xlink:href="class_prism.html#a764c6940e4fb65303981e8b877b28561" target="_top" xlink:title="Metoda wypisania odpowiednich wierzcholkow do pliku zgodnie z zaproponowanym sposobem zadaniu dron">
<polygon fill="none" stroke="black" points="337.5,-140 337.5,-159 462.5,-159 462.5,-140 337.5,-140"/>
<text text-anchor="middle" x="400" y="-147" font-family="Helvetica,sans-Serif" font-size="10.00">Prism::print_prism_3D</text>
</a>
</g>
</g>
<!-- Node1&#45;&gt;Node4 -->
<g id="edge3" class="edge">
<title>Node1&#45;&gt;Node4</title>
<path fill="none" stroke="midnightblue" d="M110.44,-143.89C122.11,-146.22 134.41,-148.29 146,-149.5 206.9,-155.86 276.49,-155.29 327.25,-153.46"/>
<polygon fill="midnightblue" stroke="midnightblue" points="327.61,-156.95 337.47,-153.06 327.34,-149.95 327.61,-156.95"/>
</g>
<!-- Node6 -->
<g id="node6" class="node">
<title>Node6</title>
<g id="a_node6"><a xlink:href="class_menu__cub.html#a68b8aabf8a980c77409fb40b7ee68eb0" target="_top" xlink:title=" ">
<polygon fill="none" stroke="black" points="147,-121 147,-140 275,-140 275,-121 147,-121"/>
<text text-anchor="middle" x="211" y="-128" font-family="Helvetica,sans-Serif" font-size="10.00">Menu_cub::PrismToFile</text>
</a>
</g>
</g>
<!-- Node1&#45;&gt;Node6 -->
<g id="edge5" class="edge">
<title>Node1&#45;&gt;Node6</title>
<path fill="none" stroke="midnightblue" d="M110.29,-130.5C118.91,-130.5 127.95,-130.5 136.92,-130.5"/>
<polygon fill="midnightblue" stroke="midnightblue" points="136.98,-134 146.98,-130.5 136.98,-127 136.98,-134"/>
</g>
<!-- Node7 -->
<g id="node7" class="node">
<title>Node7</title>
<g id="a_node7"><a xlink:href="class_pz_g_1_1_lacze_do_g_n_u_plota.html#a065f5b8402737cc62b0ad4f66d028335" target="_top" xlink:title="Generuje polecenie rysowania i przesyła je do gnuplota.">
<polygon fill="none" stroke="black" points="146,-71.5 146,-101.5 276,-101.5 276,-71.5 146,-71.5"/>
<text text-anchor="start" x="154" y="-89.5" font-family="Helvetica,sans-Serif" font-size="10.00">PzG::LaczeDoGNUPlota</text>
<text text-anchor="middle" x="211" y="-78.5" font-family="Helvetica,sans-Serif" font-size="10.00">::Rysuj</text>
</a>
</g>
</g>
<!-- Node1&#45;&gt;Node7 -->
<g id="edge7" class="edge">
<title>Node1&#45;&gt;Node7</title>
<path fill="none" stroke="midnightblue" d="M108.57,-115.48C121.14,-111.89 134.67,-108.02 147.63,-104.32"/>
<polygon fill="midnightblue" stroke="midnightblue" points="148.75,-107.64 157.41,-101.53 146.83,-100.91 148.75,-107.64"/>
</g>
<!-- Node14 -->
<g id="node14" class="node">
<title>Node14</title>
<g id="a_node14"><a xlink:href="class_pz_g_1_1_lacze_do_g_n_u_plota.html#ae92c65357bf682478cc68f77885b61d8" target="_top" xlink:title="Zmienia tryb rysowania.">
<polygon fill="none" stroke="black" points="146,-22.5 146,-52.5 276,-52.5 276,-22.5 146,-22.5"/>
<text text-anchor="start" x="154" y="-40.5" font-family="Helvetica,sans-Serif" font-size="10.00">PzG::LaczeDoGNUPlota</text>
<text text-anchor="middle" x="211" y="-29.5" font-family="Helvetica,sans-Serif" font-size="10.00">::ZmienTrybRys</text>
</a>
</g>
</g>
<!-- Node1&#45;&gt;Node14 -->
<g id="edge14" class="edge">
<title>Node1&#45;&gt;Node14</title>
<path fill="none" stroke="midnightblue" d="M72.53,-115.4C89.83,-100.2 118.28,-76.88 146,-61.5 149.05,-59.81 152.24,-58.19 155.51,-56.65"/>
<polygon fill="midnightblue" stroke="midnightblue" points="157.11,-59.77 164.83,-52.51 154.27,-53.37 157.11,-59.77"/>
</g>
<!-- Node3 -->
<g id="node3" class="node">
<title>Node3</title>
<g id="a_node3"><a xlink:href="namespace_pz_g.html#ae1aad0c681853d7e47da4cdfccefc102" target="_top" xlink:title="Funkcja pomocnicza, sprawdza czy plik o podanej nazwie jest na dysku.">
<polygon fill="none" stroke="black" points="352.5,-203 352.5,-222 447.5,-222 447.5,-203 352.5,-203"/>
<text text-anchor="middle" x="400" y="-210" font-family="Helvetica,sans-Serif" font-size="10.00">PzG::CzyJestPlik</text>
</a>
</g>
</g>
<!-- Node2&#45;&gt;Node3 -->
<g id="edge2" class="edge">
<title>Node2&#45;&gt;Node3</title>
<path fill="none" stroke="midnightblue" d="M276.09,-212.5C297.63,-212.5 321.48,-212.5 342.39,-212.5"/>
<polygon fill="midnightblue" stroke="midnightblue" points="342.4,-216 352.4,-212.5 342.4,-209 342.4,-216"/>
</g>
<!-- Node5 -->
<g id="node5" class="node">
<title>Node5</title>
<g id="a_node5"><a xlink:href="class_vector.html#ab2bb1182cee2389eda163fb7b767f36d" target="_top" xlink:title="Zwraca wektor do tablicy o rozmiarze SIZE &#160;&#160;Argumenty:">
<polygon fill="none" stroke="black" points="550.5,-140 550.5,-159 642.5,-159 642.5,-140 550.5,-140"/>
<text text-anchor="middle" x="596.5" y="-147" font-family="Helvetica,sans-Serif" font-size="10.00">Vector::get_vec</text>
</a>
</g>
</g>
<!-- Node4&#45;&gt;Node5 -->
<g id="edge4" class="edge">
<title>Node4&#45;&gt;Node5</title>
<path fill="none" stroke="midnightblue" d="M462.54,-149.5C487.47,-149.5 516.04,-149.5 540.28,-149.5"/>
<polygon fill="midnightblue" stroke="midnightblue" points="540.39,-153 550.39,-149.5 540.39,-146 540.39,-153"/>
</g>
<!-- Node6&#45;&gt;Node4 -->
<g id="edge6" class="edge">
<title>Node6&#45;&gt;Node4</title>
<path fill="none" stroke="midnightblue" d="M275.05,-136.91C291.89,-138.62 310.21,-140.48 327.47,-142.23"/>
<polygon fill="midnightblue" stroke="midnightblue" points="327.19,-145.72 337.49,-143.25 327.9,-138.76 327.19,-145.72"/>
</g>
<!-- Node8 -->
<g id="node8" class="node">
<title>Node8</title>
<g id="a_node8"><a xlink:href="namespace_pz_g.html#aa010184f31b26bb561b42f22438b821e" target="_top" xlink:title="Funkcja pomocnicza, dopisuje do polecenia wpisy związane z rysowaniem z pliku.">
<polygon fill="none" stroke="black" points="317,-99 317,-118 483,-118 483,-99 317,-99"/>
<text text-anchor="middle" x="400" y="-106" font-family="Helvetica,sans-Serif" font-size="10.00">PzG::DopiszRysowanieZPlikow</text>
</a>
</g>
</g>
<!-- Node7&#45;&gt;Node8 -->
<g id="edge8" class="edge">
<title>Node7&#45;&gt;Node8</title>
<path fill="none" stroke="midnightblue" d="M276.09,-94.04C286.45,-95.26 297.35,-96.54 308.2,-97.82"/>
<polygon fill="midnightblue" stroke="midnightblue" points="307.79,-101.29 318.13,-98.99 308.61,-94.34 307.79,-101.29"/>
</g>
<!-- Node9 -->
<g id="node9" class="node">
<title>Node9</title>
<g id="a_node9"><a xlink:href="namespace_pz_g.html#a7227cb39c785b1c746b6bb5515c0b781" target="_top" xlink:title="Dodaje do listy rysowanych punktów, punkty o różnych rozmiarach.">
<polygon fill="none" stroke="black" points="312,-49.5 312,-79.5 488,-79.5 488,-49.5 312,-49.5"/>
<text text-anchor="start" x="320" y="-67.5" font-family="Helvetica,sans-Serif" font-size="10.00">PzG::DopiszRysowanieZRoznych</text>
<text text-anchor="middle" x="400" y="-56.5" font-family="Helvetica,sans-Serif" font-size="10.00">Punktow</text>
</a>
</g>
</g>
<!-- Node7&#45;&gt;Node9 -->
<g id="edge9" class="edge">
<title>Node7&#45;&gt;Node9</title>
<path fill="none" stroke="midnightblue" d="M276.09,-78.96C284.38,-77.99 293,-76.97 301.67,-75.95"/>
<polygon fill="midnightblue" stroke="midnightblue" points="302.33,-79.4 311.85,-74.75 301.51,-72.45 302.33,-79.4"/>
</g>
<!-- Node10 -->
<g id="node10" class="node">
<title>Node10</title>
<g id="a_node10"><a xlink:href="namespace_pz_g.html#a169c311f0e0b6ffadcd44e91e749f72d" target="_top" xlink:title="Wczytuje z pliku listę punktów.">
<polygon fill="none" stroke="black" points="524,-49.5 524,-79.5 669,-79.5 669,-49.5 524,-49.5"/>
<text text-anchor="start" x="532" y="-67.5" font-family="Helvetica,sans-Serif" font-size="10.00">PzG::WczytajListeRoznych</text>
<text text-anchor="middle" x="596.5" y="-56.5" font-family="Helvetica,sans-Serif" font-size="10.00">Punktow</text>
</a>
</g>
</g>
<!-- Node9&#45;&gt;Node10 -->
<g id="edge10" class="edge">
<title>Node9&#45;&gt;Node10</title>
<path fill="none" stroke="midnightblue" d="M488.01,-64.5C496.5,-64.5 505.09,-64.5 513.52,-64.5"/>
<polygon fill="midnightblue" stroke="midnightblue" points="513.71,-68 523.71,-64.5 513.71,-61 513.71,-68"/>
</g>
<!-- Node11 -->
<g id="node11" class="node">
<title>Node11</title>
<g id="a_node11"><a xlink:href="class_pz_g_1_1_atrybuty_rysowania.html#ab068535b4d2f755c394557d1da72a4eb" target="_top" xlink:title="Zmienia kolor rysowania.">
<polygon fill="none" stroke="black" points="705,-98.5 705,-128.5 842,-128.5 842,-98.5 705,-98.5"/>
<text text-anchor="start" x="713" y="-116.5" font-family="Helvetica,sans-Serif" font-size="10.00">PzG::AtrybutyRysowania</text>
<text text-anchor="middle" x="773.5" y="-105.5" font-family="Helvetica,sans-Serif" font-size="10.00">::ZmienKolor</text>
</a>
</g>
</g>
<!-- Node10&#45;&gt;Node11 -->
<g id="edge11" class="edge">
<title>Node10&#45;&gt;Node11</title>
<path fill="none" stroke="midnightblue" d="M651.43,-79.6C669.65,-84.7 690.15,-90.44 709.04,-95.73"/>
<polygon fill="midnightblue" stroke="midnightblue" points="708.17,-99.12 718.74,-98.45 710.06,-92.38 708.17,-99.12"/>
</g>
<!-- Node12 -->
<g id="node12" class="node">
<title>Node12</title>
<g id="a_node12"><a xlink:href="class_pz_g_1_1_atrybuty_rysowania.html#af4b140eb03bc10b6fd816fad63f8372e" target="_top" xlink:title="Zmienia rozmiar rysowania.">
<polygon fill="none" stroke="black" points="705,-49.5 705,-79.5 842,-79.5 842,-49.5 705,-49.5"/>
<text text-anchor="start" x="713" y="-67.5" font-family="Helvetica,sans-Serif" font-size="10.00">PzG::AtrybutyRysowania</text>
<text text-anchor="middle" x="773.5" y="-56.5" font-family="Helvetica,sans-Serif" font-size="10.00">::ZmienRozmiar</text>
</a>
</g>
</g>
<!-- Node10&#45;&gt;Node12 -->
<g id="edge12" class="edge">
<title>Node10&#45;&gt;Node12</title>
<path fill="none" stroke="midnightblue" d="M669.18,-64.5C677.57,-64.5 686.16,-64.5 694.63,-64.5"/>
<polygon fill="midnightblue" stroke="midnightblue" points="694.87,-68 704.87,-64.5 694.87,-61 694.87,-68"/>
</g>
<!-- Node13 -->
<g id="node13" class="node">
<title>Node13</title>
<g id="a_node13"><a xlink:href="class_pz_g_1_1_atrybuty_rysowania.html#a2ac97706124b14072715ecf3f07e82b4" target="_top" xlink:title="Zmienia styl rysowania.">
<polygon fill="none" stroke="black" points="705,-0.5 705,-30.5 842,-30.5 842,-0.5 705,-0.5"/>
<text text-anchor="start" x="713" y="-18.5" font-family="Helvetica,sans-Serif" font-size="10.00">PzG::AtrybutyRysowania</text>
<text text-anchor="middle" x="773.5" y="-7.5" font-family="Helvetica,sans-Serif" font-size="10.00">::ZmienStyl</text>
</a>
</g>
</g>
<!-- Node10&#45;&gt;Node13 -->
<g id="edge13" class="edge">
<title>Node10&#45;&gt;Node13</title>
<path fill="none" stroke="midnightblue" d="M651.43,-49.4C669.65,-44.3 690.15,-38.56 709.04,-33.27"/>
<polygon fill="midnightblue" stroke="midnightblue" points="710.06,-36.62 718.74,-30.55 708.17,-29.88 710.06,-36.62"/>
</g>
</g>
</svg>
