<?xml version="1.0" encoding="UTF-8" standalone="no"?>
<!DOCTYPE svg PUBLIC "-//W3C//DTD SVG 1.1//EN"
 "http://www.w3.org/Graphics/SVG/1.1/DTD/svg11.dtd">
<!-- Generated by graphviz version 2.43.0 (0)
 -->
<!-- Title: Drone::Drone_translation_animation Pages: 1 -->
<svg width="1081pt" height="749pt"
 viewBox="0.00 0.00 1081.00 748.50" xmlns="http://www.w3.org/2000/svg" xmlns:xlink="http://www.w3.org/1999/xlink">
<g id="graph0" class="graph" transform="scale(1 1) rotate(0) translate(4 744.5)">
<title>Drone::Drone_translation_animation</title>
<!-- Node1 -->
<g id="node1" class="node">
<title>Node1</title>
<g id="a_node1"><a xlink:title="Metoda animujaca translacje drona i wyrysowujaca calosc w gnuplocie.">
<polygon fill="#bfbfbf" stroke="black" points="0,-289.5 0,-319.5 139,-319.5 139,-289.5 0,-289.5"/>
<text text-anchor="start" x="8" y="-307.5" font-family="Helvetica,sans-Serif" font-size="10.00">Drone::Drone_translation</text>
<text text-anchor="middle" x="69.5" y="-296.5" font-family="Helvetica,sans-Serif" font-size="10.00">_animation</text>
</a>
</g>
</g>
<!-- Node2 -->
<g id="node2" class="node">
<title>Node2</title>
<g id="a_node2"><a xlink:href="class_drone.html#af03af60a9b92e4191a7e66b5c20b52bb" target="_top" xlink:title="Metoda zamieniajaca drona na tego z pliku sample.">
<polygon fill="none" stroke="black" points="185.5,-333.5 185.5,-363.5 307.5,-363.5 307.5,-333.5 185.5,-333.5"/>
<text text-anchor="start" x="193.5" y="-351.5" font-family="Helvetica,sans-Serif" font-size="10.00">Drone::Drone_change</text>
<text text-anchor="middle" x="246.5" y="-340.5" font-family="Helvetica,sans-Serif" font-size="10.00">_to_sample</text>
</a>
</g>
</g>
<!-- Node1&#45;&gt;Node2 -->
<g id="edge1" class="edge">
<title>Node1&#45;&gt;Node2</title>
<path fill="none" stroke="midnightblue" d="M130.24,-319.52C144.94,-323.22 160.81,-327.21 175.93,-331.01"/>
<polygon fill="midnightblue" stroke="midnightblue" points="175.19,-334.43 185.74,-333.47 176.89,-327.64 175.19,-334.43"/>
</g>
<!-- Node27 -->
<g id="node27" class="node">
<title>Node27</title>
<g id="a_node27"><a xlink:href="class_drone.html#a6662bd8203e8c9a0721c457b3612a7c1" target="_top" xlink:title="Metoda uzywana przy konstruowania drona przesuwa drona w ten sposob, ze Vector3D centre prostopadlosc...">
<polygon fill="none" stroke="black" points="378.5,-289.5 378.5,-319.5 482.5,-319.5 482.5,-289.5 378.5,-289.5"/>
<text text-anchor="start" x="386.5" y="-307.5" font-family="Helvetica,sans-Serif" font-size="10.00">Drone::translation</text>
<text text-anchor="middle" x="430.5" y="-296.5" font-family="Helvetica,sans-Serif" font-size="10.00">_to_pos</text>
</a>
</g>
</g>
<!-- Node1&#45;&gt;Node27 -->
<g id="edge66" class="edge">
<title>Node1&#45;&gt;Node27</title>
<path fill="none" stroke="midnightblue" d="M139.29,-304.5C205.45,-304.5 304.51,-304.5 368.07,-304.5"/>
<polygon fill="midnightblue" stroke="midnightblue" points="368.34,-308 378.34,-304.5 368.34,-301 368.34,-308"/>
</g>
<!-- Node30 -->
<g id="node30" class="node">
<title>Node30</title>
<g id="a_node30"><a xlink:href="class_drone.html#ac120bf483eb7684725fa5b8d23856834" target="_top" xlink:title="Metoda przygotowujaca sciezke drona z uzyciem std::vector&lt;&gt;">
<polygon fill="none" stroke="black" points="176.5,-257 176.5,-276 316.5,-276 316.5,-257 176.5,-257"/>
<text text-anchor="middle" x="246.5" y="-264" font-family="Helvetica,sans-Serif" font-size="10.00">Drone::Drone_make_path</text>
</a>
</g>
</g>
<!-- Node1&#45;&gt;Node30 -->
<g id="edge42" class="edge">
<title>Node1&#45;&gt;Node30</title>
<path fill="none" stroke="midnightblue" d="M139.16,-289.59C156.61,-285.8 175.1,-281.79 191.69,-278.18"/>
<polygon fill="midnightblue" stroke="midnightblue" points="192.72,-281.54 201.75,-276 191.23,-274.7 192.72,-281.54"/>
</g>
<!-- Node31 -->
<g id="node31" class="node">
<title>Node31</title>
<g id="a_node31"><a xlink:href="class_drone.html#a9d09f6cd9ed8d60dfd1979b31101f400" target="_top" xlink:title="Metoda zapisujaca sciezke do pliku oraz do lacza.">
<polygon fill="none" stroke="black" points="175,-148 175,-167 318,-167 318,-148 175,-148"/>
<text text-anchor="middle" x="246.5" y="-155" font-family="Helvetica,sans-Serif" font-size="10.00">Drone::Drone_path_to_file</text>
</a>
</g>
</g>
<!-- Node1&#45;&gt;Node31 -->
<g id="edge43" class="edge">
<title>Node1&#45;&gt;Node31</title>
<path fill="none" stroke="midnightblue" d="M88.57,-289.32C121.74,-261.46 192.05,-202.39 226.15,-173.75"/>
<polygon fill="midnightblue" stroke="midnightblue" points="228.59,-176.27 234,-167.16 224.09,-170.91 228.59,-176.27"/>
</g>
<!-- Node34 -->
<g id="node34" class="node">
<title>Node34</title>
<g id="a_node34"><a xlink:href="class_pz_g_1_1_lacze_do_g_n_u_plota.html#a065f5b8402737cc62b0ad4f66d028335" target="_top" xlink:title="Generuje polecenie rysowania i przesyła je do gnuplota.">
<polygon fill="none" stroke="black" points="365.5,-93.5 365.5,-123.5 495.5,-123.5 495.5,-93.5 365.5,-93.5"/>
<text text-anchor="start" x="373.5" y="-111.5" font-family="Helvetica,sans-Serif" font-size="10.00">PzG::LaczeDoGNUPlota</text>
<text text-anchor="middle" x="430.5" y="-100.5" font-family="Helvetica,sans-Serif" font-size="10.00">::Rysuj</text>
</a>
</g>
</g>
<!-- Node1&#45;&gt;Node34 -->
<g id="edge65" class="edge">
<title>Node1&#45;&gt;Node34</title>
<path fill="none" stroke="midnightblue" d="M75.05,-289.36C86.02,-255.73 117.41,-174.86 175,-138.5 228.54,-104.7 301.22,-99.21 355.2,-101"/>
<polygon fill="midnightblue" stroke="midnightblue" points="355.25,-104.5 365.39,-101.43 355.55,-97.51 355.25,-104.5"/>
</g>
<!-- Node41 -->
<g id="node41" class="node">
<title>Node41</title>
<g id="a_node41"><a xlink:href="class_drone.html#aae0029f50083a01fe75c7d504c2fe5b9" target="_top" xlink:title="Metoda zapisujaca parametry drona do plikow (do plikow final kazdego z elementow)">
<polygon fill="none" stroke="black" points="373,-475.5 373,-505.5 488,-505.5 488,-475.5 373,-475.5"/>
<text text-anchor="start" x="381" y="-493.5" font-family="Helvetica,sans-Serif" font-size="10.00">Drone::Print_to_files</text>
<text text-anchor="middle" x="430.5" y="-482.5" font-family="Helvetica,sans-Serif" font-size="10.00">_drone</text>
</a>
</g>
</g>
<!-- Node1&#45;&gt;Node41 -->
<g id="edge53" class="edge">
<title>Node1&#45;&gt;Node41</title>
<path fill="none" stroke="midnightblue" d="M78.16,-319.88C92.85,-347.71 127.78,-406.21 175,-435.5 232.02,-470.87 308.48,-483.71 362.66,-488.26"/>
<polygon fill="midnightblue" stroke="midnightblue" points="362.61,-491.77 372.85,-489.04 363.15,-484.79 362.61,-491.77"/>
</g>
<!-- Node47 -->
<g id="node47" class="node">
<title>Node47</title>
<g id="a_node47"><a xlink:href="class_drone.html#aedb04b80609b22ff4eb4a957bc149a48" target="_top" xlink:title="Metoda animujaca obrot rotorow i zapisujaca to w plikach. Metoda sluzy jako metoda pomocnicza,...">
<polygon fill="none" stroke="black" points="183,-395.5 183,-425.5 310,-425.5 310,-395.5 183,-395.5"/>
<text text-anchor="start" x="191" y="-413.5" font-family="Helvetica,sans-Serif" font-size="10.00">Drone::Rotors_rotation</text>
<text text-anchor="middle" x="246.5" y="-402.5" font-family="Helvetica,sans-Serif" font-size="10.00">_animation</text>
</a>
</g>
</g>
<!-- Node1&#45;&gt;Node47 -->
<g id="edge61" class="edge">
<title>Node1&#45;&gt;Node47</title>
<path fill="none" stroke="midnightblue" d="M92.11,-319.69C112.96,-334.12 145.61,-356.14 175,-373.5 184.93,-379.37 195.88,-385.34 206.13,-390.73"/>
<polygon fill="midnightblue" stroke="midnightblue" points="204.8,-393.98 215.29,-395.49 208.03,-387.77 204.8,-393.98"/>
</g>
<!-- Node3 -->
<g id="node3" class="node">
<title>Node3</title>
<g id="a_node3"><a xlink:href="class_drone.html#ada6f4e93f4a63cbe1d6fbebf329efe62" target="_top" xlink:title="Metoda wczytywania odpowiednich wierzcholkow z pliku wzorcowego zgodnie z zaproponowanym sposobem w z...">
<polygon fill="none" stroke="black" points="354,-595 354,-614 507,-614 507,-595 354,-595"/>
<text text-anchor="middle" x="430.5" y="-602" font-family="Helvetica,sans-Serif" font-size="10.00">Drone::Drone_From_Sample</text>
</a>
</g>
</g>
<!-- Node2&#45;&gt;Node3 -->
<g id="edge2" class="edge">
<title>Node2&#45;&gt;Node3</title>
<path fill="none" stroke="midnightblue" d="M288.5,-363.57C299.4,-369.3 310.27,-376.83 318,-386.5 355.16,-433 326.1,-462.92 354,-515.5 368.94,-543.65 394.01,-570.8 411.14,-587.56"/>
<polygon fill="midnightblue" stroke="midnightblue" points="409.18,-590.53 418.82,-594.91 414.01,-585.47 409.18,-590.53"/>
</g>
<!-- Node12 -->
<g id="node12" class="node">
<title>Node12</title>
<g id="a_node12"><a xlink:href="class_drone.html#ad42bc54902df967b94717617aca1a974" target="_top" xlink:title="Metoda obracajaca dron o zadany kat w 3D wokol srodka figury">
<polygon fill="none" stroke="black" points="354.5,-339 354.5,-358 506.5,-358 506.5,-339 354.5,-339"/>
<text text-anchor="middle" x="430.5" y="-346" font-family="Helvetica,sans-Serif" font-size="10.00">Drone::rotation_around_cen</text>
</a>
</g>
</g>
<!-- Node2&#45;&gt;Node12 -->
<g id="edge19" class="edge">
<title>Node2&#45;&gt;Node12</title>
<path fill="none" stroke="midnightblue" d="M307.6,-348.5C319.25,-348.5 331.66,-348.5 343.94,-348.5"/>
<polygon fill="midnightblue" stroke="midnightblue" points="344.21,-352 354.21,-348.5 344.21,-345 344.21,-352"/>
</g>
<!-- Node23 -->
<g id="node23" class="node">
<title>Node23</title>
<g id="a_node23"><a xlink:href="class_matrix.html#a4161a82fb401e474052c21b25a06a5ba" target="_top" xlink:title=" ">
<polygon fill="none" stroke="black" points="365.5,-377 365.5,-396 495.5,-396 495.5,-377 365.5,-377"/>
<text text-anchor="middle" x="430.5" y="-384" font-family="Helvetica,sans-Serif" font-size="10.00">Matrix::rotation_matrix</text>
</a>
</g>
</g>
<!-- Node2&#45;&gt;Node23 -->
<g id="edge33" class="edge">
<title>Node2&#45;&gt;Node23</title>
<path fill="none" stroke="midnightblue" d="M307.6,-361.05C328.95,-365.51 352.88,-370.5 373.85,-374.88"/>
<polygon fill="midnightblue" stroke="midnightblue" points="373.38,-378.36 383.88,-376.98 374.81,-371.51 373.38,-378.36"/>
</g>
<!-- Node24 -->
<g id="node24" class="node">
<title>Node24</title>
<g id="a_node24"><a xlink:href="class_drone.html#a55c483c4e4cf0ec91d5bda5448417f08" target="_top" xlink:title="Metoda ustawiajaca drone_pos">
<polygon fill="none" stroke="black" points="369.5,-222 369.5,-241 491.5,-241 491.5,-222 369.5,-222"/>
<text text-anchor="middle" x="430.5" y="-229" font-family="Helvetica,sans-Serif" font-size="10.00">Drone::set_drone_pos</text>
</a>
</g>
</g>
<!-- Node2&#45;&gt;Node24 -->
<g id="edge34" class="edge">
<title>Node2&#45;&gt;Node24</title>
<path fill="none" stroke="midnightblue" d="M270.92,-333.44C305.82,-311.01 371.1,-269.04 406.03,-246.59"/>
<polygon fill="midnightblue" stroke="midnightblue" points="408.1,-249.42 414.62,-241.06 404.32,-243.53 408.1,-249.42"/>
</g>
<!-- Node2&#45;&gt;Node27 -->
<g id="edge37" class="edge">
<title>Node2&#45;&gt;Node27</title>
<path fill="none" stroke="midnightblue" d="M307.6,-333.97C327.17,-329.24 348.91,-323.98 368.55,-319.24"/>
<polygon fill="midnightblue" stroke="midnightblue" points="369.4,-322.63 378.3,-316.88 367.76,-315.83 369.4,-322.63"/>
</g>
<!-- Node4 -->
<g id="node4" class="node">
<title>Node4</title>
<g id="a_node4"><a xlink:href="class_cuboid.html#a773f92fecdf9686b951cf5736c83f318" target="_top" xlink:title="Metoda wczytywania odpowiednich wierzcholkow z pliku wzorcowego zgodnie z zaproponowanym sposobem zad...">
<polygon fill="none" stroke="black" points="571,-671.5 571,-701.5 691,-701.5 691,-671.5 571,-671.5"/>
<text text-anchor="start" x="579" y="-689.5" font-family="Helvetica,sans-Serif" font-size="10.00">Cuboid::Cuboid_From</text>
<text text-anchor="middle" x="631" y="-678.5" font-family="Helvetica,sans-Serif" font-size="10.00">_Sample</text>
</a>
</g>
</g>
<!-- Node3&#45;&gt;Node4 -->
<g id="edge3" class="edge">
<title>Node3&#45;&gt;Node4</title>
<path fill="none" stroke="midnightblue" d="M450.57,-614.14C472.56,-625.07 509.93,-643.13 543,-656.5 552.77,-660.45 563.27,-664.35 573.49,-667.97"/>
<polygon fill="midnightblue" stroke="midnightblue" points="572.57,-671.36 583.16,-671.35 574.87,-664.75 572.57,-671.36"/>
</g>
<!-- Node9 -->
<g id="node9" class="node">
<title>Node9</title>
<g id="a_node9"><a xlink:href="class_drone.html#addf8532ee98ca800a64a78f3808fce98" target="_top" xlink:title="Metoda zwracajaca nazwy plikow do zapisu dla drona.">
<polygon fill="none" stroke="black" points="570.5,-721 570.5,-740 691.5,-740 691.5,-721 570.5,-721"/>
<text text-anchor="middle" x="631" y="-728" font-family="Helvetica,sans-Serif" font-size="10.00">Drone::get_filenames</text>
</a>
</g>
</g>
<!-- Node3&#45;&gt;Node9 -->
<g id="edge8" class="edge">
<title>Node3&#45;&gt;Node9</title>
<path fill="none" stroke="midnightblue" d="M438.62,-614.32C454.65,-635.66 495.89,-686.38 543,-711.5 548.55,-714.46 554.53,-716.96 560.67,-719.07"/>
<polygon fill="midnightblue" stroke="midnightblue" points="559.82,-722.47 570.41,-722.07 561.89,-715.78 559.82,-722.47"/>
</g>
<!-- Node10 -->
<g id="node10" class="node">
<title>Node10</title>
<g id="a_node10"><a xlink:href="class_prism.html#a5e0a2234e9ebe3b51146c0ddc42e8b48" target="_top" xlink:title="Metoda wczytywania odpowiednich wierzcholkow z pliku wzorcowego zgodnie z zaproponowanym sposobem zad...">
<polygon fill="none" stroke="black" points="556,-595 556,-614 706,-614 706,-595 556,-595"/>
<text text-anchor="middle" x="631" y="-602" font-family="Helvetica,sans-Serif" font-size="10.00">Prism::Prism_From_Sample</text>
</a>
</g>
</g>
<!-- Node3&#45;&gt;Node10 -->
<g id="edge11" class="edge">
<title>Node3&#45;&gt;Node10</title>
<path fill="none" stroke="midnightblue" d="M507.11,-604.5C519.73,-604.5 532.9,-604.5 545.72,-604.5"/>
<polygon fill="midnightblue" stroke="midnightblue" points="545.91,-608 555.91,-604.5 545.91,-601 545.91,-608"/>
</g>
<!-- Node11 -->
<g id="node11" class="node">
<title>Node11</title>
<g id="a_node11"><a xlink:href="class_drone.html#add09c27034d4ff229cc22b58c443c0f4" target="_top" xlink:title="Metoda ustawiajaca nazwy plikow do zapisu dla drona.">
<polygon fill="none" stroke="black" points="565,-557 565,-576 697,-576 697,-557 565,-557"/>
<text text-anchor="middle" x="631" y="-564" font-family="Helvetica,sans-Serif" font-size="10.00">Drone::setup_filenames</text>
</a>
</g>
</g>
<!-- Node3&#45;&gt;Node11 -->
<g id="edge16" class="edge">
<title>Node3&#45;&gt;Node11</title>
<path fill="none" stroke="midnightblue" d="M481.33,-594.96C508.23,-589.81 541.64,-583.42 569.96,-577.99"/>
<polygon fill="midnightblue" stroke="midnightblue" points="570.98,-581.36 580.15,-576.04 569.67,-574.49 570.98,-581.36"/>
</g>
<!-- Node5 -->
<g id="node5" class="node">
<title>Node5</title>
<g id="a_node5"><a xlink:href="class_block.html#aeef4dd3716afaea42688a4f96456ce27" target="_top" xlink:title="Metoda zwracajaca nazwe pliku z finalna (robocza) bryla">
<polygon fill="none" stroke="black" points="765,-655 765,-674 890,-674 890,-655 765,-655"/>
<text text-anchor="middle" x="827.5" y="-662" font-family="Helvetica,sans-Serif" font-size="10.00">Block::get_final_name</text>
</a>
</g>
</g>
<!-- Node4&#45;&gt;Node5 -->
<g id="edge4" class="edge">
<title>Node4&#45;&gt;Node5</title>
<path fill="none" stroke="midnightblue" d="M691.15,-679.81C711.22,-677.54 733.87,-674.98 754.81,-672.61"/>
<polygon fill="midnightblue" stroke="midnightblue" points="755.4,-676.07 764.94,-671.46 754.61,-669.11 755.4,-676.07"/>
</g>
<!-- Node6 -->
<g id="node6" class="node">
<title>Node6</title>
<g id="a_node6"><a xlink:href="class_block.html#aed17e0cb13b8eea50fe735ba05204da9" target="_top" xlink:title="Metoda zwracajaca nazwe pliku z wzorcowa bryla">
<polygon fill="none" stroke="black" points="757.5,-693 757.5,-712 897.5,-712 897.5,-693 757.5,-693"/>
<text text-anchor="middle" x="827.5" y="-700" font-family="Helvetica,sans-Serif" font-size="10.00">Block::get_sample_name</text>
</a>
</g>
</g>
<!-- Node4&#45;&gt;Node6 -->
<g id="edge5" class="edge">
<title>Node4&#45;&gt;Node6</title>
<path fill="none" stroke="midnightblue" d="M691.15,-691.37C708.86,-692.82 728.58,-694.45 747.37,-695.99"/>
<polygon fill="midnightblue" stroke="midnightblue" points="747.14,-699.48 757.39,-696.81 747.71,-692.51 747.14,-699.48"/>
</g>
<!-- Node7 -->
<g id="node7" class="node">
<title>Node7</title>
<g id="a_node7"><a xlink:href="class_block.html#a640a910076d8b10533a9a80d740f8f03" target="_top" xlink:title="Metoda zapisujaca do klasy nazwe pliku z finalna (robocza) bryla">
<polygon fill="none" stroke="black" points="765.5,-617 765.5,-636 889.5,-636 889.5,-617 765.5,-617"/>
<text text-anchor="middle" x="827.5" y="-624" font-family="Helvetica,sans-Serif" font-size="10.00">Block::set_final_name</text>
</a>
</g>
</g>
<!-- Node4&#45;&gt;Node7 -->
<g id="edge6" class="edge">
<title>Node4&#45;&gt;Node7</title>
<path fill="none" stroke="midnightblue" d="M675.05,-671.42C698.57,-663.37 728.26,-653.5 755,-645.5 762.79,-643.17 771.09,-640.83 779.18,-638.63"/>
<polygon fill="midnightblue" stroke="midnightblue" points="780.15,-642 788.9,-636.02 778.33,-635.23 780.15,-642"/>
</g>
<!-- Node8 -->
<g id="node8" class="node">
<title>Node8</title>
<g id="a_node8"><a xlink:href="class_block.html#acf20b290f1543e580ff1f2c6d98ff4c4" target="_top" xlink:title="Metoda zapisujaca do klasy nazwe pliku z wzorcowa bryla">
<polygon fill="none" stroke="black" points="758,-579 758,-598 897,-598 897,-579 758,-579"/>
<text text-anchor="middle" x="827.5" y="-586" font-family="Helvetica,sans-Serif" font-size="10.00">Block::set_sample_name</text>
</a>
</g>
</g>
<!-- Node4&#45;&gt;Node8 -->
<g id="edge7" class="edge">
<title>Node4&#45;&gt;Node8</title>
<path fill="none" stroke="midnightblue" d="M651.36,-671.33C674.72,-653.69 715.76,-624.81 755,-607.5 760.42,-605.11 766.21,-602.96 772.06,-601.05"/>
<polygon fill="midnightblue" stroke="midnightblue" points="773.35,-604.32 781.9,-598.05 771.31,-597.62 773.35,-604.32"/>
</g>
<!-- Node9&#45;&gt;Node5 -->
<g id="edge9" class="edge">
<title>Node9&#45;&gt;Node5</title>
<path fill="none" stroke="midnightblue" d="M691.67,-721.18C701.05,-718.67 710.46,-715.5 719,-711.5 737.36,-702.9 736.84,-692.51 755,-683.5 759.82,-681.11 764.97,-678.99 770.23,-677.13"/>
<polygon fill="midnightblue" stroke="midnightblue" points="771.31,-680.45 779.74,-674.03 769.14,-673.8 771.31,-680.45"/>
</g>
<!-- Node9&#45;&gt;Node6 -->
<g id="edge10" class="edge">
<title>Node9&#45;&gt;Node6</title>
<path fill="none" stroke="midnightblue" d="M691.68,-721.91C710.22,-719.24 730.92,-716.26 750.42,-713.45"/>
<polygon fill="midnightblue" stroke="midnightblue" points="751.09,-716.89 760.49,-712 750.1,-709.96 751.09,-716.89"/>
</g>
<!-- Node10&#45;&gt;Node5 -->
<g id="edge12" class="edge">
<title>Node10&#45;&gt;Node5</title>
<path fill="none" stroke="midnightblue" d="M672.3,-614.07C687.16,-618 704.02,-622.94 719,-628.5 735.59,-634.65 738.38,-639.43 755,-645.5 761.48,-647.87 768.4,-650.08 775.27,-652.1"/>
<polygon fill="midnightblue" stroke="midnightblue" points="774.69,-655.57 785.27,-654.91 776.59,-648.83 774.69,-655.57"/>
</g>
<!-- Node10&#45;&gt;Node6 -->
<g id="edge13" class="edge">
<title>Node10&#45;&gt;Node6</title>
<path fill="none" stroke="midnightblue" d="M646.31,-614.05C676.21,-633.94 743.51,-678.43 755,-683.5 760.42,-685.89 766.21,-688.04 772.06,-689.95"/>
<polygon fill="midnightblue" stroke="midnightblue" points="771.31,-693.38 781.9,-692.95 773.35,-686.68 771.31,-693.38"/>
</g>
<!-- Node10&#45;&gt;Node7 -->
<g id="edge14" class="edge">
<title>Node10&#45;&gt;Node7</title>
<path fill="none" stroke="midnightblue" d="M706.09,-612.88C722.11,-614.69 739.03,-616.61 754.96,-618.41"/>
<polygon fill="midnightblue" stroke="midnightblue" points="754.94,-621.93 765.27,-619.57 755.72,-614.97 754.94,-621.93"/>
</g>
<!-- Node10&#45;&gt;Node8 -->
<g id="edge15" class="edge">
<title>Node10&#45;&gt;Node8</title>
<path fill="none" stroke="midnightblue" d="M706.09,-598.41C719.6,-597.29 733.75,-596.13 747.41,-595.01"/>
<polygon fill="midnightblue" stroke="midnightblue" points="748.06,-598.46 757.74,-594.16 747.48,-591.49 748.06,-598.46"/>
</g>
<!-- Node11&#45;&gt;Node7 -->
<g id="edge17" class="edge">
<title>Node11&#45;&gt;Node7</title>
<path fill="none" stroke="midnightblue" d="M688.99,-576.08C699.16,-578.59 709.53,-581.7 719,-585.5 736.4,-592.49 737.76,-600.13 755,-607.5 760.52,-609.86 766.41,-612 772.35,-613.9"/>
<polygon fill="midnightblue" stroke="midnightblue" points="771.76,-617.38 782.34,-616.91 773.77,-610.68 771.76,-617.38"/>
</g>
<!-- Node11&#45;&gt;Node8 -->
<g id="edge18" class="edge">
<title>Node11&#45;&gt;Node8</title>
<path fill="none" stroke="midnightblue" d="M697.04,-573.86C713.22,-575.69 730.75,-577.67 747.53,-579.57"/>
<polygon fill="midnightblue" stroke="midnightblue" points="747.53,-583.09 757.86,-580.74 748.32,-576.13 747.53,-583.09"/>
</g>
<!-- Node13 -->
<g id="node13" class="node">
<title>Node13</title>
<g id="a_node13"><a xlink:href="class_prism.html#a22c5467db5d960bddbaf9a52f55c55cb" target="_top" xlink:title="Metoda obracajaca graniastoslup o zadany kat w 3D wokol srodka figury">
<polygon fill="none" stroke="black" points="556,-415 556,-434 706,-434 706,-415 556,-415"/>
<text text-anchor="middle" x="631" y="-422" font-family="Helvetica,sans-Serif" font-size="10.00">Prism::rotation_around_cen</text>
</a>
</g>
</g>
<!-- Node12&#45;&gt;Node13 -->
<g id="edge20" class="edge">
<title>Node12&#45;&gt;Node13</title>
<path fill="none" stroke="midnightblue" d="M475.43,-358.08C485.89,-360.76 496.93,-363.94 507,-367.5 541.08,-379.56 578.55,-397.67 603.07,-410.23"/>
<polygon fill="midnightblue" stroke="midnightblue" points="601.62,-413.42 612.11,-414.91 604.84,-407.2 601.62,-413.42"/>
</g>
<!-- Node17 -->
<g id="node17" class="node">
<title>Node17</title>
<g id="a_node17"><a xlink:href="class_cuboid.html#a6c697c2d9b36a14c43c7328876d5a1f0" target="_top" xlink:title="Metoda obracajaca prostopadloscian o zadany kat w 3D wokol srodka figury">
<polygon fill="none" stroke="black" points="553,-339 553,-358 709,-358 709,-339 553,-339"/>
<text text-anchor="middle" x="631" y="-346" font-family="Helvetica,sans-Serif" font-size="10.00">Cuboid::rotation_around_cen</text>
</a>
</g>
</g>
<!-- Node12&#45;&gt;Node17 -->
<g id="edge25" class="edge">
<title>Node12&#45;&gt;Node17</title>
<path fill="none" stroke="midnightblue" d="M506.54,-348.5C518.38,-348.5 530.71,-348.5 542.79,-348.5"/>
<polygon fill="midnightblue" stroke="midnightblue" points="542.87,-352 552.87,-348.5 542.87,-345 542.87,-352"/>
</g>
<!-- Node20 -->
<g id="node20" class="node">
<title>Node20</title>
<g id="a_node20"><a xlink:href="class_drone.html#aea963b77f42c204504542a3d9190d762" target="_top" xlink:title="Metoda uzywana przy konstruowania drona Ustawia rotory w ten sposob, ze srodek ich dolnej podstawy je...">
<polygon fill="none" stroke="black" points="573.5,-251.5 573.5,-281.5 688.5,-281.5 688.5,-251.5 573.5,-251.5"/>
<text text-anchor="start" x="581.5" y="-269.5" font-family="Helvetica,sans-Serif" font-size="10.00">Drone::set_rotors_in</text>
<text text-anchor="middle" x="631" y="-258.5" font-family="Helvetica,sans-Serif" font-size="10.00">_place</text>
</a>
</g>
</g>
<!-- Node12&#45;&gt;Node20 -->
<g id="edge29" class="edge">
<title>Node12&#45;&gt;Node20</title>
<path fill="none" stroke="midnightblue" d="M485.38,-338.96C492.92,-336.49 500.35,-333.39 507,-329.5 527.08,-317.75 523.12,-303.58 543,-291.5 549.37,-287.63 556.37,-284.33 563.54,-281.53"/>
<polygon fill="midnightblue" stroke="midnightblue" points="565.15,-284.68 573.39,-278.02 562.79,-278.08 565.15,-284.68"/>
</g>
<!-- Node14 -->
<g id="node14" class="node">
<title>Node14</title>
<g id="a_node14"><a xlink:href="class_matrix.html#ad6df418144dfdc3236f990dc3fb0a50a" target="_top" xlink:title=" ">
<polygon fill="none" stroke="black" points="768,-377.5 768,-407.5 887,-407.5 887,-377.5 768,-377.5"/>
<text text-anchor="start" x="776" y="-395.5" font-family="Helvetica,sans-Serif" font-size="10.00">Matrix::apply_matrix</text>
<text text-anchor="middle" x="827.5" y="-384.5" font-family="Helvetica,sans-Serif" font-size="10.00">_to_rotation</text>
</a>
</g>
</g>
<!-- Node13&#45;&gt;Node14 -->
<g id="edge21" class="edge">
<title>Node13&#45;&gt;Node14</title>
<path fill="none" stroke="midnightblue" d="M689.83,-414.99C711.19,-411.47 735.61,-407.45 757.84,-403.8"/>
<polygon fill="midnightblue" stroke="midnightblue" points="758.58,-407.22 767.88,-402.14 757.45,-400.31 758.58,-407.22"/>
</g>
<!-- Node15 -->
<g id="node15" class="node">
<title>Node15</title>
<g id="a_node15"><a xlink:href="class_prism.html#ade146d341c0468030f8c1258b7fe1041" target="_top" xlink:title="Metoda przesuwajaca graniastoslup o zadany wektor w 3D">
<polygon fill="none" stroke="black" points="953,-345 953,-364 1056,-364 1056,-345 953,-345"/>
<text text-anchor="middle" x="1004.5" y="-352" font-family="Helvetica,sans-Serif" font-size="10.00">Prism::translation</text>
</a>
</g>
</g>
<!-- Node13&#45;&gt;Node15 -->
<g id="edge22" class="edge">
<title>Node13&#45;&gt;Node15</title>
<path fill="none" stroke="midnightblue" d="M654.17,-434.08C701.33,-452.99 814.32,-490.38 900,-455.5 941.24,-438.71 975.01,-396.71 991.87,-372.49"/>
<polygon fill="midnightblue" stroke="midnightblue" points="994.8,-374.41 997.49,-364.17 988.99,-370.5 994.8,-374.41"/>
</g>
<!-- Node16 -->
<g id="node16" class="node">
<title>Node16</title>
<g id="a_node16"><a xlink:href="class_prism.html#afed2c26932d5cb152fd620d2acbfbc3e" target="_top" xlink:title="Metoda przesuwajaca graniastoslup do srodka ukladu wspolrzednych (tak, ze srodek graniastoslupa pokry...">
<polygon fill="none" stroke="black" points="762,-427 762,-446 893,-446 893,-427 762,-427"/>
<text text-anchor="middle" x="827.5" y="-434" font-family="Helvetica,sans-Serif" font-size="10.00">Prism::translation_to_O</text>
</a>
</g>
</g>
<!-- Node13&#45;&gt;Node16 -->
<g id="edge23" class="edge">
<title>Node13&#45;&gt;Node16</title>
<path fill="none" stroke="midnightblue" d="M706.09,-429.07C721,-429.99 736.69,-430.96 751.63,-431.88"/>
<polygon fill="midnightblue" stroke="midnightblue" points="751.64,-435.39 761.84,-432.51 752.07,-428.4 751.64,-435.39"/>
</g>
<!-- Node16&#45;&gt;Node15 -->
<g id="edge24" class="edge">
<title>Node16&#45;&gt;Node15</title>
<path fill="none" stroke="midnightblue" d="M872.65,-426.89C881.86,-424.31 891.38,-421.18 900,-417.5 930.17,-404.63 961.98,-384.06 982.25,-369.95"/>
<polygon fill="midnightblue" stroke="midnightblue" points="984.3,-372.79 990.44,-364.16 980.26,-367.08 984.3,-372.79"/>
</g>
<!-- Node17&#45;&gt;Node14 -->
<g id="edge26" class="edge">
<title>Node17&#45;&gt;Node14</title>
<path fill="none" stroke="midnightblue" d="M674.2,-358.05C698.58,-363.56 729.84,-370.63 757.69,-376.93"/>
<polygon fill="midnightblue" stroke="midnightblue" points="757.25,-380.42 767.78,-379.22 758.8,-373.6 757.25,-380.42"/>
</g>
<!-- Node18 -->
<g id="node18" class="node">
<title>Node18</title>
<g id="a_node18"><a xlink:href="class_cuboid.html#a3f6b1b9ea7de433af5b0d462d29f4272" target="_top" xlink:title="Metoda przesuwajaca prostopadloscian o zadany kat w 3D">
<polygon fill="none" stroke="black" points="773,-301 773,-320 882,-320 882,-301 773,-301"/>
<text text-anchor="middle" x="827.5" y="-308" font-family="Helvetica,sans-Serif" font-size="10.00">Cuboid::translation</text>
</a>
</g>
</g>
<!-- Node17&#45;&gt;Node18 -->
<g id="edge27" class="edge">
<title>Node17&#45;&gt;Node18</title>
<path fill="none" stroke="midnightblue" d="M680.83,-338.96C707.19,-333.81 739.92,-327.42 767.67,-321.99"/>
<polygon fill="midnightblue" stroke="midnightblue" points="768.51,-325.4 777.65,-320.04 767.16,-318.53 768.51,-325.4"/>
</g>
<!-- Node19 -->
<g id="node19" class="node">
<title>Node19</title>
<g id="a_node19"><a xlink:href="class_cuboid.html#a42bdce7c214e759cb6ea94d4f547a5b9" target="_top" xlink:title="Metoda przesuwajaca prostopadloscian do (0,0,0)">
<polygon fill="none" stroke="black" points="759,-339 759,-358 896,-358 896,-339 759,-339"/>
<text text-anchor="middle" x="827.5" y="-346" font-family="Helvetica,sans-Serif" font-size="10.00">Cuboid::translation_to_O</text>
</a>
</g>
</g>
<!-- Node17&#45;&gt;Node19 -->
<g id="edge28" class="edge">
<title>Node17&#45;&gt;Node19</title>
<path fill="none" stroke="midnightblue" d="M709.15,-348.5C722.12,-348.5 735.59,-348.5 748.58,-348.5"/>
<polygon fill="midnightblue" stroke="midnightblue" points="748.88,-352 758.88,-348.5 748.88,-345 748.88,-352"/>
</g>
<!-- Node21 -->
<g id="node21" class="node">
<title>Node21</title>
<g id="a_node21"><a xlink:href="class_cuboid.html#a99d30564d6129e6905c5333e04df9606" target="_top" xlink:title="Metoda zwracajaca wierzcholki prostopadloscianu do Vector3D">
<polygon fill="none" stroke="black" points="780,-175 780,-194 875,-194 875,-175 780,-175"/>
<text text-anchor="middle" x="827.5" y="-182" font-family="Helvetica,sans-Serif" font-size="10.00">Cuboid::get_cub</text>
</a>
</g>
</g>
<!-- Node20&#45;&gt;Node21 -->
<g id="edge30" class="edge">
<title>Node20&#45;&gt;Node21</title>
<path fill="none" stroke="midnightblue" d="M688.55,-254.89C699.09,-251.45 709.7,-247.07 719,-241.5 738.69,-229.71 735.27,-216.22 755,-204.5 759.71,-201.7 764.83,-199.28 770.09,-197.19"/>
<polygon fill="midnightblue" stroke="midnightblue" points="771.41,-200.44 779.65,-193.77 769.05,-193.84 771.41,-200.44"/>
</g>
<!-- Node22 -->
<g id="node22" class="node">
<title>Node22</title>
<g id="a_node22"><a xlink:href="class_prism.html#a4e2b0b9c37d6a53af869522a4bf364ac" target="_top" xlink:title="Metoda przesuwajaca graniastoslup o zadany wektor w 3D w taki sposob, ze srodek jego dolnej podstawy ...">
<polygon fill="none" stroke="black" points="776,-213.5 776,-243.5 879,-243.5 879,-213.5 776,-213.5"/>
<text text-anchor="start" x="784" y="-231.5" font-family="Helvetica,sans-Serif" font-size="10.00">Prism::translation</text>
<text text-anchor="middle" x="827.5" y="-220.5" font-family="Helvetica,sans-Serif" font-size="10.00">_of_lower_cen</text>
</a>
</g>
</g>
<!-- Node20&#45;&gt;Node22 -->
<g id="edge31" class="edge">
<title>Node20&#45;&gt;Node22</title>
<path fill="none" stroke="midnightblue" d="M688.52,-255.46C712.77,-250.72 741.14,-245.18 765.84,-240.35"/>
<polygon fill="midnightblue" stroke="midnightblue" points="766.67,-243.76 775.81,-238.4 765.33,-236.89 766.67,-243.76"/>
</g>
<!-- Node22&#45;&gt;Node15 -->
<g id="edge32" class="edge">
<title>Node22&#45;&gt;Node15</title>
<path fill="none" stroke="midnightblue" d="M871.33,-243.59C881.09,-247.8 891.17,-252.81 900,-258.5 935.28,-281.24 969.68,-316.52 988.58,-337.38"/>
<polygon fill="midnightblue" stroke="midnightblue" points="985.99,-339.74 995.26,-344.87 991.22,-335.08 985.99,-339.74"/>
</g>
<!-- Node25 -->
<g id="node25" class="node">
<title>Node25</title>
<g id="a_node25"><a xlink:href="class_cuboid.html#a08fae08a1c8c70ada48ce3af46c82eee" target="_top" xlink:title="Metoda zwracajaca wysokosc prostopadloscianu">
<polygon fill="none" stroke="black" points="577,-175 577,-194 685,-194 685,-175 577,-175"/>
<text text-anchor="middle" x="631" y="-182" font-family="Helvetica,sans-Serif" font-size="10.00">Cuboid::get_height</text>
</a>
</g>
</g>
<!-- Node24&#45;&gt;Node25 -->
<g id="edge35" class="edge">
<title>Node24&#45;&gt;Node25</title>
<path fill="none" stroke="midnightblue" d="M468.34,-221.94C490.04,-216.39 518.03,-209.36 543,-203.5 553.27,-201.09 564.24,-198.62 574.81,-196.28"/>
<polygon fill="midnightblue" stroke="midnightblue" points="575.77,-199.66 584.79,-194.1 574.27,-192.82 575.77,-199.66"/>
</g>
<!-- Node26 -->
<g id="node26" class="node">
<title>Node26</title>
<g id="a_node26"><a xlink:href="class_vector.html#a3ac695edc693437a61da9f1976fd4869" target="_top" xlink:title="Zwraca dlugosc wektora &#160;&#160;Argumenty: &#160;&#160;Brak &#160;&#160;Zwraca:">
<polygon fill="none" stroke="black" points="783,-137 783,-156 872,-156 872,-137 783,-137"/>
<text text-anchor="middle" x="827.5" y="-144" font-family="Helvetica,sans-Serif" font-size="10.00">Vector::get_len</text>
</a>
</g>
</g>
<!-- Node25&#45;&gt;Node26 -->
<g id="edge36" class="edge">
<title>Node25&#45;&gt;Node26</title>
<path fill="none" stroke="midnightblue" d="M680.83,-174.96C708.91,-169.47 744.23,-162.57 773.06,-156.94"/>
<polygon fill="midnightblue" stroke="midnightblue" points="773.82,-160.36 782.96,-155.01 772.47,-153.49 773.82,-160.36"/>
</g>
<!-- Node28 -->
<g id="node28" class="node">
<title>Node28</title>
<g id="a_node28"><a xlink:href="class_cuboid.html#aafa18740d9c98ca928395b9873a9c63d" target="_top" xlink:title="Metoda zwracajaca punkt centralny (czyli taki, ktorego odleglosci do kazdego wierzcholka sa rowne) pr...">
<polygon fill="none" stroke="black" points="572.5,-213 572.5,-232 689.5,-232 689.5,-213 572.5,-213"/>
<text text-anchor="middle" x="631" y="-220" font-family="Helvetica,sans-Serif" font-size="10.00">Cuboid::centre_point</text>
</a>
</g>
</g>
<!-- Node27&#45;&gt;Node28 -->
<g id="edge38" class="edge">
<title>Node27&#45;&gt;Node28</title>
<path fill="none" stroke="midnightblue" d="M454.06,-289.45C475.96,-275.46 510.54,-254.97 543,-242.5 550.8,-239.5 559.17,-236.88 567.53,-234.61"/>
<polygon fill="midnightblue" stroke="midnightblue" points="568.48,-237.98 577.3,-232.11 566.74,-231.2 568.48,-237.98"/>
</g>
<!-- Node29 -->
<g id="node29" class="node">
<title>Node29</title>
<g id="a_node29"><a xlink:href="class_drone.html#a9684cd7ce04b7e6191f3d6b3a745370b" target="_top" xlink:title="Przesuwa drona o zadany wektor w 3D">
<polygon fill="none" stroke="black" points="579,-301 579,-320 683,-320 683,-301 579,-301"/>
<text text-anchor="middle" x="631" y="-308" font-family="Helvetica,sans-Serif" font-size="10.00">Drone::translation</text>
</a>
</g>
</g>
<!-- Node27&#45;&gt;Node29 -->
<g id="edge39" class="edge">
<title>Node27&#45;&gt;Node29</title>
<path fill="none" stroke="midnightblue" d="M482.62,-306.05C508.8,-306.84 540.87,-307.81 568.4,-308.64"/>
<polygon fill="midnightblue" stroke="midnightblue" points="568.61,-312.15 578.71,-308.95 568.82,-305.15 568.61,-312.15"/>
</g>
<!-- Node29&#45;&gt;Node15 -->
<g id="edge40" class="edge">
<title>Node29&#45;&gt;Node15</title>
<path fill="none" stroke="midnightblue" d="M682.07,-300.99C704.31,-297.22 730.87,-293.35 755,-291.5 819.26,-286.57 837.95,-274.1 900,-291.5 932.46,-300.6 964.85,-323 984.53,-338.48"/>
<polygon fill="midnightblue" stroke="midnightblue" points="982.41,-341.27 992.39,-344.83 986.81,-335.83 982.41,-341.27"/>
</g>
<!-- Node29&#45;&gt;Node18 -->
<g id="edge41" class="edge">
<title>Node29&#45;&gt;Node18</title>
<path fill="none" stroke="midnightblue" d="M683.1,-310.5C707.45,-310.5 736.81,-310.5 762.61,-310.5"/>
<polygon fill="midnightblue" stroke="midnightblue" points="762.68,-314 772.68,-310.5 762.68,-307 762.68,-314"/>
</g>
<!-- Node32 -->
<g id="node32" class="node">
<title>Node32</title>
<g id="a_node32"><a xlink:href="class_pz_g_1_1_lacze_do_g_n_u_plota.html#aa815ce8ec16e12fc246cf422e562869e" target="_top" xlink:title="Dodaje nazwę pliku.">
<polygon fill="none" stroke="black" points="365.5,-142.5 365.5,-172.5 495.5,-172.5 495.5,-142.5 365.5,-142.5"/>
<text text-anchor="start" x="373.5" y="-160.5" font-family="Helvetica,sans-Serif" font-size="10.00">PzG::LaczeDoGNUPlota</text>
<text text-anchor="middle" x="430.5" y="-149.5" font-family="Helvetica,sans-Serif" font-size="10.00">::DodajNazwePliku</text>
</a>
</g>
</g>
<!-- Node31&#45;&gt;Node32 -->
<g id="edge44" class="edge">
<title>Node31&#45;&gt;Node32</title>
<path fill="none" stroke="midnightblue" d="M318.13,-157.5C330.3,-157.5 342.99,-157.5 355.26,-157.5"/>
<polygon fill="midnightblue" stroke="midnightblue" points="355.45,-161 365.45,-157.5 355.45,-154 355.45,-161"/>
</g>
<!-- Node31&#45;&gt;Node34 -->
<g id="edge46" class="edge">
<title>Node31&#45;&gt;Node34</title>
<path fill="none" stroke="midnightblue" d="M283.02,-147.94C305.96,-141.76 336.51,-133.54 363.77,-126.2"/>
<polygon fill="midnightblue" stroke="midnightblue" points="364.9,-129.52 373.65,-123.54 363.08,-122.76 364.9,-129.52"/>
</g>
<!-- Node33 -->
<g id="node33" class="node">
<title>Node33</title>
<g id="a_node33"><a xlink:href="namespace_pz_g.html#ae1aad0c681853d7e47da4cdfccefc102" target="_top" xlink:title="Funkcja pomocnicza, sprawdza czy plik o podanej nazwie jest na dysku.">
<polygon fill="none" stroke="black" points="583.5,-137 583.5,-156 678.5,-156 678.5,-137 583.5,-137"/>
<text text-anchor="middle" x="631" y="-144" font-family="Helvetica,sans-Serif" font-size="10.00">PzG::CzyJestPlik</text>
</a>
</g>
</g>
<!-- Node32&#45;&gt;Node33 -->
<g id="edge45" class="edge">
<title>Node32&#45;&gt;Node33</title>
<path fill="none" stroke="midnightblue" d="M495.67,-153.94C520.65,-152.56 549.03,-150.99 573.24,-149.65"/>
<polygon fill="midnightblue" stroke="midnightblue" points="573.55,-153.13 583.34,-149.09 573.17,-146.14 573.55,-153.13"/>
</g>
<!-- Node35 -->
<g id="node35" class="node">
<title>Node35</title>
<g id="a_node35"><a xlink:href="namespace_pz_g.html#aa010184f31b26bb561b42f22438b821e" target="_top" xlink:title="Funkcja pomocnicza, dopisuje do polecenia wpisy związane z rysowaniem z pliku.">
<polygon fill="none" stroke="black" points="548,-99 548,-118 714,-118 714,-99 548,-99"/>
<text text-anchor="middle" x="631" y="-106" font-family="Helvetica,sans-Serif" font-size="10.00">PzG::DopiszRysowanieZPlikow</text>
</a>
</g>
</g>
<!-- Node34&#45;&gt;Node35 -->
<g id="edge47" class="edge">
<title>Node34&#45;&gt;Node35</title>
<path fill="none" stroke="midnightblue" d="M495.67,-108.5C509.07,-108.5 523.45,-108.5 537.64,-108.5"/>
<polygon fill="midnightblue" stroke="midnightblue" points="537.92,-112 547.92,-108.5 537.92,-105 537.92,-112"/>
</g>
<!-- Node36 -->
<g id="node36" class="node">
<title>Node36</title>
<g id="a_node36"><a xlink:href="namespace_pz_g.html#a7227cb39c785b1c746b6bb5515c0b781" target="_top" xlink:title="Dodaje do listy rysowanych punktów, punkty o różnych rozmiarach.">
<polygon fill="none" stroke="black" points="543,-49.5 543,-79.5 719,-79.5 719,-49.5 543,-49.5"/>
<text text-anchor="start" x="551" y="-67.5" font-family="Helvetica,sans-Serif" font-size="10.00">PzG::DopiszRysowanieZRoznych</text>
<text text-anchor="middle" x="631" y="-56.5" font-family="Helvetica,sans-Serif" font-size="10.00">Punktow</text>
</a>
</g>
</g>
<!-- Node34&#45;&gt;Node36 -->
<g id="edge48" class="edge">
<title>Node34&#45;&gt;Node36</title>
<path fill="none" stroke="midnightblue" d="M495.67,-94.28C513.72,-90.27 533.55,-85.88 552.3,-81.72"/>
<polygon fill="midnightblue" stroke="midnightblue" points="553.28,-85.09 562.29,-79.51 551.77,-78.26 553.28,-85.09"/>
</g>
<!-- Node37 -->
<g id="node37" class="node">
<title>Node37</title>
<g id="a_node37"><a xlink:href="namespace_pz_g.html#a169c311f0e0b6ffadcd44e91e749f72d" target="_top" xlink:title="Wczytuje z pliku listę punktów.">
<polygon fill="none" stroke="black" points="755,-49.5 755,-79.5 900,-79.5 900,-49.5 755,-49.5"/>
<text text-anchor="start" x="763" y="-67.5" font-family="Helvetica,sans-Serif" font-size="10.00">PzG::WczytajListeRoznych</text>
<text text-anchor="middle" x="827.5" y="-56.5" font-family="Helvetica,sans-Serif" font-size="10.00">Punktow</text>
</a>
</g>
</g>
<!-- Node36&#45;&gt;Node37 -->
<g id="edge49" class="edge">
<title>Node36&#45;&gt;Node37</title>
<path fill="none" stroke="midnightblue" d="M719.01,-64.5C727.5,-64.5 736.09,-64.5 744.52,-64.5"/>
<polygon fill="midnightblue" stroke="midnightblue" points="744.71,-68 754.71,-64.5 744.71,-61 744.71,-68"/>
</g>
<!-- Node38 -->
<g id="node38" class="node">
<title>Node38</title>
<g id="a_node38"><a xlink:href="class_pz_g_1_1_atrybuty_rysowania.html#ab068535b4d2f755c394557d1da72a4eb" target="_top" xlink:title="Zmienia kolor rysowania.">
<polygon fill="none" stroke="black" points="936,-98.5 936,-128.5 1073,-128.5 1073,-98.5 936,-98.5"/>
<text text-anchor="start" x="944" y="-116.5" font-family="Helvetica,sans-Serif" font-size="10.00">PzG::AtrybutyRysowania</text>
<text text-anchor="middle" x="1004.5" y="-105.5" font-family="Helvetica,sans-Serif" font-size="10.00">::ZmienKolor</text>
</a>
</g>
</g>
<!-- Node37&#45;&gt;Node38 -->
<g id="edge50" class="edge">
<title>Node37&#45;&gt;Node38</title>
<path fill="none" stroke="midnightblue" d="M882.43,-79.6C900.65,-84.7 921.15,-90.44 940.04,-95.73"/>
<polygon fill="midnightblue" stroke="midnightblue" points="939.17,-99.12 949.74,-98.45 941.06,-92.38 939.17,-99.12"/>
</g>
<!-- Node39 -->
<g id="node39" class="node">
<title>Node39</title>
<g id="a_node39"><a xlink:href="class_pz_g_1_1_atrybuty_rysowania.html#af4b140eb03bc10b6fd816fad63f8372e" target="_top" xlink:title="Zmienia rozmiar rysowania.">
<polygon fill="none" stroke="black" points="936,-49.5 936,-79.5 1073,-79.5 1073,-49.5 936,-49.5"/>
<text text-anchor="start" x="944" y="-67.5" font-family="Helvetica,sans-Serif" font-size="10.00">PzG::AtrybutyRysowania</text>
<text text-anchor="middle" x="1004.5" y="-56.5" font-family="Helvetica,sans-Serif" font-size="10.00">::ZmienRozmiar</text>
</a>
</g>
</g>
<!-- Node37&#45;&gt;Node39 -->
<g id="edge51" class="edge">
<title>Node37&#45;&gt;Node39</title>
<path fill="none" stroke="midnightblue" d="M900.18,-64.5C908.57,-64.5 917.16,-64.5 925.63,-64.5"/>
<polygon fill="midnightblue" stroke="midnightblue" points="925.87,-68 935.87,-64.5 925.87,-61 925.87,-68"/>
</g>
<!-- Node40 -->
<g id="node40" class="node">
<title>Node40</title>
<g id="a_node40"><a xlink:href="class_pz_g_1_1_atrybuty_rysowania.html#a2ac97706124b14072715ecf3f07e82b4" target="_top" xlink:title="Zmienia styl rysowania.">
<polygon fill="none" stroke="black" points="936,-0.5 936,-30.5 1073,-30.5 1073,-0.5 936,-0.5"/>
<text text-anchor="start" x="944" y="-18.5" font-family="Helvetica,sans-Serif" font-size="10.00">PzG::AtrybutyRysowania</text>
<text text-anchor="middle" x="1004.5" y="-7.5" font-family="Helvetica,sans-Serif" font-size="10.00">::ZmienStyl</text>
</a>
</g>
</g>
<!-- Node37&#45;&gt;Node40 -->
<g id="edge52" class="edge">
<title>Node37&#45;&gt;Node40</title>
<path fill="none" stroke="midnightblue" d="M882.43,-49.4C900.65,-44.3 921.15,-38.56 940.04,-33.27"/>
<polygon fill="midnightblue" stroke="midnightblue" points="941.06,-36.62 949.74,-30.55 939.17,-29.88 941.06,-36.62"/>
</g>
<!-- Node41&#45;&gt;Node5 -->
<g id="edge57" class="edge">
<title>Node41&#45;&gt;Node5</title>
<path fill="none" stroke="midnightblue" d="M443.28,-505.76C469.19,-539.11 529.84,-616.17 543,-623.5 578.25,-643.14 682.72,-654.35 754.49,-659.93"/>
<polygon fill="midnightblue" stroke="midnightblue" points="754.6,-663.45 764.83,-660.72 755.12,-656.47 754.6,-663.45"/>
</g>
<!-- Node42 -->
<g id="node42" class="node">
<title>Node42</title>
<g id="a_node42"><a xlink:href="class_cuboid.html#abc62d20a2f1418af1c35e369da77f0fc" target="_top" xlink:title=" ">
<polygon fill="none" stroke="black" points="567,-519 567,-538 695,-538 695,-519 567,-519"/>
<text text-anchor="middle" x="631" y="-526" font-family="Helvetica,sans-Serif" font-size="10.00">Cuboid::Cuboid_To_File</text>
</a>
</g>
</g>
<!-- Node41&#45;&gt;Node42 -->
<g id="edge54" class="edge">
<title>Node41&#45;&gt;Node42</title>
<path fill="none" stroke="midnightblue" d="M488.12,-501.34C513.71,-506.24 543.98,-512.03 569.96,-517.01"/>
<polygon fill="midnightblue" stroke="midnightblue" points="569.59,-520.5 580.07,-518.94 570.9,-513.62 569.59,-520.5"/>
</g>
<!-- Node45 -->
<g id="node45" class="node">
<title>Node45</title>
<g id="a_node45"><a xlink:href="class_prism.html#a2de0dab6d117fc3c8dcbc3c384d0fccd" target="_top" xlink:title=" ">
<polygon fill="none" stroke="black" points="573,-481 573,-500 689,-500 689,-481 573,-481"/>
<text text-anchor="middle" x="631" y="-488" font-family="Helvetica,sans-Serif" font-size="10.00">Prism::Prism_To_File</text>
</a>
</g>
</g>
<!-- Node41&#45;&gt;Node45 -->
<g id="edge58" class="edge">
<title>Node41&#45;&gt;Node45</title>
<path fill="none" stroke="midnightblue" d="M488.12,-490.5C511.38,-490.5 538.5,-490.5 562.76,-490.5"/>
<polygon fill="midnightblue" stroke="midnightblue" points="562.96,-494 572.96,-490.5 562.96,-487 562.96,-494"/>
</g>
<!-- Node43 -->
<g id="node43" class="node">
<title>Node43</title>
<g id="a_node43"><a xlink:href="class_cuboid.html#a12a97376443b1a15ae8342c1c75b3e1e" target="_top" xlink:title="Metoda wypisania odpowiednich wierzcholkow do pliku zgodnie z zaproponowanym sposobem zadaniu dron">
<polygon fill="none" stroke="black" points="760,-541 760,-560 895,-560 895,-541 760,-541"/>
<text text-anchor="middle" x="827.5" y="-548" font-family="Helvetica,sans-Serif" font-size="10.00">Cuboid::print_cuboid_3D</text>
</a>
</g>
</g>
<!-- Node42&#45;&gt;Node43 -->
<g id="edge55" class="edge">
<title>Node42&#45;&gt;Node43</title>
<path fill="none" stroke="midnightblue" d="M695.15,-535.64C712.65,-537.62 731.84,-539.79 750.01,-541.85"/>
<polygon fill="midnightblue" stroke="midnightblue" points="749.66,-545.33 759.99,-542.98 750.44,-538.37 749.66,-545.33"/>
</g>
<!-- Node44 -->
<g id="node44" class="node">
<title>Node44</title>
<g id="a_node44"><a xlink:href="class_vector.html#ab2bb1182cee2389eda163fb7b767f36d" target="_top" xlink:title="Zwraca wektor do tablicy o rozmiarze SIZE &#160;&#160;Argumenty:">
<polygon fill="none" stroke="black" points="958.5,-522 958.5,-541 1050.5,-541 1050.5,-522 958.5,-522"/>
<text text-anchor="middle" x="1004.5" y="-529" font-family="Helvetica,sans-Serif" font-size="10.00">Vector::get_vec</text>
</a>
</g>
</g>
<!-- Node43&#45;&gt;Node44 -->
<g id="edge56" class="edge">
<title>Node43&#45;&gt;Node44</title>
<path fill="none" stroke="midnightblue" d="M895.16,-543.26C912.68,-541.36 931.38,-539.33 948.23,-537.5"/>
<polygon fill="midnightblue" stroke="midnightblue" points="948.89,-540.95 958.45,-536.39 948.13,-533.99 948.89,-540.95"/>
</g>
<!-- Node46 -->
<g id="node46" class="node">
<title>Node46</title>
<g id="a_node46"><a xlink:href="class_prism.html#a764c6940e4fb65303981e8b877b28561" target="_top" xlink:title="Metoda wypisania odpowiednich wierzcholkow do pliku zgodnie z zaproponowanym sposobem zadaniu dron">
<polygon fill="none" stroke="black" points="765,-503 765,-522 890,-522 890,-503 765,-503"/>
<text text-anchor="middle" x="827.5" y="-510" font-family="Helvetica,sans-Serif" font-size="10.00">Prism::print_prism_3D</text>
</a>
</g>
</g>
<!-- Node45&#45;&gt;Node46 -->
<g id="edge59" class="edge">
<title>Node45&#45;&gt;Node46</title>
<path fill="none" stroke="midnightblue" d="M689.04,-496.95C709.56,-499.27 732.97,-501.92 754.59,-504.37"/>
<polygon fill="midnightblue" stroke="midnightblue" points="754.37,-507.86 764.7,-505.51 755.16,-500.91 754.37,-507.86"/>
</g>
<!-- Node46&#45;&gt;Node44 -->
<g id="edge60" class="edge">
<title>Node46&#45;&gt;Node44</title>
<path fill="none" stroke="midnightblue" d="M890.2,-519.2C909.13,-521.25 929.83,-523.5 948.3,-525.51"/>
<polygon fill="midnightblue" stroke="midnightblue" points="947.98,-528.99 958.3,-526.59 948.74,-522.03 947.98,-528.99"/>
</g>
<!-- Node47&#45;&gt;Node13 -->
<g id="edge63" class="edge">
<title>Node47&#45;&gt;Node13</title>
<path fill="none" stroke="midnightblue" d="M310.23,-412.8C374.37,-415.14 474.4,-418.8 545.48,-421.41"/>
<polygon fill="midnightblue" stroke="midnightblue" points="545.63,-424.91 555.76,-421.78 545.89,-417.92 545.63,-424.91"/>
</g>
<!-- Node47&#45;&gt;Node23 -->
<g id="edge64" class="edge">
<title>Node47&#45;&gt;Node23</title>
<path fill="none" stroke="midnightblue" d="M310.13,-402.24C324.59,-400.33 340.1,-398.29 355,-396.32"/>
<polygon fill="midnightblue" stroke="midnightblue" points="355.75,-399.76 365.2,-394.98 354.83,-392.82 355.75,-399.76"/>
</g>
<!-- Node47&#45;&gt;Node41 -->
<g id="edge62" class="edge">
<title>Node47&#45;&gt;Node41</title>
<path fill="none" stroke="midnightblue" d="M281.73,-425.55C311.13,-438.47 353.68,-457.17 385.58,-471.19"/>
<polygon fill="midnightblue" stroke="midnightblue" points="384.55,-474.56 395.11,-475.38 387.37,-468.16 384.55,-474.56"/>
</g>
</g>
</svg>
