<?xml version="1.0" encoding="UTF-8" standalone="no"?>
<!DOCTYPE svg PUBLIC "-//W3C//DTD SVG 1.1//EN"
 "http://www.w3.org/Graphics/SVG/1.1/DTD/svg11.dtd">
<!-- Generated by graphviz version 2.43.0 (0)
 -->
<!-- Title: Drone::Drone_basic_motion Pages: 1 -->
<svg width="1054pt" height="749pt"
 viewBox="0.00 0.00 1054.00 748.50" xmlns="http://www.w3.org/2000/svg" xmlns:xlink="http://www.w3.org/1999/xlink">
<g id="graph0" class="graph" transform="scale(1 1) rotate(0) translate(4 744.5)">
<title>Drone::Drone_basic_motion</title>
<!-- Node1 -->
<g id="node1" class="node">
<title>Node1</title>
<g id="a_node1"><a xlink:title="Metoda obliczajaca i przeprowadzajaca caly ruch drona (obrot o kat i przelot z zadania 5....">
<polygon fill="#bfbfbf" stroke="black" points="0,-289.5 0,-319.5 112,-319.5 112,-289.5 0,-289.5"/>
<text text-anchor="start" x="8" y="-307.5" font-family="Helvetica,sans-Serif" font-size="10.00">Drone::Drone_basic</text>
<text text-anchor="middle" x="56" y="-296.5" font-family="Helvetica,sans-Serif" font-size="10.00">_motion</text>
</a>
</g>
</g>
<!-- Node2 -->
<g id="node2" class="node">
<title>Node2</title>
<g id="a_node2"><a xlink:href="class_drone.html#af03af60a9b92e4191a7e66b5c20b52bb" target="_top" xlink:title="Metoda zamieniajaca drona na tego z pliku sample.">
<polygon fill="none" stroke="black" points="158.5,-333.5 158.5,-363.5 280.5,-363.5 280.5,-333.5 158.5,-333.5"/>
<text text-anchor="start" x="166.5" y="-351.5" font-family="Helvetica,sans-Serif" font-size="10.00">Drone::Drone_change</text>
<text text-anchor="middle" x="219.5" y="-340.5" font-family="Helvetica,sans-Serif" font-size="10.00">_to_sample</text>
</a>
</g>
</g>
<!-- Node1&#45;&gt;Node2 -->
<g id="edge1" class="edge">
<title>Node1&#45;&gt;Node2</title>
<path fill="none" stroke="midnightblue" d="M112.13,-319.52C125.44,-323.15 139.78,-327.05 153.5,-330.79"/>
<polygon fill="midnightblue" stroke="midnightblue" points="152.78,-334.22 163.35,-333.47 154.62,-327.47 152.78,-334.22"/>
</g>
<!-- Node27 -->
<g id="node27" class="node">
<title>Node27</title>
<g id="a_node27"><a xlink:href="class_drone.html#a6662bd8203e8c9a0721c457b3612a7c1" target="_top" xlink:title="Metoda uzywana przy konstruowania drona przesuwa drona w ten sposob, ze Vector3D centre prostopadlosc...">
<polygon fill="none" stroke="black" points="351.5,-289.5 351.5,-319.5 455.5,-319.5 455.5,-289.5 351.5,-289.5"/>
<text text-anchor="start" x="359.5" y="-307.5" font-family="Helvetica,sans-Serif" font-size="10.00">Drone::translation</text>
<text text-anchor="middle" x="403.5" y="-296.5" font-family="Helvetica,sans-Serif" font-size="10.00">_to_pos</text>
</a>
</g>
</g>
<!-- Node1&#45;&gt;Node27 -->
<g id="edge66" class="edge">
<title>Node1&#45;&gt;Node27</title>
<path fill="none" stroke="midnightblue" d="M112.13,-304.5C174.61,-304.5 276.18,-304.5 341.13,-304.5"/>
<polygon fill="midnightblue" stroke="midnightblue" points="341.23,-308 351.23,-304.5 341.23,-301 341.23,-308"/>
</g>
<!-- Node30 -->
<g id="node30" class="node">
<title>Node30</title>
<g id="a_node30"><a xlink:href="class_drone.html#ac120bf483eb7684725fa5b8d23856834" target="_top" xlink:title="Metoda przygotowujaca sciezke drona z uzyciem std::vector&lt;&gt;">
<polygon fill="none" stroke="black" points="149.5,-257 149.5,-276 289.5,-276 289.5,-257 149.5,-257"/>
<text text-anchor="middle" x="219.5" y="-264" font-family="Helvetica,sans-Serif" font-size="10.00">Drone::Drone_make_path</text>
</a>
</g>
</g>
<!-- Node1&#45;&gt;Node30 -->
<g id="edge42" class="edge">
<title>Node1&#45;&gt;Node30</title>
<path fill="none" stroke="midnightblue" d="M112.13,-291.53C130.15,-287.29 150.08,-282.6 167.77,-278.44"/>
<polygon fill="midnightblue" stroke="midnightblue" points="168.96,-281.75 177.89,-276.05 167.36,-274.94 168.96,-281.75"/>
</g>
<!-- Node31 -->
<g id="node31" class="node">
<title>Node31</title>
<g id="a_node31"><a xlink:href="class_drone.html#a9d09f6cd9ed8d60dfd1979b31101f400" target="_top" xlink:title="Metoda zapisujaca sciezke do pliku oraz do lacza.">
<polygon fill="none" stroke="black" points="148,-148 148,-167 291,-167 291,-148 148,-148"/>
<text text-anchor="middle" x="219.5" y="-155" font-family="Helvetica,sans-Serif" font-size="10.00">Drone::Drone_path_to_file</text>
</a>
</g>
</g>
<!-- Node1&#45;&gt;Node31 -->
<g id="edge43" class="edge">
<title>Node1&#45;&gt;Node31</title>
<path fill="none" stroke="midnightblue" d="M73.68,-289.32C104.16,-261.58 168.63,-202.89 200.24,-174.12"/>
<polygon fill="midnightblue" stroke="midnightblue" points="202.84,-176.48 207.88,-167.16 198.13,-171.31 202.84,-176.48"/>
</g>
<!-- Node34 -->
<g id="node34" class="node">
<title>Node34</title>
<g id="a_node34"><a xlink:href="class_pz_g_1_1_lacze_do_g_n_u_plota.html#a065f5b8402737cc62b0ad4f66d028335" target="_top" xlink:title="Generuje polecenie rysowania i przesyła je do gnuplota.">
<polygon fill="none" stroke="black" points="338.5,-93.5 338.5,-123.5 468.5,-123.5 468.5,-93.5 338.5,-93.5"/>
<text text-anchor="start" x="346.5" y="-111.5" font-family="Helvetica,sans-Serif" font-size="10.00">PzG::LaczeDoGNUPlota</text>
<text text-anchor="middle" x="403.5" y="-100.5" font-family="Helvetica,sans-Serif" font-size="10.00">::Rysuj</text>
</a>
</g>
</g>
<!-- Node1&#45;&gt;Node34 -->
<g id="edge65" class="edge">
<title>Node1&#45;&gt;Node34</title>
<path fill="none" stroke="midnightblue" d="M60.34,-289.42C68.62,-255.9 93.5,-175.25 148,-138.5 200.67,-102.98 273.77,-97.75 328.12,-100.07"/>
<polygon fill="midnightblue" stroke="midnightblue" points="328.21,-103.58 338.38,-100.61 328.58,-96.59 328.21,-103.58"/>
</g>
<!-- Node41 -->
<g id="node41" class="node">
<title>Node41</title>
<g id="a_node41"><a xlink:href="class_drone.html#aae0029f50083a01fe75c7d504c2fe5b9" target="_top" xlink:title="Metoda zapisujaca parametry drona do plikow (do plikow final kazdego z elementow)">
<polygon fill="none" stroke="black" points="346,-475.5 346,-505.5 461,-505.5 461,-475.5 346,-475.5"/>
<text text-anchor="start" x="354" y="-493.5" font-family="Helvetica,sans-Serif" font-size="10.00">Drone::Print_to_files</text>
<text text-anchor="middle" x="403.5" y="-482.5" font-family="Helvetica,sans-Serif" font-size="10.00">_drone</text>
</a>
</g>
</g>
<!-- Node1&#45;&gt;Node41 -->
<g id="edge53" class="edge">
<title>Node1&#45;&gt;Node41</title>
<path fill="none" stroke="midnightblue" d="M63.11,-319.87C75,-347.67 104,-406.15 148,-435.5 204,-472.85 280.95,-485.36 335.54,-489.29"/>
<polygon fill="midnightblue" stroke="midnightblue" points="335.61,-492.8 345.81,-489.94 336.05,-485.81 335.61,-492.8"/>
</g>
<!-- Node47 -->
<g id="node47" class="node">
<title>Node47</title>
<g id="a_node47"><a xlink:href="class_drone.html#aedb04b80609b22ff4eb4a957bc149a48" target="_top" xlink:title="Metoda animujaca obrot rotorow i zapisujaca to w plikach. Metoda sluzy jako metoda pomocnicza,...">
<polygon fill="none" stroke="black" points="156,-395.5 156,-425.5 283,-425.5 283,-395.5 156,-395.5"/>
<text text-anchor="start" x="164" y="-413.5" font-family="Helvetica,sans-Serif" font-size="10.00">Drone::Rotors_rotation</text>
<text text-anchor="middle" x="219.5" y="-402.5" font-family="Helvetica,sans-Serif" font-size="10.00">_animation</text>
</a>
</g>
</g>
<!-- Node1&#45;&gt;Node47 -->
<g id="edge61" class="edge">
<title>Node1&#45;&gt;Node47</title>
<path fill="none" stroke="midnightblue" d="M75.17,-319.71C93.09,-334.35 121.56,-356.7 148,-373.5 157.47,-379.52 168.02,-385.44 178.01,-390.72"/>
<polygon fill="midnightblue" stroke="midnightblue" points="176.5,-393.87 186.99,-395.37 179.72,-387.66 176.5,-393.87"/>
</g>
<!-- Node3 -->
<g id="node3" class="node">
<title>Node3</title>
<g id="a_node3"><a xlink:href="class_drone.html#ada6f4e93f4a63cbe1d6fbebf329efe62" target="_top" xlink:title="Metoda wczytywania odpowiednich wierzcholkow z pliku wzorcowego zgodnie z zaproponowanym sposobem w z...">
<polygon fill="none" stroke="black" points="327,-595 327,-614 480,-614 480,-595 327,-595"/>
<text text-anchor="middle" x="403.5" y="-602" font-family="Helvetica,sans-Serif" font-size="10.00">Drone::Drone_From_Sample</text>
</a>
</g>
</g>
<!-- Node2&#45;&gt;Node3 -->
<g id="edge2" class="edge">
<title>Node2&#45;&gt;Node3</title>
<path fill="none" stroke="midnightblue" d="M261.5,-363.57C272.4,-369.3 283.27,-376.83 291,-386.5 328.16,-433 299.1,-462.92 327,-515.5 341.94,-543.65 367.01,-570.8 384.14,-587.56"/>
<polygon fill="midnightblue" stroke="midnightblue" points="382.18,-590.53 391.82,-594.91 387.01,-585.47 382.18,-590.53"/>
</g>
<!-- Node12 -->
<g id="node12" class="node">
<title>Node12</title>
<g id="a_node12"><a xlink:href="class_drone.html#ad42bc54902df967b94717617aca1a974" target="_top" xlink:title="Metoda obracajaca dron o zadany kat w 3D wokol srodka figury">
<polygon fill="none" stroke="black" points="327.5,-339 327.5,-358 479.5,-358 479.5,-339 327.5,-339"/>
<text text-anchor="middle" x="403.5" y="-346" font-family="Helvetica,sans-Serif" font-size="10.00">Drone::rotation_around_cen</text>
</a>
</g>
</g>
<!-- Node2&#45;&gt;Node12 -->
<g id="edge19" class="edge">
<title>Node2&#45;&gt;Node12</title>
<path fill="none" stroke="midnightblue" d="M280.6,-348.5C292.25,-348.5 304.66,-348.5 316.94,-348.5"/>
<polygon fill="midnightblue" stroke="midnightblue" points="317.21,-352 327.21,-348.5 317.21,-345 317.21,-352"/>
</g>
<!-- Node23 -->
<g id="node23" class="node">
<title>Node23</title>
<g id="a_node23"><a xlink:href="class_matrix.html#a4161a82fb401e474052c21b25a06a5ba" target="_top" xlink:title=" ">
<polygon fill="none" stroke="black" points="338.5,-377 338.5,-396 468.5,-396 468.5,-377 338.5,-377"/>
<text text-anchor="middle" x="403.5" y="-384" font-family="Helvetica,sans-Serif" font-size="10.00">Matrix::rotation_matrix</text>
</a>
</g>
</g>
<!-- Node2&#45;&gt;Node23 -->
<g id="edge33" class="edge">
<title>Node2&#45;&gt;Node23</title>
<path fill="none" stroke="midnightblue" d="M280.6,-361.05C301.95,-365.51 325.88,-370.5 346.85,-374.88"/>
<polygon fill="midnightblue" stroke="midnightblue" points="346.38,-378.36 356.88,-376.98 347.81,-371.51 346.38,-378.36"/>
</g>
<!-- Node24 -->
<g id="node24" class="node">
<title>Node24</title>
<g id="a_node24"><a xlink:href="class_drone.html#a55c483c4e4cf0ec91d5bda5448417f08" target="_top" xlink:title="Metoda ustawiajaca drone_pos">
<polygon fill="none" stroke="black" points="342.5,-222 342.5,-241 464.5,-241 464.5,-222 342.5,-222"/>
<text text-anchor="middle" x="403.5" y="-229" font-family="Helvetica,sans-Serif" font-size="10.00">Drone::set_drone_pos</text>
</a>
</g>
</g>
<!-- Node2&#45;&gt;Node24 -->
<g id="edge34" class="edge">
<title>Node2&#45;&gt;Node24</title>
<path fill="none" stroke="midnightblue" d="M243.92,-333.44C278.82,-311.01 344.1,-269.04 379.03,-246.59"/>
<polygon fill="midnightblue" stroke="midnightblue" points="381.1,-249.42 387.62,-241.06 377.32,-243.53 381.1,-249.42"/>
</g>
<!-- Node2&#45;&gt;Node27 -->
<g id="edge37" class="edge">
<title>Node2&#45;&gt;Node27</title>
<path fill="none" stroke="midnightblue" d="M280.6,-333.97C300.17,-329.24 321.91,-323.98 341.55,-319.24"/>
<polygon fill="midnightblue" stroke="midnightblue" points="342.4,-322.63 351.3,-316.88 340.76,-315.83 342.4,-322.63"/>
</g>
<!-- Node4 -->
<g id="node4" class="node">
<title>Node4</title>
<g id="a_node4"><a xlink:href="class_cuboid.html#a773f92fecdf9686b951cf5736c83f318" target="_top" xlink:title="Metoda wczytywania odpowiednich wierzcholkow z pliku wzorcowego zgodnie z zaproponowanym sposobem zad...">
<polygon fill="none" stroke="black" points="544,-671.5 544,-701.5 664,-701.5 664,-671.5 544,-671.5"/>
<text text-anchor="start" x="552" y="-689.5" font-family="Helvetica,sans-Serif" font-size="10.00">Cuboid::Cuboid_From</text>
<text text-anchor="middle" x="604" y="-678.5" font-family="Helvetica,sans-Serif" font-size="10.00">_Sample</text>
</a>
</g>
</g>
<!-- Node3&#45;&gt;Node4 -->
<g id="edge3" class="edge">
<title>Node3&#45;&gt;Node4</title>
<path fill="none" stroke="midnightblue" d="M423.57,-614.14C445.56,-625.07 482.93,-643.13 516,-656.5 525.77,-660.45 536.27,-664.35 546.49,-667.97"/>
<polygon fill="midnightblue" stroke="midnightblue" points="545.57,-671.36 556.16,-671.35 547.87,-664.75 545.57,-671.36"/>
</g>
<!-- Node9 -->
<g id="node9" class="node">
<title>Node9</title>
<g id="a_node9"><a xlink:href="class_drone.html#addf8532ee98ca800a64a78f3808fce98" target="_top" xlink:title="Metoda zwracajaca nazwy plikow do zapisu dla drona.">
<polygon fill="none" stroke="black" points="543.5,-721 543.5,-740 664.5,-740 664.5,-721 543.5,-721"/>
<text text-anchor="middle" x="604" y="-728" font-family="Helvetica,sans-Serif" font-size="10.00">Drone::get_filenames</text>
</a>
</g>
</g>
<!-- Node3&#45;&gt;Node9 -->
<g id="edge8" class="edge">
<title>Node3&#45;&gt;Node9</title>
<path fill="none" stroke="midnightblue" d="M411.62,-614.32C427.65,-635.66 468.89,-686.38 516,-711.5 521.55,-714.46 527.53,-716.96 533.67,-719.07"/>
<polygon fill="midnightblue" stroke="midnightblue" points="532.82,-722.47 543.41,-722.07 534.89,-715.78 532.82,-722.47"/>
</g>
<!-- Node10 -->
<g id="node10" class="node">
<title>Node10</title>
<g id="a_node10"><a xlink:href="class_prism.html#a5e0a2234e9ebe3b51146c0ddc42e8b48" target="_top" xlink:title="Metoda wczytywania odpowiednich wierzcholkow z pliku wzorcowego zgodnie z zaproponowanym sposobem zad...">
<polygon fill="none" stroke="black" points="529,-595 529,-614 679,-614 679,-595 529,-595"/>
<text text-anchor="middle" x="604" y="-602" font-family="Helvetica,sans-Serif" font-size="10.00">Prism::Prism_From_Sample</text>
</a>
</g>
</g>
<!-- Node3&#45;&gt;Node10 -->
<g id="edge11" class="edge">
<title>Node3&#45;&gt;Node10</title>
<path fill="none" stroke="midnightblue" d="M480.11,-604.5C492.73,-604.5 505.9,-604.5 518.72,-604.5"/>
<polygon fill="midnightblue" stroke="midnightblue" points="518.91,-608 528.91,-604.5 518.91,-601 518.91,-608"/>
</g>
<!-- Node11 -->
<g id="node11" class="node">
<title>Node11</title>
<g id="a_node11"><a xlink:href="class_drone.html#add09c27034d4ff229cc22b58c443c0f4" target="_top" xlink:title="Metoda ustawiajaca nazwy plikow do zapisu dla drona.">
<polygon fill="none" stroke="black" points="538,-557 538,-576 670,-576 670,-557 538,-557"/>
<text text-anchor="middle" x="604" y="-564" font-family="Helvetica,sans-Serif" font-size="10.00">Drone::setup_filenames</text>
</a>
</g>
</g>
<!-- Node3&#45;&gt;Node11 -->
<g id="edge16" class="edge">
<title>Node3&#45;&gt;Node11</title>
<path fill="none" stroke="midnightblue" d="M454.33,-594.96C481.23,-589.81 514.64,-583.42 542.96,-577.99"/>
<polygon fill="midnightblue" stroke="midnightblue" points="543.98,-581.36 553.15,-576.04 542.67,-574.49 543.98,-581.36"/>
</g>
<!-- Node5 -->
<g id="node5" class="node">
<title>Node5</title>
<g id="a_node5"><a xlink:href="class_block.html#aeef4dd3716afaea42688a4f96456ce27" target="_top" xlink:title="Metoda zwracajaca nazwe pliku z finalna (robocza) bryla">
<polygon fill="none" stroke="black" points="738,-655 738,-674 863,-674 863,-655 738,-655"/>
<text text-anchor="middle" x="800.5" y="-662" font-family="Helvetica,sans-Serif" font-size="10.00">Block::get_final_name</text>
</a>
</g>
</g>
<!-- Node4&#45;&gt;Node5 -->
<g id="edge4" class="edge">
<title>Node4&#45;&gt;Node5</title>
<path fill="none" stroke="midnightblue" d="M664.15,-679.81C684.22,-677.54 706.87,-674.98 727.81,-672.61"/>
<polygon fill="midnightblue" stroke="midnightblue" points="728.4,-676.07 737.94,-671.46 727.61,-669.11 728.4,-676.07"/>
</g>
<!-- Node6 -->
<g id="node6" class="node">
<title>Node6</title>
<g id="a_node6"><a xlink:href="class_block.html#aed17e0cb13b8eea50fe735ba05204da9" target="_top" xlink:title="Metoda zwracajaca nazwe pliku z wzorcowa bryla">
<polygon fill="none" stroke="black" points="730.5,-693 730.5,-712 870.5,-712 870.5,-693 730.5,-693"/>
<text text-anchor="middle" x="800.5" y="-700" font-family="Helvetica,sans-Serif" font-size="10.00">Block::get_sample_name</text>
</a>
</g>
</g>
<!-- Node4&#45;&gt;Node6 -->
<g id="edge5" class="edge">
<title>Node4&#45;&gt;Node6</title>
<path fill="none" stroke="midnightblue" d="M664.15,-691.37C681.86,-692.82 701.58,-694.45 720.37,-695.99"/>
<polygon fill="midnightblue" stroke="midnightblue" points="720.14,-699.48 730.39,-696.81 720.71,-692.51 720.14,-699.48"/>
</g>
<!-- Node7 -->
<g id="node7" class="node">
<title>Node7</title>
<g id="a_node7"><a xlink:href="class_block.html#a640a910076d8b10533a9a80d740f8f03" target="_top" xlink:title="Metoda zapisujaca do klasy nazwe pliku z finalna (robocza) bryla">
<polygon fill="none" stroke="black" points="738.5,-617 738.5,-636 862.5,-636 862.5,-617 738.5,-617"/>
<text text-anchor="middle" x="800.5" y="-624" font-family="Helvetica,sans-Serif" font-size="10.00">Block::set_final_name</text>
</a>
</g>
</g>
<!-- Node4&#45;&gt;Node7 -->
<g id="edge6" class="edge">
<title>Node4&#45;&gt;Node7</title>
<path fill="none" stroke="midnightblue" d="M648.05,-671.42C671.57,-663.37 701.26,-653.5 728,-645.5 735.79,-643.17 744.09,-640.83 752.18,-638.63"/>
<polygon fill="midnightblue" stroke="midnightblue" points="753.15,-642 761.9,-636.02 751.33,-635.23 753.15,-642"/>
</g>
<!-- Node8 -->
<g id="node8" class="node">
<title>Node8</title>
<g id="a_node8"><a xlink:href="class_block.html#acf20b290f1543e580ff1f2c6d98ff4c4" target="_top" xlink:title="Metoda zapisujaca do klasy nazwe pliku z wzorcowa bryla">
<polygon fill="none" stroke="black" points="731,-579 731,-598 870,-598 870,-579 731,-579"/>
<text text-anchor="middle" x="800.5" y="-586" font-family="Helvetica,sans-Serif" font-size="10.00">Block::set_sample_name</text>
</a>
</g>
</g>
<!-- Node4&#45;&gt;Node8 -->
<g id="edge7" class="edge">
<title>Node4&#45;&gt;Node8</title>
<path fill="none" stroke="midnightblue" d="M624.36,-671.33C647.72,-653.69 688.76,-624.81 728,-607.5 733.42,-605.11 739.21,-602.96 745.06,-601.05"/>
<polygon fill="midnightblue" stroke="midnightblue" points="746.35,-604.32 754.9,-598.05 744.31,-597.62 746.35,-604.32"/>
</g>
<!-- Node9&#45;&gt;Node5 -->
<g id="edge9" class="edge">
<title>Node9&#45;&gt;Node5</title>
<path fill="none" stroke="midnightblue" d="M664.67,-721.18C674.05,-718.67 683.46,-715.5 692,-711.5 710.36,-702.9 709.84,-692.51 728,-683.5 732.82,-681.11 737.97,-678.99 743.23,-677.13"/>
<polygon fill="midnightblue" stroke="midnightblue" points="744.31,-680.45 752.74,-674.03 742.14,-673.8 744.31,-680.45"/>
</g>
<!-- Node9&#45;&gt;Node6 -->
<g id="edge10" class="edge">
<title>Node9&#45;&gt;Node6</title>
<path fill="none" stroke="midnightblue" d="M664.68,-721.91C683.22,-719.24 703.92,-716.26 723.42,-713.45"/>
<polygon fill="midnightblue" stroke="midnightblue" points="724.09,-716.89 733.49,-712 723.1,-709.96 724.09,-716.89"/>
</g>
<!-- Node10&#45;&gt;Node5 -->
<g id="edge12" class="edge">
<title>Node10&#45;&gt;Node5</title>
<path fill="none" stroke="midnightblue" d="M645.3,-614.07C660.16,-618 677.02,-622.94 692,-628.5 708.59,-634.65 711.38,-639.43 728,-645.5 734.48,-647.87 741.4,-650.08 748.27,-652.1"/>
<polygon fill="midnightblue" stroke="midnightblue" points="747.69,-655.57 758.27,-654.91 749.59,-648.83 747.69,-655.57"/>
</g>
<!-- Node10&#45;&gt;Node6 -->
<g id="edge13" class="edge">
<title>Node10&#45;&gt;Node6</title>
<path fill="none" stroke="midnightblue" d="M619.31,-614.05C649.21,-633.94 716.51,-678.43 728,-683.5 733.42,-685.89 739.21,-688.04 745.06,-689.95"/>
<polygon fill="midnightblue" stroke="midnightblue" points="744.31,-693.38 754.9,-692.95 746.35,-686.68 744.31,-693.38"/>
</g>
<!-- Node10&#45;&gt;Node7 -->
<g id="edge14" class="edge">
<title>Node10&#45;&gt;Node7</title>
<path fill="none" stroke="midnightblue" d="M679.09,-612.88C695.11,-614.69 712.03,-616.61 727.96,-618.41"/>
<polygon fill="midnightblue" stroke="midnightblue" points="727.94,-621.93 738.27,-619.57 728.72,-614.97 727.94,-621.93"/>
</g>
<!-- Node10&#45;&gt;Node8 -->
<g id="edge15" class="edge">
<title>Node10&#45;&gt;Node8</title>
<path fill="none" stroke="midnightblue" d="M679.09,-598.41C692.6,-597.29 706.75,-596.13 720.41,-595.01"/>
<polygon fill="midnightblue" stroke="midnightblue" points="721.06,-598.46 730.74,-594.16 720.48,-591.49 721.06,-598.46"/>
</g>
<!-- Node11&#45;&gt;Node7 -->
<g id="edge17" class="edge">
<title>Node11&#45;&gt;Node7</title>
<path fill="none" stroke="midnightblue" d="M661.99,-576.08C672.16,-578.59 682.53,-581.7 692,-585.5 709.4,-592.49 710.76,-600.13 728,-607.5 733.52,-609.86 739.41,-612 745.35,-613.9"/>
<polygon fill="midnightblue" stroke="midnightblue" points="744.76,-617.38 755.34,-616.91 746.77,-610.68 744.76,-617.38"/>
</g>
<!-- Node11&#45;&gt;Node8 -->
<g id="edge18" class="edge">
<title>Node11&#45;&gt;Node8</title>
<path fill="none" stroke="midnightblue" d="M670.04,-573.86C686.22,-575.69 703.75,-577.67 720.53,-579.57"/>
<polygon fill="midnightblue" stroke="midnightblue" points="720.53,-583.09 730.86,-580.74 721.32,-576.13 720.53,-583.09"/>
</g>
<!-- Node13 -->
<g id="node13" class="node">
<title>Node13</title>
<g id="a_node13"><a xlink:href="class_prism.html#a22c5467db5d960bddbaf9a52f55c55cb" target="_top" xlink:title="Metoda obracajaca graniastoslup o zadany kat w 3D wokol srodka figury">
<polygon fill="none" stroke="black" points="529,-415 529,-434 679,-434 679,-415 529,-415"/>
<text text-anchor="middle" x="604" y="-422" font-family="Helvetica,sans-Serif" font-size="10.00">Prism::rotation_around_cen</text>
</a>
</g>
</g>
<!-- Node12&#45;&gt;Node13 -->
<g id="edge20" class="edge">
<title>Node12&#45;&gt;Node13</title>
<path fill="none" stroke="midnightblue" d="M448.43,-358.08C458.89,-360.76 469.93,-363.94 480,-367.5 514.08,-379.56 551.55,-397.67 576.07,-410.23"/>
<polygon fill="midnightblue" stroke="midnightblue" points="574.62,-413.42 585.11,-414.91 577.84,-407.2 574.62,-413.42"/>
</g>
<!-- Node17 -->
<g id="node17" class="node">
<title>Node17</title>
<g id="a_node17"><a xlink:href="class_cuboid.html#a6c697c2d9b36a14c43c7328876d5a1f0" target="_top" xlink:title="Metoda obracajaca prostopadloscian o zadany kat w 3D wokol srodka figury">
<polygon fill="none" stroke="black" points="526,-339 526,-358 682,-358 682,-339 526,-339"/>
<text text-anchor="middle" x="604" y="-346" font-family="Helvetica,sans-Serif" font-size="10.00">Cuboid::rotation_around_cen</text>
</a>
</g>
</g>
<!-- Node12&#45;&gt;Node17 -->
<g id="edge25" class="edge">
<title>Node12&#45;&gt;Node17</title>
<path fill="none" stroke="midnightblue" d="M479.54,-348.5C491.38,-348.5 503.71,-348.5 515.79,-348.5"/>
<polygon fill="midnightblue" stroke="midnightblue" points="515.87,-352 525.87,-348.5 515.87,-345 515.87,-352"/>
</g>
<!-- Node20 -->
<g id="node20" class="node">
<title>Node20</title>
<g id="a_node20"><a xlink:href="class_drone.html#aea963b77f42c204504542a3d9190d762" target="_top" xlink:title="Metoda uzywana przy konstruowania drona Ustawia rotory w ten sposob, ze srodek ich dolnej podstawy je...">
<polygon fill="none" stroke="black" points="546.5,-251.5 546.5,-281.5 661.5,-281.5 661.5,-251.5 546.5,-251.5"/>
<text text-anchor="start" x="554.5" y="-269.5" font-family="Helvetica,sans-Serif" font-size="10.00">Drone::set_rotors_in</text>
<text text-anchor="middle" x="604" y="-258.5" font-family="Helvetica,sans-Serif" font-size="10.00">_place</text>
</a>
</g>
</g>
<!-- Node12&#45;&gt;Node20 -->
<g id="edge29" class="edge">
<title>Node12&#45;&gt;Node20</title>
<path fill="none" stroke="midnightblue" d="M458.38,-338.96C465.92,-336.49 473.35,-333.39 480,-329.5 500.08,-317.75 496.12,-303.58 516,-291.5 522.37,-287.63 529.37,-284.33 536.54,-281.53"/>
<polygon fill="midnightblue" stroke="midnightblue" points="538.15,-284.68 546.39,-278.02 535.79,-278.08 538.15,-284.68"/>
</g>
<!-- Node14 -->
<g id="node14" class="node">
<title>Node14</title>
<g id="a_node14"><a xlink:href="class_matrix.html#ad6df418144dfdc3236f990dc3fb0a50a" target="_top" xlink:title=" ">
<polygon fill="none" stroke="black" points="741,-377.5 741,-407.5 860,-407.5 860,-377.5 741,-377.5"/>
<text text-anchor="start" x="749" y="-395.5" font-family="Helvetica,sans-Serif" font-size="10.00">Matrix::apply_matrix</text>
<text text-anchor="middle" x="800.5" y="-384.5" font-family="Helvetica,sans-Serif" font-size="10.00">_to_rotation</text>
</a>
</g>
</g>
<!-- Node13&#45;&gt;Node14 -->
<g id="edge21" class="edge">
<title>Node13&#45;&gt;Node14</title>
<path fill="none" stroke="midnightblue" d="M662.83,-414.99C684.19,-411.47 708.61,-407.45 730.84,-403.8"/>
<polygon fill="midnightblue" stroke="midnightblue" points="731.58,-407.22 740.88,-402.14 730.45,-400.31 731.58,-407.22"/>
</g>
<!-- Node15 -->
<g id="node15" class="node">
<title>Node15</title>
<g id="a_node15"><a xlink:href="class_prism.html#ade146d341c0468030f8c1258b7fe1041" target="_top" xlink:title="Metoda przesuwajaca graniastoslup o zadany wektor w 3D">
<polygon fill="none" stroke="black" points="926,-345 926,-364 1029,-364 1029,-345 926,-345"/>
<text text-anchor="middle" x="977.5" y="-352" font-family="Helvetica,sans-Serif" font-size="10.00">Prism::translation</text>
</a>
</g>
</g>
<!-- Node13&#45;&gt;Node15 -->
<g id="edge22" class="edge">
<title>Node13&#45;&gt;Node15</title>
<path fill="none" stroke="midnightblue" d="M627.17,-434.08C674.33,-452.99 787.32,-490.38 873,-455.5 914.24,-438.71 948.01,-396.71 964.87,-372.49"/>
<polygon fill="midnightblue" stroke="midnightblue" points="967.8,-374.41 970.49,-364.17 961.99,-370.5 967.8,-374.41"/>
</g>
<!-- Node16 -->
<g id="node16" class="node">
<title>Node16</title>
<g id="a_node16"><a xlink:href="class_prism.html#afed2c26932d5cb152fd620d2acbfbc3e" target="_top" xlink:title="Metoda przesuwajaca graniastoslup do srodka ukladu wspolrzednych (tak, ze srodek graniastoslupa pokry...">
<polygon fill="none" stroke="black" points="735,-427 735,-446 866,-446 866,-427 735,-427"/>
<text text-anchor="middle" x="800.5" y="-434" font-family="Helvetica,sans-Serif" font-size="10.00">Prism::translation_to_O</text>
</a>
</g>
</g>
<!-- Node13&#45;&gt;Node16 -->
<g id="edge23" class="edge">
<title>Node13&#45;&gt;Node16</title>
<path fill="none" stroke="midnightblue" d="M679.09,-429.07C694,-429.99 709.69,-430.96 724.63,-431.88"/>
<polygon fill="midnightblue" stroke="midnightblue" points="724.64,-435.39 734.84,-432.51 725.07,-428.4 724.64,-435.39"/>
</g>
<!-- Node16&#45;&gt;Node15 -->
<g id="edge24" class="edge">
<title>Node16&#45;&gt;Node15</title>
<path fill="none" stroke="midnightblue" d="M845.65,-426.89C854.86,-424.31 864.38,-421.18 873,-417.5 903.17,-404.63 934.98,-384.06 955.25,-369.95"/>
<polygon fill="midnightblue" stroke="midnightblue" points="957.3,-372.79 963.44,-364.16 953.26,-367.08 957.3,-372.79"/>
</g>
<!-- Node17&#45;&gt;Node14 -->
<g id="edge26" class="edge">
<title>Node17&#45;&gt;Node14</title>
<path fill="none" stroke="midnightblue" d="M647.2,-358.05C671.58,-363.56 702.84,-370.63 730.69,-376.93"/>
<polygon fill="midnightblue" stroke="midnightblue" points="730.25,-380.42 740.78,-379.22 731.8,-373.6 730.25,-380.42"/>
</g>
<!-- Node18 -->
<g id="node18" class="node">
<title>Node18</title>
<g id="a_node18"><a xlink:href="class_cuboid.html#a3f6b1b9ea7de433af5b0d462d29f4272" target="_top" xlink:title="Metoda przesuwajaca prostopadloscian o zadany kat w 3D">
<polygon fill="none" stroke="black" points="746,-301 746,-320 855,-320 855,-301 746,-301"/>
<text text-anchor="middle" x="800.5" y="-308" font-family="Helvetica,sans-Serif" font-size="10.00">Cuboid::translation</text>
</a>
</g>
</g>
<!-- Node17&#45;&gt;Node18 -->
<g id="edge27" class="edge">
<title>Node17&#45;&gt;Node18</title>
<path fill="none" stroke="midnightblue" d="M653.83,-338.96C680.19,-333.81 712.92,-327.42 740.67,-321.99"/>
<polygon fill="midnightblue" stroke="midnightblue" points="741.51,-325.4 750.65,-320.04 740.16,-318.53 741.51,-325.4"/>
</g>
<!-- Node19 -->
<g id="node19" class="node">
<title>Node19</title>
<g id="a_node19"><a xlink:href="class_cuboid.html#a42bdce7c214e759cb6ea94d4f547a5b9" target="_top" xlink:title="Metoda przesuwajaca prostopadloscian do (0,0,0)">
<polygon fill="none" stroke="black" points="732,-339 732,-358 869,-358 869,-339 732,-339"/>
<text text-anchor="middle" x="800.5" y="-346" font-family="Helvetica,sans-Serif" font-size="10.00">Cuboid::translation_to_O</text>
</a>
</g>
</g>
<!-- Node17&#45;&gt;Node19 -->
<g id="edge28" class="edge">
<title>Node17&#45;&gt;Node19</title>
<path fill="none" stroke="midnightblue" d="M682.15,-348.5C695.12,-348.5 708.59,-348.5 721.58,-348.5"/>
<polygon fill="midnightblue" stroke="midnightblue" points="721.88,-352 731.88,-348.5 721.88,-345 721.88,-352"/>
</g>
<!-- Node21 -->
<g id="node21" class="node">
<title>Node21</title>
<g id="a_node21"><a xlink:href="class_cuboid.html#a99d30564d6129e6905c5333e04df9606" target="_top" xlink:title="Metoda zwracajaca wierzcholki prostopadloscianu do Vector3D">
<polygon fill="none" stroke="black" points="753,-175 753,-194 848,-194 848,-175 753,-175"/>
<text text-anchor="middle" x="800.5" y="-182" font-family="Helvetica,sans-Serif" font-size="10.00">Cuboid::get_cub</text>
</a>
</g>
</g>
<!-- Node20&#45;&gt;Node21 -->
<g id="edge30" class="edge">
<title>Node20&#45;&gt;Node21</title>
<path fill="none" stroke="midnightblue" d="M661.55,-254.89C672.09,-251.45 682.7,-247.07 692,-241.5 711.69,-229.71 708.27,-216.22 728,-204.5 732.71,-201.7 737.83,-199.28 743.09,-197.19"/>
<polygon fill="midnightblue" stroke="midnightblue" points="744.41,-200.44 752.65,-193.77 742.05,-193.84 744.41,-200.44"/>
</g>
<!-- Node22 -->
<g id="node22" class="node">
<title>Node22</title>
<g id="a_node22"><a xlink:href="class_prism.html#a4e2b0b9c37d6a53af869522a4bf364ac" target="_top" xlink:title="Metoda przesuwajaca graniastoslup o zadany wektor w 3D w taki sposob, ze srodek jego dolnej podstawy ...">
<polygon fill="none" stroke="black" points="749,-213.5 749,-243.5 852,-243.5 852,-213.5 749,-213.5"/>
<text text-anchor="start" x="757" y="-231.5" font-family="Helvetica,sans-Serif" font-size="10.00">Prism::translation</text>
<text text-anchor="middle" x="800.5" y="-220.5" font-family="Helvetica,sans-Serif" font-size="10.00">_of_lower_cen</text>
</a>
</g>
</g>
<!-- Node20&#45;&gt;Node22 -->
<g id="edge31" class="edge">
<title>Node20&#45;&gt;Node22</title>
<path fill="none" stroke="midnightblue" d="M661.52,-255.46C685.77,-250.72 714.14,-245.18 738.84,-240.35"/>
<polygon fill="midnightblue" stroke="midnightblue" points="739.67,-243.76 748.81,-238.4 738.33,-236.89 739.67,-243.76"/>
</g>
<!-- Node22&#45;&gt;Node15 -->
<g id="edge32" class="edge">
<title>Node22&#45;&gt;Node15</title>
<path fill="none" stroke="midnightblue" d="M844.33,-243.59C854.09,-247.8 864.17,-252.81 873,-258.5 908.28,-281.24 942.68,-316.52 961.58,-337.38"/>
<polygon fill="midnightblue" stroke="midnightblue" points="958.99,-339.74 968.26,-344.87 964.22,-335.08 958.99,-339.74"/>
</g>
<!-- Node25 -->
<g id="node25" class="node">
<title>Node25</title>
<g id="a_node25"><a xlink:href="class_cuboid.html#a08fae08a1c8c70ada48ce3af46c82eee" target="_top" xlink:title="Metoda zwracajaca wysokosc prostopadloscianu">
<polygon fill="none" stroke="black" points="550,-175 550,-194 658,-194 658,-175 550,-175"/>
<text text-anchor="middle" x="604" y="-182" font-family="Helvetica,sans-Serif" font-size="10.00">Cuboid::get_height</text>
</a>
</g>
</g>
<!-- Node24&#45;&gt;Node25 -->
<g id="edge35" class="edge">
<title>Node24&#45;&gt;Node25</title>
<path fill="none" stroke="midnightblue" d="M441.34,-221.94C463.04,-216.39 491.03,-209.36 516,-203.5 526.27,-201.09 537.24,-198.62 547.81,-196.28"/>
<polygon fill="midnightblue" stroke="midnightblue" points="548.77,-199.66 557.79,-194.1 547.27,-192.82 548.77,-199.66"/>
</g>
<!-- Node26 -->
<g id="node26" class="node">
<title>Node26</title>
<g id="a_node26"><a xlink:href="class_vector.html#a3ac695edc693437a61da9f1976fd4869" target="_top" xlink:title="Zwraca dlugosc wektora &#160;&#160;Argumenty: &#160;&#160;Brak &#160;&#160;Zwraca:">
<polygon fill="none" stroke="black" points="756,-137 756,-156 845,-156 845,-137 756,-137"/>
<text text-anchor="middle" x="800.5" y="-144" font-family="Helvetica,sans-Serif" font-size="10.00">Vector::get_len</text>
</a>
</g>
</g>
<!-- Node25&#45;&gt;Node26 -->
<g id="edge36" class="edge">
<title>Node25&#45;&gt;Node26</title>
<path fill="none" stroke="midnightblue" d="M653.83,-174.96C681.91,-169.47 717.23,-162.57 746.06,-156.94"/>
<polygon fill="midnightblue" stroke="midnightblue" points="746.82,-160.36 755.96,-155.01 745.47,-153.49 746.82,-160.36"/>
</g>
<!-- Node28 -->
<g id="node28" class="node">
<title>Node28</title>
<g id="a_node28"><a xlink:href="class_cuboid.html#aafa18740d9c98ca928395b9873a9c63d" target="_top" xlink:title="Metoda zwracajaca punkt centralny (czyli taki, ktorego odleglosci do kazdego wierzcholka sa rowne) pr...">
<polygon fill="none" stroke="black" points="545.5,-213 545.5,-232 662.5,-232 662.5,-213 545.5,-213"/>
<text text-anchor="middle" x="604" y="-220" font-family="Helvetica,sans-Serif" font-size="10.00">Cuboid::centre_point</text>
</a>
</g>
</g>
<!-- Node27&#45;&gt;Node28 -->
<g id="edge38" class="edge">
<title>Node27&#45;&gt;Node28</title>
<path fill="none" stroke="midnightblue" d="M427.06,-289.45C448.96,-275.46 483.54,-254.97 516,-242.5 523.8,-239.5 532.17,-236.88 540.53,-234.61"/>
<polygon fill="midnightblue" stroke="midnightblue" points="541.48,-237.98 550.3,-232.11 539.74,-231.2 541.48,-237.98"/>
</g>
<!-- Node29 -->
<g id="node29" class="node">
<title>Node29</title>
<g id="a_node29"><a xlink:href="class_drone.html#a9684cd7ce04b7e6191f3d6b3a745370b" target="_top" xlink:title="Przesuwa drona o zadany wektor w 3D">
<polygon fill="none" stroke="black" points="552,-301 552,-320 656,-320 656,-301 552,-301"/>
<text text-anchor="middle" x="604" y="-308" font-family="Helvetica,sans-Serif" font-size="10.00">Drone::translation</text>
</a>
</g>
</g>
<!-- Node27&#45;&gt;Node29 -->
<g id="edge39" class="edge">
<title>Node27&#45;&gt;Node29</title>
<path fill="none" stroke="midnightblue" d="M455.62,-306.05C481.8,-306.84 513.87,-307.81 541.4,-308.64"/>
<polygon fill="midnightblue" stroke="midnightblue" points="541.61,-312.15 551.71,-308.95 541.82,-305.15 541.61,-312.15"/>
</g>
<!-- Node29&#45;&gt;Node15 -->
<g id="edge40" class="edge">
<title>Node29&#45;&gt;Node15</title>
<path fill="none" stroke="midnightblue" d="M655.07,-300.99C677.31,-297.22 703.87,-293.35 728,-291.5 792.26,-286.57 810.95,-274.1 873,-291.5 905.46,-300.6 937.85,-323 957.53,-338.48"/>
<polygon fill="midnightblue" stroke="midnightblue" points="955.41,-341.27 965.39,-344.83 959.81,-335.83 955.41,-341.27"/>
</g>
<!-- Node29&#45;&gt;Node18 -->
<g id="edge41" class="edge">
<title>Node29&#45;&gt;Node18</title>
<path fill="none" stroke="midnightblue" d="M656.1,-310.5C680.45,-310.5 709.81,-310.5 735.61,-310.5"/>
<polygon fill="midnightblue" stroke="midnightblue" points="735.68,-314 745.68,-310.5 735.68,-307 735.68,-314"/>
</g>
<!-- Node32 -->
<g id="node32" class="node">
<title>Node32</title>
<g id="a_node32"><a xlink:href="class_pz_g_1_1_lacze_do_g_n_u_plota.html#aa815ce8ec16e12fc246cf422e562869e" target="_top" xlink:title="Dodaje nazwę pliku.">
<polygon fill="none" stroke="black" points="338.5,-142.5 338.5,-172.5 468.5,-172.5 468.5,-142.5 338.5,-142.5"/>
<text text-anchor="start" x="346.5" y="-160.5" font-family="Helvetica,sans-Serif" font-size="10.00">PzG::LaczeDoGNUPlota</text>
<text text-anchor="middle" x="403.5" y="-149.5" font-family="Helvetica,sans-Serif" font-size="10.00">::DodajNazwePliku</text>
</a>
</g>
</g>
<!-- Node31&#45;&gt;Node32 -->
<g id="edge44" class="edge">
<title>Node31&#45;&gt;Node32</title>
<path fill="none" stroke="midnightblue" d="M291.13,-157.5C303.3,-157.5 315.99,-157.5 328.26,-157.5"/>
<polygon fill="midnightblue" stroke="midnightblue" points="328.45,-161 338.45,-157.5 328.45,-154 328.45,-161"/>
</g>
<!-- Node31&#45;&gt;Node34 -->
<g id="edge46" class="edge">
<title>Node31&#45;&gt;Node34</title>
<path fill="none" stroke="midnightblue" d="M256.02,-147.94C278.96,-141.76 309.51,-133.54 336.77,-126.2"/>
<polygon fill="midnightblue" stroke="midnightblue" points="337.9,-129.52 346.65,-123.54 336.08,-122.76 337.9,-129.52"/>
</g>
<!-- Node33 -->
<g id="node33" class="node">
<title>Node33</title>
<g id="a_node33"><a xlink:href="namespace_pz_g.html#ae1aad0c681853d7e47da4cdfccefc102" target="_top" xlink:title="Funkcja pomocnicza, sprawdza czy plik o podanej nazwie jest na dysku.">
<polygon fill="none" stroke="black" points="556.5,-137 556.5,-156 651.5,-156 651.5,-137 556.5,-137"/>
<text text-anchor="middle" x="604" y="-144" font-family="Helvetica,sans-Serif" font-size="10.00">PzG::CzyJestPlik</text>
</a>
</g>
</g>
<!-- Node32&#45;&gt;Node33 -->
<g id="edge45" class="edge">
<title>Node32&#45;&gt;Node33</title>
<path fill="none" stroke="midnightblue" d="M468.67,-153.94C493.65,-152.56 522.03,-150.99 546.24,-149.65"/>
<polygon fill="midnightblue" stroke="midnightblue" points="546.55,-153.13 556.34,-149.09 546.17,-146.14 546.55,-153.13"/>
</g>
<!-- Node35 -->
<g id="node35" class="node">
<title>Node35</title>
<g id="a_node35"><a xlink:href="namespace_pz_g.html#aa010184f31b26bb561b42f22438b821e" target="_top" xlink:title="Funkcja pomocnicza, dopisuje do polecenia wpisy związane z rysowaniem z pliku.">
<polygon fill="none" stroke="black" points="521,-99 521,-118 687,-118 687,-99 521,-99"/>
<text text-anchor="middle" x="604" y="-106" font-family="Helvetica,sans-Serif" font-size="10.00">PzG::DopiszRysowanieZPlikow</text>
</a>
</g>
</g>
<!-- Node34&#45;&gt;Node35 -->
<g id="edge47" class="edge">
<title>Node34&#45;&gt;Node35</title>
<path fill="none" stroke="midnightblue" d="M468.67,-108.5C482.07,-108.5 496.45,-108.5 510.64,-108.5"/>
<polygon fill="midnightblue" stroke="midnightblue" points="510.92,-112 520.92,-108.5 510.92,-105 510.92,-112"/>
</g>
<!-- Node36 -->
<g id="node36" class="node">
<title>Node36</title>
<g id="a_node36"><a xlink:href="namespace_pz_g.html#a7227cb39c785b1c746b6bb5515c0b781" target="_top" xlink:title="Dodaje do listy rysowanych punktów, punkty o różnych rozmiarach.">
<polygon fill="none" stroke="black" points="516,-49.5 516,-79.5 692,-79.5 692,-49.5 516,-49.5"/>
<text text-anchor="start" x="524" y="-67.5" font-family="Helvetica,sans-Serif" font-size="10.00">PzG::DopiszRysowanieZRoznych</text>
<text text-anchor="middle" x="604" y="-56.5" font-family="Helvetica,sans-Serif" font-size="10.00">Punktow</text>
</a>
</g>
</g>
<!-- Node34&#45;&gt;Node36 -->
<g id="edge48" class="edge">
<title>Node34&#45;&gt;Node36</title>
<path fill="none" stroke="midnightblue" d="M468.67,-94.28C486.72,-90.27 506.55,-85.88 525.3,-81.72"/>
<polygon fill="midnightblue" stroke="midnightblue" points="526.28,-85.09 535.29,-79.51 524.77,-78.26 526.28,-85.09"/>
</g>
<!-- Node37 -->
<g id="node37" class="node">
<title>Node37</title>
<g id="a_node37"><a xlink:href="namespace_pz_g.html#a169c311f0e0b6ffadcd44e91e749f72d" target="_top" xlink:title="Wczytuje z pliku listę punktów.">
<polygon fill="none" stroke="black" points="728,-49.5 728,-79.5 873,-79.5 873,-49.5 728,-49.5"/>
<text text-anchor="start" x="736" y="-67.5" font-family="Helvetica,sans-Serif" font-size="10.00">PzG::WczytajListeRoznych</text>
<text text-anchor="middle" x="800.5" y="-56.5" font-family="Helvetica,sans-Serif" font-size="10.00">Punktow</text>
</a>
</g>
</g>
<!-- Node36&#45;&gt;Node37 -->
<g id="edge49" class="edge">
<title>Node36&#45;&gt;Node37</title>
<path fill="none" stroke="midnightblue" d="M692.01,-64.5C700.5,-64.5 709.09,-64.5 717.52,-64.5"/>
<polygon fill="midnightblue" stroke="midnightblue" points="717.71,-68 727.71,-64.5 717.71,-61 717.71,-68"/>
</g>
<!-- Node38 -->
<g id="node38" class="node">
<title>Node38</title>
<g id="a_node38"><a xlink:href="class_pz_g_1_1_atrybuty_rysowania.html#ab068535b4d2f755c394557d1da72a4eb" target="_top" xlink:title="Zmienia kolor rysowania.">
<polygon fill="none" stroke="black" points="909,-98.5 909,-128.5 1046,-128.5 1046,-98.5 909,-98.5"/>
<text text-anchor="start" x="917" y="-116.5" font-family="Helvetica,sans-Serif" font-size="10.00">PzG::AtrybutyRysowania</text>
<text text-anchor="middle" x="977.5" y="-105.5" font-family="Helvetica,sans-Serif" font-size="10.00">::ZmienKolor</text>
</a>
</g>
</g>
<!-- Node37&#45;&gt;Node38 -->
<g id="edge50" class="edge">
<title>Node37&#45;&gt;Node38</title>
<path fill="none" stroke="midnightblue" d="M855.43,-79.6C873.65,-84.7 894.15,-90.44 913.04,-95.73"/>
<polygon fill="midnightblue" stroke="midnightblue" points="912.17,-99.12 922.74,-98.45 914.06,-92.38 912.17,-99.12"/>
</g>
<!-- Node39 -->
<g id="node39" class="node">
<title>Node39</title>
<g id="a_node39"><a xlink:href="class_pz_g_1_1_atrybuty_rysowania.html#af4b140eb03bc10b6fd816fad63f8372e" target="_top" xlink:title="Zmienia rozmiar rysowania.">
<polygon fill="none" stroke="black" points="909,-49.5 909,-79.5 1046,-79.5 1046,-49.5 909,-49.5"/>
<text text-anchor="start" x="917" y="-67.5" font-family="Helvetica,sans-Serif" font-size="10.00">PzG::AtrybutyRysowania</text>
<text text-anchor="middle" x="977.5" y="-56.5" font-family="Helvetica,sans-Serif" font-size="10.00">::ZmienRozmiar</text>
</a>
</g>
</g>
<!-- Node37&#45;&gt;Node39 -->
<g id="edge51" class="edge">
<title>Node37&#45;&gt;Node39</title>
<path fill="none" stroke="midnightblue" d="M873.18,-64.5C881.57,-64.5 890.16,-64.5 898.63,-64.5"/>
<polygon fill="midnightblue" stroke="midnightblue" points="898.87,-68 908.87,-64.5 898.87,-61 898.87,-68"/>
</g>
<!-- Node40 -->
<g id="node40" class="node">
<title>Node40</title>
<g id="a_node40"><a xlink:href="class_pz_g_1_1_atrybuty_rysowania.html#a2ac97706124b14072715ecf3f07e82b4" target="_top" xlink:title="Zmienia styl rysowania.">
<polygon fill="none" stroke="black" points="909,-0.5 909,-30.5 1046,-30.5 1046,-0.5 909,-0.5"/>
<text text-anchor="start" x="917" y="-18.5" font-family="Helvetica,sans-Serif" font-size="10.00">PzG::AtrybutyRysowania</text>
<text text-anchor="middle" x="977.5" y="-7.5" font-family="Helvetica,sans-Serif" font-size="10.00">::ZmienStyl</text>
</a>
</g>
</g>
<!-- Node37&#45;&gt;Node40 -->
<g id="edge52" class="edge">
<title>Node37&#45;&gt;Node40</title>
<path fill="none" stroke="midnightblue" d="M855.43,-49.4C873.65,-44.3 894.15,-38.56 913.04,-33.27"/>
<polygon fill="midnightblue" stroke="midnightblue" points="914.06,-36.62 922.74,-30.55 912.17,-29.88 914.06,-36.62"/>
</g>
<!-- Node41&#45;&gt;Node5 -->
<g id="edge57" class="edge">
<title>Node41&#45;&gt;Node5</title>
<path fill="none" stroke="midnightblue" d="M416.28,-505.76C442.19,-539.11 502.84,-616.17 516,-623.5 551.25,-643.14 655.72,-654.35 727.49,-659.93"/>
<polygon fill="midnightblue" stroke="midnightblue" points="727.6,-663.45 737.83,-660.72 728.12,-656.47 727.6,-663.45"/>
</g>
<!-- Node42 -->
<g id="node42" class="node">
<title>Node42</title>
<g id="a_node42"><a xlink:href="class_cuboid.html#abc62d20a2f1418af1c35e369da77f0fc" target="_top" xlink:title=" ">
<polygon fill="none" stroke="black" points="540,-519 540,-538 668,-538 668,-519 540,-519"/>
<text text-anchor="middle" x="604" y="-526" font-family="Helvetica,sans-Serif" font-size="10.00">Cuboid::Cuboid_To_File</text>
</a>
</g>
</g>
<!-- Node41&#45;&gt;Node42 -->
<g id="edge54" class="edge">
<title>Node41&#45;&gt;Node42</title>
<path fill="none" stroke="midnightblue" d="M461.12,-501.34C486.71,-506.24 516.98,-512.03 542.96,-517.01"/>
<polygon fill="midnightblue" stroke="midnightblue" points="542.59,-520.5 553.07,-518.94 543.9,-513.62 542.59,-520.5"/>
</g>
<!-- Node45 -->
<g id="node45" class="node">
<title>Node45</title>
<g id="a_node45"><a xlink:href="class_prism.html#a2de0dab6d117fc3c8dcbc3c384d0fccd" target="_top" xlink:title=" ">
<polygon fill="none" stroke="black" points="546,-481 546,-500 662,-500 662,-481 546,-481"/>
<text text-anchor="middle" x="604" y="-488" font-family="Helvetica,sans-Serif" font-size="10.00">Prism::Prism_To_File</text>
</a>
</g>
</g>
<!-- Node41&#45;&gt;Node45 -->
<g id="edge58" class="edge">
<title>Node41&#45;&gt;Node45</title>
<path fill="none" stroke="midnightblue" d="M461.12,-490.5C484.38,-490.5 511.5,-490.5 535.76,-490.5"/>
<polygon fill="midnightblue" stroke="midnightblue" points="535.96,-494 545.96,-490.5 535.96,-487 535.96,-494"/>
</g>
<!-- Node43 -->
<g id="node43" class="node">
<title>Node43</title>
<g id="a_node43"><a xlink:href="class_cuboid.html#a12a97376443b1a15ae8342c1c75b3e1e" target="_top" xlink:title="Metoda wypisania odpowiednich wierzcholkow do pliku zgodnie z zaproponowanym sposobem zadaniu dron">
<polygon fill="none" stroke="black" points="733,-541 733,-560 868,-560 868,-541 733,-541"/>
<text text-anchor="middle" x="800.5" y="-548" font-family="Helvetica,sans-Serif" font-size="10.00">Cuboid::print_cuboid_3D</text>
</a>
</g>
</g>
<!-- Node42&#45;&gt;Node43 -->
<g id="edge55" class="edge">
<title>Node42&#45;&gt;Node43</title>
<path fill="none" stroke="midnightblue" d="M668.15,-535.64C685.65,-537.62 704.84,-539.79 723.01,-541.85"/>
<polygon fill="midnightblue" stroke="midnightblue" points="722.66,-545.33 732.99,-542.98 723.44,-538.37 722.66,-545.33"/>
</g>
<!-- Node44 -->
<g id="node44" class="node">
<title>Node44</title>
<g id="a_node44"><a xlink:href="class_vector.html#ab2bb1182cee2389eda163fb7b767f36d" target="_top" xlink:title="Zwraca wektor do tablicy o rozmiarze SIZE &#160;&#160;Argumenty:">
<polygon fill="none" stroke="black" points="931.5,-522 931.5,-541 1023.5,-541 1023.5,-522 931.5,-522"/>
<text text-anchor="middle" x="977.5" y="-529" font-family="Helvetica,sans-Serif" font-size="10.00">Vector::get_vec</text>
</a>
</g>
</g>
<!-- Node43&#45;&gt;Node44 -->
<g id="edge56" class="edge">
<title>Node43&#45;&gt;Node44</title>
<path fill="none" stroke="midnightblue" d="M868.16,-543.26C885.68,-541.36 904.38,-539.33 921.23,-537.5"/>
<polygon fill="midnightblue" stroke="midnightblue" points="921.89,-540.95 931.45,-536.39 921.13,-533.99 921.89,-540.95"/>
</g>
<!-- Node46 -->
<g id="node46" class="node">
<title>Node46</title>
<g id="a_node46"><a xlink:href="class_prism.html#a764c6940e4fb65303981e8b877b28561" target="_top" xlink:title="Metoda wypisania odpowiednich wierzcholkow do pliku zgodnie z zaproponowanym sposobem zadaniu dron">
<polygon fill="none" stroke="black" points="738,-503 738,-522 863,-522 863,-503 738,-503"/>
<text text-anchor="middle" x="800.5" y="-510" font-family="Helvetica,sans-Serif" font-size="10.00">Prism::print_prism_3D</text>
</a>
</g>
</g>
<!-- Node45&#45;&gt;Node46 -->
<g id="edge59" class="edge">
<title>Node45&#45;&gt;Node46</title>
<path fill="none" stroke="midnightblue" d="M662.04,-496.95C682.56,-499.27 705.97,-501.92 727.59,-504.37"/>
<polygon fill="midnightblue" stroke="midnightblue" points="727.37,-507.86 737.7,-505.51 728.16,-500.91 727.37,-507.86"/>
</g>
<!-- Node46&#45;&gt;Node44 -->
<g id="edge60" class="edge">
<title>Node46&#45;&gt;Node44</title>
<path fill="none" stroke="midnightblue" d="M863.2,-519.2C882.13,-521.25 902.83,-523.5 921.3,-525.51"/>
<polygon fill="midnightblue" stroke="midnightblue" points="920.98,-528.99 931.3,-526.59 921.74,-522.03 920.98,-528.99"/>
</g>
<!-- Node47&#45;&gt;Node13 -->
<g id="edge63" class="edge">
<title>Node47&#45;&gt;Node13</title>
<path fill="none" stroke="midnightblue" d="M283.23,-412.8C347.37,-415.14 447.4,-418.8 518.48,-421.41"/>
<polygon fill="midnightblue" stroke="midnightblue" points="518.63,-424.91 528.76,-421.78 518.89,-417.92 518.63,-424.91"/>
</g>
<!-- Node47&#45;&gt;Node23 -->
<g id="edge64" class="edge">
<title>Node47&#45;&gt;Node23</title>
<path fill="none" stroke="midnightblue" d="M283.13,-402.24C297.59,-400.33 313.1,-398.29 328,-396.32"/>
<polygon fill="midnightblue" stroke="midnightblue" points="328.75,-399.76 338.2,-394.98 327.83,-392.82 328.75,-399.76"/>
</g>
<!-- Node47&#45;&gt;Node41 -->
<g id="edge62" class="edge">
<title>Node47&#45;&gt;Node41</title>
<path fill="none" stroke="midnightblue" d="M254.73,-425.55C284.13,-438.47 326.68,-457.17 358.58,-471.19"/>
<polygon fill="midnightblue" stroke="midnightblue" points="357.55,-474.56 368.11,-475.38 360.37,-468.16 357.55,-474.56"/>
</g>
</g>
</svg>
