<?xml version="1.0" encoding="UTF-8" standalone="no"?>
<!DOCTYPE svg PUBLIC "-//W3C//DTD SVG 1.1//EN"
 "http://www.w3.org/Graphics/SVG/1.1/DTD/svg11.dtd">
<!-- Generated by graphviz version 2.43.0 (0)
 -->
<!-- Title: Menu_cub::assert Pages: 1 -->
<svg width="614pt" height="142pt"
 viewBox="0.00 0.00 614.00 142.00" xmlns="http://www.w3.org/2000/svg" xmlns:xlink="http://www.w3.org/1999/xlink">
<g id="graph0" class="graph" transform="scale(1 1) rotate(0) translate(4 138)">
<title>Menu_cub::assert</title>
<!-- Node1 -->
<g id="node1" class="node">
<title>Node1</title>
<g id="a_node1"><a xlink:title="Sprawdza i wyswietla wszelkie asercje odnosnie prostopadloscianu Argumenty:">
<polygon fill="#bfbfbf" stroke="black" points="0,-57.5 0,-76.5 102,-76.5 102,-57.5 0,-57.5"/>
<text text-anchor="middle" x="51" y="-64.5" font-family="Helvetica,sans-Serif" font-size="10.00">Menu_cub::assert</text>
</a>
</g>
</g>
<!-- Node2 -->
<g id="node2" class="node">
<title>Node2</title>
<g id="a_node2"><a xlink:href="class_cuboid.html#a058d488f3125238bd8b8dcbb671ede9e" target="_top" xlink:title="Sprawdza czy prostopadloscian jest poprawnie zbudowany">
<polygon fill="none" stroke="black" points="154.5,-76.5 154.5,-95.5 261.5,-95.5 261.5,-76.5 154.5,-76.5"/>
<text text-anchor="middle" x="208" y="-83.5" font-family="Helvetica,sans-Serif" font-size="10.00">Cuboid::check_cub</text>
</a>
</g>
</g>
<!-- Node1&#45;&gt;Node2 -->
<g id="edge1" class="edge">
<title>Node1&#45;&gt;Node2</title>
<path fill="none" stroke="midnightblue" d="M102.32,-73.17C115.7,-74.81 130.31,-76.6 144.25,-78.31"/>
<polygon fill="midnightblue" stroke="midnightblue" points="143.91,-81.79 154.26,-79.54 144.76,-74.84 143.91,-81.79"/>
</g>
<!-- Node5 -->
<g id="node5" class="node">
<title>Node5</title>
<g id="a_node5"><a xlink:href="class_cuboid.html#a5840b78caaeac16fd1a262026819501d" target="_top" xlink:title="Sprawdza czy wektory tworzace przeciwne boki prostopadloscianu sa rowne">
<polygon fill="none" stroke="black" points="315.5,-114.5 315.5,-133.5 446.5,-133.5 446.5,-114.5 315.5,-114.5"/>
<text text-anchor="middle" x="381" y="-121.5" font-family="Helvetica,sans-Serif" font-size="10.00">Cuboid::check_vec_opp</text>
</a>
</g>
</g>
<!-- Node1&#45;&gt;Node5 -->
<g id="edge8" class="edge">
<title>Node1&#45;&gt;Node5</title>
<path fill="none" stroke="midnightblue" d="M69.17,-76.67C86.1,-85.69 112.99,-98.69 138,-105 192.93,-118.86 256.91,-123.41 305.28,-124.59"/>
<polygon fill="midnightblue" stroke="midnightblue" points="305.29,-128.1 315.36,-124.8 305.43,-121.1 305.29,-128.1"/>
</g>
<!-- Node6 -->
<g id="node6" class="node">
<title>Node6</title>
<g id="a_node6"><a xlink:href="class_cuboid.html#a5941a7b9eb991137a908b38dc24dc9b3" target="_top" xlink:title="Sprawdza czy wektory tworzace niektore konkretne boki prostokata (glownie te przy wierzcholkach) sa p...">
<polygon fill="none" stroke="black" points="314,-38.5 314,-57.5 448,-57.5 448,-38.5 314,-38.5"/>
<text text-anchor="middle" x="381" y="-45.5" font-family="Helvetica,sans-Serif" font-size="10.00">Cuboid::check_vec_perp</text>
</a>
</g>
</g>
<!-- Node1&#45;&gt;Node6 -->
<g id="edge9" class="edge">
<title>Node1&#45;&gt;Node6</title>
<path fill="none" stroke="midnightblue" d="M102.17,-64.09C155.89,-60.98 241.76,-56.01 303.83,-52.41"/>
<polygon fill="midnightblue" stroke="midnightblue" points="304.18,-55.9 313.96,-51.83 303.77,-48.91 304.18,-55.9"/>
</g>
<!-- Node8 -->
<g id="node8" class="node">
<title>Node8</title>
<g id="a_node8"><a xlink:href="class_menu__cub.html#a6ef2bf80f2e43bf3c14876392ae04b50" target="_top" xlink:title="Wyswietla informacje o bokach figury na standardowym wyjsciu Argumenty:">
<polygon fill="none" stroke="black" points="138,-0.5 138,-19.5 278,-19.5 278,-0.5 138,-0.5"/>
<text text-anchor="middle" x="208" y="-7.5" font-family="Helvetica,sans-Serif" font-size="10.00">Menu_cub::print_side_len</text>
</a>
</g>
</g>
<!-- Node1&#45;&gt;Node8 -->
<g id="edge10" class="edge">
<title>Node1&#45;&gt;Node8</title>
<path fill="none" stroke="midnightblue" d="M76.39,-57.41C93.56,-50.71 117.12,-41.63 138,-34 148.11,-30.3 159.1,-26.42 169.28,-22.88"/>
<polygon fill="midnightblue" stroke="midnightblue" points="170.42,-26.19 178.73,-19.61 168.13,-19.57 170.42,-26.19"/>
</g>
<!-- Node3 -->
<g id="node3" class="node">
<title>Node3</title>
<g id="a_node3"><a xlink:href="class_cuboid.html#a41233dfb606942e160e3080a23547674" target="_top" xlink:title="Sprawdza czy dlugosci wektory tworzace przeciwne boki prostopadloscianu maja poprawne wartosci (nie s...">
<polygon fill="none" stroke="black" points="317,-76.5 317,-95.5 445,-95.5 445,-76.5 317,-76.5"/>
<text text-anchor="middle" x="381" y="-83.5" font-family="Helvetica,sans-Serif" font-size="10.00">Cuboid::check_vec_len</text>
</a>
</g>
</g>
<!-- Node2&#45;&gt;Node3 -->
<g id="edge2" class="edge">
<title>Node2&#45;&gt;Node3</title>
<path fill="none" stroke="midnightblue" d="M261.7,-86C275.89,-86 291.51,-86 306.61,-86"/>
<polygon fill="midnightblue" stroke="midnightblue" points="306.95,-89.5 316.95,-86 306.95,-82.5 306.95,-89.5"/>
</g>
<!-- Node2&#45;&gt;Node5 -->
<g id="edge4" class="edge">
<title>Node2&#45;&gt;Node5</title>
<path fill="none" stroke="midnightblue" d="M252.15,-95.59C274.92,-100.65 303.05,-106.9 327.12,-112.25"/>
<polygon fill="midnightblue" stroke="midnightblue" points="326.64,-115.73 337.16,-114.48 328.16,-108.89 326.64,-115.73"/>
</g>
<!-- Node2&#45;&gt;Node6 -->
<g id="edge6" class="edge">
<title>Node2&#45;&gt;Node6</title>
<path fill="none" stroke="midnightblue" d="M252.15,-76.41C274.92,-71.35 303.05,-65.1 327.12,-59.75"/>
<polygon fill="midnightblue" stroke="midnightblue" points="328.16,-63.11 337.16,-57.52 326.64,-56.27 328.16,-63.11"/>
</g>
<!-- Node4 -->
<g id="node4" class="node">
<title>Node4</title>
<g id="a_node4"><a xlink:href="class_cuboid.html#a21fa2d6458f5b6c593e3e83b3455c246" target="_top" xlink:title="Zwraca do tablicy 3x2 wektory reprezentujace przeciwne boki prostopadloscianu">
<polygon fill="none" stroke="black" points="486,-76.5 486,-95.5 604,-95.5 604,-76.5 486,-76.5"/>
<text text-anchor="middle" x="545" y="-83.5" font-family="Helvetica,sans-Serif" font-size="10.00">Cuboid::get_vec_opp</text>
</a>
</g>
</g>
<!-- Node3&#45;&gt;Node4 -->
<g id="edge3" class="edge">
<title>Node3&#45;&gt;Node4</title>
<path fill="none" stroke="midnightblue" d="M445.1,-86C455.16,-86 465.61,-86 475.78,-86"/>
<polygon fill="midnightblue" stroke="midnightblue" points="475.84,-89.5 485.84,-86 475.84,-82.5 475.84,-89.5"/>
</g>
<!-- Node5&#45;&gt;Node4 -->
<g id="edge5" class="edge">
<title>Node5&#45;&gt;Node4</title>
<path fill="none" stroke="midnightblue" d="M422.88,-114.41C444.35,-109.37 470.86,-103.16 493.6,-97.82"/>
<polygon fill="midnightblue" stroke="midnightblue" points="494.48,-101.21 503.41,-95.52 492.88,-94.4 494.48,-101.21"/>
</g>
<!-- Node7 -->
<g id="node7" class="node">
<title>Node7</title>
<g id="a_node7"><a xlink:href="class_cuboid.html#a3bdc11fd360d0c7d8491f4b42b53bf10" target="_top" xlink:title="Zwraca do tablicy 2x3 wektory reprezentujace boki przy wierzcholkach [0][1] (do vecs[0]) i [1][3] (do...">
<polygon fill="none" stroke="black" points="484,-38.5 484,-57.5 606,-57.5 606,-38.5 484,-38.5"/>
<text text-anchor="middle" x="545" y="-45.5" font-family="Helvetica,sans-Serif" font-size="10.00">Cuboid::get_vec_perp</text>
</a>
</g>
</g>
<!-- Node6&#45;&gt;Node7 -->
<g id="edge7" class="edge">
<title>Node6&#45;&gt;Node7</title>
<path fill="none" stroke="midnightblue" d="M448.36,-48C456.75,-48 465.35,-48 473.79,-48"/>
<polygon fill="midnightblue" stroke="midnightblue" points="473.99,-51.5 483.99,-48 473.99,-44.5 473.99,-51.5"/>
</g>
<!-- Node9 -->
<g id="node9" class="node">
<title>Node9</title>
<g id="a_node9"><a xlink:href="class_cuboid.html#a63fdccd9593f1a7191395a103b7c6366" target="_top" xlink:title="Zapisuje do tablicy tab w kolejnosci: 1.dluzsze przeciwlegle boki 2.krotsze przeciwlegle boki 3....">
<polygon fill="none" stroke="black" points="323.5,-0.5 323.5,-19.5 438.5,-19.5 438.5,-0.5 323.5,-0.5"/>
<text text-anchor="middle" x="381" y="-7.5" font-family="Helvetica,sans-Serif" font-size="10.00">Cuboid::get_vec_len</text>
</a>
</g>
</g>
<!-- Node8&#45;&gt;Node9 -->
<g id="edge11" class="edge">
<title>Node8&#45;&gt;Node9</title>
<path fill="none" stroke="midnightblue" d="M278.06,-10C289.67,-10 301.71,-10 313.26,-10"/>
<polygon fill="midnightblue" stroke="midnightblue" points="313.27,-13.5 323.27,-10 313.27,-6.5 313.27,-13.5"/>
</g>
<!-- Node9&#45;&gt;Node4 -->
<g id="edge13" class="edge">
<title>Node9&#45;&gt;Node4</title>
<path fill="none" stroke="midnightblue" d="M427.38,-19.58C434.56,-22.06 441.68,-25.16 448,-29 467.88,-41.09 464.28,-54.65 484,-67 487.34,-69.09 490.93,-70.97 494.64,-72.66"/>
<polygon fill="midnightblue" stroke="midnightblue" points="493.43,-75.94 504.01,-76.46 496.06,-69.46 493.43,-75.94"/>
</g>
<!-- Node10 -->
<g id="node10" class="node">
<title>Node10</title>
<g id="a_node10"><a xlink:href="class_vector.html#a3ac695edc693437a61da9f1976fd4869" target="_top" xlink:title="Zwraca dlugosc wektora &#160;&#160;Argumenty: &#160;&#160;Brak &#160;&#160;Zwraca:">
<polygon fill="none" stroke="black" points="500.5,-0.5 500.5,-19.5 589.5,-19.5 589.5,-0.5 500.5,-0.5"/>
<text text-anchor="middle" x="545" y="-7.5" font-family="Helvetica,sans-Serif" font-size="10.00">Vector::get_len</text>
</a>
</g>
</g>
<!-- Node9&#45;&gt;Node10 -->
<g id="edge12" class="edge">
<title>Node9&#45;&gt;Node10</title>
<path fill="none" stroke="midnightblue" d="M438.66,-10C455.43,-10 473.74,-10 490.32,-10"/>
<polygon fill="midnightblue" stroke="midnightblue" points="490.39,-13.5 500.39,-10 490.39,-6.5 490.39,-13.5"/>
</g>
</g>
</svg>
