<?xml version="1.0" encoding="UTF-8" standalone="no"?>
<!DOCTYPE svg PUBLIC "-//W3C//DTD SVG 1.1//EN"
 "http://www.w3.org/Graphics/SVG/1.1/DTD/svg11.dtd">
<!-- Generated by graphviz version 2.43.0 (0)
 -->
<!-- Title: Cuboid::print_cuboid_weird Pages: 1 -->
<svg width="770pt" height="53pt"
 viewBox="0.00 0.00 770.00 52.50" xmlns="http://www.w3.org/2000/svg" xmlns:xlink="http://www.w3.org/1999/xlink">
<g id="graph0" class="graph" transform="scale(1 1) rotate(0) translate(4 48.5)">
<title>Cuboid::print_cuboid_weird</title>
<!-- Node1 -->
<g id="node1" class="node">
<title>Node1</title>
<g id="a_node1"><a xlink:title="Metoda wypisania odpowiednich wierzcholkow do pliku zgodnie z (dziwnym) sposobem jaki zaproponowano w...">
<polygon fill="#bfbfbf" stroke="black" points="646,-0.5 646,-30.5 762,-30.5 762,-0.5 646,-0.5"/>
<text text-anchor="start" x="654" y="-18.5" font-family="Helvetica,sans-Serif" font-size="10.00">Cuboid::print_cuboid</text>
<text text-anchor="middle" x="704" y="-7.5" font-family="Helvetica,sans-Serif" font-size="10.00">_weird</text>
</a>
</g>
</g>
<!-- Node2 -->
<g id="node2" class="node">
<title>Node2</title>
<g id="a_node2"><a xlink:href="class_menu__cub.html#ada6a6762e5cc6f20628ecb5bd57944c7" target="_top" xlink:title=" ">
<polygon fill="none" stroke="black" points="476,-25 476,-44 610,-44 610,-25 476,-25"/>
<text text-anchor="middle" x="543" y="-32" font-family="Helvetica,sans-Serif" font-size="10.00">Menu_cub::CuboidToFile</text>
</a>
</g>
</g>
<!-- Node1&#45;&gt;Node2 -->
<g id="edge1" class="edge">
<title>Node1&#45;&gt;Node2</title>
<path fill="none" stroke="midnightblue" d="M635.5,-23.57C627.14,-24.57 618.59,-25.59 610.24,-26.59"/>
<polygon fill="midnightblue" stroke="midnightblue" points="636.08,-27.02 645.6,-22.36 635.25,-20.07 636.08,-27.02"/>
</g>
<!-- Node3 -->
<g id="node3" class="node">
<title>Node3</title>
<g id="a_node3"><a xlink:href="class_menu__cub.html#aba69e42a4314be002349777667b378e8" target="_top" xlink:title="Wyswietla prostopadloscian w GNUplocie Argumenty:">
<polygon fill="none" stroke="black" points="330,-0.5 330,-30.5 440,-30.5 440,-0.5 330,-0.5"/>
<text text-anchor="start" x="338" y="-18.5" font-family="Helvetica,sans-Serif" font-size="10.00">Menu_cub::Print_to</text>
<text text-anchor="middle" x="385" y="-7.5" font-family="Helvetica,sans-Serif" font-size="10.00">_gnuplot</text>
</a>
</g>
</g>
<!-- Node1&#45;&gt;Node3 -->
<g id="edge5" class="edge">
<title>Node1&#45;&gt;Node3</title>
<path fill="none" stroke="midnightblue" d="M635.75,-15.5C577.49,-15.5 494.28,-15.5 440.2,-15.5"/>
<polygon fill="midnightblue" stroke="midnightblue" points="635.96,-19 645.96,-15.5 635.96,-12 635.96,-19"/>
</g>
<!-- Node2&#45;&gt;Node3 -->
<g id="edge2" class="edge">
<title>Node2&#45;&gt;Node3</title>
<path fill="none" stroke="midnightblue" d="M465.83,-25.22C457.27,-24.18 448.68,-23.13 440.47,-22.13"/>
<polygon fill="midnightblue" stroke="midnightblue" points="465.49,-28.71 475.84,-26.44 466.34,-21.76 465.49,-28.71"/>
</g>
<!-- Node4 -->
<g id="node4" class="node">
<title>Node4</title>
<g id="a_node4"><a xlink:href="class_menu__cub.html#a20ac792d84052e50bf3fb95b1745e4df" target="_top" xlink:title="Obsluguje wybor menu Argumenty:">
<polygon fill="none" stroke="black" points="157,-6 157,-25 294,-25 294,-6 157,-6"/>
<text text-anchor="middle" x="225.5" y="-13" font-family="Helvetica,sans-Serif" font-size="10.00">Menu_cub::switch_menu</text>
</a>
</g>
</g>
<!-- Node3&#45;&gt;Node4 -->
<g id="edge3" class="edge">
<title>Node3&#45;&gt;Node4</title>
<path fill="none" stroke="midnightblue" d="M319.68,-15.5C311.26,-15.5 302.62,-15.5 294.16,-15.5"/>
<polygon fill="midnightblue" stroke="midnightblue" points="319.8,-19 329.8,-15.5 319.8,-12 319.8,-19"/>
</g>
<!-- Node5 -->
<g id="node5" class="node">
<title>Node5</title>
<g id="a_node5"><a xlink:href="class_menu__cub.html#ab8ed88bc956ac7bdfe7db0807085f7cd" target="_top" xlink:title="Inicjuje menu Argumenty:">
<polygon fill="none" stroke="black" points="0,-6 0,-25 121,-25 121,-6 0,-6"/>
<text text-anchor="middle" x="60.5" y="-13" font-family="Helvetica,sans-Serif" font-size="10.00">Menu_cub::init_menu</text>
</a>
</g>
</g>
<!-- Node4&#45;&gt;Node5 -->
<g id="edge4" class="edge">
<title>Node4&#45;&gt;Node5</title>
<path fill="none" stroke="midnightblue" d="M146.75,-15.5C138.17,-15.5 129.52,-15.5 121.2,-15.5"/>
<polygon fill="midnightblue" stroke="midnightblue" points="146.79,-19 156.79,-15.5 146.79,-12 146.79,-19"/>
</g>
</g>
</svg>
