<?xml version="1.0" encoding="UTF-8" standalone="no"?>
<!DOCTYPE svg PUBLIC "-//W3C//DTD SVG 1.1//EN"
 "http://www.w3.org/Graphics/SVG/1.1/DTD/svg11.dtd">
<!-- Generated by graphviz version 2.43.0 (0)
 -->
<!-- Title: Scene::init_gnuplot Pages: 1 -->
<!--zoomable 405 -->
<svg id="main" version="1.1" xmlns="http://www.w3.org/2000/svg" xmlns:xlink="http://www.w3.org/1999/xlink" xml:space="preserve" onload="init(evt)">
<style type="text/css"><![CDATA[
.edge:hover path { stroke: red; }
.edge:hover polygon { stroke: red; fill: red; }
]]></style>
<script type="text/javascript"><![CDATA[
var edges = document.getElementsByTagName('g');
if (edges && edges.length) {
  for (var i=0;i<edges.length;i++) {
    if (edges[i].id.substr(0,4)=='edge') {
      edges[i].setAttribute('class','edge');
    }
  }
}
]]></script>
        <defs>
                <circle id="rim" cx="0" cy="0" r="7"/>
                <circle id="rim2" cx="0" cy="0" r="3.5"/>
                <g id="zoomPlus">
                        <use xlink:href="#rim" fill="#404040">
                                <set attributeName="fill" to="#808080" begin="zoomplus.mouseover" end="zoomplus.mouseout"/>
                        </use>
                        <path d="M-4,0h8M0,-4v8" fill="none" stroke="white" stroke-width="1.5" pointer-events="none"/>
                </g>
                <g id="zoomMin">
                        <use xlink:href="#rim" fill="#404040">
                                <set attributeName="fill" to="#808080" begin="zoomminus.mouseover" end="zoomminus.mouseout"/>
                        </use>
                        <path d="M-4,0h8" fill="none" stroke="white" stroke-width="1.5" pointer-events="none"/>
                </g>
                <g id="dirArrow">
                        <path fill="none" stroke="white" stroke-width="1.5" d="M0,-3.0v7 M-2.5,-0.5L0,-3.0L2.5,-0.5"/>
                </g>
               <g id="resetDef">
                       <use xlink:href="#rim2" fill="#404040">
                               <set attributeName="fill" to="#808080" begin="reset.mouseover" end="reset.mouseout"/>
                       </use>
               </g>
        </defs>

<script type="text/javascript">
var viewWidth = 850;
var viewHeight = 405;
var sectionId = 'dynsection-8';
</script>
<script xlink:href="svgpan.js"/>
<svg id="graph" class="graph">
<g id="viewport">
<title>Scene::init_gnuplot</title>
<!-- Node1 -->
<g id="node1" class="node">
<title>Node1</title>
<g id="a_node1"><a xlink:title="Metoda inicjalizujaca lacze do gnuplota.">
<polygon fill="#bfbfbf" stroke="black" points="0,-202 0,-221 110,-221 110,-202 0,-202"/>
<text text-anchor="middle" x="55" y="-209" font-family="Helvetica,sans-Serif" font-size="10.00">Scene::init_gnuplot</text>
</a>
</g>
</g>
<!-- Node2 -->
<g id="node2" class="node">
<title>Node2</title>
<g id="a_node2"><a xlink:href="class_scene.html#af0103ddde1032f0abe26cefcfbdb0cac" target="_top" xlink:title="Metoda dodajaca do lacza plik z plaszczyzna.">
<polygon fill="none" stroke="black" points="159.5,-334 159.5,-353 262.5,-353 262.5,-334 159.5,-334"/>
<text text-anchor="middle" x="211" y="-341" font-family="Helvetica,sans-Serif" font-size="10.00">Scene::Add_Plane</text>
</a>
</g>
</g>
<!-- Node1&#45;&gt;Node2 -->
<g id="edge1" class="edge">
<title>Node1&#45;&gt;Node2</title>
<path fill="none" stroke="midnightblue" d="M60.89,-221C72.56,-242.73 104.21,-296.31 146,-324.5 149.06,-326.57 152.36,-328.41 155.77,-330.06"/>
<polygon fill="midnightblue" stroke="midnightblue" points="154.46,-333.31 165.04,-333.98 157.19,-326.86 154.46,-333.31"/>
</g>
<!-- Node3 -->
<g id="node3" class="node">
<title>Node3</title>
<g id="a_node3"><a xlink:href="class_pz_g_1_1_lacze_do_g_n_u_plota.html#aa815ce8ec16e12fc246cf422e562869e" target="_top" xlink:title="Dodaje nazwę pliku.">
<polygon fill="none" stroke="black" points="335,-366.5 335,-396.5 465,-396.5 465,-366.5 335,-366.5"/>
<text text-anchor="start" x="343" y="-384.5" font-family="Helvetica,sans-Serif" font-size="10.00">PzG::LaczeDoGNUPlota</text>
<text text-anchor="middle" x="400" y="-373.5" font-family="Helvetica,sans-Serif" font-size="10.00">::DodajNazwePliku</text>
</a>
</g>
</g>
<!-- Node1&#45;&gt;Node3 -->
<g id="edge4" class="edge">
<title>Node1&#45;&gt;Node3</title>
<path fill="none" stroke="midnightblue" d="M58.39,-221.11C65.85,-248.77 91.5,-328.78 146,-362.5 199.13,-395.38 271.07,-397.65 324.65,-393.15"/>
<polygon fill="midnightblue" stroke="midnightblue" points="325.14,-396.62 334.77,-392.2 324.49,-389.65 325.14,-396.62"/>
</g>
<!-- Node5 -->
<g id="node5" class="node">
<title>Node5</title>
<g id="a_node5"><a xlink:href="class_scene.html#aee5720329cbe2b9c45d607f5e972d91a" target="_top" xlink:title="Metoda tworzy plaszczyzne z podanych zakresow i zwraca nazwe pliku do zapisu.">
<polygon fill="none" stroke="black" points="156,-246 156,-265 266,-265 266,-246 156,-246"/>
<text text-anchor="middle" x="211" y="-253" font-family="Helvetica,sans-Serif" font-size="10.00">Scene::Make_Plane</text>
</a>
</g>
</g>
<!-- Node1&#45;&gt;Node5 -->
<g id="edge5" class="edge">
<title>Node1&#45;&gt;Node5</title>
<path fill="none" stroke="midnightblue" d="M89.42,-221.05C112.12,-227.53 142.36,-236.17 166.88,-243.18"/>
<polygon fill="midnightblue" stroke="midnightblue" points="166.07,-246.59 176.65,-245.97 168,-239.86 166.07,-246.59"/>
</g>
<!-- Node6 -->
<g id="node6" class="node">
<title>Node6</title>
<g id="a_node6"><a xlink:href="class_pz_g_1_1_lacze_do_g_n_u_plota.html#a065f5b8402737cc62b0ad4f66d028335" target="_top" xlink:title="Generuje polecenie rysowania i przesyła je do gnuplota.">
<polygon fill="none" stroke="black" points="146,-196.5 146,-226.5 276,-226.5 276,-196.5 146,-196.5"/>
<text text-anchor="start" x="154" y="-214.5" font-family="Helvetica,sans-Serif" font-size="10.00">PzG::LaczeDoGNUPlota</text>
<text text-anchor="middle" x="211" y="-203.5" font-family="Helvetica,sans-Serif" font-size="10.00">::Rysuj</text>
</a>
</g>
</g>
<!-- Node1&#45;&gt;Node6 -->
<g id="edge6" class="edge">
<title>Node1&#45;&gt;Node6</title>
<path fill="none" stroke="midnightblue" d="M110.29,-211.5C118.57,-211.5 127.24,-211.5 135.85,-211.5"/>
<polygon fill="midnightblue" stroke="midnightblue" points="135.92,-215 145.92,-211.5 135.92,-208 135.92,-215"/>
</g>
<!-- Node13 -->
<g id="node13" class="node">
<title>Node13</title>
<g id="a_node13"><a xlink:href="class_drone.html#a63898ba4cc161710cf08f7b578f3d90f" target="_top" xlink:title="Metoda ustawiajaca nazwy plikow w laczy do gnuplota (nazwy final!)">
<polygon fill="none" stroke="black" points="151,-284.5 151,-314.5 271,-314.5 271,-284.5 151,-284.5"/>
<text text-anchor="start" x="159" y="-302.5" font-family="Helvetica,sans-Serif" font-size="10.00">Drone::set_filenames</text>
<text text-anchor="middle" x="211" y="-291.5" font-family="Helvetica,sans-Serif" font-size="10.00">_gnuplot</text>
</a>
</g>
</g>
<!-- Node1&#45;&gt;Node13 -->
<g id="edge13" class="edge">
<title>Node1&#45;&gt;Node13</title>
<path fill="none" stroke="midnightblue" d="M67.64,-221.02C84.25,-234.28 116.07,-258.48 146,-274.5 149.89,-276.58 153.99,-278.59 158.17,-280.49"/>
<polygon fill="midnightblue" stroke="midnightblue" points="156.79,-283.71 167.36,-284.49 159.58,-277.29 156.79,-283.71"/>
</g>
<!-- Node21 -->
<g id="node21" class="node">
<title>Node21</title>
<g id="a_node21"><a xlink:href="class_pz_g_1_1_lacze_do_g_n_u_plota.html#a9c91987dfc869d6fcea96205c581daef" target="_top" xlink:title="Ustawia zakres osi OX.">
<polygon fill="none" stroke="black" points="146,-147.5 146,-177.5 276,-177.5 276,-147.5 146,-147.5"/>
<text text-anchor="start" x="154" y="-165.5" font-family="Helvetica,sans-Serif" font-size="10.00">PzG::LaczeDoGNUPlota</text>
<text text-anchor="middle" x="211" y="-154.5" font-family="Helvetica,sans-Serif" font-size="10.00">::UstawZakresX</text>
</a>
</g>
</g>
<!-- Node1&#45;&gt;Node21 -->
<g id="edge23" class="edge">
<title>Node1&#45;&gt;Node21</title>
<path fill="none" stroke="midnightblue" d="M86.06,-201.94C105.13,-195.87 130.41,-187.82 153.17,-180.58"/>
<polygon fill="midnightblue" stroke="midnightblue" points="154.27,-183.9 162.74,-177.54 152.15,-177.23 154.27,-183.9"/>
</g>
<!-- Node22 -->
<g id="node22" class="node">
<title>Node22</title>
<g id="a_node22"><a xlink:href="class_pz_g_1_1_lacze_do_g_n_u_plota.html#a54c6e9cf9ab2eae479451fd953c2717c" target="_top" xlink:title="Ustawia zakres osi OY.">
<polygon fill="none" stroke="black" points="146,-98.5 146,-128.5 276,-128.5 276,-98.5 146,-98.5"/>
<text text-anchor="start" x="154" y="-116.5" font-family="Helvetica,sans-Serif" font-size="10.00">PzG::LaczeDoGNUPlota</text>
<text text-anchor="middle" x="211" y="-105.5" font-family="Helvetica,sans-Serif" font-size="10.00">::UstawZakresY</text>
</a>
</g>
</g>
<!-- Node1&#45;&gt;Node22 -->
<g id="edge24" class="edge">
<title>Node1&#45;&gt;Node22</title>
<path fill="none" stroke="midnightblue" d="M65.7,-201.65C81.37,-186.19 113.76,-156.11 146,-137.5 148.83,-135.87 151.78,-134.31 154.81,-132.83"/>
<polygon fill="midnightblue" stroke="midnightblue" points="156.4,-135.95 164.05,-128.62 153.5,-129.58 156.4,-135.95"/>
</g>
<!-- Node23 -->
<g id="node23" class="node">
<title>Node23</title>
<g id="a_node23"><a xlink:href="class_pz_g_1_1_lacze_do_g_n_u_plota.html#a1dbbb2b86fb13b8632e6bad9df2a82e3" target="_top" xlink:title="Ustawia zakres osi OZ.">
<polygon fill="none" stroke="black" points="146,-49.5 146,-79.5 276,-79.5 276,-49.5 146,-49.5"/>
<text text-anchor="start" x="154" y="-67.5" font-family="Helvetica,sans-Serif" font-size="10.00">PzG::LaczeDoGNUPlota</text>
<text text-anchor="middle" x="211" y="-56.5" font-family="Helvetica,sans-Serif" font-size="10.00">::UstawZakresZ</text>
</a>
</g>
</g>
<!-- Node1&#45;&gt;Node23 -->
<g id="edge25" class="edge">
<title>Node1&#45;&gt;Node23</title>
<path fill="none" stroke="midnightblue" d="M60.64,-201.7C72,-178.71 103.42,-120.8 146,-88.5 147.81,-87.13 149.7,-85.83 151.65,-84.6"/>
<polygon fill="midnightblue" stroke="midnightblue" points="153.54,-87.56 160.56,-79.63 150.13,-81.45 153.54,-87.56"/>
</g>
<!-- Node24 -->
<g id="node24" class="node">
<title>Node24</title>
<g id="a_node24"><a xlink:href="class_pz_g_1_1_lacze_do_g_n_u_plota.html#ae92c65357bf682478cc68f77885b61d8" target="_top" xlink:title="Zmienia tryb rysowania.">
<polygon fill="none" stroke="black" points="146,-0.5 146,-30.5 276,-30.5 276,-0.5 146,-0.5"/>
<text text-anchor="start" x="154" y="-18.5" font-family="Helvetica,sans-Serif" font-size="10.00">PzG::LaczeDoGNUPlota</text>
<text text-anchor="middle" x="211" y="-7.5" font-family="Helvetica,sans-Serif" font-size="10.00">::ZmienTrybRys</text>
</a>
</g>
</g>
<!-- Node1&#45;&gt;Node24 -->
<g id="edge26" class="edge">
<title>Node1&#45;&gt;Node24</title>
<path fill="none" stroke="midnightblue" d="M58.43,-201.79C66.13,-172.9 92.71,-86.59 146,-39.5 147.34,-38.31 148.75,-37.18 150.22,-36.1"/>
<polygon fill="midnightblue" stroke="midnightblue" points="152.49,-38.81 159.07,-30.5 148.75,-32.89 152.49,-38.81"/>
</g>
<!-- Node2&#45;&gt;Node3 -->
<g id="edge2" class="edge">
<title>Node2&#45;&gt;Node3</title>
<path fill="none" stroke="midnightblue" d="M259.19,-353.09C279.08,-357.13 302.71,-361.93 324.83,-366.43"/>
<polygon fill="midnightblue" stroke="midnightblue" points="324.38,-369.91 334.87,-368.47 325.77,-363.05 324.38,-369.91"/>
</g>
<!-- Node4 -->
<g id="node4" class="node">
<title>Node4</title>
<g id="a_node4"><a xlink:href="namespace_pz_g.html#ae1aad0c681853d7e47da4cdfccefc102" target="_top" xlink:title="Funkcja pomocnicza, sprawdza czy plik o podanej nazwie jest na dysku.">
<polygon fill="none" stroke="black" points="549,-372 549,-391 644,-391 644,-372 549,-372"/>
<text text-anchor="middle" x="596.5" y="-379" font-family="Helvetica,sans-Serif" font-size="10.00">PzG::CzyJestPlik</text>
</a>
</g>
</g>
<!-- Node3&#45;&gt;Node4 -->
<g id="edge3" class="edge">
<title>Node3&#45;&gt;Node4</title>
<path fill="none" stroke="midnightblue" d="M465.23,-381.5C488.93,-381.5 515.6,-381.5 538.6,-381.5"/>
<polygon fill="midnightblue" stroke="midnightblue" points="538.89,-385 548.89,-381.5 538.89,-378 538.89,-385"/>
</g>
<!-- Node7 -->
<g id="node7" class="node">
<title>Node7</title>
<g id="a_node7"><a xlink:href="namespace_pz_g.html#aa010184f31b26bb561b42f22438b821e" target="_top" xlink:title="Funkcja pomocnicza, dopisuje do polecenia wpisy związane z rysowaniem z pliku.">
<polygon fill="none" stroke="black" points="317,-176 317,-195 483,-195 483,-176 317,-176"/>
<text text-anchor="middle" x="400" y="-183" font-family="Helvetica,sans-Serif" font-size="10.00">PzG::DopiszRysowanieZPlikow</text>
</a>
</g>
</g>
<!-- Node6&#45;&gt;Node7 -->
<g id="edge7" class="edge">
<title>Node6&#45;&gt;Node7</title>
<path fill="none" stroke="midnightblue" d="M276.09,-202.59C290.35,-200.61 305.63,-198.48 320.4,-196.43"/>
<polygon fill="midnightblue" stroke="midnightblue" points="321.1,-199.87 330.52,-195.02 320.13,-192.93 321.1,-199.87"/>
</g>
<!-- Node8 -->
<g id="node8" class="node">
<title>Node8</title>
<g id="a_node8"><a xlink:href="namespace_pz_g.html#a7227cb39c785b1c746b6bb5515c0b781" target="_top" xlink:title="Dodaje do listy rysowanych punktów, punkty o różnych rozmiarach.">
<polygon fill="none" stroke="black" points="312,-126.5 312,-156.5 488,-156.5 488,-126.5 312,-126.5"/>
<text text-anchor="start" x="320" y="-144.5" font-family="Helvetica,sans-Serif" font-size="10.00">PzG::DopiszRysowanieZRoznych</text>
<text text-anchor="middle" x="400" y="-133.5" font-family="Helvetica,sans-Serif" font-size="10.00">Punktow</text>
</a>
</g>
</g>
<!-- Node6&#45;&gt;Node8 -->
<g id="edge8" class="edge">
<title>Node6&#45;&gt;Node8</title>
<path fill="none" stroke="midnightblue" d="M252.98,-196.44C260.7,-193.34 268.66,-189.95 276,-186.5 292.56,-178.71 295.1,-173.52 312,-166.5 317.81,-164.09 323.93,-161.82 330.12,-159.71"/>
<polygon fill="midnightblue" stroke="midnightblue" points="331.46,-162.95 339.88,-156.52 329.28,-156.3 331.46,-162.95"/>
</g>
<!-- Node9 -->
<g id="node9" class="node">
<title>Node9</title>
<g id="a_node9"><a xlink:href="namespace_pz_g.html#a169c311f0e0b6ffadcd44e91e749f72d" target="_top" xlink:title="Wczytuje z pliku listę punktów.">
<polygon fill="none" stroke="black" points="524,-126.5 524,-156.5 669,-156.5 669,-126.5 524,-126.5"/>
<text text-anchor="start" x="532" y="-144.5" font-family="Helvetica,sans-Serif" font-size="10.00">PzG::WczytajListeRoznych</text>
<text text-anchor="middle" x="596.5" y="-133.5" font-family="Helvetica,sans-Serif" font-size="10.00">Punktow</text>
</a>
</g>
</g>
<!-- Node8&#45;&gt;Node9 -->
<g id="edge9" class="edge">
<title>Node8&#45;&gt;Node9</title>
<path fill="none" stroke="midnightblue" d="M488.01,-141.5C496.5,-141.5 505.09,-141.5 513.52,-141.5"/>
<polygon fill="midnightblue" stroke="midnightblue" points="513.71,-145 523.71,-141.5 513.71,-138 513.71,-145"/>
</g>
<!-- Node10 -->
<g id="node10" class="node">
<title>Node10</title>
<g id="a_node10"><a xlink:href="class_pz_g_1_1_atrybuty_rysowania.html#ab068535b4d2f755c394557d1da72a4eb" target="_top" xlink:title="Zmienia kolor rysowania.">
<polygon fill="none" stroke="black" points="705,-175.5 705,-205.5 842,-205.5 842,-175.5 705,-175.5"/>
<text text-anchor="start" x="713" y="-193.5" font-family="Helvetica,sans-Serif" font-size="10.00">PzG::AtrybutyRysowania</text>
<text text-anchor="middle" x="773.5" y="-182.5" font-family="Helvetica,sans-Serif" font-size="10.00">::ZmienKolor</text>
</a>
</g>
</g>
<!-- Node9&#45;&gt;Node10 -->
<g id="edge10" class="edge">
<title>Node9&#45;&gt;Node10</title>
<path fill="none" stroke="midnightblue" d="M651.43,-156.6C669.65,-161.7 690.15,-167.44 709.04,-172.73"/>
<polygon fill="midnightblue" stroke="midnightblue" points="708.17,-176.12 718.74,-175.45 710.06,-169.38 708.17,-176.12"/>
</g>
<!-- Node11 -->
<g id="node11" class="node">
<title>Node11</title>
<g id="a_node11"><a xlink:href="class_pz_g_1_1_atrybuty_rysowania.html#af4b140eb03bc10b6fd816fad63f8372e" target="_top" xlink:title="Zmienia rozmiar rysowania.">
<polygon fill="none" stroke="black" points="705,-126.5 705,-156.5 842,-156.5 842,-126.5 705,-126.5"/>
<text text-anchor="start" x="713" y="-144.5" font-family="Helvetica,sans-Serif" font-size="10.00">PzG::AtrybutyRysowania</text>
<text text-anchor="middle" x="773.5" y="-133.5" font-family="Helvetica,sans-Serif" font-size="10.00">::ZmienRozmiar</text>
</a>
</g>
</g>
<!-- Node9&#45;&gt;Node11 -->
<g id="edge11" class="edge">
<title>Node9&#45;&gt;Node11</title>
<path fill="none" stroke="midnightblue" d="M669.18,-141.5C677.57,-141.5 686.16,-141.5 694.63,-141.5"/>
<polygon fill="midnightblue" stroke="midnightblue" points="694.87,-145 704.87,-141.5 694.87,-138 694.87,-145"/>
</g>
<!-- Node12 -->
<g id="node12" class="node">
<title>Node12</title>
<g id="a_node12"><a xlink:href="class_pz_g_1_1_atrybuty_rysowania.html#a2ac97706124b14072715ecf3f07e82b4" target="_top" xlink:title="Zmienia styl rysowania.">
<polygon fill="none" stroke="black" points="705,-77.5 705,-107.5 842,-107.5 842,-77.5 705,-77.5"/>
<text text-anchor="start" x="713" y="-95.5" font-family="Helvetica,sans-Serif" font-size="10.00">PzG::AtrybutyRysowania</text>
<text text-anchor="middle" x="773.5" y="-84.5" font-family="Helvetica,sans-Serif" font-size="10.00">::ZmienStyl</text>
</a>
</g>
</g>
<!-- Node9&#45;&gt;Node12 -->
<g id="edge12" class="edge">
<title>Node9&#45;&gt;Node12</title>
<path fill="none" stroke="midnightblue" d="M651.43,-126.4C669.65,-121.3 690.15,-115.56 709.04,-110.27"/>
<polygon fill="midnightblue" stroke="midnightblue" points="710.06,-113.62 718.74,-107.55 708.17,-106.88 710.06,-113.62"/>
</g>
<!-- Node13&#45;&gt;Node3 -->
<g id="edge17" class="edge">
<title>Node13&#45;&gt;Node3</title>
<path fill="none" stroke="midnightblue" d="M256.71,-314.6C263.36,-317.51 270,-320.82 276,-324.5 294.26,-335.68 293.25,-346.18 312,-356.5 316.25,-358.84 320.74,-360.98 325.35,-362.93"/>
<polygon fill="midnightblue" stroke="midnightblue" points="324.36,-366.3 334.95,-366.68 326.91,-359.78 324.36,-366.3"/>
</g>
<!-- Node14 -->
<g id="node14" class="node">
<title>Node14</title>
<g id="a_node14"><a xlink:href="class_cuboid.html#abc62d20a2f1418af1c35e369da77f0fc" target="_top" xlink:title=" ">
<polygon fill="none" stroke="black" points="336,-328 336,-347 464,-347 464,-328 336,-328"/>
<text text-anchor="middle" x="400" y="-335" font-family="Helvetica,sans-Serif" font-size="10.00">Cuboid::Cuboid_To_File</text>
</a>
</g>
</g>
<!-- Node13&#45;&gt;Node14 -->
<g id="edge14" class="edge">
<title>Node13&#45;&gt;Node14</title>
<path fill="none" stroke="midnightblue" d="M271.17,-311.52C293.81,-316.12 319.57,-321.36 342,-325.92"/>
<polygon fill="midnightblue" stroke="midnightblue" points="341.56,-329.4 352.05,-327.96 342.95,-322.54 341.56,-329.4"/>
</g>
<!-- Node17 -->
<g id="node17" class="node">
<title>Node17</title>
<g id="a_node17"><a xlink:href="class_block.html#aeef4dd3716afaea42688a4f96456ce27" target="_top" xlink:title="Metoda zwracajaca nazwe pliku z finalna (robocza) bryla">
<polygon fill="none" stroke="black" points="337.5,-252 337.5,-271 462.5,-271 462.5,-252 337.5,-252"/>
<text text-anchor="middle" x="400" y="-259" font-family="Helvetica,sans-Serif" font-size="10.00">Block::get_final_name</text>
</a>
</g>
</g>
<!-- Node13&#45;&gt;Node17 -->
<g id="edge18" class="edge">
<title>Node13&#45;&gt;Node17</title>
<path fill="none" stroke="midnightblue" d="M271.17,-287.48C293.81,-282.88 319.57,-277.64 342,-273.08"/>
<polygon fill="midnightblue" stroke="midnightblue" points="342.95,-276.46 352.05,-271.04 341.56,-269.6 342.95,-276.46"/>
</g>
<!-- Node18 -->
<g id="node18" class="node">
<title>Node18</title>
<g id="a_node18"><a xlink:href="class_block.html#aed17e0cb13b8eea50fe735ba05204da9" target="_top" xlink:title="Metoda zwracajaca nazwe pliku z wzorcowa bryla">
<polygon fill="none" stroke="black" points="330,-214 330,-233 470,-233 470,-214 330,-214"/>
<text text-anchor="middle" x="400" y="-221" font-family="Helvetica,sans-Serif" font-size="10.00">Block::get_sample_name</text>
</a>
</g>
</g>
<!-- Node13&#45;&gt;Node18 -->
<g id="edge19" class="edge">
<title>Node13&#45;&gt;Node18</title>
<path fill="none" stroke="midnightblue" d="M256.71,-284.4C263.36,-281.49 270,-278.18 276,-274.5 294.26,-263.32 292.92,-252.21 312,-242.5 316.62,-240.15 321.52,-238.09 326.55,-236.28"/>
<polygon fill="midnightblue" stroke="midnightblue" points="327.9,-239.52 336.34,-233.11 325.74,-232.86 327.9,-239.52"/>
</g>
<!-- Node19 -->
<g id="node19" class="node">
<title>Node19</title>
<g id="a_node19"><a xlink:href="class_prism.html#a2de0dab6d117fc3c8dcbc3c384d0fccd" target="_top" xlink:title=" ">
<polygon fill="none" stroke="black" points="342,-290 342,-309 458,-309 458,-290 342,-290"/>
<text text-anchor="middle" x="400" y="-297" font-family="Helvetica,sans-Serif" font-size="10.00">Prism::Prism_To_File</text>
</a>
</g>
</g>
<!-- Node13&#45;&gt;Node19 -->
<g id="edge20" class="edge">
<title>Node13&#45;&gt;Node19</title>
<path fill="none" stroke="midnightblue" d="M271.17,-299.5C290.39,-299.5 311.87,-299.5 331.65,-299.5"/>
<polygon fill="midnightblue" stroke="midnightblue" points="331.81,-303 341.81,-299.5 331.81,-296 331.81,-303"/>
</g>
<!-- Node15 -->
<g id="node15" class="node">
<title>Node15</title>
<g id="a_node15"><a xlink:href="class_cuboid.html#a12a97376443b1a15ae8342c1c75b3e1e" target="_top" xlink:title="Metoda wypisania odpowiednich wierzcholkow do pliku zgodnie z zaproponowanym sposobem zadaniu dron">
<polygon fill="none" stroke="black" points="529,-328 529,-347 664,-347 664,-328 529,-328"/>
<text text-anchor="middle" x="596.5" y="-335" font-family="Helvetica,sans-Serif" font-size="10.00">Cuboid::print_cuboid_3D</text>
</a>
</g>
</g>
<!-- Node14&#45;&gt;Node15 -->
<g id="edge15" class="edge">
<title>Node14&#45;&gt;Node15</title>
<path fill="none" stroke="midnightblue" d="M464.15,-337.5C481.57,-337.5 500.66,-337.5 518.76,-337.5"/>
<polygon fill="midnightblue" stroke="midnightblue" points="518.99,-341 528.99,-337.5 518.99,-334 518.99,-341"/>
</g>
<!-- Node16 -->
<g id="node16" class="node">
<title>Node16</title>
<g id="a_node16"><a xlink:href="class_vector.html#ab2bb1182cee2389eda163fb7b767f36d" target="_top" xlink:title="Zwraca wektor do tablicy o rozmiarze SIZE &#160;&#160;Argumenty:">
<polygon fill="none" stroke="black" points="727.5,-309 727.5,-328 819.5,-328 819.5,-309 727.5,-309"/>
<text text-anchor="middle" x="773.5" y="-316" font-family="Helvetica,sans-Serif" font-size="10.00">Vector::get_vec</text>
</a>
</g>
</g>
<!-- Node15&#45;&gt;Node16 -->
<g id="edge16" class="edge">
<title>Node15&#45;&gt;Node16</title>
<path fill="none" stroke="midnightblue" d="M664.16,-330.26C681.68,-328.36 700.38,-326.33 717.23,-324.5"/>
<polygon fill="midnightblue" stroke="midnightblue" points="717.89,-327.95 727.45,-323.39 717.13,-320.99 717.89,-327.95"/>
</g>
<!-- Node20 -->
<g id="node20" class="node">
<title>Node20</title>
<g id="a_node20"><a xlink:href="class_prism.html#a764c6940e4fb65303981e8b877b28561" target="_top" xlink:title="Metoda wypisania odpowiednich wierzcholkow do pliku zgodnie z zaproponowanym sposobem zadaniu dron">
<polygon fill="none" stroke="black" points="534,-290 534,-309 659,-309 659,-290 534,-290"/>
<text text-anchor="middle" x="596.5" y="-297" font-family="Helvetica,sans-Serif" font-size="10.00">Prism::print_prism_3D</text>
</a>
</g>
</g>
<!-- Node19&#45;&gt;Node20 -->
<g id="edge21" class="edge">
<title>Node19&#45;&gt;Node20</title>
<path fill="none" stroke="midnightblue" d="M458.04,-299.5C478.56,-299.5 501.97,-299.5 523.59,-299.5"/>
<polygon fill="midnightblue" stroke="midnightblue" points="523.7,-303 533.7,-299.5 523.7,-296 523.7,-303"/>
</g>
<!-- Node20&#45;&gt;Node16 -->
<g id="edge22" class="edge">
<title>Node20&#45;&gt;Node16</title>
<path fill="none" stroke="midnightblue" d="M659.2,-306.2C678.13,-308.25 698.83,-310.5 717.3,-312.51"/>
<polygon fill="midnightblue" stroke="midnightblue" points="716.98,-315.99 727.3,-313.59 717.74,-309.03 716.98,-315.99"/>
</g>
</g>
</svg>
        <g id="navigator" transform="translate(0 0)" fill="#404254">
                <rect fill="#f2f5e9" fill-opacity="0.5" stroke="#606060" stroke-width=".5" x="0" y="0" width="60" height="60"/>
                <use id="zoomplus" xlink:href="#zoomPlus" x="17" y="9" onmousedown="handleZoom(evt,'in')"/>
                <use id="zoomminus" xlink:href="#zoomMin" x="42" y="9" onmousedown="handleZoom(evt,'out')"/>
                <use id="reset" xlink:href="#resetDef" x="30" y="36" onmousedown="handleReset()"/>
                <g id="arrowUp" xlink:href="#dirArrow" transform="translate(30 24)" onmousedown="handlePan(0,-1)">
                  <use xlink:href="#rim" fill="#404040">
                        <set attributeName="fill" to="#808080" begin="arrowUp.mouseover" end="arrowUp.mouseout"/>
                  </use>
                  <path fill="none" stroke="white" stroke-width="1.5" d="M0,-3.0v7 M-2.5,-0.5L0,-3.0L2.5,-0.5"/>
                </g>
                <g id="arrowRight" xlink:href="#dirArrow" transform="rotate(90) translate(36 -43)" onmousedown="handlePan(1,0)">
                  <use xlink:href="#rim" fill="#404040">
                        <set attributeName="fill" to="#808080" begin="arrowRight.mouseover" end="arrowRight.mouseout"/>
                  </use>
                  <path fill="none" stroke="white" stroke-width="1.5" d="M0,-3.0v7 M-2.5,-0.5L0,-3.0L2.5,-0.5"/>
                </g>
                <g id="arrowDown" xlink:href="#dirArrow" transform="rotate(180) translate(-30 -48)" onmousedown="handlePan(0,1)">
                  <use xlink:href="#rim" fill="#404040">
                        <set attributeName="fill" to="#808080" begin="arrowDown.mouseover" end="arrowDown.mouseout"/>
                  </use>
                  <path fill="none" stroke="white" stroke-width="1.5" d="M0,-3.0v7 M-2.5,-0.5L0,-3.0L2.5,-0.5"/>
                </g>
                <g id="arrowLeft" xlink:href="#dirArrow" transform="rotate(270) translate(-36 17)" onmousedown="handlePan(-1,0)">
                  <use xlink:href="#rim" fill="#404040">
                        <set attributeName="fill" to="#808080" begin="arrowLeft.mouseover" end="arrowLeft.mouseout"/>
                  </use>
                  <path fill="none" stroke="white" stroke-width="1.5" d="M0,-3.0v7 M-2.5,-0.5L0,-3.0L2.5,-0.5"/>
                </g>
        </g>
        <svg viewBox="0 0 15 15" width="100%" height="30px" preserveAspectRatio="xMaxYMin meet">
         <g id="arrow_out" transform="scale(0.3 0.3)">
          <a xlink:href="class_scene_ae4468d0e93e36895e970d61abd760fba_cgraph_org.svg" target="_base">
           <rect id="button" ry="5" rx="5" y="6" x="6" height="38" width="38"
                fill="#f2f5e9" fill-opacity="0.5" stroke="#606060" stroke-width="1.0"/>
           <path id="arrow"
             d="M 11.500037,31.436501 C 11.940474,20.09759 22.043105,11.32322 32.158766,21.979434 L 37.068811,17.246167 C 37.068811,17.246167 37.088388,32 37.088388,32 L 22.160133,31.978069 C 22.160133,31.978069 26.997745,27.140456 26.997745,27.140456 C 18.528582,18.264221 13.291696,25.230495 11.500037,31.436501 z"
             style="fill:#404040;"/>
          </a>
         </g>
        </svg>
</svg>
