<?xml version="1.0" encoding="UTF-8" standalone="no"?>
<!DOCTYPE svg PUBLIC "-//W3C//DTD SVG 1.1//EN"
 "http://www.w3.org/Graphics/SVG/1.1/DTD/svg11.dtd">
<!-- Generated by graphviz version 2.43.0 (0)
 -->
<!-- Title: Drone::Rotors_rotation_animation Pages: 1 -->
<svg width="787pt" height="230pt"
 viewBox="0.00 0.00 787.00 230.00" xmlns="http://www.w3.org/2000/svg" xmlns:xlink="http://www.w3.org/1999/xlink">
<g id="graph0" class="graph" transform="scale(1 1) rotate(0) translate(4 226)">
<title>Drone::Rotors_rotation_animation</title>
<!-- Node1 -->
<g id="node1" class="node">
<title>Node1</title>
<g id="a_node1"><a xlink:title="Metoda animujaca obrot rotorow i zapisujaca to w plikach. Metoda sluzy jako metoda pomocnicza,...">
<polygon fill="#bfbfbf" stroke="black" points="0,-55 0,-85 127,-85 127,-55 0,-55"/>
<text text-anchor="start" x="8" y="-73" font-family="Helvetica,sans-Serif" font-size="10.00">Drone::Rotors_rotation</text>
<text text-anchor="middle" x="63.5" y="-62" font-family="Helvetica,sans-Serif" font-size="10.00">_animation</text>
</a>
</g>
</g>
<!-- Node2 -->
<g id="node2" class="node">
<title>Node2</title>
<g id="a_node2"><a xlink:href="class_drone.html#aae0029f50083a01fe75c7d504c2fe5b9" target="_top" xlink:title="Metoda zapisujaca parametry drona do plikow (do plikow final kazdego z elementow)">
<polygon fill="none" stroke="black" points="180.5,-140 180.5,-170 295.5,-170 295.5,-140 180.5,-140"/>
<text text-anchor="start" x="188.5" y="-158" font-family="Helvetica,sans-Serif" font-size="10.00">Drone::Print_to_files</text>
<text text-anchor="middle" x="238" y="-147" font-family="Helvetica,sans-Serif" font-size="10.00">_drone</text>
</a>
</g>
</g>
<!-- Node1&#45;&gt;Node2 -->
<g id="edge1" class="edge">
<title>Node1&#45;&gt;Node2</title>
<path fill="none" stroke="midnightblue" d="M94.94,-85C123.34,-98.99 165.89,-119.96 197.02,-135.3"/>
<polygon fill="midnightblue" stroke="midnightblue" points="195.76,-138.58 206.28,-139.86 198.86,-132.3 195.76,-138.58"/>
</g>
<!-- Node9 -->
<g id="node9" class="node">
<title>Node9</title>
<g id="a_node9"><a xlink:href="class_prism.html#a22c5467db5d960bddbaf9a52f55c55cb" target="_top" xlink:title="Metoda obracajaca graniastoslup o zadany kat w 3D wokol srodka figury">
<polygon fill="none" stroke="black" points="163,-60.5 163,-79.5 313,-79.5 313,-60.5 163,-60.5"/>
<text text-anchor="middle" x="238" y="-67.5" font-family="Helvetica,sans-Serif" font-size="10.00">Prism::rotation_around_cen</text>
</a>
</g>
</g>
<!-- Node1&#45;&gt;Node9 -->
<g id="edge9" class="edge">
<title>Node1&#45;&gt;Node9</title>
<path fill="none" stroke="midnightblue" d="M127.26,-70C135.57,-70 144.2,-70 152.79,-70"/>
<polygon fill="midnightblue" stroke="midnightblue" points="152.85,-73.5 162.85,-70 152.85,-66.5 152.85,-73.5"/>
</g>
<!-- Node13 -->
<g id="node13" class="node">
<title>Node13</title>
<g id="a_node13"><a xlink:href="class_matrix.html#a4161a82fb401e474052c21b25a06a5ba" target="_top" xlink:title=" ">
<polygon fill="none" stroke="black" points="173,-22.5 173,-41.5 303,-41.5 303,-22.5 173,-22.5"/>
<text text-anchor="middle" x="238" y="-29.5" font-family="Helvetica,sans-Serif" font-size="10.00">Matrix::rotation_matrix</text>
</a>
</g>
</g>
<!-- Node1&#45;&gt;Node13 -->
<g id="edge14" class="edge">
<title>Node1&#45;&gt;Node13</title>
<path fill="none" stroke="midnightblue" d="M127.26,-56.17C145.71,-52.11 165.7,-47.71 183.5,-43.79"/>
<polygon fill="midnightblue" stroke="midnightblue" points="184.69,-47.11 193.7,-41.54 183.18,-40.27 184.69,-47.11"/>
</g>
<!-- Node3 -->
<g id="node3" class="node">
<title>Node3</title>
<g id="a_node3"><a xlink:href="class_cuboid.html#abc62d20a2f1418af1c35e369da77f0fc" target="_top" xlink:title=" ">
<polygon fill="none" stroke="black" points="350.5,-202.5 350.5,-221.5 478.5,-221.5 478.5,-202.5 350.5,-202.5"/>
<text text-anchor="middle" x="414.5" y="-209.5" font-family="Helvetica,sans-Serif" font-size="10.00">Cuboid::Cuboid_To_File</text>
</a>
</g>
</g>
<!-- Node2&#45;&gt;Node3 -->
<g id="edge2" class="edge">
<title>Node2&#45;&gt;Node3</title>
<path fill="none" stroke="midnightblue" d="M281.16,-170.07C301.57,-177.24 326.48,-185.8 349,-193 355.72,-195.15 362.87,-197.34 369.86,-199.44"/>
<polygon fill="midnightblue" stroke="midnightblue" points="369.35,-202.94 379.93,-202.43 371.34,-196.23 369.35,-202.94"/>
</g>
<!-- Node6 -->
<g id="node6" class="node">
<title>Node6</title>
<g id="a_node6"><a xlink:href="class_block.html#aeef4dd3716afaea42688a4f96456ce27" target="_top" xlink:title="Metoda zwracajaca nazwe pliku z finalna (robocza) bryla">
<polygon fill="none" stroke="black" points="352,-164.5 352,-183.5 477,-183.5 477,-164.5 352,-164.5"/>
<text text-anchor="middle" x="414.5" y="-171.5" font-family="Helvetica,sans-Serif" font-size="10.00">Block::get_final_name</text>
</a>
</g>
</g>
<!-- Node2&#45;&gt;Node6 -->
<g id="edge5" class="edge">
<title>Node2&#45;&gt;Node6</title>
<path fill="none" stroke="midnightblue" d="M295.66,-161.17C310.35,-162.77 326.37,-164.51 341.73,-166.19"/>
<polygon fill="midnightblue" stroke="midnightblue" points="341.39,-169.67 351.71,-167.27 342.14,-162.71 341.39,-169.67"/>
</g>
<!-- Node7 -->
<g id="node7" class="node">
<title>Node7</title>
<g id="a_node7"><a xlink:href="class_prism.html#a2de0dab6d117fc3c8dcbc3c384d0fccd" target="_top" xlink:title=" ">
<polygon fill="none" stroke="black" points="356.5,-126.5 356.5,-145.5 472.5,-145.5 472.5,-126.5 356.5,-126.5"/>
<text text-anchor="middle" x="414.5" y="-133.5" font-family="Helvetica,sans-Serif" font-size="10.00">Prism::Prism_To_File</text>
</a>
</g>
</g>
<!-- Node2&#45;&gt;Node7 -->
<g id="edge6" class="edge">
<title>Node2&#45;&gt;Node7</title>
<path fill="none" stroke="midnightblue" d="M295.66,-148.83C311.73,-147.08 329.38,-145.16 346.02,-143.35"/>
<polygon fill="midnightblue" stroke="midnightblue" points="346.67,-146.8 356.23,-142.24 345.91,-139.84 346.67,-146.8"/>
</g>
<!-- Node4 -->
<g id="node4" class="node">
<title>Node4</title>
<g id="a_node4"><a xlink:href="class_cuboid.html#a12a97376443b1a15ae8342c1c75b3e1e" target="_top" xlink:title="Metoda wypisania odpowiednich wierzcholkow do pliku zgodnie z zaproponowanym sposobem zadaniu dron">
<polygon fill="none" stroke="black" points="516,-192.5 516,-211.5 651,-211.5 651,-192.5 516,-192.5"/>
<text text-anchor="middle" x="583.5" y="-199.5" font-family="Helvetica,sans-Serif" font-size="10.00">Cuboid::print_cuboid_3D</text>
</a>
</g>
</g>
<!-- Node3&#45;&gt;Node4 -->
<g id="edge3" class="edge">
<title>Node3&#45;&gt;Node4</title>
<path fill="none" stroke="midnightblue" d="M478.64,-208.22C487.49,-207.69 496.68,-207.14 505.76,-206.6"/>
<polygon fill="midnightblue" stroke="midnightblue" points="506.16,-210.08 515.93,-205.99 505.74,-203.09 506.16,-210.08"/>
</g>
<!-- Node5 -->
<g id="node5" class="node">
<title>Node5</title>
<g id="a_node5"><a xlink:href="class_vector.html#ab2bb1182cee2389eda163fb7b767f36d" target="_top" xlink:title="Zwraca wektor do tablicy o rozmiarze SIZE &#160;&#160;Argumenty:">
<polygon fill="none" stroke="black" points="687,-163.5 687,-182.5 779,-182.5 779,-163.5 687,-163.5"/>
<text text-anchor="middle" x="733" y="-170.5" font-family="Helvetica,sans-Serif" font-size="10.00">Vector::get_vec</text>
</a>
</g>
</g>
<!-- Node4&#45;&gt;Node5 -->
<g id="edge4" class="edge">
<title>Node4&#45;&gt;Node5</title>
<path fill="none" stroke="midnightblue" d="M633.21,-192.42C647.12,-189.69 662.37,-186.69 676.65,-183.88"/>
<polygon fill="midnightblue" stroke="midnightblue" points="677.7,-187.24 686.84,-181.88 676.35,-180.37 677.7,-187.24"/>
</g>
<!-- Node8 -->
<g id="node8" class="node">
<title>Node8</title>
<g id="a_node8"><a xlink:href="class_prism.html#a764c6940e4fb65303981e8b877b28561" target="_top" xlink:title="Metoda wypisania odpowiednich wierzcholkow do pliku zgodnie z zaproponowanym sposobem zadaniu dron">
<polygon fill="none" stroke="black" points="521,-135.5 521,-154.5 646,-154.5 646,-135.5 521,-135.5"/>
<text text-anchor="middle" x="583.5" y="-142.5" font-family="Helvetica,sans-Serif" font-size="10.00">Prism::print_prism_3D</text>
</a>
</g>
</g>
<!-- Node7&#45;&gt;Node8 -->
<g id="edge7" class="edge">
<title>Node7&#45;&gt;Node8</title>
<path fill="none" stroke="midnightblue" d="M472.5,-139.07C484.81,-139.74 497.97,-140.44 510.75,-141.13"/>
<polygon fill="midnightblue" stroke="midnightblue" points="510.72,-144.64 520.9,-141.68 511.1,-137.65 510.72,-144.64"/>
</g>
<!-- Node8&#45;&gt;Node5 -->
<g id="edge8" class="edge">
<title>Node8&#45;&gt;Node5</title>
<path fill="none" stroke="midnightblue" d="M634.85,-154.56C648.41,-157.13 663.16,-159.93 676.97,-162.55"/>
<polygon fill="midnightblue" stroke="midnightblue" points="676.35,-166 686.82,-164.42 677.65,-159.12 676.35,-166"/>
</g>
<!-- Node10 -->
<g id="node10" class="node">
<title>Node10</title>
<g id="a_node10"><a xlink:href="class_matrix.html#ad6df418144dfdc3236f990dc3fb0a50a" target="_top" xlink:title=" ">
<polygon fill="none" stroke="black" points="355,-77 355,-107 474,-107 474,-77 355,-77"/>
<text text-anchor="start" x="363" y="-95" font-family="Helvetica,sans-Serif" font-size="10.00">Matrix::apply_matrix</text>
<text text-anchor="middle" x="414.5" y="-84" font-family="Helvetica,sans-Serif" font-size="10.00">_to_rotation</text>
</a>
</g>
</g>
<!-- Node9&#45;&gt;Node10 -->
<g id="edge10" class="edge">
<title>Node9&#45;&gt;Node10</title>
<path fill="none" stroke="midnightblue" d="M313,-79.33C323.63,-80.67 334.53,-82.04 345.05,-83.37"/>
<polygon fill="midnightblue" stroke="midnightblue" points="344.63,-86.84 354.99,-84.62 345.51,-79.9 344.63,-86.84"/>
</g>
<!-- Node11 -->
<g id="node11" class="node">
<title>Node11</title>
<g id="a_node11"><a xlink:href="class_prism.html#ade146d341c0468030f8c1258b7fe1041" target="_top" xlink:title="Metoda przesuwajaca graniastoslup o zadany wektor w 3D">
<polygon fill="none" stroke="black" points="532,-19.5 532,-38.5 635,-38.5 635,-19.5 532,-19.5"/>
<text text-anchor="middle" x="583.5" y="-26.5" font-family="Helvetica,sans-Serif" font-size="10.00">Prism::translation</text>
</a>
</g>
</g>
<!-- Node9&#45;&gt;Node11 -->
<g id="edge11" class="edge">
<title>Node9&#45;&gt;Node11</title>
<path fill="none" stroke="midnightblue" d="M313.11,-61.15C375.44,-53.71 463.46,-43.21 521.71,-36.26"/>
<polygon fill="midnightblue" stroke="midnightblue" points="522.35,-39.7 531.86,-35.04 521.52,-32.75 522.35,-39.7"/>
</g>
<!-- Node12 -->
<g id="node12" class="node">
<title>Node12</title>
<g id="a_node12"><a xlink:href="class_prism.html#afed2c26932d5cb152fd620d2acbfbc3e" target="_top" xlink:title="Metoda przesuwajaca graniastoslup do srodka ukladu wspolrzednych (tak, ze srodek graniastoslupa pokry...">
<polygon fill="none" stroke="black" points="349,-0.5 349,-19.5 480,-19.5 480,-0.5 349,-0.5"/>
<text text-anchor="middle" x="414.5" y="-7.5" font-family="Helvetica,sans-Serif" font-size="10.00">Prism::translation_to_O</text>
</a>
</g>
</g>
<!-- Node9&#45;&gt;Node12 -->
<g id="edge12" class="edge">
<title>Node9&#45;&gt;Node12</title>
<path fill="none" stroke="midnightblue" d="M282.07,-60.41C292.32,-57.73 303.14,-54.56 313,-51 329.64,-44.99 332.69,-40.87 349,-34 357.89,-30.25 367.6,-26.48 376.71,-23.07"/>
<polygon fill="midnightblue" stroke="midnightblue" points="378.14,-26.28 386.31,-19.54 375.72,-19.71 378.14,-26.28"/>
</g>
<!-- Node12&#45;&gt;Node11 -->
<g id="edge13" class="edge">
<title>Node12&#45;&gt;Node11</title>
<path fill="none" stroke="midnightblue" d="M480.07,-17.35C493.74,-18.9 508.14,-20.54 521.67,-22.08"/>
<polygon fill="midnightblue" stroke="midnightblue" points="521.49,-25.58 531.83,-23.23 522.28,-18.63 521.49,-25.58"/>
</g>
</g>
</svg>
