<?xml version="1.0" encoding="UTF-8" standalone="no"?>
<!DOCTYPE svg PUBLIC "-//W3C//DTD SVG 1.1//EN"
 "http://www.w3.org/Graphics/SVG/1.1/DTD/svg11.dtd">
<!-- Generated by graphviz version 2.43.0 (0)
 -->
<!-- Title: Prism::scale_pri Pages: 1 -->
<svg width="353pt" height="66pt"
 viewBox="0.00 0.00 353.00 66.00" xmlns="http://www.w3.org/2000/svg" xmlns:xlink="http://www.w3.org/1999/xlink">
<g id="graph0" class="graph" transform="scale(1 1) rotate(0) translate(4 62)">
<title>Prism::scale_pri</title>
<!-- Node1 -->
<g id="node1" class="node">
<title>Node1</title>
<g id="a_node1"><a xlink:title="Metoda skalujaca o wektor scale bedacy czlonkiem klasy block">
<polygon fill="#bfbfbf" stroke="black" points="251,-19.5 251,-38.5 345,-38.5 345,-19.5 251,-19.5"/>
<text text-anchor="middle" x="298" y="-26.5" font-family="Helvetica,sans-Serif" font-size="10.00">Prism::scale_pri</text>
</a>
</g>
</g>
<!-- Node2 -->
<g id="node2" class="node">
<title>Node2</title>
<g id="a_node2"><a xlink:href="class_drone.html#ab692baa4be5c43b72990ce1b01bdc805" target="_top" xlink:title="Konstruktor bezparametryczny klasy Drone. Powstaly dron jest skonstruowany z bezparametrycznych prost...">
<polygon fill="none" stroke="black" points="125.5,-38.5 125.5,-57.5 206.5,-57.5 206.5,-38.5 125.5,-38.5"/>
<text text-anchor="middle" x="166" y="-45.5" font-family="Helvetica,sans-Serif" font-size="10.00">Drone::Drone</text>
</a>
</g>
</g>
<!-- Node1&#45;&gt;Node2 -->
<g id="edge1" class="edge">
<title>Node1&#45;&gt;Node2</title>
<path fill="none" stroke="midnightblue" d="M240.81,-37.21C229.28,-38.9 217.38,-40.64 206.59,-42.21"/>
<polygon fill="midnightblue" stroke="midnightblue" points="241.41,-40.66 250.8,-35.75 240.4,-33.74 241.41,-40.66"/>
</g>
<!-- Node3 -->
<g id="node3" class="node">
<title>Node3</title>
<g id="a_node3"><a xlink:href="class_drone.html#a77142062fb8a8af87df42b5c2e7e44e0" target="_top" xlink:title="Metoda skalujaca wszystkie elementy drona przez skale kazdego elementu">
<polygon fill="none" stroke="black" points="117,-0.5 117,-19.5 215,-19.5 215,-0.5 117,-0.5"/>
<text text-anchor="middle" x="166" y="-7.5" font-family="Helvetica,sans-Serif" font-size="10.00">Drone::scale_dro</text>
</a>
</g>
</g>
<!-- Node1&#45;&gt;Node3 -->
<g id="edge2" class="edge">
<title>Node1&#45;&gt;Node3</title>
<path fill="none" stroke="midnightblue" d="M240.9,-20.8C232.36,-19.55 223.61,-18.27 215.25,-17.05"/>
<polygon fill="midnightblue" stroke="midnightblue" points="240.4,-24.26 250.8,-22.25 241.41,-17.34 240.4,-24.26"/>
</g>
<!-- Node4 -->
<g id="node4" class="node">
<title>Node4</title>
<g id="a_node4"><a xlink:href="class_scene.html#a22d8bf855d72be0064265c93562b6bb1" target="_top" xlink:title="Konstruktor paramereyczny klasy Scene.">
<polygon fill="none" stroke="black" points="0,-0.5 0,-19.5 81,-19.5 81,-0.5 0,-0.5"/>
<text text-anchor="middle" x="40.5" y="-7.5" font-family="Helvetica,sans-Serif" font-size="10.00">Scene::Scene</text>
</a>
</g>
</g>
<!-- Node3&#45;&gt;Node4 -->
<g id="edge3" class="edge">
<title>Node3&#45;&gt;Node4</title>
<path fill="none" stroke="midnightblue" d="M106.83,-10C98.18,-10 89.44,-10 81.29,-10"/>
<polygon fill="midnightblue" stroke="midnightblue" points="106.9,-13.5 116.9,-10 106.9,-6.5 106.9,-13.5"/>
</g>
</g>
</svg>
