<?xml version="1.0" encoding="UTF-8" standalone="no"?>
<!DOCTYPE svg PUBLIC "-//W3C//DTD SVG 1.1//EN"
 "http://www.w3.org/Graphics/SVG/1.1/DTD/svg11.dtd">
<!-- Generated by graphviz version 2.43.0 (0)
 -->
<!-- Title: Menu_cub::assert Pages: 1 -->
<svg width="440pt" height="47pt"
 viewBox="0.00 0.00 440.00 47.00" xmlns="http://www.w3.org/2000/svg" xmlns:xlink="http://www.w3.org/1999/xlink">
<g id="graph0" class="graph" transform="scale(1 1) rotate(0) translate(4 43)">
<title>Menu_cub::assert</title>
<!-- Node1 -->
<g id="node1" class="node">
<title>Node1</title>
<g id="a_node1"><a xlink:title="Sprawdza i wyswietla wszelkie asercje odnosnie prostopadloscianu Argumenty:">
<polygon fill="#bfbfbf" stroke="black" points="330,-19.5 330,-38.5 432,-38.5 432,-19.5 330,-19.5"/>
<text text-anchor="middle" x="381" y="-26.5" font-family="Helvetica,sans-Serif" font-size="10.00">Menu_cub::assert</text>
</a>
</g>
</g>
<!-- Node2 -->
<g id="node2" class="node">
<title>Node2</title>
<g id="a_node2"><a xlink:href="class_menu__cub.html#ab8ed88bc956ac7bdfe7db0807085f7cd" target="_top" xlink:title="Inicjuje menu Argumenty:">
<polygon fill="none" stroke="black" points="0,-19.5 0,-38.5 121,-38.5 121,-19.5 0,-19.5"/>
<text text-anchor="middle" x="60.5" y="-26.5" font-family="Helvetica,sans-Serif" font-size="10.00">Menu_cub::init_menu</text>
</a>
</g>
</g>
<!-- Node1&#45;&gt;Node2 -->
<g id="edge1" class="edge">
<title>Node1&#45;&gt;Node2</title>
<path fill="none" stroke="midnightblue" d="M319.59,-29C262.63,-29 177.77,-29 121.08,-29"/>
<polygon fill="midnightblue" stroke="midnightblue" points="319.88,-32.5 329.88,-29 319.88,-25.5 319.88,-32.5"/>
</g>
<!-- Node3 -->
<g id="node3" class="node">
<title>Node3</title>
<g id="a_node3"><a xlink:href="class_menu__cub.html#a20ac792d84052e50bf3fb95b1745e4df" target="_top" xlink:title="Obsluguje wybor menu Argumenty:">
<polygon fill="none" stroke="black" points="157,-0.5 157,-19.5 294,-19.5 294,-0.5 157,-0.5"/>
<text text-anchor="middle" x="225.5" y="-7.5" font-family="Helvetica,sans-Serif" font-size="10.00">Menu_cub::switch_menu</text>
</a>
</g>
</g>
<!-- Node1&#45;&gt;Node3 -->
<g id="edge2" class="edge">
<title>Node1&#45;&gt;Node3</title>
<path fill="none" stroke="midnightblue" d="M319.69,-21.53C311.31,-20.5 302.67,-19.43 294.17,-18.38"/>
<polygon fill="midnightblue" stroke="midnightblue" points="319.38,-25.02 329.74,-22.78 320.24,-18.08 319.38,-25.02"/>
</g>
<!-- Node3&#45;&gt;Node2 -->
<g id="edge3" class="edge">
<title>Node3&#45;&gt;Node2</title>
<path fill="none" stroke="midnightblue" d="M146.75,-19.06C138.17,-20.06 129.52,-21.07 121.2,-22.04"/>
<polygon fill="midnightblue" stroke="midnightblue" points="147.26,-22.53 156.79,-17.89 146.45,-15.57 147.26,-22.53"/>
</g>
</g>
</svg>
