<?xml version="1.0" encoding="UTF-8" standalone="no"?>
<!DOCTYPE svg PUBLIC "-//W3C//DTD SVG 1.1//EN"
 "http://www.w3.org/Graphics/SVG/1.1/DTD/svg11.dtd">
<!-- Generated by graphviz version 2.43.0 (0)
 -->
<!-- Title: Cuboid::rotation_around_ref Pages: 1 -->
<svg width="315pt" height="78pt"
 viewBox="0.00 0.00 315.00 77.50" xmlns="http://www.w3.org/2000/svg" xmlns:xlink="http://www.w3.org/1999/xlink">
<g id="graph0" class="graph" transform="scale(1 1) rotate(0) translate(4 73.5)">
<title>Cuboid::rotation_around_ref</title>
<!-- Node1 -->
<g id="node1" class="node">
<title>Node1</title>
<g id="a_node1"><a xlink:title="Metoda obracajaca prostopadloscian o zadany kat w 3D wokol ustalonego punktu referencji &#160;&#160;Argumenty:">
<polygon fill="#bfbfbf" stroke="black" points="0,-22.5 0,-41.5 152,-41.5 152,-22.5 0,-22.5"/>
<text text-anchor="middle" x="76" y="-29.5" font-family="Helvetica,sans-Serif" font-size="10.00">Cuboid::rotation_around_ref</text>
</a>
</g>
</g>
<!-- Node2 -->
<g id="node2" class="node">
<title>Node2</title>
<g id="a_node2"><a xlink:href="class_matrix.html#ad6df418144dfdc3236f990dc3fb0a50a" target="_top" xlink:title=" ">
<polygon fill="none" stroke="black" points="188,-39 188,-69 307,-69 307,-39 188,-39"/>
<text text-anchor="start" x="196" y="-57" font-family="Helvetica,sans-Serif" font-size="10.00">Matrix::apply_matrix</text>
<text text-anchor="middle" x="247.5" y="-46" font-family="Helvetica,sans-Serif" font-size="10.00">_to_rotation</text>
</a>
</g>
</g>
<!-- Node1&#45;&gt;Node2 -->
<g id="edge1" class="edge">
<title>Node1&#45;&gt;Node2</title>
<path fill="none" stroke="midnightblue" d="M150.36,-41.52C159.46,-42.7 168.74,-43.91 177.77,-45.08"/>
<polygon fill="midnightblue" stroke="midnightblue" points="177.46,-48.57 187.83,-46.39 178.36,-41.63 177.46,-48.57"/>
</g>
<!-- Node3 -->
<g id="node3" class="node">
<title>Node3</title>
<g id="a_node3"><a xlink:href="class_cuboid.html#a3f6b1b9ea7de433af5b0d462d29f4272" target="_top" xlink:title="Metoda przesuwajaca prostopadloscian o zadany kat w 3D &#160;&#160;Argumenty:">
<polygon fill="none" stroke="black" points="193,-0.5 193,-19.5 302,-19.5 302,-0.5 193,-0.5"/>
<text text-anchor="middle" x="247.5" y="-7.5" font-family="Helvetica,sans-Serif" font-size="10.00">Cuboid::translation</text>
</a>
</g>
</g>
<!-- Node1&#45;&gt;Node3 -->
<g id="edge2" class="edge">
<title>Node1&#45;&gt;Node3</title>
<path fill="none" stroke="midnightblue" d="M150.36,-22.48C161.21,-21.07 172.31,-19.63 182.94,-18.25"/>
<polygon fill="midnightblue" stroke="midnightblue" points="183.49,-21.71 192.96,-16.95 182.59,-14.77 183.49,-21.71"/>
</g>
</g>
</svg>
