<?xml version="1.0" encoding="UTF-8" standalone="no"?>
<!DOCTYPE svg PUBLIC "-//W3C//DTD SVG 1.1//EN"
 "http://www.w3.org/Graphics/SVG/1.1/DTD/svg11.dtd">
<!-- Generated by graphviz version 2.43.0 (0)
 -->
<!-- Title: PzG::LaczeDoGNUPlota::DodajNazwePliku Pages: 1 -->
<!--zoomable 230 -->
<svg id="main" version="1.1" xmlns="http://www.w3.org/2000/svg" xmlns:xlink="http://www.w3.org/1999/xlink" xml:space="preserve" onload="init(evt)">
<style type="text/css"><![CDATA[
.edge:hover path { stroke: red; }
.edge:hover polygon { stroke: red; fill: red; }
]]></style>
<script type="text/javascript"><![CDATA[
var edges = document.getElementsByTagName('g');
if (edges && edges.length) {
  for (var i=0;i<edges.length;i++) {
    if (edges[i].id.substr(0,4)=='edge') {
      edges[i].setAttribute('class','edge');
    }
  }
}
]]></script>
        <defs>
                <circle id="rim" cx="0" cy="0" r="7"/>
                <circle id="rim2" cx="0" cy="0" r="3.5"/>
                <g id="zoomPlus">
                        <use xlink:href="#rim" fill="#404040">
                                <set attributeName="fill" to="#808080" begin="zoomplus.mouseover" end="zoomplus.mouseout"/>
                        </use>
                        <path d="M-4,0h8M0,-4v8" fill="none" stroke="white" stroke-width="1.5" pointer-events="none"/>
                </g>
                <g id="zoomMin">
                        <use xlink:href="#rim" fill="#404040">
                                <set attributeName="fill" to="#808080" begin="zoomminus.mouseover" end="zoomminus.mouseout"/>
                        </use>
                        <path d="M-4,0h8" fill="none" stroke="white" stroke-width="1.5" pointer-events="none"/>
                </g>
                <g id="dirArrow">
                        <path fill="none" stroke="white" stroke-width="1.5" d="M0,-3.0v7 M-2.5,-0.5L0,-3.0L2.5,-0.5"/>
                </g>
               <g id="resetDef">
                       <use xlink:href="#rim2" fill="#404040">
                               <set attributeName="fill" to="#808080" begin="reset.mouseover" end="reset.mouseout"/>
                       </use>
               </g>
        </defs>

<script type="text/javascript">
var viewWidth = 629;
var viewHeight = 230;
var sectionId = 'dynsection-2';
</script>
<script xlink:href="svgpan.js"/>
<svg id="graph" class="graph">
<g id="viewport">
<title>PzG::LaczeDoGNUPlota::DodajNazwePliku</title>
<!-- Node1 -->
<g id="node1" class="node">
<title>Node1</title>
<g id="a_node1"><a xlink:title="Dodaje nazwę pliku.">
<polygon fill="#bfbfbf" stroke="black" points="491,-127 491,-157 621,-157 621,-127 491,-127"/>
<text text-anchor="start" x="499" y="-145" font-family="Helvetica,sans-Serif" font-size="10.00">PzG::LaczeDoGNUPlota</text>
<text text-anchor="middle" x="556" y="-134" font-family="Helvetica,sans-Serif" font-size="10.00">::DodajNazwePliku</text>
</a>
</g>
</g>
<!-- Node2 -->
<g id="node2" class="node">
<title>Node2</title>
<g id="a_node2"><a xlink:href="class_scene.html#af0103ddde1032f0abe26cefcfbdb0cac" target="_top" xlink:title="Metoda dodajaca do lacza plik z plaszczyzna.">
<polygon fill="none" stroke="black" points="332,-132.5 332,-151.5 435,-151.5 435,-132.5 332,-132.5"/>
<text text-anchor="middle" x="383.5" y="-139.5" font-family="Helvetica,sans-Serif" font-size="10.00">Scene::Add_Plane</text>
</a>
</g>
</g>
<!-- Node1&#45;&gt;Node2 -->
<g id="edge1" class="edge">
<title>Node1&#45;&gt;Node2</title>
<path fill="none" stroke="midnightblue" d="M480.13,-142C464.96,-142 449.34,-142 435.23,-142"/>
<polygon fill="midnightblue" stroke="midnightblue" points="480.54,-145.5 490.54,-142 480.54,-138.5 480.54,-145.5"/>
</g>
<!-- Node3 -->
<g id="node3" class="node">
<title>Node3</title>
<g id="a_node3"><a xlink:href="class_scene.html#ae4468d0e93e36895e970d61abd760fba" target="_top" xlink:title="Metoda inicjalizujaca lacze do gnuplota.">
<polygon fill="none" stroke="black" points="150,-176.5 150,-195.5 260,-195.5 260,-176.5 150,-176.5"/>
<text text-anchor="middle" x="205" y="-183.5" font-family="Helvetica,sans-Serif" font-size="10.00">Scene::init_gnuplot</text>
</a>
</g>
</g>
<!-- Node1&#45;&gt;Node3 -->
<g id="edge8" class="edge">
<title>Node1&#45;&gt;Node3</title>
<path fill="none" stroke="midnightblue" d="M532.15,-163.86C513.18,-180.4 484.6,-201.78 455,-211 377.22,-235.23 279.8,-210.56 233.24,-195.62"/>
<polygon fill="midnightblue" stroke="midnightblue" points="534.56,-166.4 539.67,-157.12 529.89,-161.19 534.56,-166.4"/>
</g>
<!-- Node5 -->
<g id="node5" class="node">
<title>Node5</title>
<g id="a_node5"><a xlink:href="class_drone.html#a9d09f6cd9ed8d60dfd1979b31101f400" target="_top" xlink:title="Metoda zapisujaca sciezke do pliku oraz do lacza.">
<polygon fill="none" stroke="black" points="312,-44.5 312,-63.5 455,-63.5 455,-44.5 312,-44.5"/>
<text text-anchor="middle" x="383.5" y="-51.5" font-family="Helvetica,sans-Serif" font-size="10.00">Drone::Drone_path_to_file</text>
</a>
</g>
</g>
<!-- Node1&#45;&gt;Node5 -->
<g id="edge4" class="edge">
<title>Node1&#45;&gt;Node5</title>
<path fill="none" stroke="midnightblue" d="M528.98,-120.34C509.63,-105.19 482.01,-85.51 455,-73 446.83,-69.22 437.77,-66.07 428.94,-63.5"/>
<polygon fill="midnightblue" stroke="midnightblue" points="526.99,-123.23 537,-126.73 531.36,-117.76 526.99,-123.23"/>
</g>
<!-- Node9 -->
<g id="node9" class="node">
<title>Node9</title>
<g id="a_node9"><a xlink:href="class_drone.html#a577871807280aab8d9c0d4e45b435ec4" target="_top" xlink:title="Metoda rysujaca drona w gnuplocie. Przeznaczona do testow">
<polygon fill="none" stroke="black" points="318,-83 318,-113 449,-113 449,-83 318,-83"/>
<text text-anchor="start" x="326" y="-101" font-family="Helvetica,sans-Serif" font-size="10.00">Drone::Print_to_gnuplot</text>
<text text-anchor="middle" x="383.5" y="-90" font-family="Helvetica,sans-Serif" font-size="10.00">_drone</text>
</a>
</g>
</g>
<!-- Node1&#45;&gt;Node9 -->
<g id="edge9" class="edge">
<title>Node1&#45;&gt;Node9</title>
<path fill="none" stroke="midnightblue" d="M486.82,-124.41C472.22,-120.64 456.92,-116.69 442.73,-113.03"/>
<polygon fill="midnightblue" stroke="midnightblue" points="486.24,-127.87 496.8,-126.98 487.99,-121.09 486.24,-127.87"/>
</g>
<!-- Node10 -->
<g id="node10" class="node">
<title>Node10</title>
<g id="a_node10"><a xlink:href="class_drone.html#a63898ba4cc161710cf08f7b578f3d90f" target="_top" xlink:title="Metoda ustawiajaca nazwy plikow w laczy do gnuplota (nazwy final!)">
<polygon fill="none" stroke="black" points="323.5,-171 323.5,-201 443.5,-201 443.5,-171 323.5,-171"/>
<text text-anchor="start" x="331.5" y="-189" font-family="Helvetica,sans-Serif" font-size="10.00">Drone::set_filenames</text>
<text text-anchor="middle" x="383.5" y="-178" font-family="Helvetica,sans-Serif" font-size="10.00">_gnuplot</text>
</a>
</g>
</g>
<!-- Node1&#45;&gt;Node10 -->
<g id="edge10" class="edge">
<title>Node1&#45;&gt;Node10</title>
<path fill="none" stroke="midnightblue" d="M486.82,-159.59C472.22,-163.36 456.92,-167.31 442.73,-170.97"/>
<polygon fill="midnightblue" stroke="midnightblue" points="487.99,-162.91 496.8,-157.02 486.24,-156.13 487.99,-162.91"/>
</g>
<!-- Node2&#45;&gt;Node3 -->
<g id="edge2" class="edge">
<title>Node2&#45;&gt;Node3</title>
<path fill="none" stroke="midnightblue" d="M334.49,-153.97C306.12,-161.04 270.69,-169.87 244.22,-176.47"/>
<polygon fill="midnightblue" stroke="midnightblue" points="335.35,-157.36 344.2,-151.55 333.65,-150.57 335.35,-157.36"/>
</g>
<!-- Node4 -->
<g id="node4" class="node">
<title>Node4</title>
<g id="a_node4"><a xlink:href="class_menu.html#af7e6a49bd56499facef9cc98561ea169" target="_top" xlink:title="Inicjuje i obsluguje menu.">
<polygon fill="none" stroke="black" points="0,-176.5 0,-195.5 98,-195.5 98,-176.5 0,-176.5"/>
<text text-anchor="middle" x="49" y="-183.5" font-family="Helvetica,sans-Serif" font-size="10.00">Menu::init_menu</text>
</a>
</g>
</g>
<!-- Node3&#45;&gt;Node4 -->
<g id="edge3" class="edge">
<title>Node3&#45;&gt;Node4</title>
<path fill="none" stroke="midnightblue" d="M139.3,-186C125.52,-186 111.2,-186 98.17,-186"/>
<polygon fill="midnightblue" stroke="midnightblue" points="139.71,-189.5 149.71,-186 139.71,-182.5 139.71,-189.5"/>
</g>
<!-- Node6 -->
<g id="node6" class="node">
<title>Node6</title>
<g id="a_node6"><a xlink:href="class_drone.html#ac4d24c27fb2c107d2e8bda0c2bf5cfa1" target="_top" xlink:title="Metoda obliczajaca i przeprowadzajaca caly ruch drona (obrot o kat i przelot z zadania 5....">
<polygon fill="none" stroke="black" points="149,-39 149,-69 261,-69 261,-39 149,-39"/>
<text text-anchor="start" x="157" y="-57" font-family="Helvetica,sans-Serif" font-size="10.00">Drone::Drone_basic</text>
<text text-anchor="middle" x="205" y="-46" font-family="Helvetica,sans-Serif" font-size="10.00">_motion</text>
</a>
</g>
</g>
<!-- Node5&#45;&gt;Node6 -->
<g id="edge5" class="edge">
<title>Node5&#45;&gt;Node6</title>
<path fill="none" stroke="midnightblue" d="M301.59,-54C287.92,-54 274.01,-54 261.19,-54"/>
<polygon fill="midnightblue" stroke="midnightblue" points="301.98,-57.5 311.98,-54 301.98,-50.5 301.98,-57.5"/>
</g>
<!-- Node7 -->
<g id="node7" class="node">
<title>Node7</title>
<g id="a_node7"><a xlink:href="class_drone.html#ab7808296cec81143dbddd7516340a371" target="_top" xlink:title="Metoda robiaca &quot;oblot&quot; drona wokol punktu (z modyfikacji)">
<polygon fill="none" stroke="black" points="134,-0.5 134,-19.5 276,-19.5 276,-0.5 134,-0.5"/>
<text text-anchor="middle" x="205" y="-7.5" font-family="Helvetica,sans-Serif" font-size="10.00">Drone::Drone_roundabout</text>
</a>
</g>
</g>
<!-- Node5&#45;&gt;Node7 -->
<g id="edge6" class="edge">
<title>Node5&#45;&gt;Node7</title>
<path fill="none" stroke="midnightblue" d="M334.49,-42.03C306.12,-34.96 270.69,-26.13 244.22,-19.53"/>
<polygon fill="midnightblue" stroke="midnightblue" points="333.65,-45.43 344.2,-44.45 335.35,-38.64 333.65,-45.43"/>
</g>
<!-- Node8 -->
<g id="node8" class="node">
<title>Node8</title>
<g id="a_node8"><a xlink:href="class_drone.html#a5fc9dd645ad3856b5d3c501c63c464e3" target="_top" xlink:title="Metoda animujaca translacje drona i wyrysowujaca calosc w gnuplocie.">
<polygon fill="none" stroke="black" points="135.5,-88 135.5,-118 274.5,-118 274.5,-88 135.5,-88"/>
<text text-anchor="start" x="143.5" y="-106" font-family="Helvetica,sans-Serif" font-size="10.00">Drone::Drone_translation</text>
<text text-anchor="middle" x="205" y="-95" font-family="Helvetica,sans-Serif" font-size="10.00">_animation</text>
</a>
</g>
</g>
<!-- Node5&#45;&gt;Node8 -->
<g id="edge7" class="edge">
<title>Node5&#45;&gt;Node8</title>
<path fill="none" stroke="midnightblue" d="M336.74,-66.24C328.5,-68.47 319.99,-70.79 312,-73 294.58,-77.81 275.58,-83.16 258.53,-87.99"/>
<polygon fill="midnightblue" stroke="midnightblue" points="337.87,-69.56 346.61,-63.58 336.04,-62.81 337.87,-69.56"/>
</g>
<!-- Node10&#45;&gt;Node3 -->
<g id="edge11" class="edge">
<title>Node10&#45;&gt;Node3</title>
<path fill="none" stroke="midnightblue" d="M313.02,-186C295.41,-186 276.77,-186 260.05,-186"/>
<polygon fill="midnightblue" stroke="midnightblue" points="313.24,-189.5 323.24,-186 313.24,-182.5 313.24,-189.5"/>
</g>
</g>
</svg>
        <g id="navigator" transform="translate(0 0)" fill="#404254">
                <rect fill="#f2f5e9" fill-opacity="0.5" stroke="#606060" stroke-width=".5" x="0" y="0" width="60" height="60"/>
                <use id="zoomplus" xlink:href="#zoomPlus" x="17" y="9" onmousedown="handleZoom(evt,'in')"/>
                <use id="zoomminus" xlink:href="#zoomMin" x="42" y="9" onmousedown="handleZoom(evt,'out')"/>
                <use id="reset" xlink:href="#resetDef" x="30" y="36" onmousedown="handleReset()"/>
                <g id="arrowUp" xlink:href="#dirArrow" transform="translate(30 24)" onmousedown="handlePan(0,-1)">
                  <use xlink:href="#rim" fill="#404040">
                        <set attributeName="fill" to="#808080" begin="arrowUp.mouseover" end="arrowUp.mouseout"/>
                  </use>
                  <path fill="none" stroke="white" stroke-width="1.5" d="M0,-3.0v7 M-2.5,-0.5L0,-3.0L2.5,-0.5"/>
                </g>
                <g id="arrowRight" xlink:href="#dirArrow" transform="rotate(90) translate(36 -43)" onmousedown="handlePan(1,0)">
                  <use xlink:href="#rim" fill="#404040">
                        <set attributeName="fill" to="#808080" begin="arrowRight.mouseover" end="arrowRight.mouseout"/>
                  </use>
                  <path fill="none" stroke="white" stroke-width="1.5" d="M0,-3.0v7 M-2.5,-0.5L0,-3.0L2.5,-0.5"/>
                </g>
                <g id="arrowDown" xlink:href="#dirArrow" transform="rotate(180) translate(-30 -48)" onmousedown="handlePan(0,1)">
                  <use xlink:href="#rim" fill="#404040">
                        <set attributeName="fill" to="#808080" begin="arrowDown.mouseover" end="arrowDown.mouseout"/>
                  </use>
                  <path fill="none" stroke="white" stroke-width="1.5" d="M0,-3.0v7 M-2.5,-0.5L0,-3.0L2.5,-0.5"/>
                </g>
                <g id="arrowLeft" xlink:href="#dirArrow" transform="rotate(270) translate(-36 17)" onmousedown="handlePan(-1,0)">
                  <use xlink:href="#rim" fill="#404040">
                        <set attributeName="fill" to="#808080" begin="arrowLeft.mouseover" end="arrowLeft.mouseout"/>
                  </use>
                  <path fill="none" stroke="white" stroke-width="1.5" d="M0,-3.0v7 M-2.5,-0.5L0,-3.0L2.5,-0.5"/>
                </g>
        </g>
        <svg viewBox="0 0 15 15" width="100%" height="30px" preserveAspectRatio="xMaxYMin meet">
         <g id="arrow_out" transform="scale(0.3 0.3)">
          <a xlink:href="class_pz_g_1_1_lacze_do_g_n_u_plota_aa815ce8ec16e12fc246cf422e562869e_icgraph_org.svg" target="_base">
           <rect id="button" ry="5" rx="5" y="6" x="6" height="38" width="38"
                fill="#f2f5e9" fill-opacity="0.5" stroke="#606060" stroke-width="1.0"/>
           <path id="arrow"
             d="M 11.500037,31.436501 C 11.940474,20.09759 22.043105,11.32322 32.158766,21.979434 L 37.068811,17.246167 C 37.068811,17.246167 37.088388,32 37.088388,32 L 22.160133,31.978069 C 22.160133,31.978069 26.997745,27.140456 26.997745,27.140456 C 18.528582,18.264221 13.291696,25.230495 11.500037,31.436501 z"
             style="fill:#404040;"/>
          </a>
         </g>
        </svg>
</svg>
