<?xml version="1.0" encoding="UTF-8" standalone="no"?>
<!DOCTYPE svg PUBLIC "-//W3C//DTD SVG 1.1//EN"
 "http://www.w3.org/Graphics/SVG/1.1/DTD/svg11.dtd">
<!-- Generated by graphviz version 2.43.0 (0)
 -->
<!-- Title: Cuboid Pages: 1 -->
<!--zoomable 1643 -->
<svg id="main" version="1.1" xmlns="http://www.w3.org/2000/svg" xmlns:xlink="http://www.w3.org/1999/xlink" xml:space="preserve" onload="init(evt)">
<style type="text/css"><![CDATA[
.edge:hover path { stroke: red; }
.edge:hover polygon { stroke: red; fill: red; }
]]></style>
<script type="text/javascript"><![CDATA[
var edges = document.getElementsByTagName('g');
if (edges && edges.length) {
  for (var i=0;i<edges.length;i++) {
    if (edges[i].id.substr(0,4)=='edge') {
      edges[i].setAttribute('class','edge');
    }
  }
}
]]></script>
        <defs>
                <circle id="rim" cx="0" cy="0" r="7"/>
                <circle id="rim2" cx="0" cy="0" r="3.5"/>
                <g id="zoomPlus">
                        <use xlink:href="#rim" fill="#404040">
                                <set attributeName="fill" to="#808080" begin="zoomplus.mouseover" end="zoomplus.mouseout"/>
                        </use>
                        <path d="M-4,0h8M0,-4v8" fill="none" stroke="white" stroke-width="1.5" pointer-events="none"/>
                </g>
                <g id="zoomMin">
                        <use xlink:href="#rim" fill="#404040">
                                <set attributeName="fill" to="#808080" begin="zoomminus.mouseover" end="zoomminus.mouseout"/>
                        </use>
                        <path d="M-4,0h8" fill="none" stroke="white" stroke-width="1.5" pointer-events="none"/>
                </g>
                <g id="dirArrow">
                        <path fill="none" stroke="white" stroke-width="1.5" d="M0,-3.0v7 M-2.5,-0.5L0,-3.0L2.5,-0.5"/>
                </g>
               <g id="resetDef">
                       <use xlink:href="#rim2" fill="#404040">
                               <set attributeName="fill" to="#808080" begin="reset.mouseover" end="reset.mouseout"/>
                       </use>
               </g>
        </defs>

<script type="text/javascript">
var viewWidth = 442;
var viewHeight = 1643;
var sectionId = 'dynsection-1';
</script>
<script xlink:href="svgpan.js"/>
<svg id="graph" class="graph">
<g id="viewport">
<title>Cuboid</title>
<!-- Node1 -->
<g id="node1" class="node">
<title>Node1</title>
<g id="a_node1"><a xlink:title="Opisuje prostopadloscian w przestrzeni trojwymiarowej.">
<polygon fill="#bfbfbf" stroke="black" points="160.5,-0.5 160.5,-365.5 301.5,-365.5 301.5,-0.5 160.5,-0.5"/>
<text text-anchor="middle" x="231" y="-353.5" font-family="Helvetica,sans-Serif" font-size="10.00">Cuboid</text>
<polyline fill="none" stroke="black" points="160.5,-346.5 301.5,-346.5 "/>
<text text-anchor="middle" x="231" y="-334.5" font-family="Helvetica,sans-Serif" font-size="10.00"> </text>
<polyline fill="none" stroke="black" points="160.5,-327.5 301.5,-327.5 "/>
<text text-anchor="start" x="168.5" y="-315.5" font-family="Helvetica,sans-Serif" font-size="10.00">+ Cuboid()</text>
<text text-anchor="start" x="168.5" y="-304.5" font-family="Helvetica,sans-Serif" font-size="10.00">+ Cuboid()</text>
<text text-anchor="start" x="168.5" y="-293.5" font-family="Helvetica,sans-Serif" font-size="10.00">+ Cuboid()</text>
<text text-anchor="start" x="168.5" y="-282.5" font-family="Helvetica,sans-Serif" font-size="10.00">+ Cuboid()</text>
<text text-anchor="start" x="168.5" y="-271.5" font-family="Helvetica,sans-Serif" font-size="10.00">+ Cuboid()</text>
<text text-anchor="start" x="168.5" y="-260.5" font-family="Helvetica,sans-Serif" font-size="10.00">+ check_cub()</text>
<text text-anchor="start" x="168.5" y="-249.5" font-family="Helvetica,sans-Serif" font-size="10.00">+ get_vec_opp()</text>
<text text-anchor="start" x="168.5" y="-238.5" font-family="Helvetica,sans-Serif" font-size="10.00">+ check_vec_opp()</text>
<text text-anchor="start" x="168.5" y="-227.5" font-family="Helvetica,sans-Serif" font-size="10.00">+ check_vec_len()</text>
<text text-anchor="start" x="168.5" y="-216.5" font-family="Helvetica,sans-Serif" font-size="10.00">+ get_vec_len()</text>
<text text-anchor="start" x="168.5" y="-205.5" font-family="Helvetica,sans-Serif" font-size="10.00">+ get_vec_perp()</text>
<text text-anchor="start" x="168.5" y="-194.5" font-family="Helvetica,sans-Serif" font-size="10.00">+ check_vec_perp()</text>
<text text-anchor="start" x="168.5" y="-183.5" font-family="Helvetica,sans-Serif" font-size="10.00">+ get_cub()</text>
<text text-anchor="start" x="168.5" y="-172.5" font-family="Helvetica,sans-Serif" font-size="10.00">+ get_cub()</text>
<text text-anchor="start" x="168.5" y="-161.5" font-family="Helvetica,sans-Serif" font-size="10.00">+ get_height()</text>
<text text-anchor="start" x="168.5" y="-150.5" font-family="Helvetica,sans-Serif" font-size="10.00">+ operator==()</text>
<text text-anchor="start" x="168.5" y="-139.5" font-family="Helvetica,sans-Serif" font-size="10.00">+ translation()</text>
<text text-anchor="start" x="168.5" y="-128.5" font-family="Helvetica,sans-Serif" font-size="10.00">+ translation_to_O()</text>
<text text-anchor="start" x="168.5" y="-117.5" font-family="Helvetica,sans-Serif" font-size="10.00">+ rotation()</text>
<text text-anchor="start" x="168.5" y="-106.5" font-family="Helvetica,sans-Serif" font-size="10.00">+ rotation_around_cen()</text>
<text text-anchor="start" x="168.5" y="-95.5" font-family="Helvetica,sans-Serif" font-size="10.00">+ centre_point()</text>
<text text-anchor="start" x="168.5" y="-84.5" font-family="Helvetica,sans-Serif" font-size="10.00">+ special_points()</text>
<text text-anchor="start" x="168.5" y="-73.5" font-family="Helvetica,sans-Serif" font-size="10.00">+ print_cuboid()</text>
<text text-anchor="start" x="168.5" y="-62.5" font-family="Helvetica,sans-Serif" font-size="10.00">+ print_cuboid_weird()</text>
<text text-anchor="start" x="168.5" y="-51.5" font-family="Helvetica,sans-Serif" font-size="10.00">+ print_cuboid_3D()</text>
<text text-anchor="start" x="168.5" y="-40.5" font-family="Helvetica,sans-Serif" font-size="10.00">+ Cuboid_From_Sample()</text>
<text text-anchor="start" x="168.5" y="-29.5" font-family="Helvetica,sans-Serif" font-size="10.00">+ Cuboid_To_File()</text>
<text text-anchor="start" x="168.5" y="-18.5" font-family="Helvetica,sans-Serif" font-size="10.00">+ scale_cub()</text>
<text text-anchor="start" x="168.5" y="-7.5" font-family="Helvetica,sans-Serif" font-size="10.00">+ scale_cub()</text>
</a>
</g>
</g>
<!-- Node2 -->
<g id="node2" class="node">
<title>Node2</title>
<g id="a_node2"><a xlink:href="class_block.html" target="_top" xlink:title="Opisuje figure geometryczna w przestrzeni trojwymiarowej.">
<polygon fill="none" stroke="black" points="275.5,-403.5 275.5,-548.5 400.5,-548.5 400.5,-403.5 275.5,-403.5"/>
<text text-anchor="middle" x="338" y="-536.5" font-family="Helvetica,sans-Serif" font-size="10.00">Block</text>
<polyline fill="none" stroke="black" points="275.5,-529.5 400.5,-529.5 "/>
<text text-anchor="middle" x="338" y="-517.5" font-family="Helvetica,sans-Serif" font-size="10.00"> </text>
<polyline fill="none" stroke="black" points="275.5,-510.5 400.5,-510.5 "/>
<text text-anchor="start" x="283.5" y="-498.5" font-family="Helvetica,sans-Serif" font-size="10.00">+ Block()</text>
<text text-anchor="start" x="283.5" y="-487.5" font-family="Helvetica,sans-Serif" font-size="10.00">+ Block()</text>
<text text-anchor="start" x="283.5" y="-476.5" font-family="Helvetica,sans-Serif" font-size="10.00">+ set_sample_name()</text>
<text text-anchor="start" x="283.5" y="-465.5" font-family="Helvetica,sans-Serif" font-size="10.00">+ set_final_name()</text>
<text text-anchor="start" x="283.5" y="-454.5" font-family="Helvetica,sans-Serif" font-size="10.00">+ set_scale()</text>
<text text-anchor="start" x="283.5" y="-443.5" font-family="Helvetica,sans-Serif" font-size="10.00">+ set_scale()</text>
<text text-anchor="start" x="283.5" y="-432.5" font-family="Helvetica,sans-Serif" font-size="10.00">+ get_sample_name()</text>
<text text-anchor="start" x="283.5" y="-421.5" font-family="Helvetica,sans-Serif" font-size="10.00">+ get_final_name()</text>
<text text-anchor="start" x="283.5" y="-410.5" font-family="Helvetica,sans-Serif" font-size="10.00">+ get_scale()</text>
</a>
</g>
</g>
<!-- Node2&#45;&gt;Node1 -->
<g id="edge1" class="edge">
<title>Node2&#45;&gt;Node1</title>
<path fill="none" stroke="midnightblue" d="M308.15,-393.81C304.82,-384.77 301.35,-375.32 297.79,-365.64"/>
<polygon fill="none" stroke="midnightblue" points="304.95,-395.26 311.69,-403.44 311.52,-392.85 304.95,-395.26"/>
</g>
<!-- Node3 -->
<g id="node3" class="node">
<title>Node3</title>
<g id="a_node3"><a xlink:href="class_vector.html" target="_top" xlink:title=" ">
<polygon fill="none" stroke="black" points="172.5,-607.5 172.5,-873.5 287.5,-873.5 287.5,-607.5 172.5,-607.5"/>
<text text-anchor="middle" x="230" y="-861.5" font-family="Helvetica,sans-Serif" font-size="10.00">Vector&lt; double, 3 &gt;</text>
<polyline fill="none" stroke="black" points="172.5,-854.5 287.5,-854.5 "/>
<text text-anchor="middle" x="230" y="-842.5" font-family="Helvetica,sans-Serif" font-size="10.00"> </text>
<polyline fill="none" stroke="black" points="172.5,-835.5 287.5,-835.5 "/>
<text text-anchor="start" x="180.5" y="-823.5" font-family="Helvetica,sans-Serif" font-size="10.00">+ Vector()</text>
<text text-anchor="start" x="180.5" y="-812.5" font-family="Helvetica,sans-Serif" font-size="10.00">+ Vector()</text>
<text text-anchor="start" x="180.5" y="-801.5" font-family="Helvetica,sans-Serif" font-size="10.00">+ operator+()</text>
<text text-anchor="start" x="180.5" y="-790.5" font-family="Helvetica,sans-Serif" font-size="10.00">+ operator&#45;()</text>
<text text-anchor="start" x="180.5" y="-779.5" font-family="Helvetica,sans-Serif" font-size="10.00">+ operator*()</text>
<text text-anchor="start" x="180.5" y="-768.5" font-family="Helvetica,sans-Serif" font-size="10.00">+ operator/()</text>
<text text-anchor="start" x="180.5" y="-757.5" font-family="Helvetica,sans-Serif" font-size="10.00">+ operator==()</text>
<text text-anchor="start" x="180.5" y="-746.5" font-family="Helvetica,sans-Serif" font-size="10.00">+ scale_vec()</text>
<text text-anchor="start" x="180.5" y="-735.5" font-family="Helvetica,sans-Serif" font-size="10.00">+ rotate()</text>
<text text-anchor="start" x="180.5" y="-724.5" font-family="Helvetica,sans-Serif" font-size="10.00">+ rotate()</text>
<text text-anchor="start" x="180.5" y="-713.5" font-family="Helvetica,sans-Serif" font-size="10.00">+ rotate()</text>
<text text-anchor="start" x="180.5" y="-702.5" font-family="Helvetica,sans-Serif" font-size="10.00">+ modulus2()</text>
<text text-anchor="start" x="180.5" y="-691.5" font-family="Helvetica,sans-Serif" font-size="10.00">+ get_vec()</text>
<text text-anchor="start" x="180.5" y="-680.5" font-family="Helvetica,sans-Serif" font-size="10.00">+ get_len()</text>
<text text-anchor="start" x="180.5" y="-669.5" font-family="Helvetica,sans-Serif" font-size="10.00">+ get_slope_angle()</text>
<text text-anchor="start" x="180.5" y="-658.5" font-family="Helvetica,sans-Serif" font-size="10.00">+ get_slope_angle()</text>
<text text-anchor="start" x="180.5" y="-647.5" font-family="Helvetica,sans-Serif" font-size="10.00">+ get_slope_angle()</text>
<text text-anchor="start" x="180.5" y="-636.5" font-family="Helvetica,sans-Serif" font-size="10.00">+ operator[]()</text>
<text text-anchor="start" x="180.5" y="-625.5" font-family="Helvetica,sans-Serif" font-size="10.00">+ operator[]()</text>
<text text-anchor="start" x="180.5" y="-614.5" font-family="Helvetica,sans-Serif" font-size="10.00">+ scalar_prod()</text>
</a>
</g>
</g>
<!-- Node3&#45;&gt;Node1 -->
<g id="edge14" class="edge">
<title>Node3&#45;&gt;Node1</title>
<path fill="none" stroke="#404040" d="M228.43,-607.3C228.25,-587.75 228.1,-567.85 228,-549 227.66,-484.11 227.56,-467.89 228,-403 228.06,-394.73 228.13,-386.28 228.2,-377.75"/>
<polygon fill="none" stroke="#404040" points="228.2,-377.64 224.26,-371.6 228.32,-365.64 232.26,-371.68 228.2,-377.64"/>
<text text-anchor="middle" x="247" y="-484.5" font-family="Helvetica,sans-Serif" font-size="10.00"> &#45;centre</text>
<text text-anchor="middle" x="247" y="-473.5" font-family="Helvetica,sans-Serif" font-size="10.00">&#45;tops</text>
<text text-anchor="middle" x="247" y="-462.5" font-family="Helvetica,sans-Serif" font-size="10.00">&#45;cuts</text>
</g>
<!-- Node3&#45;&gt;Node2 -->
<g id="edge2" class="edge">
<title>Node3&#45;&gt;Node2</title>
<path fill="none" stroke="#404040" d="M280.44,-607.33C285.93,-593.67 291.51,-580.03 297,-567 298.03,-564.56 299.08,-562.08 300.16,-559.59"/>
<polygon fill="none" stroke="#404040" points="300.17,-559.56 298.89,-552.47 304.96,-548.56 306.23,-555.66 300.17,-559.56"/>
<text text-anchor="middle" x="315.5" y="-575.5" font-family="Helvetica,sans-Serif" font-size="10.00"> #scale</text>
</g>
<!-- Node4 -->
<g id="node4" class="node">
<title>Node4</title>
<g id="a_node4"><a xlink:href="class_count.html" target="_top" xlink:title=" ">
<polygon fill="none" stroke="black" points="0,-1235.5 0,-1358.5 134,-1358.5 134,-1235.5 0,-1235.5"/>
<text text-anchor="start" x="8" y="-1346.5" font-family="Helvetica,sans-Serif" font-size="10.00">Count&lt; Vector&lt; double,</text>
<text text-anchor="middle" x="67" y="-1335.5" font-family="Helvetica,sans-Serif" font-size="10.00"> SIZE &gt; &gt;</text>
<polyline fill="none" stroke="black" points="0,-1328.5 134,-1328.5 "/>
<text text-anchor="middle" x="67" y="-1316.5" font-family="Helvetica,sans-Serif" font-size="10.00"> </text>
<polyline fill="none" stroke="black" points="0,-1309.5 134,-1309.5 "/>
<text text-anchor="start" x="8" y="-1297.5" font-family="Helvetica,sans-Serif" font-size="10.00">+ Count()</text>
<text text-anchor="start" x="8" y="-1286.5" font-family="Helvetica,sans-Serif" font-size="10.00">+ Count()</text>
<text text-anchor="start" x="8" y="-1275.5" font-family="Helvetica,sans-Serif" font-size="10.00">+ ~Count()</text>
<text text-anchor="start" x="8" y="-1264.5" font-family="Helvetica,sans-Serif" font-size="10.00">+ get_count()</text>
<text text-anchor="start" x="8" y="-1253.5" font-family="Helvetica,sans-Serif" font-size="10.00">+ print_count()</text>
<text text-anchor="start" x="8" y="-1242.5" font-family="Helvetica,sans-Serif" font-size="10.00">+ zero_count()</text>
</a>
</g>
</g>
<!-- Node4&#45;&gt;Node3 -->
<g id="edge3" class="edge">
<title>Node4&#45;&gt;Node3</title>
<path fill="none" stroke="midnightblue" d="M82.02,-1225.36C98.78,-1149.44 127.93,-1025.58 161,-921 165.88,-905.56 171.39,-889.53 177.11,-873.68"/>
<polygon fill="none" stroke="midnightblue" points="78.56,-1224.77 79.83,-1235.29 85.4,-1226.28 78.56,-1224.77"/>
</g>
<!-- Node5 -->
<g id="node5" class="node">
<title>Node5</title>
<g id="a_node5"><a xlink:title=" ">
<polygon fill="none" stroke="#bfbfbf" points="176.5,-1577.5 176.5,-1634.5 235.5,-1634.5 235.5,-1577.5 176.5,-1577.5"/>
<text text-anchor="middle" x="206" y="-1622.5" font-family="Helvetica,sans-Serif" font-size="10.00">static int</text>
<polyline fill="none" stroke="#bfbfbf" points="176.5,-1615.5 235.5,-1615.5 "/>
<text text-anchor="middle" x="206" y="-1603.5" font-family="Helvetica,sans-Serif" font-size="10.00"> </text>
<polyline fill="none" stroke="#bfbfbf" points="176.5,-1596.5 235.5,-1596.5 "/>
<text text-anchor="middle" x="206" y="-1584.5" font-family="Helvetica,sans-Serif" font-size="10.00"> </text>
</a>
</g>
</g>
<!-- Node5&#45;&gt;Node4 -->
<g id="edge4" class="edge">
<title>Node5&#45;&gt;Node4</title>
<path fill="none" stroke="#404040" d="M176.45,-1596.37C142.91,-1584.81 89.78,-1560.77 66,-1519 40.64,-1474.47 42.02,-1416.24 49.13,-1370.74"/>
<polygon fill="none" stroke="#404040" points="49.14,-1370.69 46.21,-1364.1 51.16,-1358.86 54.09,-1365.45 49.14,-1370.69"/>
<text text-anchor="middle" x="109" y="-1465.5" font-family="Helvetica,sans-Serif" font-size="10.00"> #objects_alive</text>
<text text-anchor="middle" x="109" y="-1454.5" font-family="Helvetica,sans-Serif" font-size="10.00">#objects_created</text>
</g>
<!-- Node6 -->
<g id="node6" class="node">
<title>Node6</title>
<g id="a_node6"><a xlink:href="class_count.html" target="_top" xlink:title="Pozwala na liczenie instancji stworzonych obiektow.">
<polygon fill="none" stroke="black" points="161,-1406.5 161,-1518.5 251,-1518.5 251,-1406.5 161,-1406.5"/>
<text text-anchor="middle" x="206" y="-1506.5" font-family="Helvetica,sans-Serif" font-size="10.00">Count&lt; T &gt;</text>
<polyline fill="none" stroke="black" points="161,-1499.5 251,-1499.5 "/>
<text text-anchor="middle" x="206" y="-1487.5" font-family="Helvetica,sans-Serif" font-size="10.00"> </text>
<polyline fill="none" stroke="black" points="161,-1480.5 251,-1480.5 "/>
<text text-anchor="start" x="169" y="-1468.5" font-family="Helvetica,sans-Serif" font-size="10.00">+ Count()</text>
<text text-anchor="start" x="169" y="-1457.5" font-family="Helvetica,sans-Serif" font-size="10.00">+ Count()</text>
<text text-anchor="start" x="169" y="-1446.5" font-family="Helvetica,sans-Serif" font-size="10.00">+ ~Count()</text>
<text text-anchor="start" x="169" y="-1435.5" font-family="Helvetica,sans-Serif" font-size="10.00">+ get_count()</text>
<text text-anchor="start" x="169" y="-1424.5" font-family="Helvetica,sans-Serif" font-size="10.00">+ print_count()</text>
<text text-anchor="start" x="169" y="-1413.5" font-family="Helvetica,sans-Serif" font-size="10.00">+ zero_count()</text>
</a>
</g>
</g>
<!-- Node5&#45;&gt;Node6 -->
<g id="edge6" class="edge">
<title>Node5&#45;&gt;Node6</title>
<path fill="none" stroke="#404040" d="M206,-1577.38C206,-1564.05 206,-1547.42 206,-1531.01"/>
<polygon fill="none" stroke="#404040" points="206,-1530.57 202,-1524.57 206,-1518.57 210,-1524.57 206,-1530.57"/>
<text text-anchor="middle" x="249" y="-1551" font-family="Helvetica,sans-Serif" font-size="10.00"> #objects_alive</text>
<text text-anchor="middle" x="249" y="-1540" font-family="Helvetica,sans-Serif" font-size="10.00">#objects_created</text>
</g>
<!-- Node9 -->
<g id="node9" class="node">
<title>Node9</title>
<g id="a_node9"><a xlink:href="class_count.html" target="_top" xlink:title=" ">
<polygon fill="none" stroke="black" points="168.5,-1235.5 168.5,-1358.5 291.5,-1358.5 291.5,-1235.5 168.5,-1235.5"/>
<text text-anchor="start" x="176.5" y="-1346.5" font-family="Helvetica,sans-Serif" font-size="10.00">Count&lt; Vector&lt; type,</text>
<text text-anchor="middle" x="230" y="-1335.5" font-family="Helvetica,sans-Serif" font-size="10.00"> SIZE &gt; &gt;</text>
<polyline fill="none" stroke="black" points="168.5,-1328.5 291.5,-1328.5 "/>
<text text-anchor="middle" x="230" y="-1316.5" font-family="Helvetica,sans-Serif" font-size="10.00"> </text>
<polyline fill="none" stroke="black" points="168.5,-1309.5 291.5,-1309.5 "/>
<text text-anchor="start" x="176.5" y="-1297.5" font-family="Helvetica,sans-Serif" font-size="10.00">+ Count()</text>
<text text-anchor="start" x="176.5" y="-1286.5" font-family="Helvetica,sans-Serif" font-size="10.00">+ Count()</text>
<text text-anchor="start" x="176.5" y="-1275.5" font-family="Helvetica,sans-Serif" font-size="10.00">+ ~Count()</text>
<text text-anchor="start" x="176.5" y="-1264.5" font-family="Helvetica,sans-Serif" font-size="10.00">+ get_count()</text>
<text text-anchor="start" x="176.5" y="-1253.5" font-family="Helvetica,sans-Serif" font-size="10.00">+ print_count()</text>
<text text-anchor="start" x="176.5" y="-1242.5" font-family="Helvetica,sans-Serif" font-size="10.00">+ zero_count()</text>
</a>
</g>
</g>
<!-- Node5&#45;&gt;Node9 -->
<g id="edge10" class="edge">
<title>Node5&#45;&gt;Node9</title>
<path fill="none" stroke="#404040" d="M235.74,-1596.45C255.38,-1589.37 280.31,-1577.45 296,-1559 347.72,-1498.18 338.63,-1466.87 351,-1388 351.76,-1383.17 353.81,-1381 351,-1377 339.17,-1360.17 325.49,-1368.03 302.58,-1358.65"/>
<polygon fill="none" stroke="#404040" points="302.5,-1358.6 295.34,-1359.48 291.77,-1353.21 298.93,-1352.34 302.5,-1358.6"/>
<text text-anchor="middle" x="391" y="-1465.5" font-family="Helvetica,sans-Serif" font-size="10.00"> #objects_alive</text>
<text text-anchor="middle" x="391" y="-1454.5" font-family="Helvetica,sans-Serif" font-size="10.00">#objects_created</text>
</g>
<!-- Node6&#45;&gt;Node4 -->
<g id="edge5" class="edge">
<title>Node6&#45;&gt;Node4</title>
<path fill="none" stroke="orange" d="M152.19,-1422.33C143.02,-1416.46 133.41,-1410.78 124,-1406 102.95,-1395.3 88.32,-1406.78 74,-1388 67.54,-1379.53 64.02,-1369.2 62.33,-1358.61"/>
<polygon fill="orange" stroke="orange" points="150.55,-1425.44 160.83,-1428 154.39,-1419.59 150.55,-1425.44"/>
<text text-anchor="middle" x="144" y="-1380" font-family="Helvetica,sans-Serif" font-size="10.00"> &lt; Vector&lt; double, SIZE &gt; &gt;</text>
</g>
<!-- Node6&#45;&gt;Node9 -->
<g id="edge11" class="edge">
<title>Node6&#45;&gt;Node9</title>
<path fill="none" stroke="orange" d="M215.62,-1395.94C217.43,-1383.62 219.32,-1370.79 221.1,-1358.63"/>
<polygon fill="orange" stroke="orange" points="212.11,-1395.74 214.13,-1406.15 219.04,-1396.76 212.11,-1395.74"/>
<text text-anchor="middle" x="282.5" y="-1380" font-family="Helvetica,sans-Serif" font-size="10.00"> &lt; Vector&lt; type, SIZE &gt; &gt;</text>
</g>
<!-- Node7 -->
<g id="node7" class="node">
<title>Node7</title>
<g id="a_node7"><a xlink:title=" ">
<polygon fill="none" stroke="#bfbfbf" points="308,-1026 308,-1083 358,-1083 358,-1026 308,-1026"/>
<text text-anchor="middle" x="333" y="-1071" font-family="Helvetica,sans-Serif" font-size="10.00">double</text>
<polyline fill="none" stroke="#bfbfbf" points="308,-1064 358,-1064 "/>
<text text-anchor="middle" x="333" y="-1052" font-family="Helvetica,sans-Serif" font-size="10.00"> </text>
<polyline fill="none" stroke="#bfbfbf" points="308,-1045 358,-1045 "/>
<text text-anchor="middle" x="333" y="-1033" font-family="Helvetica,sans-Serif" font-size="10.00"> </text>
</a>
</g>
</g>
<!-- Node7&#45;&gt;Node3 -->
<g id="edge7" class="edge">
<title>Node7&#45;&gt;Node3</title>
<path fill="none" stroke="#404040" d="M330.66,-1025.76C327.35,-993.11 319.95,-937.56 305,-892 301.38,-880.97 297.08,-869.74 292.39,-858.64"/>
<polygon fill="none" stroke="#404040" points="292.37,-858.59 286.31,-854.68 287.59,-847.59 293.65,-851.49 292.37,-858.59"/>
<text text-anchor="middle" x="321.5" y="-895" font-family="Helvetica,sans-Serif" font-size="10.00"> &#45;size</text>
</g>
<!-- Node8 -->
<g id="node8" class="node">
<title>Node8</title>
<g id="a_node8"><a xlink:href="class_vector.html" target="_top" xlink:title="Opisuje wektor o SIZE&#45;wierszach.">
<polygon fill="none" stroke="black" points="170.5,-921.5 170.5,-1187.5 289.5,-1187.5 289.5,-921.5 170.5,-921.5"/>
<text text-anchor="middle" x="230" y="-1175.5" font-family="Helvetica,sans-Serif" font-size="10.00">Vector&lt; type, SIZE &gt;</text>
<polyline fill="none" stroke="black" points="170.5,-1168.5 289.5,-1168.5 "/>
<text text-anchor="middle" x="230" y="-1156.5" font-family="Helvetica,sans-Serif" font-size="10.00"> </text>
<polyline fill="none" stroke="black" points="170.5,-1149.5 289.5,-1149.5 "/>
<text text-anchor="start" x="178.5" y="-1137.5" font-family="Helvetica,sans-Serif" font-size="10.00">+ Vector()</text>
<text text-anchor="start" x="178.5" y="-1126.5" font-family="Helvetica,sans-Serif" font-size="10.00">+ Vector()</text>
<text text-anchor="start" x="178.5" y="-1115.5" font-family="Helvetica,sans-Serif" font-size="10.00">+ operator+()</text>
<text text-anchor="start" x="178.5" y="-1104.5" font-family="Helvetica,sans-Serif" font-size="10.00">+ operator&#45;()</text>
<text text-anchor="start" x="178.5" y="-1093.5" font-family="Helvetica,sans-Serif" font-size="10.00">+ operator*()</text>
<text text-anchor="start" x="178.5" y="-1082.5" font-family="Helvetica,sans-Serif" font-size="10.00">+ operator/()</text>
<text text-anchor="start" x="178.5" y="-1071.5" font-family="Helvetica,sans-Serif" font-size="10.00">+ operator==()</text>
<text text-anchor="start" x="178.5" y="-1060.5" font-family="Helvetica,sans-Serif" font-size="10.00">+ scale_vec()</text>
<text text-anchor="start" x="178.5" y="-1049.5" font-family="Helvetica,sans-Serif" font-size="10.00">+ rotate()</text>
<text text-anchor="start" x="178.5" y="-1038.5" font-family="Helvetica,sans-Serif" font-size="10.00">+ modulus2()</text>
<text text-anchor="start" x="178.5" y="-1027.5" font-family="Helvetica,sans-Serif" font-size="10.00">+ get_vec()</text>
<text text-anchor="start" x="178.5" y="-1016.5" font-family="Helvetica,sans-Serif" font-size="10.00">+ get_len()</text>
<text text-anchor="start" x="178.5" y="-1005.5" font-family="Helvetica,sans-Serif" font-size="10.00">+ get_slope_angle()</text>
<text text-anchor="start" x="178.5" y="-994.5" font-family="Helvetica,sans-Serif" font-size="10.00">+ operator[]()</text>
<text text-anchor="start" x="178.5" y="-983.5" font-family="Helvetica,sans-Serif" font-size="10.00">+ operator[]()</text>
<text text-anchor="start" x="178.5" y="-972.5" font-family="Helvetica,sans-Serif" font-size="10.00">+ scalar_prod()</text>
<text text-anchor="start" x="178.5" y="-961.5" font-family="Helvetica,sans-Serif" font-size="10.00">+ rotate()</text>
<text text-anchor="start" x="178.5" y="-950.5" font-family="Helvetica,sans-Serif" font-size="10.00">+ get_slope_angle()</text>
<text text-anchor="start" x="178.5" y="-939.5" font-family="Helvetica,sans-Serif" font-size="10.00">+ rotate()</text>
<text text-anchor="start" x="178.5" y="-928.5" font-family="Helvetica,sans-Serif" font-size="10.00">+ get_slope_angle()</text>
</a>
</g>
</g>
<!-- Node8&#45;&gt;Node3 -->
<g id="edge8" class="edge">
<title>Node8&#45;&gt;Node3</title>
<path fill="none" stroke="orange" d="M230,-911.16C230,-898.62 230,-885.97 230,-873.52"/>
<polygon fill="orange" stroke="orange" points="226.5,-911.18 230,-921.18 233.5,-911.18 226.5,-911.18"/>
<text text-anchor="middle" x="265.5" y="-895" font-family="Helvetica,sans-Serif" font-size="10.00"> &lt; double, 3 &gt;</text>
</g>
<!-- Node9&#45;&gt;Node8 -->
<g id="edge9" class="edge">
<title>Node9&#45;&gt;Node8</title>
<path fill="none" stroke="midnightblue" d="M230,-1225.05C230,-1213.14 230,-1200.44 230,-1187.56"/>
<polygon fill="none" stroke="midnightblue" points="226.5,-1225.31 230,-1235.31 233.5,-1225.31 226.5,-1225.31"/>
</g>
<!-- Node10 -->
<g id="node10" class="node">
<title>Node10</title>
<g id="a_node10"><a xlink:title=" ">
<polygon fill="none" stroke="#bfbfbf" points="310,-1268.5 310,-1325.5 348,-1325.5 348,-1268.5 310,-1268.5"/>
<text text-anchor="middle" x="329" y="-1313.5" font-family="Helvetica,sans-Serif" font-size="10.00">type</text>
<polyline fill="none" stroke="#bfbfbf" points="310,-1306.5 348,-1306.5 "/>
<text text-anchor="middle" x="329" y="-1294.5" font-family="Helvetica,sans-Serif" font-size="10.00"> </text>
<polyline fill="none" stroke="#bfbfbf" points="310,-1287.5 348,-1287.5 "/>
<text text-anchor="middle" x="329" y="-1275.5" font-family="Helvetica,sans-Serif" font-size="10.00"> </text>
</a>
</g>
</g>
<!-- Node10&#45;&gt;Node8 -->
<g id="edge12" class="edge">
<title>Node10&#45;&gt;Node8</title>
<path fill="none" stroke="#404040" d="M317.64,-1268.41C310.27,-1250.49 300.02,-1225.6 289.13,-1199.14"/>
<polygon fill="none" stroke="#404040" points="289,-1198.82 283.01,-1194.79 284.43,-1187.72 290.41,-1191.75 289,-1198.82"/>
<text text-anchor="middle" x="308.5" y="-1209" font-family="Helvetica,sans-Serif" font-size="10.00"> &#45;size</text>
</g>
<!-- Node11 -->
<g id="node11" class="node">
<title>Node11</title>
<g id="a_node11"><a xlink:title=" ">
<polygon fill="none" stroke="#bfbfbf" points="316,-712 316,-769 360,-769 360,-712 316,-712"/>
<text text-anchor="middle" x="338" y="-757" font-family="Helvetica,sans-Serif" font-size="10.00">string</text>
<polyline fill="none" stroke="#bfbfbf" points="316,-750 360,-750 "/>
<text text-anchor="middle" x="338" y="-738" font-family="Helvetica,sans-Serif" font-size="10.00"> </text>
<polyline fill="none" stroke="#bfbfbf" points="316,-731 360,-731 "/>
<text text-anchor="middle" x="338" y="-719" font-family="Helvetica,sans-Serif" font-size="10.00"> </text>
</a>
</g>
</g>
<!-- Node11&#45;&gt;Node2 -->
<g id="edge13" class="edge">
<title>Node11&#45;&gt;Node2</title>
<path fill="none" stroke="#404040" d="M338,-711.9C338,-676.32 338,-612.83 338,-560.82"/>
<polygon fill="none" stroke="#404040" points="338,-560.55 334,-554.55 338,-548.55 342,-554.55 338,-560.55"/>
<text text-anchor="middle" x="378.5" y="-581" font-family="Helvetica,sans-Serif" font-size="10.00"> #sample_name</text>
<text text-anchor="middle" x="378.5" y="-570" font-family="Helvetica,sans-Serif" font-size="10.00">#final_name</text>
</g>
</g>
</svg>
        <g id="navigator" transform="translate(0 0)" fill="#404254">
                <rect fill="#f2f5e9" fill-opacity="0.5" stroke="#606060" stroke-width=".5" x="0" y="0" width="60" height="60"/>
                <use id="zoomplus" xlink:href="#zoomPlus" x="17" y="9" onmousedown="handleZoom(evt,'in')"/>
                <use id="zoomminus" xlink:href="#zoomMin" x="42" y="9" onmousedown="handleZoom(evt,'out')"/>
                <use id="reset" xlink:href="#resetDef" x="30" y="36" onmousedown="handleReset()"/>
                <g id="arrowUp" xlink:href="#dirArrow" transform="translate(30 24)" onmousedown="handlePan(0,-1)">
                  <use xlink:href="#rim" fill="#404040">
                        <set attributeName="fill" to="#808080" begin="arrowUp.mouseover" end="arrowUp.mouseout"/>
                  </use>
                  <path fill="none" stroke="white" stroke-width="1.5" d="M0,-3.0v7 M-2.5,-0.5L0,-3.0L2.5,-0.5"/>
                </g>
                <g id="arrowRight" xlink:href="#dirArrow" transform="rotate(90) translate(36 -43)" onmousedown="handlePan(1,0)">
                  <use xlink:href="#rim" fill="#404040">
                        <set attributeName="fill" to="#808080" begin="arrowRight.mouseover" end="arrowRight.mouseout"/>
                  </use>
                  <path fill="none" stroke="white" stroke-width="1.5" d="M0,-3.0v7 M-2.5,-0.5L0,-3.0L2.5,-0.5"/>
                </g>
                <g id="arrowDown" xlink:href="#dirArrow" transform="rotate(180) translate(-30 -48)" onmousedown="handlePan(0,1)">
                  <use xlink:href="#rim" fill="#404040">
                        <set attributeName="fill" to="#808080" begin="arrowDown.mouseover" end="arrowDown.mouseout"/>
                  </use>
                  <path fill="none" stroke="white" stroke-width="1.5" d="M0,-3.0v7 M-2.5,-0.5L0,-3.0L2.5,-0.5"/>
                </g>
                <g id="arrowLeft" xlink:href="#dirArrow" transform="rotate(270) translate(-36 17)" onmousedown="handlePan(-1,0)">
                  <use xlink:href="#rim" fill="#404040">
                        <set attributeName="fill" to="#808080" begin="arrowLeft.mouseover" end="arrowLeft.mouseout"/>
                  </use>
                  <path fill="none" stroke="white" stroke-width="1.5" d="M0,-3.0v7 M-2.5,-0.5L0,-3.0L2.5,-0.5"/>
                </g>
        </g>
        <svg viewBox="0 0 15 15" width="100%" height="30px" preserveAspectRatio="xMaxYMin meet">
         <g id="arrow_out" transform="scale(0.3 0.3)">
          <a xlink:href="class_cuboid__coll__graph_org.svg" target="_base">
           <rect id="button" ry="5" rx="5" y="6" x="6" height="38" width="38"
                fill="#f2f5e9" fill-opacity="0.5" stroke="#606060" stroke-width="1.0"/>
           <path id="arrow"
             d="M 11.500037,31.436501 C 11.940474,20.09759 22.043105,11.32322 32.158766,21.979434 L 37.068811,17.246167 C 37.068811,17.246167 37.088388,32 37.088388,32 L 22.160133,31.978069 C 22.160133,31.978069 26.997745,27.140456 26.997745,27.140456 C 18.528582,18.264221 13.291696,25.230495 11.500037,31.436501 z"
             style="fill:#404040;"/>
          </a>
         </g>
        </svg>
</svg>
