<?xml version="1.0" encoding="UTF-8" standalone="no"?>
<!DOCTYPE svg PUBLIC "-//W3C//DTD SVG 1.1//EN"
 "http://www.w3.org/Graphics/SVG/1.1/DTD/svg11.dtd">
<!-- Generated by graphviz version 2.43.0 (0)
 -->
<!-- Title: Drone::rotation_around_cen Pages: 1 -->
<svg width="664pt" height="257pt"
 viewBox="0.00 0.00 664.00 257.17" xmlns="http://www.w3.org/2000/svg" xmlns:xlink="http://www.w3.org/1999/xlink">
<g id="graph0" class="graph" transform="scale(1 1) rotate(0) translate(4 253.17)">
<title>Drone::rotation_around_cen</title>
<!-- Node1 -->
<g id="node1" class="node">
<title>Node1</title>
<g id="a_node1"><a xlink:title="Metoda obracajaca dron o zadany kat w 3D wokol srodka figury">
<polygon fill="#bfbfbf" stroke="black" points="0,-126 0,-145 152,-145 152,-126 0,-126"/>
<text text-anchor="middle" x="76" y="-133" font-family="Helvetica,sans-Serif" font-size="10.00">Drone::rotation_around_cen</text>
</a>
</g>
</g>
<!-- Node2 -->
<g id="node2" class="node">
<title>Node2</title>
<g id="a_node2"><a xlink:href="class_prism.html#a22c5467db5d960bddbaf9a52f55c55cb" target="_top" xlink:title="Metoda obracajaca graniastoslup o zadany kat w 3D wokol srodka figury">
<polygon fill="none" stroke="black" points="191,-192 191,-211 341,-211 341,-192 191,-192"/>
<text text-anchor="middle" x="266" y="-199" font-family="Helvetica,sans-Serif" font-size="10.00">Prism::rotation_around_cen</text>
</a>
</g>
</g>
<!-- Node1&#45;&gt;Node2 -->
<g id="edge1" class="edge">
<title>Node1&#45;&gt;Node2</title>
<path fill="none" stroke="midnightblue" d="M104.34,-145.1C137.01,-156.57 191.82,-175.81 228.2,-188.58"/>
<polygon fill="midnightblue" stroke="midnightblue" points="227.34,-191.99 237.94,-192 229.66,-185.38 227.34,-191.99"/>
</g>
<!-- Node6 -->
<g id="node6" class="node">
<title>Node6</title>
<g id="a_node6"><a xlink:href="class_cuboid.html#a6c697c2d9b36a14c43c7328876d5a1f0" target="_top" xlink:title="Metoda obracajaca prostopadloscian o zadany kat w 3D wokol srodka figury">
<polygon fill="none" stroke="black" points="188,-126 188,-145 344,-145 344,-126 188,-126"/>
<text text-anchor="middle" x="266" y="-133" font-family="Helvetica,sans-Serif" font-size="10.00">Cuboid::rotation_around_cen</text>
</a>
</g>
</g>
<!-- Node1&#45;&gt;Node6 -->
<g id="edge6" class="edge">
<title>Node1&#45;&gt;Node6</title>
<path fill="none" stroke="midnightblue" d="M152.11,-135.5C160.57,-135.5 169.23,-135.5 177.82,-135.5"/>
<polygon fill="midnightblue" stroke="midnightblue" points="177.85,-139 187.85,-135.5 177.85,-132 177.85,-139"/>
</g>
<!-- Node9 -->
<g id="node9" class="node">
<title>Node9</title>
<g id="a_node9"><a xlink:href="class_drone.html#aea963b77f42c204504542a3d9190d762" target="_top" xlink:title="Metoda uzywana przy konstruowania drona Ustawia rotory w ten sposob, ze srodek ich dolnej podstawy je...">
<polygon fill="none" stroke="black" points="208.5,-44.5 208.5,-74.5 323.5,-74.5 323.5,-44.5 208.5,-44.5"/>
<text text-anchor="start" x="216.5" y="-62.5" font-family="Helvetica,sans-Serif" font-size="10.00">Drone::set_rotors_in</text>
<text text-anchor="middle" x="266" y="-51.5" font-family="Helvetica,sans-Serif" font-size="10.00">_place</text>
</a>
</g>
</g>
<!-- Node1&#45;&gt;Node9 -->
<g id="edge10" class="edge">
<title>Node1&#45;&gt;Node9</title>
<path fill="none" stroke="midnightblue" d="M100.81,-125.87C130.2,-113.99 180.85,-93.52 218.14,-78.44"/>
<polygon fill="midnightblue" stroke="midnightblue" points="219.83,-81.53 227.79,-74.54 217.21,-75.04 219.83,-81.53"/>
</g>
<!-- Node3 -->
<g id="node3" class="node">
<title>Node3</title>
<g id="a_node3"><a xlink:href="class_matrix.html#ad6df418144dfdc3236f990dc3fb0a50a" target="_top" xlink:title=" ">
<polygon fill="none" stroke="black" points="389,-164.5 389,-194.5 508,-194.5 508,-164.5 389,-164.5"/>
<text text-anchor="start" x="397" y="-182.5" font-family="Helvetica,sans-Serif" font-size="10.00">Matrix::apply_matrix</text>
<text text-anchor="middle" x="448.5" y="-171.5" font-family="Helvetica,sans-Serif" font-size="10.00">_to_rotation</text>
</a>
</g>
</g>
<!-- Node2&#45;&gt;Node3 -->
<g id="edge2" class="edge">
<title>Node2&#45;&gt;Node3</title>
<path fill="none" stroke="midnightblue" d="M341.2,-192.46C353.58,-190.95 366.38,-189.39 378.62,-187.9"/>
<polygon fill="midnightblue" stroke="midnightblue" points="379.25,-191.34 388.75,-186.66 378.4,-184.4 379.25,-191.34"/>
</g>
<!-- Node4 -->
<g id="node4" class="node">
<title>Node4</title>
<g id="a_node4"><a xlink:href="class_prism.html#ade146d341c0468030f8c1258b7fe1041" target="_top" xlink:title="Metoda przesuwajaca graniastoslup o zadany wektor w 3D">
<polygon fill="none" stroke="black" points="553,-214 553,-233 656,-233 656,-214 553,-214"/>
<text text-anchor="middle" x="604.5" y="-221" font-family="Helvetica,sans-Serif" font-size="10.00">Prism::translation</text>
</a>
</g>
</g>
<!-- Node2&#45;&gt;Node4 -->
<g id="edge3" class="edge">
<title>Node2&#45;&gt;Node4</title>
<path fill="none" stroke="midnightblue" d="M286.83,-211.1C308.95,-221.23 346.09,-236.54 380,-242.5 439.97,-253.04 456.47,-249.07 517,-242.5 530.64,-241.02 545.29,-238.26 558.57,-235.3"/>
<polygon fill="midnightblue" stroke="midnightblue" points="559.48,-238.68 568.43,-233.01 557.9,-231.86 559.48,-238.68"/>
</g>
<!-- Node5 -->
<g id="node5" class="node">
<title>Node5</title>
<g id="a_node5"><a xlink:href="class_prism.html#afed2c26932d5cb152fd620d2acbfbc3e" target="_top" xlink:title="Metoda przesuwajaca graniastoslup do srodka ukladu wspolrzednych (tak, ze srodek graniastoslupa pokry...">
<polygon fill="none" stroke="black" points="383,-214 383,-233 514,-233 514,-214 383,-214"/>
<text text-anchor="middle" x="448.5" y="-221" font-family="Helvetica,sans-Serif" font-size="10.00">Prism::translation_to_O</text>
</a>
</g>
</g>
<!-- Node2&#45;&gt;Node5 -->
<g id="edge4" class="edge">
<title>Node2&#45;&gt;Node5</title>
<path fill="none" stroke="midnightblue" d="M341.2,-210.54C351.66,-211.82 362.42,-213.13 372.89,-214.41"/>
<polygon fill="midnightblue" stroke="midnightblue" points="372.47,-217.88 382.82,-215.62 373.32,-210.93 372.47,-217.88"/>
</g>
<!-- Node5&#45;&gt;Node4 -->
<g id="edge5" class="edge">
<title>Node5&#45;&gt;Node4</title>
<path fill="none" stroke="midnightblue" d="M514.36,-223.5C523.68,-223.5 533.24,-223.5 542.48,-223.5"/>
<polygon fill="midnightblue" stroke="midnightblue" points="542.74,-227 552.74,-223.5 542.74,-220 542.74,-227"/>
</g>
<!-- Node6&#45;&gt;Node3 -->
<g id="edge7" class="edge">
<title>Node6&#45;&gt;Node3</title>
<path fill="none" stroke="midnightblue" d="M306.17,-145.05C327.4,-150.22 354.26,-156.77 378.84,-162.76"/>
<polygon fill="midnightblue" stroke="midnightblue" points="378.31,-166.24 388.86,-165.2 379.97,-159.44 378.31,-166.24"/>
</g>
<!-- Node7 -->
<g id="node7" class="node">
<title>Node7</title>
<g id="a_node7"><a xlink:href="class_cuboid.html#a3f6b1b9ea7de433af5b0d462d29f4272" target="_top" xlink:title="Metoda przesuwajaca prostopadloscian o zadany kat w 3D">
<polygon fill="none" stroke="black" points="394,-126 394,-145 503,-145 503,-126 394,-126"/>
<text text-anchor="middle" x="448.5" y="-133" font-family="Helvetica,sans-Serif" font-size="10.00">Cuboid::translation</text>
</a>
</g>
</g>
<!-- Node6&#45;&gt;Node7 -->
<g id="edge8" class="edge">
<title>Node6&#45;&gt;Node7</title>
<path fill="none" stroke="midnightblue" d="M344.07,-135.5C357.3,-135.5 370.92,-135.5 383.75,-135.5"/>
<polygon fill="midnightblue" stroke="midnightblue" points="383.85,-139 393.85,-135.5 383.85,-132 383.85,-139"/>
</g>
<!-- Node8 -->
<g id="node8" class="node">
<title>Node8</title>
<g id="a_node8"><a xlink:href="class_cuboid.html#a42bdce7c214e759cb6ea94d4f547a5b9" target="_top" xlink:title="Metoda przesuwajaca prostopadloscian do (0,0,0)">
<polygon fill="none" stroke="black" points="380,-88 380,-107 517,-107 517,-88 380,-88"/>
<text text-anchor="middle" x="448.5" y="-95" font-family="Helvetica,sans-Serif" font-size="10.00">Cuboid::translation_to_O</text>
</a>
</g>
</g>
<!-- Node6&#45;&gt;Node8 -->
<g id="edge9" class="edge">
<title>Node6&#45;&gt;Node8</title>
<path fill="none" stroke="midnightblue" d="M312.55,-125.91C336.8,-120.81 366.8,-114.49 392.36,-109.11"/>
<polygon fill="midnightblue" stroke="midnightblue" points="393.22,-112.51 402.28,-107.02 391.77,-105.66 393.22,-112.51"/>
</g>
<!-- Node10 -->
<g id="node10" class="node">
<title>Node10</title>
<g id="a_node10"><a xlink:href="class_cuboid.html#a99d30564d6129e6905c5333e04df9606" target="_top" xlink:title="Metoda zwracajaca wierzcholki prostopadloscianu do Vector3D">
<polygon fill="none" stroke="black" points="401,-50 401,-69 496,-69 496,-50 401,-50"/>
<text text-anchor="middle" x="448.5" y="-57" font-family="Helvetica,sans-Serif" font-size="10.00">Cuboid::get_cub</text>
</a>
</g>
</g>
<!-- Node9&#45;&gt;Node10 -->
<g id="edge11" class="edge">
<title>Node9&#45;&gt;Node10</title>
<path fill="none" stroke="midnightblue" d="M323.62,-59.5C344.94,-59.5 369.19,-59.5 390.54,-59.5"/>
<polygon fill="midnightblue" stroke="midnightblue" points="390.77,-63 400.77,-59.5 390.77,-56 390.77,-63"/>
</g>
<!-- Node11 -->
<g id="node11" class="node">
<title>Node11</title>
<g id="a_node11"><a xlink:href="class_prism.html#a4e2b0b9c37d6a53af869522a4bf364ac" target="_top" xlink:title="Metoda przesuwajaca graniastoslup o zadany wektor w 3D w taki sposob, ze srodek jego dolnej podstawy ...">
<polygon fill="none" stroke="black" points="397,-0.5 397,-30.5 500,-30.5 500,-0.5 397,-0.5"/>
<text text-anchor="start" x="405" y="-18.5" font-family="Helvetica,sans-Serif" font-size="10.00">Prism::translation</text>
<text text-anchor="middle" x="448.5" y="-7.5" font-family="Helvetica,sans-Serif" font-size="10.00">_of_lower_cen</text>
</a>
</g>
</g>
<!-- Node9&#45;&gt;Node11 -->
<g id="edge12" class="edge">
<title>Node9&#45;&gt;Node11</title>
<path fill="none" stroke="midnightblue" d="M323.62,-45.7C343.78,-40.78 366.57,-35.23 387.05,-30.24"/>
<polygon fill="midnightblue" stroke="midnightblue" points="388.01,-33.61 396.89,-27.84 386.35,-26.8 388.01,-33.61"/>
</g>
<!-- Node11&#45;&gt;Node4 -->
<g id="edge13" class="edge">
<title>Node11&#45;&gt;Node4</title>
<path fill="none" stroke="midnightblue" d="M500.31,-29.29C506.36,-32.33 512.12,-36.02 517,-40.5 566.77,-86.12 590.55,-166.34 599.33,-203.53"/>
<polygon fill="midnightblue" stroke="midnightblue" points="595.98,-204.61 601.58,-213.6 602.81,-203.08 595.98,-204.61"/>
</g>
</g>
</svg>
