<?xml version="1.0" encoding="UTF-8" standalone="no"?>
<!DOCTYPE svg PUBLIC "-//W3C//DTD SVG 1.1//EN"
 "http://www.w3.org/Graphics/SVG/1.1/DTD/svg11.dtd">
<!-- Generated by graphviz version 2.43.0 (0)
 -->
<!-- Title: /home/krzysztof/PO/zad5_1&#45;kgliwinski/include/lacze_do_gnuplota.hpp Pages: 1 -->
<svg width="670pt" height="362pt"
 viewBox="0.00 0.00 669.50 362.00" xmlns="http://www.w3.org/2000/svg" xmlns:xlink="http://www.w3.org/1999/xlink">
<g id="graph0" class="graph" transform="scale(1 1) rotate(0) translate(4 358)">
<title>/home/krzysztof/PO/zad5_1&#45;kgliwinski/include/lacze_do_gnuplota.hpp</title>
<!-- Node1 -->
<g id="node1" class="node">
<title>Node1</title>
<g id="a_node1"><a xlink:title=" ">
<polygon fill="#bfbfbf" stroke="black" points="284,-312.5 284,-353.5 430,-353.5 430,-312.5 284,-312.5"/>
<text text-anchor="start" x="292" y="-341.5" font-family="Helvetica,sans-Serif" font-size="10.00">/home/krzysztof/PO</text>
<text text-anchor="start" x="292" y="-330.5" font-family="Helvetica,sans-Serif" font-size="10.00">/zad5_1&#45;kgliwinski/include</text>
<text text-anchor="middle" x="357" y="-319.5" font-family="Helvetica,sans-Serif" font-size="10.00">/lacze_do_gnuplota.hpp</text>
</a>
</g>
</g>
<!-- Node2 -->
<g id="node2" class="node">
<title>Node2</title>
<g id="a_node2"><a xlink:href="drone_8hpp.html" target="_top" xlink:title="Plik zawiera definicję klasy reprezentujacej drona, budowanie i przemieszczanie go.">
<polygon fill="none" stroke="black" points="202,-234.5 202,-275.5 348,-275.5 348,-234.5 202,-234.5"/>
<text text-anchor="start" x="210" y="-263.5" font-family="Helvetica,sans-Serif" font-size="10.00">/home/krzysztof/PO</text>
<text text-anchor="start" x="210" y="-252.5" font-family="Helvetica,sans-Serif" font-size="10.00">/zad5_1&#45;kgliwinski/include</text>
<text text-anchor="middle" x="275" y="-241.5" font-family="Helvetica,sans-Serif" font-size="10.00">/drone.hpp</text>
</a>
</g>
</g>
<!-- Node1&#45;&gt;Node2 -->
<g id="edge1" class="edge">
<title>Node1&#45;&gt;Node2</title>
<path fill="none" stroke="midnightblue" d="M328.4,-305.49C317.76,-295.63 305.89,-284.63 296.05,-275.51"/>
<polygon fill="midnightblue" stroke="midnightblue" points="326.17,-308.2 335.88,-312.43 330.93,-303.06 326.17,-308.2"/>
</g>
<!-- Node3 -->
<g id="node3" class="node">
<title>Node3</title>
<g id="a_node3"><a xlink:href="scene_8hpp.html" target="_top" xlink:title="Plik zawiera definicję klasy reprezentujacej scene, obslugujacej zapis do plikow i wytswietlanie w gn...">
<polygon fill="none" stroke="black" points="77,-156.5 77,-197.5 223,-197.5 223,-156.5 77,-156.5"/>
<text text-anchor="start" x="85" y="-185.5" font-family="Helvetica,sans-Serif" font-size="10.00">/home/krzysztof/PO</text>
<text text-anchor="start" x="85" y="-174.5" font-family="Helvetica,sans-Serif" font-size="10.00">/zad5_1&#45;kgliwinski/include</text>
<text text-anchor="middle" x="150" y="-163.5" font-family="Helvetica,sans-Serif" font-size="10.00">/scene.hpp</text>
</a>
</g>
</g>
<!-- Node1&#45;&gt;Node3 -->
<g id="edge7" class="edge">
<title>Node1&#45;&gt;Node3</title>
<path fill="none" stroke="midnightblue" d="M273.74,-317.79C245.4,-309.52 215.29,-296.49 193,-276 170.15,-255.01 158.82,-219.7 153.69,-197.69"/>
<polygon fill="midnightblue" stroke="midnightblue" points="273.1,-321.25 283.67,-320.53 274.96,-314.5 273.1,-321.25"/>
</g>
<!-- Node8 -->
<g id="node8" class="node">
<title>Node8</title>
<g id="a_node8"><a xlink:href="menu__cub_8hpp.html" target="_top" xlink:title="Plik zawiera definicję klasy reprezentujacej menu obslugi menu dla obrotow 3D.">
<polygon fill="none" stroke="black" points="366,-234.5 366,-275.5 512,-275.5 512,-234.5 366,-234.5"/>
<text text-anchor="start" x="374" y="-263.5" font-family="Helvetica,sans-Serif" font-size="10.00">/home/krzysztof/PO</text>
<text text-anchor="start" x="374" y="-252.5" font-family="Helvetica,sans-Serif" font-size="10.00">/zad5_1&#45;kgliwinski/include</text>
<text text-anchor="middle" x="439" y="-241.5" font-family="Helvetica,sans-Serif" font-size="10.00">/menu_cub.hpp</text>
</a>
</g>
</g>
<!-- Node1&#45;&gt;Node8 -->
<g id="edge8" class="edge">
<title>Node1&#45;&gt;Node8</title>
<path fill="none" stroke="midnightblue" d="M385.6,-305.49C396.24,-295.63 408.11,-284.63 417.95,-275.51"/>
<polygon fill="midnightblue" stroke="midnightblue" points="383.07,-303.06 378.12,-312.43 387.83,-308.2 383.07,-303.06"/>
</g>
<!-- Node10 -->
<g id="node10" class="node">
<title>Node10</title>
<g id="a_node10"><a xlink:href="lacze__do__gnuplota_8cpp.html" target="_top" xlink:title=" ">
<polygon fill="none" stroke="black" points="530.5,-234.5 530.5,-275.5 661.5,-275.5 661.5,-234.5 530.5,-234.5"/>
<text text-anchor="start" x="538.5" y="-263.5" font-family="Helvetica,sans-Serif" font-size="10.00">/home/krzysztof/PO</text>
<text text-anchor="start" x="538.5" y="-252.5" font-family="Helvetica,sans-Serif" font-size="10.00">/zad5_1&#45;kgliwinski/src</text>
<text text-anchor="middle" x="596" y="-241.5" font-family="Helvetica,sans-Serif" font-size="10.00">/lacze_do_gnuplota.cpp</text>
</a>
</g>
</g>
<!-- Node1&#45;&gt;Node10 -->
<g id="edge10" class="edge">
<title>Node1&#45;&gt;Node10</title>
<path fill="none" stroke="midnightblue" d="M428.37,-309.3C462.2,-298.55 502.21,-285.82 534.66,-275.51"/>
<polygon fill="midnightblue" stroke="midnightblue" points="427.02,-306.06 418.55,-312.43 429.14,-312.73 427.02,-306.06"/>
</g>
<!-- Node2&#45;&gt;Node3 -->
<g id="edge2" class="edge">
<title>Node2&#45;&gt;Node3</title>
<path fill="none" stroke="midnightblue" d="M234.22,-229.2C217.3,-218.92 197.96,-207.16 182.08,-197.51"/>
<polygon fill="midnightblue" stroke="midnightblue" points="232.45,-232.22 242.81,-234.43 236.08,-226.24 232.45,-232.22"/>
</g>
<!-- Node7 -->
<g id="node7" class="node">
<title>Node7</title>
<g id="a_node7"><a xlink:href="drone_8cpp.html" target="_top" xlink:title=" ">
<polygon fill="none" stroke="black" points="241.5,-156.5 241.5,-197.5 366.5,-197.5 366.5,-156.5 241.5,-156.5"/>
<text text-anchor="start" x="249.5" y="-185.5" font-family="Helvetica,sans-Serif" font-size="10.00">/home/krzysztof/PO</text>
<text text-anchor="start" x="249.5" y="-174.5" font-family="Helvetica,sans-Serif" font-size="10.00">/zad5_1&#45;kgliwinski/src</text>
<text text-anchor="middle" x="304" y="-163.5" font-family="Helvetica,sans-Serif" font-size="10.00">/drone.cpp</text>
</a>
</g>
</g>
<!-- Node2&#45;&gt;Node7 -->
<g id="edge6" class="edge">
<title>Node2&#45;&gt;Node7</title>
<path fill="none" stroke="midnightblue" d="M286.11,-224.88C289.61,-215.72 293.38,-205.83 296.56,-197.51"/>
<polygon fill="midnightblue" stroke="midnightblue" points="282.76,-223.84 282.47,-234.43 289.3,-226.33 282.76,-223.84"/>
</g>
<!-- Node4 -->
<g id="node4" class="node">
<title>Node4</title>
<g id="a_node4"><a xlink:href="menu_8hpp.html" target="_top" xlink:title="Plik zawiera definicję klasy reprezentujacej menu, obslugujace menu programu.">
<polygon fill="none" stroke="black" points="0,-78.5 0,-119.5 146,-119.5 146,-78.5 0,-78.5"/>
<text text-anchor="start" x="8" y="-107.5" font-family="Helvetica,sans-Serif" font-size="10.00">/home/krzysztof/PO</text>
<text text-anchor="start" x="8" y="-96.5" font-family="Helvetica,sans-Serif" font-size="10.00">/zad5_1&#45;kgliwinski/include</text>
<text text-anchor="middle" x="73" y="-85.5" font-family="Helvetica,sans-Serif" font-size="10.00">/menu.hpp</text>
</a>
</g>
</g>
<!-- Node3&#45;&gt;Node4 -->
<g id="edge3" class="edge">
<title>Node3&#45;&gt;Node4</title>
<path fill="none" stroke="midnightblue" d="M122.85,-149.2C112.93,-139.42 101.91,-128.54 92.76,-119.51"/>
<polygon fill="midnightblue" stroke="midnightblue" points="120.59,-151.89 130.17,-156.43 125.51,-146.91 120.59,-151.89"/>
</g>
<!-- Node6 -->
<g id="node6" class="node">
<title>Node6</title>
<g id="a_node6"><a xlink:href="scene_8cpp.html" target="_top" xlink:title=" ">
<polygon fill="none" stroke="black" points="164.5,-78.5 164.5,-119.5 289.5,-119.5 289.5,-78.5 164.5,-78.5"/>
<text text-anchor="start" x="172.5" y="-107.5" font-family="Helvetica,sans-Serif" font-size="10.00">/home/krzysztof/PO</text>
<text text-anchor="start" x="172.5" y="-96.5" font-family="Helvetica,sans-Serif" font-size="10.00">/zad5_1&#45;kgliwinski/src</text>
<text text-anchor="middle" x="227" y="-85.5" font-family="Helvetica,sans-Serif" font-size="10.00">/scene.cpp</text>
</a>
</g>
</g>
<!-- Node3&#45;&gt;Node6 -->
<g id="edge5" class="edge">
<title>Node3&#45;&gt;Node6</title>
<path fill="none" stroke="midnightblue" d="M177.15,-149.2C187.07,-139.42 198.09,-128.54 207.24,-119.51"/>
<polygon fill="midnightblue" stroke="midnightblue" points="174.49,-146.91 169.83,-156.43 179.41,-151.89 174.49,-146.91"/>
</g>
<!-- Node5 -->
<g id="node5" class="node">
<title>Node5</title>
<g id="a_node5"><a xlink:href="menu_8cpp.html" target="_top" xlink:title=" ">
<polygon fill="none" stroke="black" points="10.5,-0.5 10.5,-41.5 135.5,-41.5 135.5,-0.5 10.5,-0.5"/>
<text text-anchor="start" x="18.5" y="-29.5" font-family="Helvetica,sans-Serif" font-size="10.00">/home/krzysztof/PO</text>
<text text-anchor="start" x="18.5" y="-18.5" font-family="Helvetica,sans-Serif" font-size="10.00">/zad5_1&#45;kgliwinski/src</text>
<text text-anchor="middle" x="73" y="-7.5" font-family="Helvetica,sans-Serif" font-size="10.00">/menu.cpp</text>
</a>
</g>
</g>
<!-- Node4&#45;&gt;Node5 -->
<g id="edge4" class="edge">
<title>Node4&#45;&gt;Node5</title>
<path fill="none" stroke="midnightblue" d="M73,-68.3C73,-59.3 73,-49.65 73,-41.51"/>
<polygon fill="midnightblue" stroke="midnightblue" points="69.5,-68.43 73,-78.43 76.5,-68.43 69.5,-68.43"/>
</g>
<!-- Node9 -->
<g id="node9" class="node">
<title>Node9</title>
<g id="a_node9"><a xlink:href="menu__cub_8cpp.html" target="_top" xlink:title=" ">
<polygon fill="none" stroke="black" points="384.5,-156.5 384.5,-197.5 509.5,-197.5 509.5,-156.5 384.5,-156.5"/>
<text text-anchor="start" x="392.5" y="-185.5" font-family="Helvetica,sans-Serif" font-size="10.00">/home/krzysztof/PO</text>
<text text-anchor="start" x="392.5" y="-174.5" font-family="Helvetica,sans-Serif" font-size="10.00">/zad5_1&#45;kgliwinski/src</text>
<text text-anchor="middle" x="447" y="-163.5" font-family="Helvetica,sans-Serif" font-size="10.00">/menu_cub.cpp</text>
</a>
</g>
</g>
<!-- Node8&#45;&gt;Node9 -->
<g id="edge9" class="edge">
<title>Node8&#45;&gt;Node9</title>
<path fill="none" stroke="midnightblue" d="M442.13,-224.3C443.07,-215.3 444.09,-205.65 444.95,-197.51"/>
<polygon fill="midnightblue" stroke="midnightblue" points="438.63,-224.12 441.06,-234.43 445.59,-224.85 438.63,-224.12"/>
</g>
</g>
</svg>
