<?xml version="1.0" encoding="UTF-8" standalone="no"?>
<!DOCTYPE svg PUBLIC "-//W3C//DTD SVG 1.1//EN"
 "http://www.w3.org/Graphics/SVG/1.1/DTD/svg11.dtd">
<!-- Generated by graphviz version 2.43.0 (0)
 -->
<!-- Title: /home/krzysztof/PO/zad5_1&#45;kgliwinski/include/matrix3D.hpp Pages: 1 -->
<!--zoomable 518 -->
<svg id="main" version="1.1" xmlns="http://www.w3.org/2000/svg" xmlns:xlink="http://www.w3.org/1999/xlink" xml:space="preserve" onload="init(evt)">
<style type="text/css"><![CDATA[
.edge:hover path { stroke: red; }
.edge:hover polygon { stroke: red; fill: red; }
]]></style>
<script type="text/javascript"><![CDATA[
var edges = document.getElementsByTagName('g');
if (edges && edges.length) {
  for (var i=0;i<edges.length;i++) {
    if (edges[i].id.substr(0,4)=='edge') {
      edges[i].setAttribute('class','edge');
    }
  }
}
]]></script>
        <defs>
                <circle id="rim" cx="0" cy="0" r="7"/>
                <circle id="rim2" cx="0" cy="0" r="3.5"/>
                <g id="zoomPlus">
                        <use xlink:href="#rim" fill="#404040">
                                <set attributeName="fill" to="#808080" begin="zoomplus.mouseover" end="zoomplus.mouseout"/>
                        </use>
                        <path d="M-4,0h8M0,-4v8" fill="none" stroke="white" stroke-width="1.5" pointer-events="none"/>
                </g>
                <g id="zoomMin">
                        <use xlink:href="#rim" fill="#404040">
                                <set attributeName="fill" to="#808080" begin="zoomminus.mouseover" end="zoomminus.mouseout"/>
                        </use>
                        <path d="M-4,0h8" fill="none" stroke="white" stroke-width="1.5" pointer-events="none"/>
                </g>
                <g id="dirArrow">
                        <path fill="none" stroke="white" stroke-width="1.5" d="M0,-3.0v7 M-2.5,-0.5L0,-3.0L2.5,-0.5"/>
                </g>
               <g id="resetDef">
                       <use xlink:href="#rim2" fill="#404040">
                               <set attributeName="fill" to="#808080" begin="reset.mouseover" end="reset.mouseout"/>
                       </use>
               </g>
        </defs>

<script type="text/javascript">
var viewWidth = 544;
var viewHeight = 518;
var sectionId = 'dynsection-1';
</script>
<script xlink:href="svgpan.js"/>
<svg id="graph" class="graph">
<g id="viewport">
<title>/home/krzysztof/PO/zad5_1&#45;kgliwinski/include/matrix3D.hpp</title>
<!-- Node1 -->
<g id="node1" class="node">
<title>Node1</title>
<g id="a_node1"><a xlink:title=" ">
<polygon fill="#bfbfbf" stroke="black" points="390,-468.5 390,-509.5 536,-509.5 536,-468.5 390,-468.5"/>
<text text-anchor="start" x="398" y="-497.5" font-family="Helvetica,sans-Serif" font-size="10.00">/home/krzysztof/PO</text>
<text text-anchor="start" x="398" y="-486.5" font-family="Helvetica,sans-Serif" font-size="10.00">/zad5_1&#45;kgliwinski/include</text>
<text text-anchor="middle" x="463" y="-475.5" font-family="Helvetica,sans-Serif" font-size="10.00">/matrix3D.hpp</text>
</a>
</g>
</g>
<!-- Node2 -->
<g id="node2" class="node">
<title>Node2</title>
<g id="a_node2"><a xlink:href="block_8hpp.html" target="_top" xlink:title="Plik zawiera definicję klasy reprezentujacej bryle w przestrzeni trojwymiarowej.">
<polygon fill="none" stroke="black" points="236,-390.5 236,-431.5 382,-431.5 382,-390.5 236,-390.5"/>
<text text-anchor="start" x="244" y="-419.5" font-family="Helvetica,sans-Serif" font-size="10.00">/home/krzysztof/PO</text>
<text text-anchor="start" x="244" y="-408.5" font-family="Helvetica,sans-Serif" font-size="10.00">/zad5_1&#45;kgliwinski/include</text>
<text text-anchor="middle" x="309" y="-397.5" font-family="Helvetica,sans-Serif" font-size="10.00">/block.hpp</text>
</a>
</g>
</g>
<!-- Node1&#45;&gt;Node2 -->
<g id="edge1" class="edge">
<title>Node1&#45;&gt;Node2</title>
<path fill="none" stroke="midnightblue" d="M414.18,-463.91C393.01,-453.46 368.53,-441.38 348.52,-431.51"/>
<polygon fill="midnightblue" stroke="midnightblue" points="412.82,-467.14 423.34,-468.43 415.92,-460.86 412.82,-467.14"/>
</g>
<!-- Node14 -->
<g id="node14" class="node">
<title>Node14</title>
<g id="a_node14"><a xlink:href="matrix3_d_8cpp.html" target="_top" xlink:title=" ">
<polygon fill="none" stroke="black" points="400.5,-390.5 400.5,-431.5 525.5,-431.5 525.5,-390.5 400.5,-390.5"/>
<text text-anchor="start" x="408.5" y="-419.5" font-family="Helvetica,sans-Serif" font-size="10.00">/home/krzysztof/PO</text>
<text text-anchor="start" x="408.5" y="-408.5" font-family="Helvetica,sans-Serif" font-size="10.00">/zad5_1&#45;kgliwinski/src</text>
<text text-anchor="middle" x="463" y="-397.5" font-family="Helvetica,sans-Serif" font-size="10.00">/matrix3D.cpp</text>
</a>
</g>
</g>
<!-- Node1&#45;&gt;Node14 -->
<g id="edge14" class="edge">
<title>Node1&#45;&gt;Node14</title>
<path fill="none" stroke="midnightblue" d="M456.4,-458.3C456.08,-449.3 456.28,-439.65 457.02,-431.51"/>
<polygon fill="midnightblue" stroke="midnightblue" points="452.91,-458.66 457.01,-468.43 459.9,-458.23 452.91,-458.66"/>
</g>
<!-- Node3 -->
<g id="node3" class="node">
<title>Node3</title>
<g id="a_node3"><a xlink:href="cuboid_8hpp.html" target="_top" xlink:title="Plik zawiera definicję klasy reprezentujacej prostopadloscian w przestrzeni trojwymiarowej.">
<polygon fill="none" stroke="black" points="72,-312.5 72,-353.5 218,-353.5 218,-312.5 72,-312.5"/>
<text text-anchor="start" x="80" y="-341.5" font-family="Helvetica,sans-Serif" font-size="10.00">/home/krzysztof/PO</text>
<text text-anchor="start" x="80" y="-330.5" font-family="Helvetica,sans-Serif" font-size="10.00">/zad5_1&#45;kgliwinski/include</text>
<text text-anchor="middle" x="145" y="-319.5" font-family="Helvetica,sans-Serif" font-size="10.00">/cuboid.hpp</text>
</a>
</g>
</g>
<!-- Node2&#45;&gt;Node3 -->
<g id="edge2" class="edge">
<title>Node2&#45;&gt;Node3</title>
<path fill="none" stroke="midnightblue" d="M257.62,-386.19C234.93,-375.67 208.59,-363.47 187.09,-353.51"/>
<polygon fill="midnightblue" stroke="midnightblue" points="256.22,-389.4 266.77,-390.43 259.16,-383.05 256.22,-389.4"/>
</g>
<!-- Node11 -->
<g id="node11" class="node">
<title>Node11</title>
<g id="a_node11"><a xlink:href="prism_8hpp.html" target="_top" xlink:title="Plik zawiera definicję klasy reprezentujacej graniastoslup o podstawie o 6 wierzcholkach w przestrzen...">
<polygon fill="none" stroke="black" points="236,-312.5 236,-353.5 382,-353.5 382,-312.5 236,-312.5"/>
<text text-anchor="start" x="244" y="-341.5" font-family="Helvetica,sans-Serif" font-size="10.00">/home/krzysztof/PO</text>
<text text-anchor="start" x="244" y="-330.5" font-family="Helvetica,sans-Serif" font-size="10.00">/zad5_1&#45;kgliwinski/include</text>
<text text-anchor="middle" x="309" y="-319.5" font-family="Helvetica,sans-Serif" font-size="10.00">/prism.hpp</text>
</a>
</g>
</g>
<!-- Node2&#45;&gt;Node11 -->
<g id="edge10" class="edge">
<title>Node2&#45;&gt;Node11</title>
<path fill="none" stroke="midnightblue" d="M309,-380.3C309,-371.3 309,-361.65 309,-353.51"/>
<polygon fill="midnightblue" stroke="midnightblue" points="305.5,-380.43 309,-390.43 312.5,-380.43 305.5,-380.43"/>
</g>
<!-- Node13 -->
<g id="node13" class="node">
<title>Node13</title>
<g id="a_node13"><a xlink:href="block_8cpp.html" target="_top" xlink:title=" ">
<polygon fill="none" stroke="black" points="400.5,-312.5 400.5,-353.5 525.5,-353.5 525.5,-312.5 400.5,-312.5"/>
<text text-anchor="start" x="408.5" y="-341.5" font-family="Helvetica,sans-Serif" font-size="10.00">/home/krzysztof/PO</text>
<text text-anchor="start" x="408.5" y="-330.5" font-family="Helvetica,sans-Serif" font-size="10.00">/zad5_1&#45;kgliwinski/src</text>
<text text-anchor="middle" x="463" y="-319.5" font-family="Helvetica,sans-Serif" font-size="10.00">/block.cpp</text>
</a>
</g>
</g>
<!-- Node2&#45;&gt;Node13 -->
<g id="edge13" class="edge">
<title>Node2&#45;&gt;Node13</title>
<path fill="none" stroke="midnightblue" d="M357.82,-385.91C378.99,-375.46 403.47,-363.38 423.48,-353.51"/>
<polygon fill="midnightblue" stroke="midnightblue" points="356.08,-382.86 348.66,-390.43 359.18,-389.14 356.08,-382.86"/>
</g>
<!-- Node4 -->
<g id="node4" class="node">
<title>Node4</title>
<g id="a_node4"><a xlink:href="drone_8hpp.html" target="_top" xlink:title="Plik zawiera definicję klasy reprezentujacej drona, budowanie i przemieszczanie go.">
<polygon fill="none" stroke="black" points="154,-234.5 154,-275.5 300,-275.5 300,-234.5 154,-234.5"/>
<text text-anchor="start" x="162" y="-263.5" font-family="Helvetica,sans-Serif" font-size="10.00">/home/krzysztof/PO</text>
<text text-anchor="start" x="162" y="-252.5" font-family="Helvetica,sans-Serif" font-size="10.00">/zad5_1&#45;kgliwinski/include</text>
<text text-anchor="middle" x="227" y="-241.5" font-family="Helvetica,sans-Serif" font-size="10.00">/drone.hpp</text>
</a>
</g>
</g>
<!-- Node3&#45;&gt;Node4 -->
<g id="edge3" class="edge">
<title>Node3&#45;&gt;Node4</title>
<path fill="none" stroke="midnightblue" d="M173.6,-305.49C184.24,-295.63 196.11,-284.63 205.95,-275.51"/>
<polygon fill="midnightblue" stroke="midnightblue" points="171.07,-303.06 166.12,-312.43 175.83,-308.2 171.07,-303.06"/>
</g>
<!-- Node10 -->
<g id="node10" class="node">
<title>Node10</title>
<g id="a_node10"><a xlink:href="cuboid_8cpp.html" target="_top" xlink:title=" ">
<polygon fill="none" stroke="black" points="10.5,-234.5 10.5,-275.5 135.5,-275.5 135.5,-234.5 10.5,-234.5"/>
<text text-anchor="start" x="18.5" y="-263.5" font-family="Helvetica,sans-Serif" font-size="10.00">/home/krzysztof/PO</text>
<text text-anchor="start" x="18.5" y="-252.5" font-family="Helvetica,sans-Serif" font-size="10.00">/zad5_1&#45;kgliwinski/src</text>
<text text-anchor="middle" x="73" y="-241.5" font-family="Helvetica,sans-Serif" font-size="10.00">/cuboid.cpp</text>
</a>
</g>
</g>
<!-- Node3&#45;&gt;Node10 -->
<g id="edge9" class="edge">
<title>Node3&#45;&gt;Node10</title>
<path fill="none" stroke="midnightblue" d="M119.34,-304.92C110.14,-295.2 99.95,-284.45 91.48,-275.51"/>
<polygon fill="midnightblue" stroke="midnightblue" points="117.04,-307.58 126.46,-312.43 122.12,-302.76 117.04,-307.58"/>
</g>
<!-- Node5 -->
<g id="node5" class="node">
<title>Node5</title>
<g id="a_node5"><a xlink:href="scene_8hpp.html" target="_top" xlink:title="Plik zawiera definicję klasy reprezentujacej scene, obslugujacej zapis do plikow i wytswietlanie w gn...">
<polygon fill="none" stroke="black" points="77,-156.5 77,-197.5 223,-197.5 223,-156.5 77,-156.5"/>
<text text-anchor="start" x="85" y="-185.5" font-family="Helvetica,sans-Serif" font-size="10.00">/home/krzysztof/PO</text>
<text text-anchor="start" x="85" y="-174.5" font-family="Helvetica,sans-Serif" font-size="10.00">/zad5_1&#45;kgliwinski/include</text>
<text text-anchor="middle" x="150" y="-163.5" font-family="Helvetica,sans-Serif" font-size="10.00">/scene.hpp</text>
</a>
</g>
</g>
<!-- Node4&#45;&gt;Node5 -->
<g id="edge4" class="edge">
<title>Node4&#45;&gt;Node5</title>
<path fill="none" stroke="midnightblue" d="M199.85,-227.2C189.93,-217.42 178.91,-206.54 169.76,-197.51"/>
<polygon fill="midnightblue" stroke="midnightblue" points="197.59,-229.89 207.17,-234.43 202.51,-224.91 197.59,-229.89"/>
</g>
<!-- Node9 -->
<g id="node9" class="node">
<title>Node9</title>
<g id="a_node9"><a xlink:href="drone_8cpp.html" target="_top" xlink:title=" ">
<polygon fill="none" stroke="black" points="241.5,-156.5 241.5,-197.5 366.5,-197.5 366.5,-156.5 241.5,-156.5"/>
<text text-anchor="start" x="249.5" y="-185.5" font-family="Helvetica,sans-Serif" font-size="10.00">/home/krzysztof/PO</text>
<text text-anchor="start" x="249.5" y="-174.5" font-family="Helvetica,sans-Serif" font-size="10.00">/zad5_1&#45;kgliwinski/src</text>
<text text-anchor="middle" x="304" y="-163.5" font-family="Helvetica,sans-Serif" font-size="10.00">/drone.cpp</text>
</a>
</g>
</g>
<!-- Node4&#45;&gt;Node9 -->
<g id="edge8" class="edge">
<title>Node4&#45;&gt;Node9</title>
<path fill="none" stroke="midnightblue" d="M254.15,-227.2C264.07,-217.42 275.09,-206.54 284.24,-197.51"/>
<polygon fill="midnightblue" stroke="midnightblue" points="251.49,-224.91 246.83,-234.43 256.41,-229.89 251.49,-224.91"/>
</g>
<!-- Node6 -->
<g id="node6" class="node">
<title>Node6</title>
<g id="a_node6"><a xlink:href="menu_8hpp.html" target="_top" xlink:title="Plik zawiera definicję klasy reprezentujacej menu, obslugujace menu programu.">
<polygon fill="none" stroke="black" points="0,-78.5 0,-119.5 146,-119.5 146,-78.5 0,-78.5"/>
<text text-anchor="start" x="8" y="-107.5" font-family="Helvetica,sans-Serif" font-size="10.00">/home/krzysztof/PO</text>
<text text-anchor="start" x="8" y="-96.5" font-family="Helvetica,sans-Serif" font-size="10.00">/zad5_1&#45;kgliwinski/include</text>
<text text-anchor="middle" x="73" y="-85.5" font-family="Helvetica,sans-Serif" font-size="10.00">/menu.hpp</text>
</a>
</g>
</g>
<!-- Node5&#45;&gt;Node6 -->
<g id="edge5" class="edge">
<title>Node5&#45;&gt;Node6</title>
<path fill="none" stroke="midnightblue" d="M122.85,-149.2C112.93,-139.42 101.91,-128.54 92.76,-119.51"/>
<polygon fill="midnightblue" stroke="midnightblue" points="120.59,-151.89 130.17,-156.43 125.51,-146.91 120.59,-151.89"/>
</g>
<!-- Node8 -->
<g id="node8" class="node">
<title>Node8</title>
<g id="a_node8"><a xlink:href="scene_8cpp.html" target="_top" xlink:title=" ">
<polygon fill="none" stroke="black" points="164.5,-78.5 164.5,-119.5 289.5,-119.5 289.5,-78.5 164.5,-78.5"/>
<text text-anchor="start" x="172.5" y="-107.5" font-family="Helvetica,sans-Serif" font-size="10.00">/home/krzysztof/PO</text>
<text text-anchor="start" x="172.5" y="-96.5" font-family="Helvetica,sans-Serif" font-size="10.00">/zad5_1&#45;kgliwinski/src</text>
<text text-anchor="middle" x="227" y="-85.5" font-family="Helvetica,sans-Serif" font-size="10.00">/scene.cpp</text>
</a>
</g>
</g>
<!-- Node5&#45;&gt;Node8 -->
<g id="edge7" class="edge">
<title>Node5&#45;&gt;Node8</title>
<path fill="none" stroke="midnightblue" d="M177.15,-149.2C187.07,-139.42 198.09,-128.54 207.24,-119.51"/>
<polygon fill="midnightblue" stroke="midnightblue" points="174.49,-146.91 169.83,-156.43 179.41,-151.89 174.49,-146.91"/>
</g>
<!-- Node7 -->
<g id="node7" class="node">
<title>Node7</title>
<g id="a_node7"><a xlink:href="menu_8cpp.html" target="_top" xlink:title=" ">
<polygon fill="none" stroke="black" points="10.5,-0.5 10.5,-41.5 135.5,-41.5 135.5,-0.5 10.5,-0.5"/>
<text text-anchor="start" x="18.5" y="-29.5" font-family="Helvetica,sans-Serif" font-size="10.00">/home/krzysztof/PO</text>
<text text-anchor="start" x="18.5" y="-18.5" font-family="Helvetica,sans-Serif" font-size="10.00">/zad5_1&#45;kgliwinski/src</text>
<text text-anchor="middle" x="73" y="-7.5" font-family="Helvetica,sans-Serif" font-size="10.00">/menu.cpp</text>
</a>
</g>
</g>
<!-- Node6&#45;&gt;Node7 -->
<g id="edge6" class="edge">
<title>Node6&#45;&gt;Node7</title>
<path fill="none" stroke="midnightblue" d="M73,-68.3C73,-59.3 73,-49.65 73,-41.51"/>
<polygon fill="midnightblue" stroke="midnightblue" points="69.5,-68.43 73,-78.43 76.5,-68.43 69.5,-68.43"/>
</g>
<!-- Node11&#45;&gt;Node4 -->
<g id="edge11" class="edge">
<title>Node11&#45;&gt;Node4</title>
<path fill="none" stroke="midnightblue" d="M280.4,-305.49C269.76,-295.63 257.89,-284.63 248.05,-275.51"/>
<polygon fill="midnightblue" stroke="midnightblue" points="278.17,-308.2 287.88,-312.43 282.93,-303.06 278.17,-308.2"/>
</g>
<!-- Node12 -->
<g id="node12" class="node">
<title>Node12</title>
<g id="a_node12"><a xlink:href="prism_8cpp.html" target="_top" xlink:title=" ">
<polygon fill="none" stroke="black" points="318.5,-234.5 318.5,-275.5 443.5,-275.5 443.5,-234.5 318.5,-234.5"/>
<text text-anchor="start" x="326.5" y="-263.5" font-family="Helvetica,sans-Serif" font-size="10.00">/home/krzysztof/PO</text>
<text text-anchor="start" x="326.5" y="-252.5" font-family="Helvetica,sans-Serif" font-size="10.00">/zad5_1&#45;kgliwinski/src</text>
<text text-anchor="middle" x="381" y="-241.5" font-family="Helvetica,sans-Serif" font-size="10.00">/prism.cpp</text>
</a>
</g>
</g>
<!-- Node11&#45;&gt;Node12 -->
<g id="edge12" class="edge">
<title>Node11&#45;&gt;Node12</title>
<path fill="none" stroke="midnightblue" d="M334.66,-304.92C343.86,-295.2 354.05,-284.45 362.52,-275.51"/>
<polygon fill="midnightblue" stroke="midnightblue" points="331.88,-302.76 327.54,-312.43 336.96,-307.58 331.88,-302.76"/>
</g>
<!-- Node14&#45;&gt;Node1 -->
<g id="edge15" class="edge">
<title>Node14&#45;&gt;Node1</title>
<path fill="none" stroke="midnightblue" d="M469.6,-441.63C469.92,-450.62 469.72,-460.27 468.99,-468.43"/>
<polygon fill="midnightblue" stroke="midnightblue" points="473.09,-441.27 468.98,-431.51 466.1,-441.7 473.09,-441.27"/>
</g>
</g>
</svg>
        <g id="navigator" transform="translate(0 0)" fill="#404254">
                <rect fill="#f2f5e9" fill-opacity="0.5" stroke="#606060" stroke-width=".5" x="0" y="0" width="60" height="60"/>
                <use id="zoomplus" xlink:href="#zoomPlus" x="17" y="9" onmousedown="handleZoom(evt,'in')"/>
                <use id="zoomminus" xlink:href="#zoomMin" x="42" y="9" onmousedown="handleZoom(evt,'out')"/>
                <use id="reset" xlink:href="#resetDef" x="30" y="36" onmousedown="handleReset()"/>
                <g id="arrowUp" xlink:href="#dirArrow" transform="translate(30 24)" onmousedown="handlePan(0,-1)">
                  <use xlink:href="#rim" fill="#404040">
                        <set attributeName="fill" to="#808080" begin="arrowUp.mouseover" end="arrowUp.mouseout"/>
                  </use>
                  <path fill="none" stroke="white" stroke-width="1.5" d="M0,-3.0v7 M-2.5,-0.5L0,-3.0L2.5,-0.5"/>
                </g>
                <g id="arrowRight" xlink:href="#dirArrow" transform="rotate(90) translate(36 -43)" onmousedown="handlePan(1,0)">
                  <use xlink:href="#rim" fill="#404040">
                        <set attributeName="fill" to="#808080" begin="arrowRight.mouseover" end="arrowRight.mouseout"/>
                  </use>
                  <path fill="none" stroke="white" stroke-width="1.5" d="M0,-3.0v7 M-2.5,-0.5L0,-3.0L2.5,-0.5"/>
                </g>
                <g id="arrowDown" xlink:href="#dirArrow" transform="rotate(180) translate(-30 -48)" onmousedown="handlePan(0,1)">
                  <use xlink:href="#rim" fill="#404040">
                        <set attributeName="fill" to="#808080" begin="arrowDown.mouseover" end="arrowDown.mouseout"/>
                  </use>
                  <path fill="none" stroke="white" stroke-width="1.5" d="M0,-3.0v7 M-2.5,-0.5L0,-3.0L2.5,-0.5"/>
                </g>
                <g id="arrowLeft" xlink:href="#dirArrow" transform="rotate(270) translate(-36 17)" onmousedown="handlePan(-1,0)">
                  <use xlink:href="#rim" fill="#404040">
                        <set attributeName="fill" to="#808080" begin="arrowLeft.mouseover" end="arrowLeft.mouseout"/>
                  </use>
                  <path fill="none" stroke="white" stroke-width="1.5" d="M0,-3.0v7 M-2.5,-0.5L0,-3.0L2.5,-0.5"/>
                </g>
        </g>
        <svg viewBox="0 0 15 15" width="100%" height="30px" preserveAspectRatio="xMaxYMin meet">
         <g id="arrow_out" transform="scale(0.3 0.3)">
          <a xlink:href="matrix3_d_8hpp__dep__incl_org.svg" target="_base">
           <rect id="button" ry="5" rx="5" y="6" x="6" height="38" width="38"
                fill="#f2f5e9" fill-opacity="0.5" stroke="#606060" stroke-width="1.0"/>
           <path id="arrow"
             d="M 11.500037,31.436501 C 11.940474,20.09759 22.043105,11.32322 32.158766,21.979434 L 37.068811,17.246167 C 37.068811,17.246167 37.088388,32 37.088388,32 L 22.160133,31.978069 C 22.160133,31.978069 26.997745,27.140456 26.997745,27.140456 C 18.528582,18.264221 13.291696,25.230495 11.500037,31.436501 z"
             style="fill:#404040;"/>
          </a>
         </g>
        </svg>
</svg>
