<?xml version="1.0" encoding="UTF-8" standalone="no"?>
<!DOCTYPE svg PUBLIC "-//W3C//DTD SVG 1.1//EN"
 "http://www.w3.org/Graphics/SVG/1.1/DTD/svg11.dtd">
<!-- Generated by graphviz version 2.43.0 (0)
 -->
<!-- Title: /home/krzysztof/PO/zad5_1&#45;kgliwinski/src/menu.cpp Pages: 1 -->
<svg width="612pt" height="666pt"
 viewBox="0.00 0.00 611.50 666.00" xmlns="http://www.w3.org/2000/svg" xmlns:xlink="http://www.w3.org/1999/xlink">
<g id="graph0" class="graph" transform="scale(1 1) rotate(0) translate(4 662)">
<title>/home/krzysztof/PO/zad5_1&#45;kgliwinski/src/menu.cpp</title>
<!-- Node1 -->
<g id="node1" class="node">
<title>Node1</title>
<g id="a_node1"><a xlink:title=" ">
<polygon fill="#bfbfbf" stroke="black" points="260,-616.5 260,-657.5 385,-657.5 385,-616.5 260,-616.5"/>
<text text-anchor="start" x="268" y="-645.5" font-family="Helvetica,sans-Serif" font-size="10.00">/home/krzysztof/PO</text>
<text text-anchor="start" x="268" y="-634.5" font-family="Helvetica,sans-Serif" font-size="10.00">/zad5_1&#45;kgliwinski/src</text>
<text text-anchor="middle" x="322.5" y="-623.5" font-family="Helvetica,sans-Serif" font-size="10.00">/menu.cpp</text>
</a>
</g>
</g>
<!-- Node2 -->
<g id="node2" class="node">
<title>Node2</title>
<g id="a_node2"><a xlink:href="menu_8hpp.html" target="_top" xlink:title="Plik zawiera definicję klasy reprezentujacej menu, obslugujace menu programu.">
<polygon fill="none" stroke="black" points="266,-560.5 266,-579.5 379,-579.5 379,-560.5 266,-560.5"/>
<text text-anchor="middle" x="322.5" y="-567.5" font-family="Helvetica,sans-Serif" font-size="10.00">../include/menu.hpp</text>
</a>
</g>
</g>
<!-- Node1&#45;&gt;Node2 -->
<g id="edge1" class="edge">
<title>Node1&#45;&gt;Node2</title>
<path fill="none" stroke="midnightblue" d="M322.5,-616.5C322.5,-608.07 322.5,-598.24 322.5,-589.87"/>
<polygon fill="midnightblue" stroke="midnightblue" points="326,-589.65 322.5,-579.65 319,-589.65 326,-589.65"/>
</g>
<!-- Node3 -->
<g id="node3" class="node">
<title>Node3</title>
<g id="a_node3"><a xlink:href="scene_8hpp.html" target="_top" xlink:title="Plik zawiera definicję klasy reprezentujacej scene, obslugujacej zapis do plikow i wytswietlanie w gn...">
<polygon fill="none" stroke="black" points="289.5,-504.5 289.5,-523.5 355.5,-523.5 355.5,-504.5 289.5,-504.5"/>
<text text-anchor="middle" x="322.5" y="-511.5" font-family="Helvetica,sans-Serif" font-size="10.00">scene.hpp</text>
</a>
</g>
</g>
<!-- Node2&#45;&gt;Node3 -->
<g id="edge2" class="edge">
<title>Node2&#45;&gt;Node3</title>
<path fill="none" stroke="midnightblue" d="M322.5,-560.08C322.5,-553.01 322.5,-542.86 322.5,-533.99"/>
<polygon fill="midnightblue" stroke="midnightblue" points="326,-533.75 322.5,-523.75 319,-533.75 326,-533.75"/>
</g>
<!-- Node4 -->
<g id="node4" class="node">
<title>Node4</title>
<g id="a_node4"><a xlink:title=" ">
<polygon fill="none" stroke="#bfbfbf" points="234.5,-0.5 234.5,-19.5 294.5,-19.5 294.5,-0.5 234.5,-0.5"/>
<text text-anchor="middle" x="264.5" y="-7.5" font-family="Helvetica,sans-Serif" font-size="10.00">iostream</text>
</a>
</g>
</g>
<!-- Node3&#45;&gt;Node4 -->
<g id="edge3" class="edge">
<title>Node3&#45;&gt;Node4</title>
<path fill="none" stroke="midnightblue" d="M355.56,-507.29C429.84,-493.53 603.5,-455.72 603.5,-403 603.5,-403 603.5,-403 603.5,-121 603.5,-58.8 394.43,-26.46 304.67,-15.43"/>
<polygon fill="midnightblue" stroke="midnightblue" points="304.93,-11.94 294.58,-14.22 304.1,-18.89 304.93,-11.94"/>
</g>
<!-- Node5 -->
<g id="node5" class="node">
<title>Node5</title>
<g id="a_node5"><a xlink:title=" ">
<polygon fill="none" stroke="#bfbfbf" points="211,-448.5 211,-467.5 264,-467.5 264,-448.5 211,-448.5"/>
<text text-anchor="middle" x="237.5" y="-455.5" font-family="Helvetica,sans-Serif" font-size="10.00">stdlib.h</text>
</a>
</g>
</g>
<!-- Node3&#45;&gt;Node5 -->
<g id="edge4" class="edge">
<title>Node3&#45;&gt;Node5</title>
<path fill="none" stroke="midnightblue" d="M308.84,-504.32C295.58,-495.9 275.23,-482.97 259.65,-473.07"/>
<polygon fill="midnightblue" stroke="midnightblue" points="261.44,-470.06 251.12,-467.65 257.69,-475.97 261.44,-470.06"/>
</g>
<!-- Node6 -->
<g id="node6" class="node">
<title>Node6</title>
<g id="a_node6"><a xlink:title=" ">
<polygon fill="none" stroke="#bfbfbf" points="82,-280.5 82,-299.5 137,-299.5 137,-280.5 82,-280.5"/>
<text text-anchor="middle" x="109.5" y="-287.5" font-family="Helvetica,sans-Serif" font-size="10.00">fstream</text>
</a>
</g>
</g>
<!-- Node3&#45;&gt;Node6 -->
<g id="edge5" class="edge">
<title>Node3&#45;&gt;Node6</title>
<path fill="none" stroke="midnightblue" d="M289.28,-504.94C264.07,-497.82 229.29,-485.78 202.5,-468 173.95,-449.05 167.08,-441.42 149.5,-412 129.62,-378.73 118.22,-334.34 113,-309.62"/>
<polygon fill="midnightblue" stroke="midnightblue" points="116.42,-308.88 111.03,-299.76 109.56,-310.25 116.42,-308.88"/>
</g>
<!-- Node7 -->
<g id="node7" class="node">
<title>Node7</title>
<g id="a_node7"><a xlink:title=" ">
<polygon fill="none" stroke="#bfbfbf" points="158.5,-392.5 158.5,-411.5 214.5,-411.5 214.5,-392.5 158.5,-392.5"/>
<text text-anchor="middle" x="186.5" y="-399.5" font-family="Helvetica,sans-Serif" font-size="10.00">unistd.h</text>
</a>
</g>
</g>
<!-- Node3&#45;&gt;Node7 -->
<g id="edge6" class="edge">
<title>Node3&#45;&gt;Node7</title>
<path fill="none" stroke="midnightblue" d="M317.77,-504.45C309.99,-491.01 293.37,-464.77 273.5,-448 257.27,-434.3 236.18,-423.26 218.82,-415.54"/>
<polygon fill="midnightblue" stroke="midnightblue" points="220.19,-412.32 209.62,-411.6 217.43,-418.76 220.19,-412.32"/>
</g>
<!-- Node8 -->
<g id="node8" class="node">
<title>Node8</title>
<g id="a_node8"><a xlink:href="drone_8hpp.html" target="_top" xlink:title="Plik zawiera definicję klasy reprezentujacej drona, budowanie i przemieszczanie go.">
<polygon fill="none" stroke="black" points="321,-448.5 321,-467.5 386,-467.5 386,-448.5 321,-448.5"/>
<text text-anchor="middle" x="353.5" y="-455.5" font-family="Helvetica,sans-Serif" font-size="10.00">drone.hpp</text>
</a>
</g>
</g>
<!-- Node3&#45;&gt;Node8 -->
<g id="edge7" class="edge">
<title>Node3&#45;&gt;Node8</title>
<path fill="none" stroke="midnightblue" d="M327.62,-504.08C331.91,-496.61 338.16,-485.72 343.44,-476.52"/>
<polygon fill="midnightblue" stroke="midnightblue" points="346.53,-478.17 348.48,-467.75 340.46,-474.68 346.53,-478.17"/>
</g>
<!-- Node26 -->
<g id="node26" class="node">
<title>Node26</title>
<g id="a_node26"><a xlink:href="lacze__do__gnuplota_8hpp.html" target="_top" xlink:title=" ">
<polygon fill="none" stroke="black" points="442.5,-392.5 442.5,-411.5 570.5,-411.5 570.5,-392.5 442.5,-392.5"/>
<text text-anchor="middle" x="506.5" y="-399.5" font-family="Helvetica,sans-Serif" font-size="10.00">lacze_do_gnuplota.hpp</text>
</a>
</g>
</g>
<!-- Node3&#45;&gt;Node26 -->
<g id="edge44" class="edge">
<title>Node3&#45;&gt;Node26</title>
<path fill="none" stroke="midnightblue" d="M336.94,-504.37C368.65,-485.41 444.61,-440 483.18,-416.94"/>
<polygon fill="midnightblue" stroke="midnightblue" points="485.34,-419.73 492.13,-411.59 481.75,-413.72 485.34,-419.73"/>
</g>
<!-- Node8&#45;&gt;Node7 -->
<g id="edge42" class="edge">
<title>Node8&#45;&gt;Node7</title>
<path fill="none" stroke="midnightblue" d="M327.04,-448.44C298.82,-439.32 253.96,-424.81 222.53,-414.65"/>
<polygon fill="midnightblue" stroke="midnightblue" points="223.43,-411.26 212.84,-411.52 221.28,-417.92 223.43,-411.26"/>
</g>
<!-- Node9 -->
<g id="node9" class="node">
<title>Node9</title>
<g id="a_node9"><a xlink:href="prism_8hpp.html" target="_top" xlink:title="Plik zawiera definicję klasy reprezentujacej graniastoslup o podstawie o 6 wierzcholkach w przestrzen...">
<polygon fill="none" stroke="black" points="321,-392.5 321,-411.5 386,-411.5 386,-392.5 321,-392.5"/>
<text text-anchor="middle" x="353.5" y="-399.5" font-family="Helvetica,sans-Serif" font-size="10.00">prism.hpp</text>
</a>
</g>
</g>
<!-- Node8&#45;&gt;Node9 -->
<g id="edge8" class="edge">
<title>Node8&#45;&gt;Node9</title>
<path fill="none" stroke="midnightblue" d="M353.5,-448.08C353.5,-441.01 353.5,-430.86 353.5,-421.99"/>
<polygon fill="midnightblue" stroke="midnightblue" points="357,-421.75 353.5,-411.75 350,-421.75 357,-421.75"/>
</g>
<!-- Node25 -->
<g id="node25" class="node">
<title>Node25</title>
<g id="a_node25"><a xlink:href="cuboid_8hpp.html" target="_top" xlink:title="Plik zawiera definicję klasy reprezentujacej prostopadloscian w przestrzeni trojwymiarowej.">
<polygon fill="none" stroke="black" points="232.5,-392.5 232.5,-411.5 302.5,-411.5 302.5,-392.5 232.5,-392.5"/>
<text text-anchor="middle" x="267.5" y="-399.5" font-family="Helvetica,sans-Serif" font-size="10.00">cuboid.hpp</text>
</a>
</g>
</g>
<!-- Node8&#45;&gt;Node25 -->
<g id="edge36" class="edge">
<title>Node8&#45;&gt;Node25</title>
<path fill="none" stroke="midnightblue" d="M339.68,-448.32C326.27,-439.9 305.68,-426.97 289.91,-417.07"/>
<polygon fill="midnightblue" stroke="midnightblue" points="291.61,-414.01 281.28,-411.65 287.89,-419.94 291.61,-414.01"/>
</g>
<!-- Node8&#45;&gt;Node26 -->
<g id="edge38" class="edge">
<title>Node8&#45;&gt;Node26</title>
<path fill="none" stroke="midnightblue" d="M377.74,-448.44C403.37,-439.4 443.99,-425.06 472.74,-414.92"/>
<polygon fill="midnightblue" stroke="midnightblue" points="474.11,-418.15 482.37,-411.52 471.78,-411.54 474.11,-418.15"/>
</g>
<!-- Node28 -->
<g id="node28" class="node">
<title>Node28</title>
<g id="a_node28"><a xlink:title=" ">
<polygon fill="none" stroke="#bfbfbf" points="407,-336.5 407,-355.5 454,-355.5 454,-336.5 407,-336.5"/>
<text text-anchor="middle" x="430.5" y="-343.5" font-family="Helvetica,sans-Serif" font-size="10.00">vector</text>
</a>
</g>
</g>
<!-- Node8&#45;&gt;Node28 -->
<g id="edge43" class="edge">
<title>Node8&#45;&gt;Node28</title>
<path fill="none" stroke="midnightblue" d="M362.92,-448.3C371.96,-439.64 385.66,-425.72 395.5,-412 406.22,-397.06 415.91,-378.46 422.37,-364.99"/>
<polygon fill="midnightblue" stroke="midnightblue" points="425.58,-366.37 426.63,-355.83 419.24,-363.42 425.58,-366.37"/>
</g>
<!-- Node10 -->
<g id="node10" class="node">
<title>Node10</title>
<g id="a_node10"><a xlink:href="block_8hpp.html" target="_top" xlink:title="Plik zawiera definicję klasy reprezentujacej bryle w przestrzeni trojwymiarowej.">
<polygon fill="none" stroke="black" points="251.5,-336.5 251.5,-355.5 315.5,-355.5 315.5,-336.5 251.5,-336.5"/>
<text text-anchor="middle" x="283.5" y="-343.5" font-family="Helvetica,sans-Serif" font-size="10.00">block.hpp</text>
</a>
</g>
</g>
<!-- Node9&#45;&gt;Node10 -->
<g id="edge9" class="edge">
<title>Node9&#45;&gt;Node10</title>
<path fill="none" stroke="midnightblue" d="M342.25,-392.32C331.7,-384.18 315.7,-371.84 303.06,-362.09"/>
<polygon fill="midnightblue" stroke="midnightblue" points="305.01,-359.17 294.95,-355.83 300.73,-364.71 305.01,-359.17"/>
</g>
<!-- Node10&#45;&gt;Node6 -->
<g id="edge11" class="edge">
<title>Node10&#45;&gt;Node6</title>
<path fill="none" stroke="midnightblue" d="M255.93,-336.44C226.4,-327.28 179.38,-312.69 146.62,-302.52"/>
<polygon fill="midnightblue" stroke="midnightblue" points="147.53,-299.14 136.94,-299.52 145.46,-305.82 147.53,-299.14"/>
</g>
<!-- Node11 -->
<g id="node11" class="node">
<title>Node11</title>
<g id="a_node11"><a xlink:title=" ">
<polygon fill="none" stroke="#bfbfbf" points="476.5,-280.5 476.5,-299.5 520.5,-299.5 520.5,-280.5 476.5,-280.5"/>
<text text-anchor="middle" x="498.5" y="-287.5" font-family="Helvetica,sans-Serif" font-size="10.00">string</text>
</a>
</g>
</g>
<!-- Node10&#45;&gt;Node11 -->
<g id="edge10" class="edge">
<title>Node10&#45;&gt;Node11</title>
<path fill="none" stroke="midnightblue" d="M315.52,-337.61C350.37,-329.46 407.96,-315.73 466.41,-300.21"/>
<polygon fill="midnightblue" stroke="midnightblue" points="467.42,-303.56 476.18,-297.6 465.62,-296.8 467.42,-303.56"/>
</g>
<!-- Node12 -->
<g id="node12" class="node">
<title>Node12</title>
<g id="a_node12"><a xlink:href="vector3_d_8hpp.html" target="_top" xlink:title=" ">
<polygon fill="none" stroke="black" points="487.5,-168.5 487.5,-187.5 569.5,-187.5 569.5,-168.5 487.5,-168.5"/>
<text text-anchor="middle" x="528.5" y="-175.5" font-family="Helvetica,sans-Serif" font-size="10.00">vector3D.hpp</text>
</a>
</g>
</g>
<!-- Node10&#45;&gt;Node12 -->
<g id="edge12" class="edge">
<title>Node10&#45;&gt;Node12</title>
<path fill="none" stroke="midnightblue" d="M290.18,-336.45C307.49,-314.78 356.17,-257.1 408.5,-224 432.11,-209.07 461.43,-197.96 485.18,-190.51"/>
<polygon fill="midnightblue" stroke="midnightblue" points="486.42,-193.79 494.98,-187.55 484.39,-187.09 486.42,-193.79"/>
</g>
<!-- Node13 -->
<g id="node13" class="node">
<title>Node13</title>
<g id="a_node13"><a xlink:href="vector_8hpp.html" target="_top" xlink:title=" ">
<polygon fill="none" stroke="black" points="193.5,-112.5 193.5,-131.5 261.5,-131.5 261.5,-112.5 193.5,-112.5"/>
<text text-anchor="middle" x="227.5" y="-119.5" font-family="Helvetica,sans-Serif" font-size="10.00">vector.hpp</text>
</a>
</g>
</g>
<!-- Node10&#45;&gt;Node13 -->
<g id="edge24" class="edge">
<title>Node10&#45;&gt;Node13</title>
<path fill="none" stroke="midnightblue" d="M278.65,-336.42C269.3,-319.39 248.85,-279.91 239.5,-244 230.31,-208.71 228.06,-165.96 227.57,-141.88"/>
<polygon fill="midnightblue" stroke="midnightblue" points="231.06,-141.63 227.44,-131.67 224.06,-141.71 231.06,-141.63"/>
</g>
<!-- Node16 -->
<g id="node16" class="node">
<title>Node16</title>
<g id="a_node16"><a xlink:href="count_8hpp.html" target="_top" xlink:title="Plik zawiera definicję klasy reprezentujacej counter, pozwalajacy na liczenie instancji stworzonych k...">
<polygon fill="none" stroke="black" points="12,-56.5 12,-75.5 77,-75.5 77,-56.5 12,-56.5"/>
<text text-anchor="middle" x="44.5" y="-63.5" font-family="Helvetica,sans-Serif" font-size="10.00">count.hpp</text>
</a>
</g>
</g>
<!-- Node10&#45;&gt;Node16 -->
<g id="edge23" class="edge">
<title>Node10&#45;&gt;Node16</title>
<path fill="none" stroke="midnightblue" d="M261.58,-336.39C227.46,-321.37 165.5,-286.95 165.5,-235 165.5,-235 165.5,-235 165.5,-177 165.5,-128.99 112.7,-96.41 76.86,-79.82"/>
<polygon fill="midnightblue" stroke="midnightblue" points="77.82,-76.42 67.26,-75.57 74.98,-82.82 77.82,-76.42"/>
</g>
<!-- Node20 -->
<g id="node20" class="node">
<title>Node20</title>
<g id="a_node20"><a xlink:href="matrix3_d_8hpp.html" target="_top" xlink:title=" ">
<polygon fill="none" stroke="black" points="375,-280.5 375,-299.5 458,-299.5 458,-280.5 375,-280.5"/>
<text text-anchor="middle" x="416.5" y="-287.5" font-family="Helvetica,sans-Serif" font-size="10.00">matrix3D.hpp</text>
</a>
</g>
</g>
<!-- Node10&#45;&gt;Node20 -->
<g id="edge25" class="edge">
<title>Node10&#45;&gt;Node20</title>
<path fill="none" stroke="midnightblue" d="M304.57,-336.44C326.56,-327.52 361.23,-313.44 386.16,-303.32"/>
<polygon fill="midnightblue" stroke="midnightblue" points="387.58,-306.52 395.52,-299.52 384.94,-300.04 387.58,-306.52"/>
</g>
<!-- Node21 -->
<g id="node21" class="node">
<title>Node21</title>
<g id="a_node21"><a xlink:href="matrix_8hpp.html" target="_top" xlink:title=" ">
<polygon fill="none" stroke="black" points="248.5,-224.5 248.5,-243.5 318.5,-243.5 318.5,-224.5 248.5,-224.5"/>
<text text-anchor="middle" x="283.5" y="-231.5" font-family="Helvetica,sans-Serif" font-size="10.00">matrix.hpp</text>
</a>
</g>
</g>
<!-- Node10&#45;&gt;Node21 -->
<g id="edge35" class="edge">
<title>Node10&#45;&gt;Node21</title>
<path fill="none" stroke="midnightblue" d="M283.5,-336.37C283.5,-318.62 283.5,-277.67 283.5,-253.6"/>
<polygon fill="midnightblue" stroke="midnightblue" points="287,-253.59 283.5,-243.59 280,-253.59 287,-253.59"/>
</g>
<!-- Node12&#45;&gt;Node13 -->
<g id="edge13" class="edge">
<title>Node12&#45;&gt;Node13</title>
<path fill="none" stroke="midnightblue" d="M487.3,-169.58C484.32,-169.05 481.36,-168.51 478.5,-168 405.94,-154.96 321.57,-139.85 271.46,-130.87"/>
<polygon fill="midnightblue" stroke="midnightblue" points="272.06,-127.42 261.6,-129.11 270.83,-134.31 272.06,-127.42"/>
</g>
<!-- Node19 -->
<g id="node19" class="node">
<title>Node19</title>
<g id="a_node19"><a xlink:href="vector3_d_8cpp.html" target="_top" xlink:title=" ">
<polygon fill="none" stroke="black" points="468,-112.5 468,-131.5 575,-131.5 575,-112.5 468,-112.5"/>
<text text-anchor="middle" x="521.5" y="-119.5" font-family="Helvetica,sans-Serif" font-size="10.00">../src/vector3D.cpp</text>
</a>
</g>
</g>
<!-- Node12&#45;&gt;Node19 -->
<g id="edge21" class="edge">
<title>Node12&#45;&gt;Node19</title>
<path fill="none" stroke="midnightblue" d="M522.18,-168.08C519.77,-161.01 518.01,-150.86 517.48,-141.99"/>
<polygon fill="midnightblue" stroke="midnightblue" points="520.98,-141.76 517.5,-131.75 513.98,-141.74 520.98,-141.76"/>
</g>
<!-- Node13&#45;&gt;Node4 -->
<g id="edge14" class="edge">
<title>Node13&#45;&gt;Node4</title>
<path fill="none" stroke="midnightblue" d="M193.27,-113.76C155.69,-104.18 103.33,-85.05 124.5,-56 147.09,-25 191.39,-14.89 224.13,-11.82"/>
<polygon fill="midnightblue" stroke="midnightblue" points="224.6,-15.3 234.31,-11.06 224.08,-8.32 224.6,-15.3"/>
</g>
<!-- Node14 -->
<g id="node14" class="node">
<title>Node14</title>
<g id="a_node14"><a xlink:title=" ">
<polygon fill="none" stroke="#bfbfbf" points="134,-56.5 134,-75.5 181,-75.5 181,-56.5 134,-56.5"/>
<text text-anchor="middle" x="157.5" y="-63.5" font-family="Helvetica,sans-Serif" font-size="10.00">cmath</text>
</a>
</g>
</g>
<!-- Node13&#45;&gt;Node14 -->
<g id="edge15" class="edge">
<title>Node13&#45;&gt;Node14</title>
<path fill="none" stroke="midnightblue" d="M216.25,-112.32C205.7,-104.18 189.7,-91.84 177.06,-82.09"/>
<polygon fill="midnightblue" stroke="midnightblue" points="179.01,-79.17 168.95,-75.83 174.73,-84.71 179.01,-79.17"/>
</g>
<!-- Node15 -->
<g id="node15" class="node">
<title>Node15</title>
<g id="a_node15"><a xlink:title=" ">
<polygon fill="none" stroke="#bfbfbf" points="199.5,-56.5 199.5,-75.5 255.5,-75.5 255.5,-56.5 199.5,-56.5"/>
<text text-anchor="middle" x="227.5" y="-63.5" font-family="Helvetica,sans-Serif" font-size="10.00">iomanip</text>
</a>
</g>
</g>
<!-- Node13&#45;&gt;Node15 -->
<g id="edge16" class="edge">
<title>Node13&#45;&gt;Node15</title>
<path fill="none" stroke="midnightblue" d="M227.5,-112.08C227.5,-105.01 227.5,-94.86 227.5,-85.99"/>
<polygon fill="midnightblue" stroke="midnightblue" points="231,-85.75 227.5,-75.75 224,-85.75 231,-85.75"/>
</g>
<!-- Node13&#45;&gt;Node16 -->
<g id="edge17" class="edge">
<title>Node13&#45;&gt;Node16</title>
<path fill="none" stroke="midnightblue" d="M198.5,-112.44C167.32,-103.24 117.57,-88.56 83.09,-78.39"/>
<polygon fill="midnightblue" stroke="midnightblue" points="83.94,-74.99 73.36,-75.52 81.96,-81.7 83.94,-74.99"/>
</g>
<!-- Node18 -->
<g id="node18" class="node">
<title>Node18</title>
<g id="a_node18"><a xlink:title=" ">
<polygon fill="none" stroke="#bfbfbf" points="273.5,-56.5 273.5,-75.5 365.5,-75.5 365.5,-56.5 273.5,-56.5"/>
<text text-anchor="middle" x="319.5" y="-63.5" font-family="Helvetica,sans-Serif" font-size="10.00">../src/vector.tpp</text>
</a>
</g>
</g>
<!-- Node13&#45;&gt;Node18 -->
<g id="edge20" class="edge">
<title>Node13&#45;&gt;Node18</title>
<path fill="none" stroke="midnightblue" d="M242.28,-112.32C256.77,-103.82 279.07,-90.73 295.99,-80.8"/>
<polygon fill="midnightblue" stroke="midnightblue" points="297.9,-83.74 304.76,-75.65 294.36,-77.7 297.9,-83.74"/>
</g>
<!-- Node16&#45;&gt;Node4 -->
<g id="edge18" class="edge">
<title>Node16&#45;&gt;Node4</title>
<path fill="none" stroke="midnightblue" d="M77.44,-56.92C116.64,-47.29 182.08,-31.23 224.25,-20.88"/>
<polygon fill="midnightblue" stroke="midnightblue" points="225.3,-24.23 234.18,-18.44 223.63,-17.43 225.3,-24.23"/>
</g>
<!-- Node17 -->
<g id="node17" class="node">
<title>Node17</title>
<g id="a_node17"><a xlink:title=" ">
<polygon fill="none" stroke="#bfbfbf" points="0,-0.5 0,-19.5 89,-19.5 89,-0.5 0,-0.5"/>
<text text-anchor="middle" x="44.5" y="-7.5" font-family="Helvetica,sans-Serif" font-size="10.00">../src/count.tpp</text>
</a>
</g>
</g>
<!-- Node16&#45;&gt;Node17 -->
<g id="edge19" class="edge">
<title>Node16&#45;&gt;Node17</title>
<path fill="none" stroke="midnightblue" d="M44.5,-56.08C44.5,-49.01 44.5,-38.86 44.5,-29.99"/>
<polygon fill="midnightblue" stroke="midnightblue" points="48,-29.75 44.5,-19.75 41,-29.75 48,-29.75"/>
</g>
<!-- Node19&#45;&gt;Node12 -->
<g id="edge22" class="edge">
<title>Node19&#45;&gt;Node12</title>
<path fill="none" stroke="midnightblue" d="M527.77,-131.75C530.19,-138.78 531.95,-148.91 532.5,-157.8"/>
<polygon fill="midnightblue" stroke="midnightblue" points="529,-158.09 532.51,-168.08 536,-158.08 529,-158.09"/>
</g>
<!-- Node20&#45;&gt;Node12 -->
<g id="edge32" class="edge">
<title>Node20&#45;&gt;Node12</title>
<path fill="none" stroke="midnightblue" d="M414.41,-280.49C411.65,-267.11 408.43,-240.95 420.5,-224 428.92,-212.17 461.61,-199.52 488.84,-190.66"/>
<polygon fill="midnightblue" stroke="midnightblue" points="490.1,-193.93 498.57,-187.57 487.98,-187.26 490.1,-193.93"/>
</g>
<!-- Node20&#45;&gt;Node21 -->
<g id="edge26" class="edge">
<title>Node20&#45;&gt;Node21</title>
<path fill="none" stroke="midnightblue" d="M395.43,-280.44C373.44,-271.52 338.77,-257.44 313.84,-247.32"/>
<polygon fill="midnightblue" stroke="midnightblue" points="315.06,-244.04 304.48,-243.52 312.42,-250.52 315.06,-244.04"/>
</g>
<!-- Node24 -->
<g id="node24" class="node">
<title>Node24</title>
<g id="a_node24"><a xlink:href="matrix3_d_8cpp.html" target="_top" xlink:title=" ">
<polygon fill="none" stroke="black" points="429,-224.5 429,-243.5 538,-243.5 538,-224.5 429,-224.5"/>
<text text-anchor="middle" x="483.5" y="-231.5" font-family="Helvetica,sans-Serif" font-size="10.00">../src/matrix3D.cpp</text>
</a>
</g>
</g>
<!-- Node20&#45;&gt;Node24 -->
<g id="edge33" class="edge">
<title>Node20&#45;&gt;Node24</title>
<path fill="none" stroke="midnightblue" d="M422.15,-280.32C430.62,-272.06 445.94,-259.45 459.27,-249.63"/>
<polygon fill="midnightblue" stroke="midnightblue" points="461.54,-252.31 467.65,-243.65 457.48,-246.61 461.54,-252.31"/>
</g>
<!-- Node21&#45;&gt;Node4 -->
<g id="edge29" class="edge">
<title>Node21&#45;&gt;Node4</title>
<path fill="none" stroke="midnightblue" d="M284.42,-224.16C286.05,-211.25 290.16,-186.72 299.5,-168 326.24,-114.39 407.89,-105.74 374.5,-56 358.93,-32.81 329.08,-21.57 304.39,-16.11"/>
<polygon fill="midnightblue" stroke="midnightblue" points="305.03,-12.67 294.54,-14.17 303.67,-19.54 305.03,-12.67"/>
</g>
<!-- Node21&#45;&gt;Node12 -->
<g id="edge28" class="edge">
<title>Node21&#45;&gt;Node12</title>
<path fill="none" stroke="midnightblue" d="M318.6,-225.26C360.97,-215.92 432.45,-200.17 480.05,-189.68"/>
<polygon fill="midnightblue" stroke="midnightblue" points="480.81,-193.09 489.82,-187.52 479.31,-186.26 480.81,-193.09"/>
</g>
<!-- Node21&#45;&gt;Node13 -->
<g id="edge27" class="edge">
<title>Node21&#45;&gt;Node13</title>
<path fill="none" stroke="midnightblue" d="M279.11,-224.37C269.95,-206.38 248.65,-164.55 236.47,-140.63"/>
<polygon fill="midnightblue" stroke="midnightblue" points="239.53,-138.92 231.87,-131.59 233.29,-142.09 239.53,-138.92"/>
</g>
<!-- Node22 -->
<g id="node22" class="node">
<title>Node22</title>
<g id="a_node22"><a xlink:title=" ">
<polygon fill="none" stroke="#bfbfbf" points="308,-168.5 308,-187.5 357,-187.5 357,-168.5 308,-168.5"/>
<text text-anchor="middle" x="332.5" y="-175.5" font-family="Helvetica,sans-Serif" font-size="10.00">cstdlib</text>
</a>
</g>
</g>
<!-- Node21&#45;&gt;Node22 -->
<g id="edge30" class="edge">
<title>Node21&#45;&gt;Node22</title>
<path fill="none" stroke="midnightblue" d="M291.59,-224.08C298.66,-216.3 309.09,-204.8 317.65,-195.37"/>
<polygon fill="midnightblue" stroke="midnightblue" points="320.43,-197.51 324.56,-187.75 315.25,-192.8 320.43,-197.51"/>
</g>
<!-- Node23 -->
<g id="node23" class="node">
<title>Node23</title>
<g id="a_node23"><a xlink:title=" ">
<polygon fill="none" stroke="#bfbfbf" points="375.5,-168.5 375.5,-187.5 469.5,-187.5 469.5,-168.5 375.5,-168.5"/>
<text text-anchor="middle" x="422.5" y="-175.5" font-family="Helvetica,sans-Serif" font-size="10.00">../src/matrix.tpp</text>
</a>
</g>
</g>
<!-- Node21&#45;&gt;Node23 -->
<g id="edge31" class="edge">
<title>Node21&#45;&gt;Node23</title>
<path fill="none" stroke="midnightblue" d="M305.52,-224.44C328.6,-215.48 365.06,-201.31 391.14,-191.18"/>
<polygon fill="midnightblue" stroke="midnightblue" points="392.52,-194.4 400.58,-187.52 389.99,-187.88 392.52,-194.4"/>
</g>
<!-- Node24&#45;&gt;Node20 -->
<g id="edge34" class="edge">
<title>Node24&#45;&gt;Node20</title>
<path fill="none" stroke="midnightblue" d="M477.69,-243.83C469.19,-252.11 453.97,-264.62 440.71,-274.38"/>
<polygon fill="midnightblue" stroke="midnightblue" points="438.49,-271.67 432.38,-280.32 442.55,-277.37 438.49,-271.67"/>
</g>
<!-- Node25&#45;&gt;Node10 -->
<g id="edge37" class="edge">
<title>Node25&#45;&gt;Node10</title>
<path fill="none" stroke="midnightblue" d="M270.14,-392.08C272.29,-384.85 275.38,-374.41 278.05,-365.4"/>
<polygon fill="midnightblue" stroke="midnightblue" points="281.42,-366.33 280.91,-355.75 274.71,-364.34 281.42,-366.33"/>
</g>
<!-- Node26&#45;&gt;Node11 -->
<g id="edge39" class="edge">
<title>Node26&#45;&gt;Node11</title>
<path fill="none" stroke="midnightblue" d="M505.87,-392.37C504.58,-374.62 501.6,-333.67 499.85,-309.6"/>
<polygon fill="midnightblue" stroke="midnightblue" points="503.34,-309.31 499.12,-299.59 496.36,-309.82 503.34,-309.31"/>
</g>
<!-- Node27 -->
<g id="node27" class="node">
<title>Node27</title>
<g id="a_node27"><a xlink:title=" ">
<polygon fill="none" stroke="#bfbfbf" points="526.5,-336.5 526.5,-355.5 558.5,-355.5 558.5,-336.5 526.5,-336.5"/>
<text text-anchor="middle" x="542.5" y="-343.5" font-family="Helvetica,sans-Serif" font-size="10.00">list</text>
</a>
</g>
</g>
<!-- Node26&#45;&gt;Node27 -->
<g id="edge40" class="edge">
<title>Node26&#45;&gt;Node27</title>
<path fill="none" stroke="midnightblue" d="M512.44,-392.08C517.48,-384.53 524.84,-373.49 531.01,-364.23"/>
<polygon fill="midnightblue" stroke="midnightblue" points="534.03,-366.01 536.67,-355.75 528.21,-362.13 534.03,-366.01"/>
</g>
<!-- Node26&#45;&gt;Node28 -->
<g id="edge41" class="edge">
<title>Node26&#45;&gt;Node28</title>
<path fill="none" stroke="midnightblue" d="M494.29,-392.32C482.72,-384.11 465.12,-371.6 451.34,-361.81"/>
<polygon fill="midnightblue" stroke="midnightblue" points="453.11,-358.77 442.93,-355.83 449.06,-364.48 453.11,-358.77"/>
</g>
</g>
</svg>
