<?xml version="1.0" encoding="UTF-8" standalone="no"?>
<!DOCTYPE svg PUBLIC "-//W3C//DTD SVG 1.1//EN"
 "http://www.w3.org/Graphics/SVG/1.1/DTD/svg11.dtd">
<!-- Generated by graphviz version 2.43.0 (0)
 -->
<!-- Title: /home/krzysztof/PO/zad5_1&#45;kgliwinski/include/menu_cub.hpp Pages: 1 -->
<svg width="765pt" height="498pt"
 viewBox="0.00 0.00 764.50 498.00" xmlns="http://www.w3.org/2000/svg" xmlns:xlink="http://www.w3.org/1999/xlink">
<g id="graph0" class="graph" transform="scale(1 1) rotate(0) translate(4 494)">
<title>/home/krzysztof/PO/zad5_1&#45;kgliwinski/include/menu_cub.hpp</title>
<!-- Node1 -->
<g id="node1" class="node">
<title>Node1</title>
<g id="a_node1"><a xlink:title="Plik zawiera definicję klasy reprezentujacej menu obslugi menu dla obrotow 3D.">
<polygon fill="#bfbfbf" stroke="black" points="407.5,-448.5 407.5,-489.5 553.5,-489.5 553.5,-448.5 407.5,-448.5"/>
<text text-anchor="start" x="415.5" y="-477.5" font-family="Helvetica,sans-Serif" font-size="10.00">/home/krzysztof/PO</text>
<text text-anchor="start" x="415.5" y="-466.5" font-family="Helvetica,sans-Serif" font-size="10.00">/zad5_1&#45;kgliwinski/include</text>
<text text-anchor="middle" x="480.5" y="-455.5" font-family="Helvetica,sans-Serif" font-size="10.00">/menu_cub.hpp</text>
</a>
</g>
</g>
<!-- Node2 -->
<g id="node2" class="node">
<title>Node2</title>
<g id="a_node2"><a xlink:title=" ">
<polygon fill="none" stroke="#bfbfbf" points="234.5,-0.5 234.5,-19.5 294.5,-19.5 294.5,-0.5 234.5,-0.5"/>
<text text-anchor="middle" x="264.5" y="-7.5" font-family="Helvetica,sans-Serif" font-size="10.00">iostream</text>
</a>
</g>
</g>
<!-- Node1&#45;&gt;Node2 -->
<g id="edge1" class="edge">
<title>Node1&#45;&gt;Node2</title>
<path fill="none" stroke="midnightblue" d="M485.49,-448.45C491.12,-424.65 499.5,-383.15 499.5,-347 499.5,-347 499.5,-347 499.5,-121 499.5,-36.12 372.2,-16.6 304.98,-12.2"/>
<polygon fill="midnightblue" stroke="midnightblue" points="304.92,-8.7 294.74,-11.62 304.53,-15.68 304.92,-8.7"/>
</g>
<!-- Node3 -->
<g id="node3" class="node">
<title>Node3</title>
<g id="a_node3"><a xlink:title=" ">
<polygon fill="none" stroke="#bfbfbf" points="629,-392.5 629,-411.5 682,-411.5 682,-392.5 629,-392.5"/>
<text text-anchor="middle" x="655.5" y="-399.5" font-family="Helvetica,sans-Serif" font-size="10.00">stdlib.h</text>
</a>
</g>
</g>
<!-- Node1&#45;&gt;Node3 -->
<g id="edge2" class="edge">
<title>Node1&#45;&gt;Node3</title>
<path fill="none" stroke="midnightblue" d="M533.01,-448.5C562.16,-437.67 597.52,-424.54 622.74,-415.17"/>
<polygon fill="midnightblue" stroke="midnightblue" points="624.05,-418.42 632.2,-411.65 621.61,-411.85 624.05,-418.42"/>
</g>
<!-- Node4 -->
<g id="node4" class="node">
<title>Node4</title>
<g id="a_node4"><a xlink:title=" ">
<polygon fill="none" stroke="#bfbfbf" points="383,-280.5 383,-299.5 438,-299.5 438,-280.5 383,-280.5"/>
<text text-anchor="middle" x="410.5" y="-287.5" font-family="Helvetica,sans-Serif" font-size="10.00">fstream</text>
</a>
</g>
</g>
<!-- Node1&#45;&gt;Node4 -->
<g id="edge3" class="edge">
<title>Node1&#45;&gt;Node4</title>
<path fill="none" stroke="midnightblue" d="M477.03,-448.46C471.85,-422.02 460.73,-373.81 442.5,-336 437.67,-325.98 430.64,-315.8 424.41,-307.66"/>
<polygon fill="midnightblue" stroke="midnightblue" points="427.06,-305.37 418.09,-299.74 421.58,-309.74 427.06,-305.37"/>
</g>
<!-- Node5 -->
<g id="node5" class="node">
<title>Node5</title>
<g id="a_node5"><a xlink:href="cuboid_8hpp.html" target="_top" xlink:title="Plik zawiera definicję klasy reprezentujacej prostopadloscian w przestrzeni trojwymiarowej.">
<polygon fill="none" stroke="black" points="133.5,-392.5 133.5,-411.5 203.5,-411.5 203.5,-392.5 133.5,-392.5"/>
<text text-anchor="middle" x="168.5" y="-399.5" font-family="Helvetica,sans-Serif" font-size="10.00">cuboid.hpp</text>
</a>
</g>
</g>
<!-- Node1&#45;&gt;Node5 -->
<g id="edge4" class="edge">
<title>Node1&#45;&gt;Node5</title>
<path fill="none" stroke="midnightblue" d="M407.35,-452.76C347.36,-440.26 264.35,-422.97 213.65,-412.41"/>
<polygon fill="midnightblue" stroke="midnightblue" points="214.15,-408.94 203.65,-410.32 212.73,-415.79 214.15,-408.94"/>
</g>
<!-- Node21 -->
<g id="node21" class="node">
<title>Node21</title>
<g id="a_node21"><a xlink:href="prism_8hpp.html" target="_top" xlink:title="Plik zawiera definicję klasy reprezentujacej graniastoslup o podstawie o 6 wierzcholkach w przestrzen...">
<polygon fill="none" stroke="black" points="222,-392.5 222,-411.5 287,-411.5 287,-392.5 222,-392.5"/>
<text text-anchor="middle" x="254.5" y="-399.5" font-family="Helvetica,sans-Serif" font-size="10.00">prism.hpp</text>
</a>
</g>
</g>
<!-- Node1&#45;&gt;Node21 -->
<g id="edge32" class="edge">
<title>Node1&#45;&gt;Node21</title>
<path fill="none" stroke="midnightblue" d="M412.69,-448.5C373.93,-437.35 326.66,-423.76 293.95,-414.35"/>
<polygon fill="midnightblue" stroke="midnightblue" points="294.86,-410.97 284.29,-411.57 292.93,-417.69 294.86,-410.97"/>
</g>
<!-- Node22 -->
<g id="node22" class="node">
<title>Node22</title>
<g id="a_node22"><a xlink:href="lacze__do__gnuplota_8hpp.html" target="_top" xlink:title=" ">
<polygon fill="none" stroke="black" points="305.5,-392.5 305.5,-411.5 433.5,-411.5 433.5,-392.5 305.5,-392.5"/>
<text text-anchor="middle" x="369.5" y="-399.5" font-family="Helvetica,sans-Serif" font-size="10.00">lacze_do_gnuplota.hpp</text>
</a>
</g>
</g>
<!-- Node1&#45;&gt;Node22 -->
<g id="edge34" class="edge">
<title>Node1&#45;&gt;Node22</title>
<path fill="none" stroke="midnightblue" d="M447.2,-448.5C429.85,-438.34 409.04,-426.16 393.33,-416.95"/>
<polygon fill="midnightblue" stroke="midnightblue" points="394.67,-413.69 384.28,-411.65 391.14,-419.73 394.67,-413.69"/>
</g>
<!-- Node25 -->
<g id="node25" class="node">
<title>Node25</title>
<g id="a_node25"><a xlink:href="matrix4_d_8hpp.html" target="_top" xlink:title=" ">
<polygon fill="none" stroke="black" points="528,-392.5 528,-411.5 611,-411.5 611,-392.5 528,-392.5"/>
<text text-anchor="middle" x="569.5" y="-399.5" font-family="Helvetica,sans-Serif" font-size="10.00">matrix4D.hpp</text>
</a>
</g>
</g>
<!-- Node1&#45;&gt;Node25 -->
<g id="edge38" class="edge">
<title>Node1&#45;&gt;Node25</title>
<path fill="none" stroke="midnightblue" d="M507.2,-448.5C520.72,-438.63 536.85,-426.84 549.32,-417.74"/>
<polygon fill="midnightblue" stroke="midnightblue" points="551.64,-420.38 557.65,-411.65 547.51,-414.72 551.64,-420.38"/>
</g>
<!-- Node27 -->
<g id="node27" class="node">
<title>Node27</title>
<g id="a_node27"><a xlink:title=" ">
<polygon fill="none" stroke="#bfbfbf" points="700.5,-392.5 700.5,-411.5 756.5,-411.5 756.5,-392.5 700.5,-392.5"/>
<text text-anchor="middle" x="728.5" y="-399.5" font-family="Helvetica,sans-Serif" font-size="10.00">unistd.h</text>
</a>
</g>
</g>
<!-- Node1&#45;&gt;Node27 -->
<g id="edge42" class="edge">
<title>Node1&#45;&gt;Node27</title>
<path fill="none" stroke="midnightblue" d="M553.57,-448.85C598.49,-437.07 654.22,-422.47 690.53,-412.95"/>
<polygon fill="midnightblue" stroke="midnightblue" points="691.45,-416.33 700.23,-410.41 689.67,-409.56 691.45,-416.33"/>
</g>
<!-- Node6 -->
<g id="node6" class="node">
<title>Node6</title>
<g id="a_node6"><a xlink:href="block_8hpp.html" target="_top" xlink:title="Plik zawiera definicję klasy reprezentujacej bryle w przestrzeni trojwymiarowej.">
<polygon fill="none" stroke="black" points="156.5,-336.5 156.5,-355.5 220.5,-355.5 220.5,-336.5 156.5,-336.5"/>
<text text-anchor="middle" x="188.5" y="-343.5" font-family="Helvetica,sans-Serif" font-size="10.00">block.hpp</text>
</a>
</g>
</g>
<!-- Node5&#45;&gt;Node6 -->
<g id="edge5" class="edge">
<title>Node5&#45;&gt;Node6</title>
<path fill="none" stroke="midnightblue" d="M171.8,-392.08C174.48,-384.85 178.35,-374.41 181.69,-365.4"/>
<polygon fill="midnightblue" stroke="midnightblue" points="185.07,-366.34 185.26,-355.75 178.5,-363.91 185.07,-366.34"/>
</g>
<!-- Node6&#45;&gt;Node4 -->
<g id="edge7" class="edge">
<title>Node6&#45;&gt;Node4</title>
<path fill="none" stroke="midnightblue" d="M220.78,-337.15C261.19,-327.32 330.29,-310.51 373,-300.12"/>
<polygon fill="midnightblue" stroke="midnightblue" points="373.85,-303.52 382.74,-297.75 372.2,-296.72 373.85,-303.52"/>
</g>
<!-- Node7 -->
<g id="node7" class="node">
<title>Node7</title>
<g id="a_node7"><a xlink:title=" ">
<polygon fill="none" stroke="#bfbfbf" points="286.5,-280.5 286.5,-299.5 330.5,-299.5 330.5,-280.5 286.5,-280.5"/>
<text text-anchor="middle" x="308.5" y="-287.5" font-family="Helvetica,sans-Serif" font-size="10.00">string</text>
</a>
</g>
</g>
<!-- Node6&#45;&gt;Node7 -->
<g id="edge6" class="edge">
<title>Node6&#45;&gt;Node7</title>
<path fill="none" stroke="midnightblue" d="M207.51,-336.44C227.09,-327.64 257.81,-313.81 280.23,-303.72"/>
<polygon fill="midnightblue" stroke="midnightblue" points="281.89,-306.81 289.57,-299.52 279.02,-300.43 281.89,-306.81"/>
</g>
<!-- Node8 -->
<g id="node8" class="node">
<title>Node8</title>
<g id="a_node8"><a xlink:href="vector3_d_8hpp.html" target="_top" xlink:title=" ">
<polygon fill="none" stroke="black" points="111.5,-168.5 111.5,-187.5 193.5,-187.5 193.5,-168.5 111.5,-168.5"/>
<text text-anchor="middle" x="152.5" y="-175.5" font-family="Helvetica,sans-Serif" font-size="10.00">vector3D.hpp</text>
</a>
</g>
</g>
<!-- Node6&#45;&gt;Node8 -->
<g id="edge8" class="edge">
<title>Node6&#45;&gt;Node8</title>
<path fill="none" stroke="midnightblue" d="M172.77,-336.24C160.61,-328.48 144.69,-315.93 137.5,-300 122.18,-266.05 135.01,-221.6 144.53,-197.13"/>
<polygon fill="midnightblue" stroke="midnightblue" points="147.85,-198.26 148.43,-187.68 141.38,-195.58 147.85,-198.26"/>
</g>
<!-- Node9 -->
<g id="node9" class="node">
<title>Node9</title>
<g id="a_node9"><a xlink:href="vector_8hpp.html" target="_top" xlink:title=" ">
<polygon fill="none" stroke="black" points="194.5,-112.5 194.5,-131.5 262.5,-131.5 262.5,-112.5 194.5,-112.5"/>
<text text-anchor="middle" x="228.5" y="-119.5" font-family="Helvetica,sans-Serif" font-size="10.00">vector.hpp</text>
</a>
</g>
</g>
<!-- Node6&#45;&gt;Node9 -->
<g id="edge20" class="edge">
<title>Node6&#45;&gt;Node9</title>
<path fill="none" stroke="midnightblue" d="M171.09,-336.35C157.43,-328.66 139.02,-316.14 128.5,-300 95.85,-249.91 68.06,-216.88 102.5,-168 112.32,-154.06 152.32,-141.31 184.65,-132.97"/>
<polygon fill="midnightblue" stroke="midnightblue" points="185.55,-136.35 194.4,-130.53 183.84,-129.56 185.55,-136.35"/>
</g>
<!-- Node12 -->
<g id="node12" class="node">
<title>Node12</title>
<g id="a_node12"><a xlink:href="count_8hpp.html" target="_top" xlink:title="Plik zawiera definicję klasy reprezentujacej counter, pozwalajacy na liczenie instancji stworzonych k...">
<polygon fill="none" stroke="black" points="12,-56.5 12,-75.5 77,-75.5 77,-56.5 12,-56.5"/>
<text text-anchor="middle" x="44.5" y="-63.5" font-family="Helvetica,sans-Serif" font-size="10.00">count.hpp</text>
</a>
</g>
</g>
<!-- Node6&#45;&gt;Node12 -->
<g id="edge19" class="edge">
<title>Node6&#45;&gt;Node12</title>
<path fill="none" stroke="midnightblue" d="M156.39,-336.68C112.86,-323.25 40.5,-292.31 40.5,-235 40.5,-235 40.5,-235 40.5,-177 40.5,-144.93 42.22,-107.63 43.4,-85.74"/>
<polygon fill="midnightblue" stroke="midnightblue" points="46.91,-85.73 43.98,-75.55 39.92,-85.34 46.91,-85.73"/>
</g>
<!-- Node16 -->
<g id="node16" class="node">
<title>Node16</title>
<g id="a_node16"><a xlink:href="matrix3_d_8hpp.html" target="_top" xlink:title=" ">
<polygon fill="none" stroke="black" points="147,-280.5 147,-299.5 230,-299.5 230,-280.5 147,-280.5"/>
<text text-anchor="middle" x="188.5" y="-287.5" font-family="Helvetica,sans-Serif" font-size="10.00">matrix3D.hpp</text>
</a>
</g>
</g>
<!-- Node6&#45;&gt;Node16 -->
<g id="edge21" class="edge">
<title>Node6&#45;&gt;Node16</title>
<path fill="none" stroke="midnightblue" d="M188.5,-336.08C188.5,-329.01 188.5,-318.86 188.5,-309.99"/>
<polygon fill="midnightblue" stroke="midnightblue" points="192,-309.75 188.5,-299.75 185,-309.75 192,-309.75"/>
</g>
<!-- Node17 -->
<g id="node17" class="node">
<title>Node17</title>
<g id="a_node17"><a xlink:href="matrix_8hpp.html" target="_top" xlink:title=" ">
<polygon fill="none" stroke="black" points="311.5,-224.5 311.5,-243.5 381.5,-243.5 381.5,-224.5 311.5,-224.5"/>
<text text-anchor="middle" x="346.5" y="-231.5" font-family="Helvetica,sans-Serif" font-size="10.00">matrix.hpp</text>
</a>
</g>
</g>
<!-- Node6&#45;&gt;Node17 -->
<g id="edge31" class="edge">
<title>Node6&#45;&gt;Node17</title>
<path fill="none" stroke="midnightblue" d="M199.88,-336.39C216.67,-323.75 249.16,-299.57 277.5,-280 292.89,-269.37 310.57,-257.85 324.18,-249.13"/>
<polygon fill="midnightblue" stroke="midnightblue" points="326.33,-251.92 332.87,-243.59 322.56,-246.01 326.33,-251.92"/>
</g>
<!-- Node8&#45;&gt;Node9 -->
<g id="edge9" class="edge">
<title>Node8&#45;&gt;Node9</title>
<path fill="none" stroke="midnightblue" d="M164.71,-168.32C176.28,-160.11 193.88,-147.6 207.66,-137.81"/>
<polygon fill="midnightblue" stroke="midnightblue" points="209.94,-140.48 216.07,-131.83 205.89,-134.77 209.94,-140.48"/>
</g>
<!-- Node15 -->
<g id="node15" class="node">
<title>Node15</title>
<g id="a_node15"><a xlink:href="vector3_d_8cpp.html" target="_top" xlink:title=" ">
<polygon fill="none" stroke="black" points="69,-112.5 69,-131.5 176,-131.5 176,-112.5 69,-112.5"/>
<text text-anchor="middle" x="122.5" y="-119.5" font-family="Helvetica,sans-Serif" font-size="10.00">../src/vector3D.cpp</text>
</a>
</g>
</g>
<!-- Node8&#45;&gt;Node15 -->
<g id="edge17" class="edge">
<title>Node8&#45;&gt;Node15</title>
<path fill="none" stroke="midnightblue" d="M142.38,-168.08C136.77,-160.77 130.48,-150.18 126.14,-141.1"/>
<polygon fill="midnightblue" stroke="midnightblue" points="129.32,-139.62 122.23,-131.75 122.86,-142.33 129.32,-139.62"/>
</g>
<!-- Node9&#45;&gt;Node2 -->
<g id="edge10" class="edge">
<title>Node9&#45;&gt;Node2</title>
<path fill="none" stroke="midnightblue" d="M194.29,-113.91C156.35,-104.43 103.12,-85.34 124.5,-56 147.09,-25 191.39,-14.89 224.13,-11.82"/>
<polygon fill="midnightblue" stroke="midnightblue" points="224.6,-15.3 234.31,-11.06 224.08,-8.32 224.6,-15.3"/>
</g>
<!-- Node10 -->
<g id="node10" class="node">
<title>Node10</title>
<g id="a_node10"><a xlink:title=" ">
<polygon fill="none" stroke="#bfbfbf" points="134,-56.5 134,-75.5 181,-75.5 181,-56.5 134,-56.5"/>
<text text-anchor="middle" x="157.5" y="-63.5" font-family="Helvetica,sans-Serif" font-size="10.00">cmath</text>
</a>
</g>
</g>
<!-- Node9&#45;&gt;Node10 -->
<g id="edge11" class="edge">
<title>Node9&#45;&gt;Node10</title>
<path fill="none" stroke="midnightblue" d="M217.09,-112.32C206.39,-104.18 190.16,-91.84 177.34,-82.09"/>
<polygon fill="midnightblue" stroke="midnightblue" points="179.19,-79.1 169.11,-75.83 174.96,-84.67 179.19,-79.1"/>
</g>
<!-- Node11 -->
<g id="node11" class="node">
<title>Node11</title>
<g id="a_node11"><a xlink:title=" ">
<polygon fill="none" stroke="#bfbfbf" points="199.5,-56.5 199.5,-75.5 255.5,-75.5 255.5,-56.5 199.5,-56.5"/>
<text text-anchor="middle" x="227.5" y="-63.5" font-family="Helvetica,sans-Serif" font-size="10.00">iomanip</text>
</a>
</g>
</g>
<!-- Node9&#45;&gt;Node11 -->
<g id="edge12" class="edge">
<title>Node9&#45;&gt;Node11</title>
<path fill="none" stroke="midnightblue" d="M228.33,-112.08C228.2,-105.01 228.02,-94.86 227.85,-85.99"/>
<polygon fill="midnightblue" stroke="midnightblue" points="231.35,-85.68 227.66,-75.75 224.35,-85.81 231.35,-85.68"/>
</g>
<!-- Node9&#45;&gt;Node12 -->
<g id="edge13" class="edge">
<title>Node9&#45;&gt;Node12</title>
<path fill="none" stroke="midnightblue" d="M199.34,-112.44C167.99,-103.24 117.97,-88.56 83.3,-78.39"/>
<polygon fill="midnightblue" stroke="midnightblue" points="84.1,-74.97 73.52,-75.52 82.13,-81.69 84.1,-74.97"/>
</g>
<!-- Node14 -->
<g id="node14" class="node">
<title>Node14</title>
<g id="a_node14"><a xlink:title=" ">
<polygon fill="none" stroke="#bfbfbf" points="273.5,-56.5 273.5,-75.5 365.5,-75.5 365.5,-56.5 273.5,-56.5"/>
<text text-anchor="middle" x="319.5" y="-63.5" font-family="Helvetica,sans-Serif" font-size="10.00">../src/vector.tpp</text>
</a>
</g>
</g>
<!-- Node9&#45;&gt;Node14 -->
<g id="edge16" class="edge">
<title>Node9&#45;&gt;Node14</title>
<path fill="none" stroke="midnightblue" d="M243.12,-112.32C257.45,-103.82 279.51,-90.73 296.25,-80.8"/>
<polygon fill="midnightblue" stroke="midnightblue" points="298.1,-83.77 304.92,-75.65 294.53,-77.75 298.1,-83.77"/>
</g>
<!-- Node12&#45;&gt;Node2 -->
<g id="edge14" class="edge">
<title>Node12&#45;&gt;Node2</title>
<path fill="none" stroke="midnightblue" d="M77.44,-56.92C116.64,-47.29 182.08,-31.23 224.25,-20.88"/>
<polygon fill="midnightblue" stroke="midnightblue" points="225.3,-24.23 234.18,-18.44 223.63,-17.43 225.3,-24.23"/>
</g>
<!-- Node13 -->
<g id="node13" class="node">
<title>Node13</title>
<g id="a_node13"><a xlink:title=" ">
<polygon fill="none" stroke="#bfbfbf" points="0,-0.5 0,-19.5 89,-19.5 89,-0.5 0,-0.5"/>
<text text-anchor="middle" x="44.5" y="-7.5" font-family="Helvetica,sans-Serif" font-size="10.00">../src/count.tpp</text>
</a>
</g>
</g>
<!-- Node12&#45;&gt;Node13 -->
<g id="edge15" class="edge">
<title>Node12&#45;&gt;Node13</title>
<path fill="none" stroke="midnightblue" d="M44.5,-56.08C44.5,-49.01 44.5,-38.86 44.5,-29.99"/>
<polygon fill="midnightblue" stroke="midnightblue" points="48,-29.75 44.5,-19.75 41,-29.75 48,-29.75"/>
</g>
<!-- Node15&#45;&gt;Node8 -->
<g id="edge18" class="edge">
<title>Node15&#45;&gt;Node8</title>
<path fill="none" stroke="midnightblue" d="M132.49,-131.75C138.09,-139.01 144.4,-149.59 148.76,-158.69"/>
<polygon fill="midnightblue" stroke="midnightblue" points="145.61,-160.23 152.71,-168.08 152.06,-157.51 145.61,-160.23"/>
</g>
<!-- Node16&#45;&gt;Node8 -->
<g id="edge28" class="edge">
<title>Node16&#45;&gt;Node8</title>
<path fill="none" stroke="midnightblue" d="M185.68,-280.37C179.84,-262.54 166.34,-221.3 158.48,-197.27"/>
<polygon fill="midnightblue" stroke="midnightblue" points="161.75,-196.01 155.31,-187.59 155.1,-198.18 161.75,-196.01"/>
</g>
<!-- Node16&#45;&gt;Node17 -->
<g id="edge22" class="edge">
<title>Node16&#45;&gt;Node17</title>
<path fill="none" stroke="midnightblue" d="M213.54,-280.44C240.12,-271.36 282.31,-256.94 312.02,-246.78"/>
<polygon fill="midnightblue" stroke="midnightblue" points="313.25,-250.06 321.58,-243.52 310.99,-243.44 313.25,-250.06"/>
</g>
<!-- Node20 -->
<g id="node20" class="node">
<title>Node20</title>
<g id="a_node20"><a xlink:href="matrix3_d_8cpp.html" target="_top" xlink:title=" ">
<polygon fill="none" stroke="black" points="184,-224.5 184,-243.5 293,-243.5 293,-224.5 184,-224.5"/>
<text text-anchor="middle" x="238.5" y="-231.5" font-family="Helvetica,sans-Serif" font-size="10.00">../src/matrix3D.cpp</text>
</a>
</g>
</g>
<!-- Node16&#45;&gt;Node20 -->
<g id="edge29" class="edge">
<title>Node16&#45;&gt;Node20</title>
<path fill="none" stroke="midnightblue" d="M191.59,-280.08C197.27,-272.14 207.85,-260.34 217.67,-250.8"/>
<polygon fill="midnightblue" stroke="midnightblue" points="220.31,-253.12 225.27,-243.75 215.55,-247.98 220.31,-253.12"/>
</g>
<!-- Node17&#45;&gt;Node2 -->
<g id="edge25" class="edge">
<title>Node17&#45;&gt;Node2</title>
<path fill="none" stroke="midnightblue" d="M353.91,-224.41C360.78,-215.84 370.51,-201.98 374.5,-188 390.62,-131.59 407.2,-104.71 374.5,-56 358.93,-32.81 329.08,-21.57 304.39,-16.11"/>
<polygon fill="midnightblue" stroke="midnightblue" points="305.03,-12.67 294.54,-14.17 303.67,-19.54 305.03,-12.67"/>
</g>
<!-- Node17&#45;&gt;Node8 -->
<g id="edge24" class="edge">
<title>Node17&#45;&gt;Node8</title>
<path fill="none" stroke="midnightblue" d="M315.76,-224.44C282.56,-215.2 229.51,-200.44 192.94,-190.26"/>
<polygon fill="midnightblue" stroke="midnightblue" points="193.67,-186.83 183.1,-187.52 191.79,-193.57 193.67,-186.83"/>
</g>
<!-- Node17&#45;&gt;Node9 -->
<g id="edge23" class="edge">
<title>Node17&#45;&gt;Node9</title>
<path fill="none" stroke="midnightblue" d="M321.96,-224.42C303.75,-217.05 279.26,-204.93 262.5,-188 249.36,-174.73 240.12,-155.34 234.62,-141.19"/>
<polygon fill="midnightblue" stroke="midnightblue" points="237.84,-139.79 231.14,-131.58 231.26,-142.18 237.84,-139.79"/>
</g>
<!-- Node18 -->
<g id="node18" class="node">
<title>Node18</title>
<g id="a_node18"><a xlink:title=" ">
<polygon fill="none" stroke="#bfbfbf" points="422,-168.5 422,-187.5 471,-187.5 471,-168.5 422,-168.5"/>
<text text-anchor="middle" x="446.5" y="-175.5" font-family="Helvetica,sans-Serif" font-size="10.00">cstdlib</text>
</a>
</g>
</g>
<!-- Node17&#45;&gt;Node18 -->
<g id="edge26" class="edge">
<title>Node17&#45;&gt;Node18</title>
<path fill="none" stroke="midnightblue" d="M362.57,-224.32C378.46,-215.74 403.01,-202.49 421.46,-192.52"/>
<polygon fill="midnightblue" stroke="midnightblue" points="423.34,-195.49 430.47,-187.65 420.01,-189.33 423.34,-195.49"/>
</g>
<!-- Node19 -->
<g id="node19" class="node">
<title>Node19</title>
<g id="a_node19"><a xlink:title=" ">
<polygon fill="none" stroke="#bfbfbf" points="271.5,-168.5 271.5,-187.5 365.5,-187.5 365.5,-168.5 271.5,-168.5"/>
<text text-anchor="middle" x="318.5" y="-175.5" font-family="Helvetica,sans-Serif" font-size="10.00">../src/matrix.tpp</text>
</a>
</g>
</g>
<!-- Node17&#45;&gt;Node19 -->
<g id="edge27" class="edge">
<title>Node17&#45;&gt;Node19</title>
<path fill="none" stroke="midnightblue" d="M341.88,-224.08C338.04,-216.69 332.48,-205.95 327.74,-196.81"/>
<polygon fill="midnightblue" stroke="midnightblue" points="330.75,-195.02 323.04,-187.75 324.53,-198.24 330.75,-195.02"/>
</g>
<!-- Node20&#45;&gt;Node16 -->
<g id="edge30" class="edge">
<title>Node20&#45;&gt;Node16</title>
<path fill="none" stroke="midnightblue" d="M235.47,-243.83C229.8,-251.79 219.14,-263.67 209.28,-273.25"/>
<polygon fill="midnightblue" stroke="midnightblue" points="206.6,-270.96 201.65,-280.32 211.36,-276.09 206.6,-270.96"/>
</g>
<!-- Node21&#45;&gt;Node6 -->
<g id="edge33" class="edge">
<title>Node21&#45;&gt;Node6</title>
<path fill="none" stroke="midnightblue" d="M243.9,-392.32C234.04,-384.26 219.15,-372.08 207.28,-362.37"/>
<polygon fill="midnightblue" stroke="midnightblue" points="209.25,-359.46 199.3,-355.83 204.82,-364.88 209.25,-359.46"/>
</g>
<!-- Node22&#45;&gt;Node7 -->
<g id="edge35" class="edge">
<title>Node22&#45;&gt;Node7</title>
<path fill="none" stroke="midnightblue" d="M358.75,-392.48C348.97,-384.16 334.82,-370.66 326.5,-356 318.28,-341.52 313.64,-323.07 311.14,-309.53"/>
<polygon fill="midnightblue" stroke="midnightblue" points="314.56,-308.82 309.5,-299.51 307.66,-309.94 314.56,-308.82"/>
</g>
<!-- Node23 -->
<g id="node23" class="node">
<title>Node23</title>
<g id="a_node23"><a xlink:title=" ">
<polygon fill="none" stroke="#bfbfbf" points="335.5,-336.5 335.5,-355.5 367.5,-355.5 367.5,-336.5 335.5,-336.5"/>
<text text-anchor="middle" x="351.5" y="-343.5" font-family="Helvetica,sans-Serif" font-size="10.00">list</text>
</a>
</g>
</g>
<!-- Node22&#45;&gt;Node23 -->
<g id="edge36" class="edge">
<title>Node22&#45;&gt;Node23</title>
<path fill="none" stroke="midnightblue" d="M366.53,-392.08C364.12,-384.85 360.64,-374.41 357.63,-365.4"/>
<polygon fill="midnightblue" stroke="midnightblue" points="360.9,-364.13 354.42,-355.75 354.26,-366.34 360.9,-364.13"/>
</g>
<!-- Node24 -->
<g id="node24" class="node">
<title>Node24</title>
<g id="a_node24"><a xlink:title=" ">
<polygon fill="none" stroke="#bfbfbf" points="386,-336.5 386,-355.5 433,-355.5 433,-336.5 386,-336.5"/>
<text text-anchor="middle" x="409.5" y="-343.5" font-family="Helvetica,sans-Serif" font-size="10.00">vector</text>
</a>
</g>
</g>
<!-- Node22&#45;&gt;Node24 -->
<g id="edge37" class="edge">
<title>Node22&#45;&gt;Node24</title>
<path fill="none" stroke="midnightblue" d="M376.11,-392.08C381.76,-384.46 390.04,-373.26 396.95,-363.94"/>
<polygon fill="midnightblue" stroke="midnightblue" points="399.88,-365.87 403.02,-355.75 394.25,-361.7 399.88,-365.87"/>
</g>
<!-- Node25&#45;&gt;Node17 -->
<g id="edge39" class="edge">
<title>Node25&#45;&gt;Node17</title>
<path fill="none" stroke="midnightblue" d="M562.66,-392.31C545.37,-370.8 497.72,-314.37 447.5,-280 427.22,-266.12 401.95,-254.86 381.77,-247.08"/>
<polygon fill="midnightblue" stroke="midnightblue" points="382.91,-243.77 372.31,-243.55 380.45,-250.33 382.91,-243.77"/>
</g>
<!-- Node26 -->
<g id="node26" class="node">
<title>Node26</title>
<g id="a_node26"><a xlink:href="matrix4_d_8cpp.html" target="_top" xlink:title=" ">
<polygon fill="none" stroke="black" points="566,-336.5 566,-355.5 675,-355.5 675,-336.5 566,-336.5"/>
<text text-anchor="middle" x="620.5" y="-343.5" font-family="Helvetica,sans-Serif" font-size="10.00">../src/matrix4D.cpp</text>
</a>
</g>
</g>
<!-- Node25&#45;&gt;Node26 -->
<g id="edge40" class="edge">
<title>Node25&#45;&gt;Node26</title>
<path fill="none" stroke="midnightblue" d="M572.76,-392.08C578.64,-384.06 589.6,-372.1 599.67,-362.51"/>
<polygon fill="midnightblue" stroke="midnightblue" points="602.06,-365.07 607.1,-355.75 597.35,-359.89 602.06,-365.07"/>
</g>
<!-- Node26&#45;&gt;Node25 -->
<g id="edge41" class="edge">
<title>Node26&#45;&gt;Node25</title>
<path fill="none" stroke="midnightblue" d="M617.31,-355.83C611.43,-363.87 600.4,-375.91 590.27,-385.54"/>
<polygon fill="midnightblue" stroke="midnightblue" points="587.85,-383.01 582.81,-392.32 592.56,-388.19 587.85,-383.01"/>
</g>
</g>
</svg>
