<?xml version="1.0" encoding="UTF-8" standalone="no"?>
<!DOCTYPE svg PUBLIC "-//W3C//DTD SVG 1.1//EN"
 "http://www.w3.org/Graphics/SVG/1.1/DTD/svg11.dtd">
<!-- Generated by graphviz version 2.43.0 (0)
 -->
<!-- Title: PzG::DopiszRysowanieZRoznychPunktow Pages: 1 -->
<svg width="776pt" height="312pt"
 viewBox="0.00 0.00 776.00 311.86" xmlns="http://www.w3.org/2000/svg" xmlns:xlink="http://www.w3.org/1999/xlink">
<g id="graph0" class="graph" transform="scale(1 1) rotate(0) translate(4 307.86)">
<title>PzG::DopiszRysowanieZRoznychPunktow</title>
<!-- Node1 -->
<g id="node1" class="node">
<title>Node1</title>
<g id="a_node1"><a xlink:title="Dodaje do listy rysowanych punktów, punkty o różnych rozmiarach.">
<polygon fill="#bfbfbf" stroke="black" points="592,-163.5 592,-193.5 768,-193.5 768,-163.5 592,-163.5"/>
<text text-anchor="start" x="600" y="-181.5" font-family="Helvetica,sans-Serif" font-size="10.00">PzG::DopiszRysowanieZRoznych</text>
<text text-anchor="middle" x="680" y="-170.5" font-family="Helvetica,sans-Serif" font-size="10.00">Punktow</text>
</a>
</g>
</g>
<!-- Node2 -->
<g id="node2" class="node">
<title>Node2</title>
<g id="a_node2"><a xlink:href="class_pz_g_1_1_lacze_do_g_n_u_plota.html#aee10e48fe1b9fba6e2897b4ccfa27aef" target="_top" xlink:title="Tworzy listę parametrów umożliwiających rysowanie brył z plików.">
<polygon fill="none" stroke="black" points="357,-188.5 357,-218.5 556,-218.5 556,-188.5 357,-188.5"/>
<text text-anchor="start" x="365" y="-206.5" font-family="Helvetica,sans-Serif" font-size="10.00">PzG::LaczeDoGNUPlota</text>
<text text-anchor="middle" x="456.5" y="-195.5" font-family="Helvetica,sans-Serif" font-size="10.00">::DopiszRysowanieZRoznychPunktow</text>
</a>
</g>
</g>
<!-- Node1&#45;&gt;Node2 -->
<g id="edge1" class="edge">
<title>Node1&#45;&gt;Node2</title>
<path fill="none" stroke="midnightblue" d="M581.62,-189.49C573.24,-190.44 564.76,-191.39 556.37,-192.34"/>
<polygon fill="midnightblue" stroke="midnightblue" points="582.23,-192.94 591.78,-188.34 581.45,-185.99 582.23,-192.94"/>
</g>
<!-- Node3 -->
<g id="node3" class="node">
<title>Node3</title>
<g id="a_node3"><a xlink:href="class_pz_g_1_1_lacze_do_g_n_u_plota.html#a065f5b8402737cc62b0ad4f66d028335" target="_top" xlink:title="Generuje polecenie rysowania i przesyła je do gnuplota.">
<polygon fill="none" stroke="black" points="391.5,-139.5 391.5,-169.5 521.5,-169.5 521.5,-139.5 391.5,-139.5"/>
<text text-anchor="start" x="399.5" y="-157.5" font-family="Helvetica,sans-Serif" font-size="10.00">PzG::LaczeDoGNUPlota</text>
<text text-anchor="middle" x="456.5" y="-146.5" font-family="Helvetica,sans-Serif" font-size="10.00">::Rysuj</text>
</a>
</g>
</g>
<!-- Node1&#45;&gt;Node3 -->
<g id="edge2" class="edge">
<title>Node1&#45;&gt;Node3</title>
<path fill="none" stroke="midnightblue" d="M581.57,-167.94C561.29,-165.75 540.42,-163.48 521.71,-161.46"/>
<polygon fill="midnightblue" stroke="midnightblue" points="581.46,-171.45 591.78,-169.05 582.21,-164.49 581.46,-171.45"/>
</g>
<!-- Node4 -->
<g id="node4" class="node">
<title>Node4</title>
<g id="a_node4"><a xlink:href="class_drone.html#ac4d24c27fb2c107d2e8bda0c2bf5cfa1" target="_top" xlink:title="Metoda obliczajaca i przeprowadzajaca caly ruch drona (obrot o kat i przelot z zadania 5....">
<polygon fill="none" stroke="black" points="15,-240.5 15,-270.5 127,-270.5 127,-240.5 15,-240.5"/>
<text text-anchor="start" x="23" y="-258.5" font-family="Helvetica,sans-Serif" font-size="10.00">Drone::Drone_basic</text>
<text text-anchor="middle" x="71" y="-247.5" font-family="Helvetica,sans-Serif" font-size="10.00">_motion</text>
</a>
</g>
</g>
<!-- Node3&#45;&gt;Node4 -->
<g id="edge3" class="edge">
<title>Node3&#45;&gt;Node4</title>
<path fill="none" stroke="midnightblue" d="M381.74,-163.73C372.68,-167.27 364.12,-172.06 357,-178.5 321.35,-210.75 360.24,-252.73 321,-280.5 255.03,-327.17 153.48,-292.83 102.87,-270.55"/>
<polygon fill="midnightblue" stroke="midnightblue" points="382.98,-167 391.32,-160.47 380.73,-160.38 382.98,-167"/>
</g>
<!-- Node5 -->
<g id="node5" class="node">
<title>Node5</title>
<g id="a_node5"><a xlink:href="class_drone.html#a9d09f6cd9ed8d60dfd1979b31101f400" target="_top" xlink:title="Metoda zapisujaca sciezke do pliku oraz do lacza.">
<polygon fill="none" stroke="black" points="178,-202 178,-221 321,-221 321,-202 178,-202"/>
<text text-anchor="middle" x="249.5" y="-209" font-family="Helvetica,sans-Serif" font-size="10.00">Drone::Drone_path_to_file</text>
</a>
</g>
</g>
<!-- Node3&#45;&gt;Node5 -->
<g id="edge4" class="edge">
<title>Node3&#45;&gt;Node5</title>
<path fill="none" stroke="midnightblue" d="M381.53,-172C373.24,-174.12 364.93,-176.31 357,-178.5 330.69,-185.77 301.06,-195.05 279.74,-201.91"/>
<polygon fill="midnightblue" stroke="midnightblue" points="382.4,-175.39 391.24,-169.55 380.69,-168.6 382.4,-175.39"/>
</g>
<!-- Node6 -->
<g id="node6" class="node">
<title>Node6</title>
<g id="a_node6"><a xlink:href="class_drone.html#ab7808296cec81143dbddd7516340a371" target="_top" xlink:title="Metoda robiaca &quot;oblot&quot; drona wokol punktu (z modyfikacji)">
<polygon fill="none" stroke="black" points="0,-186 0,-205 142,-205 142,-186 0,-186"/>
<text text-anchor="middle" x="71" y="-193" font-family="Helvetica,sans-Serif" font-size="10.00">Drone::Drone_roundabout</text>
</a>
</g>
</g>
<!-- Node3&#45;&gt;Node6 -->
<g id="edge10" class="edge">
<title>Node3&#45;&gt;Node6</title>
<path fill="none" stroke="midnightblue" d="M380.94,-162.47C311.88,-169.85 209.91,-180.76 142.25,-187.99"/>
<polygon fill="midnightblue" stroke="midnightblue" points="381.74,-165.91 391.31,-161.36 381,-158.95 381.74,-165.91"/>
</g>
<!-- Node7 -->
<g id="node7" class="node">
<title>Node7</title>
<g id="a_node7"><a xlink:href="class_drone.html#a5fc9dd645ad3856b5d3c501c63c464e3" target="_top" xlink:title="Metoda animujaca translacje drona i wyrysowujaca calosc w gnuplocie.">
<polygon fill="none" stroke="black" points="1.5,-128.5 1.5,-158.5 140.5,-158.5 140.5,-128.5 1.5,-128.5"/>
<text text-anchor="start" x="9.5" y="-146.5" font-family="Helvetica,sans-Serif" font-size="10.00">Drone::Drone_translation</text>
<text text-anchor="middle" x="71" y="-135.5" font-family="Helvetica,sans-Serif" font-size="10.00">_animation</text>
</a>
</g>
</g>
<!-- Node3&#45;&gt;Node7 -->
<g id="edge11" class="edge">
<title>Node3&#45;&gt;Node7</title>
<path fill="none" stroke="midnightblue" d="M381.29,-152.37C311.66,-150.37 208.36,-147.41 140.61,-145.47"/>
<polygon fill="midnightblue" stroke="midnightblue" points="381.21,-155.87 391.31,-152.66 381.42,-148.87 381.21,-155.87"/>
</g>
<!-- Node8 -->
<g id="node8" class="node">
<title>Node8</title>
<g id="a_node8"><a xlink:href="class_drone.html#af052f6bb793d1229b99b16b800b95b82" target="_top" xlink:title="Metoda animujaca obrot drona i wyrysowujaca calosc w gnuplocie.">
<polygon fill="none" stroke="black" points="187,-240.5 187,-270.5 312,-270.5 312,-240.5 187,-240.5"/>
<text text-anchor="start" x="195" y="-258.5" font-family="Helvetica,sans-Serif" font-size="10.00">Drone::Drone_rotation</text>
<text text-anchor="middle" x="249.5" y="-247.5" font-family="Helvetica,sans-Serif" font-size="10.00">_animation</text>
</a>
</g>
</g>
<!-- Node3&#45;&gt;Node8 -->
<g id="edge8" class="edge">
<title>Node3&#45;&gt;Node8</title>
<path fill="none" stroke="midnightblue" d="M381.8,-166.1C373.01,-169.28 364.51,-173.34 357,-178.5 333.83,-194.42 343.33,-213.42 321,-230.5 315.95,-234.37 310.24,-237.67 304.33,-240.48"/>
<polygon fill="midnightblue" stroke="midnightblue" points="382.98,-169.39 391.4,-162.97 380.81,-162.74 382.98,-169.39"/>
</g>
<!-- Node9 -->
<g id="node9" class="node">
<title>Node9</title>
<g id="a_node9"><a xlink:href="class_scene.html#ae4468d0e93e36895e970d61abd760fba" target="_top" xlink:title="Metoda inicjalizujaca lacze do gnuplota.">
<polygon fill="none" stroke="black" points="194.5,-50 194.5,-69 304.5,-69 304.5,-50 194.5,-50"/>
<text text-anchor="middle" x="249.5" y="-57" font-family="Helvetica,sans-Serif" font-size="10.00">Scene::init_gnuplot</text>
</a>
</g>
</g>
<!-- Node3&#45;&gt;Node9 -->
<g id="edge12" class="edge">
<title>Node3&#45;&gt;Node9</title>
<path fill="none" stroke="midnightblue" d="M420.86,-134.27C394.12,-119.14 355.92,-98.55 321,-83.5 308.53,-78.13 294.43,-73.12 282.14,-69.09"/>
<polygon fill="midnightblue" stroke="midnightblue" points="419.39,-137.46 429.81,-139.38 422.86,-131.38 419.39,-137.46"/>
</g>
<!-- Node10 -->
<g id="node10" class="node">
<title>Node10</title>
<g id="a_node10"><a xlink:href="class_menu.html#af7e6a49bd56499facef9cc98561ea169" target="_top" xlink:title="Inicjuje i obsluguje menu.">
<polygon fill="none" stroke="black" points="22,-74 22,-93 120,-93 120,-74 22,-74"/>
<text text-anchor="middle" x="71" y="-81" font-family="Helvetica,sans-Serif" font-size="10.00">Menu::init_menu</text>
</a>
</g>
</g>
<!-- Node3&#45;&gt;Node10 -->
<g id="edge14" class="edge">
<title>Node3&#45;&gt;Node10</title>
<path fill="none" stroke="midnightblue" d="M381.19,-140.74C304.15,-126.48 185.98,-104.6 120.28,-92.44"/>
<polygon fill="midnightblue" stroke="midnightblue" points="380.84,-144.24 391.31,-142.62 382.11,-137.35 380.84,-144.24"/>
</g>
<!-- Node11 -->
<g id="node11" class="node">
<title>Node11</title>
<g id="a_node11"><a xlink:href="class_drone.html#a577871807280aab8d9c0d4e45b435ec4" target="_top" xlink:title="Metoda rysujaca drona w gnuplocie. Przeznaczona do testow">
<polygon fill="none" stroke="black" points="184,-0.5 184,-30.5 315,-30.5 315,-0.5 184,-0.5"/>
<text text-anchor="start" x="192" y="-18.5" font-family="Helvetica,sans-Serif" font-size="10.00">Drone::Print_to_gnuplot</text>
<text text-anchor="middle" x="249.5" y="-7.5" font-family="Helvetica,sans-Serif" font-size="10.00">_drone</text>
</a>
</g>
</g>
<!-- Node3&#45;&gt;Node11 -->
<g id="edge15" class="edge">
<title>Node3&#45;&gt;Node11</title>
<path fill="none" stroke="midnightblue" d="M433.99,-131.87C408.92,-106.61 365.25,-65.95 321,-40.5 314.58,-36.81 307.53,-33.52 300.44,-30.64"/>
<polygon fill="midnightblue" stroke="midnightblue" points="431.65,-134.49 441.15,-139.18 436.65,-129.59 431.65,-134.49"/>
</g>
<!-- Node5&#45;&gt;Node4 -->
<g id="edge5" class="edge">
<title>Node5&#45;&gt;Node4</title>
<path fill="none" stroke="midnightblue" d="M200.48,-223.47C177.87,-229.11 150.77,-235.86 127.31,-241.71"/>
<polygon fill="midnightblue" stroke="midnightblue" points="201.35,-226.86 210.2,-221.05 199.65,-220.07 201.35,-226.86"/>
</g>
<!-- Node5&#45;&gt;Node6 -->
<g id="edge6" class="edge">
<title>Node5&#45;&gt;Node6</title>
<path fill="none" stroke="midnightblue" d="M167.93,-204.2C159.31,-203.42 150.6,-202.63 142.12,-201.86"/>
<polygon fill="midnightblue" stroke="midnightblue" points="167.71,-207.69 177.98,-205.11 168.34,-200.72 167.71,-207.69"/>
</g>
<!-- Node5&#45;&gt;Node7 -->
<g id="edge7" class="edge">
<title>Node5&#45;&gt;Node7</title>
<path fill="none" stroke="midnightblue" d="M214.1,-198.25C184.53,-186.86 141.92,-170.44 111.08,-158.56"/>
<polygon fill="midnightblue" stroke="midnightblue" points="213,-201.57 223.59,-201.9 215.51,-195.04 213,-201.57"/>
</g>
<!-- Node8&#45;&gt;Node4 -->
<g id="edge9" class="edge">
<title>Node8&#45;&gt;Node4</title>
<path fill="none" stroke="midnightblue" d="M176.63,-255.5C160.14,-255.5 142.87,-255.5 127.21,-255.5"/>
<polygon fill="midnightblue" stroke="midnightblue" points="176.77,-259 186.77,-255.5 176.77,-252 176.77,-259"/>
</g>
<!-- Node9&#45;&gt;Node10 -->
<g id="edge13" class="edge">
<title>Node9&#45;&gt;Node10</title>
<path fill="none" stroke="midnightblue" d="M183.94,-68.28C162.89,-71.14 139.88,-74.27 120.23,-76.94"/>
<polygon fill="midnightblue" stroke="midnightblue" points="184.67,-71.71 194.1,-66.9 183.72,-64.78 184.67,-71.71"/>
</g>
</g>
</svg>
