<?xml version="1.0" encoding="UTF-8" standalone="no"?>
<!DOCTYPE svg PUBLIC "-//W3C//DTD SVG 1.1//EN"
 "http://www.w3.org/Graphics/SVG/1.1/DTD/svg11.dtd">
<!-- Generated by graphviz version 2.43.0 (0)
 -->
<!-- Title: /home/krzysztof/PO/zad5_1&#45;kgliwinski/include/prism.hpp Pages: 1 -->
<svg width="682pt" height="362pt"
 viewBox="0.00 0.00 681.50 362.00" xmlns="http://www.w3.org/2000/svg" xmlns:xlink="http://www.w3.org/1999/xlink">
<g id="graph0" class="graph" transform="scale(1 1) rotate(0) translate(4 358)">
<title>/home/krzysztof/PO/zad5_1&#45;kgliwinski/include/prism.hpp</title>
<!-- Node1 -->
<g id="node1" class="node">
<title>Node1</title>
<g id="a_node1"><a xlink:title="Plik zawiera definicję klasy reprezentujacej graniastoslup o podstawie o 6 wierzcholkach w przestrzen...">
<polygon fill="#bfbfbf" stroke="black" points="384,-312.5 384,-353.5 530,-353.5 530,-312.5 384,-312.5"/>
<text text-anchor="start" x="392" y="-341.5" font-family="Helvetica,sans-Serif" font-size="10.00">/home/krzysztof/PO</text>
<text text-anchor="start" x="392" y="-330.5" font-family="Helvetica,sans-Serif" font-size="10.00">/zad5_1&#45;kgliwinski/include</text>
<text text-anchor="middle" x="457" y="-319.5" font-family="Helvetica,sans-Serif" font-size="10.00">/prism.hpp</text>
</a>
</g>
</g>
<!-- Node2 -->
<g id="node2" class="node">
<title>Node2</title>
<g id="a_node2"><a xlink:href="drone_8hpp.html" target="_top" xlink:title="Plik zawiera definicję klasy reprezentujacej drona, budowanie i przemieszczanie go.">
<polygon fill="none" stroke="black" points="220,-234.5 220,-275.5 366,-275.5 366,-234.5 220,-234.5"/>
<text text-anchor="start" x="228" y="-263.5" font-family="Helvetica,sans-Serif" font-size="10.00">/home/krzysztof/PO</text>
<text text-anchor="start" x="228" y="-252.5" font-family="Helvetica,sans-Serif" font-size="10.00">/zad5_1&#45;kgliwinski/include</text>
<text text-anchor="middle" x="293" y="-241.5" font-family="Helvetica,sans-Serif" font-size="10.00">/drone.hpp</text>
</a>
</g>
</g>
<!-- Node1&#45;&gt;Node2 -->
<g id="edge1" class="edge">
<title>Node1&#45;&gt;Node2</title>
<path fill="none" stroke="midnightblue" d="M405.62,-308.19C382.93,-297.67 356.59,-285.47 335.09,-275.51"/>
<polygon fill="midnightblue" stroke="midnightblue" points="404.22,-311.4 414.77,-312.43 407.16,-305.05 404.22,-311.4"/>
</g>
<!-- Node8 -->
<g id="node8" class="node">
<title>Node8</title>
<g id="a_node8"><a xlink:href="menu__cub_8hpp.html" target="_top" xlink:title="Plik zawiera definicję klasy reprezentujacej menu obslugi menu dla obrotow 3D.">
<polygon fill="none" stroke="black" points="384,-234.5 384,-275.5 530,-275.5 530,-234.5 384,-234.5"/>
<text text-anchor="start" x="392" y="-263.5" font-family="Helvetica,sans-Serif" font-size="10.00">/home/krzysztof/PO</text>
<text text-anchor="start" x="392" y="-252.5" font-family="Helvetica,sans-Serif" font-size="10.00">/zad5_1&#45;kgliwinski/include</text>
<text text-anchor="middle" x="457" y="-241.5" font-family="Helvetica,sans-Serif" font-size="10.00">/menu_cub.hpp</text>
</a>
</g>
</g>
<!-- Node1&#45;&gt;Node8 -->
<g id="edge7" class="edge">
<title>Node1&#45;&gt;Node8</title>
<path fill="none" stroke="midnightblue" d="M457,-302.3C457,-293.3 457,-283.65 457,-275.51"/>
<polygon fill="midnightblue" stroke="midnightblue" points="453.5,-302.43 457,-312.43 460.5,-302.43 453.5,-302.43"/>
</g>
<!-- Node10 -->
<g id="node10" class="node">
<title>Node10</title>
<g id="a_node10"><a xlink:href="prism_8cpp.html" target="_top" xlink:title=" ">
<polygon fill="none" stroke="black" points="548.5,-234.5 548.5,-275.5 673.5,-275.5 673.5,-234.5 548.5,-234.5"/>
<text text-anchor="start" x="556.5" y="-263.5" font-family="Helvetica,sans-Serif" font-size="10.00">/home/krzysztof/PO</text>
<text text-anchor="start" x="556.5" y="-252.5" font-family="Helvetica,sans-Serif" font-size="10.00">/zad5_1&#45;kgliwinski/src</text>
<text text-anchor="middle" x="611" y="-241.5" font-family="Helvetica,sans-Serif" font-size="10.00">/prism.cpp</text>
</a>
</g>
</g>
<!-- Node1&#45;&gt;Node10 -->
<g id="edge9" class="edge">
<title>Node1&#45;&gt;Node10</title>
<path fill="none" stroke="midnightblue" d="M505.82,-307.91C526.99,-297.46 551.47,-285.38 571.48,-275.51"/>
<polygon fill="midnightblue" stroke="midnightblue" points="504.08,-304.86 496.66,-312.43 507.18,-311.14 504.08,-304.86"/>
</g>
<!-- Node3 -->
<g id="node3" class="node">
<title>Node3</title>
<g id="a_node3"><a xlink:href="scene_8hpp.html" target="_top" xlink:title="Plik zawiera definicję klasy reprezentujacej scene, obslugujacej zapis do plikow i wytswietlanie w gn...">
<polygon fill="none" stroke="black" points="77,-156.5 77,-197.5 223,-197.5 223,-156.5 77,-156.5"/>
<text text-anchor="start" x="85" y="-185.5" font-family="Helvetica,sans-Serif" font-size="10.00">/home/krzysztof/PO</text>
<text text-anchor="start" x="85" y="-174.5" font-family="Helvetica,sans-Serif" font-size="10.00">/zad5_1&#45;kgliwinski/include</text>
<text text-anchor="middle" x="150" y="-163.5" font-family="Helvetica,sans-Serif" font-size="10.00">/scene.hpp</text>
</a>
</g>
</g>
<!-- Node2&#45;&gt;Node3 -->
<g id="edge2" class="edge">
<title>Node2&#45;&gt;Node3</title>
<path fill="none" stroke="midnightblue" d="M247.14,-229.63C227.6,-219.24 205.11,-207.29 186.7,-197.51"/>
<polygon fill="midnightblue" stroke="midnightblue" points="245.7,-232.83 256.17,-234.43 248.99,-226.64 245.7,-232.83"/>
</g>
<!-- Node7 -->
<g id="node7" class="node">
<title>Node7</title>
<g id="a_node7"><a xlink:href="drone_8cpp.html" target="_top" xlink:title=" ">
<polygon fill="none" stroke="black" points="241.5,-156.5 241.5,-197.5 366.5,-197.5 366.5,-156.5 241.5,-156.5"/>
<text text-anchor="start" x="249.5" y="-185.5" font-family="Helvetica,sans-Serif" font-size="10.00">/home/krzysztof/PO</text>
<text text-anchor="start" x="249.5" y="-174.5" font-family="Helvetica,sans-Serif" font-size="10.00">/zad5_1&#45;kgliwinski/src</text>
<text text-anchor="middle" x="304" y="-163.5" font-family="Helvetica,sans-Serif" font-size="10.00">/drone.cpp</text>
</a>
</g>
</g>
<!-- Node2&#45;&gt;Node7 -->
<g id="edge6" class="edge">
<title>Node2&#45;&gt;Node7</title>
<path fill="none" stroke="midnightblue" d="M297.3,-224.3C298.6,-215.3 300,-205.65 301.18,-197.51"/>
<polygon fill="midnightblue" stroke="midnightblue" points="293.8,-224.03 295.83,-234.43 300.73,-225.03 293.8,-224.03"/>
</g>
<!-- Node4 -->
<g id="node4" class="node">
<title>Node4</title>
<g id="a_node4"><a xlink:href="menu_8hpp.html" target="_top" xlink:title="Plik zawiera definicję klasy reprezentujacej menu, obslugujace menu programu.">
<polygon fill="none" stroke="black" points="0,-78.5 0,-119.5 146,-119.5 146,-78.5 0,-78.5"/>
<text text-anchor="start" x="8" y="-107.5" font-family="Helvetica,sans-Serif" font-size="10.00">/home/krzysztof/PO</text>
<text text-anchor="start" x="8" y="-96.5" font-family="Helvetica,sans-Serif" font-size="10.00">/zad5_1&#45;kgliwinski/include</text>
<text text-anchor="middle" x="73" y="-85.5" font-family="Helvetica,sans-Serif" font-size="10.00">/menu.hpp</text>
</a>
</g>
</g>
<!-- Node3&#45;&gt;Node4 -->
<g id="edge3" class="edge">
<title>Node3&#45;&gt;Node4</title>
<path fill="none" stroke="midnightblue" d="M122.85,-149.2C112.93,-139.42 101.91,-128.54 92.76,-119.51"/>
<polygon fill="midnightblue" stroke="midnightblue" points="120.59,-151.89 130.17,-156.43 125.51,-146.91 120.59,-151.89"/>
</g>
<!-- Node6 -->
<g id="node6" class="node">
<title>Node6</title>
<g id="a_node6"><a xlink:href="scene_8cpp.html" target="_top" xlink:title=" ">
<polygon fill="none" stroke="black" points="164.5,-78.5 164.5,-119.5 289.5,-119.5 289.5,-78.5 164.5,-78.5"/>
<text text-anchor="start" x="172.5" y="-107.5" font-family="Helvetica,sans-Serif" font-size="10.00">/home/krzysztof/PO</text>
<text text-anchor="start" x="172.5" y="-96.5" font-family="Helvetica,sans-Serif" font-size="10.00">/zad5_1&#45;kgliwinski/src</text>
<text text-anchor="middle" x="227" y="-85.5" font-family="Helvetica,sans-Serif" font-size="10.00">/scene.cpp</text>
</a>
</g>
</g>
<!-- Node3&#45;&gt;Node6 -->
<g id="edge5" class="edge">
<title>Node3&#45;&gt;Node6</title>
<path fill="none" stroke="midnightblue" d="M177.15,-149.2C187.07,-139.42 198.09,-128.54 207.24,-119.51"/>
<polygon fill="midnightblue" stroke="midnightblue" points="174.49,-146.91 169.83,-156.43 179.41,-151.89 174.49,-146.91"/>
</g>
<!-- Node5 -->
<g id="node5" class="node">
<title>Node5</title>
<g id="a_node5"><a xlink:href="menu_8cpp.html" target="_top" xlink:title=" ">
<polygon fill="none" stroke="black" points="10.5,-0.5 10.5,-41.5 135.5,-41.5 135.5,-0.5 10.5,-0.5"/>
<text text-anchor="start" x="18.5" y="-29.5" font-family="Helvetica,sans-Serif" font-size="10.00">/home/krzysztof/PO</text>
<text text-anchor="start" x="18.5" y="-18.5" font-family="Helvetica,sans-Serif" font-size="10.00">/zad5_1&#45;kgliwinski/src</text>
<text text-anchor="middle" x="73" y="-7.5" font-family="Helvetica,sans-Serif" font-size="10.00">/menu.cpp</text>
</a>
</g>
</g>
<!-- Node4&#45;&gt;Node5 -->
<g id="edge4" class="edge">
<title>Node4&#45;&gt;Node5</title>
<path fill="none" stroke="midnightblue" d="M73,-68.3C73,-59.3 73,-49.65 73,-41.51"/>
<polygon fill="midnightblue" stroke="midnightblue" points="69.5,-68.43 73,-78.43 76.5,-68.43 69.5,-68.43"/>
</g>
<!-- Node9 -->
<g id="node9" class="node">
<title>Node9</title>
<g id="a_node9"><a xlink:href="menu__cub_8cpp.html" target="_top" xlink:title=" ">
<polygon fill="none" stroke="black" points="394.5,-156.5 394.5,-197.5 519.5,-197.5 519.5,-156.5 394.5,-156.5"/>
<text text-anchor="start" x="402.5" y="-185.5" font-family="Helvetica,sans-Serif" font-size="10.00">/home/krzysztof/PO</text>
<text text-anchor="start" x="402.5" y="-174.5" font-family="Helvetica,sans-Serif" font-size="10.00">/zad5_1&#45;kgliwinski/src</text>
<text text-anchor="middle" x="457" y="-163.5" font-family="Helvetica,sans-Serif" font-size="10.00">/menu_cub.cpp</text>
</a>
</g>
</g>
<!-- Node8&#45;&gt;Node9 -->
<g id="edge8" class="edge">
<title>Node8&#45;&gt;Node9</title>
<path fill="none" stroke="midnightblue" d="M457,-224.3C457,-215.3 457,-205.65 457,-197.51"/>
<polygon fill="midnightblue" stroke="midnightblue" points="453.5,-224.43 457,-234.43 460.5,-224.43 453.5,-224.43"/>
</g>
</g>
</svg>
