<?xml version="1.0" encoding="UTF-8" standalone="no"?>
<!DOCTYPE svg PUBLIC "-//W3C//DTD SVG 1.1//EN"
 "http://www.w3.org/Graphics/SVG/1.1/DTD/svg11.dtd">
<!-- Generated by graphviz version 2.43.0 (0)
 -->
<!-- Title: /home/krzysztof/PO/zad5_1&#45;kgliwinski/include/scene.hpp Pages: 1 -->
<!--zoomable 554 -->
<svg id="main" version="1.1" xmlns="http://www.w3.org/2000/svg" xmlns:xlink="http://www.w3.org/1999/xlink" xml:space="preserve" onload="init(evt)">
<style type="text/css"><![CDATA[
.edge:hover path { stroke: red; }
.edge:hover polygon { stroke: red; fill: red; }
]]></style>
<script type="text/javascript"><![CDATA[
var edges = document.getElementsByTagName('g');
if (edges && edges.length) {
  for (var i=0;i<edges.length;i++) {
    if (edges[i].id.substr(0,4)=='edge') {
      edges[i].setAttribute('class','edge');
    }
  }
}
]]></script>
        <defs>
                <circle id="rim" cx="0" cy="0" r="7"/>
                <circle id="rim2" cx="0" cy="0" r="3.5"/>
                <g id="zoomPlus">
                        <use xlink:href="#rim" fill="#404040">
                                <set attributeName="fill" to="#808080" begin="zoomplus.mouseover" end="zoomplus.mouseout"/>
                        </use>
                        <path d="M-4,0h8M0,-4v8" fill="none" stroke="white" stroke-width="1.5" pointer-events="none"/>
                </g>
                <g id="zoomMin">
                        <use xlink:href="#rim" fill="#404040">
                                <set attributeName="fill" to="#808080" begin="zoomminus.mouseover" end="zoomminus.mouseout"/>
                        </use>
                        <path d="M-4,0h8" fill="none" stroke="white" stroke-width="1.5" pointer-events="none"/>
                </g>
                <g id="dirArrow">
                        <path fill="none" stroke="white" stroke-width="1.5" d="M0,-3.0v7 M-2.5,-0.5L0,-3.0L2.5,-0.5"/>
                </g>
               <g id="resetDef">
                       <use xlink:href="#rim2" fill="#404040">
                               <set attributeName="fill" to="#808080" begin="reset.mouseover" end="reset.mouseout"/>
                       </use>
               </g>
        </defs>

<script type="text/javascript">
var viewWidth = 612;
var viewHeight = 554;
var sectionId = 'dynsection-0';
</script>
<script xlink:href="svgpan.js"/>
<svg id="graph" class="graph">
<g id="viewport">
<title>/home/krzysztof/PO/zad5_1&#45;kgliwinski/include/scene.hpp</title>
<!-- Node1 -->
<g id="node1" class="node">
<title>Node1</title>
<g id="a_node1"><a xlink:title="Plik zawiera definicję klasy reprezentujacej scene, obslugujacej zapis do plikow i wytswietlanie w gn...">
<polygon fill="#bfbfbf" stroke="black" points="249.5,-504.5 249.5,-545.5 395.5,-545.5 395.5,-504.5 249.5,-504.5"/>
<text text-anchor="start" x="257.5" y="-533.5" font-family="Helvetica,sans-Serif" font-size="10.00">/home/krzysztof/PO</text>
<text text-anchor="start" x="257.5" y="-522.5" font-family="Helvetica,sans-Serif" font-size="10.00">/zad5_1&#45;kgliwinski/include</text>
<text text-anchor="middle" x="322.5" y="-511.5" font-family="Helvetica,sans-Serif" font-size="10.00">/scene.hpp</text>
</a>
</g>
</g>
<!-- Node2 -->
<g id="node2" class="node">
<title>Node2</title>
<g id="a_node2"><a xlink:title=" ">
<polygon fill="none" stroke="#bfbfbf" points="234.5,-0.5 234.5,-19.5 294.5,-19.5 294.5,-0.5 234.5,-0.5"/>
<text text-anchor="middle" x="264.5" y="-7.5" font-family="Helvetica,sans-Serif" font-size="10.00">iostream</text>
</a>
</g>
</g>
<!-- Node1&#45;&gt;Node2 -->
<g id="edge1" class="edge">
<title>Node1&#45;&gt;Node2</title>
<path fill="none" stroke="midnightblue" d="M395.6,-522.83C478.85,-517.17 603.5,-493.56 603.5,-403 603.5,-403 603.5,-403 603.5,-121 603.5,-58.8 394.43,-26.46 304.67,-15.43"/>
<polygon fill="midnightblue" stroke="midnightblue" points="304.93,-11.94 294.58,-14.22 304.1,-18.89 304.93,-11.94"/>
</g>
<!-- Node3 -->
<g id="node3" class="node">
<title>Node3</title>
<g id="a_node3"><a xlink:title=" ">
<polygon fill="none" stroke="#bfbfbf" points="211,-448.5 211,-467.5 264,-467.5 264,-448.5 211,-448.5"/>
<text text-anchor="middle" x="237.5" y="-455.5" font-family="Helvetica,sans-Serif" font-size="10.00">stdlib.h</text>
</a>
</g>
</g>
<!-- Node1&#45;&gt;Node3 -->
<g id="edge2" class="edge">
<title>Node1&#45;&gt;Node3</title>
<path fill="none" stroke="midnightblue" d="M297,-504.5C284.09,-494.63 268.68,-482.84 256.78,-473.74"/>
<polygon fill="midnightblue" stroke="midnightblue" points="258.88,-470.95 248.81,-467.65 254.63,-476.51 258.88,-470.95"/>
</g>
<!-- Node4 -->
<g id="node4" class="node">
<title>Node4</title>
<g id="a_node4"><a xlink:title=" ">
<polygon fill="none" stroke="#bfbfbf" points="82,-280.5 82,-299.5 137,-299.5 137,-280.5 82,-280.5"/>
<text text-anchor="middle" x="109.5" y="-287.5" font-family="Helvetica,sans-Serif" font-size="10.00">fstream</text>
</a>
</g>
</g>
<!-- Node1&#45;&gt;Node4 -->
<g id="edge3" class="edge">
<title>Node1&#45;&gt;Node4</title>
<path fill="none" stroke="midnightblue" d="M269.64,-504.44C247.82,-495.1 222.92,-482.72 202.5,-468 174.71,-447.96 167.08,-441.42 149.5,-412 129.62,-378.73 118.22,-334.34 113,-309.62"/>
<polygon fill="midnightblue" stroke="midnightblue" points="116.42,-308.88 111.03,-299.76 109.56,-310.25 116.42,-308.88"/>
</g>
<!-- Node5 -->
<g id="node5" class="node">
<title>Node5</title>
<g id="a_node5"><a xlink:title=" ">
<polygon fill="none" stroke="#bfbfbf" points="158.5,-392.5 158.5,-411.5 214.5,-411.5 214.5,-392.5 158.5,-392.5"/>
<text text-anchor="middle" x="186.5" y="-399.5" font-family="Helvetica,sans-Serif" font-size="10.00">unistd.h</text>
</a>
</g>
</g>
<!-- Node1&#45;&gt;Node5 -->
<g id="edge4" class="edge">
<title>Node1&#45;&gt;Node5</title>
<path fill="none" stroke="midnightblue" d="M313.39,-504.18C304.94,-487.52 291.04,-463.94 273.5,-448 258,-433.91 237.27,-422.96 219.94,-415.39"/>
<polygon fill="midnightblue" stroke="midnightblue" points="221.28,-412.16 210.71,-411.54 218.59,-418.62 221.28,-412.16"/>
</g>
<!-- Node6 -->
<g id="node6" class="node">
<title>Node6</title>
<g id="a_node6"><a xlink:href="drone_8hpp.html" target="_top" xlink:title="Plik zawiera definicję klasy reprezentujacej drona, budowanie i przemieszczanie go.">
<polygon fill="none" stroke="black" points="321,-448.5 321,-467.5 386,-467.5 386,-448.5 321,-448.5"/>
<text text-anchor="middle" x="353.5" y="-455.5" font-family="Helvetica,sans-Serif" font-size="10.00">drone.hpp</text>
</a>
</g>
</g>
<!-- Node1&#45;&gt;Node6 -->
<g id="edge5" class="edge">
<title>Node1&#45;&gt;Node6</title>
<path fill="none" stroke="midnightblue" d="M331.8,-504.5C336.01,-495.68 340.94,-485.34 345.04,-476.74"/>
<polygon fill="midnightblue" stroke="midnightblue" points="348.23,-478.19 349.37,-467.65 341.91,-475.17 348.23,-478.19"/>
</g>
<!-- Node24 -->
<g id="node24" class="node">
<title>Node24</title>
<g id="a_node24"><a xlink:href="lacze__do__gnuplota_8hpp.html" target="_top" xlink:title=" ">
<polygon fill="none" stroke="black" points="442.5,-392.5 442.5,-411.5 570.5,-411.5 570.5,-392.5 442.5,-392.5"/>
<text text-anchor="middle" x="506.5" y="-399.5" font-family="Helvetica,sans-Serif" font-size="10.00">lacze_do_gnuplota.hpp</text>
</a>
</g>
</g>
<!-- Node1&#45;&gt;Node24 -->
<g id="edge42" class="edge">
<title>Node1&#45;&gt;Node24</title>
<path fill="none" stroke="midnightblue" d="M352.47,-504.29C389.71,-479.81 452.31,-438.64 485.06,-417.1"/>
<polygon fill="midnightblue" stroke="midnightblue" points="487.03,-419.99 493.46,-411.57 483.18,-414.14 487.03,-419.99"/>
</g>
<!-- Node6&#45;&gt;Node5 -->
<g id="edge40" class="edge">
<title>Node6&#45;&gt;Node5</title>
<path fill="none" stroke="midnightblue" d="M327.04,-448.44C298.82,-439.32 253.96,-424.81 222.53,-414.65"/>
<polygon fill="midnightblue" stroke="midnightblue" points="223.43,-411.26 212.84,-411.52 221.28,-417.92 223.43,-411.26"/>
</g>
<!-- Node7 -->
<g id="node7" class="node">
<title>Node7</title>
<g id="a_node7"><a xlink:href="prism_8hpp.html" target="_top" xlink:title="Plik zawiera definicję klasy reprezentujacej graniastoslup o podstawie o 6 wierzcholkach w przestrzen...">
<polygon fill="none" stroke="black" points="321,-392.5 321,-411.5 386,-411.5 386,-392.5 321,-392.5"/>
<text text-anchor="middle" x="353.5" y="-399.5" font-family="Helvetica,sans-Serif" font-size="10.00">prism.hpp</text>
</a>
</g>
</g>
<!-- Node6&#45;&gt;Node7 -->
<g id="edge6" class="edge">
<title>Node6&#45;&gt;Node7</title>
<path fill="none" stroke="midnightblue" d="M353.5,-448.08C353.5,-441.01 353.5,-430.86 353.5,-421.99"/>
<polygon fill="midnightblue" stroke="midnightblue" points="357,-421.75 353.5,-411.75 350,-421.75 357,-421.75"/>
</g>
<!-- Node23 -->
<g id="node23" class="node">
<title>Node23</title>
<g id="a_node23"><a xlink:href="cuboid_8hpp.html" target="_top" xlink:title="Plik zawiera definicję klasy reprezentujacej prostopadloscian w przestrzeni trojwymiarowej.">
<polygon fill="none" stroke="black" points="232.5,-392.5 232.5,-411.5 302.5,-411.5 302.5,-392.5 232.5,-392.5"/>
<text text-anchor="middle" x="267.5" y="-399.5" font-family="Helvetica,sans-Serif" font-size="10.00">cuboid.hpp</text>
</a>
</g>
</g>
<!-- Node6&#45;&gt;Node23 -->
<g id="edge34" class="edge">
<title>Node6&#45;&gt;Node23</title>
<path fill="none" stroke="midnightblue" d="M339.68,-448.32C326.27,-439.9 305.68,-426.97 289.91,-417.07"/>
<polygon fill="midnightblue" stroke="midnightblue" points="291.61,-414.01 281.28,-411.65 287.89,-419.94 291.61,-414.01"/>
</g>
<!-- Node6&#45;&gt;Node24 -->
<g id="edge36" class="edge">
<title>Node6&#45;&gt;Node24</title>
<path fill="none" stroke="midnightblue" d="M377.74,-448.44C403.37,-439.4 443.99,-425.06 472.74,-414.92"/>
<polygon fill="midnightblue" stroke="midnightblue" points="474.11,-418.15 482.37,-411.52 471.78,-411.54 474.11,-418.15"/>
</g>
<!-- Node26 -->
<g id="node26" class="node">
<title>Node26</title>
<g id="a_node26"><a xlink:title=" ">
<polygon fill="none" stroke="#bfbfbf" points="407,-336.5 407,-355.5 454,-355.5 454,-336.5 407,-336.5"/>
<text text-anchor="middle" x="430.5" y="-343.5" font-family="Helvetica,sans-Serif" font-size="10.00">vector</text>
</a>
</g>
</g>
<!-- Node6&#45;&gt;Node26 -->
<g id="edge41" class="edge">
<title>Node6&#45;&gt;Node26</title>
<path fill="none" stroke="midnightblue" d="M362.92,-448.3C371.96,-439.64 385.66,-425.72 395.5,-412 406.22,-397.06 415.91,-378.46 422.37,-364.99"/>
<polygon fill="midnightblue" stroke="midnightblue" points="425.58,-366.37 426.63,-355.83 419.24,-363.42 425.58,-366.37"/>
</g>
<!-- Node8 -->
<g id="node8" class="node">
<title>Node8</title>
<g id="a_node8"><a xlink:href="block_8hpp.html" target="_top" xlink:title="Plik zawiera definicję klasy reprezentujacej bryle w przestrzeni trojwymiarowej.">
<polygon fill="none" stroke="black" points="251.5,-336.5 251.5,-355.5 315.5,-355.5 315.5,-336.5 251.5,-336.5"/>
<text text-anchor="middle" x="283.5" y="-343.5" font-family="Helvetica,sans-Serif" font-size="10.00">block.hpp</text>
</a>
</g>
</g>
<!-- Node7&#45;&gt;Node8 -->
<g id="edge7" class="edge">
<title>Node7&#45;&gt;Node8</title>
<path fill="none" stroke="midnightblue" d="M342.25,-392.32C331.7,-384.18 315.7,-371.84 303.06,-362.09"/>
<polygon fill="midnightblue" stroke="midnightblue" points="305.01,-359.17 294.95,-355.83 300.73,-364.71 305.01,-359.17"/>
</g>
<!-- Node8&#45;&gt;Node4 -->
<g id="edge9" class="edge">
<title>Node8&#45;&gt;Node4</title>
<path fill="none" stroke="midnightblue" d="M255.93,-336.44C226.4,-327.28 179.38,-312.69 146.62,-302.52"/>
<polygon fill="midnightblue" stroke="midnightblue" points="147.53,-299.14 136.94,-299.52 145.46,-305.82 147.53,-299.14"/>
</g>
<!-- Node9 -->
<g id="node9" class="node">
<title>Node9</title>
<g id="a_node9"><a xlink:title=" ">
<polygon fill="none" stroke="#bfbfbf" points="476.5,-280.5 476.5,-299.5 520.5,-299.5 520.5,-280.5 476.5,-280.5"/>
<text text-anchor="middle" x="498.5" y="-287.5" font-family="Helvetica,sans-Serif" font-size="10.00">string</text>
</a>
</g>
</g>
<!-- Node8&#45;&gt;Node9 -->
<g id="edge8" class="edge">
<title>Node8&#45;&gt;Node9</title>
<path fill="none" stroke="midnightblue" d="M315.52,-337.61C350.37,-329.46 407.96,-315.73 466.41,-300.21"/>
<polygon fill="midnightblue" stroke="midnightblue" points="467.42,-303.56 476.18,-297.6 465.62,-296.8 467.42,-303.56"/>
</g>
<!-- Node10 -->
<g id="node10" class="node">
<title>Node10</title>
<g id="a_node10"><a xlink:href="vector3_d_8hpp.html" target="_top" xlink:title=" ">
<polygon fill="none" stroke="black" points="487.5,-168.5 487.5,-187.5 569.5,-187.5 569.5,-168.5 487.5,-168.5"/>
<text text-anchor="middle" x="528.5" y="-175.5" font-family="Helvetica,sans-Serif" font-size="10.00">vector3D.hpp</text>
</a>
</g>
</g>
<!-- Node8&#45;&gt;Node10 -->
<g id="edge10" class="edge">
<title>Node8&#45;&gt;Node10</title>
<path fill="none" stroke="midnightblue" d="M290.18,-336.45C307.49,-314.78 356.17,-257.1 408.5,-224 432.11,-209.07 461.43,-197.96 485.18,-190.51"/>
<polygon fill="midnightblue" stroke="midnightblue" points="486.42,-193.79 494.98,-187.55 484.39,-187.09 486.42,-193.79"/>
</g>
<!-- Node11 -->
<g id="node11" class="node">
<title>Node11</title>
<g id="a_node11"><a xlink:href="vector_8hpp.html" target="_top" xlink:title=" ">
<polygon fill="none" stroke="black" points="193.5,-112.5 193.5,-131.5 261.5,-131.5 261.5,-112.5 193.5,-112.5"/>
<text text-anchor="middle" x="227.5" y="-119.5" font-family="Helvetica,sans-Serif" font-size="10.00">vector.hpp</text>
</a>
</g>
</g>
<!-- Node8&#45;&gt;Node11 -->
<g id="edge22" class="edge">
<title>Node8&#45;&gt;Node11</title>
<path fill="none" stroke="midnightblue" d="M278.65,-336.42C269.3,-319.39 248.85,-279.91 239.5,-244 230.31,-208.71 228.06,-165.96 227.57,-141.88"/>
<polygon fill="midnightblue" stroke="midnightblue" points="231.06,-141.63 227.44,-131.67 224.06,-141.71 231.06,-141.63"/>
</g>
<!-- Node14 -->
<g id="node14" class="node">
<title>Node14</title>
<g id="a_node14"><a xlink:href="count_8hpp.html" target="_top" xlink:title="Plik zawiera definicję klasy reprezentujacej counter, pozwalajacy na liczenie instancji stworzonych k...">
<polygon fill="none" stroke="black" points="12,-56.5 12,-75.5 77,-75.5 77,-56.5 12,-56.5"/>
<text text-anchor="middle" x="44.5" y="-63.5" font-family="Helvetica,sans-Serif" font-size="10.00">count.hpp</text>
</a>
</g>
</g>
<!-- Node8&#45;&gt;Node14 -->
<g id="edge21" class="edge">
<title>Node8&#45;&gt;Node14</title>
<path fill="none" stroke="midnightblue" d="M261.58,-336.39C227.46,-321.37 165.5,-286.95 165.5,-235 165.5,-235 165.5,-235 165.5,-177 165.5,-128.99 112.7,-96.41 76.86,-79.82"/>
<polygon fill="midnightblue" stroke="midnightblue" points="77.82,-76.42 67.26,-75.57 74.98,-82.82 77.82,-76.42"/>
</g>
<!-- Node18 -->
<g id="node18" class="node">
<title>Node18</title>
<g id="a_node18"><a xlink:href="matrix3_d_8hpp.html" target="_top" xlink:title=" ">
<polygon fill="none" stroke="black" points="375,-280.5 375,-299.5 458,-299.5 458,-280.5 375,-280.5"/>
<text text-anchor="middle" x="416.5" y="-287.5" font-family="Helvetica,sans-Serif" font-size="10.00">matrix3D.hpp</text>
</a>
</g>
</g>
<!-- Node8&#45;&gt;Node18 -->
<g id="edge23" class="edge">
<title>Node8&#45;&gt;Node18</title>
<path fill="none" stroke="midnightblue" d="M304.57,-336.44C326.56,-327.52 361.23,-313.44 386.16,-303.32"/>
<polygon fill="midnightblue" stroke="midnightblue" points="387.58,-306.52 395.52,-299.52 384.94,-300.04 387.58,-306.52"/>
</g>
<!-- Node19 -->
<g id="node19" class="node">
<title>Node19</title>
<g id="a_node19"><a xlink:href="matrix_8hpp.html" target="_top" xlink:title=" ">
<polygon fill="none" stroke="black" points="248.5,-224.5 248.5,-243.5 318.5,-243.5 318.5,-224.5 248.5,-224.5"/>
<text text-anchor="middle" x="283.5" y="-231.5" font-family="Helvetica,sans-Serif" font-size="10.00">matrix.hpp</text>
</a>
</g>
</g>
<!-- Node8&#45;&gt;Node19 -->
<g id="edge33" class="edge">
<title>Node8&#45;&gt;Node19</title>
<path fill="none" stroke="midnightblue" d="M283.5,-336.37C283.5,-318.62 283.5,-277.67 283.5,-253.6"/>
<polygon fill="midnightblue" stroke="midnightblue" points="287,-253.59 283.5,-243.59 280,-253.59 287,-253.59"/>
</g>
<!-- Node10&#45;&gt;Node11 -->
<g id="edge11" class="edge">
<title>Node10&#45;&gt;Node11</title>
<path fill="none" stroke="midnightblue" d="M487.3,-169.58C484.32,-169.05 481.36,-168.51 478.5,-168 405.94,-154.96 321.57,-139.85 271.46,-130.87"/>
<polygon fill="midnightblue" stroke="midnightblue" points="272.06,-127.42 261.6,-129.11 270.83,-134.31 272.06,-127.42"/>
</g>
<!-- Node17 -->
<g id="node17" class="node">
<title>Node17</title>
<g id="a_node17"><a xlink:href="vector3_d_8cpp.html" target="_top" xlink:title=" ">
<polygon fill="none" stroke="black" points="468,-112.5 468,-131.5 575,-131.5 575,-112.5 468,-112.5"/>
<text text-anchor="middle" x="521.5" y="-119.5" font-family="Helvetica,sans-Serif" font-size="10.00">../src/vector3D.cpp</text>
</a>
</g>
</g>
<!-- Node10&#45;&gt;Node17 -->
<g id="edge19" class="edge">
<title>Node10&#45;&gt;Node17</title>
<path fill="none" stroke="midnightblue" d="M522.18,-168.08C519.77,-161.01 518.01,-150.86 517.48,-141.99"/>
<polygon fill="midnightblue" stroke="midnightblue" points="520.98,-141.76 517.5,-131.75 513.98,-141.74 520.98,-141.76"/>
</g>
<!-- Node11&#45;&gt;Node2 -->
<g id="edge12" class="edge">
<title>Node11&#45;&gt;Node2</title>
<path fill="none" stroke="midnightblue" d="M193.27,-113.76C155.69,-104.18 103.33,-85.05 124.5,-56 147.09,-25 191.39,-14.89 224.13,-11.82"/>
<polygon fill="midnightblue" stroke="midnightblue" points="224.6,-15.3 234.31,-11.06 224.08,-8.32 224.6,-15.3"/>
</g>
<!-- Node12 -->
<g id="node12" class="node">
<title>Node12</title>
<g id="a_node12"><a xlink:title=" ">
<polygon fill="none" stroke="#bfbfbf" points="134,-56.5 134,-75.5 181,-75.5 181,-56.5 134,-56.5"/>
<text text-anchor="middle" x="157.5" y="-63.5" font-family="Helvetica,sans-Serif" font-size="10.00">cmath</text>
</a>
</g>
</g>
<!-- Node11&#45;&gt;Node12 -->
<g id="edge13" class="edge">
<title>Node11&#45;&gt;Node12</title>
<path fill="none" stroke="midnightblue" d="M216.25,-112.32C205.7,-104.18 189.7,-91.84 177.06,-82.09"/>
<polygon fill="midnightblue" stroke="midnightblue" points="179.01,-79.17 168.95,-75.83 174.73,-84.71 179.01,-79.17"/>
</g>
<!-- Node13 -->
<g id="node13" class="node">
<title>Node13</title>
<g id="a_node13"><a xlink:title=" ">
<polygon fill="none" stroke="#bfbfbf" points="199.5,-56.5 199.5,-75.5 255.5,-75.5 255.5,-56.5 199.5,-56.5"/>
<text text-anchor="middle" x="227.5" y="-63.5" font-family="Helvetica,sans-Serif" font-size="10.00">iomanip</text>
</a>
</g>
</g>
<!-- Node11&#45;&gt;Node13 -->
<g id="edge14" class="edge">
<title>Node11&#45;&gt;Node13</title>
<path fill="none" stroke="midnightblue" d="M227.5,-112.08C227.5,-105.01 227.5,-94.86 227.5,-85.99"/>
<polygon fill="midnightblue" stroke="midnightblue" points="231,-85.75 227.5,-75.75 224,-85.75 231,-85.75"/>
</g>
<!-- Node11&#45;&gt;Node14 -->
<g id="edge15" class="edge">
<title>Node11&#45;&gt;Node14</title>
<path fill="none" stroke="midnightblue" d="M198.5,-112.44C167.32,-103.24 117.57,-88.56 83.09,-78.39"/>
<polygon fill="midnightblue" stroke="midnightblue" points="83.94,-74.99 73.36,-75.52 81.96,-81.7 83.94,-74.99"/>
</g>
<!-- Node16 -->
<g id="node16" class="node">
<title>Node16</title>
<g id="a_node16"><a xlink:title=" ">
<polygon fill="none" stroke="#bfbfbf" points="273.5,-56.5 273.5,-75.5 365.5,-75.5 365.5,-56.5 273.5,-56.5"/>
<text text-anchor="middle" x="319.5" y="-63.5" font-family="Helvetica,sans-Serif" font-size="10.00">../src/vector.tpp</text>
</a>
</g>
</g>
<!-- Node11&#45;&gt;Node16 -->
<g id="edge18" class="edge">
<title>Node11&#45;&gt;Node16</title>
<path fill="none" stroke="midnightblue" d="M242.28,-112.32C256.77,-103.82 279.07,-90.73 295.99,-80.8"/>
<polygon fill="midnightblue" stroke="midnightblue" points="297.9,-83.74 304.76,-75.65 294.36,-77.7 297.9,-83.74"/>
</g>
<!-- Node14&#45;&gt;Node2 -->
<g id="edge16" class="edge">
<title>Node14&#45;&gt;Node2</title>
<path fill="none" stroke="midnightblue" d="M77.44,-56.92C116.64,-47.29 182.08,-31.23 224.25,-20.88"/>
<polygon fill="midnightblue" stroke="midnightblue" points="225.3,-24.23 234.18,-18.44 223.63,-17.43 225.3,-24.23"/>
</g>
<!-- Node15 -->
<g id="node15" class="node">
<title>Node15</title>
<g id="a_node15"><a xlink:title=" ">
<polygon fill="none" stroke="#bfbfbf" points="0,-0.5 0,-19.5 89,-19.5 89,-0.5 0,-0.5"/>
<text text-anchor="middle" x="44.5" y="-7.5" font-family="Helvetica,sans-Serif" font-size="10.00">../src/count.tpp</text>
</a>
</g>
</g>
<!-- Node14&#45;&gt;Node15 -->
<g id="edge17" class="edge">
<title>Node14&#45;&gt;Node15</title>
<path fill="none" stroke="midnightblue" d="M44.5,-56.08C44.5,-49.01 44.5,-38.86 44.5,-29.99"/>
<polygon fill="midnightblue" stroke="midnightblue" points="48,-29.75 44.5,-19.75 41,-29.75 48,-29.75"/>
</g>
<!-- Node17&#45;&gt;Node10 -->
<g id="edge20" class="edge">
<title>Node17&#45;&gt;Node10</title>
<path fill="none" stroke="midnightblue" d="M527.77,-131.75C530.19,-138.78 531.95,-148.91 532.5,-157.8"/>
<polygon fill="midnightblue" stroke="midnightblue" points="529,-158.09 532.51,-168.08 536,-158.08 529,-158.09"/>
</g>
<!-- Node18&#45;&gt;Node10 -->
<g id="edge30" class="edge">
<title>Node18&#45;&gt;Node10</title>
<path fill="none" stroke="midnightblue" d="M414.41,-280.49C411.65,-267.11 408.43,-240.95 420.5,-224 428.92,-212.17 461.61,-199.52 488.84,-190.66"/>
<polygon fill="midnightblue" stroke="midnightblue" points="490.1,-193.93 498.57,-187.57 487.98,-187.26 490.1,-193.93"/>
</g>
<!-- Node18&#45;&gt;Node19 -->
<g id="edge24" class="edge">
<title>Node18&#45;&gt;Node19</title>
<path fill="none" stroke="midnightblue" d="M395.43,-280.44C373.44,-271.52 338.77,-257.44 313.84,-247.32"/>
<polygon fill="midnightblue" stroke="midnightblue" points="315.06,-244.04 304.48,-243.52 312.42,-250.52 315.06,-244.04"/>
</g>
<!-- Node22 -->
<g id="node22" class="node">
<title>Node22</title>
<g id="a_node22"><a xlink:href="matrix3_d_8cpp.html" target="_top" xlink:title=" ">
<polygon fill="none" stroke="black" points="429,-224.5 429,-243.5 538,-243.5 538,-224.5 429,-224.5"/>
<text text-anchor="middle" x="483.5" y="-231.5" font-family="Helvetica,sans-Serif" font-size="10.00">../src/matrix3D.cpp</text>
</a>
</g>
</g>
<!-- Node18&#45;&gt;Node22 -->
<g id="edge31" class="edge">
<title>Node18&#45;&gt;Node22</title>
<path fill="none" stroke="midnightblue" d="M422.15,-280.32C430.62,-272.06 445.94,-259.45 459.27,-249.63"/>
<polygon fill="midnightblue" stroke="midnightblue" points="461.54,-252.31 467.65,-243.65 457.48,-246.61 461.54,-252.31"/>
</g>
<!-- Node19&#45;&gt;Node2 -->
<g id="edge27" class="edge">
<title>Node19&#45;&gt;Node2</title>
<path fill="none" stroke="midnightblue" d="M284.42,-224.16C286.05,-211.25 290.16,-186.72 299.5,-168 326.24,-114.39 407.89,-105.74 374.5,-56 358.93,-32.81 329.08,-21.57 304.39,-16.11"/>
<polygon fill="midnightblue" stroke="midnightblue" points="305.03,-12.67 294.54,-14.17 303.67,-19.54 305.03,-12.67"/>
</g>
<!-- Node19&#45;&gt;Node10 -->
<g id="edge26" class="edge">
<title>Node19&#45;&gt;Node10</title>
<path fill="none" stroke="midnightblue" d="M318.6,-225.26C360.97,-215.92 432.45,-200.17 480.05,-189.68"/>
<polygon fill="midnightblue" stroke="midnightblue" points="480.81,-193.09 489.82,-187.52 479.31,-186.26 480.81,-193.09"/>
</g>
<!-- Node19&#45;&gt;Node11 -->
<g id="edge25" class="edge">
<title>Node19&#45;&gt;Node11</title>
<path fill="none" stroke="midnightblue" d="M279.11,-224.37C269.95,-206.38 248.65,-164.55 236.47,-140.63"/>
<polygon fill="midnightblue" stroke="midnightblue" points="239.53,-138.92 231.87,-131.59 233.29,-142.09 239.53,-138.92"/>
</g>
<!-- Node20 -->
<g id="node20" class="node">
<title>Node20</title>
<g id="a_node20"><a xlink:title=" ">
<polygon fill="none" stroke="#bfbfbf" points="308,-168.5 308,-187.5 357,-187.5 357,-168.5 308,-168.5"/>
<text text-anchor="middle" x="332.5" y="-175.5" font-family="Helvetica,sans-Serif" font-size="10.00">cstdlib</text>
</a>
</g>
</g>
<!-- Node19&#45;&gt;Node20 -->
<g id="edge28" class="edge">
<title>Node19&#45;&gt;Node20</title>
<path fill="none" stroke="midnightblue" d="M291.59,-224.08C298.66,-216.3 309.09,-204.8 317.65,-195.37"/>
<polygon fill="midnightblue" stroke="midnightblue" points="320.43,-197.51 324.56,-187.75 315.25,-192.8 320.43,-197.51"/>
</g>
<!-- Node21 -->
<g id="node21" class="node">
<title>Node21</title>
<g id="a_node21"><a xlink:title=" ">
<polygon fill="none" stroke="#bfbfbf" points="375.5,-168.5 375.5,-187.5 469.5,-187.5 469.5,-168.5 375.5,-168.5"/>
<text text-anchor="middle" x="422.5" y="-175.5" font-family="Helvetica,sans-Serif" font-size="10.00">../src/matrix.tpp</text>
</a>
</g>
</g>
<!-- Node19&#45;&gt;Node21 -->
<g id="edge29" class="edge">
<title>Node19&#45;&gt;Node21</title>
<path fill="none" stroke="midnightblue" d="M305.52,-224.44C328.6,-215.48 365.06,-201.31 391.14,-191.18"/>
<polygon fill="midnightblue" stroke="midnightblue" points="392.52,-194.4 400.58,-187.52 389.99,-187.88 392.52,-194.4"/>
</g>
<!-- Node22&#45;&gt;Node18 -->
<g id="edge32" class="edge">
<title>Node22&#45;&gt;Node18</title>
<path fill="none" stroke="midnightblue" d="M477.69,-243.83C469.19,-252.11 453.97,-264.62 440.71,-274.38"/>
<polygon fill="midnightblue" stroke="midnightblue" points="438.49,-271.67 432.38,-280.32 442.55,-277.37 438.49,-271.67"/>
</g>
<!-- Node23&#45;&gt;Node8 -->
<g id="edge35" class="edge">
<title>Node23&#45;&gt;Node8</title>
<path fill="none" stroke="midnightblue" d="M270.14,-392.08C272.29,-384.85 275.38,-374.41 278.05,-365.4"/>
<polygon fill="midnightblue" stroke="midnightblue" points="281.42,-366.33 280.91,-355.75 274.71,-364.34 281.42,-366.33"/>
</g>
<!-- Node24&#45;&gt;Node9 -->
<g id="edge37" class="edge">
<title>Node24&#45;&gt;Node9</title>
<path fill="none" stroke="midnightblue" d="M505.87,-392.37C504.58,-374.62 501.6,-333.67 499.85,-309.6"/>
<polygon fill="midnightblue" stroke="midnightblue" points="503.34,-309.31 499.12,-299.59 496.36,-309.82 503.34,-309.31"/>
</g>
<!-- Node25 -->
<g id="node25" class="node">
<title>Node25</title>
<g id="a_node25"><a xlink:title=" ">
<polygon fill="none" stroke="#bfbfbf" points="526.5,-336.5 526.5,-355.5 558.5,-355.5 558.5,-336.5 526.5,-336.5"/>
<text text-anchor="middle" x="542.5" y="-343.5" font-family="Helvetica,sans-Serif" font-size="10.00">list</text>
</a>
</g>
</g>
<!-- Node24&#45;&gt;Node25 -->
<g id="edge38" class="edge">
<title>Node24&#45;&gt;Node25</title>
<path fill="none" stroke="midnightblue" d="M512.44,-392.08C517.48,-384.53 524.84,-373.49 531.01,-364.23"/>
<polygon fill="midnightblue" stroke="midnightblue" points="534.03,-366.01 536.67,-355.75 528.21,-362.13 534.03,-366.01"/>
</g>
<!-- Node24&#45;&gt;Node26 -->
<g id="edge39" class="edge">
<title>Node24&#45;&gt;Node26</title>
<path fill="none" stroke="midnightblue" d="M494.29,-392.32C482.72,-384.11 465.12,-371.6 451.34,-361.81"/>
<polygon fill="midnightblue" stroke="midnightblue" points="453.11,-358.77 442.93,-355.83 449.06,-364.48 453.11,-358.77"/>
</g>
</g>
</svg>
        <g id="navigator" transform="translate(0 0)" fill="#404254">
                <rect fill="#f2f5e9" fill-opacity="0.5" stroke="#606060" stroke-width=".5" x="0" y="0" width="60" height="60"/>
                <use id="zoomplus" xlink:href="#zoomPlus" x="17" y="9" onmousedown="handleZoom(evt,'in')"/>
                <use id="zoomminus" xlink:href="#zoomMin" x="42" y="9" onmousedown="handleZoom(evt,'out')"/>
                <use id="reset" xlink:href="#resetDef" x="30" y="36" onmousedown="handleReset()"/>
                <g id="arrowUp" xlink:href="#dirArrow" transform="translate(30 24)" onmousedown="handlePan(0,-1)">
                  <use xlink:href="#rim" fill="#404040">
                        <set attributeName="fill" to="#808080" begin="arrowUp.mouseover" end="arrowUp.mouseout"/>
                  </use>
                  <path fill="none" stroke="white" stroke-width="1.5" d="M0,-3.0v7 M-2.5,-0.5L0,-3.0L2.5,-0.5"/>
                </g>
                <g id="arrowRight" xlink:href="#dirArrow" transform="rotate(90) translate(36 -43)" onmousedown="handlePan(1,0)">
                  <use xlink:href="#rim" fill="#404040">
                        <set attributeName="fill" to="#808080" begin="arrowRight.mouseover" end="arrowRight.mouseout"/>
                  </use>
                  <path fill="none" stroke="white" stroke-width="1.5" d="M0,-3.0v7 M-2.5,-0.5L0,-3.0L2.5,-0.5"/>
                </g>
                <g id="arrowDown" xlink:href="#dirArrow" transform="rotate(180) translate(-30 -48)" onmousedown="handlePan(0,1)">
                  <use xlink:href="#rim" fill="#404040">
                        <set attributeName="fill" to="#808080" begin="arrowDown.mouseover" end="arrowDown.mouseout"/>
                  </use>
                  <path fill="none" stroke="white" stroke-width="1.5" d="M0,-3.0v7 M-2.5,-0.5L0,-3.0L2.5,-0.5"/>
                </g>
                <g id="arrowLeft" xlink:href="#dirArrow" transform="rotate(270) translate(-36 17)" onmousedown="handlePan(-1,0)">
                  <use xlink:href="#rim" fill="#404040">
                        <set attributeName="fill" to="#808080" begin="arrowLeft.mouseover" end="arrowLeft.mouseout"/>
                  </use>
                  <path fill="none" stroke="white" stroke-width="1.5" d="M0,-3.0v7 M-2.5,-0.5L0,-3.0L2.5,-0.5"/>
                </g>
        </g>
        <svg viewBox="0 0 15 15" width="100%" height="30px" preserveAspectRatio="xMaxYMin meet">
         <g id="arrow_out" transform="scale(0.3 0.3)">
          <a xlink:href="scene_8hpp__incl_org.svg" target="_base">
           <rect id="button" ry="5" rx="5" y="6" x="6" height="38" width="38"
                fill="#f2f5e9" fill-opacity="0.5" stroke="#606060" stroke-width="1.0"/>
           <path id="arrow"
             d="M 11.500037,31.436501 C 11.940474,20.09759 22.043105,11.32322 32.158766,21.979434 L 37.068811,17.246167 C 37.068811,17.246167 37.088388,32 37.088388,32 L 22.160133,31.978069 C 22.160133,31.978069 26.997745,27.140456 26.997745,27.140456 C 18.528582,18.264221 13.291696,25.230495 11.500037,31.436501 z"
             style="fill:#404040;"/>
          </a>
         </g>
        </svg>
</svg>
