<?xml version="1.0" encoding="UTF-8" standalone="no"?>
<!DOCTYPE svg PUBLIC "-//W3C//DTD SVG 1.1//EN"
 "http://www.w3.org/Graphics/SVG/1.1/DTD/svg11.dtd">
<!-- Generated by graphviz version 2.43.0 (0)
 -->
<!-- Title: /home/krzysztof/PO/zad5_1&#45;kgliwinski/include/vector3D.hpp Pages: 1 -->
<svg width="1005pt" height="674pt"
 viewBox="0.00 0.00 1005.00 674.00" xmlns="http://www.w3.org/2000/svg" xmlns:xlink="http://www.w3.org/1999/xlink">
<g id="graph0" class="graph" transform="scale(1 1) rotate(0) translate(4 670)">
<title>/home/krzysztof/PO/zad5_1&#45;kgliwinski/include/vector3D.hpp</title>
<!-- Node1 -->
<g id="node1" class="node">
<title>Node1</title>
<g id="a_node1"><a xlink:title=" ">
<polygon fill="#bfbfbf" stroke="black" points="327,-624.5 327,-665.5 473,-665.5 473,-624.5 327,-624.5"/>
<text text-anchor="start" x="335" y="-653.5" font-family="Helvetica,sans-Serif" font-size="10.00">/home/krzysztof/PO</text>
<text text-anchor="start" x="335" y="-642.5" font-family="Helvetica,sans-Serif" font-size="10.00">/zad5_1&#45;kgliwinski/include</text>
<text text-anchor="middle" x="400" y="-631.5" font-family="Helvetica,sans-Serif" font-size="10.00">/vector3D.hpp</text>
</a>
</g>
</g>
<!-- Node2 -->
<g id="node2" class="node">
<title>Node2</title>
<g id="a_node2"><a xlink:href="block_8hpp.html" target="_top" xlink:title="Plik zawiera definicję klasy reprezentujacej bryle w przestrzeni trojwymiarowej.">
<polygon fill="none" stroke="black" points="236,-390.5 236,-431.5 382,-431.5 382,-390.5 236,-390.5"/>
<text text-anchor="start" x="244" y="-419.5" font-family="Helvetica,sans-Serif" font-size="10.00">/home/krzysztof/PO</text>
<text text-anchor="start" x="244" y="-408.5" font-family="Helvetica,sans-Serif" font-size="10.00">/zad5_1&#45;kgliwinski/include</text>
<text text-anchor="middle" x="309" y="-397.5" font-family="Helvetica,sans-Serif" font-size="10.00">/block.hpp</text>
</a>
</g>
</g>
<!-- Node1&#45;&gt;Node2 -->
<g id="edge1" class="edge">
<title>Node1&#45;&gt;Node2</title>
<path fill="none" stroke="midnightblue" d="M355.71,-618.47C344.95,-610.13 334.64,-599.9 328,-588 299.79,-537.4 302.82,-465.89 306.38,-431.7"/>
<polygon fill="midnightblue" stroke="midnightblue" points="353.83,-621.43 363.98,-624.47 357.95,-615.76 353.83,-621.43"/>
</g>
<!-- Node14 -->
<g id="node14" class="node">
<title>Node14</title>
<g id="a_node14"><a xlink:href="vector3_d_8cpp.html" target="_top" xlink:title=" ">
<polygon fill="none" stroke="black" points="337.5,-546.5 337.5,-587.5 462.5,-587.5 462.5,-546.5 337.5,-546.5"/>
<text text-anchor="start" x="345.5" y="-575.5" font-family="Helvetica,sans-Serif" font-size="10.00">/home/krzysztof/PO</text>
<text text-anchor="start" x="345.5" y="-564.5" font-family="Helvetica,sans-Serif" font-size="10.00">/zad5_1&#45;kgliwinski/src</text>
<text text-anchor="middle" x="400" y="-553.5" font-family="Helvetica,sans-Serif" font-size="10.00">/vector3D.cpp</text>
</a>
</g>
</g>
<!-- Node1&#45;&gt;Node14 -->
<g id="edge14" class="edge">
<title>Node1&#45;&gt;Node14</title>
<path fill="none" stroke="midnightblue" d="M393.4,-614.3C393.08,-605.3 393.28,-595.65 394.02,-587.51"/>
<polygon fill="midnightblue" stroke="midnightblue" points="389.91,-614.66 394.01,-624.43 396.9,-614.23 389.91,-614.66"/>
</g>
<!-- Node15 -->
<g id="node15" class="node">
<title>Node15</title>
<g id="a_node15"><a xlink:href="matrix_8hpp.html" target="_top" xlink:title=" ">
<polygon fill="none" stroke="black" points="537,-546.5 537,-587.5 683,-587.5 683,-546.5 537,-546.5"/>
<text text-anchor="start" x="545" y="-575.5" font-family="Helvetica,sans-Serif" font-size="10.00">/home/krzysztof/PO</text>
<text text-anchor="start" x="545" y="-564.5" font-family="Helvetica,sans-Serif" font-size="10.00">/zad5_1&#45;kgliwinski/include</text>
<text text-anchor="middle" x="610" y="-553.5" font-family="Helvetica,sans-Serif" font-size="10.00">/matrix.hpp</text>
</a>
</g>
</g>
<!-- Node1&#45;&gt;Node15 -->
<g id="edge16" class="edge">
<title>Node1&#45;&gt;Node15</title>
<path fill="none" stroke="midnightblue" d="M463.86,-620.89C493.34,-610.22 527.96,-597.69 556.1,-587.51"/>
<polygon fill="midnightblue" stroke="midnightblue" points="462.29,-617.73 454.08,-624.43 464.67,-624.32 462.29,-617.73"/>
</g>
<!-- Node16 -->
<g id="node16" class="node">
<title>Node16</title>
<g id="a_node16"><a xlink:href="matrix3_d_8hpp.html" target="_top" xlink:title=" ">
<polygon fill="none" stroke="black" points="390,-468.5 390,-509.5 536,-509.5 536,-468.5 390,-468.5"/>
<text text-anchor="start" x="398" y="-497.5" font-family="Helvetica,sans-Serif" font-size="10.00">/home/krzysztof/PO</text>
<text text-anchor="start" x="398" y="-486.5" font-family="Helvetica,sans-Serif" font-size="10.00">/zad5_1&#45;kgliwinski/include</text>
<text text-anchor="middle" x="463" y="-475.5" font-family="Helvetica,sans-Serif" font-size="10.00">/matrix3D.hpp</text>
</a>
</g>
</g>
<!-- Node1&#45;&gt;Node16 -->
<g id="edge28" class="edge">
<title>Node1&#45;&gt;Node16</title>
<path fill="none" stroke="midnightblue" d="M445.42,-618.09C455.71,-609.89 465.27,-599.82 471,-588 483.07,-563.12 476.66,-530.48 470.32,-509.87"/>
<polygon fill="midnightblue" stroke="midnightblue" points="443.04,-615.51 437.08,-624.27 447.2,-621.13 443.04,-615.51"/>
</g>
<!-- Node3 -->
<g id="node3" class="node">
<title>Node3</title>
<g id="a_node3"><a xlink:href="cuboid_8hpp.html" target="_top" xlink:title="Plik zawiera definicję klasy reprezentujacej prostopadloscian w przestrzeni trojwymiarowej.">
<polygon fill="none" stroke="black" points="72,-312.5 72,-353.5 218,-353.5 218,-312.5 72,-312.5"/>
<text text-anchor="start" x="80" y="-341.5" font-family="Helvetica,sans-Serif" font-size="10.00">/home/krzysztof/PO</text>
<text text-anchor="start" x="80" y="-330.5" font-family="Helvetica,sans-Serif" font-size="10.00">/zad5_1&#45;kgliwinski/include</text>
<text text-anchor="middle" x="145" y="-319.5" font-family="Helvetica,sans-Serif" font-size="10.00">/cuboid.hpp</text>
</a>
</g>
</g>
<!-- Node2&#45;&gt;Node3 -->
<g id="edge2" class="edge">
<title>Node2&#45;&gt;Node3</title>
<path fill="none" stroke="midnightblue" d="M257.62,-386.19C234.93,-375.67 208.59,-363.47 187.09,-353.51"/>
<polygon fill="midnightblue" stroke="midnightblue" points="256.22,-389.4 266.77,-390.43 259.16,-383.05 256.22,-389.4"/>
</g>
<!-- Node11 -->
<g id="node11" class="node">
<title>Node11</title>
<g id="a_node11"><a xlink:href="prism_8hpp.html" target="_top" xlink:title="Plik zawiera definicję klasy reprezentujacej graniastoslup o podstawie o 6 wierzcholkach w przestrzen...">
<polygon fill="none" stroke="black" points="236,-312.5 236,-353.5 382,-353.5 382,-312.5 236,-312.5"/>
<text text-anchor="start" x="244" y="-341.5" font-family="Helvetica,sans-Serif" font-size="10.00">/home/krzysztof/PO</text>
<text text-anchor="start" x="244" y="-330.5" font-family="Helvetica,sans-Serif" font-size="10.00">/zad5_1&#45;kgliwinski/include</text>
<text text-anchor="middle" x="309" y="-319.5" font-family="Helvetica,sans-Serif" font-size="10.00">/prism.hpp</text>
</a>
</g>
</g>
<!-- Node2&#45;&gt;Node11 -->
<g id="edge10" class="edge">
<title>Node2&#45;&gt;Node11</title>
<path fill="none" stroke="midnightblue" d="M309,-380.3C309,-371.3 309,-361.65 309,-353.51"/>
<polygon fill="midnightblue" stroke="midnightblue" points="305.5,-380.43 309,-390.43 312.5,-380.43 305.5,-380.43"/>
</g>
<!-- Node13 -->
<g id="node13" class="node">
<title>Node13</title>
<g id="a_node13"><a xlink:href="block_8cpp.html" target="_top" xlink:title=" ">
<polygon fill="none" stroke="black" points="400.5,-312.5 400.5,-353.5 525.5,-353.5 525.5,-312.5 400.5,-312.5"/>
<text text-anchor="start" x="408.5" y="-341.5" font-family="Helvetica,sans-Serif" font-size="10.00">/home/krzysztof/PO</text>
<text text-anchor="start" x="408.5" y="-330.5" font-family="Helvetica,sans-Serif" font-size="10.00">/zad5_1&#45;kgliwinski/src</text>
<text text-anchor="middle" x="463" y="-319.5" font-family="Helvetica,sans-Serif" font-size="10.00">/block.cpp</text>
</a>
</g>
</g>
<!-- Node2&#45;&gt;Node13 -->
<g id="edge13" class="edge">
<title>Node2&#45;&gt;Node13</title>
<path fill="none" stroke="midnightblue" d="M357.82,-385.91C378.99,-375.46 403.47,-363.38 423.48,-353.51"/>
<polygon fill="midnightblue" stroke="midnightblue" points="356.08,-382.86 348.66,-390.43 359.18,-389.14 356.08,-382.86"/>
</g>
<!-- Node4 -->
<g id="node4" class="node">
<title>Node4</title>
<g id="a_node4"><a xlink:href="drone_8hpp.html" target="_top" xlink:title="Plik zawiera definicję klasy reprezentujacej drona, budowanie i przemieszczanie go.">
<polygon fill="none" stroke="black" points="154,-234.5 154,-275.5 300,-275.5 300,-234.5 154,-234.5"/>
<text text-anchor="start" x="162" y="-263.5" font-family="Helvetica,sans-Serif" font-size="10.00">/home/krzysztof/PO</text>
<text text-anchor="start" x="162" y="-252.5" font-family="Helvetica,sans-Serif" font-size="10.00">/zad5_1&#45;kgliwinski/include</text>
<text text-anchor="middle" x="227" y="-241.5" font-family="Helvetica,sans-Serif" font-size="10.00">/drone.hpp</text>
</a>
</g>
</g>
<!-- Node3&#45;&gt;Node4 -->
<g id="edge3" class="edge">
<title>Node3&#45;&gt;Node4</title>
<path fill="none" stroke="midnightblue" d="M173.6,-305.49C184.24,-295.63 196.11,-284.63 205.95,-275.51"/>
<polygon fill="midnightblue" stroke="midnightblue" points="171.07,-303.06 166.12,-312.43 175.83,-308.2 171.07,-303.06"/>
</g>
<!-- Node10 -->
<g id="node10" class="node">
<title>Node10</title>
<g id="a_node10"><a xlink:href="cuboid_8cpp.html" target="_top" xlink:title=" ">
<polygon fill="none" stroke="black" points="10.5,-234.5 10.5,-275.5 135.5,-275.5 135.5,-234.5 10.5,-234.5"/>
<text text-anchor="start" x="18.5" y="-263.5" font-family="Helvetica,sans-Serif" font-size="10.00">/home/krzysztof/PO</text>
<text text-anchor="start" x="18.5" y="-252.5" font-family="Helvetica,sans-Serif" font-size="10.00">/zad5_1&#45;kgliwinski/src</text>
<text text-anchor="middle" x="73" y="-241.5" font-family="Helvetica,sans-Serif" font-size="10.00">/cuboid.cpp</text>
</a>
</g>
</g>
<!-- Node3&#45;&gt;Node10 -->
<g id="edge9" class="edge">
<title>Node3&#45;&gt;Node10</title>
<path fill="none" stroke="midnightblue" d="M119.34,-304.92C110.14,-295.2 99.95,-284.45 91.48,-275.51"/>
<polygon fill="midnightblue" stroke="midnightblue" points="117.04,-307.58 126.46,-312.43 122.12,-302.76 117.04,-307.58"/>
</g>
<!-- Node5 -->
<g id="node5" class="node">
<title>Node5</title>
<g id="a_node5"><a xlink:href="scene_8hpp.html" target="_top" xlink:title="Plik zawiera definicję klasy reprezentujacej scene, obslugujacej zapis do plikow i wytswietlanie w gn...">
<polygon fill="none" stroke="black" points="77,-156.5 77,-197.5 223,-197.5 223,-156.5 77,-156.5"/>
<text text-anchor="start" x="85" y="-185.5" font-family="Helvetica,sans-Serif" font-size="10.00">/home/krzysztof/PO</text>
<text text-anchor="start" x="85" y="-174.5" font-family="Helvetica,sans-Serif" font-size="10.00">/zad5_1&#45;kgliwinski/include</text>
<text text-anchor="middle" x="150" y="-163.5" font-family="Helvetica,sans-Serif" font-size="10.00">/scene.hpp</text>
</a>
</g>
</g>
<!-- Node4&#45;&gt;Node5 -->
<g id="edge4" class="edge">
<title>Node4&#45;&gt;Node5</title>
<path fill="none" stroke="midnightblue" d="M199.85,-227.2C189.93,-217.42 178.91,-206.54 169.76,-197.51"/>
<polygon fill="midnightblue" stroke="midnightblue" points="197.59,-229.89 207.17,-234.43 202.51,-224.91 197.59,-229.89"/>
</g>
<!-- Node9 -->
<g id="node9" class="node">
<title>Node9</title>
<g id="a_node9"><a xlink:href="drone_8cpp.html" target="_top" xlink:title=" ">
<polygon fill="none" stroke="black" points="241.5,-156.5 241.5,-197.5 366.5,-197.5 366.5,-156.5 241.5,-156.5"/>
<text text-anchor="start" x="249.5" y="-185.5" font-family="Helvetica,sans-Serif" font-size="10.00">/home/krzysztof/PO</text>
<text text-anchor="start" x="249.5" y="-174.5" font-family="Helvetica,sans-Serif" font-size="10.00">/zad5_1&#45;kgliwinski/src</text>
<text text-anchor="middle" x="304" y="-163.5" font-family="Helvetica,sans-Serif" font-size="10.00">/drone.cpp</text>
</a>
</g>
</g>
<!-- Node4&#45;&gt;Node9 -->
<g id="edge8" class="edge">
<title>Node4&#45;&gt;Node9</title>
<path fill="none" stroke="midnightblue" d="M254.15,-227.2C264.07,-217.42 275.09,-206.54 284.24,-197.51"/>
<polygon fill="midnightblue" stroke="midnightblue" points="251.49,-224.91 246.83,-234.43 256.41,-229.89 251.49,-224.91"/>
</g>
<!-- Node6 -->
<g id="node6" class="node">
<title>Node6</title>
<g id="a_node6"><a xlink:href="menu_8hpp.html" target="_top" xlink:title="Plik zawiera definicję klasy reprezentujacej menu, obslugujace menu programu.">
<polygon fill="none" stroke="black" points="0,-78.5 0,-119.5 146,-119.5 146,-78.5 0,-78.5"/>
<text text-anchor="start" x="8" y="-107.5" font-family="Helvetica,sans-Serif" font-size="10.00">/home/krzysztof/PO</text>
<text text-anchor="start" x="8" y="-96.5" font-family="Helvetica,sans-Serif" font-size="10.00">/zad5_1&#45;kgliwinski/include</text>
<text text-anchor="middle" x="73" y="-85.5" font-family="Helvetica,sans-Serif" font-size="10.00">/menu.hpp</text>
</a>
</g>
</g>
<!-- Node5&#45;&gt;Node6 -->
<g id="edge5" class="edge">
<title>Node5&#45;&gt;Node6</title>
<path fill="none" stroke="midnightblue" d="M122.85,-149.2C112.93,-139.42 101.91,-128.54 92.76,-119.51"/>
<polygon fill="midnightblue" stroke="midnightblue" points="120.59,-151.89 130.17,-156.43 125.51,-146.91 120.59,-151.89"/>
</g>
<!-- Node8 -->
<g id="node8" class="node">
<title>Node8</title>
<g id="a_node8"><a xlink:href="scene_8cpp.html" target="_top" xlink:title=" ">
<polygon fill="none" stroke="black" points="164.5,-78.5 164.5,-119.5 289.5,-119.5 289.5,-78.5 164.5,-78.5"/>
<text text-anchor="start" x="172.5" y="-107.5" font-family="Helvetica,sans-Serif" font-size="10.00">/home/krzysztof/PO</text>
<text text-anchor="start" x="172.5" y="-96.5" font-family="Helvetica,sans-Serif" font-size="10.00">/zad5_1&#45;kgliwinski/src</text>
<text text-anchor="middle" x="227" y="-85.5" font-family="Helvetica,sans-Serif" font-size="10.00">/scene.cpp</text>
</a>
</g>
</g>
<!-- Node5&#45;&gt;Node8 -->
<g id="edge7" class="edge">
<title>Node5&#45;&gt;Node8</title>
<path fill="none" stroke="midnightblue" d="M177.15,-149.2C187.07,-139.42 198.09,-128.54 207.24,-119.51"/>
<polygon fill="midnightblue" stroke="midnightblue" points="174.49,-146.91 169.83,-156.43 179.41,-151.89 174.49,-146.91"/>
</g>
<!-- Node7 -->
<g id="node7" class="node">
<title>Node7</title>
<g id="a_node7"><a xlink:href="menu_8cpp.html" target="_top" xlink:title=" ">
<polygon fill="none" stroke="black" points="10.5,-0.5 10.5,-41.5 135.5,-41.5 135.5,-0.5 10.5,-0.5"/>
<text text-anchor="start" x="18.5" y="-29.5" font-family="Helvetica,sans-Serif" font-size="10.00">/home/krzysztof/PO</text>
<text text-anchor="start" x="18.5" y="-18.5" font-family="Helvetica,sans-Serif" font-size="10.00">/zad5_1&#45;kgliwinski/src</text>
<text text-anchor="middle" x="73" y="-7.5" font-family="Helvetica,sans-Serif" font-size="10.00">/menu.cpp</text>
</a>
</g>
</g>
<!-- Node6&#45;&gt;Node7 -->
<g id="edge6" class="edge">
<title>Node6&#45;&gt;Node7</title>
<path fill="none" stroke="midnightblue" d="M73,-68.3C73,-59.3 73,-49.65 73,-41.51"/>
<polygon fill="midnightblue" stroke="midnightblue" points="69.5,-68.43 73,-78.43 76.5,-68.43 69.5,-68.43"/>
</g>
<!-- Node11&#45;&gt;Node4 -->
<g id="edge11" class="edge">
<title>Node11&#45;&gt;Node4</title>
<path fill="none" stroke="midnightblue" d="M280.4,-305.49C269.76,-295.63 257.89,-284.63 248.05,-275.51"/>
<polygon fill="midnightblue" stroke="midnightblue" points="278.17,-308.2 287.88,-312.43 282.93,-303.06 278.17,-308.2"/>
</g>
<!-- Node12 -->
<g id="node12" class="node">
<title>Node12</title>
<g id="a_node12"><a xlink:href="prism_8cpp.html" target="_top" xlink:title=" ">
<polygon fill="none" stroke="black" points="318.5,-234.5 318.5,-275.5 443.5,-275.5 443.5,-234.5 318.5,-234.5"/>
<text text-anchor="start" x="326.5" y="-263.5" font-family="Helvetica,sans-Serif" font-size="10.00">/home/krzysztof/PO</text>
<text text-anchor="start" x="326.5" y="-252.5" font-family="Helvetica,sans-Serif" font-size="10.00">/zad5_1&#45;kgliwinski/src</text>
<text text-anchor="middle" x="381" y="-241.5" font-family="Helvetica,sans-Serif" font-size="10.00">/prism.cpp</text>
</a>
</g>
</g>
<!-- Node11&#45;&gt;Node12 -->
<g id="edge12" class="edge">
<title>Node11&#45;&gt;Node12</title>
<path fill="none" stroke="midnightblue" d="M334.66,-304.92C343.86,-295.2 354.05,-284.45 362.52,-275.51"/>
<polygon fill="midnightblue" stroke="midnightblue" points="331.88,-302.76 327.54,-312.43 336.96,-307.58 331.88,-302.76"/>
</g>
<!-- Node14&#45;&gt;Node1 -->
<g id="edge15" class="edge">
<title>Node14&#45;&gt;Node1</title>
<path fill="none" stroke="midnightblue" d="M406.6,-597.63C406.92,-606.62 406.72,-616.27 405.99,-624.43"/>
<polygon fill="midnightblue" stroke="midnightblue" points="410.09,-597.27 405.98,-587.51 403.1,-597.7 410.09,-597.27"/>
</g>
<!-- Node15&#45;&gt;Node16 -->
<g id="edge17" class="edge">
<title>Node15&#45;&gt;Node16</title>
<path fill="none" stroke="midnightblue" d="M563.13,-541.77C542.98,-531.35 519.74,-519.34 500.73,-509.51"/>
<polygon fill="midnightblue" stroke="midnightblue" points="561.65,-544.94 572.14,-546.43 564.87,-538.73 561.65,-544.94"/>
</g>
<!-- Node18 -->
<g id="node18" class="node">
<title>Node18</title>
<g id="a_node18"><a xlink:href="matrix2_d_8hpp.html" target="_top" xlink:title=" ">
<polygon fill="none" stroke="black" points="554,-468.5 554,-509.5 700,-509.5 700,-468.5 554,-468.5"/>
<text text-anchor="start" x="562" y="-497.5" font-family="Helvetica,sans-Serif" font-size="10.00">/home/krzysztof/PO</text>
<text text-anchor="start" x="562" y="-486.5" font-family="Helvetica,sans-Serif" font-size="10.00">/zad5_1&#45;kgliwinski/include</text>
<text text-anchor="middle" x="627" y="-475.5" font-family="Helvetica,sans-Serif" font-size="10.00">/matrix2D.hpp</text>
</a>
</g>
</g>
<!-- Node15&#45;&gt;Node18 -->
<g id="edge21" class="edge">
<title>Node15&#45;&gt;Node18</title>
<path fill="none" stroke="midnightblue" d="M616.58,-536.59C618.61,-527.51 620.79,-517.74 622.64,-509.51"/>
<polygon fill="midnightblue" stroke="midnightblue" points="613.15,-535.91 614.38,-546.43 619.98,-537.43 613.15,-535.91"/>
</g>
<!-- Node21 -->
<g id="node21" class="node">
<title>Node21</title>
<g id="a_node21"><a xlink:href="matrix4_d_8hpp.html" target="_top" xlink:title=" ">
<polygon fill="none" stroke="black" points="851,-468.5 851,-509.5 997,-509.5 997,-468.5 851,-468.5"/>
<text text-anchor="start" x="859" y="-497.5" font-family="Helvetica,sans-Serif" font-size="10.00">/home/krzysztof/PO</text>
<text text-anchor="start" x="859" y="-486.5" font-family="Helvetica,sans-Serif" font-size="10.00">/zad5_1&#45;kgliwinski/include</text>
<text text-anchor="middle" x="924" y="-475.5" font-family="Helvetica,sans-Serif" font-size="10.00">/matrix4D.hpp</text>
</a>
</g>
</g>
<!-- Node15&#45;&gt;Node21 -->
<g id="edge25" class="edge">
<title>Node15&#45;&gt;Node21</title>
<path fill="none" stroke="midnightblue" d="M693.18,-545.87C742.24,-533.99 803.75,-519.11 850.93,-507.69"/>
<polygon fill="midnightblue" stroke="midnightblue" points="692.12,-542.52 683.22,-548.28 693.77,-549.33 692.12,-542.52"/>
</g>
<!-- Node16&#45;&gt;Node2 -->
<g id="edge18" class="edge">
<title>Node16&#45;&gt;Node2</title>
<path fill="none" stroke="midnightblue" d="M414.18,-463.91C393.01,-453.46 368.53,-441.38 348.52,-431.51"/>
<polygon fill="midnightblue" stroke="midnightblue" points="412.82,-467.14 423.34,-468.43 415.92,-460.86 412.82,-467.14"/>
</g>
<!-- Node17 -->
<g id="node17" class="node">
<title>Node17</title>
<g id="a_node17"><a xlink:href="matrix3_d_8cpp.html" target="_top" xlink:title=" ">
<polygon fill="none" stroke="black" points="400.5,-390.5 400.5,-431.5 525.5,-431.5 525.5,-390.5 400.5,-390.5"/>
<text text-anchor="start" x="408.5" y="-419.5" font-family="Helvetica,sans-Serif" font-size="10.00">/home/krzysztof/PO</text>
<text text-anchor="start" x="408.5" y="-408.5" font-family="Helvetica,sans-Serif" font-size="10.00">/zad5_1&#45;kgliwinski/src</text>
<text text-anchor="middle" x="463" y="-397.5" font-family="Helvetica,sans-Serif" font-size="10.00">/matrix3D.cpp</text>
</a>
</g>
</g>
<!-- Node16&#45;&gt;Node17 -->
<g id="edge19" class="edge">
<title>Node16&#45;&gt;Node17</title>
<path fill="none" stroke="midnightblue" d="M456.4,-458.3C456.08,-449.3 456.28,-439.65 457.02,-431.51"/>
<polygon fill="midnightblue" stroke="midnightblue" points="452.91,-458.66 457.01,-468.43 459.9,-458.23 452.91,-458.66"/>
</g>
<!-- Node17&#45;&gt;Node16 -->
<g id="edge20" class="edge">
<title>Node17&#45;&gt;Node16</title>
<path fill="none" stroke="midnightblue" d="M469.6,-441.63C469.92,-450.62 469.72,-460.27 468.99,-468.43"/>
<polygon fill="midnightblue" stroke="midnightblue" points="473.09,-441.27 468.98,-431.51 466.1,-441.7 473.09,-441.27"/>
</g>
<!-- Node19 -->
<g id="node19" class="node">
<title>Node19</title>
<g id="a_node19"><a xlink:href="matrix2_d_8cpp.html" target="_top" xlink:title=" ">
<polygon fill="none" stroke="black" points="553.5,-390.5 553.5,-431.5 678.5,-431.5 678.5,-390.5 553.5,-390.5"/>
<text text-anchor="start" x="561.5" y="-419.5" font-family="Helvetica,sans-Serif" font-size="10.00">/home/krzysztof/PO</text>
<text text-anchor="start" x="561.5" y="-408.5" font-family="Helvetica,sans-Serif" font-size="10.00">/zad5_1&#45;kgliwinski/src</text>
<text text-anchor="middle" x="616" y="-397.5" font-family="Helvetica,sans-Serif" font-size="10.00">/matrix2D.cpp</text>
</a>
</g>
</g>
<!-- Node18&#45;&gt;Node19 -->
<g id="edge22" class="edge">
<title>Node18&#45;&gt;Node19</title>
<path fill="none" stroke="midnightblue" d="M616.15,-458.59C614.5,-449.51 613.29,-439.74 612.84,-431.51"/>
<polygon fill="midnightblue" stroke="midnightblue" points="612.73,-459.34 618.18,-468.43 619.59,-457.93 612.73,-459.34"/>
</g>
<!-- Node20 -->
<g id="node20" class="node">
<title>Node20</title>
<g id="a_node20"><a xlink:href="vector2_d_8hpp.html" target="_top" xlink:title=" ">
<polygon fill="none" stroke="black" points="697,-390.5 697,-431.5 843,-431.5 843,-390.5 697,-390.5"/>
<text text-anchor="start" x="705" y="-419.5" font-family="Helvetica,sans-Serif" font-size="10.00">/home/krzysztof/PO</text>
<text text-anchor="start" x="705" y="-408.5" font-family="Helvetica,sans-Serif" font-size="10.00">/zad5_1&#45;kgliwinski/include</text>
<text text-anchor="middle" x="770" y="-397.5" font-family="Helvetica,sans-Serif" font-size="10.00">/vector2D.hpp</text>
</a>
</g>
</g>
<!-- Node18&#45;&gt;Node20 -->
<g id="edge24" class="edge">
<title>Node18&#45;&gt;Node20</title>
<path fill="none" stroke="midnightblue" d="M672.86,-463.63C692.4,-453.24 714.89,-441.29 733.3,-431.51"/>
<polygon fill="midnightblue" stroke="midnightblue" points="671.01,-460.64 663.83,-468.43 674.3,-466.83 671.01,-460.64"/>
</g>
<!-- Node19&#45;&gt;Node18 -->
<g id="edge23" class="edge">
<title>Node19&#45;&gt;Node18</title>
<path fill="none" stroke="midnightblue" d="M626.84,-441.34C628.49,-450.41 629.7,-460.18 630.16,-468.43"/>
<polygon fill="midnightblue" stroke="midnightblue" points="630.26,-440.59 624.81,-431.51 623.4,-442.01 630.26,-440.59"/>
</g>
<!-- Node22 -->
<g id="node22" class="node">
<title>Node22</title>
<g id="a_node22"><a xlink:href="matrix4_d_8cpp.html" target="_top" xlink:title=" ">
<polygon fill="none" stroke="black" points="861.5,-390.5 861.5,-431.5 986.5,-431.5 986.5,-390.5 861.5,-390.5"/>
<text text-anchor="start" x="869.5" y="-419.5" font-family="Helvetica,sans-Serif" font-size="10.00">/home/krzysztof/PO</text>
<text text-anchor="start" x="869.5" y="-408.5" font-family="Helvetica,sans-Serif" font-size="10.00">/zad5_1&#45;kgliwinski/src</text>
<text text-anchor="middle" x="924" y="-397.5" font-family="Helvetica,sans-Serif" font-size="10.00">/matrix4D.cpp</text>
</a>
</g>
</g>
<!-- Node21&#45;&gt;Node22 -->
<g id="edge26" class="edge">
<title>Node21&#45;&gt;Node22</title>
<path fill="none" stroke="midnightblue" d="M917.4,-458.3C917.08,-449.3 917.28,-439.65 918.02,-431.51"/>
<polygon fill="midnightblue" stroke="midnightblue" points="913.91,-458.66 918.01,-468.43 920.9,-458.23 913.91,-458.66"/>
</g>
<!-- Node22&#45;&gt;Node21 -->
<g id="edge27" class="edge">
<title>Node22&#45;&gt;Node21</title>
<path fill="none" stroke="midnightblue" d="M930.6,-441.63C930.92,-450.62 930.72,-460.27 929.99,-468.43"/>
<polygon fill="midnightblue" stroke="midnightblue" points="934.09,-441.27 929.98,-431.51 927.1,-441.7 934.09,-441.27"/>
</g>
</g>
</svg>
