<?xml version="1.0" encoding="UTF-8" standalone="no"?>
<!DOCTYPE svg PUBLIC "-//W3C//DTD SVG 1.1//EN"
 "http://www.w3.org/Graphics/SVG/1.1/DTD/svg11.dtd">
<!-- Generated by graphviz version 2.43.0 (0)
 -->
<!-- Title: /home/krzysztof/PO/zad5_1&#45;kgliwinski/include/vector.hpp Pages: 1 -->
<!--zoomable 752 -->
<svg id="main" version="1.1" xmlns="http://www.w3.org/2000/svg" xmlns:xlink="http://www.w3.org/1999/xlink" xml:space="preserve" onload="init(evt)">
<style type="text/css"><![CDATA[
.edge:hover path { stroke: red; }
.edge:hover polygon { stroke: red; fill: red; }
]]></style>
<script type="text/javascript"><![CDATA[
var edges = document.getElementsByTagName('g');
if (edges && edges.length) {
  for (var i=0;i<edges.length;i++) {
    if (edges[i].id.substr(0,4)=='edge') {
      edges[i].setAttribute('class','edge');
    }
  }
}
]]></script>
        <defs>
                <circle id="rim" cx="0" cy="0" r="7"/>
                <circle id="rim2" cx="0" cy="0" r="3.5"/>
                <g id="zoomPlus">
                        <use xlink:href="#rim" fill="#404040">
                                <set attributeName="fill" to="#808080" begin="zoomplus.mouseover" end="zoomplus.mouseout"/>
                        </use>
                        <path d="M-4,0h8M0,-4v8" fill="none" stroke="white" stroke-width="1.5" pointer-events="none"/>
                </g>
                <g id="zoomMin">
                        <use xlink:href="#rim" fill="#404040">
                                <set attributeName="fill" to="#808080" begin="zoomminus.mouseover" end="zoomminus.mouseout"/>
                        </use>
                        <path d="M-4,0h8" fill="none" stroke="white" stroke-width="1.5" pointer-events="none"/>
                </g>
                <g id="dirArrow">
                        <path fill="none" stroke="white" stroke-width="1.5" d="M0,-3.0v7 M-2.5,-0.5L0,-3.0L2.5,-0.5"/>
                </g>
               <g id="resetDef">
                       <use xlink:href="#rim2" fill="#404040">
                               <set attributeName="fill" to="#808080" begin="reset.mouseover" end="reset.mouseout"/>
                       </use>
               </g>
        </defs>

<script type="text/javascript">
var viewWidth = 995;
var viewHeight = 752;
var sectionId = 'dynsection-1';
</script>
<script xlink:href="svgpan.js"/>
<svg id="graph" class="graph">
<g id="viewport">
<title>/home/krzysztof/PO/zad5_1&#45;kgliwinski/include/vector.hpp</title>
<!-- Node1 -->
<g id="node1" class="node">
<title>Node1</title>
<g id="a_node1"><a xlink:title=" ">
<polygon fill="#bfbfbf" stroke="black" points="579,-702.5 579,-743.5 725,-743.5 725,-702.5 579,-702.5"/>
<text text-anchor="start" x="587" y="-731.5" font-family="Helvetica,sans-Serif" font-size="10.00">/home/krzysztof/PO</text>
<text text-anchor="start" x="587" y="-720.5" font-family="Helvetica,sans-Serif" font-size="10.00">/zad5_1&#45;kgliwinski/include</text>
<text text-anchor="middle" x="652" y="-709.5" font-family="Helvetica,sans-Serif" font-size="10.00">/vector.hpp</text>
</a>
</g>
</g>
<!-- Node2 -->
<g id="node2" class="node">
<title>Node2</title>
<g id="a_node2"><a xlink:href="vector3_d_8hpp.html" target="_top" xlink:title=" ">
<polygon fill="none" stroke="black" points="425,-624.5 425,-665.5 571,-665.5 571,-624.5 425,-624.5"/>
<text text-anchor="start" x="433" y="-653.5" font-family="Helvetica,sans-Serif" font-size="10.00">/home/krzysztof/PO</text>
<text text-anchor="start" x="433" y="-642.5" font-family="Helvetica,sans-Serif" font-size="10.00">/zad5_1&#45;kgliwinski/include</text>
<text text-anchor="middle" x="498" y="-631.5" font-family="Helvetica,sans-Serif" font-size="10.00">/vector3D.hpp</text>
</a>
</g>
</g>
<!-- Node1&#45;&gt;Node2 -->
<g id="edge1" class="edge">
<title>Node1&#45;&gt;Node2</title>
<path fill="none" stroke="midnightblue" d="M603.18,-697.91C582.01,-687.46 557.53,-675.38 537.52,-665.51"/>
<polygon fill="midnightblue" stroke="midnightblue" points="601.82,-701.14 612.34,-702.43 604.92,-694.86 601.82,-701.14"/>
</g>
<!-- Node16 -->
<g id="node16" class="node">
<title>Node16</title>
<g id="a_node16"><a xlink:href="matrix_8hpp.html" target="_top" xlink:title=" ">
<polygon fill="none" stroke="black" points="579,-546.5 579,-587.5 725,-587.5 725,-546.5 579,-546.5"/>
<text text-anchor="start" x="587" y="-575.5" font-family="Helvetica,sans-Serif" font-size="10.00">/home/krzysztof/PO</text>
<text text-anchor="start" x="587" y="-564.5" font-family="Helvetica,sans-Serif" font-size="10.00">/zad5_1&#45;kgliwinski/include</text>
<text text-anchor="middle" x="652" y="-553.5" font-family="Helvetica,sans-Serif" font-size="10.00">/matrix.hpp</text>
</a>
</g>
</g>
<!-- Node1&#45;&gt;Node16 -->
<g id="edge30" class="edge">
<title>Node1&#45;&gt;Node16</title>
<path fill="none" stroke="midnightblue" d="M652,-692.36C652,-661.61 652,-614.36 652,-587.83"/>
<polygon fill="midnightblue" stroke="midnightblue" points="648.5,-692.5 652,-702.5 655.5,-692.5 648.5,-692.5"/>
</g>
<!-- Node21 -->
<g id="node21" class="node">
<title>Node21</title>
<g id="a_node21"><a xlink:href="vector2_d_8hpp.html" target="_top" xlink:title=" ">
<polygon fill="none" stroke="black" points="687,-390.5 687,-431.5 833,-431.5 833,-390.5 687,-390.5"/>
<text text-anchor="start" x="695" y="-419.5" font-family="Helvetica,sans-Serif" font-size="10.00">/home/krzysztof/PO</text>
<text text-anchor="start" x="695" y="-408.5" font-family="Helvetica,sans-Serif" font-size="10.00">/zad5_1&#45;kgliwinski/include</text>
<text text-anchor="middle" x="760" y="-397.5" font-family="Helvetica,sans-Serif" font-size="10.00">/vector2D.hpp</text>
</a>
</g>
</g>
<!-- Node1&#45;&gt;Node21 -->
<g id="edge31" class="edge">
<title>Node1&#45;&gt;Node21</title>
<path fill="none" stroke="midnightblue" d="M673.66,-694.21C692.73,-668.24 719.63,-627.62 734,-588 753.69,-533.7 758.49,-464.82 759.64,-431.63"/>
<polygon fill="midnightblue" stroke="midnightblue" points="670.7,-692.32 667.53,-702.43 676.31,-696.51 670.7,-692.32"/>
</g>
<!-- Node3 -->
<g id="node3" class="node">
<title>Node3</title>
<g id="a_node3"><a xlink:href="block_8hpp.html" target="_top" xlink:title="Plik zawiera definicję klasy reprezentujacej bryle w przestrzeni trojwymiarowej.">
<polygon fill="none" stroke="black" points="236,-390.5 236,-431.5 382,-431.5 382,-390.5 236,-390.5"/>
<text text-anchor="start" x="244" y="-419.5" font-family="Helvetica,sans-Serif" font-size="10.00">/home/krzysztof/PO</text>
<text text-anchor="start" x="244" y="-408.5" font-family="Helvetica,sans-Serif" font-size="10.00">/zad5_1&#45;kgliwinski/include</text>
<text text-anchor="middle" x="309" y="-397.5" font-family="Helvetica,sans-Serif" font-size="10.00">/block.hpp</text>
</a>
</g>
</g>
<!-- Node2&#45;&gt;Node3 -->
<g id="edge2" class="edge">
<title>Node2&#45;&gt;Node3</title>
<path fill="none" stroke="midnightblue" d="M455.02,-618.63C442.24,-609.9 428.79,-599.41 418,-588 371.34,-538.64 334.16,-466.23 317.9,-431.71"/>
<polygon fill="midnightblue" stroke="midnightblue" points="453.45,-621.79 463.72,-624.39 457.31,-615.95 453.45,-621.79"/>
</g>
<!-- Node15 -->
<g id="node15" class="node">
<title>Node15</title>
<g id="a_node15"><a xlink:href="vector3_d_8cpp.html" target="_top" xlink:title=" ">
<polygon fill="none" stroke="black" points="435.5,-546.5 435.5,-587.5 560.5,-587.5 560.5,-546.5 435.5,-546.5"/>
<text text-anchor="start" x="443.5" y="-575.5" font-family="Helvetica,sans-Serif" font-size="10.00">/home/krzysztof/PO</text>
<text text-anchor="start" x="443.5" y="-564.5" font-family="Helvetica,sans-Serif" font-size="10.00">/zad5_1&#45;kgliwinski/src</text>
<text text-anchor="middle" x="498" y="-553.5" font-family="Helvetica,sans-Serif" font-size="10.00">/vector3D.cpp</text>
</a>
</g>
</g>
<!-- Node2&#45;&gt;Node15 -->
<g id="edge15" class="edge">
<title>Node2&#45;&gt;Node15</title>
<path fill="none" stroke="midnightblue" d="M491.4,-614.3C491.08,-605.3 491.28,-595.65 492.02,-587.51"/>
<polygon fill="midnightblue" stroke="midnightblue" points="487.91,-614.66 492.01,-624.43 494.9,-614.23 487.91,-614.66"/>
</g>
<!-- Node2&#45;&gt;Node16 -->
<g id="edge17" class="edge">
<title>Node2&#45;&gt;Node16</title>
<path fill="none" stroke="midnightblue" d="M546.82,-619.91C567.99,-609.46 592.47,-597.38 612.48,-587.51"/>
<polygon fill="midnightblue" stroke="midnightblue" points="545.08,-616.86 537.66,-624.43 548.18,-623.14 545.08,-616.86"/>
</g>
<!-- Node17 -->
<g id="node17" class="node">
<title>Node17</title>
<g id="a_node17"><a xlink:href="matrix3_d_8hpp.html" target="_top" xlink:title=" ">
<polygon fill="none" stroke="black" points="390,-468.5 390,-509.5 536,-509.5 536,-468.5 390,-468.5"/>
<text text-anchor="start" x="398" y="-497.5" font-family="Helvetica,sans-Serif" font-size="10.00">/home/krzysztof/PO</text>
<text text-anchor="start" x="398" y="-486.5" font-family="Helvetica,sans-Serif" font-size="10.00">/zad5_1&#45;kgliwinski/include</text>
<text text-anchor="middle" x="463" y="-475.5" font-family="Helvetica,sans-Serif" font-size="10.00">/matrix3D.hpp</text>
</a>
</g>
</g>
<!-- Node2&#45;&gt;Node17 -->
<g id="edge29" class="edge">
<title>Node2&#45;&gt;Node17</title>
<path fill="none" stroke="midnightblue" d="M452.26,-618.45C441.71,-610.2 431.88,-600.02 426,-588 413.14,-561.7 431.09,-529.72 446.18,-509.6"/>
<polygon fill="midnightblue" stroke="midnightblue" points="450.26,-621.33 460.41,-624.38 454.38,-615.67 450.26,-621.33"/>
</g>
<!-- Node4 -->
<g id="node4" class="node">
<title>Node4</title>
<g id="a_node4"><a xlink:href="cuboid_8hpp.html" target="_top" xlink:title="Plik zawiera definicję klasy reprezentujacej prostopadloscian w przestrzeni trojwymiarowej.">
<polygon fill="none" stroke="black" points="236,-312.5 236,-353.5 382,-353.5 382,-312.5 236,-312.5"/>
<text text-anchor="start" x="244" y="-341.5" font-family="Helvetica,sans-Serif" font-size="10.00">/home/krzysztof/PO</text>
<text text-anchor="start" x="244" y="-330.5" font-family="Helvetica,sans-Serif" font-size="10.00">/zad5_1&#45;kgliwinski/include</text>
<text text-anchor="middle" x="309" y="-319.5" font-family="Helvetica,sans-Serif" font-size="10.00">/cuboid.hpp</text>
</a>
</g>
</g>
<!-- Node3&#45;&gt;Node4 -->
<g id="edge3" class="edge">
<title>Node3&#45;&gt;Node4</title>
<path fill="none" stroke="midnightblue" d="M309,-380.3C309,-371.3 309,-361.65 309,-353.51"/>
<polygon fill="midnightblue" stroke="midnightblue" points="305.5,-380.43 309,-390.43 312.5,-380.43 305.5,-380.43"/>
</g>
<!-- Node12 -->
<g id="node12" class="node">
<title>Node12</title>
<g id="a_node12"><a xlink:href="prism_8hpp.html" target="_top" xlink:title="Plik zawiera definicję klasy reprezentujacej graniastoslup o podstawie o 6 wierzcholkach w przestrzen...">
<polygon fill="none" stroke="black" points="72,-312.5 72,-353.5 218,-353.5 218,-312.5 72,-312.5"/>
<text text-anchor="start" x="80" y="-341.5" font-family="Helvetica,sans-Serif" font-size="10.00">/home/krzysztof/PO</text>
<text text-anchor="start" x="80" y="-330.5" font-family="Helvetica,sans-Serif" font-size="10.00">/zad5_1&#45;kgliwinski/include</text>
<text text-anchor="middle" x="145" y="-319.5" font-family="Helvetica,sans-Serif" font-size="10.00">/prism.hpp</text>
</a>
</g>
</g>
<!-- Node3&#45;&gt;Node12 -->
<g id="edge11" class="edge">
<title>Node3&#45;&gt;Node12</title>
<path fill="none" stroke="midnightblue" d="M257.62,-386.19C234.93,-375.67 208.59,-363.47 187.09,-353.51"/>
<polygon fill="midnightblue" stroke="midnightblue" points="256.22,-389.4 266.77,-390.43 259.16,-383.05 256.22,-389.4"/>
</g>
<!-- Node14 -->
<g id="node14" class="node">
<title>Node14</title>
<g id="a_node14"><a xlink:href="block_8cpp.html" target="_top" xlink:title=" ">
<polygon fill="none" stroke="black" points="400.5,-312.5 400.5,-353.5 525.5,-353.5 525.5,-312.5 400.5,-312.5"/>
<text text-anchor="start" x="408.5" y="-341.5" font-family="Helvetica,sans-Serif" font-size="10.00">/home/krzysztof/PO</text>
<text text-anchor="start" x="408.5" y="-330.5" font-family="Helvetica,sans-Serif" font-size="10.00">/zad5_1&#45;kgliwinski/src</text>
<text text-anchor="middle" x="463" y="-319.5" font-family="Helvetica,sans-Serif" font-size="10.00">/block.cpp</text>
</a>
</g>
</g>
<!-- Node3&#45;&gt;Node14 -->
<g id="edge14" class="edge">
<title>Node3&#45;&gt;Node14</title>
<path fill="none" stroke="midnightblue" d="M357.82,-385.91C378.99,-375.46 403.47,-363.38 423.48,-353.51"/>
<polygon fill="midnightblue" stroke="midnightblue" points="356.08,-382.86 348.66,-390.43 359.18,-389.14 356.08,-382.86"/>
</g>
<!-- Node5 -->
<g id="node5" class="node">
<title>Node5</title>
<g id="a_node5"><a xlink:href="drone_8hpp.html" target="_top" xlink:title="Plik zawiera definicję klasy reprezentujacej drona, budowanie i przemieszczanie go.">
<polygon fill="none" stroke="black" points="154,-234.5 154,-275.5 300,-275.5 300,-234.5 154,-234.5"/>
<text text-anchor="start" x="162" y="-263.5" font-family="Helvetica,sans-Serif" font-size="10.00">/home/krzysztof/PO</text>
<text text-anchor="start" x="162" y="-252.5" font-family="Helvetica,sans-Serif" font-size="10.00">/zad5_1&#45;kgliwinski/include</text>
<text text-anchor="middle" x="227" y="-241.5" font-family="Helvetica,sans-Serif" font-size="10.00">/drone.hpp</text>
</a>
</g>
</g>
<!-- Node4&#45;&gt;Node5 -->
<g id="edge4" class="edge">
<title>Node4&#45;&gt;Node5</title>
<path fill="none" stroke="midnightblue" d="M280.4,-305.49C269.76,-295.63 257.89,-284.63 248.05,-275.51"/>
<polygon fill="midnightblue" stroke="midnightblue" points="278.17,-308.2 287.88,-312.43 282.93,-303.06 278.17,-308.2"/>
</g>
<!-- Node11 -->
<g id="node11" class="node">
<title>Node11</title>
<g id="a_node11"><a xlink:href="cuboid_8cpp.html" target="_top" xlink:title=" ">
<polygon fill="none" stroke="black" points="318.5,-234.5 318.5,-275.5 443.5,-275.5 443.5,-234.5 318.5,-234.5"/>
<text text-anchor="start" x="326.5" y="-263.5" font-family="Helvetica,sans-Serif" font-size="10.00">/home/krzysztof/PO</text>
<text text-anchor="start" x="326.5" y="-252.5" font-family="Helvetica,sans-Serif" font-size="10.00">/zad5_1&#45;kgliwinski/src</text>
<text text-anchor="middle" x="381" y="-241.5" font-family="Helvetica,sans-Serif" font-size="10.00">/cuboid.cpp</text>
</a>
</g>
</g>
<!-- Node4&#45;&gt;Node11 -->
<g id="edge10" class="edge">
<title>Node4&#45;&gt;Node11</title>
<path fill="none" stroke="midnightblue" d="M334.66,-304.92C343.86,-295.2 354.05,-284.45 362.52,-275.51"/>
<polygon fill="midnightblue" stroke="midnightblue" points="331.88,-302.76 327.54,-312.43 336.96,-307.58 331.88,-302.76"/>
</g>
<!-- Node6 -->
<g id="node6" class="node">
<title>Node6</title>
<g id="a_node6"><a xlink:href="scene_8hpp.html" target="_top" xlink:title="Plik zawiera definicję klasy reprezentujacej scene, obslugujacej zapis do plikow i wytswietlanie w gn...">
<polygon fill="none" stroke="black" points="77,-156.5 77,-197.5 223,-197.5 223,-156.5 77,-156.5"/>
<text text-anchor="start" x="85" y="-185.5" font-family="Helvetica,sans-Serif" font-size="10.00">/home/krzysztof/PO</text>
<text text-anchor="start" x="85" y="-174.5" font-family="Helvetica,sans-Serif" font-size="10.00">/zad5_1&#45;kgliwinski/include</text>
<text text-anchor="middle" x="150" y="-163.5" font-family="Helvetica,sans-Serif" font-size="10.00">/scene.hpp</text>
</a>
</g>
</g>
<!-- Node5&#45;&gt;Node6 -->
<g id="edge5" class="edge">
<title>Node5&#45;&gt;Node6</title>
<path fill="none" stroke="midnightblue" d="M199.85,-227.2C189.93,-217.42 178.91,-206.54 169.76,-197.51"/>
<polygon fill="midnightblue" stroke="midnightblue" points="197.59,-229.89 207.17,-234.43 202.51,-224.91 197.59,-229.89"/>
</g>
<!-- Node10 -->
<g id="node10" class="node">
<title>Node10</title>
<g id="a_node10"><a xlink:href="drone_8cpp.html" target="_top" xlink:title=" ">
<polygon fill="none" stroke="black" points="241.5,-156.5 241.5,-197.5 366.5,-197.5 366.5,-156.5 241.5,-156.5"/>
<text text-anchor="start" x="249.5" y="-185.5" font-family="Helvetica,sans-Serif" font-size="10.00">/home/krzysztof/PO</text>
<text text-anchor="start" x="249.5" y="-174.5" font-family="Helvetica,sans-Serif" font-size="10.00">/zad5_1&#45;kgliwinski/src</text>
<text text-anchor="middle" x="304" y="-163.5" font-family="Helvetica,sans-Serif" font-size="10.00">/drone.cpp</text>
</a>
</g>
</g>
<!-- Node5&#45;&gt;Node10 -->
<g id="edge9" class="edge">
<title>Node5&#45;&gt;Node10</title>
<path fill="none" stroke="midnightblue" d="M254.15,-227.2C264.07,-217.42 275.09,-206.54 284.24,-197.51"/>
<polygon fill="midnightblue" stroke="midnightblue" points="251.49,-224.91 246.83,-234.43 256.41,-229.89 251.49,-224.91"/>
</g>
<!-- Node7 -->
<g id="node7" class="node">
<title>Node7</title>
<g id="a_node7"><a xlink:href="menu_8hpp.html" target="_top" xlink:title="Plik zawiera definicję klasy reprezentujacej menu, obslugujace menu programu.">
<polygon fill="none" stroke="black" points="0,-78.5 0,-119.5 146,-119.5 146,-78.5 0,-78.5"/>
<text text-anchor="start" x="8" y="-107.5" font-family="Helvetica,sans-Serif" font-size="10.00">/home/krzysztof/PO</text>
<text text-anchor="start" x="8" y="-96.5" font-family="Helvetica,sans-Serif" font-size="10.00">/zad5_1&#45;kgliwinski/include</text>
<text text-anchor="middle" x="73" y="-85.5" font-family="Helvetica,sans-Serif" font-size="10.00">/menu.hpp</text>
</a>
</g>
</g>
<!-- Node6&#45;&gt;Node7 -->
<g id="edge6" class="edge">
<title>Node6&#45;&gt;Node7</title>
<path fill="none" stroke="midnightblue" d="M122.85,-149.2C112.93,-139.42 101.91,-128.54 92.76,-119.51"/>
<polygon fill="midnightblue" stroke="midnightblue" points="120.59,-151.89 130.17,-156.43 125.51,-146.91 120.59,-151.89"/>
</g>
<!-- Node9 -->
<g id="node9" class="node">
<title>Node9</title>
<g id="a_node9"><a xlink:href="scene_8cpp.html" target="_top" xlink:title=" ">
<polygon fill="none" stroke="black" points="164.5,-78.5 164.5,-119.5 289.5,-119.5 289.5,-78.5 164.5,-78.5"/>
<text text-anchor="start" x="172.5" y="-107.5" font-family="Helvetica,sans-Serif" font-size="10.00">/home/krzysztof/PO</text>
<text text-anchor="start" x="172.5" y="-96.5" font-family="Helvetica,sans-Serif" font-size="10.00">/zad5_1&#45;kgliwinski/src</text>
<text text-anchor="middle" x="227" y="-85.5" font-family="Helvetica,sans-Serif" font-size="10.00">/scene.cpp</text>
</a>
</g>
</g>
<!-- Node6&#45;&gt;Node9 -->
<g id="edge8" class="edge">
<title>Node6&#45;&gt;Node9</title>
<path fill="none" stroke="midnightblue" d="M177.15,-149.2C187.07,-139.42 198.09,-128.54 207.24,-119.51"/>
<polygon fill="midnightblue" stroke="midnightblue" points="174.49,-146.91 169.83,-156.43 179.41,-151.89 174.49,-146.91"/>
</g>
<!-- Node8 -->
<g id="node8" class="node">
<title>Node8</title>
<g id="a_node8"><a xlink:href="menu_8cpp.html" target="_top" xlink:title=" ">
<polygon fill="none" stroke="black" points="10.5,-0.5 10.5,-41.5 135.5,-41.5 135.5,-0.5 10.5,-0.5"/>
<text text-anchor="start" x="18.5" y="-29.5" font-family="Helvetica,sans-Serif" font-size="10.00">/home/krzysztof/PO</text>
<text text-anchor="start" x="18.5" y="-18.5" font-family="Helvetica,sans-Serif" font-size="10.00">/zad5_1&#45;kgliwinski/src</text>
<text text-anchor="middle" x="73" y="-7.5" font-family="Helvetica,sans-Serif" font-size="10.00">/menu.cpp</text>
</a>
</g>
</g>
<!-- Node7&#45;&gt;Node8 -->
<g id="edge7" class="edge">
<title>Node7&#45;&gt;Node8</title>
<path fill="none" stroke="midnightblue" d="M73,-68.3C73,-59.3 73,-49.65 73,-41.51"/>
<polygon fill="midnightblue" stroke="midnightblue" points="69.5,-68.43 73,-78.43 76.5,-68.43 69.5,-68.43"/>
</g>
<!-- Node12&#45;&gt;Node5 -->
<g id="edge12" class="edge">
<title>Node12&#45;&gt;Node5</title>
<path fill="none" stroke="midnightblue" d="M173.6,-305.49C184.24,-295.63 196.11,-284.63 205.95,-275.51"/>
<polygon fill="midnightblue" stroke="midnightblue" points="171.07,-303.06 166.12,-312.43 175.83,-308.2 171.07,-303.06"/>
</g>
<!-- Node13 -->
<g id="node13" class="node">
<title>Node13</title>
<g id="a_node13"><a xlink:href="prism_8cpp.html" target="_top" xlink:title=" ">
<polygon fill="none" stroke="black" points="10.5,-234.5 10.5,-275.5 135.5,-275.5 135.5,-234.5 10.5,-234.5"/>
<text text-anchor="start" x="18.5" y="-263.5" font-family="Helvetica,sans-Serif" font-size="10.00">/home/krzysztof/PO</text>
<text text-anchor="start" x="18.5" y="-252.5" font-family="Helvetica,sans-Serif" font-size="10.00">/zad5_1&#45;kgliwinski/src</text>
<text text-anchor="middle" x="73" y="-241.5" font-family="Helvetica,sans-Serif" font-size="10.00">/prism.cpp</text>
</a>
</g>
</g>
<!-- Node12&#45;&gt;Node13 -->
<g id="edge13" class="edge">
<title>Node12&#45;&gt;Node13</title>
<path fill="none" stroke="midnightblue" d="M119.34,-304.92C110.14,-295.2 99.95,-284.45 91.48,-275.51"/>
<polygon fill="midnightblue" stroke="midnightblue" points="117.04,-307.58 126.46,-312.43 122.12,-302.76 117.04,-307.58"/>
</g>
<!-- Node15&#45;&gt;Node2 -->
<g id="edge16" class="edge">
<title>Node15&#45;&gt;Node2</title>
<path fill="none" stroke="midnightblue" d="M504.6,-597.63C504.92,-606.62 504.72,-616.27 503.99,-624.43"/>
<polygon fill="midnightblue" stroke="midnightblue" points="508.09,-597.27 503.98,-587.51 501.1,-597.7 508.09,-597.27"/>
</g>
<!-- Node16&#45;&gt;Node17 -->
<g id="edge18" class="edge">
<title>Node16&#45;&gt;Node17</title>
<path fill="none" stroke="midnightblue" d="M593.83,-542.61C567.45,-532 536.61,-519.6 511.51,-509.51"/>
<polygon fill="midnightblue" stroke="midnightblue" points="592.74,-545.94 603.33,-546.43 595.36,-539.45 592.74,-545.94"/>
</g>
<!-- Node19 -->
<g id="node19" class="node">
<title>Node19</title>
<g id="a_node19"><a xlink:href="matrix2_d_8hpp.html" target="_top" xlink:title=" ">
<polygon fill="none" stroke="black" points="567,-468.5 567,-509.5 713,-509.5 713,-468.5 567,-468.5"/>
<text text-anchor="start" x="575" y="-497.5" font-family="Helvetica,sans-Serif" font-size="10.00">/home/krzysztof/PO</text>
<text text-anchor="start" x="575" y="-486.5" font-family="Helvetica,sans-Serif" font-size="10.00">/zad5_1&#45;kgliwinski/include</text>
<text text-anchor="middle" x="640" y="-475.5" font-family="Helvetica,sans-Serif" font-size="10.00">/matrix2D.hpp</text>
</a>
</g>
</g>
<!-- Node16&#45;&gt;Node19 -->
<g id="edge22" class="edge">
<title>Node16&#45;&gt;Node19</title>
<path fill="none" stroke="midnightblue" d="M647.31,-536.3C645.89,-527.3 644.37,-517.65 643.08,-509.51"/>
<polygon fill="midnightblue" stroke="midnightblue" points="643.89,-537.1 648.91,-546.43 650.81,-536 643.89,-537.1"/>
</g>
<!-- Node22 -->
<g id="node22" class="node">
<title>Node22</title>
<g id="a_node22"><a xlink:href="matrix4_d_8hpp.html" target="_top" xlink:title=" ">
<polygon fill="none" stroke="black" points="841,-468.5 841,-509.5 987,-509.5 987,-468.5 841,-468.5"/>
<text text-anchor="start" x="849" y="-497.5" font-family="Helvetica,sans-Serif" font-size="10.00">/home/krzysztof/PO</text>
<text text-anchor="start" x="849" y="-486.5" font-family="Helvetica,sans-Serif" font-size="10.00">/zad5_1&#45;kgliwinski/include</text>
<text text-anchor="middle" x="914" y="-475.5" font-family="Helvetica,sans-Serif" font-size="10.00">/matrix4D.hpp</text>
</a>
</g>
</g>
<!-- Node16&#45;&gt;Node22 -->
<g id="edge26" class="edge">
<title>Node16&#45;&gt;Node22</title>
<path fill="none" stroke="midnightblue" d="M729.29,-543.58C766.58,-532.76 810.88,-519.91 846.76,-509.51"/>
<polygon fill="midnightblue" stroke="midnightblue" points="728.1,-540.28 719.47,-546.43 730.05,-547 728.1,-540.28"/>
</g>
<!-- Node17&#45;&gt;Node3 -->
<g id="edge19" class="edge">
<title>Node17&#45;&gt;Node3</title>
<path fill="none" stroke="midnightblue" d="M414.18,-463.91C393.01,-453.46 368.53,-441.38 348.52,-431.51"/>
<polygon fill="midnightblue" stroke="midnightblue" points="412.82,-467.14 423.34,-468.43 415.92,-460.86 412.82,-467.14"/>
</g>
<!-- Node18 -->
<g id="node18" class="node">
<title>Node18</title>
<g id="a_node18"><a xlink:href="matrix3_d_8cpp.html" target="_top" xlink:title=" ">
<polygon fill="none" stroke="black" points="400.5,-390.5 400.5,-431.5 525.5,-431.5 525.5,-390.5 400.5,-390.5"/>
<text text-anchor="start" x="408.5" y="-419.5" font-family="Helvetica,sans-Serif" font-size="10.00">/home/krzysztof/PO</text>
<text text-anchor="start" x="408.5" y="-408.5" font-family="Helvetica,sans-Serif" font-size="10.00">/zad5_1&#45;kgliwinski/src</text>
<text text-anchor="middle" x="463" y="-397.5" font-family="Helvetica,sans-Serif" font-size="10.00">/matrix3D.cpp</text>
</a>
</g>
</g>
<!-- Node17&#45;&gt;Node18 -->
<g id="edge20" class="edge">
<title>Node17&#45;&gt;Node18</title>
<path fill="none" stroke="midnightblue" d="M456.4,-458.3C456.08,-449.3 456.28,-439.65 457.02,-431.51"/>
<polygon fill="midnightblue" stroke="midnightblue" points="452.91,-458.66 457.01,-468.43 459.9,-458.23 452.91,-458.66"/>
</g>
<!-- Node18&#45;&gt;Node17 -->
<g id="edge21" class="edge">
<title>Node18&#45;&gt;Node17</title>
<path fill="none" stroke="midnightblue" d="M469.6,-441.63C469.92,-450.62 469.72,-460.27 468.99,-468.43"/>
<polygon fill="midnightblue" stroke="midnightblue" points="473.09,-441.27 468.98,-431.51 466.1,-441.7 473.09,-441.27"/>
</g>
<!-- Node20 -->
<g id="node20" class="node">
<title>Node20</title>
<g id="a_node20"><a xlink:href="matrix2_d_8cpp.html" target="_top" xlink:title=" ">
<polygon fill="none" stroke="black" points="543.5,-390.5 543.5,-431.5 668.5,-431.5 668.5,-390.5 543.5,-390.5"/>
<text text-anchor="start" x="551.5" y="-419.5" font-family="Helvetica,sans-Serif" font-size="10.00">/home/krzysztof/PO</text>
<text text-anchor="start" x="551.5" y="-408.5" font-family="Helvetica,sans-Serif" font-size="10.00">/zad5_1&#45;kgliwinski/src</text>
<text text-anchor="middle" x="606" y="-397.5" font-family="Helvetica,sans-Serif" font-size="10.00">/matrix2D.cpp</text>
</a>
</g>
</g>
<!-- Node19&#45;&gt;Node20 -->
<g id="edge23" class="edge">
<title>Node19&#45;&gt;Node20</title>
<path fill="none" stroke="midnightblue" d="M620.67,-459.47C616.12,-450.14 611.78,-440.01 608.74,-431.51"/>
<polygon fill="midnightblue" stroke="midnightblue" points="617.59,-461.12 625.26,-468.43 623.82,-457.93 617.59,-461.12"/>
</g>
<!-- Node19&#45;&gt;Node21 -->
<g id="edge25" class="edge">
<title>Node19&#45;&gt;Node21</title>
<path fill="none" stroke="midnightblue" d="M679.6,-462.92C695.73,-452.7 714.1,-441.07 729.2,-431.51"/>
<polygon fill="midnightblue" stroke="midnightblue" points="677.48,-460.12 670.9,-468.43 681.22,-466.03 677.48,-460.12"/>
</g>
<!-- Node20&#45;&gt;Node19 -->
<g id="edge24" class="edge">
<title>Node20&#45;&gt;Node19</title>
<path fill="none" stroke="midnightblue" d="M625.29,-440.46C629.84,-449.78 634.19,-459.92 637.23,-468.43"/>
<polygon fill="midnightblue" stroke="midnightblue" points="628.38,-438.81 620.71,-431.51 622.15,-442 628.38,-438.81"/>
</g>
<!-- Node23 -->
<g id="node23" class="node">
<title>Node23</title>
<g id="a_node23"><a xlink:href="matrix4_d_8cpp.html" target="_top" xlink:title=" ">
<polygon fill="none" stroke="black" points="851.5,-390.5 851.5,-431.5 976.5,-431.5 976.5,-390.5 851.5,-390.5"/>
<text text-anchor="start" x="859.5" y="-419.5" font-family="Helvetica,sans-Serif" font-size="10.00">/home/krzysztof/PO</text>
<text text-anchor="start" x="859.5" y="-408.5" font-family="Helvetica,sans-Serif" font-size="10.00">/zad5_1&#45;kgliwinski/src</text>
<text text-anchor="middle" x="914" y="-397.5" font-family="Helvetica,sans-Serif" font-size="10.00">/matrix4D.cpp</text>
</a>
</g>
</g>
<!-- Node22&#45;&gt;Node23 -->
<g id="edge27" class="edge">
<title>Node22&#45;&gt;Node23</title>
<path fill="none" stroke="midnightblue" d="M907.4,-458.3C907.08,-449.3 907.28,-439.65 908.02,-431.51"/>
<polygon fill="midnightblue" stroke="midnightblue" points="903.91,-458.66 908.01,-468.43 910.9,-458.23 903.91,-458.66"/>
</g>
<!-- Node23&#45;&gt;Node22 -->
<g id="edge28" class="edge">
<title>Node23&#45;&gt;Node22</title>
<path fill="none" stroke="midnightblue" d="M920.6,-441.63C920.92,-450.62 920.72,-460.27 919.99,-468.43"/>
<polygon fill="midnightblue" stroke="midnightblue" points="924.09,-441.27 919.98,-431.51 917.1,-441.7 924.09,-441.27"/>
</g>
</g>
</svg>
        <g id="navigator" transform="translate(0 0)" fill="#404254">
                <rect fill="#f2f5e9" fill-opacity="0.5" stroke="#606060" stroke-width=".5" x="0" y="0" width="60" height="60"/>
                <use id="zoomplus" xlink:href="#zoomPlus" x="17" y="9" onmousedown="handleZoom(evt,'in')"/>
                <use id="zoomminus" xlink:href="#zoomMin" x="42" y="9" onmousedown="handleZoom(evt,'out')"/>
                <use id="reset" xlink:href="#resetDef" x="30" y="36" onmousedown="handleReset()"/>
                <g id="arrowUp" xlink:href="#dirArrow" transform="translate(30 24)" onmousedown="handlePan(0,-1)">
                  <use xlink:href="#rim" fill="#404040">
                        <set attributeName="fill" to="#808080" begin="arrowUp.mouseover" end="arrowUp.mouseout"/>
                  </use>
                  <path fill="none" stroke="white" stroke-width="1.5" d="M0,-3.0v7 M-2.5,-0.5L0,-3.0L2.5,-0.5"/>
                </g>
                <g id="arrowRight" xlink:href="#dirArrow" transform="rotate(90) translate(36 -43)" onmousedown="handlePan(1,0)">
                  <use xlink:href="#rim" fill="#404040">
                        <set attributeName="fill" to="#808080" begin="arrowRight.mouseover" end="arrowRight.mouseout"/>
                  </use>
                  <path fill="none" stroke="white" stroke-width="1.5" d="M0,-3.0v7 M-2.5,-0.5L0,-3.0L2.5,-0.5"/>
                </g>
                <g id="arrowDown" xlink:href="#dirArrow" transform="rotate(180) translate(-30 -48)" onmousedown="handlePan(0,1)">
                  <use xlink:href="#rim" fill="#404040">
                        <set attributeName="fill" to="#808080" begin="arrowDown.mouseover" end="arrowDown.mouseout"/>
                  </use>
                  <path fill="none" stroke="white" stroke-width="1.5" d="M0,-3.0v7 M-2.5,-0.5L0,-3.0L2.5,-0.5"/>
                </g>
                <g id="arrowLeft" xlink:href="#dirArrow" transform="rotate(270) translate(-36 17)" onmousedown="handlePan(-1,0)">
                  <use xlink:href="#rim" fill="#404040">
                        <set attributeName="fill" to="#808080" begin="arrowLeft.mouseover" end="arrowLeft.mouseout"/>
                  </use>
                  <path fill="none" stroke="white" stroke-width="1.5" d="M0,-3.0v7 M-2.5,-0.5L0,-3.0L2.5,-0.5"/>
                </g>
        </g>
        <svg viewBox="0 0 15 15" width="100%" height="30px" preserveAspectRatio="xMaxYMin meet">
         <g id="arrow_out" transform="scale(0.3 0.3)">
          <a xlink:href="vector_8hpp__dep__incl_org.svg" target="_base">
           <rect id="button" ry="5" rx="5" y="6" x="6" height="38" width="38"
                fill="#f2f5e9" fill-opacity="0.5" stroke="#606060" stroke-width="1.0"/>
           <path id="arrow"
             d="M 11.500037,31.436501 C 11.940474,20.09759 22.043105,11.32322 32.158766,21.979434 L 37.068811,17.246167 C 37.068811,17.246167 37.088388,32 37.088388,32 L 22.160133,31.978069 C 22.160133,31.978069 26.997745,27.140456 26.997745,27.140456 C 18.528582,18.264221 13.291696,25.230495 11.500037,31.436501 z"
             style="fill:#404040;"/>
          </a>
         </g>
        </svg>
</svg>
